G04 EAGLE Gerber RS-274X export*
G75*
%MOIN*%
%FSLAX34Y34*%
%LPD*%
%INBottom Copper*%
%IPPOS*%
%AMOC8*
5,1,8,0,0,1.08239X$1,22.5*%
G01*
%ADD10C,0.052000*%
%ADD11P,0.064943X8X292.500000*%
%ADD12P,0.064943X8X22.500000*%
%ADD13P,0.070313X8X202.500000*%
%ADD14P,0.070313X8X22.500000*%
%ADD15C,0.006000*%

G36*
X61242Y3401D02*
X61242Y3401D01*
X61246Y3402D01*
X61247Y3402D01*
X61248Y3402D01*
X61251Y3404D01*
X61254Y3406D01*
X61255Y3406D01*
X61256Y3407D01*
X61259Y3410D01*
X61261Y3412D01*
X61262Y3413D01*
X61262Y3414D01*
X61264Y3417D01*
X61266Y3421D01*
X61266Y3422D01*
X61266Y3423D01*
X61267Y3426D01*
X61267Y3430D01*
X61267Y3431D01*
X61267Y3432D01*
X61266Y3436D01*
X61266Y3440D01*
X61265Y3440D01*
X61265Y3441D01*
X61263Y3445D01*
X61261Y3448D01*
X61260Y3449D01*
X61257Y3452D01*
X61254Y3455D01*
X61253Y3455D01*
X61252Y3455D01*
X61252Y3456D01*
X61249Y3457D01*
X61161Y3493D01*
X60993Y3661D01*
X60902Y3881D01*
X60902Y4119D01*
X60993Y4339D01*
X61161Y4507D01*
X61381Y4598D01*
X61619Y4598D01*
X61839Y4507D01*
X62007Y4339D01*
X62035Y4270D01*
X62037Y4266D01*
X62039Y4263D01*
X62040Y4262D01*
X62043Y4259D01*
X62046Y4257D01*
X62047Y4256D01*
X62048Y4256D01*
X62051Y4254D01*
X62055Y4253D01*
X62056Y4253D01*
X62057Y4252D01*
X62060Y4252D01*
X62064Y4252D01*
X62065Y4252D01*
X62066Y4252D01*
X62070Y4253D01*
X62074Y4254D01*
X62074Y4255D01*
X62075Y4255D01*
X62078Y4257D01*
X62082Y4259D01*
X62082Y4260D01*
X62083Y4260D01*
X62085Y4264D01*
X62088Y4267D01*
X62088Y4268D01*
X62090Y4272D01*
X62091Y4276D01*
X62091Y4277D01*
X62091Y4278D01*
X62091Y4281D01*
X62091Y36570D01*
X62091Y36571D01*
X62091Y36572D01*
X62090Y36576D01*
X62090Y36579D01*
X62089Y36580D01*
X62089Y36581D01*
X62087Y36585D01*
X62085Y36588D01*
X62085Y36589D01*
X62084Y36589D01*
X62081Y36592D01*
X62078Y36594D01*
X62077Y36595D01*
X62076Y36595D01*
X62073Y36597D01*
X62070Y36598D01*
X62069Y36598D01*
X62068Y36599D01*
X62062Y36599D01*
X61766Y36599D01*
X61764Y36599D01*
X61761Y36599D01*
X61759Y36598D01*
X61757Y36598D01*
X61754Y36596D01*
X61752Y36595D01*
X61750Y36594D01*
X61749Y36593D01*
X61747Y36591D01*
X61744Y36589D01*
X61743Y36588D01*
X61742Y36586D01*
X61741Y36583D01*
X61739Y36581D01*
X61739Y36579D01*
X61738Y36577D01*
X61738Y36575D01*
X61737Y36572D01*
X61737Y36570D01*
X61737Y36568D01*
X61738Y36565D01*
X61738Y36562D01*
X61739Y36560D01*
X61740Y36559D01*
X61741Y36556D01*
X61742Y36553D01*
X61744Y36551D01*
X61745Y36551D01*
X61745Y36550D01*
X61746Y36549D01*
X61807Y36489D01*
X61898Y36269D01*
X61898Y36031D01*
X61807Y35811D01*
X61639Y35643D01*
X61419Y35552D01*
X61181Y35552D01*
X60961Y35643D01*
X60793Y35811D01*
X60702Y36031D01*
X60702Y36269D01*
X60793Y36489D01*
X60854Y36549D01*
X60856Y36552D01*
X60858Y36554D01*
X60859Y36556D01*
X60860Y36557D01*
X60861Y36560D01*
X60862Y36563D01*
X60862Y36564D01*
X60863Y36566D01*
X60862Y36569D01*
X60863Y36572D01*
X60862Y36574D01*
X60862Y36576D01*
X60861Y36579D01*
X60860Y36581D01*
X60859Y36583D01*
X60859Y36585D01*
X60857Y36587D01*
X60855Y36589D01*
X60854Y36591D01*
X60853Y36592D01*
X60850Y36594D01*
X60848Y36595D01*
X60846Y36596D01*
X60844Y36597D01*
X60842Y36598D01*
X60839Y36599D01*
X60836Y36599D01*
X60835Y36599D01*
X60834Y36599D01*
X37766Y36599D01*
X37764Y36599D01*
X37761Y36599D01*
X37759Y36598D01*
X37757Y36598D01*
X37754Y36596D01*
X37752Y36595D01*
X37750Y36594D01*
X37749Y36593D01*
X37747Y36591D01*
X37744Y36589D01*
X37743Y36588D01*
X37742Y36586D01*
X37741Y36583D01*
X37739Y36581D01*
X37739Y36579D01*
X37738Y36577D01*
X37738Y36575D01*
X37737Y36572D01*
X37737Y36570D01*
X37737Y36568D01*
X37738Y36565D01*
X37738Y36562D01*
X37739Y36560D01*
X37740Y36559D01*
X37741Y36556D01*
X37742Y36553D01*
X37744Y36551D01*
X37745Y36551D01*
X37745Y36550D01*
X37746Y36549D01*
X37807Y36489D01*
X37898Y36269D01*
X37898Y36031D01*
X37807Y35811D01*
X37639Y35643D01*
X37419Y35552D01*
X37181Y35552D01*
X36961Y35643D01*
X36793Y35811D01*
X36702Y36031D01*
X36702Y36269D01*
X36793Y36489D01*
X36854Y36549D01*
X36856Y36552D01*
X36858Y36554D01*
X36859Y36556D01*
X36860Y36557D01*
X36861Y36560D01*
X36862Y36563D01*
X36862Y36564D01*
X36863Y36566D01*
X36862Y36569D01*
X36863Y36572D01*
X36862Y36574D01*
X36862Y36576D01*
X36861Y36579D01*
X36860Y36581D01*
X36859Y36583D01*
X36859Y36585D01*
X36857Y36587D01*
X36855Y36589D01*
X36854Y36591D01*
X36853Y36592D01*
X36850Y36594D01*
X36848Y36595D01*
X36846Y36596D01*
X36844Y36597D01*
X36842Y36598D01*
X36839Y36599D01*
X36836Y36599D01*
X36835Y36599D01*
X36834Y36599D01*
X36430Y36599D01*
X36429Y36599D01*
X36428Y36599D01*
X36424Y36598D01*
X36421Y36598D01*
X36420Y36597D01*
X36419Y36597D01*
X36415Y36595D01*
X36412Y36593D01*
X36411Y36592D01*
X36408Y36589D01*
X36406Y36586D01*
X36405Y36585D01*
X36405Y36584D01*
X36403Y36581D01*
X36402Y36577D01*
X36402Y36576D01*
X36401Y36575D01*
X36401Y36570D01*
X36401Y3430D01*
X36401Y3429D01*
X36401Y3428D01*
X36402Y3424D01*
X36402Y3421D01*
X36403Y3420D01*
X36403Y3419D01*
X36405Y3415D01*
X36407Y3412D01*
X36408Y3411D01*
X36411Y3408D01*
X36414Y3406D01*
X36415Y3405D01*
X36416Y3405D01*
X36419Y3403D01*
X36423Y3402D01*
X36424Y3402D01*
X36425Y3401D01*
X36430Y3401D01*
X61238Y3401D01*
X61242Y3401D01*
G37*
%LPC*%
G36*
X59351Y14139D02*
X59351Y14139D01*
X59139Y14351D01*
X59139Y14649D01*
X59160Y14670D01*
X59161Y14671D01*
X59161Y14672D01*
X59163Y14674D01*
X59164Y14675D01*
X59164Y14676D01*
X59166Y14678D01*
X59166Y14679D01*
X59166Y14680D01*
X59167Y14683D01*
X59168Y14684D01*
X59168Y14685D01*
X59168Y14687D01*
X59168Y14688D01*
X59169Y14689D01*
X59168Y14692D01*
X59168Y14693D01*
X59168Y14694D01*
X59168Y14697D01*
X59168Y14698D01*
X59168Y14699D01*
X59167Y14701D01*
X59166Y14702D01*
X59165Y14704D01*
X59165Y14706D01*
X59164Y14706D01*
X59164Y14707D01*
X59161Y14710D01*
X59161Y14711D01*
X59160Y14712D01*
X58971Y14901D01*
X58909Y14962D01*
X58909Y23880D01*
X58909Y23881D01*
X58909Y23882D01*
X58908Y23886D01*
X58908Y23889D01*
X58907Y23890D01*
X58907Y23891D01*
X58905Y23895D01*
X58903Y23898D01*
X58902Y23899D01*
X58899Y23902D01*
X58896Y23904D01*
X58895Y23905D01*
X58894Y23905D01*
X58891Y23907D01*
X58887Y23908D01*
X58886Y23908D01*
X58885Y23909D01*
X58880Y23909D01*
X52707Y23909D01*
X52704Y23909D01*
X52701Y23909D01*
X52699Y23908D01*
X52697Y23908D01*
X52695Y23906D01*
X52692Y23905D01*
X52690Y23904D01*
X52689Y23903D01*
X52687Y23901D01*
X52685Y23900D01*
X52686Y23901D01*
X52688Y23904D01*
X52688Y23906D01*
X52689Y23907D01*
X52689Y23910D01*
X52690Y23913D01*
X52690Y23915D01*
X52690Y23917D01*
X52689Y23920D01*
X52689Y23923D01*
X52688Y23924D01*
X52687Y23926D01*
X52686Y23929D01*
X52685Y23931D01*
X52683Y23934D01*
X52682Y23934D01*
X52682Y23935D01*
X52681Y23935D01*
X52646Y23971D01*
X51409Y25207D01*
X51409Y26450D01*
X51409Y26451D01*
X51409Y26453D01*
X51409Y26454D01*
X51408Y26458D01*
X51408Y26459D01*
X51408Y26460D01*
X51406Y26463D01*
X51404Y26467D01*
X51403Y26468D01*
X51403Y26469D01*
X51401Y26471D01*
X50409Y27462D01*
X50409Y28950D01*
X50409Y28954D01*
X50408Y28958D01*
X50408Y28959D01*
X50408Y28960D01*
X50406Y28963D01*
X50404Y28967D01*
X50403Y28968D01*
X50403Y28969D01*
X50401Y28971D01*
X49961Y29411D01*
X49958Y29413D01*
X49955Y29415D01*
X49954Y29416D01*
X49953Y29416D01*
X49949Y29417D01*
X49946Y29419D01*
X49945Y29419D01*
X49944Y29419D01*
X49943Y29419D01*
X49940Y29419D01*
X49936Y29419D01*
X49818Y29468D01*
X49728Y29558D01*
X49679Y29676D01*
X49679Y30324D01*
X49728Y30442D01*
X49818Y30532D01*
X49936Y30581D01*
X50064Y30581D01*
X50182Y30532D01*
X50272Y30442D01*
X50321Y30324D01*
X50321Y29676D01*
X50272Y29558D01*
X50192Y29478D01*
X50191Y29477D01*
X50190Y29477D01*
X50188Y29473D01*
X50186Y29470D01*
X50186Y29469D01*
X50185Y29468D01*
X50184Y29465D01*
X50183Y29461D01*
X50183Y29460D01*
X50183Y29459D01*
X50184Y29455D01*
X50184Y29452D01*
X50184Y29451D01*
X50184Y29450D01*
X50186Y29446D01*
X50187Y29443D01*
X50188Y29442D01*
X50188Y29441D01*
X50192Y29437D01*
X50591Y29038D01*
X50591Y27550D01*
X50591Y27546D01*
X50592Y27542D01*
X50592Y27541D01*
X50592Y27540D01*
X50594Y27537D01*
X50596Y27533D01*
X50597Y27532D01*
X50597Y27531D01*
X50599Y27529D01*
X51591Y26538D01*
X51591Y25295D01*
X51591Y25291D01*
X51592Y25287D01*
X51592Y25286D01*
X51592Y25285D01*
X51594Y25282D01*
X51596Y25278D01*
X51597Y25277D01*
X51597Y25276D01*
X51599Y25274D01*
X51629Y25244D01*
X51632Y25242D01*
X51634Y25240D01*
X51636Y25240D01*
X51637Y25238D01*
X51640Y25238D01*
X51643Y25236D01*
X51644Y25236D01*
X51646Y25236D01*
X51649Y25236D01*
X51652Y25236D01*
X51654Y25236D01*
X51656Y25236D01*
X51659Y25237D01*
X51661Y25238D01*
X51663Y25239D01*
X51665Y25239D01*
X51667Y25241D01*
X51669Y25243D01*
X51671Y25244D01*
X51672Y25246D01*
X51674Y25248D01*
X51675Y25250D01*
X51676Y25252D01*
X51677Y25254D01*
X51678Y25257D01*
X51679Y25259D01*
X51679Y25262D01*
X51679Y25263D01*
X51679Y25264D01*
X51679Y25265D01*
X51679Y25824D01*
X51728Y25942D01*
X51818Y26032D01*
X51936Y26081D01*
X52064Y26081D01*
X52182Y26032D01*
X52272Y25942D01*
X52321Y25824D01*
X52321Y25176D01*
X52272Y25058D01*
X52182Y24968D01*
X52064Y24919D01*
X52025Y24919D01*
X52022Y24919D01*
X52019Y24919D01*
X52017Y24918D01*
X52015Y24918D01*
X52013Y24916D01*
X52010Y24915D01*
X52009Y24914D01*
X52007Y24913D01*
X52005Y24911D01*
X52003Y24909D01*
X52002Y24908D01*
X52000Y24906D01*
X51999Y24903D01*
X51998Y24901D01*
X51997Y24899D01*
X51996Y24897D01*
X51996Y24895D01*
X51996Y24892D01*
X51996Y24890D01*
X51996Y24888D01*
X51996Y24885D01*
X51997Y24882D01*
X51997Y24880D01*
X51998Y24879D01*
X51999Y24876D01*
X52001Y24873D01*
X52002Y24871D01*
X52003Y24871D01*
X52003Y24870D01*
X52004Y24869D01*
X52774Y24099D01*
X52777Y24097D01*
X52780Y24095D01*
X52781Y24094D01*
X52782Y24094D01*
X52786Y24093D01*
X52789Y24091D01*
X52790Y24091D01*
X52791Y24091D01*
X52792Y24091D01*
X52795Y24091D01*
X58880Y24091D01*
X58881Y24091D01*
X58882Y24091D01*
X58886Y24092D01*
X58889Y24092D01*
X58890Y24093D01*
X58891Y24093D01*
X58895Y24095D01*
X58898Y24097D01*
X58899Y24098D01*
X58902Y24101D01*
X58904Y24104D01*
X58905Y24105D01*
X58905Y24106D01*
X58907Y24109D01*
X58908Y24113D01*
X58908Y24114D01*
X58909Y24115D01*
X58909Y24120D01*
X58909Y30038D01*
X58971Y30099D01*
X59160Y30288D01*
X59161Y30289D01*
X59161Y30290D01*
X59163Y30293D01*
X59166Y30296D01*
X59166Y30297D01*
X59166Y30298D01*
X59167Y30302D01*
X59168Y30305D01*
X59168Y30306D01*
X59169Y30307D01*
X59168Y30311D01*
X59168Y30315D01*
X59168Y30316D01*
X59168Y30317D01*
X59166Y30320D01*
X59165Y30324D01*
X59164Y30325D01*
X59164Y30326D01*
X59160Y30330D01*
X59139Y30351D01*
X59139Y30649D01*
X59351Y30861D01*
X59649Y30861D01*
X59749Y30761D01*
X59752Y30759D01*
X59754Y30757D01*
X59756Y30756D01*
X59757Y30755D01*
X59760Y30754D01*
X59763Y30753D01*
X59764Y30753D01*
X59766Y30753D01*
X59769Y30753D01*
X59772Y30752D01*
X59774Y30753D01*
X59776Y30753D01*
X59779Y30754D01*
X59781Y30755D01*
X59783Y30756D01*
X59785Y30756D01*
X59787Y30758D01*
X59789Y30760D01*
X59791Y30761D01*
X59792Y30762D01*
X59794Y30765D01*
X59795Y30767D01*
X59796Y30769D01*
X59797Y30771D01*
X59798Y30773D01*
X59799Y30776D01*
X59799Y30779D01*
X59799Y30780D01*
X59799Y30782D01*
X59799Y31218D01*
X59799Y31219D01*
X59799Y31220D01*
X59799Y31221D01*
X59799Y31224D01*
X59798Y31226D01*
X59798Y31228D01*
X59796Y31230D01*
X59795Y31233D01*
X59794Y31235D01*
X59793Y31236D01*
X59791Y31238D01*
X59789Y31241D01*
X59788Y31242D01*
X59786Y31243D01*
X59783Y31244D01*
X59781Y31246D01*
X59779Y31246D01*
X59777Y31247D01*
X59775Y31247D01*
X59772Y31248D01*
X59770Y31247D01*
X59768Y31248D01*
X59765Y31247D01*
X59762Y31247D01*
X59760Y31246D01*
X59759Y31245D01*
X59756Y31244D01*
X59753Y31243D01*
X59751Y31241D01*
X59751Y31240D01*
X59750Y31240D01*
X59749Y31239D01*
X59649Y31139D01*
X59351Y31139D01*
X59330Y31160D01*
X59329Y31161D01*
X59328Y31161D01*
X59325Y31163D01*
X59322Y31166D01*
X59321Y31166D01*
X59320Y31166D01*
X59316Y31167D01*
X59313Y31168D01*
X59312Y31168D01*
X59311Y31169D01*
X59307Y31168D01*
X59303Y31168D01*
X59302Y31168D01*
X59301Y31168D01*
X59298Y31166D01*
X59294Y31165D01*
X59294Y31164D01*
X59293Y31164D01*
X59288Y31160D01*
X58599Y30471D01*
X58597Y30468D01*
X58595Y30465D01*
X58594Y30464D01*
X58594Y30463D01*
X58593Y30459D01*
X58591Y30456D01*
X58591Y30455D01*
X58591Y30454D01*
X58591Y30453D01*
X58591Y30450D01*
X58591Y28082D01*
X58529Y28021D01*
X55038Y24529D01*
X52962Y24529D01*
X52901Y24591D01*
X52471Y25021D01*
X52409Y25082D01*
X52409Y28950D01*
X52409Y28954D01*
X52408Y28958D01*
X52408Y28959D01*
X52408Y28960D01*
X52406Y28963D01*
X52404Y28967D01*
X52403Y28968D01*
X52403Y28969D01*
X52401Y28971D01*
X51971Y29401D01*
X51961Y29411D01*
X51958Y29413D01*
X51955Y29415D01*
X51954Y29416D01*
X51953Y29416D01*
X51949Y29417D01*
X51946Y29419D01*
X51945Y29419D01*
X51944Y29419D01*
X51943Y29419D01*
X51940Y29419D01*
X51936Y29419D01*
X51818Y29468D01*
X51728Y29558D01*
X51679Y29676D01*
X51679Y30324D01*
X51728Y30442D01*
X51818Y30532D01*
X51936Y30581D01*
X52064Y30581D01*
X52182Y30532D01*
X52272Y30442D01*
X52321Y30324D01*
X52321Y29676D01*
X52272Y29558D01*
X52192Y29478D01*
X52191Y29477D01*
X52190Y29477D01*
X52188Y29473D01*
X52186Y29470D01*
X52186Y29469D01*
X52185Y29468D01*
X52184Y29465D01*
X52183Y29461D01*
X52183Y29460D01*
X52183Y29459D01*
X52184Y29455D01*
X52184Y29452D01*
X52184Y29451D01*
X52184Y29450D01*
X52186Y29446D01*
X52187Y29443D01*
X52188Y29442D01*
X52188Y29441D01*
X52192Y29437D01*
X52529Y29099D01*
X52591Y29038D01*
X52591Y25170D01*
X52591Y25166D01*
X52592Y25162D01*
X52592Y25161D01*
X52592Y25160D01*
X52594Y25157D01*
X52596Y25153D01*
X52597Y25152D01*
X52597Y25151D01*
X52599Y25149D01*
X52651Y25097D01*
X52654Y25095D01*
X52657Y25093D01*
X52658Y25092D01*
X52659Y25092D01*
X52662Y25091D01*
X52666Y25089D01*
X52667Y25089D01*
X52668Y25089D01*
X52672Y25089D01*
X52676Y25089D01*
X52677Y25089D01*
X52678Y25089D01*
X52681Y25091D01*
X52685Y25092D01*
X52686Y25092D01*
X52686Y25093D01*
X52689Y25095D01*
X52693Y25097D01*
X52693Y25098D01*
X52694Y25099D01*
X52696Y25102D01*
X52698Y25105D01*
X52698Y25106D01*
X52699Y25107D01*
X52700Y25111D01*
X52701Y25114D01*
X52701Y25115D01*
X52701Y25116D01*
X52700Y25120D01*
X52700Y25124D01*
X52700Y25125D01*
X52700Y25126D01*
X52700Y25127D01*
X52699Y25129D01*
X52679Y25176D01*
X52679Y25824D01*
X52728Y25942D01*
X52818Y26032D01*
X52936Y26081D01*
X53064Y26081D01*
X53182Y26032D01*
X53272Y25942D01*
X53321Y25824D01*
X53321Y25176D01*
X53272Y25058D01*
X53182Y24968D01*
X53064Y24919D01*
X52936Y24919D01*
X52889Y24939D01*
X52885Y24940D01*
X52882Y24941D01*
X52881Y24941D01*
X52880Y24941D01*
X52876Y24940D01*
X52872Y24940D01*
X52871Y24940D01*
X52870Y24940D01*
X52867Y24938D01*
X52863Y24937D01*
X52863Y24936D01*
X52862Y24936D01*
X52859Y24933D01*
X52856Y24931D01*
X52855Y24930D01*
X52855Y24929D01*
X52853Y24926D01*
X52851Y24923D01*
X52851Y24922D01*
X52850Y24921D01*
X52850Y24917D01*
X52849Y24913D01*
X52849Y24912D01*
X52849Y24911D01*
X52849Y24908D01*
X52850Y24904D01*
X52850Y24903D01*
X52850Y24902D01*
X52852Y24899D01*
X52854Y24895D01*
X52855Y24894D01*
X52856Y24893D01*
X52857Y24891D01*
X53029Y24719D01*
X53032Y24717D01*
X53035Y24715D01*
X53036Y24714D01*
X53037Y24714D01*
X53041Y24713D01*
X53044Y24711D01*
X53045Y24711D01*
X53046Y24711D01*
X53047Y24711D01*
X53050Y24711D01*
X54950Y24711D01*
X54954Y24711D01*
X54958Y24712D01*
X54959Y24712D01*
X54960Y24712D01*
X54963Y24714D01*
X54967Y24716D01*
X54968Y24717D01*
X54969Y24717D01*
X54971Y24719D01*
X55086Y24835D01*
X55087Y24836D01*
X55088Y24836D01*
X55090Y24839D01*
X55092Y24843D01*
X55093Y24844D01*
X55094Y24848D01*
X55095Y24852D01*
X55095Y24853D01*
X55095Y24854D01*
X55095Y24857D01*
X55094Y24861D01*
X55094Y24862D01*
X55094Y24863D01*
X55092Y24867D01*
X55091Y24870D01*
X55090Y24871D01*
X55090Y24872D01*
X55087Y24875D01*
X55085Y24878D01*
X55084Y24878D01*
X55083Y24879D01*
X55080Y24881D01*
X55077Y24883D01*
X55076Y24883D01*
X55075Y24883D01*
X55071Y24884D01*
X55067Y24885D01*
X55066Y24885D01*
X55065Y24885D01*
X55060Y24884D01*
X55059Y24884D01*
X55059Y25441D01*
X55361Y25441D01*
X55361Y25204D01*
X55356Y25180D01*
X55356Y25179D01*
X55356Y25178D01*
X55356Y25174D01*
X55356Y25170D01*
X55356Y25169D01*
X55356Y25168D01*
X55357Y25165D01*
X55358Y25161D01*
X55359Y25160D01*
X55362Y25157D01*
X55364Y25154D01*
X55365Y25153D01*
X55365Y25152D01*
X55369Y25150D01*
X55372Y25148D01*
X55373Y25148D01*
X55374Y25147D01*
X55377Y25146D01*
X55381Y25145D01*
X55382Y25145D01*
X55383Y25145D01*
X55387Y25145D01*
X55390Y25146D01*
X55391Y25146D01*
X55392Y25146D01*
X55396Y25148D01*
X55399Y25149D01*
X55400Y25150D01*
X55401Y25150D01*
X55405Y25154D01*
X58401Y28149D01*
X58403Y28152D01*
X58405Y28155D01*
X58406Y28156D01*
X58406Y28157D01*
X58407Y28161D01*
X58409Y28164D01*
X58409Y28165D01*
X58409Y28166D01*
X58409Y28167D01*
X58409Y28170D01*
X58409Y30538D01*
X58471Y30599D01*
X59160Y31288D01*
X59161Y31289D01*
X59161Y31290D01*
X59163Y31293D01*
X59166Y31296D01*
X59166Y31297D01*
X59166Y31298D01*
X59167Y31302D01*
X59168Y31305D01*
X59168Y31306D01*
X59169Y31307D01*
X59168Y31311D01*
X59168Y31315D01*
X59168Y31316D01*
X59168Y31317D01*
X59166Y31320D01*
X59165Y31324D01*
X59164Y31325D01*
X59164Y31326D01*
X59160Y31330D01*
X59139Y31351D01*
X59139Y31649D01*
X59351Y31861D01*
X59649Y31861D01*
X59749Y31761D01*
X59752Y31759D01*
X59754Y31757D01*
X59756Y31756D01*
X59757Y31755D01*
X59760Y31754D01*
X59763Y31753D01*
X59764Y31753D01*
X59766Y31753D01*
X59769Y31753D01*
X59772Y31752D01*
X59774Y31753D01*
X59776Y31753D01*
X59779Y31754D01*
X59781Y31755D01*
X59783Y31756D01*
X59785Y31756D01*
X59787Y31758D01*
X59789Y31760D01*
X59791Y31761D01*
X59792Y31762D01*
X59794Y31765D01*
X59795Y31767D01*
X59796Y31769D01*
X59797Y31771D01*
X59798Y31773D01*
X59799Y31776D01*
X59799Y31779D01*
X59799Y31780D01*
X59799Y31782D01*
X59799Y31928D01*
X59861Y31989D01*
X60160Y32288D01*
X60161Y32289D01*
X60161Y32290D01*
X60163Y32293D01*
X60166Y32296D01*
X60166Y32297D01*
X60166Y32298D01*
X60167Y32302D01*
X60168Y32305D01*
X60168Y32306D01*
X60169Y32307D01*
X60168Y32311D01*
X60168Y32315D01*
X60168Y32316D01*
X60168Y32317D01*
X60166Y32320D01*
X60165Y32324D01*
X60164Y32325D01*
X60164Y32326D01*
X60160Y32330D01*
X60139Y32351D01*
X60139Y32649D01*
X60351Y32861D01*
X60649Y32861D01*
X60670Y32840D01*
X60671Y32839D01*
X60672Y32839D01*
X60675Y32837D01*
X60678Y32834D01*
X60679Y32834D01*
X60680Y32834D01*
X60684Y32833D01*
X60687Y32832D01*
X60688Y32832D01*
X60689Y32831D01*
X60693Y32832D01*
X60697Y32832D01*
X60698Y32832D01*
X60699Y32832D01*
X60702Y32834D01*
X60706Y32835D01*
X60706Y32836D01*
X60707Y32836D01*
X60712Y32840D01*
X60901Y33029D01*
X60903Y33032D01*
X60905Y33035D01*
X60906Y33036D01*
X60906Y33037D01*
X60907Y33041D01*
X60909Y33044D01*
X60909Y33045D01*
X60909Y33046D01*
X60909Y33047D01*
X60909Y33050D01*
X60909Y33328D01*
X60909Y33331D01*
X60909Y33334D01*
X60908Y33336D01*
X60908Y33338D01*
X60906Y33340D01*
X60905Y33343D01*
X60904Y33345D01*
X60903Y33346D01*
X60901Y33348D01*
X60899Y33351D01*
X60898Y33352D01*
X60896Y33353D01*
X60893Y33354D01*
X60891Y33356D01*
X60889Y33356D01*
X60887Y33357D01*
X60885Y33357D01*
X60882Y33358D01*
X60880Y33357D01*
X60878Y33358D01*
X60875Y33357D01*
X60872Y33357D01*
X60870Y33356D01*
X60869Y33355D01*
X60866Y33354D01*
X60863Y33353D01*
X60861Y33351D01*
X60861Y33350D01*
X60860Y33350D01*
X60859Y33349D01*
X60649Y33139D01*
X60351Y33139D01*
X60139Y33351D01*
X60139Y33649D01*
X60351Y33861D01*
X60492Y33861D01*
X60495Y33861D01*
X60498Y33861D01*
X60499Y33862D01*
X60501Y33862D01*
X60504Y33864D01*
X60507Y33865D01*
X60508Y33866D01*
X60510Y33867D01*
X60512Y33869D01*
X60514Y33871D01*
X60515Y33872D01*
X60516Y33874D01*
X60517Y33877D01*
X60519Y33879D01*
X60519Y33881D01*
X60520Y33883D01*
X60520Y33885D01*
X60521Y33888D01*
X60521Y33890D01*
X60521Y33892D01*
X60520Y33895D01*
X60520Y33898D01*
X60519Y33900D01*
X60519Y33901D01*
X60517Y33904D01*
X60516Y33907D01*
X60514Y33909D01*
X60513Y33910D01*
X60513Y33911D01*
X59413Y35011D01*
X59409Y35013D01*
X59406Y35015D01*
X59405Y35016D01*
X59401Y35017D01*
X59397Y35019D01*
X59396Y35019D01*
X59395Y35019D01*
X59392Y35019D01*
X56765Y35019D01*
X56762Y35019D01*
X56759Y35019D01*
X56757Y35018D01*
X56756Y35018D01*
X56753Y35016D01*
X56750Y35015D01*
X56749Y35014D01*
X56747Y35013D01*
X56745Y35011D01*
X56743Y35009D01*
X56742Y35008D01*
X56741Y35006D01*
X56739Y35003D01*
X56738Y35001D01*
X56737Y34999D01*
X56737Y34997D01*
X56736Y34995D01*
X56736Y34992D01*
X56736Y34990D01*
X56736Y34988D01*
X56736Y34985D01*
X56737Y34982D01*
X56738Y34980D01*
X56738Y34979D01*
X56740Y34976D01*
X56741Y34973D01*
X56743Y34971D01*
X56744Y34970D01*
X56744Y34969D01*
X56772Y34942D01*
X56821Y34824D01*
X56821Y34620D01*
X56821Y34619D01*
X56821Y34618D01*
X56822Y34614D01*
X56822Y34611D01*
X56823Y34610D01*
X56823Y34609D01*
X56825Y34605D01*
X56827Y34602D01*
X56828Y34601D01*
X56831Y34598D01*
X56834Y34596D01*
X56835Y34595D01*
X56836Y34595D01*
X56839Y34593D01*
X56843Y34592D01*
X56844Y34592D01*
X56845Y34591D01*
X56850Y34591D01*
X58538Y34591D01*
X58599Y34529D01*
X59288Y33840D01*
X59289Y33839D01*
X59290Y33839D01*
X59293Y33837D01*
X59296Y33834D01*
X59297Y33834D01*
X59298Y33834D01*
X59302Y33833D01*
X59305Y33832D01*
X59306Y33832D01*
X59307Y33831D01*
X59311Y33832D01*
X59315Y33832D01*
X59316Y33832D01*
X59317Y33832D01*
X59320Y33834D01*
X59324Y33835D01*
X59325Y33836D01*
X59326Y33836D01*
X59330Y33840D01*
X59351Y33861D01*
X59649Y33861D01*
X59861Y33649D01*
X59861Y33351D01*
X59649Y33139D01*
X59351Y33139D01*
X59139Y33351D01*
X59139Y33649D01*
X59160Y33670D01*
X59161Y33671D01*
X59161Y33672D01*
X59163Y33675D01*
X59166Y33678D01*
X59166Y33679D01*
X59166Y33680D01*
X59167Y33684D01*
X59168Y33687D01*
X59168Y33688D01*
X59169Y33689D01*
X59168Y33693D01*
X59168Y33697D01*
X59168Y33698D01*
X59168Y33699D01*
X59166Y33702D01*
X59165Y33706D01*
X59164Y33706D01*
X59164Y33707D01*
X59160Y33712D01*
X58471Y34401D01*
X58468Y34403D01*
X58465Y34405D01*
X58464Y34406D01*
X58463Y34406D01*
X58459Y34407D01*
X58456Y34409D01*
X58455Y34409D01*
X58454Y34409D01*
X58453Y34409D01*
X58450Y34409D01*
X56850Y34409D01*
X56849Y34409D01*
X56848Y34409D01*
X56844Y34408D01*
X56841Y34408D01*
X56840Y34407D01*
X56839Y34407D01*
X56835Y34405D01*
X56832Y34403D01*
X56831Y34402D01*
X56828Y34399D01*
X56826Y34396D01*
X56825Y34395D01*
X56825Y34394D01*
X56823Y34391D01*
X56822Y34387D01*
X56822Y34386D01*
X56821Y34385D01*
X56821Y34380D01*
X56821Y34176D01*
X56772Y34058D01*
X56682Y33968D01*
X56564Y33919D01*
X56436Y33919D01*
X56318Y33968D01*
X56228Y34058D01*
X56179Y34176D01*
X56179Y34824D01*
X56228Y34942D01*
X56256Y34969D01*
X56257Y34972D01*
X56259Y34974D01*
X56260Y34976D01*
X56261Y34977D01*
X56262Y34980D01*
X56263Y34983D01*
X56263Y34984D01*
X56264Y34986D01*
X56264Y34989D01*
X56264Y34992D01*
X56264Y34994D01*
X56264Y34996D01*
X56263Y34999D01*
X56262Y35001D01*
X56261Y35003D01*
X56260Y35005D01*
X56258Y35007D01*
X56257Y35009D01*
X56255Y35011D01*
X56254Y35012D01*
X56252Y35014D01*
X56249Y35015D01*
X56248Y35016D01*
X56246Y35017D01*
X56243Y35018D01*
X56240Y35019D01*
X56237Y35019D01*
X56236Y35019D01*
X56235Y35019D01*
X55765Y35019D01*
X55762Y35019D01*
X55759Y35019D01*
X55757Y35018D01*
X55756Y35018D01*
X55753Y35016D01*
X55750Y35015D01*
X55749Y35014D01*
X55747Y35013D01*
X55745Y35011D01*
X55743Y35009D01*
X55742Y35008D01*
X55741Y35006D01*
X55739Y35003D01*
X55738Y35001D01*
X55737Y34999D01*
X55737Y34997D01*
X55736Y34995D01*
X55736Y34992D01*
X55736Y34990D01*
X55736Y34988D01*
X55736Y34985D01*
X55737Y34982D01*
X55738Y34980D01*
X55738Y34979D01*
X55740Y34976D01*
X55741Y34973D01*
X55743Y34971D01*
X55744Y34970D01*
X55744Y34969D01*
X55772Y34942D01*
X55821Y34824D01*
X55821Y34176D01*
X55772Y34058D01*
X55682Y33968D01*
X55609Y33938D01*
X55605Y33935D01*
X55601Y33933D01*
X55598Y33929D01*
X55595Y33925D01*
X55593Y33921D01*
X55591Y33916D01*
X55591Y33911D01*
X55591Y32790D01*
X55591Y32787D01*
X55591Y32784D01*
X55592Y32782D01*
X55592Y32780D01*
X55594Y32778D01*
X55595Y32775D01*
X55596Y32773D01*
X55597Y32772D01*
X55599Y32770D01*
X55601Y32768D01*
X55602Y32767D01*
X55604Y32765D01*
X55607Y32764D01*
X55609Y32763D01*
X55611Y32762D01*
X55613Y32761D01*
X55615Y32761D01*
X55618Y32760D01*
X55620Y32761D01*
X55622Y32761D01*
X55625Y32761D01*
X55628Y32762D01*
X55630Y32762D01*
X55631Y32763D01*
X55634Y32764D01*
X55637Y32766D01*
X55639Y32767D01*
X55639Y32768D01*
X55640Y32768D01*
X55641Y32769D01*
X55671Y32799D01*
X55673Y32802D01*
X55675Y32805D01*
X55676Y32806D01*
X55676Y32807D01*
X55677Y32811D01*
X55679Y32814D01*
X55679Y32815D01*
X55679Y32816D01*
X55679Y32817D01*
X55679Y32820D01*
X55679Y33324D01*
X55728Y33442D01*
X55818Y33532D01*
X55936Y33581D01*
X56064Y33581D01*
X56182Y33532D01*
X56272Y33442D01*
X56321Y33324D01*
X56321Y32676D01*
X56272Y32558D01*
X56182Y32468D01*
X56064Y32419D01*
X55936Y32419D01*
X55818Y32468D01*
X55728Y32558D01*
X55727Y32559D01*
X55727Y32560D01*
X55723Y32562D01*
X55720Y32564D01*
X55719Y32564D01*
X55718Y32565D01*
X55715Y32566D01*
X55711Y32567D01*
X55710Y32567D01*
X55709Y32567D01*
X55705Y32566D01*
X55702Y32566D01*
X55701Y32566D01*
X55700Y32566D01*
X55696Y32564D01*
X55693Y32563D01*
X55692Y32562D01*
X55691Y32562D01*
X55687Y32558D01*
X55599Y32471D01*
X55597Y32468D01*
X55595Y32465D01*
X55594Y32464D01*
X55594Y32463D01*
X55593Y32459D01*
X55591Y32456D01*
X55591Y32455D01*
X55591Y32454D01*
X55591Y32453D01*
X55591Y32450D01*
X55591Y26962D01*
X54329Y25701D01*
X54327Y25698D01*
X54325Y25695D01*
X54324Y25694D01*
X54324Y25693D01*
X54323Y25689D01*
X54321Y25686D01*
X54321Y25685D01*
X54321Y25684D01*
X54321Y25683D01*
X54321Y25680D01*
X54321Y25176D01*
X54272Y25058D01*
X54182Y24968D01*
X54064Y24919D01*
X53936Y24919D01*
X53818Y24968D01*
X53728Y25058D01*
X53679Y25176D01*
X53679Y25824D01*
X53728Y25942D01*
X53818Y26032D01*
X53936Y26081D01*
X54064Y26081D01*
X54182Y26032D01*
X54272Y25942D01*
X54273Y25941D01*
X54273Y25940D01*
X54277Y25938D01*
X54280Y25936D01*
X54281Y25936D01*
X54282Y25935D01*
X54285Y25934D01*
X54289Y25933D01*
X54290Y25933D01*
X54291Y25933D01*
X54295Y25934D01*
X54298Y25934D01*
X54299Y25934D01*
X54300Y25934D01*
X54304Y25936D01*
X54307Y25937D01*
X54308Y25938D01*
X54309Y25938D01*
X54313Y25942D01*
X55401Y27029D01*
X55403Y27032D01*
X55405Y27035D01*
X55406Y27036D01*
X55406Y27037D01*
X55407Y27041D01*
X55409Y27044D01*
X55409Y27045D01*
X55409Y27046D01*
X55409Y27047D01*
X55409Y27050D01*
X55409Y32455D01*
X55409Y32458D01*
X55409Y32461D01*
X55408Y32463D01*
X55408Y32465D01*
X55406Y32467D01*
X55405Y32470D01*
X55404Y32472D01*
X55403Y32473D01*
X55401Y32475D01*
X55399Y32477D01*
X55398Y32478D01*
X55396Y32480D01*
X55393Y32481D01*
X55391Y32482D01*
X55389Y32483D01*
X55387Y32484D01*
X55385Y32484D01*
X55382Y32485D01*
X55380Y32484D01*
X55378Y32484D01*
X55375Y32484D01*
X55372Y32483D01*
X55370Y32483D01*
X55369Y32482D01*
X55366Y32481D01*
X55363Y32479D01*
X55361Y32478D01*
X55361Y32477D01*
X55360Y32477D01*
X55359Y32476D01*
X55099Y32216D01*
X55097Y32213D01*
X55095Y32210D01*
X55094Y32209D01*
X55094Y32208D01*
X55093Y32204D01*
X55091Y32201D01*
X55091Y32200D01*
X55091Y32199D01*
X55091Y32198D01*
X55091Y32195D01*
X55091Y30589D01*
X55092Y30584D01*
X55092Y30580D01*
X55092Y30579D01*
X55095Y30575D01*
X55097Y30571D01*
X55100Y30568D01*
X55104Y30565D01*
X55109Y30562D01*
X55182Y30532D01*
X55272Y30442D01*
X55321Y30324D01*
X55321Y29676D01*
X55272Y29558D01*
X55182Y29468D01*
X55064Y29419D01*
X54936Y29419D01*
X54818Y29468D01*
X54728Y29558D01*
X54679Y29676D01*
X54679Y30324D01*
X54728Y30442D01*
X54818Y30532D01*
X54891Y30562D01*
X54895Y30565D01*
X54899Y30567D01*
X54902Y30571D01*
X54905Y30575D01*
X54907Y30579D01*
X54909Y30584D01*
X54909Y30589D01*
X54909Y32283D01*
X54971Y32344D01*
X54996Y32369D01*
X54998Y32372D01*
X55000Y32374D01*
X55000Y32376D01*
X55002Y32377D01*
X55002Y32380D01*
X55004Y32383D01*
X55004Y32384D01*
X55004Y32386D01*
X55004Y32389D01*
X55004Y32392D01*
X55004Y32394D01*
X55004Y32396D01*
X55003Y32399D01*
X55002Y32401D01*
X55001Y32403D01*
X55001Y32405D01*
X54999Y32407D01*
X54997Y32409D01*
X54996Y32411D01*
X54994Y32412D01*
X54992Y32414D01*
X54990Y32415D01*
X54988Y32416D01*
X54986Y32417D01*
X54983Y32418D01*
X54981Y32419D01*
X54978Y32419D01*
X54977Y32419D01*
X54976Y32419D01*
X54975Y32419D01*
X54936Y32419D01*
X54818Y32468D01*
X54728Y32558D01*
X54727Y32559D01*
X54727Y32560D01*
X54723Y32562D01*
X54720Y32564D01*
X54719Y32564D01*
X54718Y32565D01*
X54715Y32566D01*
X54711Y32567D01*
X54710Y32567D01*
X54709Y32567D01*
X54705Y32566D01*
X54702Y32566D01*
X54701Y32566D01*
X54700Y32566D01*
X54696Y32564D01*
X54693Y32563D01*
X54692Y32562D01*
X54691Y32562D01*
X54687Y32558D01*
X54599Y32471D01*
X54597Y32468D01*
X54595Y32465D01*
X54594Y32464D01*
X54594Y32463D01*
X54593Y32459D01*
X54591Y32456D01*
X54591Y32455D01*
X54591Y32454D01*
X54591Y32453D01*
X54591Y32450D01*
X54591Y29050D01*
X54591Y29046D01*
X54592Y29042D01*
X54592Y29041D01*
X54592Y29040D01*
X54594Y29037D01*
X54596Y29033D01*
X54597Y29032D01*
X54597Y29031D01*
X54599Y29029D01*
X54687Y28942D01*
X54688Y28941D01*
X54688Y28940D01*
X54691Y28938D01*
X54694Y28936D01*
X54695Y28936D01*
X54696Y28935D01*
X54700Y28934D01*
X54704Y28933D01*
X54705Y28933D01*
X54706Y28933D01*
X54709Y28934D01*
X54713Y28934D01*
X54714Y28934D01*
X54715Y28934D01*
X54719Y28936D01*
X54722Y28937D01*
X54723Y28938D01*
X54724Y28938D01*
X54728Y28942D01*
X54818Y29032D01*
X54936Y29081D01*
X55064Y29081D01*
X55182Y29032D01*
X55272Y28942D01*
X55321Y28824D01*
X55321Y28176D01*
X55272Y28058D01*
X55182Y27968D01*
X55064Y27919D01*
X54936Y27919D01*
X54818Y27968D01*
X54728Y28058D01*
X54679Y28176D01*
X54679Y28680D01*
X54679Y28684D01*
X54678Y28688D01*
X54678Y28689D01*
X54678Y28690D01*
X54676Y28693D01*
X54674Y28697D01*
X54673Y28698D01*
X54673Y28699D01*
X54671Y28701D01*
X54409Y28962D01*
X54409Y32455D01*
X54409Y32458D01*
X54409Y32461D01*
X54408Y32463D01*
X54408Y32465D01*
X54406Y32467D01*
X54405Y32470D01*
X54404Y32472D01*
X54403Y32473D01*
X54401Y32475D01*
X54399Y32477D01*
X54398Y32478D01*
X54396Y32480D01*
X54393Y32481D01*
X54391Y32482D01*
X54389Y32483D01*
X54387Y32484D01*
X54385Y32484D01*
X54382Y32485D01*
X54380Y32484D01*
X54378Y32484D01*
X54375Y32484D01*
X54372Y32483D01*
X54370Y32483D01*
X54369Y32482D01*
X54366Y32481D01*
X54363Y32479D01*
X54361Y32478D01*
X54361Y32477D01*
X54360Y32477D01*
X54359Y32476D01*
X54099Y32216D01*
X54097Y32213D01*
X54095Y32210D01*
X54094Y32209D01*
X54094Y32208D01*
X54093Y32204D01*
X54091Y32201D01*
X54091Y32200D01*
X54091Y32199D01*
X54091Y32198D01*
X54091Y32195D01*
X54091Y30589D01*
X54092Y30584D01*
X54092Y30580D01*
X54092Y30579D01*
X54095Y30575D01*
X54097Y30571D01*
X54100Y30568D01*
X54104Y30565D01*
X54109Y30562D01*
X54182Y30532D01*
X54272Y30442D01*
X54321Y30324D01*
X54321Y29676D01*
X54272Y29558D01*
X54182Y29468D01*
X54064Y29419D01*
X53936Y29419D01*
X53818Y29468D01*
X53728Y29558D01*
X53679Y29676D01*
X53679Y30324D01*
X53728Y30442D01*
X53818Y30532D01*
X53891Y30562D01*
X53895Y30565D01*
X53899Y30567D01*
X53902Y30571D01*
X53905Y30575D01*
X53907Y30579D01*
X53909Y30584D01*
X53909Y30589D01*
X53909Y32283D01*
X53971Y32344D01*
X53996Y32369D01*
X53998Y32372D01*
X54000Y32374D01*
X54000Y32376D01*
X54002Y32377D01*
X54002Y32380D01*
X54004Y32383D01*
X54004Y32384D01*
X54004Y32386D01*
X54004Y32389D01*
X54004Y32392D01*
X54004Y32394D01*
X54004Y32396D01*
X54003Y32399D01*
X54002Y32401D01*
X54001Y32403D01*
X54001Y32405D01*
X53999Y32407D01*
X53997Y32409D01*
X53996Y32411D01*
X53994Y32412D01*
X53992Y32414D01*
X53990Y32415D01*
X53988Y32416D01*
X53986Y32417D01*
X53983Y32418D01*
X53981Y32419D01*
X53978Y32419D01*
X53977Y32419D01*
X53976Y32419D01*
X53975Y32419D01*
X53936Y32419D01*
X53818Y32468D01*
X53728Y32558D01*
X53727Y32559D01*
X53727Y32560D01*
X53723Y32562D01*
X53720Y32564D01*
X53719Y32564D01*
X53718Y32565D01*
X53715Y32566D01*
X53711Y32567D01*
X53710Y32567D01*
X53709Y32567D01*
X53705Y32566D01*
X53702Y32566D01*
X53701Y32566D01*
X53700Y32566D01*
X53696Y32564D01*
X53693Y32563D01*
X53692Y32562D01*
X53691Y32562D01*
X53687Y32558D01*
X53599Y32471D01*
X53597Y32468D01*
X53595Y32465D01*
X53594Y32464D01*
X53594Y32463D01*
X53593Y32459D01*
X53591Y32456D01*
X53591Y32455D01*
X53591Y32454D01*
X53591Y32453D01*
X53591Y32450D01*
X53591Y29550D01*
X53591Y29549D01*
X53591Y29548D01*
X53591Y29545D01*
X53592Y29542D01*
X53592Y29541D01*
X53592Y29540D01*
X53593Y29539D01*
X53593Y29538D01*
X53594Y29536D01*
X53596Y29533D01*
X53597Y29532D01*
X53597Y29531D01*
X53598Y29531D01*
X53598Y29530D01*
X53599Y29529D01*
X54039Y29089D01*
X54042Y29087D01*
X54045Y29085D01*
X54046Y29084D01*
X54047Y29084D01*
X54051Y29083D01*
X54054Y29081D01*
X54055Y29081D01*
X54056Y29081D01*
X54057Y29081D01*
X54060Y29081D01*
X54064Y29081D01*
X54182Y29032D01*
X54272Y28942D01*
X54321Y28824D01*
X54321Y28176D01*
X54272Y28058D01*
X54182Y27968D01*
X54064Y27919D01*
X53936Y27919D01*
X53818Y27968D01*
X53728Y28058D01*
X53679Y28176D01*
X53679Y28824D01*
X53728Y28942D01*
X53808Y29022D01*
X53809Y29023D01*
X53810Y29023D01*
X53812Y29027D01*
X53814Y29030D01*
X53814Y29031D01*
X53815Y29032D01*
X53816Y29035D01*
X53817Y29039D01*
X53817Y29040D01*
X53817Y29041D01*
X53816Y29045D01*
X53816Y29048D01*
X53816Y29049D01*
X53816Y29050D01*
X53814Y29054D01*
X53813Y29057D01*
X53812Y29058D01*
X53812Y29059D01*
X53808Y29063D01*
X53409Y29462D01*
X53409Y32538D01*
X53671Y32799D01*
X53673Y32802D01*
X53675Y32805D01*
X53676Y32806D01*
X53676Y32807D01*
X53677Y32811D01*
X53679Y32814D01*
X53679Y32815D01*
X53679Y32816D01*
X53679Y32817D01*
X53679Y32820D01*
X53679Y33324D01*
X53728Y33442D01*
X53818Y33532D01*
X53936Y33581D01*
X54064Y33581D01*
X54182Y33532D01*
X54272Y33442D01*
X54321Y33324D01*
X54321Y32765D01*
X54321Y32762D01*
X54321Y32759D01*
X54322Y32757D01*
X54322Y32755D01*
X54324Y32753D01*
X54325Y32750D01*
X54326Y32749D01*
X54327Y32747D01*
X54329Y32745D01*
X54331Y32743D01*
X54332Y32742D01*
X54334Y32740D01*
X54337Y32739D01*
X54339Y32738D01*
X54341Y32737D01*
X54343Y32736D01*
X54345Y32736D01*
X54348Y32736D01*
X54350Y32736D01*
X54352Y32736D01*
X54355Y32736D01*
X54358Y32737D01*
X54360Y32737D01*
X54361Y32738D01*
X54364Y32739D01*
X54367Y32741D01*
X54369Y32742D01*
X54369Y32743D01*
X54370Y32743D01*
X54371Y32744D01*
X54401Y32774D01*
X54403Y32777D01*
X54405Y32780D01*
X54406Y32781D01*
X54406Y32782D01*
X54407Y32786D01*
X54409Y32789D01*
X54409Y32790D01*
X54409Y32791D01*
X54409Y32792D01*
X54409Y32795D01*
X54409Y33911D01*
X54408Y33916D01*
X54408Y33920D01*
X54408Y33921D01*
X54405Y33925D01*
X54403Y33929D01*
X54400Y33932D01*
X54396Y33935D01*
X54391Y33938D01*
X54318Y33968D01*
X54228Y34058D01*
X54179Y34176D01*
X54179Y34824D01*
X54228Y34942D01*
X54256Y34969D01*
X54257Y34972D01*
X54259Y34974D01*
X54260Y34976D01*
X54261Y34977D01*
X54262Y34980D01*
X54263Y34983D01*
X54263Y34984D01*
X54264Y34986D01*
X54264Y34989D01*
X54264Y34992D01*
X54264Y34994D01*
X54264Y34996D01*
X54263Y34999D01*
X54262Y35001D01*
X54261Y35003D01*
X54260Y35005D01*
X54258Y35007D01*
X54257Y35009D01*
X54255Y35011D01*
X54254Y35012D01*
X54252Y35014D01*
X54249Y35015D01*
X54248Y35016D01*
X54246Y35017D01*
X54243Y35018D01*
X54240Y35019D01*
X54237Y35019D01*
X54236Y35019D01*
X54235Y35019D01*
X54160Y35019D01*
X54156Y35019D01*
X54152Y35018D01*
X54151Y35018D01*
X54150Y35018D01*
X54147Y35016D01*
X54143Y35014D01*
X54142Y35013D01*
X54141Y35013D01*
X54139Y35011D01*
X53829Y34701D01*
X53827Y34698D01*
X53825Y34695D01*
X53824Y34694D01*
X53824Y34693D01*
X53823Y34689D01*
X53821Y34686D01*
X53821Y34685D01*
X53821Y34684D01*
X53821Y34683D01*
X53821Y34680D01*
X53821Y34176D01*
X53772Y34058D01*
X53682Y33968D01*
X53564Y33919D01*
X53436Y33919D01*
X53318Y33968D01*
X53228Y34058D01*
X53179Y34176D01*
X53179Y34824D01*
X53228Y34942D01*
X53318Y35032D01*
X53436Y35081D01*
X53564Y35081D01*
X53682Y35032D01*
X53772Y34942D01*
X53773Y34941D01*
X53773Y34940D01*
X53777Y34938D01*
X53780Y34936D01*
X53781Y34936D01*
X53782Y34935D01*
X53785Y34934D01*
X53789Y34933D01*
X53790Y34933D01*
X53791Y34933D01*
X53795Y34934D01*
X53798Y34934D01*
X53799Y34934D01*
X53800Y34934D01*
X53804Y34936D01*
X53807Y34937D01*
X53808Y34938D01*
X53809Y34938D01*
X53813Y34942D01*
X54072Y35201D01*
X59479Y35201D01*
X59541Y35139D01*
X60979Y33701D01*
X60982Y33699D01*
X60984Y33697D01*
X60986Y33696D01*
X60987Y33695D01*
X60990Y33694D01*
X60993Y33693D01*
X60994Y33693D01*
X60996Y33692D01*
X60999Y33692D01*
X61002Y33692D01*
X61004Y33693D01*
X61006Y33693D01*
X61009Y33694D01*
X61011Y33694D01*
X61013Y33695D01*
X61015Y33696D01*
X61017Y33698D01*
X61019Y33699D01*
X61021Y33701D01*
X61022Y33702D01*
X61024Y33705D01*
X61025Y33707D01*
X61026Y33709D01*
X61027Y33710D01*
X61028Y33713D01*
X61029Y33716D01*
X61029Y33719D01*
X61029Y33720D01*
X61029Y33721D01*
X61029Y34000D01*
X61029Y34004D01*
X61028Y34008D01*
X61028Y34009D01*
X61026Y34013D01*
X61024Y34017D01*
X61023Y34017D01*
X61023Y34018D01*
X61021Y34021D01*
X59641Y35401D01*
X59637Y35403D01*
X59634Y35405D01*
X59634Y35406D01*
X59633Y35406D01*
X59629Y35407D01*
X59625Y35409D01*
X59624Y35409D01*
X59623Y35409D01*
X59620Y35409D01*
X52550Y35409D01*
X52546Y35409D01*
X52542Y35408D01*
X52541Y35408D01*
X52540Y35408D01*
X52537Y35406D01*
X52533Y35404D01*
X52532Y35403D01*
X52531Y35403D01*
X52529Y35401D01*
X51829Y34701D01*
X51827Y34698D01*
X51825Y34695D01*
X51824Y34694D01*
X51824Y34693D01*
X51823Y34689D01*
X51821Y34686D01*
X51821Y34685D01*
X51821Y34684D01*
X51821Y34683D01*
X51821Y34680D01*
X51821Y34176D01*
X51772Y34058D01*
X51682Y33968D01*
X51564Y33919D01*
X51436Y33919D01*
X51318Y33968D01*
X51228Y34058D01*
X51179Y34176D01*
X51179Y34824D01*
X51228Y34942D01*
X51318Y35032D01*
X51436Y35081D01*
X51564Y35081D01*
X51682Y35032D01*
X51772Y34942D01*
X51773Y34941D01*
X51773Y34940D01*
X51777Y34938D01*
X51780Y34936D01*
X51781Y34936D01*
X51782Y34935D01*
X51785Y34934D01*
X51789Y34933D01*
X51790Y34933D01*
X51791Y34933D01*
X51795Y34934D01*
X51798Y34934D01*
X51799Y34934D01*
X51800Y34934D01*
X51804Y34936D01*
X51807Y34937D01*
X51808Y34938D01*
X51809Y34938D01*
X51813Y34942D01*
X52401Y35529D01*
X52462Y35591D01*
X59710Y35591D01*
X59713Y35591D01*
X59716Y35591D01*
X59718Y35592D01*
X59720Y35592D01*
X59722Y35594D01*
X59725Y35595D01*
X59726Y35596D01*
X59728Y35597D01*
X59730Y35599D01*
X59732Y35601D01*
X59733Y35602D01*
X59735Y35604D01*
X59736Y35607D01*
X59737Y35609D01*
X59738Y35611D01*
X59739Y35613D01*
X59739Y35615D01*
X59739Y35618D01*
X59739Y35620D01*
X59739Y35622D01*
X59739Y35625D01*
X59738Y35628D01*
X59738Y35630D01*
X59737Y35631D01*
X59736Y35634D01*
X59734Y35637D01*
X59733Y35639D01*
X59732Y35639D01*
X59732Y35640D01*
X59731Y35641D01*
X59621Y35751D01*
X59618Y35753D01*
X59615Y35755D01*
X59614Y35756D01*
X59613Y35756D01*
X59609Y35757D01*
X59606Y35759D01*
X59605Y35759D01*
X59604Y35759D01*
X59603Y35759D01*
X59600Y35759D01*
X50900Y35759D01*
X50896Y35759D01*
X50892Y35758D01*
X50891Y35758D01*
X50890Y35758D01*
X50887Y35756D01*
X50883Y35754D01*
X50882Y35753D01*
X50881Y35753D01*
X50879Y35751D01*
X49829Y34701D01*
X49827Y34698D01*
X49825Y34695D01*
X49824Y34694D01*
X49824Y34693D01*
X49823Y34689D01*
X49821Y34686D01*
X49821Y34685D01*
X49821Y34684D01*
X49821Y34683D01*
X49821Y34680D01*
X49821Y34176D01*
X49772Y34058D01*
X49682Y33968D01*
X49564Y33919D01*
X49436Y33919D01*
X49318Y33968D01*
X49228Y34058D01*
X49179Y34176D01*
X49179Y34824D01*
X49228Y34942D01*
X49318Y35032D01*
X49436Y35081D01*
X49564Y35081D01*
X49682Y35032D01*
X49772Y34942D01*
X49773Y34941D01*
X49773Y34940D01*
X49777Y34938D01*
X49780Y34936D01*
X49781Y34936D01*
X49782Y34935D01*
X49785Y34934D01*
X49789Y34933D01*
X49790Y34933D01*
X49791Y34933D01*
X49795Y34934D01*
X49798Y34934D01*
X49799Y34934D01*
X49800Y34934D01*
X49804Y34936D01*
X49807Y34937D01*
X49808Y34938D01*
X49809Y34938D01*
X49813Y34942D01*
X50751Y35879D01*
X50812Y35941D01*
X59688Y35941D01*
X61591Y34038D01*
X61591Y31962D01*
X61219Y31591D01*
X61217Y31588D01*
X61215Y31585D01*
X61214Y31584D01*
X61214Y31583D01*
X61213Y31579D01*
X61211Y31576D01*
X61211Y31575D01*
X61211Y31574D01*
X61211Y31573D01*
X61211Y31570D01*
X61211Y15031D01*
X61149Y14969D01*
X60866Y14686D01*
X60865Y14685D01*
X60864Y14684D01*
X60862Y14681D01*
X60860Y14678D01*
X60860Y14677D01*
X60859Y14676D01*
X60858Y14672D01*
X60857Y14669D01*
X60857Y14668D01*
X60857Y14667D01*
X60858Y14663D01*
X60858Y14659D01*
X60858Y14658D01*
X60858Y14657D01*
X60860Y14654D01*
X60861Y14651D01*
X60861Y14351D01*
X60649Y14139D01*
X60351Y14139D01*
X60139Y14351D01*
X60139Y14649D01*
X60351Y14861D01*
X60649Y14861D01*
X60696Y14814D01*
X60697Y14814D01*
X60698Y14813D01*
X60701Y14811D01*
X60704Y14809D01*
X60705Y14808D01*
X60706Y14808D01*
X60709Y14807D01*
X60713Y14806D01*
X60714Y14806D01*
X60715Y14806D01*
X60719Y14806D01*
X60723Y14806D01*
X60723Y14807D01*
X60725Y14807D01*
X60728Y14808D01*
X60731Y14810D01*
X60732Y14810D01*
X60733Y14811D01*
X60737Y14814D01*
X61021Y15097D01*
X61023Y15101D01*
X61025Y15104D01*
X61026Y15105D01*
X61027Y15109D01*
X61029Y15113D01*
X61029Y15114D01*
X61029Y15115D01*
X61029Y15118D01*
X61029Y15779D01*
X61029Y15782D01*
X61029Y15785D01*
X61028Y15786D01*
X61028Y15788D01*
X61026Y15791D01*
X61025Y15794D01*
X61024Y15795D01*
X61023Y15797D01*
X61021Y15799D01*
X61019Y15801D01*
X61018Y15802D01*
X61016Y15803D01*
X61013Y15804D01*
X61011Y15806D01*
X61009Y15806D01*
X61007Y15807D01*
X61005Y15807D01*
X61002Y15808D01*
X61000Y15808D01*
X60998Y15808D01*
X60995Y15807D01*
X60992Y15807D01*
X60990Y15806D01*
X60989Y15806D01*
X60986Y15804D01*
X60983Y15803D01*
X60981Y15801D01*
X60980Y15800D01*
X60979Y15799D01*
X60866Y15686D01*
X60865Y15685D01*
X60864Y15684D01*
X60862Y15681D01*
X60860Y15678D01*
X60860Y15677D01*
X60859Y15676D01*
X60858Y15672D01*
X60857Y15669D01*
X60857Y15668D01*
X60857Y15667D01*
X60858Y15663D01*
X60858Y15659D01*
X60858Y15658D01*
X60858Y15657D01*
X60860Y15654D01*
X60861Y15651D01*
X60861Y15351D01*
X60649Y15139D01*
X60351Y15139D01*
X60139Y15351D01*
X60139Y15649D01*
X60351Y15861D01*
X60649Y15861D01*
X60696Y15814D01*
X60697Y15814D01*
X60698Y15813D01*
X60701Y15811D01*
X60704Y15809D01*
X60705Y15808D01*
X60706Y15808D01*
X60709Y15807D01*
X60713Y15806D01*
X60714Y15806D01*
X60715Y15806D01*
X60719Y15806D01*
X60723Y15806D01*
X60723Y15807D01*
X60725Y15807D01*
X60728Y15808D01*
X60731Y15810D01*
X60732Y15810D01*
X60733Y15811D01*
X60737Y15814D01*
X60791Y15867D01*
X60793Y15871D01*
X60795Y15874D01*
X60796Y15875D01*
X60797Y15879D01*
X60799Y15883D01*
X60799Y15884D01*
X60799Y15885D01*
X60799Y15888D01*
X60799Y16218D01*
X60799Y16221D01*
X60799Y16224D01*
X60798Y16226D01*
X60798Y16228D01*
X60796Y16230D01*
X60795Y16233D01*
X60794Y16235D01*
X60793Y16236D01*
X60791Y16238D01*
X60789Y16241D01*
X60788Y16242D01*
X60786Y16243D01*
X60783Y16244D01*
X60781Y16246D01*
X60779Y16246D01*
X60777Y16247D01*
X60775Y16247D01*
X60772Y16248D01*
X60770Y16247D01*
X60768Y16248D01*
X60765Y16247D01*
X60762Y16247D01*
X60760Y16246D01*
X60759Y16245D01*
X60756Y16244D01*
X60753Y16243D01*
X60751Y16241D01*
X60751Y16240D01*
X60750Y16240D01*
X60749Y16239D01*
X60649Y16139D01*
X60351Y16139D01*
X60139Y16351D01*
X60139Y16649D01*
X60160Y16670D01*
X60161Y16671D01*
X60161Y16672D01*
X60163Y16675D01*
X60166Y16678D01*
X60166Y16679D01*
X60166Y16680D01*
X60167Y16684D01*
X60168Y16687D01*
X60168Y16688D01*
X60169Y16689D01*
X60168Y16693D01*
X60168Y16697D01*
X60168Y16698D01*
X60168Y16699D01*
X60166Y16702D01*
X60165Y16706D01*
X60164Y16706D01*
X60164Y16707D01*
X60160Y16712D01*
X59861Y17011D01*
X59799Y17072D01*
X59799Y17218D01*
X59799Y17221D01*
X59799Y17224D01*
X59798Y17226D01*
X59798Y17228D01*
X59796Y17230D01*
X59795Y17233D01*
X59794Y17235D01*
X59793Y17236D01*
X59791Y17238D01*
X59789Y17241D01*
X59788Y17242D01*
X59786Y17243D01*
X59783Y17244D01*
X59781Y17246D01*
X59779Y17246D01*
X59777Y17247D01*
X59775Y17247D01*
X59772Y17248D01*
X59770Y17247D01*
X59768Y17248D01*
X59765Y17247D01*
X59762Y17247D01*
X59760Y17246D01*
X59759Y17245D01*
X59756Y17244D01*
X59753Y17243D01*
X59751Y17241D01*
X59751Y17240D01*
X59750Y17240D01*
X59749Y17239D01*
X59649Y17139D01*
X59351Y17139D01*
X59141Y17349D01*
X59138Y17351D01*
X59136Y17353D01*
X59134Y17354D01*
X59133Y17355D01*
X59130Y17356D01*
X59127Y17357D01*
X59126Y17357D01*
X59124Y17357D01*
X59121Y17357D01*
X59118Y17358D01*
X59116Y17357D01*
X59114Y17357D01*
X59111Y17356D01*
X59109Y17355D01*
X59107Y17354D01*
X59105Y17354D01*
X59103Y17352D01*
X59101Y17350D01*
X59099Y17349D01*
X59098Y17348D01*
X59096Y17345D01*
X59095Y17343D01*
X59094Y17341D01*
X59093Y17339D01*
X59092Y17337D01*
X59091Y17334D01*
X59091Y17331D01*
X59091Y17330D01*
X59091Y17328D01*
X59091Y16672D01*
X59091Y16669D01*
X59091Y16666D01*
X59092Y16664D01*
X59092Y16662D01*
X59094Y16660D01*
X59095Y16657D01*
X59096Y16655D01*
X59097Y16654D01*
X59099Y16652D01*
X59101Y16649D01*
X59102Y16648D01*
X59104Y16647D01*
X59107Y16646D01*
X59109Y16644D01*
X59111Y16644D01*
X59113Y16643D01*
X59115Y16643D01*
X59118Y16642D01*
X59120Y16643D01*
X59122Y16642D01*
X59125Y16643D01*
X59128Y16643D01*
X59130Y16644D01*
X59131Y16645D01*
X59134Y16646D01*
X59137Y16647D01*
X59139Y16649D01*
X59139Y16650D01*
X59140Y16650D01*
X59141Y16651D01*
X59351Y16861D01*
X59649Y16861D01*
X59861Y16649D01*
X59861Y16351D01*
X59649Y16139D01*
X59351Y16139D01*
X59141Y16349D01*
X59138Y16351D01*
X59136Y16353D01*
X59134Y16354D01*
X59133Y16355D01*
X59130Y16356D01*
X59127Y16357D01*
X59126Y16357D01*
X59124Y16357D01*
X59121Y16357D01*
X59118Y16358D01*
X59116Y16357D01*
X59114Y16357D01*
X59111Y16356D01*
X59109Y16355D01*
X59107Y16354D01*
X59105Y16354D01*
X59103Y16352D01*
X59101Y16350D01*
X59099Y16349D01*
X59098Y16348D01*
X59096Y16345D01*
X59095Y16343D01*
X59094Y16341D01*
X59093Y16339D01*
X59092Y16337D01*
X59091Y16334D01*
X59091Y16331D01*
X59091Y16330D01*
X59091Y16328D01*
X59091Y15672D01*
X59091Y15669D01*
X59091Y15666D01*
X59092Y15664D01*
X59092Y15662D01*
X59094Y15660D01*
X59095Y15657D01*
X59096Y15655D01*
X59097Y15654D01*
X59099Y15652D01*
X59101Y15649D01*
X59102Y15648D01*
X59104Y15647D01*
X59107Y15646D01*
X59109Y15644D01*
X59111Y15644D01*
X59113Y15643D01*
X59115Y15643D01*
X59118Y15642D01*
X59120Y15643D01*
X59122Y15642D01*
X59125Y15643D01*
X59128Y15643D01*
X59130Y15644D01*
X59131Y15645D01*
X59134Y15646D01*
X59137Y15647D01*
X59139Y15649D01*
X59139Y15650D01*
X59140Y15650D01*
X59141Y15651D01*
X59351Y15861D01*
X59649Y15861D01*
X59861Y15649D01*
X59861Y15351D01*
X59649Y15139D01*
X59351Y15139D01*
X59141Y15349D01*
X59138Y15351D01*
X59136Y15353D01*
X59134Y15354D01*
X59133Y15355D01*
X59130Y15356D01*
X59127Y15357D01*
X59126Y15357D01*
X59124Y15357D01*
X59121Y15357D01*
X59118Y15358D01*
X59116Y15357D01*
X59114Y15357D01*
X59111Y15356D01*
X59109Y15355D01*
X59107Y15354D01*
X59105Y15354D01*
X59103Y15352D01*
X59101Y15350D01*
X59099Y15349D01*
X59098Y15348D01*
X59096Y15345D01*
X59095Y15343D01*
X59094Y15341D01*
X59093Y15339D01*
X59092Y15337D01*
X59091Y15334D01*
X59091Y15331D01*
X59091Y15330D01*
X59091Y15328D01*
X59091Y15050D01*
X59091Y15046D01*
X59092Y15042D01*
X59092Y15041D01*
X59092Y15040D01*
X59094Y15037D01*
X59096Y15033D01*
X59097Y15032D01*
X59097Y15031D01*
X59099Y15029D01*
X59288Y14840D01*
X59289Y14839D01*
X59290Y14839D01*
X59293Y14837D01*
X59296Y14834D01*
X59297Y14834D01*
X59298Y14834D01*
X59302Y14833D01*
X59305Y14832D01*
X59306Y14832D01*
X59307Y14831D01*
X59311Y14832D01*
X59315Y14832D01*
X59316Y14832D01*
X59317Y14832D01*
X59320Y14834D01*
X59324Y14835D01*
X59325Y14836D01*
X59326Y14836D01*
X59330Y14840D01*
X59351Y14861D01*
X59649Y14861D01*
X59861Y14649D01*
X59861Y14351D01*
X59649Y14139D01*
X59351Y14139D01*
G37*
%LPD*%
%LPC*%
G36*
X39436Y11919D02*
X39436Y11919D01*
X39318Y11968D01*
X39228Y12058D01*
X39179Y12176D01*
X39179Y12680D01*
X39179Y12684D01*
X39178Y12688D01*
X39178Y12689D01*
X39178Y12690D01*
X39176Y12693D01*
X39174Y12697D01*
X39173Y12698D01*
X39173Y12699D01*
X39171Y12701D01*
X38971Y12901D01*
X38909Y12962D01*
X38909Y22038D01*
X39401Y22529D01*
X39403Y22532D01*
X39405Y22535D01*
X39406Y22536D01*
X39406Y22537D01*
X39407Y22541D01*
X39409Y22544D01*
X39409Y22545D01*
X39409Y22546D01*
X39409Y22547D01*
X39409Y22550D01*
X39409Y25610D01*
X39409Y25611D01*
X39409Y25612D01*
X39408Y25616D01*
X39408Y25619D01*
X39407Y25620D01*
X39407Y25621D01*
X39405Y25625D01*
X39403Y25628D01*
X39402Y25629D01*
X39399Y25632D01*
X39396Y25634D01*
X39395Y25635D01*
X39394Y25635D01*
X39391Y25637D01*
X39387Y25638D01*
X39386Y25638D01*
X39385Y25639D01*
X39380Y25639D01*
X39351Y25639D01*
X39139Y25851D01*
X39139Y26149D01*
X39160Y26170D01*
X39161Y26171D01*
X39161Y26172D01*
X39163Y26175D01*
X39166Y26178D01*
X39166Y26179D01*
X39166Y26180D01*
X39167Y26184D01*
X39168Y26187D01*
X39168Y26188D01*
X39169Y26189D01*
X39168Y26193D01*
X39168Y26197D01*
X39168Y26198D01*
X39168Y26199D01*
X39166Y26202D01*
X39165Y26206D01*
X39164Y26206D01*
X39164Y26207D01*
X39160Y26212D01*
X38971Y26401D01*
X38909Y26462D01*
X38909Y26828D01*
X38909Y26831D01*
X38909Y26834D01*
X38908Y26836D01*
X38908Y26838D01*
X38906Y26840D01*
X38905Y26843D01*
X38904Y26845D01*
X38903Y26846D01*
X38901Y26848D01*
X38899Y26851D01*
X38898Y26852D01*
X38896Y26853D01*
X38893Y26854D01*
X38891Y26856D01*
X38889Y26856D01*
X38887Y26857D01*
X38885Y26857D01*
X38882Y26858D01*
X38880Y26857D01*
X38878Y26858D01*
X38875Y26857D01*
X38872Y26857D01*
X38870Y26856D01*
X38869Y26855D01*
X38866Y26854D01*
X38863Y26853D01*
X38861Y26851D01*
X38861Y26850D01*
X38860Y26850D01*
X38859Y26849D01*
X38649Y26639D01*
X38351Y26639D01*
X38141Y26849D01*
X38138Y26851D01*
X38136Y26853D01*
X38134Y26854D01*
X38133Y26855D01*
X38130Y26856D01*
X38127Y26857D01*
X38126Y26857D01*
X38124Y26857D01*
X38121Y26857D01*
X38118Y26858D01*
X38116Y26857D01*
X38114Y26857D01*
X38111Y26856D01*
X38109Y26855D01*
X38107Y26854D01*
X38105Y26854D01*
X38103Y26852D01*
X38101Y26850D01*
X38099Y26849D01*
X38098Y26848D01*
X38096Y26845D01*
X38095Y26843D01*
X38094Y26841D01*
X38093Y26839D01*
X38092Y26837D01*
X38091Y26834D01*
X38091Y26831D01*
X38091Y26830D01*
X38091Y26828D01*
X38091Y26550D01*
X38091Y26546D01*
X38092Y26542D01*
X38092Y26541D01*
X38092Y26540D01*
X38094Y26537D01*
X38096Y26533D01*
X38097Y26532D01*
X38097Y26531D01*
X38099Y26529D01*
X38288Y26340D01*
X38289Y26339D01*
X38290Y26339D01*
X38293Y26337D01*
X38296Y26334D01*
X38297Y26334D01*
X38298Y26334D01*
X38302Y26333D01*
X38305Y26332D01*
X38306Y26332D01*
X38307Y26331D01*
X38311Y26332D01*
X38315Y26332D01*
X38316Y26332D01*
X38317Y26332D01*
X38320Y26334D01*
X38324Y26335D01*
X38325Y26336D01*
X38326Y26336D01*
X38330Y26340D01*
X38351Y26361D01*
X38649Y26361D01*
X38861Y26149D01*
X38861Y25851D01*
X38649Y25639D01*
X38351Y25639D01*
X38139Y25851D01*
X38139Y26149D01*
X38160Y26170D01*
X38161Y26171D01*
X38161Y26172D01*
X38163Y26175D01*
X38166Y26178D01*
X38166Y26179D01*
X38166Y26180D01*
X38167Y26184D01*
X38168Y26187D01*
X38168Y26188D01*
X38169Y26189D01*
X38168Y26193D01*
X38168Y26197D01*
X38168Y26198D01*
X38168Y26199D01*
X38166Y26202D01*
X38165Y26206D01*
X38164Y26206D01*
X38164Y26207D01*
X38160Y26212D01*
X37971Y26401D01*
X37909Y26462D01*
X37909Y26828D01*
X37909Y26831D01*
X37909Y26834D01*
X37908Y26836D01*
X37908Y26838D01*
X37906Y26840D01*
X37905Y26843D01*
X37904Y26845D01*
X37903Y26846D01*
X37901Y26848D01*
X37899Y26851D01*
X37898Y26852D01*
X37896Y26853D01*
X37893Y26854D01*
X37891Y26856D01*
X37889Y26856D01*
X37887Y26857D01*
X37885Y26857D01*
X37882Y26858D01*
X37880Y26857D01*
X37878Y26858D01*
X37875Y26857D01*
X37872Y26857D01*
X37870Y26856D01*
X37869Y26855D01*
X37866Y26854D01*
X37863Y26853D01*
X37861Y26851D01*
X37861Y26850D01*
X37860Y26850D01*
X37859Y26849D01*
X37649Y26639D01*
X37351Y26639D01*
X37139Y26851D01*
X37139Y27149D01*
X37351Y27361D01*
X37649Y27361D01*
X37670Y27340D01*
X37671Y27339D01*
X37672Y27339D01*
X37675Y27337D01*
X37678Y27334D01*
X37679Y27334D01*
X37680Y27334D01*
X37684Y27333D01*
X37687Y27332D01*
X37688Y27332D01*
X37689Y27331D01*
X37693Y27332D01*
X37697Y27332D01*
X37698Y27332D01*
X37699Y27332D01*
X37702Y27334D01*
X37706Y27335D01*
X37706Y27336D01*
X37707Y27336D01*
X37712Y27340D01*
X37901Y27529D01*
X37903Y27532D01*
X37905Y27535D01*
X37906Y27536D01*
X37906Y27537D01*
X37907Y27541D01*
X37909Y27544D01*
X37909Y27545D01*
X37909Y27546D01*
X37909Y27547D01*
X37909Y27550D01*
X37909Y28772D01*
X37909Y28775D01*
X37909Y28778D01*
X37908Y28779D01*
X37908Y28781D01*
X37906Y28784D01*
X37905Y28787D01*
X37904Y28788D01*
X37903Y28790D01*
X37901Y28792D01*
X37899Y28794D01*
X37898Y28795D01*
X37896Y28796D01*
X37893Y28797D01*
X37891Y28799D01*
X37889Y28799D01*
X37887Y28800D01*
X37885Y28800D01*
X37882Y28801D01*
X37880Y28801D01*
X37878Y28801D01*
X37875Y28800D01*
X37872Y28800D01*
X37870Y28799D01*
X37869Y28799D01*
X37866Y28797D01*
X37863Y28796D01*
X37861Y28794D01*
X37860Y28793D01*
X37859Y28793D01*
X37666Y28599D01*
X37559Y28599D01*
X37559Y28970D01*
X37559Y28971D01*
X37559Y28972D01*
X37558Y28976D01*
X37558Y28979D01*
X37557Y28980D01*
X37557Y28981D01*
X37555Y28985D01*
X37553Y28988D01*
X37552Y28989D01*
X37549Y28992D01*
X37546Y28994D01*
X37545Y28995D01*
X37544Y28995D01*
X37541Y28997D01*
X37537Y28998D01*
X37536Y28998D01*
X37535Y28999D01*
X37530Y28999D01*
X37499Y28999D01*
X37499Y29001D01*
X37530Y29001D01*
X37531Y29001D01*
X37532Y29001D01*
X37536Y29002D01*
X37539Y29002D01*
X37540Y29003D01*
X37541Y29003D01*
X37545Y29005D01*
X37548Y29007D01*
X37549Y29008D01*
X37552Y29011D01*
X37554Y29014D01*
X37555Y29015D01*
X37555Y29016D01*
X37557Y29019D01*
X37558Y29023D01*
X37558Y29024D01*
X37559Y29025D01*
X37559Y29030D01*
X37559Y29401D01*
X37666Y29401D01*
X37859Y29207D01*
X37862Y29206D01*
X37864Y29204D01*
X37866Y29203D01*
X37867Y29202D01*
X37870Y29201D01*
X37873Y29200D01*
X37874Y29200D01*
X37876Y29199D01*
X37879Y29199D01*
X37882Y29199D01*
X37884Y29199D01*
X37886Y29199D01*
X37889Y29200D01*
X37891Y29201D01*
X37893Y29202D01*
X37895Y29203D01*
X37897Y29205D01*
X37899Y29206D01*
X37901Y29208D01*
X37902Y29209D01*
X37904Y29211D01*
X37905Y29214D01*
X37906Y29216D01*
X37907Y29217D01*
X37908Y29220D01*
X37909Y29223D01*
X37909Y29226D01*
X37909Y29227D01*
X37909Y29228D01*
X37909Y29450D01*
X37909Y29454D01*
X37908Y29458D01*
X37908Y29459D01*
X37908Y29460D01*
X37906Y29463D01*
X37904Y29467D01*
X37903Y29468D01*
X37903Y29469D01*
X37901Y29471D01*
X37712Y29660D01*
X37711Y29661D01*
X37710Y29661D01*
X37707Y29663D01*
X37704Y29666D01*
X37703Y29666D01*
X37702Y29666D01*
X37698Y29667D01*
X37695Y29668D01*
X37694Y29668D01*
X37693Y29669D01*
X37689Y29668D01*
X37685Y29668D01*
X37684Y29668D01*
X37683Y29668D01*
X37680Y29666D01*
X37676Y29665D01*
X37675Y29664D01*
X37674Y29664D01*
X37670Y29660D01*
X37649Y29639D01*
X37351Y29639D01*
X37139Y29851D01*
X37139Y30149D01*
X37351Y30361D01*
X37649Y30361D01*
X37861Y30149D01*
X37861Y29851D01*
X37840Y29830D01*
X37839Y29829D01*
X37839Y29828D01*
X37837Y29825D01*
X37834Y29822D01*
X37834Y29821D01*
X37834Y29820D01*
X37833Y29816D01*
X37832Y29813D01*
X37832Y29812D01*
X37831Y29811D01*
X37832Y29807D01*
X37832Y29803D01*
X37832Y29802D01*
X37832Y29801D01*
X37834Y29798D01*
X37835Y29794D01*
X37836Y29794D01*
X37836Y29793D01*
X37840Y29788D01*
X38029Y29599D01*
X38091Y29538D01*
X38091Y29172D01*
X38091Y29169D01*
X38091Y29166D01*
X38092Y29164D01*
X38092Y29162D01*
X38094Y29160D01*
X38095Y29157D01*
X38096Y29155D01*
X38097Y29154D01*
X38099Y29152D01*
X38101Y29149D01*
X38102Y29148D01*
X38104Y29147D01*
X38107Y29146D01*
X38109Y29144D01*
X38111Y29144D01*
X38113Y29143D01*
X38115Y29143D01*
X38118Y29142D01*
X38120Y29143D01*
X38122Y29142D01*
X38125Y29143D01*
X38128Y29143D01*
X38130Y29144D01*
X38131Y29145D01*
X38134Y29146D01*
X38137Y29147D01*
X38139Y29149D01*
X38139Y29150D01*
X38140Y29150D01*
X38141Y29151D01*
X38351Y29361D01*
X38649Y29361D01*
X38859Y29151D01*
X38862Y29149D01*
X38864Y29147D01*
X38866Y29146D01*
X38867Y29145D01*
X38870Y29144D01*
X38873Y29143D01*
X38874Y29143D01*
X38876Y29143D01*
X38879Y29143D01*
X38882Y29142D01*
X38884Y29143D01*
X38886Y29143D01*
X38889Y29144D01*
X38891Y29145D01*
X38893Y29146D01*
X38895Y29146D01*
X38897Y29148D01*
X38899Y29150D01*
X38901Y29151D01*
X38902Y29152D01*
X38904Y29155D01*
X38905Y29157D01*
X38906Y29159D01*
X38907Y29161D01*
X38908Y29163D01*
X38909Y29166D01*
X38909Y29169D01*
X38909Y29170D01*
X38909Y29172D01*
X38909Y29450D01*
X38909Y29454D01*
X38908Y29458D01*
X38908Y29459D01*
X38908Y29460D01*
X38906Y29463D01*
X38904Y29467D01*
X38903Y29468D01*
X38903Y29469D01*
X38901Y29471D01*
X38712Y29660D01*
X38711Y29661D01*
X38710Y29661D01*
X38707Y29663D01*
X38704Y29666D01*
X38703Y29666D01*
X38702Y29666D01*
X38698Y29667D01*
X38695Y29668D01*
X38694Y29668D01*
X38693Y29669D01*
X38689Y29668D01*
X38685Y29668D01*
X38684Y29668D01*
X38683Y29668D01*
X38680Y29666D01*
X38676Y29665D01*
X38675Y29664D01*
X38674Y29664D01*
X38670Y29660D01*
X38649Y29639D01*
X38351Y29639D01*
X38139Y29851D01*
X38139Y30149D01*
X38351Y30361D01*
X38649Y30361D01*
X38861Y30149D01*
X38861Y29851D01*
X38840Y29830D01*
X38839Y29829D01*
X38839Y29828D01*
X38837Y29825D01*
X38834Y29822D01*
X38834Y29821D01*
X38834Y29820D01*
X38833Y29816D01*
X38832Y29813D01*
X38832Y29812D01*
X38831Y29811D01*
X38832Y29807D01*
X38832Y29803D01*
X38832Y29802D01*
X38832Y29801D01*
X38834Y29798D01*
X38835Y29794D01*
X38836Y29794D01*
X38836Y29793D01*
X38840Y29788D01*
X39029Y29599D01*
X39091Y29538D01*
X39091Y29172D01*
X39091Y29169D01*
X39091Y29166D01*
X39092Y29164D01*
X39092Y29162D01*
X39094Y29160D01*
X39095Y29157D01*
X39096Y29155D01*
X39097Y29154D01*
X39099Y29152D01*
X39101Y29149D01*
X39102Y29148D01*
X39104Y29147D01*
X39107Y29146D01*
X39109Y29144D01*
X39111Y29144D01*
X39113Y29143D01*
X39115Y29143D01*
X39118Y29142D01*
X39120Y29143D01*
X39122Y29142D01*
X39125Y29143D01*
X39128Y29143D01*
X39130Y29144D01*
X39131Y29145D01*
X39134Y29146D01*
X39137Y29147D01*
X39139Y29149D01*
X39139Y29150D01*
X39140Y29150D01*
X39141Y29151D01*
X39351Y29361D01*
X39649Y29361D01*
X39859Y29151D01*
X39862Y29149D01*
X39864Y29147D01*
X39866Y29146D01*
X39867Y29145D01*
X39870Y29144D01*
X39873Y29143D01*
X39874Y29143D01*
X39876Y29143D01*
X39879Y29143D01*
X39882Y29142D01*
X39884Y29143D01*
X39886Y29143D01*
X39889Y29144D01*
X39891Y29145D01*
X39893Y29146D01*
X39895Y29146D01*
X39897Y29148D01*
X39899Y29150D01*
X39901Y29151D01*
X39902Y29152D01*
X39904Y29155D01*
X39905Y29157D01*
X39906Y29159D01*
X39907Y29161D01*
X39908Y29163D01*
X39909Y29166D01*
X39909Y29169D01*
X39909Y29170D01*
X39909Y29172D01*
X39909Y29450D01*
X39909Y29454D01*
X39908Y29458D01*
X39908Y29459D01*
X39908Y29460D01*
X39906Y29463D01*
X39904Y29467D01*
X39903Y29468D01*
X39903Y29469D01*
X39901Y29471D01*
X39712Y29660D01*
X39711Y29661D01*
X39710Y29661D01*
X39707Y29663D01*
X39704Y29666D01*
X39703Y29666D01*
X39702Y29666D01*
X39698Y29667D01*
X39695Y29668D01*
X39694Y29668D01*
X39693Y29669D01*
X39689Y29668D01*
X39685Y29668D01*
X39684Y29668D01*
X39683Y29668D01*
X39680Y29666D01*
X39676Y29665D01*
X39675Y29664D01*
X39674Y29664D01*
X39670Y29660D01*
X39649Y29639D01*
X39351Y29639D01*
X39139Y29851D01*
X39139Y30149D01*
X39351Y30361D01*
X39649Y30361D01*
X39861Y30149D01*
X39861Y29851D01*
X39840Y29830D01*
X39839Y29829D01*
X39839Y29828D01*
X39837Y29825D01*
X39834Y29822D01*
X39834Y29821D01*
X39834Y29820D01*
X39833Y29816D01*
X39832Y29813D01*
X39832Y29812D01*
X39831Y29811D01*
X39832Y29807D01*
X39832Y29803D01*
X39832Y29802D01*
X39832Y29801D01*
X39834Y29798D01*
X39835Y29794D01*
X39836Y29794D01*
X39836Y29793D01*
X39840Y29788D01*
X40029Y29599D01*
X40091Y29538D01*
X40091Y29172D01*
X40091Y29169D01*
X40091Y29166D01*
X40092Y29164D01*
X40092Y29162D01*
X40094Y29160D01*
X40095Y29157D01*
X40096Y29155D01*
X40097Y29154D01*
X40099Y29152D01*
X40101Y29149D01*
X40102Y29148D01*
X40104Y29147D01*
X40107Y29146D01*
X40109Y29144D01*
X40111Y29144D01*
X40113Y29143D01*
X40115Y29143D01*
X40118Y29142D01*
X40120Y29143D01*
X40122Y29142D01*
X40125Y29143D01*
X40128Y29143D01*
X40130Y29144D01*
X40131Y29145D01*
X40134Y29146D01*
X40137Y29147D01*
X40139Y29149D01*
X40139Y29150D01*
X40140Y29150D01*
X40141Y29151D01*
X40351Y29361D01*
X40649Y29361D01*
X40859Y29151D01*
X40862Y29149D01*
X40864Y29147D01*
X40866Y29146D01*
X40867Y29145D01*
X40870Y29144D01*
X40873Y29143D01*
X40874Y29143D01*
X40876Y29143D01*
X40879Y29143D01*
X40882Y29142D01*
X40884Y29143D01*
X40886Y29143D01*
X40889Y29144D01*
X40891Y29145D01*
X40893Y29146D01*
X40895Y29146D01*
X40897Y29148D01*
X40899Y29150D01*
X40901Y29151D01*
X40902Y29152D01*
X40904Y29155D01*
X40905Y29157D01*
X40906Y29159D01*
X40907Y29161D01*
X40908Y29163D01*
X40909Y29166D01*
X40909Y29169D01*
X40909Y29170D01*
X40909Y29172D01*
X40909Y29450D01*
X40909Y29454D01*
X40908Y29458D01*
X40908Y29459D01*
X40908Y29460D01*
X40906Y29463D01*
X40904Y29467D01*
X40903Y29468D01*
X40903Y29469D01*
X40901Y29471D01*
X40712Y29660D01*
X40711Y29661D01*
X40710Y29661D01*
X40707Y29663D01*
X40704Y29666D01*
X40703Y29666D01*
X40702Y29666D01*
X40698Y29667D01*
X40695Y29668D01*
X40694Y29668D01*
X40693Y29669D01*
X40689Y29668D01*
X40685Y29668D01*
X40684Y29668D01*
X40683Y29668D01*
X40680Y29666D01*
X40676Y29665D01*
X40675Y29664D01*
X40674Y29664D01*
X40670Y29660D01*
X40649Y29639D01*
X40351Y29639D01*
X40139Y29851D01*
X40139Y30149D01*
X40351Y30361D01*
X40649Y30361D01*
X40861Y30149D01*
X40861Y29851D01*
X40840Y29830D01*
X40839Y29829D01*
X40839Y29828D01*
X40837Y29825D01*
X40834Y29822D01*
X40834Y29821D01*
X40834Y29820D01*
X40833Y29816D01*
X40832Y29813D01*
X40832Y29812D01*
X40831Y29811D01*
X40832Y29807D01*
X40832Y29803D01*
X40832Y29802D01*
X40832Y29801D01*
X40834Y29798D01*
X40835Y29794D01*
X40836Y29794D01*
X40836Y29793D01*
X40840Y29788D01*
X41029Y29599D01*
X41091Y29538D01*
X41091Y29172D01*
X41091Y29169D01*
X41091Y29166D01*
X41092Y29164D01*
X41092Y29162D01*
X41094Y29160D01*
X41095Y29157D01*
X41096Y29155D01*
X41097Y29154D01*
X41099Y29152D01*
X41101Y29149D01*
X41102Y29148D01*
X41104Y29147D01*
X41107Y29146D01*
X41109Y29144D01*
X41111Y29144D01*
X41113Y29143D01*
X41115Y29143D01*
X41118Y29142D01*
X41120Y29143D01*
X41122Y29142D01*
X41125Y29143D01*
X41128Y29143D01*
X41130Y29144D01*
X41131Y29145D01*
X41134Y29146D01*
X41137Y29147D01*
X41139Y29149D01*
X41139Y29150D01*
X41140Y29150D01*
X41141Y29151D01*
X41351Y29361D01*
X41649Y29361D01*
X41859Y29151D01*
X41862Y29149D01*
X41864Y29147D01*
X41866Y29146D01*
X41867Y29145D01*
X41870Y29144D01*
X41873Y29143D01*
X41874Y29143D01*
X41876Y29143D01*
X41879Y29143D01*
X41882Y29142D01*
X41884Y29143D01*
X41886Y29143D01*
X41889Y29144D01*
X41891Y29145D01*
X41893Y29146D01*
X41895Y29146D01*
X41897Y29148D01*
X41899Y29150D01*
X41901Y29151D01*
X41902Y29152D01*
X41904Y29155D01*
X41905Y29157D01*
X41906Y29159D01*
X41907Y29161D01*
X41908Y29163D01*
X41909Y29166D01*
X41909Y29169D01*
X41909Y29170D01*
X41909Y29172D01*
X41909Y29450D01*
X41909Y29454D01*
X41908Y29458D01*
X41908Y29459D01*
X41908Y29460D01*
X41906Y29463D01*
X41904Y29467D01*
X41903Y29468D01*
X41903Y29469D01*
X41901Y29471D01*
X41712Y29660D01*
X41711Y29661D01*
X41710Y29661D01*
X41707Y29663D01*
X41704Y29666D01*
X41703Y29666D01*
X41702Y29666D01*
X41698Y29667D01*
X41695Y29668D01*
X41694Y29668D01*
X41693Y29669D01*
X41689Y29668D01*
X41685Y29668D01*
X41684Y29668D01*
X41683Y29668D01*
X41680Y29666D01*
X41676Y29665D01*
X41675Y29664D01*
X41674Y29664D01*
X41670Y29660D01*
X41649Y29639D01*
X41351Y29639D01*
X41139Y29851D01*
X41139Y30149D01*
X41351Y30361D01*
X41649Y30361D01*
X41861Y30149D01*
X41861Y29851D01*
X41840Y29830D01*
X41839Y29829D01*
X41839Y29828D01*
X41837Y29825D01*
X41834Y29822D01*
X41834Y29821D01*
X41834Y29820D01*
X41833Y29816D01*
X41832Y29813D01*
X41832Y29812D01*
X41831Y29811D01*
X41832Y29807D01*
X41832Y29803D01*
X41832Y29802D01*
X41832Y29801D01*
X41834Y29798D01*
X41835Y29794D01*
X41836Y29794D01*
X41836Y29793D01*
X41840Y29788D01*
X42029Y29599D01*
X42091Y29538D01*
X42091Y29172D01*
X42091Y29169D01*
X42091Y29166D01*
X42092Y29164D01*
X42092Y29162D01*
X42094Y29160D01*
X42095Y29157D01*
X42096Y29155D01*
X42097Y29154D01*
X42099Y29152D01*
X42101Y29149D01*
X42102Y29148D01*
X42104Y29147D01*
X42107Y29146D01*
X42109Y29144D01*
X42111Y29144D01*
X42113Y29143D01*
X42115Y29143D01*
X42118Y29142D01*
X42120Y29143D01*
X42122Y29142D01*
X42125Y29143D01*
X42128Y29143D01*
X42130Y29144D01*
X42131Y29145D01*
X42134Y29146D01*
X42137Y29147D01*
X42139Y29149D01*
X42139Y29150D01*
X42140Y29150D01*
X42141Y29151D01*
X42351Y29361D01*
X42649Y29361D01*
X42859Y29151D01*
X42862Y29149D01*
X42864Y29147D01*
X42866Y29146D01*
X42867Y29145D01*
X42870Y29144D01*
X42873Y29143D01*
X42874Y29143D01*
X42876Y29143D01*
X42879Y29143D01*
X42882Y29142D01*
X42884Y29143D01*
X42886Y29143D01*
X42889Y29144D01*
X42891Y29145D01*
X42893Y29146D01*
X42895Y29146D01*
X42897Y29148D01*
X42899Y29150D01*
X42901Y29151D01*
X42902Y29152D01*
X42904Y29155D01*
X42905Y29157D01*
X42906Y29159D01*
X42907Y29161D01*
X42908Y29163D01*
X42909Y29166D01*
X42909Y29169D01*
X42909Y29170D01*
X42909Y29172D01*
X42909Y29450D01*
X42909Y29454D01*
X42908Y29458D01*
X42908Y29459D01*
X42908Y29460D01*
X42906Y29463D01*
X42904Y29467D01*
X42903Y29468D01*
X42903Y29469D01*
X42901Y29471D01*
X42712Y29660D01*
X42711Y29661D01*
X42710Y29661D01*
X42707Y29663D01*
X42704Y29666D01*
X42703Y29666D01*
X42702Y29666D01*
X42698Y29667D01*
X42695Y29668D01*
X42694Y29668D01*
X42693Y29669D01*
X42689Y29668D01*
X42685Y29668D01*
X42684Y29668D01*
X42683Y29668D01*
X42680Y29666D01*
X42676Y29665D01*
X42675Y29664D01*
X42674Y29664D01*
X42670Y29660D01*
X42649Y29639D01*
X42351Y29639D01*
X42139Y29851D01*
X42139Y30149D01*
X42351Y30361D01*
X42649Y30361D01*
X42861Y30149D01*
X42861Y29851D01*
X42840Y29830D01*
X42839Y29829D01*
X42839Y29828D01*
X42837Y29825D01*
X42834Y29822D01*
X42834Y29821D01*
X42834Y29820D01*
X42833Y29816D01*
X42832Y29813D01*
X42832Y29812D01*
X42831Y29811D01*
X42832Y29807D01*
X42832Y29803D01*
X42832Y29802D01*
X42832Y29801D01*
X42834Y29798D01*
X42835Y29794D01*
X42836Y29794D01*
X42836Y29793D01*
X42840Y29788D01*
X43029Y29599D01*
X43091Y29538D01*
X43091Y29172D01*
X43091Y29169D01*
X43091Y29166D01*
X43092Y29164D01*
X43092Y29162D01*
X43094Y29160D01*
X43095Y29157D01*
X43096Y29155D01*
X43097Y29154D01*
X43099Y29152D01*
X43101Y29149D01*
X43102Y29148D01*
X43104Y29147D01*
X43107Y29146D01*
X43109Y29144D01*
X43111Y29144D01*
X43113Y29143D01*
X43115Y29143D01*
X43118Y29142D01*
X43120Y29143D01*
X43122Y29142D01*
X43125Y29143D01*
X43128Y29143D01*
X43130Y29144D01*
X43131Y29145D01*
X43134Y29146D01*
X43137Y29147D01*
X43139Y29149D01*
X43139Y29150D01*
X43140Y29150D01*
X43141Y29151D01*
X43351Y29361D01*
X43649Y29361D01*
X43859Y29151D01*
X43862Y29149D01*
X43864Y29147D01*
X43866Y29146D01*
X43867Y29145D01*
X43870Y29144D01*
X43873Y29143D01*
X43874Y29143D01*
X43876Y29143D01*
X43879Y29143D01*
X43882Y29142D01*
X43884Y29143D01*
X43886Y29143D01*
X43889Y29144D01*
X43891Y29145D01*
X43893Y29146D01*
X43895Y29146D01*
X43897Y29148D01*
X43899Y29150D01*
X43901Y29151D01*
X43902Y29152D01*
X43904Y29155D01*
X43905Y29157D01*
X43906Y29159D01*
X43907Y29161D01*
X43908Y29163D01*
X43909Y29166D01*
X43909Y29169D01*
X43909Y29170D01*
X43909Y29172D01*
X43909Y29450D01*
X43909Y29454D01*
X43908Y29458D01*
X43908Y29459D01*
X43908Y29460D01*
X43906Y29463D01*
X43904Y29467D01*
X43903Y29468D01*
X43903Y29469D01*
X43901Y29471D01*
X43712Y29660D01*
X43711Y29661D01*
X43710Y29661D01*
X43707Y29663D01*
X43704Y29666D01*
X43703Y29666D01*
X43702Y29666D01*
X43698Y29667D01*
X43695Y29668D01*
X43694Y29668D01*
X43693Y29669D01*
X43689Y29668D01*
X43685Y29668D01*
X43684Y29668D01*
X43683Y29668D01*
X43680Y29666D01*
X43676Y29665D01*
X43675Y29664D01*
X43674Y29664D01*
X43670Y29660D01*
X43649Y29639D01*
X43351Y29639D01*
X43139Y29851D01*
X43139Y30149D01*
X43351Y30361D01*
X43649Y30361D01*
X43861Y30149D01*
X43861Y29851D01*
X43840Y29830D01*
X43839Y29829D01*
X43839Y29828D01*
X43837Y29825D01*
X43834Y29822D01*
X43834Y29821D01*
X43834Y29820D01*
X43833Y29816D01*
X43832Y29813D01*
X43832Y29812D01*
X43831Y29811D01*
X43832Y29807D01*
X43832Y29803D01*
X43832Y29802D01*
X43832Y29801D01*
X43834Y29798D01*
X43835Y29794D01*
X43836Y29794D01*
X43836Y29793D01*
X43840Y29788D01*
X44029Y29599D01*
X44091Y29538D01*
X44091Y29172D01*
X44091Y29169D01*
X44091Y29166D01*
X44092Y29164D01*
X44092Y29162D01*
X44094Y29160D01*
X44095Y29157D01*
X44096Y29155D01*
X44097Y29154D01*
X44099Y29152D01*
X44101Y29149D01*
X44102Y29148D01*
X44104Y29147D01*
X44107Y29146D01*
X44109Y29144D01*
X44111Y29144D01*
X44113Y29143D01*
X44115Y29143D01*
X44118Y29142D01*
X44120Y29143D01*
X44122Y29142D01*
X44125Y29143D01*
X44128Y29143D01*
X44130Y29144D01*
X44131Y29145D01*
X44134Y29146D01*
X44137Y29147D01*
X44139Y29149D01*
X44139Y29150D01*
X44140Y29150D01*
X44141Y29151D01*
X44351Y29361D01*
X44649Y29361D01*
X44859Y29151D01*
X44862Y29149D01*
X44864Y29147D01*
X44866Y29146D01*
X44867Y29145D01*
X44870Y29144D01*
X44873Y29143D01*
X44874Y29143D01*
X44876Y29143D01*
X44879Y29143D01*
X44882Y29142D01*
X44884Y29143D01*
X44886Y29143D01*
X44889Y29144D01*
X44891Y29145D01*
X44893Y29146D01*
X44895Y29146D01*
X44897Y29148D01*
X44899Y29150D01*
X44901Y29151D01*
X44902Y29152D01*
X44904Y29155D01*
X44905Y29157D01*
X44906Y29159D01*
X44907Y29161D01*
X44908Y29163D01*
X44909Y29166D01*
X44909Y29169D01*
X44909Y29170D01*
X44909Y29172D01*
X44909Y29450D01*
X44909Y29454D01*
X44908Y29458D01*
X44908Y29459D01*
X44908Y29460D01*
X44906Y29463D01*
X44904Y29467D01*
X44903Y29468D01*
X44903Y29469D01*
X44901Y29471D01*
X44712Y29660D01*
X44711Y29661D01*
X44710Y29661D01*
X44707Y29663D01*
X44704Y29666D01*
X44703Y29666D01*
X44702Y29666D01*
X44698Y29667D01*
X44695Y29668D01*
X44694Y29668D01*
X44693Y29669D01*
X44689Y29668D01*
X44685Y29668D01*
X44684Y29668D01*
X44683Y29668D01*
X44680Y29666D01*
X44676Y29665D01*
X44675Y29664D01*
X44674Y29664D01*
X44670Y29660D01*
X44649Y29639D01*
X44351Y29639D01*
X44139Y29851D01*
X44139Y30149D01*
X44351Y30361D01*
X44649Y30361D01*
X44861Y30149D01*
X44861Y29851D01*
X44840Y29830D01*
X44839Y29829D01*
X44839Y29828D01*
X44837Y29825D01*
X44834Y29822D01*
X44834Y29821D01*
X44834Y29820D01*
X44833Y29816D01*
X44832Y29813D01*
X44832Y29812D01*
X44831Y29811D01*
X44832Y29807D01*
X44832Y29803D01*
X44832Y29802D01*
X44832Y29801D01*
X44834Y29798D01*
X44835Y29794D01*
X44836Y29794D01*
X44836Y29793D01*
X44840Y29788D01*
X45029Y29599D01*
X45091Y29538D01*
X45091Y29172D01*
X45091Y29169D01*
X45091Y29166D01*
X45092Y29164D01*
X45092Y29162D01*
X45094Y29160D01*
X45095Y29157D01*
X45096Y29155D01*
X45097Y29154D01*
X45099Y29152D01*
X45101Y29149D01*
X45102Y29148D01*
X45104Y29147D01*
X45107Y29146D01*
X45109Y29144D01*
X45111Y29144D01*
X45113Y29143D01*
X45115Y29143D01*
X45118Y29142D01*
X45120Y29143D01*
X45122Y29142D01*
X45125Y29143D01*
X45128Y29143D01*
X45130Y29144D01*
X45131Y29145D01*
X45134Y29146D01*
X45137Y29147D01*
X45139Y29149D01*
X45139Y29150D01*
X45140Y29150D01*
X45141Y29151D01*
X45351Y29361D01*
X45649Y29361D01*
X45859Y29151D01*
X45862Y29149D01*
X45864Y29147D01*
X45866Y29146D01*
X45867Y29145D01*
X45870Y29144D01*
X45873Y29143D01*
X45874Y29143D01*
X45876Y29143D01*
X45879Y29143D01*
X45882Y29142D01*
X45884Y29143D01*
X45886Y29143D01*
X45889Y29144D01*
X45891Y29145D01*
X45893Y29146D01*
X45895Y29146D01*
X45897Y29148D01*
X45899Y29150D01*
X45901Y29151D01*
X45902Y29152D01*
X45904Y29155D01*
X45905Y29157D01*
X45906Y29159D01*
X45907Y29161D01*
X45908Y29163D01*
X45909Y29166D01*
X45909Y29169D01*
X45909Y29170D01*
X45909Y29172D01*
X45909Y29450D01*
X45909Y29454D01*
X45908Y29458D01*
X45908Y29459D01*
X45908Y29460D01*
X45906Y29463D01*
X45904Y29467D01*
X45903Y29468D01*
X45903Y29469D01*
X45901Y29471D01*
X45712Y29660D01*
X45711Y29661D01*
X45710Y29661D01*
X45707Y29663D01*
X45704Y29666D01*
X45703Y29666D01*
X45702Y29666D01*
X45698Y29667D01*
X45695Y29668D01*
X45694Y29668D01*
X45693Y29669D01*
X45689Y29668D01*
X45685Y29668D01*
X45684Y29668D01*
X45683Y29668D01*
X45680Y29666D01*
X45676Y29665D01*
X45675Y29664D01*
X45674Y29664D01*
X45670Y29660D01*
X45649Y29639D01*
X45351Y29639D01*
X45139Y29851D01*
X45139Y30149D01*
X45351Y30361D01*
X45649Y30361D01*
X45861Y30149D01*
X45861Y29851D01*
X45840Y29830D01*
X45839Y29829D01*
X45839Y29828D01*
X45837Y29825D01*
X45834Y29822D01*
X45834Y29821D01*
X45834Y29820D01*
X45833Y29816D01*
X45832Y29813D01*
X45832Y29812D01*
X45831Y29811D01*
X45832Y29807D01*
X45832Y29803D01*
X45832Y29802D01*
X45832Y29801D01*
X45834Y29798D01*
X45835Y29794D01*
X45836Y29794D01*
X45836Y29793D01*
X45840Y29788D01*
X46029Y29599D01*
X46091Y29538D01*
X46091Y29172D01*
X46091Y29169D01*
X46091Y29166D01*
X46092Y29164D01*
X46092Y29162D01*
X46094Y29160D01*
X46095Y29157D01*
X46096Y29155D01*
X46097Y29154D01*
X46099Y29152D01*
X46101Y29149D01*
X46102Y29148D01*
X46104Y29147D01*
X46107Y29146D01*
X46109Y29144D01*
X46111Y29144D01*
X46113Y29143D01*
X46115Y29143D01*
X46118Y29142D01*
X46120Y29143D01*
X46122Y29142D01*
X46125Y29143D01*
X46128Y29143D01*
X46130Y29144D01*
X46131Y29145D01*
X46134Y29146D01*
X46137Y29147D01*
X46139Y29149D01*
X46139Y29150D01*
X46140Y29150D01*
X46141Y29151D01*
X46351Y29361D01*
X46649Y29361D01*
X46859Y29151D01*
X46862Y29149D01*
X46864Y29147D01*
X46866Y29146D01*
X46867Y29145D01*
X46870Y29144D01*
X46873Y29143D01*
X46874Y29143D01*
X46876Y29143D01*
X46879Y29143D01*
X46882Y29142D01*
X46884Y29143D01*
X46886Y29143D01*
X46889Y29144D01*
X46891Y29145D01*
X46893Y29146D01*
X46895Y29146D01*
X46897Y29148D01*
X46899Y29150D01*
X46901Y29151D01*
X46902Y29152D01*
X46904Y29155D01*
X46905Y29157D01*
X46906Y29159D01*
X46907Y29161D01*
X46908Y29163D01*
X46909Y29166D01*
X46909Y29169D01*
X46909Y29170D01*
X46909Y29172D01*
X46909Y29450D01*
X46909Y29454D01*
X46908Y29458D01*
X46908Y29459D01*
X46908Y29460D01*
X46906Y29463D01*
X46904Y29467D01*
X46903Y29468D01*
X46903Y29469D01*
X46901Y29471D01*
X46712Y29660D01*
X46711Y29661D01*
X46710Y29661D01*
X46707Y29663D01*
X46704Y29666D01*
X46703Y29666D01*
X46702Y29666D01*
X46698Y29667D01*
X46695Y29668D01*
X46694Y29668D01*
X46693Y29669D01*
X46689Y29668D01*
X46685Y29668D01*
X46684Y29668D01*
X46683Y29668D01*
X46680Y29666D01*
X46676Y29665D01*
X46675Y29664D01*
X46674Y29664D01*
X46670Y29660D01*
X46649Y29639D01*
X46351Y29639D01*
X46139Y29851D01*
X46139Y30149D01*
X46351Y30361D01*
X46649Y30361D01*
X46861Y30149D01*
X46861Y29851D01*
X46840Y29830D01*
X46839Y29829D01*
X46839Y29828D01*
X46837Y29825D01*
X46834Y29822D01*
X46834Y29821D01*
X46834Y29820D01*
X46833Y29816D01*
X46832Y29813D01*
X46832Y29812D01*
X46831Y29811D01*
X46832Y29807D01*
X46832Y29803D01*
X46832Y29802D01*
X46832Y29801D01*
X46834Y29798D01*
X46835Y29794D01*
X46836Y29794D01*
X46836Y29793D01*
X46840Y29788D01*
X47029Y29599D01*
X47091Y29538D01*
X47091Y27462D01*
X46840Y27212D01*
X46839Y27211D01*
X46839Y27210D01*
X46837Y27207D01*
X46834Y27204D01*
X46834Y27203D01*
X46834Y27202D01*
X46833Y27198D01*
X46832Y27195D01*
X46832Y27194D01*
X46831Y27193D01*
X46832Y27189D01*
X46832Y27185D01*
X46832Y27184D01*
X46832Y27183D01*
X46834Y27180D01*
X46835Y27176D01*
X46836Y27175D01*
X46836Y27174D01*
X46840Y27170D01*
X46861Y27149D01*
X46861Y26851D01*
X46649Y26639D01*
X46351Y26639D01*
X46141Y26849D01*
X46138Y26851D01*
X46136Y26853D01*
X46134Y26854D01*
X46133Y26855D01*
X46130Y26856D01*
X46127Y26857D01*
X46126Y26857D01*
X46124Y26857D01*
X46121Y26857D01*
X46118Y26858D01*
X46116Y26857D01*
X46114Y26857D01*
X46111Y26856D01*
X46109Y26855D01*
X46107Y26854D01*
X46105Y26854D01*
X46103Y26852D01*
X46101Y26850D01*
X46099Y26849D01*
X46098Y26848D01*
X46096Y26845D01*
X46095Y26843D01*
X46094Y26841D01*
X46093Y26839D01*
X46092Y26837D01*
X46091Y26834D01*
X46091Y26831D01*
X46091Y26830D01*
X46091Y26828D01*
X46091Y26550D01*
X46091Y26546D01*
X46092Y26542D01*
X46092Y26541D01*
X46092Y26540D01*
X46094Y26537D01*
X46096Y26533D01*
X46097Y26532D01*
X46097Y26531D01*
X46099Y26529D01*
X46288Y26340D01*
X46289Y26339D01*
X46290Y26339D01*
X46293Y26337D01*
X46296Y26334D01*
X46297Y26334D01*
X46298Y26334D01*
X46302Y26333D01*
X46305Y26332D01*
X46306Y26332D01*
X46307Y26331D01*
X46311Y26332D01*
X46315Y26332D01*
X46316Y26332D01*
X46317Y26332D01*
X46320Y26334D01*
X46324Y26335D01*
X46325Y26336D01*
X46326Y26336D01*
X46330Y26340D01*
X46351Y26361D01*
X46649Y26361D01*
X46861Y26149D01*
X46861Y25851D01*
X46649Y25639D01*
X46351Y25639D01*
X46139Y25851D01*
X46139Y26149D01*
X46160Y26170D01*
X46161Y26171D01*
X46161Y26172D01*
X46163Y26175D01*
X46166Y26178D01*
X46166Y26179D01*
X46166Y26180D01*
X46167Y26184D01*
X46168Y26187D01*
X46168Y26188D01*
X46169Y26189D01*
X46168Y26193D01*
X46168Y26197D01*
X46168Y26198D01*
X46168Y26199D01*
X46166Y26202D01*
X46165Y26206D01*
X46164Y26206D01*
X46164Y26207D01*
X46160Y26212D01*
X45971Y26401D01*
X45909Y26462D01*
X45909Y26828D01*
X45909Y26831D01*
X45909Y26834D01*
X45908Y26836D01*
X45908Y26838D01*
X45906Y26840D01*
X45905Y26843D01*
X45904Y26845D01*
X45903Y26846D01*
X45901Y26848D01*
X45899Y26851D01*
X45898Y26852D01*
X45896Y26853D01*
X45893Y26854D01*
X45891Y26856D01*
X45889Y26856D01*
X45887Y26857D01*
X45885Y26857D01*
X45882Y26858D01*
X45880Y26857D01*
X45878Y26858D01*
X45875Y26857D01*
X45872Y26857D01*
X45870Y26856D01*
X45869Y26855D01*
X45866Y26854D01*
X45863Y26853D01*
X45861Y26851D01*
X45861Y26850D01*
X45860Y26850D01*
X45859Y26849D01*
X45649Y26639D01*
X45351Y26639D01*
X45141Y26849D01*
X45138Y26851D01*
X45136Y26853D01*
X45134Y26854D01*
X45133Y26855D01*
X45130Y26856D01*
X45127Y26857D01*
X45126Y26857D01*
X45124Y26857D01*
X45121Y26857D01*
X45118Y26858D01*
X45116Y26857D01*
X45114Y26857D01*
X45111Y26856D01*
X45109Y26855D01*
X45107Y26854D01*
X45105Y26854D01*
X45103Y26852D01*
X45101Y26850D01*
X45099Y26849D01*
X45098Y26848D01*
X45096Y26845D01*
X45095Y26843D01*
X45094Y26841D01*
X45093Y26839D01*
X45092Y26837D01*
X45091Y26834D01*
X45091Y26831D01*
X45091Y26830D01*
X45091Y26828D01*
X45091Y26550D01*
X45091Y26546D01*
X45092Y26542D01*
X45092Y26541D01*
X45092Y26540D01*
X45094Y26537D01*
X45096Y26533D01*
X45097Y26532D01*
X45097Y26531D01*
X45099Y26529D01*
X45288Y26340D01*
X45289Y26339D01*
X45290Y26339D01*
X45293Y26337D01*
X45296Y26334D01*
X45297Y26334D01*
X45298Y26334D01*
X45302Y26333D01*
X45305Y26332D01*
X45306Y26332D01*
X45307Y26331D01*
X45311Y26332D01*
X45315Y26332D01*
X45316Y26332D01*
X45317Y26332D01*
X45320Y26334D01*
X45324Y26335D01*
X45325Y26336D01*
X45326Y26336D01*
X45330Y26340D01*
X45351Y26361D01*
X45649Y26361D01*
X45861Y26149D01*
X45861Y25851D01*
X45649Y25639D01*
X45351Y25639D01*
X45139Y25851D01*
X45139Y26149D01*
X45160Y26170D01*
X45161Y26171D01*
X45161Y26172D01*
X45163Y26175D01*
X45166Y26178D01*
X45166Y26179D01*
X45166Y26180D01*
X45167Y26184D01*
X45168Y26187D01*
X45168Y26188D01*
X45169Y26189D01*
X45168Y26193D01*
X45168Y26197D01*
X45168Y26198D01*
X45168Y26199D01*
X45166Y26202D01*
X45165Y26206D01*
X45164Y26206D01*
X45164Y26207D01*
X45160Y26212D01*
X44971Y26401D01*
X44909Y26462D01*
X44909Y26828D01*
X44909Y26831D01*
X44909Y26834D01*
X44908Y26836D01*
X44908Y26838D01*
X44906Y26840D01*
X44905Y26843D01*
X44904Y26845D01*
X44903Y26846D01*
X44901Y26848D01*
X44899Y26851D01*
X44898Y26852D01*
X44896Y26853D01*
X44893Y26854D01*
X44891Y26856D01*
X44889Y26856D01*
X44887Y26857D01*
X44885Y26857D01*
X44882Y26858D01*
X44880Y26857D01*
X44878Y26858D01*
X44875Y26857D01*
X44872Y26857D01*
X44870Y26856D01*
X44869Y26855D01*
X44866Y26854D01*
X44863Y26853D01*
X44861Y26851D01*
X44861Y26850D01*
X44860Y26850D01*
X44859Y26849D01*
X44649Y26639D01*
X44351Y26639D01*
X44141Y26849D01*
X44138Y26851D01*
X44136Y26853D01*
X44134Y26854D01*
X44133Y26855D01*
X44130Y26856D01*
X44127Y26857D01*
X44126Y26857D01*
X44124Y26857D01*
X44121Y26857D01*
X44118Y26858D01*
X44116Y26857D01*
X44114Y26857D01*
X44111Y26856D01*
X44109Y26855D01*
X44107Y26854D01*
X44105Y26854D01*
X44103Y26852D01*
X44101Y26850D01*
X44099Y26849D01*
X44098Y26848D01*
X44096Y26845D01*
X44095Y26843D01*
X44094Y26841D01*
X44093Y26839D01*
X44092Y26837D01*
X44091Y26834D01*
X44091Y26831D01*
X44091Y26830D01*
X44091Y26828D01*
X44091Y26550D01*
X44091Y26546D01*
X44092Y26542D01*
X44092Y26541D01*
X44092Y26540D01*
X44094Y26537D01*
X44096Y26533D01*
X44097Y26532D01*
X44097Y26531D01*
X44099Y26529D01*
X44288Y26340D01*
X44289Y26339D01*
X44290Y26339D01*
X44293Y26337D01*
X44296Y26334D01*
X44297Y26334D01*
X44298Y26334D01*
X44302Y26333D01*
X44305Y26332D01*
X44306Y26332D01*
X44307Y26331D01*
X44311Y26332D01*
X44315Y26332D01*
X44316Y26332D01*
X44317Y26332D01*
X44320Y26334D01*
X44324Y26335D01*
X44325Y26336D01*
X44326Y26336D01*
X44330Y26340D01*
X44351Y26361D01*
X44649Y26361D01*
X44861Y26149D01*
X44861Y25851D01*
X44649Y25639D01*
X44351Y25639D01*
X44139Y25851D01*
X44139Y26149D01*
X44160Y26170D01*
X44161Y26171D01*
X44161Y26172D01*
X44163Y26175D01*
X44166Y26178D01*
X44166Y26179D01*
X44166Y26180D01*
X44167Y26184D01*
X44168Y26187D01*
X44168Y26188D01*
X44169Y26189D01*
X44168Y26193D01*
X44168Y26197D01*
X44168Y26198D01*
X44168Y26199D01*
X44166Y26202D01*
X44165Y26206D01*
X44164Y26206D01*
X44164Y26207D01*
X44160Y26212D01*
X43971Y26401D01*
X43909Y26462D01*
X43909Y26828D01*
X43909Y26831D01*
X43909Y26834D01*
X43908Y26836D01*
X43908Y26838D01*
X43906Y26840D01*
X43905Y26843D01*
X43904Y26845D01*
X43903Y26846D01*
X43901Y26848D01*
X43899Y26851D01*
X43898Y26852D01*
X43896Y26853D01*
X43893Y26854D01*
X43891Y26856D01*
X43889Y26856D01*
X43887Y26857D01*
X43885Y26857D01*
X43882Y26858D01*
X43880Y26857D01*
X43878Y26858D01*
X43875Y26857D01*
X43872Y26857D01*
X43870Y26856D01*
X43869Y26855D01*
X43866Y26854D01*
X43863Y26853D01*
X43861Y26851D01*
X43861Y26850D01*
X43860Y26850D01*
X43859Y26849D01*
X43649Y26639D01*
X43351Y26639D01*
X43141Y26849D01*
X43138Y26851D01*
X43136Y26853D01*
X43134Y26854D01*
X43133Y26855D01*
X43130Y26856D01*
X43127Y26857D01*
X43126Y26857D01*
X43124Y26857D01*
X43121Y26857D01*
X43118Y26858D01*
X43116Y26857D01*
X43114Y26857D01*
X43111Y26856D01*
X43109Y26855D01*
X43107Y26854D01*
X43105Y26854D01*
X43103Y26852D01*
X43101Y26850D01*
X43099Y26849D01*
X43098Y26848D01*
X43096Y26845D01*
X43095Y26843D01*
X43094Y26841D01*
X43093Y26839D01*
X43092Y26837D01*
X43091Y26834D01*
X43091Y26831D01*
X43091Y26830D01*
X43091Y26828D01*
X43091Y26550D01*
X43091Y26546D01*
X43092Y26542D01*
X43092Y26541D01*
X43092Y26540D01*
X43094Y26537D01*
X43096Y26533D01*
X43097Y26532D01*
X43097Y26531D01*
X43099Y26529D01*
X43288Y26340D01*
X43289Y26339D01*
X43290Y26339D01*
X43293Y26337D01*
X43296Y26334D01*
X43297Y26334D01*
X43298Y26334D01*
X43302Y26333D01*
X43305Y26332D01*
X43306Y26332D01*
X43307Y26331D01*
X43311Y26332D01*
X43315Y26332D01*
X43316Y26332D01*
X43317Y26332D01*
X43320Y26334D01*
X43324Y26335D01*
X43325Y26336D01*
X43326Y26336D01*
X43330Y26340D01*
X43351Y26361D01*
X43649Y26361D01*
X43861Y26149D01*
X43861Y25851D01*
X43649Y25639D01*
X43351Y25639D01*
X43139Y25851D01*
X43139Y26149D01*
X43160Y26170D01*
X43161Y26171D01*
X43161Y26172D01*
X43163Y26175D01*
X43166Y26178D01*
X43166Y26179D01*
X43166Y26180D01*
X43167Y26184D01*
X43168Y26187D01*
X43168Y26188D01*
X43169Y26189D01*
X43168Y26193D01*
X43168Y26197D01*
X43168Y26198D01*
X43168Y26199D01*
X43166Y26202D01*
X43165Y26206D01*
X43164Y26206D01*
X43164Y26207D01*
X43160Y26212D01*
X42971Y26401D01*
X42909Y26462D01*
X42909Y26828D01*
X42909Y26831D01*
X42909Y26834D01*
X42908Y26836D01*
X42908Y26838D01*
X42906Y26840D01*
X42905Y26843D01*
X42904Y26845D01*
X42903Y26846D01*
X42901Y26848D01*
X42899Y26851D01*
X42898Y26852D01*
X42896Y26853D01*
X42893Y26854D01*
X42891Y26856D01*
X42889Y26856D01*
X42887Y26857D01*
X42885Y26857D01*
X42882Y26858D01*
X42880Y26857D01*
X42878Y26858D01*
X42875Y26857D01*
X42872Y26857D01*
X42870Y26856D01*
X42869Y26855D01*
X42866Y26854D01*
X42863Y26853D01*
X42861Y26851D01*
X42861Y26850D01*
X42860Y26850D01*
X42859Y26849D01*
X42649Y26639D01*
X42351Y26639D01*
X42141Y26849D01*
X42138Y26851D01*
X42136Y26853D01*
X42134Y26854D01*
X42133Y26855D01*
X42130Y26856D01*
X42127Y26857D01*
X42126Y26857D01*
X42124Y26857D01*
X42121Y26857D01*
X42118Y26858D01*
X42116Y26857D01*
X42114Y26857D01*
X42111Y26856D01*
X42109Y26855D01*
X42107Y26854D01*
X42105Y26854D01*
X42103Y26852D01*
X42101Y26850D01*
X42099Y26849D01*
X42098Y26848D01*
X42096Y26845D01*
X42095Y26843D01*
X42094Y26841D01*
X42093Y26839D01*
X42092Y26837D01*
X42091Y26834D01*
X42091Y26831D01*
X42091Y26830D01*
X42091Y26828D01*
X42091Y26550D01*
X42091Y26546D01*
X42092Y26542D01*
X42092Y26541D01*
X42092Y26540D01*
X42094Y26537D01*
X42096Y26533D01*
X42097Y26532D01*
X42097Y26531D01*
X42099Y26529D01*
X42288Y26340D01*
X42289Y26339D01*
X42290Y26339D01*
X42293Y26337D01*
X42296Y26334D01*
X42297Y26334D01*
X42298Y26334D01*
X42302Y26333D01*
X42305Y26332D01*
X42306Y26332D01*
X42307Y26331D01*
X42311Y26332D01*
X42315Y26332D01*
X42316Y26332D01*
X42317Y26332D01*
X42320Y26334D01*
X42324Y26335D01*
X42325Y26336D01*
X42326Y26336D01*
X42330Y26340D01*
X42351Y26361D01*
X42649Y26361D01*
X42861Y26149D01*
X42861Y25851D01*
X42649Y25639D01*
X42351Y25639D01*
X42139Y25851D01*
X42139Y26149D01*
X42160Y26170D01*
X42161Y26171D01*
X42161Y26172D01*
X42163Y26175D01*
X42166Y26178D01*
X42166Y26179D01*
X42166Y26180D01*
X42167Y26184D01*
X42168Y26187D01*
X42168Y26188D01*
X42169Y26189D01*
X42168Y26193D01*
X42168Y26197D01*
X42168Y26198D01*
X42168Y26199D01*
X42166Y26202D01*
X42165Y26206D01*
X42164Y26206D01*
X42164Y26207D01*
X42160Y26212D01*
X41971Y26401D01*
X41909Y26462D01*
X41909Y26828D01*
X41909Y26831D01*
X41909Y26834D01*
X41908Y26836D01*
X41908Y26838D01*
X41906Y26840D01*
X41905Y26843D01*
X41904Y26845D01*
X41903Y26846D01*
X41901Y26848D01*
X41899Y26851D01*
X41898Y26852D01*
X41896Y26853D01*
X41893Y26854D01*
X41891Y26856D01*
X41889Y26856D01*
X41887Y26857D01*
X41885Y26857D01*
X41882Y26858D01*
X41880Y26857D01*
X41878Y26858D01*
X41875Y26857D01*
X41872Y26857D01*
X41870Y26856D01*
X41869Y26855D01*
X41866Y26854D01*
X41863Y26853D01*
X41861Y26851D01*
X41861Y26850D01*
X41860Y26850D01*
X41859Y26849D01*
X41649Y26639D01*
X41351Y26639D01*
X41141Y26849D01*
X41138Y26851D01*
X41136Y26853D01*
X41134Y26854D01*
X41133Y26855D01*
X41130Y26856D01*
X41127Y26857D01*
X41126Y26857D01*
X41124Y26857D01*
X41121Y26857D01*
X41118Y26858D01*
X41116Y26857D01*
X41114Y26857D01*
X41111Y26856D01*
X41109Y26855D01*
X41107Y26854D01*
X41105Y26854D01*
X41103Y26852D01*
X41101Y26850D01*
X41099Y26849D01*
X41098Y26848D01*
X41096Y26845D01*
X41095Y26843D01*
X41094Y26841D01*
X41093Y26839D01*
X41092Y26837D01*
X41091Y26834D01*
X41091Y26831D01*
X41091Y26830D01*
X41091Y26828D01*
X41091Y26550D01*
X41091Y26546D01*
X41092Y26542D01*
X41092Y26541D01*
X41092Y26540D01*
X41094Y26537D01*
X41096Y26533D01*
X41097Y26532D01*
X41097Y26531D01*
X41099Y26529D01*
X41288Y26340D01*
X41289Y26339D01*
X41290Y26339D01*
X41293Y26337D01*
X41296Y26334D01*
X41297Y26334D01*
X41298Y26334D01*
X41302Y26333D01*
X41305Y26332D01*
X41306Y26332D01*
X41307Y26331D01*
X41311Y26332D01*
X41315Y26332D01*
X41316Y26332D01*
X41317Y26332D01*
X41320Y26334D01*
X41324Y26335D01*
X41325Y26336D01*
X41326Y26336D01*
X41330Y26340D01*
X41351Y26361D01*
X41649Y26361D01*
X41861Y26149D01*
X41861Y25851D01*
X41649Y25639D01*
X41351Y25639D01*
X41139Y25851D01*
X41139Y26149D01*
X41160Y26170D01*
X41161Y26171D01*
X41161Y26172D01*
X41163Y26175D01*
X41166Y26178D01*
X41166Y26179D01*
X41166Y26180D01*
X41167Y26184D01*
X41168Y26187D01*
X41168Y26188D01*
X41169Y26189D01*
X41168Y26193D01*
X41168Y26197D01*
X41168Y26198D01*
X41168Y26199D01*
X41166Y26202D01*
X41165Y26206D01*
X41164Y26206D01*
X41164Y26207D01*
X41160Y26212D01*
X40971Y26401D01*
X40909Y26462D01*
X40909Y26828D01*
X40909Y26831D01*
X40909Y26834D01*
X40908Y26836D01*
X40908Y26838D01*
X40906Y26840D01*
X40905Y26843D01*
X40904Y26845D01*
X40903Y26846D01*
X40901Y26848D01*
X40899Y26851D01*
X40898Y26852D01*
X40896Y26853D01*
X40893Y26854D01*
X40891Y26856D01*
X40889Y26856D01*
X40887Y26857D01*
X40885Y26857D01*
X40882Y26858D01*
X40880Y26857D01*
X40878Y26858D01*
X40875Y26857D01*
X40872Y26857D01*
X40870Y26856D01*
X40869Y26855D01*
X40866Y26854D01*
X40863Y26853D01*
X40861Y26851D01*
X40861Y26850D01*
X40860Y26850D01*
X40859Y26849D01*
X40649Y26639D01*
X40351Y26639D01*
X40141Y26849D01*
X40138Y26851D01*
X40136Y26853D01*
X40134Y26854D01*
X40133Y26855D01*
X40130Y26856D01*
X40127Y26857D01*
X40126Y26857D01*
X40124Y26857D01*
X40121Y26857D01*
X40118Y26858D01*
X40116Y26857D01*
X40114Y26857D01*
X40111Y26856D01*
X40109Y26855D01*
X40107Y26854D01*
X40105Y26854D01*
X40103Y26852D01*
X40101Y26850D01*
X40099Y26849D01*
X40098Y26848D01*
X40096Y26845D01*
X40095Y26843D01*
X40094Y26841D01*
X40093Y26839D01*
X40092Y26837D01*
X40091Y26834D01*
X40091Y26831D01*
X40091Y26830D01*
X40091Y26828D01*
X40091Y26550D01*
X40091Y26546D01*
X40092Y26542D01*
X40092Y26541D01*
X40092Y26540D01*
X40094Y26537D01*
X40096Y26533D01*
X40097Y26532D01*
X40097Y26531D01*
X40099Y26529D01*
X40288Y26340D01*
X40289Y26339D01*
X40290Y26339D01*
X40293Y26337D01*
X40296Y26334D01*
X40297Y26334D01*
X40298Y26334D01*
X40302Y26333D01*
X40305Y26332D01*
X40306Y26332D01*
X40307Y26331D01*
X40311Y26332D01*
X40315Y26332D01*
X40316Y26332D01*
X40317Y26332D01*
X40320Y26334D01*
X40324Y26335D01*
X40325Y26336D01*
X40326Y26336D01*
X40330Y26340D01*
X40351Y26361D01*
X40649Y26361D01*
X40861Y26149D01*
X40861Y25851D01*
X40649Y25639D01*
X40351Y25639D01*
X40139Y25851D01*
X40139Y26149D01*
X40160Y26170D01*
X40161Y26171D01*
X40161Y26172D01*
X40163Y26175D01*
X40166Y26178D01*
X40166Y26179D01*
X40166Y26180D01*
X40167Y26184D01*
X40168Y26187D01*
X40168Y26188D01*
X40169Y26189D01*
X40168Y26193D01*
X40168Y26197D01*
X40168Y26198D01*
X40168Y26199D01*
X40166Y26202D01*
X40165Y26206D01*
X40164Y26206D01*
X40164Y26207D01*
X40160Y26212D01*
X39971Y26401D01*
X39909Y26462D01*
X39909Y26828D01*
X39909Y26831D01*
X39909Y26834D01*
X39908Y26836D01*
X39908Y26838D01*
X39906Y26840D01*
X39905Y26843D01*
X39904Y26845D01*
X39903Y26846D01*
X39901Y26848D01*
X39899Y26851D01*
X39898Y26852D01*
X39896Y26853D01*
X39893Y26854D01*
X39891Y26856D01*
X39889Y26856D01*
X39887Y26857D01*
X39885Y26857D01*
X39882Y26858D01*
X39880Y26857D01*
X39878Y26858D01*
X39875Y26857D01*
X39872Y26857D01*
X39870Y26856D01*
X39869Y26855D01*
X39866Y26854D01*
X39863Y26853D01*
X39861Y26851D01*
X39861Y26850D01*
X39860Y26850D01*
X39859Y26849D01*
X39649Y26639D01*
X39351Y26639D01*
X39141Y26849D01*
X39138Y26851D01*
X39136Y26853D01*
X39134Y26854D01*
X39133Y26855D01*
X39130Y26856D01*
X39127Y26857D01*
X39126Y26857D01*
X39124Y26857D01*
X39121Y26857D01*
X39118Y26858D01*
X39116Y26857D01*
X39114Y26857D01*
X39111Y26856D01*
X39109Y26855D01*
X39107Y26854D01*
X39105Y26854D01*
X39103Y26852D01*
X39101Y26850D01*
X39099Y26849D01*
X39098Y26848D01*
X39096Y26845D01*
X39095Y26843D01*
X39094Y26841D01*
X39093Y26839D01*
X39092Y26837D01*
X39091Y26834D01*
X39091Y26831D01*
X39091Y26830D01*
X39091Y26828D01*
X39091Y26550D01*
X39091Y26546D01*
X39092Y26542D01*
X39092Y26541D01*
X39092Y26540D01*
X39094Y26537D01*
X39096Y26533D01*
X39097Y26532D01*
X39097Y26531D01*
X39099Y26529D01*
X39288Y26340D01*
X39289Y26339D01*
X39290Y26339D01*
X39293Y26337D01*
X39296Y26334D01*
X39297Y26334D01*
X39298Y26334D01*
X39302Y26333D01*
X39305Y26332D01*
X39306Y26332D01*
X39307Y26331D01*
X39311Y26332D01*
X39315Y26332D01*
X39316Y26332D01*
X39317Y26332D01*
X39320Y26334D01*
X39324Y26335D01*
X39325Y26336D01*
X39326Y26336D01*
X39330Y26340D01*
X39351Y26361D01*
X39649Y26361D01*
X39861Y26149D01*
X39861Y25851D01*
X39649Y25639D01*
X39620Y25639D01*
X39619Y25639D01*
X39618Y25639D01*
X39614Y25638D01*
X39611Y25638D01*
X39610Y25637D01*
X39609Y25637D01*
X39605Y25635D01*
X39602Y25633D01*
X39601Y25632D01*
X39598Y25629D01*
X39596Y25626D01*
X39595Y25625D01*
X39595Y25624D01*
X39593Y25621D01*
X39592Y25617D01*
X39592Y25616D01*
X39591Y25615D01*
X39591Y25610D01*
X39591Y24620D01*
X39591Y24619D01*
X39591Y24618D01*
X39592Y24614D01*
X39592Y24611D01*
X39593Y24610D01*
X39593Y24609D01*
X39595Y24605D01*
X39597Y24602D01*
X39598Y24601D01*
X39601Y24598D01*
X39604Y24596D01*
X39605Y24595D01*
X39606Y24595D01*
X39609Y24593D01*
X39613Y24592D01*
X39614Y24592D01*
X39615Y24591D01*
X39620Y24591D01*
X47950Y24591D01*
X47954Y24591D01*
X47958Y24592D01*
X47959Y24592D01*
X47960Y24592D01*
X47963Y24594D01*
X47967Y24596D01*
X47968Y24597D01*
X47969Y24597D01*
X47971Y24599D01*
X48671Y25299D01*
X48673Y25302D01*
X48675Y25305D01*
X48676Y25306D01*
X48676Y25307D01*
X48677Y25311D01*
X48679Y25314D01*
X48679Y25315D01*
X48679Y25316D01*
X48679Y25317D01*
X48679Y25320D01*
X48679Y25824D01*
X48728Y25942D01*
X48818Y26032D01*
X48936Y26081D01*
X49064Y26081D01*
X49182Y26032D01*
X49272Y25942D01*
X49321Y25824D01*
X49321Y25176D01*
X49272Y25058D01*
X49182Y24968D01*
X49064Y24919D01*
X48936Y24919D01*
X48818Y24968D01*
X48728Y25058D01*
X48727Y25059D01*
X48727Y25060D01*
X48723Y25062D01*
X48720Y25064D01*
X48719Y25064D01*
X48718Y25065D01*
X48715Y25066D01*
X48711Y25067D01*
X48710Y25067D01*
X48709Y25067D01*
X48705Y25066D01*
X48702Y25066D01*
X48701Y25066D01*
X48700Y25066D01*
X48696Y25064D01*
X48693Y25063D01*
X48692Y25062D01*
X48691Y25062D01*
X48687Y25058D01*
X48099Y24471D01*
X48038Y24409D01*
X39620Y24409D01*
X39619Y24409D01*
X39618Y24409D01*
X39614Y24408D01*
X39611Y24408D01*
X39610Y24407D01*
X39609Y24407D01*
X39605Y24405D01*
X39602Y24403D01*
X39601Y24402D01*
X39598Y24399D01*
X39596Y24396D01*
X39595Y24395D01*
X39595Y24394D01*
X39593Y24391D01*
X39592Y24387D01*
X39592Y24386D01*
X39591Y24385D01*
X39591Y24380D01*
X39591Y22462D01*
X39099Y21971D01*
X39097Y21968D01*
X39095Y21965D01*
X39094Y21964D01*
X39094Y21963D01*
X39093Y21959D01*
X39091Y21956D01*
X39091Y21955D01*
X39091Y21954D01*
X39091Y21953D01*
X39091Y21950D01*
X39091Y18620D01*
X39091Y18619D01*
X39091Y18618D01*
X39092Y18614D01*
X39092Y18611D01*
X39093Y18610D01*
X39093Y18609D01*
X39095Y18605D01*
X39097Y18602D01*
X39098Y18601D01*
X39101Y18598D01*
X39104Y18596D01*
X39105Y18595D01*
X39106Y18595D01*
X39109Y18593D01*
X39113Y18592D01*
X39114Y18592D01*
X39115Y18591D01*
X39120Y18591D01*
X39150Y18591D01*
X39151Y18591D01*
X39152Y18591D01*
X39156Y18592D01*
X39159Y18592D01*
X39160Y18593D01*
X39161Y18593D01*
X39165Y18595D01*
X39168Y18597D01*
X39169Y18598D01*
X39172Y18601D01*
X39174Y18604D01*
X39175Y18605D01*
X39175Y18606D01*
X39177Y18609D01*
X39178Y18613D01*
X39178Y18614D01*
X39179Y18615D01*
X39179Y18620D01*
X39179Y18824D01*
X39228Y18942D01*
X39318Y19032D01*
X39436Y19081D01*
X39564Y19081D01*
X39682Y19032D01*
X39772Y18942D01*
X39821Y18824D01*
X39821Y18176D01*
X39772Y18058D01*
X39682Y17968D01*
X39564Y17919D01*
X39436Y17919D01*
X39318Y17968D01*
X39228Y18058D01*
X39179Y18176D01*
X39179Y18380D01*
X39179Y18381D01*
X39179Y18382D01*
X39178Y18386D01*
X39178Y18389D01*
X39177Y18390D01*
X39177Y18391D01*
X39175Y18395D01*
X39173Y18398D01*
X39172Y18399D01*
X39169Y18402D01*
X39166Y18404D01*
X39165Y18405D01*
X39164Y18405D01*
X39161Y18407D01*
X39157Y18408D01*
X39156Y18408D01*
X39155Y18409D01*
X39150Y18409D01*
X39120Y18409D01*
X39119Y18409D01*
X39118Y18409D01*
X39114Y18408D01*
X39111Y18408D01*
X39110Y18407D01*
X39109Y18407D01*
X39105Y18405D01*
X39102Y18403D01*
X39101Y18402D01*
X39098Y18399D01*
X39096Y18396D01*
X39095Y18395D01*
X39095Y18394D01*
X39093Y18391D01*
X39092Y18387D01*
X39092Y18386D01*
X39091Y18385D01*
X39091Y18380D01*
X39091Y13050D01*
X39091Y13046D01*
X39092Y13042D01*
X39092Y13041D01*
X39092Y13040D01*
X39094Y13037D01*
X39096Y13033D01*
X39097Y13032D01*
X39097Y13031D01*
X39099Y13029D01*
X39187Y12942D01*
X39188Y12941D01*
X39188Y12940D01*
X39191Y12938D01*
X39194Y12936D01*
X39195Y12936D01*
X39196Y12935D01*
X39200Y12934D01*
X39204Y12933D01*
X39205Y12933D01*
X39206Y12933D01*
X39209Y12934D01*
X39213Y12934D01*
X39214Y12934D01*
X39215Y12934D01*
X39219Y12936D01*
X39222Y12937D01*
X39223Y12938D01*
X39224Y12938D01*
X39228Y12942D01*
X39318Y13032D01*
X39436Y13081D01*
X39564Y13081D01*
X39682Y13032D01*
X39772Y12942D01*
X39821Y12824D01*
X39821Y12176D01*
X39772Y12058D01*
X39682Y11968D01*
X39564Y11919D01*
X39436Y11919D01*
G37*
%LPD*%
%LPC*%
G36*
X40436Y11919D02*
X40436Y11919D01*
X40318Y11968D01*
X40228Y12058D01*
X40179Y12176D01*
X40179Y12680D01*
X40179Y12684D01*
X40178Y12688D01*
X40178Y12689D01*
X40178Y12690D01*
X40176Y12693D01*
X40174Y12697D01*
X40173Y12698D01*
X40173Y12699D01*
X40171Y12701D01*
X39909Y12962D01*
X39909Y18038D01*
X40171Y18299D01*
X40173Y18302D01*
X40175Y18305D01*
X40176Y18306D01*
X40176Y18307D01*
X40177Y18311D01*
X40179Y18314D01*
X40179Y18315D01*
X40179Y18316D01*
X40179Y18317D01*
X40179Y18320D01*
X40179Y18824D01*
X40228Y18942D01*
X40318Y19032D01*
X40436Y19081D01*
X40564Y19081D01*
X40682Y19032D01*
X40772Y18942D01*
X40773Y18941D01*
X40773Y18940D01*
X40777Y18938D01*
X40780Y18936D01*
X40781Y18936D01*
X40782Y18935D01*
X40785Y18934D01*
X40789Y18933D01*
X40790Y18933D01*
X40791Y18933D01*
X40795Y18934D01*
X40798Y18934D01*
X40799Y18934D01*
X40800Y18934D01*
X40804Y18936D01*
X40807Y18937D01*
X40808Y18938D01*
X40809Y18938D01*
X40813Y18942D01*
X42901Y21029D01*
X42903Y21032D01*
X42905Y21035D01*
X42906Y21036D01*
X42906Y21037D01*
X42907Y21041D01*
X42909Y21044D01*
X42909Y21045D01*
X42909Y21046D01*
X42909Y21047D01*
X42909Y21050D01*
X42909Y22038D01*
X44962Y24091D01*
X48450Y24091D01*
X48454Y24091D01*
X48458Y24092D01*
X48459Y24092D01*
X48460Y24092D01*
X48463Y24094D01*
X48467Y24096D01*
X48468Y24097D01*
X48469Y24097D01*
X48471Y24099D01*
X49671Y25299D01*
X49673Y25302D01*
X49675Y25305D01*
X49676Y25306D01*
X49676Y25307D01*
X49677Y25311D01*
X49679Y25314D01*
X49679Y25315D01*
X49679Y25316D01*
X49679Y25317D01*
X49679Y25320D01*
X49679Y25824D01*
X49728Y25942D01*
X49818Y26032D01*
X49936Y26081D01*
X50064Y26081D01*
X50182Y26032D01*
X50272Y25942D01*
X50321Y25824D01*
X50321Y25176D01*
X50272Y25058D01*
X50182Y24968D01*
X50064Y24919D01*
X49936Y24919D01*
X49818Y24968D01*
X49728Y25058D01*
X49727Y25059D01*
X49727Y25060D01*
X49723Y25062D01*
X49720Y25064D01*
X49719Y25064D01*
X49718Y25065D01*
X49715Y25066D01*
X49711Y25067D01*
X49710Y25067D01*
X49709Y25067D01*
X49705Y25066D01*
X49702Y25066D01*
X49701Y25066D01*
X49700Y25066D01*
X49696Y25064D01*
X49693Y25063D01*
X49692Y25062D01*
X49691Y25062D01*
X49687Y25058D01*
X48564Y23935D01*
X48562Y23933D01*
X48560Y23931D01*
X48559Y23929D01*
X48558Y23928D01*
X48557Y23925D01*
X48556Y23922D01*
X48556Y23920D01*
X48555Y23919D01*
X48556Y23916D01*
X48555Y23913D01*
X48556Y23911D01*
X48556Y23909D01*
X48557Y23906D01*
X48558Y23903D01*
X48559Y23902D01*
X48559Y23900D01*
X48561Y23898D01*
X48563Y23895D01*
X48564Y23894D01*
X48565Y23893D01*
X48568Y23891D01*
X48570Y23889D01*
X48572Y23889D01*
X48574Y23888D01*
X48576Y23887D01*
X48579Y23886D01*
X48582Y23886D01*
X48583Y23886D01*
X48585Y23886D01*
X48660Y23886D01*
X48886Y23660D01*
X48886Y23340D01*
X48686Y23141D01*
X48684Y23138D01*
X48682Y23136D01*
X48681Y23134D01*
X48680Y23133D01*
X48680Y23130D01*
X48678Y23127D01*
X48678Y23126D01*
X48678Y23124D01*
X48678Y23121D01*
X48677Y23118D01*
X48678Y23116D01*
X48678Y23114D01*
X48679Y23111D01*
X48680Y23109D01*
X48681Y23107D01*
X48681Y23105D01*
X48683Y23103D01*
X48685Y23101D01*
X48686Y23099D01*
X48687Y23098D01*
X48690Y23096D01*
X48692Y23095D01*
X48694Y23094D01*
X48696Y23093D01*
X48698Y23092D01*
X48701Y23091D01*
X48704Y23091D01*
X48705Y23091D01*
X48707Y23091D01*
X48950Y23091D01*
X48954Y23091D01*
X48958Y23092D01*
X48959Y23092D01*
X48960Y23092D01*
X48963Y23094D01*
X48967Y23096D01*
X48968Y23097D01*
X48969Y23097D01*
X48971Y23099D01*
X50808Y24937D01*
X50809Y24938D01*
X50810Y24938D01*
X50812Y24941D01*
X50814Y24944D01*
X50814Y24945D01*
X50815Y24946D01*
X50816Y24950D01*
X50817Y24954D01*
X50817Y24955D01*
X50817Y24956D01*
X50817Y24959D01*
X50817Y24960D01*
X50816Y24960D01*
X50816Y24963D01*
X50816Y24964D01*
X50816Y24965D01*
X50815Y24968D01*
X50814Y24969D01*
X50814Y24970D01*
X50813Y24972D01*
X50812Y24973D01*
X50812Y24974D01*
X50809Y24977D01*
X50808Y24978D01*
X50728Y25058D01*
X50679Y25176D01*
X50679Y25824D01*
X50728Y25942D01*
X50818Y26032D01*
X50936Y26081D01*
X51064Y26081D01*
X51182Y26032D01*
X51272Y25942D01*
X51321Y25824D01*
X51321Y25176D01*
X51272Y25058D01*
X51182Y24968D01*
X51064Y24919D01*
X51060Y24919D01*
X51056Y24919D01*
X51052Y24918D01*
X51051Y24918D01*
X51050Y24918D01*
X51047Y24916D01*
X51043Y24914D01*
X51042Y24913D01*
X51041Y24913D01*
X51039Y24911D01*
X49038Y22909D01*
X45050Y22909D01*
X45046Y22909D01*
X45042Y22908D01*
X45041Y22908D01*
X45040Y22908D01*
X45037Y22906D01*
X45033Y22904D01*
X45032Y22903D01*
X45031Y22903D01*
X45029Y22901D01*
X44099Y21971D01*
X44097Y21968D01*
X44095Y21965D01*
X44094Y21964D01*
X44094Y21963D01*
X44093Y21959D01*
X44091Y21956D01*
X44091Y21955D01*
X44091Y21954D01*
X44091Y21953D01*
X44091Y21950D01*
X44091Y20962D01*
X44029Y20901D01*
X41829Y18701D01*
X41827Y18698D01*
X41825Y18695D01*
X41824Y18694D01*
X41824Y18693D01*
X41823Y18689D01*
X41821Y18686D01*
X41821Y18685D01*
X41821Y18684D01*
X41821Y18683D01*
X41821Y18680D01*
X41821Y18176D01*
X41772Y18058D01*
X41682Y17968D01*
X41564Y17919D01*
X41436Y17919D01*
X41318Y17968D01*
X41228Y18058D01*
X41227Y18059D01*
X41227Y18060D01*
X41223Y18062D01*
X41220Y18064D01*
X41219Y18064D01*
X41218Y18065D01*
X41215Y18066D01*
X41211Y18067D01*
X41210Y18067D01*
X41209Y18067D01*
X41205Y18066D01*
X41202Y18066D01*
X41201Y18066D01*
X41200Y18066D01*
X41196Y18064D01*
X41193Y18063D01*
X41192Y18062D01*
X41191Y18062D01*
X41187Y18058D01*
X41099Y17971D01*
X41097Y17968D01*
X41095Y17965D01*
X41094Y17964D01*
X41094Y17963D01*
X41093Y17959D01*
X41091Y17956D01*
X41091Y17955D01*
X41091Y17954D01*
X41091Y17953D01*
X41091Y17950D01*
X41091Y13050D01*
X41091Y13046D01*
X41092Y13042D01*
X41092Y13041D01*
X41092Y13040D01*
X41094Y13037D01*
X41096Y13033D01*
X41097Y13032D01*
X41097Y13031D01*
X41099Y13029D01*
X41187Y12942D01*
X41188Y12941D01*
X41188Y12940D01*
X41191Y12938D01*
X41194Y12936D01*
X41195Y12936D01*
X41196Y12935D01*
X41200Y12934D01*
X41204Y12933D01*
X41205Y12933D01*
X41206Y12933D01*
X41209Y12934D01*
X41213Y12934D01*
X41214Y12934D01*
X41215Y12934D01*
X41219Y12936D01*
X41222Y12937D01*
X41223Y12938D01*
X41224Y12938D01*
X41228Y12942D01*
X41318Y13032D01*
X41436Y13081D01*
X41564Y13081D01*
X41682Y13032D01*
X41772Y12942D01*
X41821Y12824D01*
X41821Y12176D01*
X41772Y12058D01*
X41682Y11968D01*
X41564Y11919D01*
X41436Y11919D01*
X41318Y11968D01*
X41228Y12058D01*
X41179Y12176D01*
X41179Y12680D01*
X41179Y12684D01*
X41178Y12688D01*
X41178Y12689D01*
X41178Y12690D01*
X41176Y12693D01*
X41174Y12697D01*
X41173Y12698D01*
X41173Y12699D01*
X41171Y12701D01*
X40909Y12962D01*
X40909Y18038D01*
X40971Y18099D01*
X41171Y18299D01*
X41173Y18302D01*
X41175Y18305D01*
X41176Y18306D01*
X41176Y18307D01*
X41177Y18311D01*
X41179Y18314D01*
X41179Y18315D01*
X41179Y18316D01*
X41179Y18317D01*
X41179Y18320D01*
X41179Y18824D01*
X41228Y18942D01*
X41318Y19032D01*
X41436Y19081D01*
X41564Y19081D01*
X41682Y19032D01*
X41772Y18942D01*
X41773Y18941D01*
X41773Y18940D01*
X41777Y18938D01*
X41780Y18936D01*
X41781Y18936D01*
X41782Y18935D01*
X41785Y18934D01*
X41789Y18933D01*
X41790Y18933D01*
X41791Y18933D01*
X41795Y18934D01*
X41798Y18934D01*
X41799Y18934D01*
X41800Y18934D01*
X41804Y18936D01*
X41807Y18937D01*
X41808Y18938D01*
X41809Y18938D01*
X41813Y18942D01*
X43901Y21029D01*
X43903Y21032D01*
X43905Y21035D01*
X43906Y21036D01*
X43906Y21037D01*
X43907Y21041D01*
X43909Y21044D01*
X43909Y21045D01*
X43909Y21046D01*
X43909Y21047D01*
X43909Y21050D01*
X43909Y22038D01*
X44962Y23091D01*
X48293Y23091D01*
X48296Y23091D01*
X48299Y23091D01*
X48301Y23092D01*
X48303Y23092D01*
X48305Y23094D01*
X48308Y23095D01*
X48310Y23096D01*
X48311Y23097D01*
X48313Y23099D01*
X48315Y23101D01*
X48316Y23102D01*
X48318Y23104D01*
X48319Y23107D01*
X48320Y23109D01*
X48321Y23111D01*
X48322Y23113D01*
X48322Y23115D01*
X48323Y23118D01*
X48322Y23120D01*
X48323Y23122D01*
X48322Y23125D01*
X48322Y23128D01*
X48321Y23130D01*
X48320Y23131D01*
X48319Y23134D01*
X48318Y23137D01*
X48316Y23139D01*
X48315Y23139D01*
X48315Y23140D01*
X48314Y23141D01*
X48114Y23340D01*
X48114Y23660D01*
X48314Y23859D01*
X48316Y23862D01*
X48318Y23864D01*
X48319Y23866D01*
X48320Y23867D01*
X48320Y23870D01*
X48322Y23873D01*
X48322Y23874D01*
X48322Y23876D01*
X48322Y23879D01*
X48323Y23882D01*
X48322Y23884D01*
X48322Y23886D01*
X48321Y23889D01*
X48320Y23891D01*
X48319Y23893D01*
X48319Y23895D01*
X48317Y23897D01*
X48315Y23899D01*
X48314Y23901D01*
X48313Y23902D01*
X48310Y23904D01*
X48308Y23905D01*
X48306Y23906D01*
X48304Y23907D01*
X48302Y23908D01*
X48299Y23909D01*
X48296Y23909D01*
X48295Y23909D01*
X48293Y23909D01*
X45050Y23909D01*
X45046Y23909D01*
X45042Y23908D01*
X45041Y23908D01*
X45040Y23908D01*
X45037Y23906D01*
X45033Y23904D01*
X45032Y23903D01*
X45031Y23903D01*
X45029Y23901D01*
X43099Y21971D01*
X43097Y21968D01*
X43095Y21965D01*
X43094Y21964D01*
X43094Y21963D01*
X43093Y21959D01*
X43091Y21956D01*
X43091Y21955D01*
X43091Y21954D01*
X43091Y21953D01*
X43091Y21950D01*
X43091Y20962D01*
X40829Y18701D01*
X40827Y18698D01*
X40825Y18695D01*
X40824Y18694D01*
X40824Y18693D01*
X40823Y18689D01*
X40821Y18686D01*
X40821Y18685D01*
X40821Y18684D01*
X40821Y18683D01*
X40821Y18680D01*
X40821Y18176D01*
X40772Y18058D01*
X40682Y17968D01*
X40564Y17919D01*
X40436Y17919D01*
X40318Y17968D01*
X40228Y18058D01*
X40227Y18059D01*
X40227Y18060D01*
X40223Y18062D01*
X40220Y18064D01*
X40219Y18064D01*
X40218Y18065D01*
X40215Y18066D01*
X40211Y18067D01*
X40210Y18067D01*
X40209Y18067D01*
X40205Y18066D01*
X40202Y18066D01*
X40201Y18066D01*
X40200Y18066D01*
X40196Y18064D01*
X40193Y18063D01*
X40192Y18062D01*
X40191Y18062D01*
X40187Y18058D01*
X40099Y17971D01*
X40097Y17968D01*
X40095Y17965D01*
X40094Y17964D01*
X40094Y17963D01*
X40093Y17959D01*
X40091Y17956D01*
X40091Y17955D01*
X40091Y17954D01*
X40091Y17953D01*
X40091Y17950D01*
X40091Y13050D01*
X40091Y13046D01*
X40092Y13042D01*
X40092Y13041D01*
X40092Y13040D01*
X40094Y13037D01*
X40096Y13033D01*
X40097Y13032D01*
X40097Y13031D01*
X40099Y13029D01*
X40187Y12942D01*
X40188Y12941D01*
X40188Y12940D01*
X40191Y12938D01*
X40194Y12936D01*
X40195Y12936D01*
X40196Y12935D01*
X40200Y12934D01*
X40204Y12933D01*
X40205Y12933D01*
X40206Y12933D01*
X40209Y12934D01*
X40213Y12934D01*
X40214Y12934D01*
X40215Y12934D01*
X40219Y12936D01*
X40222Y12937D01*
X40223Y12938D01*
X40224Y12938D01*
X40228Y12942D01*
X40318Y13032D01*
X40436Y13081D01*
X40564Y13081D01*
X40682Y13032D01*
X40772Y12942D01*
X40821Y12824D01*
X40821Y12176D01*
X40772Y12058D01*
X40682Y11968D01*
X40564Y11919D01*
X40436Y11919D01*
G37*
%LPD*%
%LPC*%
G36*
X53340Y4614D02*
X53340Y4614D01*
X53114Y4840D01*
X53114Y4880D01*
X53114Y4881D01*
X53114Y4882D01*
X53113Y4886D01*
X53113Y4889D01*
X53112Y4890D01*
X53112Y4891D01*
X53110Y4895D01*
X53108Y4898D01*
X53108Y4899D01*
X53107Y4899D01*
X53104Y4902D01*
X53101Y4904D01*
X53100Y4905D01*
X53096Y4907D01*
X53093Y4908D01*
X53092Y4908D01*
X53091Y4909D01*
X53085Y4909D01*
X50462Y4909D01*
X50409Y4962D01*
X50409Y5911D01*
X50408Y5916D01*
X50408Y5920D01*
X50408Y5921D01*
X50405Y5925D01*
X50403Y5929D01*
X50400Y5932D01*
X50396Y5935D01*
X50391Y5938D01*
X50318Y5968D01*
X50228Y6058D01*
X50179Y6176D01*
X50179Y6824D01*
X50228Y6942D01*
X50318Y7032D01*
X50436Y7081D01*
X50564Y7081D01*
X50682Y7032D01*
X50772Y6942D01*
X50821Y6824D01*
X50821Y6176D01*
X50772Y6058D01*
X50682Y5968D01*
X50609Y5938D01*
X50605Y5935D01*
X50601Y5933D01*
X50598Y5929D01*
X50595Y5925D01*
X50593Y5921D01*
X50591Y5916D01*
X50591Y5911D01*
X50591Y5120D01*
X50591Y5119D01*
X50591Y5118D01*
X50592Y5114D01*
X50592Y5111D01*
X50593Y5110D01*
X50593Y5109D01*
X50595Y5105D01*
X50597Y5102D01*
X50598Y5101D01*
X50601Y5098D01*
X50604Y5096D01*
X50605Y5095D01*
X50606Y5095D01*
X50609Y5093D01*
X50613Y5092D01*
X50614Y5092D01*
X50615Y5091D01*
X50620Y5091D01*
X51380Y5091D01*
X51381Y5091D01*
X51382Y5091D01*
X51386Y5092D01*
X51389Y5092D01*
X51390Y5093D01*
X51391Y5093D01*
X51395Y5095D01*
X51398Y5097D01*
X51399Y5098D01*
X51402Y5101D01*
X51404Y5104D01*
X51405Y5105D01*
X51405Y5106D01*
X51407Y5109D01*
X51408Y5113D01*
X51408Y5114D01*
X51409Y5115D01*
X51409Y5120D01*
X51409Y5911D01*
X51408Y5916D01*
X51408Y5920D01*
X51408Y5921D01*
X51405Y5925D01*
X51403Y5929D01*
X51400Y5932D01*
X51396Y5935D01*
X51391Y5938D01*
X51318Y5968D01*
X51228Y6058D01*
X51179Y6176D01*
X51179Y6824D01*
X51228Y6942D01*
X51318Y7032D01*
X51436Y7081D01*
X51564Y7081D01*
X51682Y7032D01*
X51772Y6942D01*
X51821Y6824D01*
X51821Y6176D01*
X51772Y6058D01*
X51682Y5968D01*
X51609Y5938D01*
X51605Y5935D01*
X51601Y5933D01*
X51598Y5929D01*
X51595Y5925D01*
X51593Y5921D01*
X51591Y5916D01*
X51591Y5911D01*
X51591Y5120D01*
X51591Y5119D01*
X51591Y5118D01*
X51592Y5114D01*
X51592Y5111D01*
X51593Y5110D01*
X51593Y5109D01*
X51595Y5105D01*
X51597Y5102D01*
X51598Y5101D01*
X51601Y5098D01*
X51604Y5096D01*
X51605Y5095D01*
X51606Y5095D01*
X51609Y5093D01*
X51613Y5092D01*
X51614Y5092D01*
X51615Y5091D01*
X51620Y5091D01*
X52380Y5091D01*
X52381Y5091D01*
X52382Y5091D01*
X52386Y5092D01*
X52389Y5092D01*
X52390Y5093D01*
X52391Y5093D01*
X52395Y5095D01*
X52398Y5097D01*
X52399Y5098D01*
X52402Y5101D01*
X52404Y5104D01*
X52405Y5105D01*
X52405Y5106D01*
X52407Y5109D01*
X52408Y5113D01*
X52408Y5114D01*
X52409Y5115D01*
X52409Y5120D01*
X52409Y5911D01*
X52408Y5916D01*
X52408Y5920D01*
X52408Y5921D01*
X52405Y5925D01*
X52403Y5929D01*
X52400Y5932D01*
X52396Y5935D01*
X52391Y5938D01*
X52318Y5968D01*
X52228Y6058D01*
X52179Y6176D01*
X52179Y6824D01*
X52228Y6942D01*
X52318Y7032D01*
X52436Y7081D01*
X52564Y7081D01*
X52682Y7032D01*
X52772Y6942D01*
X52821Y6824D01*
X52821Y6176D01*
X52772Y6058D01*
X52682Y5968D01*
X52609Y5938D01*
X52605Y5935D01*
X52601Y5933D01*
X52598Y5929D01*
X52595Y5925D01*
X52593Y5921D01*
X52591Y5916D01*
X52591Y5911D01*
X52591Y5120D01*
X52591Y5119D01*
X52591Y5118D01*
X52592Y5114D01*
X52592Y5111D01*
X52593Y5110D01*
X52593Y5109D01*
X52595Y5105D01*
X52597Y5102D01*
X52598Y5101D01*
X52601Y5098D01*
X52604Y5096D01*
X52605Y5095D01*
X52606Y5095D01*
X52609Y5093D01*
X52613Y5092D01*
X52614Y5092D01*
X52615Y5091D01*
X52620Y5091D01*
X53085Y5091D01*
X53086Y5091D01*
X53087Y5091D01*
X53091Y5092D01*
X53095Y5092D01*
X53096Y5093D01*
X53097Y5093D01*
X53100Y5095D01*
X53103Y5097D01*
X53104Y5098D01*
X53105Y5098D01*
X53107Y5101D01*
X53110Y5104D01*
X53110Y5105D01*
X53111Y5106D01*
X53112Y5109D01*
X53113Y5113D01*
X53114Y5114D01*
X53114Y5115D01*
X53114Y5120D01*
X53114Y5160D01*
X53340Y5386D01*
X53380Y5386D01*
X53381Y5386D01*
X53382Y5386D01*
X53386Y5387D01*
X53389Y5387D01*
X53390Y5388D01*
X53391Y5388D01*
X53395Y5390D01*
X53398Y5392D01*
X53399Y5392D01*
X53399Y5393D01*
X53402Y5396D01*
X53404Y5399D01*
X53405Y5400D01*
X53407Y5404D01*
X53408Y5407D01*
X53408Y5408D01*
X53409Y5409D01*
X53409Y5415D01*
X53409Y5911D01*
X53408Y5916D01*
X53408Y5920D01*
X53408Y5921D01*
X53405Y5925D01*
X53403Y5929D01*
X53400Y5932D01*
X53396Y5935D01*
X53391Y5938D01*
X53318Y5968D01*
X53228Y6058D01*
X53179Y6176D01*
X53179Y6824D01*
X53228Y6942D01*
X53318Y7032D01*
X53436Y7081D01*
X53564Y7081D01*
X53682Y7032D01*
X53772Y6942D01*
X53821Y6824D01*
X53821Y6176D01*
X53772Y6058D01*
X53682Y5968D01*
X53609Y5938D01*
X53605Y5935D01*
X53601Y5933D01*
X53598Y5929D01*
X53595Y5925D01*
X53593Y5921D01*
X53591Y5916D01*
X53591Y5911D01*
X53591Y5415D01*
X53591Y5414D01*
X53591Y5413D01*
X53592Y5409D01*
X53592Y5405D01*
X53593Y5404D01*
X53593Y5403D01*
X53595Y5400D01*
X53597Y5397D01*
X53598Y5396D01*
X53598Y5395D01*
X53601Y5393D01*
X53604Y5390D01*
X53605Y5390D01*
X53606Y5389D01*
X53609Y5388D01*
X53613Y5387D01*
X53614Y5386D01*
X53615Y5386D01*
X53620Y5386D01*
X53660Y5386D01*
X53886Y5160D01*
X53886Y4840D01*
X53660Y4614D01*
X53340Y4614D01*
G37*
%LPD*%
%LPC*%
G36*
X45436Y5919D02*
X45436Y5919D01*
X45318Y5968D01*
X45228Y6058D01*
X45179Y6176D01*
X45179Y6824D01*
X45228Y6942D01*
X45318Y7032D01*
X45436Y7081D01*
X45564Y7081D01*
X45682Y7032D01*
X45772Y6942D01*
X45773Y6941D01*
X45773Y6940D01*
X45777Y6938D01*
X45780Y6936D01*
X45781Y6936D01*
X45782Y6935D01*
X45785Y6934D01*
X45789Y6933D01*
X45790Y6933D01*
X45791Y6933D01*
X45795Y6934D01*
X45798Y6934D01*
X45799Y6934D01*
X45800Y6934D01*
X45804Y6936D01*
X45807Y6937D01*
X45808Y6938D01*
X45809Y6938D01*
X45813Y6942D01*
X46462Y7591D01*
X55450Y7591D01*
X55454Y7591D01*
X55458Y7592D01*
X55459Y7592D01*
X55460Y7592D01*
X55463Y7594D01*
X55467Y7596D01*
X55468Y7597D01*
X55469Y7597D01*
X55471Y7599D01*
X57171Y9299D01*
X57173Y9302D01*
X57175Y9305D01*
X57176Y9306D01*
X57176Y9307D01*
X57177Y9311D01*
X57179Y9314D01*
X57179Y9315D01*
X57179Y9316D01*
X57179Y9317D01*
X57179Y9320D01*
X57179Y9824D01*
X57228Y9942D01*
X57318Y10032D01*
X57436Y10081D01*
X57564Y10081D01*
X57682Y10032D01*
X57772Y9942D01*
X57821Y9824D01*
X57821Y9176D01*
X57772Y9058D01*
X57682Y8968D01*
X57564Y8919D01*
X57436Y8919D01*
X57318Y8968D01*
X57228Y9058D01*
X57227Y9059D01*
X57227Y9060D01*
X57223Y9062D01*
X57220Y9064D01*
X57219Y9064D01*
X57218Y9065D01*
X57215Y9066D01*
X57211Y9067D01*
X57210Y9067D01*
X57209Y9067D01*
X57205Y9066D01*
X57202Y9066D01*
X57201Y9066D01*
X57200Y9066D01*
X57196Y9064D01*
X57193Y9063D01*
X57192Y9062D01*
X57191Y9062D01*
X57187Y9058D01*
X55538Y7409D01*
X46550Y7409D01*
X46546Y7409D01*
X46542Y7408D01*
X46541Y7408D01*
X46540Y7408D01*
X46537Y7406D01*
X46533Y7404D01*
X46532Y7403D01*
X46531Y7403D01*
X46529Y7401D01*
X45829Y6701D01*
X45827Y6698D01*
X45825Y6695D01*
X45824Y6694D01*
X45824Y6693D01*
X45823Y6689D01*
X45821Y6686D01*
X45821Y6685D01*
X45821Y6684D01*
X45821Y6683D01*
X45821Y6680D01*
X45821Y6176D01*
X45772Y6058D01*
X45682Y5968D01*
X45564Y5919D01*
X45436Y5919D01*
G37*
%LPD*%
%LPC*%
G36*
X44436Y17919D02*
X44436Y17919D01*
X44318Y17968D01*
X44228Y18058D01*
X44179Y18176D01*
X44179Y18824D01*
X44228Y18942D01*
X44318Y19032D01*
X44436Y19081D01*
X44564Y19081D01*
X44682Y19032D01*
X44772Y18942D01*
X44773Y18941D01*
X44773Y18940D01*
X44777Y18938D01*
X44780Y18936D01*
X44781Y18936D01*
X44782Y18935D01*
X44785Y18934D01*
X44789Y18933D01*
X44790Y18933D01*
X44791Y18933D01*
X44795Y18934D01*
X44798Y18934D01*
X44799Y18934D01*
X44800Y18934D01*
X44804Y18936D01*
X44807Y18937D01*
X44808Y18938D01*
X44809Y18938D01*
X44813Y18942D01*
X45401Y19529D01*
X45462Y19591D01*
X53950Y19591D01*
X53954Y19591D01*
X53958Y19592D01*
X53959Y19592D01*
X53960Y19592D01*
X53963Y19594D01*
X53967Y19596D01*
X53968Y19597D01*
X53969Y19597D01*
X53971Y19599D01*
X55671Y21299D01*
X55673Y21302D01*
X55675Y21305D01*
X55676Y21306D01*
X55676Y21307D01*
X55677Y21311D01*
X55679Y21314D01*
X55679Y21315D01*
X55679Y21316D01*
X55679Y21317D01*
X55679Y21320D01*
X55679Y21824D01*
X55728Y21942D01*
X55818Y22032D01*
X55936Y22081D01*
X56064Y22081D01*
X56182Y22032D01*
X56272Y21942D01*
X56321Y21824D01*
X56321Y21176D01*
X56272Y21058D01*
X56182Y20968D01*
X56064Y20919D01*
X55936Y20919D01*
X55818Y20968D01*
X55728Y21058D01*
X55727Y21059D01*
X55727Y21060D01*
X55723Y21062D01*
X55720Y21064D01*
X55719Y21064D01*
X55718Y21065D01*
X55715Y21066D01*
X55711Y21067D01*
X55710Y21067D01*
X55709Y21067D01*
X55705Y21066D01*
X55702Y21066D01*
X55701Y21066D01*
X55700Y21066D01*
X55696Y21064D01*
X55693Y21063D01*
X55692Y21062D01*
X55691Y21062D01*
X55687Y21058D01*
X54099Y19471D01*
X54038Y19409D01*
X45550Y19409D01*
X45546Y19409D01*
X45542Y19408D01*
X45541Y19408D01*
X45540Y19408D01*
X45537Y19406D01*
X45533Y19404D01*
X45532Y19403D01*
X45531Y19403D01*
X45529Y19401D01*
X44829Y18701D01*
X44827Y18698D01*
X44825Y18695D01*
X44824Y18694D01*
X44824Y18693D01*
X44823Y18689D01*
X44821Y18686D01*
X44821Y18685D01*
X44821Y18684D01*
X44821Y18683D01*
X44821Y18680D01*
X44821Y18176D01*
X44772Y18058D01*
X44682Y17968D01*
X44564Y17919D01*
X44436Y17919D01*
G37*
%LPD*%
%LPC*%
G36*
X44436Y11919D02*
X44436Y11919D01*
X44318Y11968D01*
X44228Y12058D01*
X44179Y12176D01*
X44179Y12824D01*
X44228Y12942D01*
X44318Y13032D01*
X44436Y13081D01*
X44564Y13081D01*
X44682Y13032D01*
X44772Y12942D01*
X44773Y12941D01*
X44773Y12940D01*
X44777Y12938D01*
X44780Y12936D01*
X44781Y12936D01*
X44782Y12935D01*
X44785Y12934D01*
X44789Y12933D01*
X44790Y12933D01*
X44791Y12933D01*
X44795Y12934D01*
X44798Y12934D01*
X44799Y12934D01*
X44800Y12934D01*
X44804Y12936D01*
X44807Y12937D01*
X44808Y12938D01*
X44809Y12938D01*
X44813Y12942D01*
X46401Y14529D01*
X46462Y14591D01*
X54950Y14591D01*
X54954Y14591D01*
X54958Y14592D01*
X54959Y14592D01*
X54960Y14592D01*
X54963Y14594D01*
X54967Y14596D01*
X54968Y14597D01*
X54969Y14597D01*
X54971Y14599D01*
X55671Y15299D01*
X55673Y15302D01*
X55675Y15305D01*
X55676Y15306D01*
X55676Y15307D01*
X55677Y15311D01*
X55679Y15314D01*
X55679Y15315D01*
X55679Y15316D01*
X55679Y15317D01*
X55679Y15320D01*
X55679Y15824D01*
X55728Y15942D01*
X55818Y16032D01*
X55936Y16081D01*
X56064Y16081D01*
X56182Y16032D01*
X56272Y15942D01*
X56321Y15824D01*
X56321Y15176D01*
X56272Y15058D01*
X56182Y14968D01*
X56064Y14919D01*
X55936Y14919D01*
X55818Y14968D01*
X55728Y15058D01*
X55727Y15059D01*
X55727Y15060D01*
X55723Y15062D01*
X55720Y15064D01*
X55719Y15064D01*
X55718Y15065D01*
X55715Y15066D01*
X55711Y15067D01*
X55710Y15067D01*
X55709Y15067D01*
X55705Y15066D01*
X55702Y15066D01*
X55701Y15066D01*
X55700Y15066D01*
X55696Y15064D01*
X55693Y15063D01*
X55692Y15062D01*
X55691Y15062D01*
X55687Y15058D01*
X55038Y14409D01*
X46550Y14409D01*
X46546Y14409D01*
X46542Y14408D01*
X46541Y14408D01*
X46540Y14408D01*
X46537Y14406D01*
X46533Y14404D01*
X46532Y14403D01*
X46531Y14403D01*
X46529Y14401D01*
X44829Y12701D01*
X44827Y12698D01*
X44825Y12695D01*
X44824Y12694D01*
X44824Y12693D01*
X44823Y12689D01*
X44821Y12686D01*
X44821Y12685D01*
X44821Y12684D01*
X44821Y12683D01*
X44821Y12680D01*
X44821Y12176D01*
X44772Y12058D01*
X44682Y11968D01*
X44564Y11919D01*
X44436Y11919D01*
G37*
%LPD*%
%LPC*%
G36*
X39462Y11409D02*
X39462Y11409D01*
X38813Y12058D01*
X38812Y12059D01*
X38812Y12060D01*
X38809Y12062D01*
X38806Y12064D01*
X38805Y12064D01*
X38804Y12065D01*
X38800Y12066D01*
X38796Y12067D01*
X38795Y12067D01*
X38794Y12067D01*
X38791Y12066D01*
X38787Y12066D01*
X38786Y12066D01*
X38785Y12066D01*
X38781Y12064D01*
X38778Y12063D01*
X38777Y12062D01*
X38776Y12062D01*
X38772Y12058D01*
X38682Y11968D01*
X38564Y11919D01*
X38436Y11919D01*
X38318Y11968D01*
X38228Y12058D01*
X38179Y12176D01*
X38179Y12824D01*
X38228Y12942D01*
X38318Y13032D01*
X38436Y13081D01*
X38564Y13081D01*
X38682Y13032D01*
X38772Y12942D01*
X38821Y12824D01*
X38821Y12320D01*
X38821Y12316D01*
X38822Y12312D01*
X38822Y12311D01*
X38822Y12310D01*
X38824Y12307D01*
X38826Y12303D01*
X38827Y12302D01*
X38827Y12301D01*
X38829Y12299D01*
X39529Y11599D01*
X39532Y11597D01*
X39535Y11595D01*
X39536Y11594D01*
X39537Y11594D01*
X39541Y11593D01*
X39544Y11591D01*
X39545Y11591D01*
X39546Y11591D01*
X39547Y11591D01*
X39550Y11591D01*
X41450Y11591D01*
X41454Y11591D01*
X41458Y11592D01*
X41459Y11592D01*
X41460Y11592D01*
X41463Y11594D01*
X41467Y11596D01*
X41468Y11597D01*
X41469Y11597D01*
X41471Y11599D01*
X41901Y12029D01*
X41903Y12032D01*
X41905Y12035D01*
X41906Y12036D01*
X41906Y12037D01*
X41907Y12041D01*
X41909Y12044D01*
X41909Y12045D01*
X41909Y12046D01*
X41909Y12047D01*
X41909Y12050D01*
X41909Y17038D01*
X43171Y18299D01*
X43173Y18302D01*
X43175Y18305D01*
X43176Y18306D01*
X43176Y18307D01*
X43177Y18311D01*
X43179Y18314D01*
X43179Y18315D01*
X43179Y18316D01*
X43179Y18317D01*
X43179Y18320D01*
X43179Y18824D01*
X43228Y18942D01*
X43318Y19032D01*
X43436Y19081D01*
X43564Y19081D01*
X43682Y19032D01*
X43772Y18942D01*
X43821Y18824D01*
X43821Y18176D01*
X43772Y18058D01*
X43682Y17968D01*
X43564Y17919D01*
X43436Y17919D01*
X43318Y17968D01*
X43228Y18058D01*
X43227Y18059D01*
X43227Y18060D01*
X43223Y18062D01*
X43220Y18064D01*
X43219Y18064D01*
X43218Y18065D01*
X43215Y18066D01*
X43211Y18067D01*
X43210Y18067D01*
X43209Y18067D01*
X43205Y18066D01*
X43202Y18066D01*
X43201Y18066D01*
X43200Y18066D01*
X43196Y18064D01*
X43193Y18063D01*
X43192Y18062D01*
X43191Y18062D01*
X43187Y18058D01*
X42099Y16971D01*
X42097Y16968D01*
X42095Y16965D01*
X42094Y16964D01*
X42094Y16963D01*
X42093Y16959D01*
X42091Y16956D01*
X42091Y16955D01*
X42091Y16954D01*
X42091Y16953D01*
X42091Y16950D01*
X42091Y11962D01*
X41538Y11409D01*
X39462Y11409D01*
G37*
%LPD*%
%LPC*%
G36*
X39436Y5919D02*
X39436Y5919D01*
X39318Y5968D01*
X39228Y6058D01*
X39179Y6176D01*
X39179Y6824D01*
X39228Y6942D01*
X39318Y7032D01*
X39436Y7081D01*
X39564Y7081D01*
X39682Y7032D01*
X39772Y6942D01*
X39773Y6941D01*
X39773Y6940D01*
X39777Y6938D01*
X39780Y6936D01*
X39781Y6936D01*
X39782Y6935D01*
X39785Y6934D01*
X39789Y6933D01*
X39790Y6933D01*
X39791Y6933D01*
X39795Y6934D01*
X39798Y6934D01*
X39799Y6934D01*
X39800Y6934D01*
X39804Y6936D01*
X39807Y6937D01*
X39808Y6938D01*
X39809Y6938D01*
X39813Y6942D01*
X40901Y8029D01*
X40903Y8032D01*
X40905Y8035D01*
X40906Y8036D01*
X40906Y8037D01*
X40907Y8041D01*
X40909Y8044D01*
X40909Y8045D01*
X40909Y8046D01*
X40909Y8047D01*
X40909Y8050D01*
X40909Y10038D01*
X43171Y12299D01*
X43173Y12302D01*
X43175Y12305D01*
X43176Y12306D01*
X43176Y12307D01*
X43177Y12311D01*
X43179Y12314D01*
X43179Y12315D01*
X43179Y12316D01*
X43179Y12317D01*
X43179Y12320D01*
X43179Y12824D01*
X43228Y12942D01*
X43318Y13032D01*
X43436Y13081D01*
X43564Y13081D01*
X43682Y13032D01*
X43772Y12942D01*
X43821Y12824D01*
X43821Y12176D01*
X43772Y12058D01*
X43682Y11968D01*
X43564Y11919D01*
X43436Y11919D01*
X43318Y11968D01*
X43228Y12058D01*
X43227Y12059D01*
X43227Y12060D01*
X43223Y12062D01*
X43220Y12064D01*
X43219Y12064D01*
X43218Y12065D01*
X43215Y12066D01*
X43211Y12067D01*
X43210Y12067D01*
X43209Y12067D01*
X43205Y12066D01*
X43202Y12066D01*
X43201Y12066D01*
X43200Y12066D01*
X43196Y12064D01*
X43193Y12063D01*
X43192Y12062D01*
X43191Y12062D01*
X43187Y12058D01*
X41099Y9971D01*
X41097Y9968D01*
X41095Y9965D01*
X41094Y9964D01*
X41094Y9963D01*
X41093Y9959D01*
X41091Y9956D01*
X41091Y9955D01*
X41091Y9954D01*
X41091Y9953D01*
X41091Y9950D01*
X41091Y7962D01*
X39829Y6701D01*
X39827Y6698D01*
X39825Y6695D01*
X39824Y6694D01*
X39824Y6693D01*
X39823Y6689D01*
X39821Y6686D01*
X39821Y6685D01*
X39821Y6684D01*
X39821Y6683D01*
X39821Y6680D01*
X39821Y6176D01*
X39772Y6058D01*
X39682Y5968D01*
X39564Y5919D01*
X39436Y5919D01*
G37*
%LPD*%
%LPC*%
G36*
X48936Y27919D02*
X48936Y27919D01*
X48818Y27968D01*
X48728Y28058D01*
X48679Y28176D01*
X48679Y28824D01*
X48728Y28942D01*
X48808Y29022D01*
X48809Y29023D01*
X48810Y29023D01*
X48812Y29027D01*
X48814Y29030D01*
X48814Y29031D01*
X48815Y29032D01*
X48816Y29035D01*
X48817Y29039D01*
X48817Y29040D01*
X48817Y29041D01*
X48816Y29045D01*
X48816Y29048D01*
X48816Y29049D01*
X48816Y29050D01*
X48814Y29054D01*
X48813Y29057D01*
X48812Y29058D01*
X48812Y29059D01*
X48808Y29063D01*
X48409Y29462D01*
X48409Y32538D01*
X48671Y32799D01*
X48673Y32802D01*
X48675Y32805D01*
X48676Y32806D01*
X48676Y32807D01*
X48677Y32811D01*
X48679Y32814D01*
X48679Y32815D01*
X48679Y32816D01*
X48679Y32817D01*
X48679Y32820D01*
X48679Y33324D01*
X48728Y33442D01*
X48818Y33532D01*
X48936Y33581D01*
X49064Y33581D01*
X49182Y33532D01*
X49272Y33442D01*
X49321Y33324D01*
X49321Y32676D01*
X49272Y32558D01*
X49182Y32468D01*
X49064Y32419D01*
X48936Y32419D01*
X48818Y32468D01*
X48728Y32558D01*
X48727Y32559D01*
X48727Y32560D01*
X48723Y32562D01*
X48720Y32564D01*
X48719Y32564D01*
X48718Y32565D01*
X48715Y32566D01*
X48711Y32567D01*
X48710Y32567D01*
X48709Y32567D01*
X48705Y32566D01*
X48702Y32566D01*
X48701Y32566D01*
X48700Y32566D01*
X48696Y32564D01*
X48693Y32563D01*
X48692Y32562D01*
X48691Y32562D01*
X48687Y32558D01*
X48599Y32471D01*
X48597Y32468D01*
X48595Y32465D01*
X48594Y32464D01*
X48594Y32463D01*
X48593Y32459D01*
X48591Y32456D01*
X48591Y32455D01*
X48591Y32454D01*
X48591Y32453D01*
X48591Y32450D01*
X48591Y29550D01*
X48591Y29549D01*
X48591Y29548D01*
X48591Y29545D01*
X48592Y29542D01*
X48592Y29541D01*
X48592Y29540D01*
X48593Y29539D01*
X48593Y29538D01*
X48594Y29536D01*
X48596Y29533D01*
X48597Y29532D01*
X48597Y29531D01*
X48598Y29531D01*
X48598Y29530D01*
X48599Y29529D01*
X49029Y29099D01*
X49039Y29089D01*
X49042Y29087D01*
X49045Y29085D01*
X49046Y29084D01*
X49047Y29084D01*
X49051Y29083D01*
X49054Y29081D01*
X49055Y29081D01*
X49056Y29081D01*
X49057Y29081D01*
X49060Y29081D01*
X49064Y29081D01*
X49182Y29032D01*
X49272Y28942D01*
X49321Y28824D01*
X49321Y28176D01*
X49272Y28058D01*
X49182Y27968D01*
X49064Y27919D01*
X48936Y27919D01*
G37*
%LPD*%
%LPC*%
G36*
X50936Y27919D02*
X50936Y27919D01*
X50818Y27968D01*
X50728Y28058D01*
X50679Y28176D01*
X50679Y28824D01*
X50728Y28942D01*
X50808Y29022D01*
X50809Y29023D01*
X50810Y29023D01*
X50812Y29027D01*
X50814Y29030D01*
X50814Y29031D01*
X50815Y29032D01*
X50816Y29035D01*
X50817Y29039D01*
X50817Y29040D01*
X50817Y29041D01*
X50816Y29045D01*
X50816Y29048D01*
X50816Y29049D01*
X50816Y29050D01*
X50814Y29054D01*
X50813Y29057D01*
X50812Y29058D01*
X50812Y29059D01*
X50808Y29063D01*
X50409Y29462D01*
X50409Y32538D01*
X50671Y32799D01*
X50673Y32802D01*
X50675Y32805D01*
X50676Y32806D01*
X50676Y32807D01*
X50677Y32811D01*
X50679Y32814D01*
X50679Y32815D01*
X50679Y32816D01*
X50679Y32817D01*
X50679Y32820D01*
X50679Y33324D01*
X50728Y33442D01*
X50818Y33532D01*
X50936Y33581D01*
X51064Y33581D01*
X51182Y33532D01*
X51272Y33442D01*
X51321Y33324D01*
X51321Y32676D01*
X51272Y32558D01*
X51182Y32468D01*
X51064Y32419D01*
X50936Y32419D01*
X50818Y32468D01*
X50728Y32558D01*
X50727Y32559D01*
X50727Y32560D01*
X50723Y32562D01*
X50720Y32564D01*
X50719Y32564D01*
X50718Y32565D01*
X50715Y32566D01*
X50711Y32567D01*
X50710Y32567D01*
X50709Y32567D01*
X50705Y32566D01*
X50702Y32566D01*
X50701Y32566D01*
X50700Y32566D01*
X50696Y32564D01*
X50693Y32563D01*
X50692Y32562D01*
X50691Y32562D01*
X50687Y32558D01*
X50599Y32471D01*
X50597Y32468D01*
X50595Y32465D01*
X50594Y32464D01*
X50594Y32463D01*
X50593Y32459D01*
X50591Y32456D01*
X50591Y32455D01*
X50591Y32454D01*
X50591Y32453D01*
X50591Y32450D01*
X50591Y29550D01*
X50591Y29549D01*
X50591Y29548D01*
X50591Y29545D01*
X50592Y29542D01*
X50592Y29541D01*
X50592Y29540D01*
X50593Y29539D01*
X50593Y29538D01*
X50594Y29536D01*
X50596Y29533D01*
X50597Y29532D01*
X50597Y29531D01*
X50598Y29531D01*
X50598Y29530D01*
X50599Y29529D01*
X51029Y29099D01*
X51039Y29089D01*
X51042Y29087D01*
X51045Y29085D01*
X51046Y29084D01*
X51047Y29084D01*
X51051Y29083D01*
X51054Y29081D01*
X51055Y29081D01*
X51056Y29081D01*
X51057Y29081D01*
X51060Y29081D01*
X51064Y29081D01*
X51182Y29032D01*
X51272Y28942D01*
X51321Y28824D01*
X51321Y28176D01*
X51272Y28058D01*
X51182Y27968D01*
X51064Y27919D01*
X50936Y27919D01*
G37*
%LPD*%
%LPC*%
G36*
X51936Y27919D02*
X51936Y27919D01*
X51818Y27968D01*
X51728Y28058D01*
X51679Y28176D01*
X51679Y28824D01*
X51728Y28942D01*
X51808Y29022D01*
X51809Y29023D01*
X51810Y29023D01*
X51812Y29027D01*
X51814Y29030D01*
X51814Y29031D01*
X51815Y29032D01*
X51816Y29035D01*
X51817Y29039D01*
X51817Y29040D01*
X51817Y29041D01*
X51816Y29045D01*
X51816Y29048D01*
X51816Y29049D01*
X51816Y29050D01*
X51814Y29054D01*
X51813Y29057D01*
X51812Y29058D01*
X51812Y29059D01*
X51808Y29063D01*
X51409Y29462D01*
X51409Y32538D01*
X51671Y32799D01*
X51673Y32802D01*
X51675Y32805D01*
X51676Y32806D01*
X51676Y32807D01*
X51677Y32811D01*
X51679Y32814D01*
X51679Y32815D01*
X51679Y32816D01*
X51679Y32817D01*
X51679Y32820D01*
X51679Y33324D01*
X51728Y33442D01*
X51818Y33532D01*
X51936Y33581D01*
X52064Y33581D01*
X52182Y33532D01*
X52272Y33442D01*
X52321Y33324D01*
X52321Y32676D01*
X52272Y32558D01*
X52182Y32468D01*
X52064Y32419D01*
X51936Y32419D01*
X51818Y32468D01*
X51728Y32558D01*
X51727Y32559D01*
X51727Y32560D01*
X51723Y32562D01*
X51720Y32564D01*
X51719Y32564D01*
X51718Y32565D01*
X51715Y32566D01*
X51711Y32567D01*
X51710Y32567D01*
X51709Y32567D01*
X51705Y32566D01*
X51702Y32566D01*
X51701Y32566D01*
X51700Y32566D01*
X51696Y32564D01*
X51693Y32563D01*
X51692Y32562D01*
X51691Y32562D01*
X51687Y32558D01*
X51599Y32471D01*
X51597Y32468D01*
X51595Y32465D01*
X51594Y32464D01*
X51594Y32463D01*
X51593Y32459D01*
X51591Y32456D01*
X51591Y32455D01*
X51591Y32454D01*
X51591Y32453D01*
X51591Y32450D01*
X51591Y29550D01*
X51591Y29549D01*
X51591Y29548D01*
X51591Y29545D01*
X51592Y29542D01*
X51592Y29541D01*
X51592Y29540D01*
X51593Y29539D01*
X51593Y29538D01*
X51594Y29536D01*
X51596Y29533D01*
X51597Y29532D01*
X51597Y29531D01*
X51598Y29531D01*
X51598Y29530D01*
X51599Y29529D01*
X52029Y29099D01*
X52039Y29089D01*
X52042Y29087D01*
X52045Y29085D01*
X52046Y29084D01*
X52047Y29084D01*
X52051Y29083D01*
X52054Y29081D01*
X52055Y29081D01*
X52056Y29081D01*
X52057Y29081D01*
X52060Y29081D01*
X52064Y29081D01*
X52182Y29032D01*
X52272Y28942D01*
X52321Y28824D01*
X52321Y28176D01*
X52272Y28058D01*
X52182Y27968D01*
X52064Y27919D01*
X51936Y27919D01*
G37*
%LPD*%
%LPC*%
G36*
X49936Y27919D02*
X49936Y27919D01*
X49818Y27968D01*
X49728Y28058D01*
X49679Y28176D01*
X49679Y28824D01*
X49728Y28942D01*
X49808Y29022D01*
X49809Y29023D01*
X49810Y29023D01*
X49812Y29027D01*
X49814Y29030D01*
X49814Y29031D01*
X49815Y29032D01*
X49816Y29035D01*
X49817Y29039D01*
X49817Y29040D01*
X49817Y29041D01*
X49816Y29045D01*
X49816Y29048D01*
X49816Y29049D01*
X49816Y29050D01*
X49814Y29054D01*
X49813Y29057D01*
X49812Y29058D01*
X49812Y29059D01*
X49808Y29063D01*
X49471Y29401D01*
X49409Y29462D01*
X49409Y32538D01*
X49471Y32599D01*
X49671Y32799D01*
X49673Y32802D01*
X49675Y32805D01*
X49676Y32806D01*
X49676Y32807D01*
X49677Y32811D01*
X49679Y32814D01*
X49679Y32815D01*
X49679Y32816D01*
X49679Y32817D01*
X49679Y32820D01*
X49679Y33324D01*
X49728Y33442D01*
X49818Y33532D01*
X49936Y33581D01*
X50064Y33581D01*
X50182Y33532D01*
X50272Y33442D01*
X50321Y33324D01*
X50321Y32676D01*
X50272Y32558D01*
X50182Y32468D01*
X50064Y32419D01*
X49936Y32419D01*
X49818Y32468D01*
X49728Y32558D01*
X49727Y32559D01*
X49727Y32560D01*
X49723Y32562D01*
X49720Y32564D01*
X49719Y32564D01*
X49718Y32565D01*
X49715Y32566D01*
X49711Y32567D01*
X49710Y32567D01*
X49709Y32567D01*
X49705Y32566D01*
X49702Y32566D01*
X49701Y32566D01*
X49700Y32566D01*
X49696Y32564D01*
X49693Y32563D01*
X49692Y32562D01*
X49691Y32562D01*
X49687Y32558D01*
X49599Y32471D01*
X49597Y32468D01*
X49595Y32465D01*
X49594Y32464D01*
X49594Y32463D01*
X49593Y32459D01*
X49591Y32456D01*
X49591Y32455D01*
X49591Y32454D01*
X49591Y32453D01*
X49591Y32450D01*
X49591Y29550D01*
X49591Y29549D01*
X49591Y29548D01*
X49591Y29545D01*
X49592Y29542D01*
X49592Y29541D01*
X49592Y29540D01*
X49593Y29539D01*
X49593Y29538D01*
X49594Y29536D01*
X49596Y29533D01*
X49597Y29532D01*
X49597Y29531D01*
X49598Y29531D01*
X49598Y29530D01*
X49599Y29529D01*
X50039Y29089D01*
X50042Y29087D01*
X50045Y29085D01*
X50046Y29084D01*
X50047Y29084D01*
X50051Y29083D01*
X50054Y29081D01*
X50055Y29081D01*
X50056Y29081D01*
X50057Y29081D01*
X50060Y29081D01*
X50064Y29081D01*
X50182Y29032D01*
X50272Y28942D01*
X50321Y28824D01*
X50321Y28176D01*
X50272Y28058D01*
X50182Y27968D01*
X50064Y27919D01*
X49936Y27919D01*
G37*
%LPD*%
%LPC*%
G36*
X52936Y27919D02*
X52936Y27919D01*
X52818Y27968D01*
X52728Y28058D01*
X52679Y28176D01*
X52679Y28824D01*
X52728Y28942D01*
X52808Y29022D01*
X52809Y29023D01*
X52810Y29023D01*
X52812Y29027D01*
X52814Y29030D01*
X52814Y29031D01*
X52815Y29032D01*
X52816Y29035D01*
X52817Y29039D01*
X52817Y29040D01*
X52817Y29041D01*
X52816Y29045D01*
X52816Y29048D01*
X52816Y29049D01*
X52816Y29050D01*
X52814Y29054D01*
X52813Y29057D01*
X52812Y29058D01*
X52812Y29059D01*
X52808Y29063D01*
X52471Y29401D01*
X52409Y29462D01*
X52409Y32538D01*
X52471Y32599D01*
X52671Y32799D01*
X52673Y32802D01*
X52675Y32805D01*
X52676Y32806D01*
X52676Y32807D01*
X52677Y32811D01*
X52679Y32814D01*
X52679Y32815D01*
X52679Y32816D01*
X52679Y32817D01*
X52679Y32820D01*
X52679Y33324D01*
X52728Y33442D01*
X52818Y33532D01*
X52936Y33581D01*
X53064Y33581D01*
X53182Y33532D01*
X53272Y33442D01*
X53321Y33324D01*
X53321Y32676D01*
X53272Y32558D01*
X53182Y32468D01*
X53064Y32419D01*
X52936Y32419D01*
X52818Y32468D01*
X52728Y32558D01*
X52727Y32559D01*
X52727Y32560D01*
X52723Y32562D01*
X52720Y32564D01*
X52719Y32564D01*
X52718Y32565D01*
X52715Y32566D01*
X52711Y32567D01*
X52710Y32567D01*
X52709Y32567D01*
X52705Y32566D01*
X52702Y32566D01*
X52701Y32566D01*
X52700Y32566D01*
X52696Y32564D01*
X52693Y32563D01*
X52692Y32562D01*
X52691Y32562D01*
X52687Y32558D01*
X52599Y32471D01*
X52597Y32468D01*
X52595Y32465D01*
X52594Y32464D01*
X52594Y32463D01*
X52593Y32459D01*
X52591Y32456D01*
X52591Y32455D01*
X52591Y32454D01*
X52591Y32453D01*
X52591Y32450D01*
X52591Y29550D01*
X52591Y29549D01*
X52591Y29548D01*
X52591Y29545D01*
X52592Y29542D01*
X52592Y29541D01*
X52592Y29540D01*
X52593Y29539D01*
X52593Y29538D01*
X52594Y29536D01*
X52596Y29533D01*
X52597Y29532D01*
X52597Y29531D01*
X52598Y29531D01*
X52598Y29530D01*
X52599Y29529D01*
X53029Y29099D01*
X53039Y29089D01*
X53042Y29087D01*
X53045Y29085D01*
X53046Y29084D01*
X53047Y29084D01*
X53051Y29083D01*
X53054Y29081D01*
X53055Y29081D01*
X53056Y29081D01*
X53057Y29081D01*
X53060Y29081D01*
X53064Y29081D01*
X53182Y29032D01*
X53272Y28942D01*
X53321Y28824D01*
X53321Y28176D01*
X53272Y28058D01*
X53182Y27968D01*
X53064Y27919D01*
X52936Y27919D01*
G37*
%LPD*%
%LPC*%
G36*
X37181Y19640D02*
X37181Y19640D01*
X36961Y19731D01*
X36793Y19899D01*
X36702Y20119D01*
X36702Y20356D01*
X36793Y20576D01*
X36961Y20744D01*
X37181Y20835D01*
X37419Y20835D01*
X37639Y20744D01*
X37807Y20576D01*
X37898Y20356D01*
X37898Y20119D01*
X37807Y19899D01*
X37639Y19731D01*
X37419Y19640D01*
X37181Y19640D01*
G37*
%LPD*%
%LPC*%
G36*
X37181Y3727D02*
X37181Y3727D01*
X36961Y3818D01*
X36793Y3986D01*
X36702Y4206D01*
X36702Y4444D01*
X36793Y4664D01*
X36961Y4832D01*
X37181Y4923D01*
X37419Y4923D01*
X37639Y4832D01*
X37807Y4664D01*
X37898Y4444D01*
X37898Y4206D01*
X37807Y3986D01*
X37639Y3818D01*
X37419Y3727D01*
X37181Y3727D01*
G37*
%LPD*%
%LPC*%
G36*
X52936Y29419D02*
X52936Y29419D01*
X52818Y29468D01*
X52728Y29558D01*
X52679Y29676D01*
X52679Y30324D01*
X52728Y30442D01*
X52818Y30532D01*
X52936Y30581D01*
X53064Y30581D01*
X53182Y30532D01*
X53272Y30442D01*
X53321Y30324D01*
X53321Y29676D01*
X53272Y29558D01*
X53182Y29468D01*
X53064Y29419D01*
X52936Y29419D01*
G37*
%LPD*%
%LPC*%
G36*
X50936Y29419D02*
X50936Y29419D01*
X50818Y29468D01*
X50728Y29558D01*
X50679Y29676D01*
X50679Y30324D01*
X50728Y30442D01*
X50818Y30532D01*
X50936Y30581D01*
X51064Y30581D01*
X51182Y30532D01*
X51272Y30442D01*
X51321Y30324D01*
X51321Y29676D01*
X51272Y29558D01*
X51182Y29468D01*
X51064Y29419D01*
X50936Y29419D01*
G37*
%LPD*%
%LPC*%
G36*
X48936Y29419D02*
X48936Y29419D01*
X48818Y29468D01*
X48728Y29558D01*
X48679Y29676D01*
X48679Y30324D01*
X48728Y30442D01*
X48818Y30532D01*
X48936Y30581D01*
X49064Y30581D01*
X49182Y30532D01*
X49272Y30442D01*
X49321Y30324D01*
X49321Y29676D01*
X49272Y29558D01*
X49182Y29468D01*
X49064Y29419D01*
X48936Y29419D01*
G37*
%LPD*%
%LPC*%
G36*
X47936Y29419D02*
X47936Y29419D01*
X47818Y29468D01*
X47728Y29558D01*
X47679Y29676D01*
X47679Y30324D01*
X47728Y30442D01*
X47818Y30532D01*
X47936Y30581D01*
X48064Y30581D01*
X48182Y30532D01*
X48272Y30442D01*
X48321Y30324D01*
X48321Y29676D01*
X48272Y29558D01*
X48182Y29468D01*
X48064Y29419D01*
X47936Y29419D01*
G37*
%LPD*%
%LPC*%
G36*
X55936Y29419D02*
X55936Y29419D01*
X55818Y29468D01*
X55728Y29558D01*
X55679Y29676D01*
X55679Y30324D01*
X55728Y30442D01*
X55818Y30532D01*
X55936Y30581D01*
X56064Y30581D01*
X56182Y30532D01*
X56272Y30442D01*
X56321Y30324D01*
X56321Y29676D01*
X56272Y29558D01*
X56182Y29468D01*
X56064Y29419D01*
X55936Y29419D01*
G37*
%LPD*%
%LPC*%
G36*
X52436Y33919D02*
X52436Y33919D01*
X52318Y33968D01*
X52228Y34058D01*
X52179Y34176D01*
X52179Y34824D01*
X52228Y34942D01*
X52318Y35032D01*
X52436Y35081D01*
X52564Y35081D01*
X52682Y35032D01*
X52772Y34942D01*
X52821Y34824D01*
X52821Y34176D01*
X52772Y34058D01*
X52682Y33968D01*
X52564Y33919D01*
X52436Y33919D01*
G37*
%LPD*%
%LPC*%
G36*
X47936Y27919D02*
X47936Y27919D01*
X47818Y27968D01*
X47728Y28058D01*
X47679Y28176D01*
X47679Y28824D01*
X47728Y28942D01*
X47818Y29032D01*
X47936Y29081D01*
X48064Y29081D01*
X48182Y29032D01*
X48272Y28942D01*
X48321Y28824D01*
X48321Y28176D01*
X48272Y28058D01*
X48182Y27968D01*
X48064Y27919D01*
X47936Y27919D01*
G37*
%LPD*%
%LPC*%
G36*
X52936Y11919D02*
X52936Y11919D01*
X52818Y11968D01*
X52728Y12058D01*
X52679Y12176D01*
X52679Y12824D01*
X52728Y12942D01*
X52818Y13032D01*
X52936Y13081D01*
X53064Y13081D01*
X53182Y13032D01*
X53272Y12942D01*
X53321Y12824D01*
X53321Y12176D01*
X53272Y12058D01*
X53182Y11968D01*
X53064Y11919D01*
X52936Y11919D01*
G37*
%LPD*%
%LPC*%
G36*
X49436Y5919D02*
X49436Y5919D01*
X49318Y5968D01*
X49228Y6058D01*
X49179Y6176D01*
X49179Y6824D01*
X49228Y6942D01*
X49318Y7032D01*
X49436Y7081D01*
X49564Y7081D01*
X49682Y7032D01*
X49772Y6942D01*
X49821Y6824D01*
X49821Y6176D01*
X49772Y6058D01*
X49682Y5968D01*
X49564Y5919D01*
X49436Y5919D01*
G37*
%LPD*%
%LPC*%
G36*
X44436Y5919D02*
X44436Y5919D01*
X44318Y5968D01*
X44228Y6058D01*
X44179Y6176D01*
X44179Y6824D01*
X44228Y6942D01*
X44318Y7032D01*
X44436Y7081D01*
X44564Y7081D01*
X44682Y7032D01*
X44772Y6942D01*
X44821Y6824D01*
X44821Y6176D01*
X44772Y6058D01*
X44682Y5968D01*
X44564Y5919D01*
X44436Y5919D01*
G37*
%LPD*%
%LPC*%
G36*
X50436Y33919D02*
X50436Y33919D01*
X50318Y33968D01*
X50228Y34058D01*
X50179Y34176D01*
X50179Y34824D01*
X50228Y34942D01*
X50318Y35032D01*
X50436Y35081D01*
X50564Y35081D01*
X50682Y35032D01*
X50772Y34942D01*
X50821Y34824D01*
X50821Y34176D01*
X50772Y34058D01*
X50682Y33968D01*
X50564Y33919D01*
X50436Y33919D01*
G37*
%LPD*%
%LPC*%
G36*
X54436Y5919D02*
X54436Y5919D01*
X54318Y5968D01*
X54228Y6058D01*
X54179Y6176D01*
X54179Y6824D01*
X54228Y6942D01*
X54318Y7032D01*
X54436Y7081D01*
X54564Y7081D01*
X54682Y7032D01*
X54772Y6942D01*
X54821Y6824D01*
X54821Y6176D01*
X54772Y6058D01*
X54682Y5968D01*
X54564Y5919D01*
X54436Y5919D01*
G37*
%LPD*%
%LPC*%
G36*
X47936Y24919D02*
X47936Y24919D01*
X47818Y24968D01*
X47728Y25058D01*
X47679Y25176D01*
X47679Y25824D01*
X47728Y25942D01*
X47818Y26032D01*
X47936Y26081D01*
X48064Y26081D01*
X48182Y26032D01*
X48272Y25942D01*
X48321Y25824D01*
X48321Y25176D01*
X48272Y25058D01*
X48182Y24968D01*
X48064Y24919D01*
X47936Y24919D01*
G37*
%LPD*%
%LPC*%
G36*
X55436Y5919D02*
X55436Y5919D01*
X55318Y5968D01*
X55228Y6058D01*
X55179Y6176D01*
X55179Y6824D01*
X55228Y6942D01*
X55318Y7032D01*
X55436Y7081D01*
X55564Y7081D01*
X55682Y7032D01*
X55772Y6942D01*
X55821Y6824D01*
X55821Y6176D01*
X55772Y6058D01*
X55682Y5968D01*
X55564Y5919D01*
X55436Y5919D01*
G37*
%LPD*%
%LPC*%
G36*
X56436Y5919D02*
X56436Y5919D01*
X56318Y5968D01*
X56228Y6058D01*
X56179Y6176D01*
X56179Y6824D01*
X56228Y6942D01*
X56318Y7032D01*
X56436Y7081D01*
X56564Y7081D01*
X56682Y7032D01*
X56772Y6942D01*
X56821Y6824D01*
X56821Y6176D01*
X56772Y6058D01*
X56682Y5968D01*
X56564Y5919D01*
X56436Y5919D01*
G37*
%LPD*%
%LPC*%
G36*
X57436Y5919D02*
X57436Y5919D01*
X57318Y5968D01*
X57228Y6058D01*
X57179Y6176D01*
X57179Y6824D01*
X57228Y6942D01*
X57318Y7032D01*
X57436Y7081D01*
X57564Y7081D01*
X57682Y7032D01*
X57772Y6942D01*
X57821Y6824D01*
X57821Y6176D01*
X57772Y6058D01*
X57682Y5968D01*
X57564Y5919D01*
X57436Y5919D01*
G37*
%LPD*%
%LPC*%
G36*
X41436Y5919D02*
X41436Y5919D01*
X41318Y5968D01*
X41228Y6058D01*
X41179Y6176D01*
X41179Y6824D01*
X41228Y6942D01*
X41318Y7032D01*
X41436Y7081D01*
X41564Y7081D01*
X41682Y7032D01*
X41772Y6942D01*
X41821Y6824D01*
X41821Y6176D01*
X41772Y6058D01*
X41682Y5968D01*
X41564Y5919D01*
X41436Y5919D01*
G37*
%LPD*%
%LPC*%
G36*
X40436Y5919D02*
X40436Y5919D01*
X40318Y5968D01*
X40228Y6058D01*
X40179Y6176D01*
X40179Y6824D01*
X40228Y6942D01*
X40318Y7032D01*
X40436Y7081D01*
X40564Y7081D01*
X40682Y7032D01*
X40772Y6942D01*
X40821Y6824D01*
X40821Y6176D01*
X40772Y6058D01*
X40682Y5968D01*
X40564Y5919D01*
X40436Y5919D01*
G37*
%LPD*%
%LPC*%
G36*
X42436Y5919D02*
X42436Y5919D01*
X42318Y5968D01*
X42228Y6058D01*
X42179Y6176D01*
X42179Y6824D01*
X42228Y6942D01*
X42318Y7032D01*
X42436Y7081D01*
X42564Y7081D01*
X42682Y7032D01*
X42772Y6942D01*
X42821Y6824D01*
X42821Y6176D01*
X42772Y6058D01*
X42682Y5968D01*
X42564Y5919D01*
X42436Y5919D01*
G37*
%LPD*%
%LPC*%
G36*
X53936Y11919D02*
X53936Y11919D01*
X53818Y11968D01*
X53728Y12058D01*
X53679Y12176D01*
X53679Y12824D01*
X53728Y12942D01*
X53818Y13032D01*
X53936Y13081D01*
X54064Y13081D01*
X54182Y13032D01*
X54272Y12942D01*
X54321Y12824D01*
X54321Y12176D01*
X54272Y12058D01*
X54182Y11968D01*
X54064Y11919D01*
X53936Y11919D01*
G37*
%LPD*%
%LPC*%
G36*
X43436Y5919D02*
X43436Y5919D01*
X43318Y5968D01*
X43228Y6058D01*
X43179Y6176D01*
X43179Y6824D01*
X43228Y6942D01*
X43318Y7032D01*
X43436Y7081D01*
X43564Y7081D01*
X43682Y7032D01*
X43772Y6942D01*
X43821Y6824D01*
X43821Y6176D01*
X43772Y6058D01*
X43682Y5968D01*
X43564Y5919D01*
X43436Y5919D01*
G37*
%LPD*%
%LPC*%
G36*
X39436Y8919D02*
X39436Y8919D01*
X39318Y8968D01*
X39228Y9058D01*
X39179Y9176D01*
X39179Y9824D01*
X39228Y9942D01*
X39318Y10032D01*
X39436Y10081D01*
X39564Y10081D01*
X39682Y10032D01*
X39772Y9942D01*
X39821Y9824D01*
X39821Y9176D01*
X39772Y9058D01*
X39682Y8968D01*
X39564Y8919D01*
X39436Y8919D01*
G37*
%LPD*%
%LPC*%
G36*
X44436Y20919D02*
X44436Y20919D01*
X44318Y20968D01*
X44228Y21058D01*
X44179Y21176D01*
X44179Y21824D01*
X44228Y21942D01*
X44318Y22032D01*
X44436Y22081D01*
X44564Y22081D01*
X44682Y22032D01*
X44772Y21942D01*
X44821Y21824D01*
X44821Y21176D01*
X44772Y21058D01*
X44682Y20968D01*
X44564Y20919D01*
X44436Y20919D01*
G37*
%LPD*%
%LPC*%
G36*
X51936Y20919D02*
X51936Y20919D01*
X51818Y20968D01*
X51728Y21058D01*
X51679Y21176D01*
X51679Y21824D01*
X51728Y21942D01*
X51818Y22032D01*
X51936Y22081D01*
X52064Y22081D01*
X52182Y22032D01*
X52272Y21942D01*
X52321Y21824D01*
X52321Y21176D01*
X52272Y21058D01*
X52182Y20968D01*
X52064Y20919D01*
X51936Y20919D01*
G37*
%LPD*%
%LPC*%
G36*
X53936Y20919D02*
X53936Y20919D01*
X53818Y20968D01*
X53728Y21058D01*
X53679Y21176D01*
X53679Y21824D01*
X53728Y21942D01*
X53818Y22032D01*
X53936Y22081D01*
X54064Y22081D01*
X54182Y22032D01*
X54272Y21942D01*
X54321Y21824D01*
X54321Y21176D01*
X54272Y21058D01*
X54182Y20968D01*
X54064Y20919D01*
X53936Y20919D01*
G37*
%LPD*%
%LPC*%
G36*
X42436Y20919D02*
X42436Y20919D01*
X42318Y20968D01*
X42228Y21058D01*
X42179Y21176D01*
X42179Y21824D01*
X42228Y21942D01*
X42318Y22032D01*
X42436Y22081D01*
X42564Y22081D01*
X42682Y22032D01*
X42772Y21942D01*
X42821Y21824D01*
X42821Y21176D01*
X42772Y21058D01*
X42682Y20968D01*
X42564Y20919D01*
X42436Y20919D01*
G37*
%LPD*%
%LPC*%
G36*
X43436Y20919D02*
X43436Y20919D01*
X43318Y20968D01*
X43228Y21058D01*
X43179Y21176D01*
X43179Y21824D01*
X43228Y21942D01*
X43318Y22032D01*
X43436Y22081D01*
X43564Y22081D01*
X43682Y22032D01*
X43772Y21942D01*
X43821Y21824D01*
X43821Y21176D01*
X43772Y21058D01*
X43682Y20968D01*
X43564Y20919D01*
X43436Y20919D01*
G37*
%LPD*%
%LPC*%
G36*
X38436Y20919D02*
X38436Y20919D01*
X38318Y20968D01*
X38228Y21058D01*
X38179Y21176D01*
X38179Y21824D01*
X38228Y21942D01*
X38318Y22032D01*
X38436Y22081D01*
X38564Y22081D01*
X38682Y22032D01*
X38772Y21942D01*
X38821Y21824D01*
X38821Y21176D01*
X38772Y21058D01*
X38682Y20968D01*
X38564Y20919D01*
X38436Y20919D01*
G37*
%LPD*%
%LPC*%
G36*
X39436Y20919D02*
X39436Y20919D01*
X39318Y20968D01*
X39228Y21058D01*
X39179Y21176D01*
X39179Y21824D01*
X39228Y21942D01*
X39318Y22032D01*
X39436Y22081D01*
X39564Y22081D01*
X39682Y22032D01*
X39772Y21942D01*
X39821Y21824D01*
X39821Y21176D01*
X39772Y21058D01*
X39682Y20968D01*
X39564Y20919D01*
X39436Y20919D01*
G37*
%LPD*%
%LPC*%
G36*
X54936Y20919D02*
X54936Y20919D01*
X54818Y20968D01*
X54728Y21058D01*
X54679Y21176D01*
X54679Y21824D01*
X54728Y21942D01*
X54818Y22032D01*
X54936Y22081D01*
X55064Y22081D01*
X55182Y22032D01*
X55272Y21942D01*
X55321Y21824D01*
X55321Y21176D01*
X55272Y21058D01*
X55182Y20968D01*
X55064Y20919D01*
X54936Y20919D01*
G37*
%LPD*%
%LPC*%
G36*
X40436Y20919D02*
X40436Y20919D01*
X40318Y20968D01*
X40228Y21058D01*
X40179Y21176D01*
X40179Y21824D01*
X40228Y21942D01*
X40318Y22032D01*
X40436Y22081D01*
X40564Y22081D01*
X40682Y22032D01*
X40772Y21942D01*
X40821Y21824D01*
X40821Y21176D01*
X40772Y21058D01*
X40682Y20968D01*
X40564Y20919D01*
X40436Y20919D01*
G37*
%LPD*%
%LPC*%
G36*
X50936Y20919D02*
X50936Y20919D01*
X50818Y20968D01*
X50728Y21058D01*
X50679Y21176D01*
X50679Y21824D01*
X50728Y21942D01*
X50818Y22032D01*
X50936Y22081D01*
X51064Y22081D01*
X51182Y22032D01*
X51272Y21942D01*
X51321Y21824D01*
X51321Y21176D01*
X51272Y21058D01*
X51182Y20968D01*
X51064Y20919D01*
X50936Y20919D01*
G37*
%LPD*%
%LPC*%
G36*
X49936Y20919D02*
X49936Y20919D01*
X49818Y20968D01*
X49728Y21058D01*
X49679Y21176D01*
X49679Y21824D01*
X49728Y21942D01*
X49818Y22032D01*
X49936Y22081D01*
X50064Y22081D01*
X50182Y22032D01*
X50272Y21942D01*
X50321Y21824D01*
X50321Y21176D01*
X50272Y21058D01*
X50182Y20968D01*
X50064Y20919D01*
X49936Y20919D01*
G37*
%LPD*%
%LPC*%
G36*
X48936Y20919D02*
X48936Y20919D01*
X48818Y20968D01*
X48728Y21058D01*
X48679Y21176D01*
X48679Y21824D01*
X48728Y21942D01*
X48818Y22032D01*
X48936Y22081D01*
X49064Y22081D01*
X49182Y22032D01*
X49272Y21942D01*
X49321Y21824D01*
X49321Y21176D01*
X49272Y21058D01*
X49182Y20968D01*
X49064Y20919D01*
X48936Y20919D01*
G37*
%LPD*%
%LPC*%
G36*
X45436Y20919D02*
X45436Y20919D01*
X45318Y20968D01*
X45228Y21058D01*
X45179Y21176D01*
X45179Y21824D01*
X45228Y21942D01*
X45318Y22032D01*
X45436Y22081D01*
X45564Y22081D01*
X45682Y22032D01*
X45772Y21942D01*
X45821Y21824D01*
X45821Y21176D01*
X45772Y21058D01*
X45682Y20968D01*
X45564Y20919D01*
X45436Y20919D01*
G37*
%LPD*%
%LPC*%
G36*
X52936Y20919D02*
X52936Y20919D01*
X52818Y20968D01*
X52728Y21058D01*
X52679Y21176D01*
X52679Y21824D01*
X52728Y21942D01*
X52818Y22032D01*
X52936Y22081D01*
X53064Y22081D01*
X53182Y22032D01*
X53272Y21942D01*
X53321Y21824D01*
X53321Y21176D01*
X53272Y21058D01*
X53182Y20968D01*
X53064Y20919D01*
X52936Y20919D01*
G37*
%LPD*%
%LPC*%
G36*
X40436Y8919D02*
X40436Y8919D01*
X40318Y8968D01*
X40228Y9058D01*
X40179Y9176D01*
X40179Y9824D01*
X40228Y9942D01*
X40318Y10032D01*
X40436Y10081D01*
X40564Y10081D01*
X40682Y10032D01*
X40772Y9942D01*
X40821Y9824D01*
X40821Y9176D01*
X40772Y9058D01*
X40682Y8968D01*
X40564Y8919D01*
X40436Y8919D01*
G37*
%LPD*%
%LPC*%
G36*
X41436Y20919D02*
X41436Y20919D01*
X41318Y20968D01*
X41228Y21058D01*
X41179Y21176D01*
X41179Y21824D01*
X41228Y21942D01*
X41318Y22032D01*
X41436Y22081D01*
X41564Y22081D01*
X41682Y22032D01*
X41772Y21942D01*
X41821Y21824D01*
X41821Y21176D01*
X41772Y21058D01*
X41682Y20968D01*
X41564Y20919D01*
X41436Y20919D01*
G37*
%LPD*%
%LPC*%
G36*
X41436Y8919D02*
X41436Y8919D01*
X41318Y8968D01*
X41228Y9058D01*
X41179Y9176D01*
X41179Y9824D01*
X41228Y9942D01*
X41318Y10032D01*
X41436Y10081D01*
X41564Y10081D01*
X41682Y10032D01*
X41772Y9942D01*
X41821Y9824D01*
X41821Y9176D01*
X41772Y9058D01*
X41682Y8968D01*
X41564Y8919D01*
X41436Y8919D01*
G37*
%LPD*%
%LPC*%
G36*
X44436Y8919D02*
X44436Y8919D01*
X44318Y8968D01*
X44228Y9058D01*
X44179Y9176D01*
X44179Y9824D01*
X44228Y9942D01*
X44318Y10032D01*
X44436Y10081D01*
X44564Y10081D01*
X44682Y10032D01*
X44772Y9942D01*
X44821Y9824D01*
X44821Y9176D01*
X44772Y9058D01*
X44682Y8968D01*
X44564Y8919D01*
X44436Y8919D01*
G37*
%LPD*%
%LPC*%
G36*
X45436Y8919D02*
X45436Y8919D01*
X45318Y8968D01*
X45228Y9058D01*
X45179Y9176D01*
X45179Y9824D01*
X45228Y9942D01*
X45318Y10032D01*
X45436Y10081D01*
X45564Y10081D01*
X45682Y10032D01*
X45772Y9942D01*
X45821Y9824D01*
X45821Y9176D01*
X45772Y9058D01*
X45682Y8968D01*
X45564Y8919D01*
X45436Y8919D01*
G37*
%LPD*%
%LPC*%
G36*
X46436Y8919D02*
X46436Y8919D01*
X46318Y8968D01*
X46228Y9058D01*
X46179Y9176D01*
X46179Y9824D01*
X46228Y9942D01*
X46318Y10032D01*
X46436Y10081D01*
X46564Y10081D01*
X46682Y10032D01*
X46772Y9942D01*
X46821Y9824D01*
X46821Y9176D01*
X46772Y9058D01*
X46682Y8968D01*
X46564Y8919D01*
X46436Y8919D01*
G37*
%LPD*%
%LPC*%
G36*
X50436Y8919D02*
X50436Y8919D01*
X50318Y8968D01*
X50228Y9058D01*
X50179Y9176D01*
X50179Y9824D01*
X50228Y9942D01*
X50318Y10032D01*
X50436Y10081D01*
X50564Y10081D01*
X50682Y10032D01*
X50772Y9942D01*
X50821Y9824D01*
X50821Y9176D01*
X50772Y9058D01*
X50682Y8968D01*
X50564Y8919D01*
X50436Y8919D01*
G37*
%LPD*%
%LPC*%
G36*
X51436Y8919D02*
X51436Y8919D01*
X51318Y8968D01*
X51228Y9058D01*
X51179Y9176D01*
X51179Y9824D01*
X51228Y9942D01*
X51318Y10032D01*
X51436Y10081D01*
X51564Y10081D01*
X51682Y10032D01*
X51772Y9942D01*
X51821Y9824D01*
X51821Y9176D01*
X51772Y9058D01*
X51682Y8968D01*
X51564Y8919D01*
X51436Y8919D01*
G37*
%LPD*%
%LPC*%
G36*
X47936Y17919D02*
X47936Y17919D01*
X47818Y17968D01*
X47728Y18058D01*
X47679Y18176D01*
X47679Y18824D01*
X47728Y18942D01*
X47818Y19032D01*
X47936Y19081D01*
X48064Y19081D01*
X48182Y19032D01*
X48272Y18942D01*
X48321Y18824D01*
X48321Y18176D01*
X48272Y18058D01*
X48182Y17968D01*
X48064Y17919D01*
X47936Y17919D01*
G37*
%LPD*%
%LPC*%
G36*
X38436Y17919D02*
X38436Y17919D01*
X38318Y17968D01*
X38228Y18058D01*
X38179Y18176D01*
X38179Y18824D01*
X38228Y18942D01*
X38318Y19032D01*
X38436Y19081D01*
X38564Y19081D01*
X38682Y19032D01*
X38772Y18942D01*
X38821Y18824D01*
X38821Y18176D01*
X38772Y18058D01*
X38682Y17968D01*
X38564Y17919D01*
X38436Y17919D01*
G37*
%LPD*%
%LPC*%
G36*
X42436Y17919D02*
X42436Y17919D01*
X42318Y17968D01*
X42228Y18058D01*
X42179Y18176D01*
X42179Y18824D01*
X42228Y18942D01*
X42318Y19032D01*
X42436Y19081D01*
X42564Y19081D01*
X42682Y19032D01*
X42772Y18942D01*
X42821Y18824D01*
X42821Y18176D01*
X42772Y18058D01*
X42682Y17968D01*
X42564Y17919D01*
X42436Y17919D01*
G37*
%LPD*%
%LPC*%
G36*
X52436Y8919D02*
X52436Y8919D01*
X52318Y8968D01*
X52228Y9058D01*
X52179Y9176D01*
X52179Y9824D01*
X52228Y9942D01*
X52318Y10032D01*
X52436Y10081D01*
X52564Y10081D01*
X52682Y10032D01*
X52772Y9942D01*
X52821Y9824D01*
X52821Y9176D01*
X52772Y9058D01*
X52682Y8968D01*
X52564Y8919D01*
X52436Y8919D01*
G37*
%LPD*%
%LPC*%
G36*
X48936Y17919D02*
X48936Y17919D01*
X48818Y17968D01*
X48728Y18058D01*
X48679Y18176D01*
X48679Y18824D01*
X48728Y18942D01*
X48818Y19032D01*
X48936Y19081D01*
X49064Y19081D01*
X49182Y19032D01*
X49272Y18942D01*
X49321Y18824D01*
X49321Y18176D01*
X49272Y18058D01*
X49182Y17968D01*
X49064Y17919D01*
X48936Y17919D01*
G37*
%LPD*%
%LPC*%
G36*
X49936Y17919D02*
X49936Y17919D01*
X49818Y17968D01*
X49728Y18058D01*
X49679Y18176D01*
X49679Y18824D01*
X49728Y18942D01*
X49818Y19032D01*
X49936Y19081D01*
X50064Y19081D01*
X50182Y19032D01*
X50272Y18942D01*
X50321Y18824D01*
X50321Y18176D01*
X50272Y18058D01*
X50182Y17968D01*
X50064Y17919D01*
X49936Y17919D01*
G37*
%LPD*%
%LPC*%
G36*
X50936Y17919D02*
X50936Y17919D01*
X50818Y17968D01*
X50728Y18058D01*
X50679Y18176D01*
X50679Y18824D01*
X50728Y18942D01*
X50818Y19032D01*
X50936Y19081D01*
X51064Y19081D01*
X51182Y19032D01*
X51272Y18942D01*
X51321Y18824D01*
X51321Y18176D01*
X51272Y18058D01*
X51182Y17968D01*
X51064Y17919D01*
X50936Y17919D01*
G37*
%LPD*%
%LPC*%
G36*
X51936Y17919D02*
X51936Y17919D01*
X51818Y17968D01*
X51728Y18058D01*
X51679Y18176D01*
X51679Y18824D01*
X51728Y18942D01*
X51818Y19032D01*
X51936Y19081D01*
X52064Y19081D01*
X52182Y19032D01*
X52272Y18942D01*
X52321Y18824D01*
X52321Y18176D01*
X52272Y18058D01*
X52182Y17968D01*
X52064Y17919D01*
X51936Y17919D01*
G37*
%LPD*%
%LPC*%
G36*
X52936Y17919D02*
X52936Y17919D01*
X52818Y17968D01*
X52728Y18058D01*
X52679Y18176D01*
X52679Y18824D01*
X52728Y18942D01*
X52818Y19032D01*
X52936Y19081D01*
X53064Y19081D01*
X53182Y19032D01*
X53272Y18942D01*
X53321Y18824D01*
X53321Y18176D01*
X53272Y18058D01*
X53182Y17968D01*
X53064Y17919D01*
X52936Y17919D01*
G37*
%LPD*%
%LPC*%
G36*
X53936Y17919D02*
X53936Y17919D01*
X53818Y17968D01*
X53728Y18058D01*
X53679Y18176D01*
X53679Y18824D01*
X53728Y18942D01*
X53818Y19032D01*
X53936Y19081D01*
X54064Y19081D01*
X54182Y19032D01*
X54272Y18942D01*
X54321Y18824D01*
X54321Y18176D01*
X54272Y18058D01*
X54182Y17968D01*
X54064Y17919D01*
X53936Y17919D01*
G37*
%LPD*%
%LPC*%
G36*
X54936Y17919D02*
X54936Y17919D01*
X54818Y17968D01*
X54728Y18058D01*
X54679Y18176D01*
X54679Y18824D01*
X54728Y18942D01*
X54818Y19032D01*
X54936Y19081D01*
X55064Y19081D01*
X55182Y19032D01*
X55272Y18942D01*
X55321Y18824D01*
X55321Y18176D01*
X55272Y18058D01*
X55182Y17968D01*
X55064Y17919D01*
X54936Y17919D01*
G37*
%LPD*%
%LPC*%
G36*
X55936Y17919D02*
X55936Y17919D01*
X55818Y17968D01*
X55728Y18058D01*
X55679Y18176D01*
X55679Y18824D01*
X55728Y18942D01*
X55818Y19032D01*
X55936Y19081D01*
X56064Y19081D01*
X56182Y19032D01*
X56272Y18942D01*
X56321Y18824D01*
X56321Y18176D01*
X56272Y18058D01*
X56182Y17968D01*
X56064Y17919D01*
X55936Y17919D01*
G37*
%LPD*%
%LPC*%
G36*
X53436Y8919D02*
X53436Y8919D01*
X53318Y8968D01*
X53228Y9058D01*
X53179Y9176D01*
X53179Y9824D01*
X53228Y9942D01*
X53318Y10032D01*
X53436Y10081D01*
X53564Y10081D01*
X53682Y10032D01*
X53772Y9942D01*
X53821Y9824D01*
X53821Y9176D01*
X53772Y9058D01*
X53682Y8968D01*
X53564Y8919D01*
X53436Y8919D01*
G37*
%LPD*%
%LPC*%
G36*
X55436Y8919D02*
X55436Y8919D01*
X55318Y8968D01*
X55228Y9058D01*
X55179Y9176D01*
X55179Y9824D01*
X55228Y9942D01*
X55318Y10032D01*
X55436Y10081D01*
X55564Y10081D01*
X55682Y10032D01*
X55772Y9942D01*
X55821Y9824D01*
X55821Y9176D01*
X55772Y9058D01*
X55682Y8968D01*
X55564Y8919D01*
X55436Y8919D01*
G37*
%LPD*%
%LPC*%
G36*
X56436Y8919D02*
X56436Y8919D01*
X56318Y8968D01*
X56228Y9058D01*
X56179Y9176D01*
X56179Y9824D01*
X56228Y9942D01*
X56318Y10032D01*
X56436Y10081D01*
X56564Y10081D01*
X56682Y10032D01*
X56772Y9942D01*
X56821Y9824D01*
X56821Y9176D01*
X56772Y9058D01*
X56682Y8968D01*
X56564Y8919D01*
X56436Y8919D01*
G37*
%LPD*%
%LPC*%
G36*
X48436Y33919D02*
X48436Y33919D01*
X48318Y33968D01*
X48228Y34058D01*
X48179Y34176D01*
X48179Y34824D01*
X48228Y34942D01*
X48318Y35032D01*
X48436Y35081D01*
X48564Y35081D01*
X48682Y35032D01*
X48772Y34942D01*
X48821Y34824D01*
X48821Y34176D01*
X48772Y34058D01*
X48682Y33968D01*
X48564Y33919D01*
X48436Y33919D01*
G37*
%LPD*%
%LPC*%
G36*
X43436Y8919D02*
X43436Y8919D01*
X43318Y8968D01*
X43228Y9058D01*
X43179Y9176D01*
X43179Y9824D01*
X43228Y9942D01*
X43318Y10032D01*
X43436Y10081D01*
X43564Y10081D01*
X43682Y10032D01*
X43772Y9942D01*
X43821Y9824D01*
X43821Y9176D01*
X43772Y9058D01*
X43682Y8968D01*
X43564Y8919D01*
X43436Y8919D01*
G37*
%LPD*%
%LPC*%
G36*
X54436Y8919D02*
X54436Y8919D01*
X54318Y8968D01*
X54228Y9058D01*
X54179Y9176D01*
X54179Y9824D01*
X54228Y9942D01*
X54318Y10032D01*
X54436Y10081D01*
X54564Y10081D01*
X54682Y10032D01*
X54772Y9942D01*
X54821Y9824D01*
X54821Y9176D01*
X54772Y9058D01*
X54682Y8968D01*
X54564Y8919D01*
X54436Y8919D01*
G37*
%LPD*%
%LPC*%
G36*
X38436Y14919D02*
X38436Y14919D01*
X38318Y14968D01*
X38228Y15058D01*
X38179Y15176D01*
X38179Y15824D01*
X38228Y15942D01*
X38318Y16032D01*
X38436Y16081D01*
X38564Y16081D01*
X38682Y16032D01*
X38772Y15942D01*
X38821Y15824D01*
X38821Y15176D01*
X38772Y15058D01*
X38682Y14968D01*
X38564Y14919D01*
X38436Y14919D01*
G37*
%LPD*%
%LPC*%
G36*
X39436Y14919D02*
X39436Y14919D01*
X39318Y14968D01*
X39228Y15058D01*
X39179Y15176D01*
X39179Y15824D01*
X39228Y15942D01*
X39318Y16032D01*
X39436Y16081D01*
X39564Y16081D01*
X39682Y16032D01*
X39772Y15942D01*
X39821Y15824D01*
X39821Y15176D01*
X39772Y15058D01*
X39682Y14968D01*
X39564Y14919D01*
X39436Y14919D01*
G37*
%LPD*%
%LPC*%
G36*
X40436Y14919D02*
X40436Y14919D01*
X40318Y14968D01*
X40228Y15058D01*
X40179Y15176D01*
X40179Y15824D01*
X40228Y15942D01*
X40318Y16032D01*
X40436Y16081D01*
X40564Y16081D01*
X40682Y16032D01*
X40772Y15942D01*
X40821Y15824D01*
X40821Y15176D01*
X40772Y15058D01*
X40682Y14968D01*
X40564Y14919D01*
X40436Y14919D01*
G37*
%LPD*%
%LPC*%
G36*
X41436Y14919D02*
X41436Y14919D01*
X41318Y14968D01*
X41228Y15058D01*
X41179Y15176D01*
X41179Y15824D01*
X41228Y15942D01*
X41318Y16032D01*
X41436Y16081D01*
X41564Y16081D01*
X41682Y16032D01*
X41772Y15942D01*
X41821Y15824D01*
X41821Y15176D01*
X41772Y15058D01*
X41682Y14968D01*
X41564Y14919D01*
X41436Y14919D01*
G37*
%LPD*%
%LPC*%
G36*
X54936Y14919D02*
X54936Y14919D01*
X54818Y14968D01*
X54728Y15058D01*
X54679Y15176D01*
X54679Y15824D01*
X54728Y15942D01*
X54818Y16032D01*
X54936Y16081D01*
X55064Y16081D01*
X55182Y16032D01*
X55272Y15942D01*
X55321Y15824D01*
X55321Y15176D01*
X55272Y15058D01*
X55182Y14968D01*
X55064Y14919D01*
X54936Y14919D01*
G37*
%LPD*%
%LPC*%
G36*
X53936Y14919D02*
X53936Y14919D01*
X53818Y14968D01*
X53728Y15058D01*
X53679Y15176D01*
X53679Y15824D01*
X53728Y15942D01*
X53818Y16032D01*
X53936Y16081D01*
X54064Y16081D01*
X54182Y16032D01*
X54272Y15942D01*
X54321Y15824D01*
X54321Y15176D01*
X54272Y15058D01*
X54182Y14968D01*
X54064Y14919D01*
X53936Y14919D01*
G37*
%LPD*%
%LPC*%
G36*
X42436Y14919D02*
X42436Y14919D01*
X42318Y14968D01*
X42228Y15058D01*
X42179Y15176D01*
X42179Y15824D01*
X42228Y15942D01*
X42318Y16032D01*
X42436Y16081D01*
X42564Y16081D01*
X42682Y16032D01*
X42772Y15942D01*
X42821Y15824D01*
X42821Y15176D01*
X42772Y15058D01*
X42682Y14968D01*
X42564Y14919D01*
X42436Y14919D01*
G37*
%LPD*%
%LPC*%
G36*
X43436Y14919D02*
X43436Y14919D01*
X43318Y14968D01*
X43228Y15058D01*
X43179Y15176D01*
X43179Y15824D01*
X43228Y15942D01*
X43318Y16032D01*
X43436Y16081D01*
X43564Y16081D01*
X43682Y16032D01*
X43772Y15942D01*
X43821Y15824D01*
X43821Y15176D01*
X43772Y15058D01*
X43682Y14968D01*
X43564Y14919D01*
X43436Y14919D01*
G37*
%LPD*%
%LPC*%
G36*
X44436Y14919D02*
X44436Y14919D01*
X44318Y14968D01*
X44228Y15058D01*
X44179Y15176D01*
X44179Y15824D01*
X44228Y15942D01*
X44318Y16032D01*
X44436Y16081D01*
X44564Y16081D01*
X44682Y16032D01*
X44772Y15942D01*
X44821Y15824D01*
X44821Y15176D01*
X44772Y15058D01*
X44682Y14968D01*
X44564Y14919D01*
X44436Y14919D01*
G37*
%LPD*%
%LPC*%
G36*
X52936Y14919D02*
X52936Y14919D01*
X52818Y14968D01*
X52728Y15058D01*
X52679Y15176D01*
X52679Y15824D01*
X52728Y15942D01*
X52818Y16032D01*
X52936Y16081D01*
X53064Y16081D01*
X53182Y16032D01*
X53272Y15942D01*
X53321Y15824D01*
X53321Y15176D01*
X53272Y15058D01*
X53182Y14968D01*
X53064Y14919D01*
X52936Y14919D01*
G37*
%LPD*%
%LPC*%
G36*
X49936Y14919D02*
X49936Y14919D01*
X49818Y14968D01*
X49728Y15058D01*
X49679Y15176D01*
X49679Y15824D01*
X49728Y15942D01*
X49818Y16032D01*
X49936Y16081D01*
X50064Y16081D01*
X50182Y16032D01*
X50272Y15942D01*
X50321Y15824D01*
X50321Y15176D01*
X50272Y15058D01*
X50182Y14968D01*
X50064Y14919D01*
X49936Y14919D01*
G37*
%LPD*%
%LPC*%
G36*
X45436Y14919D02*
X45436Y14919D01*
X45318Y14968D01*
X45228Y15058D01*
X45179Y15176D01*
X45179Y15824D01*
X45228Y15942D01*
X45318Y16032D01*
X45436Y16081D01*
X45564Y16081D01*
X45682Y16032D01*
X45772Y15942D01*
X45821Y15824D01*
X45821Y15176D01*
X45772Y15058D01*
X45682Y14968D01*
X45564Y14919D01*
X45436Y14919D01*
G37*
%LPD*%
%LPC*%
G36*
X48936Y14919D02*
X48936Y14919D01*
X48818Y14968D01*
X48728Y15058D01*
X48679Y15176D01*
X48679Y15824D01*
X48728Y15942D01*
X48818Y16032D01*
X48936Y16081D01*
X49064Y16081D01*
X49182Y16032D01*
X49272Y15942D01*
X49321Y15824D01*
X49321Y15176D01*
X49272Y15058D01*
X49182Y14968D01*
X49064Y14919D01*
X48936Y14919D01*
G37*
%LPD*%
%LPC*%
G36*
X51936Y14919D02*
X51936Y14919D01*
X51818Y14968D01*
X51728Y15058D01*
X51679Y15176D01*
X51679Y15824D01*
X51728Y15942D01*
X51818Y16032D01*
X51936Y16081D01*
X52064Y16081D01*
X52182Y16032D01*
X52272Y15942D01*
X52321Y15824D01*
X52321Y15176D01*
X52272Y15058D01*
X52182Y14968D01*
X52064Y14919D01*
X51936Y14919D01*
G37*
%LPD*%
%LPC*%
G36*
X50936Y14919D02*
X50936Y14919D01*
X50818Y14968D01*
X50728Y15058D01*
X50679Y15176D01*
X50679Y15824D01*
X50728Y15942D01*
X50818Y16032D01*
X50936Y16081D01*
X51064Y16081D01*
X51182Y16032D01*
X51272Y15942D01*
X51321Y15824D01*
X51321Y15176D01*
X51272Y15058D01*
X51182Y14968D01*
X51064Y14919D01*
X50936Y14919D01*
G37*
%LPD*%
%LPC*%
G36*
X42436Y8919D02*
X42436Y8919D01*
X42318Y8968D01*
X42228Y9058D01*
X42179Y9176D01*
X42179Y9824D01*
X42228Y9942D01*
X42318Y10032D01*
X42436Y10081D01*
X42564Y10081D01*
X42682Y10032D01*
X42772Y9942D01*
X42821Y9824D01*
X42821Y9176D01*
X42772Y9058D01*
X42682Y8968D01*
X42564Y8919D01*
X42436Y8919D01*
G37*
%LPD*%
%LPC*%
G36*
X55936Y11919D02*
X55936Y11919D01*
X55818Y11968D01*
X55728Y12058D01*
X55679Y12176D01*
X55679Y12824D01*
X55728Y12942D01*
X55818Y13032D01*
X55936Y13081D01*
X56064Y13081D01*
X56182Y13032D01*
X56272Y12942D01*
X56321Y12824D01*
X56321Y12176D01*
X56272Y12058D01*
X56182Y11968D01*
X56064Y11919D01*
X55936Y11919D01*
G37*
%LPD*%
%LPC*%
G36*
X42436Y11919D02*
X42436Y11919D01*
X42318Y11968D01*
X42228Y12058D01*
X42179Y12176D01*
X42179Y12824D01*
X42228Y12942D01*
X42318Y13032D01*
X42436Y13081D01*
X42564Y13081D01*
X42682Y13032D01*
X42772Y12942D01*
X42821Y12824D01*
X42821Y12176D01*
X42772Y12058D01*
X42682Y11968D01*
X42564Y11919D01*
X42436Y11919D01*
G37*
%LPD*%
%LPC*%
G36*
X47936Y11919D02*
X47936Y11919D01*
X47818Y11968D01*
X47728Y12058D01*
X47679Y12176D01*
X47679Y12824D01*
X47728Y12942D01*
X47818Y13032D01*
X47936Y13081D01*
X48064Y13081D01*
X48182Y13032D01*
X48272Y12942D01*
X48321Y12824D01*
X48321Y12176D01*
X48272Y12058D01*
X48182Y11968D01*
X48064Y11919D01*
X47936Y11919D01*
G37*
%LPD*%
%LPC*%
G36*
X49936Y11919D02*
X49936Y11919D01*
X49818Y11968D01*
X49728Y12058D01*
X49679Y12176D01*
X49679Y12824D01*
X49728Y12942D01*
X49818Y13032D01*
X49936Y13081D01*
X50064Y13081D01*
X50182Y13032D01*
X50272Y12942D01*
X50321Y12824D01*
X50321Y12176D01*
X50272Y12058D01*
X50182Y11968D01*
X50064Y11919D01*
X49936Y11919D01*
G37*
%LPD*%
%LPC*%
G36*
X50936Y11919D02*
X50936Y11919D01*
X50818Y11968D01*
X50728Y12058D01*
X50679Y12176D01*
X50679Y12824D01*
X50728Y12942D01*
X50818Y13032D01*
X50936Y13081D01*
X51064Y13081D01*
X51182Y13032D01*
X51272Y12942D01*
X51321Y12824D01*
X51321Y12176D01*
X51272Y12058D01*
X51182Y11968D01*
X51064Y11919D01*
X50936Y11919D01*
G37*
%LPD*%
%LPC*%
G36*
X51936Y11919D02*
X51936Y11919D01*
X51818Y11968D01*
X51728Y12058D01*
X51679Y12176D01*
X51679Y12824D01*
X51728Y12942D01*
X51818Y13032D01*
X51936Y13081D01*
X52064Y13081D01*
X52182Y13032D01*
X52272Y12942D01*
X52321Y12824D01*
X52321Y12176D01*
X52272Y12058D01*
X52182Y11968D01*
X52064Y11919D01*
X51936Y11919D01*
G37*
%LPD*%
%LPC*%
G36*
X54936Y11919D02*
X54936Y11919D01*
X54818Y11968D01*
X54728Y12058D01*
X54679Y12176D01*
X54679Y12824D01*
X54728Y12942D01*
X54818Y13032D01*
X54936Y13081D01*
X55064Y13081D01*
X55182Y13032D01*
X55272Y12942D01*
X55321Y12824D01*
X55321Y12176D01*
X55272Y12058D01*
X55182Y11968D01*
X55064Y11919D01*
X54936Y11919D01*
G37*
%LPD*%
%LPC*%
G36*
X48936Y11919D02*
X48936Y11919D01*
X48818Y11968D01*
X48728Y12058D01*
X48679Y12176D01*
X48679Y12824D01*
X48728Y12942D01*
X48818Y13032D01*
X48936Y13081D01*
X49064Y13081D01*
X49182Y13032D01*
X49272Y12942D01*
X49321Y12824D01*
X49321Y12176D01*
X49272Y12058D01*
X49182Y11968D01*
X49064Y11919D01*
X48936Y11919D01*
G37*
%LPD*%
%LPC*%
G36*
X52340Y23114D02*
X52340Y23114D01*
X52114Y23340D01*
X52114Y23660D01*
X52340Y23886D01*
X52661Y23886D01*
X52663Y23886D01*
X52666Y23886D01*
X52668Y23887D01*
X52670Y23887D01*
X52673Y23889D01*
X52675Y23890D01*
X52677Y23891D01*
X52678Y23892D01*
X52680Y23894D01*
X52682Y23895D01*
X52681Y23893D01*
X52680Y23891D01*
X52679Y23889D01*
X52678Y23887D01*
X52678Y23885D01*
X52677Y23882D01*
X52678Y23880D01*
X52677Y23878D01*
X52678Y23875D01*
X52678Y23872D01*
X52679Y23870D01*
X52680Y23869D01*
X52681Y23866D01*
X52682Y23863D01*
X52684Y23861D01*
X52685Y23861D01*
X52685Y23860D01*
X52686Y23859D01*
X52886Y23660D01*
X52886Y23340D01*
X52660Y23114D01*
X52340Y23114D01*
G37*
%LPD*%
%LPC*%
G36*
X49340Y4614D02*
X49340Y4614D01*
X49114Y4840D01*
X49114Y5160D01*
X49340Y5386D01*
X49660Y5386D01*
X49886Y5160D01*
X49886Y4840D01*
X49660Y4614D01*
X49340Y4614D01*
G37*
%LPD*%
%LPC*%
G36*
X59351Y4139D02*
X59351Y4139D01*
X59139Y4351D01*
X59139Y4649D01*
X59351Y4861D01*
X59649Y4861D01*
X59861Y4649D01*
X59861Y4351D01*
X59649Y4139D01*
X59351Y4139D01*
G37*
%LPD*%
%LPC*%
G36*
X60351Y9139D02*
X60351Y9139D01*
X60139Y9351D01*
X60139Y9649D01*
X60351Y9861D01*
X60649Y9861D01*
X60861Y9649D01*
X60861Y9351D01*
X60649Y9139D01*
X60351Y9139D01*
G37*
%LPD*%
%LPC*%
G36*
X59351Y13139D02*
X59351Y13139D01*
X59139Y13351D01*
X59139Y13649D01*
X59351Y13861D01*
X59649Y13861D01*
X59861Y13649D01*
X59861Y13351D01*
X59649Y13139D01*
X59351Y13139D01*
G37*
%LPD*%
%LPC*%
G36*
X60351Y13139D02*
X60351Y13139D01*
X60139Y13351D01*
X60139Y13649D01*
X60351Y13861D01*
X60649Y13861D01*
X60861Y13649D01*
X60861Y13351D01*
X60649Y13139D01*
X60351Y13139D01*
G37*
%LPD*%
%LPC*%
G36*
X60351Y4139D02*
X60351Y4139D01*
X60139Y4351D01*
X60139Y4649D01*
X60351Y4861D01*
X60649Y4861D01*
X60861Y4649D01*
X60861Y4351D01*
X60649Y4139D01*
X60351Y4139D01*
G37*
%LPD*%
%LPC*%
G36*
X59351Y5139D02*
X59351Y5139D01*
X59139Y5351D01*
X59139Y5649D01*
X59351Y5861D01*
X59649Y5861D01*
X59861Y5649D01*
X59861Y5351D01*
X59649Y5139D01*
X59351Y5139D01*
G37*
%LPD*%
%LPC*%
G36*
X59351Y9139D02*
X59351Y9139D01*
X59139Y9351D01*
X59139Y9649D01*
X59351Y9861D01*
X59649Y9861D01*
X59861Y9649D01*
X59861Y9351D01*
X59649Y9139D01*
X59351Y9139D01*
G37*
%LPD*%
%LPC*%
G36*
X59351Y12139D02*
X59351Y12139D01*
X59139Y12351D01*
X59139Y12649D01*
X59351Y12861D01*
X59649Y12861D01*
X59861Y12649D01*
X59861Y12351D01*
X59649Y12139D01*
X59351Y12139D01*
G37*
%LPD*%
%LPC*%
G36*
X60351Y12139D02*
X60351Y12139D01*
X60139Y12351D01*
X60139Y12649D01*
X60351Y12861D01*
X60649Y12861D01*
X60861Y12649D01*
X60861Y12351D01*
X60649Y12139D01*
X60351Y12139D01*
G37*
%LPD*%
%LPC*%
G36*
X60351Y5139D02*
X60351Y5139D01*
X60139Y5351D01*
X60139Y5649D01*
X60351Y5861D01*
X60649Y5861D01*
X60861Y5649D01*
X60861Y5351D01*
X60649Y5139D01*
X60351Y5139D01*
G37*
%LPD*%
%LPC*%
G36*
X59351Y6139D02*
X59351Y6139D01*
X59139Y6351D01*
X59139Y6649D01*
X59351Y6861D01*
X59649Y6861D01*
X59861Y6649D01*
X59861Y6351D01*
X59649Y6139D01*
X59351Y6139D01*
G37*
%LPD*%
%LPC*%
G36*
X60351Y6139D02*
X60351Y6139D01*
X60139Y6351D01*
X60139Y6649D01*
X60351Y6861D01*
X60649Y6861D01*
X60861Y6649D01*
X60861Y6351D01*
X60649Y6139D01*
X60351Y6139D01*
G37*
%LPD*%
%LPC*%
G36*
X60351Y11139D02*
X60351Y11139D01*
X60139Y11351D01*
X60139Y11649D01*
X60351Y11861D01*
X60649Y11861D01*
X60861Y11649D01*
X60861Y11351D01*
X60649Y11139D01*
X60351Y11139D01*
G37*
%LPD*%
%LPC*%
G36*
X59351Y11139D02*
X59351Y11139D01*
X59139Y11351D01*
X59139Y11649D01*
X59351Y11861D01*
X59649Y11861D01*
X59861Y11649D01*
X59861Y11351D01*
X59649Y11139D01*
X59351Y11139D01*
G37*
%LPD*%
%LPC*%
G36*
X60351Y10139D02*
X60351Y10139D01*
X60139Y10351D01*
X60139Y10649D01*
X60351Y10861D01*
X60649Y10861D01*
X60861Y10649D01*
X60861Y10351D01*
X60649Y10139D01*
X60351Y10139D01*
G37*
%LPD*%
%LPC*%
G36*
X59351Y10139D02*
X59351Y10139D01*
X59139Y10351D01*
X59139Y10649D01*
X59351Y10861D01*
X59649Y10861D01*
X59861Y10649D01*
X59861Y10351D01*
X59649Y10139D01*
X59351Y10139D01*
G37*
%LPD*%
%LPC*%
G36*
X60351Y8139D02*
X60351Y8139D01*
X60139Y8351D01*
X60139Y8649D01*
X60351Y8861D01*
X60649Y8861D01*
X60861Y8649D01*
X60861Y8351D01*
X60649Y8139D01*
X60351Y8139D01*
G37*
%LPD*%
%LPC*%
G36*
X59351Y8139D02*
X59351Y8139D01*
X59139Y8351D01*
X59139Y8649D01*
X59351Y8861D01*
X59649Y8861D01*
X59861Y8649D01*
X59861Y8351D01*
X59649Y8139D01*
X59351Y8139D01*
G37*
%LPD*%
%LPC*%
G36*
X59351Y32139D02*
X59351Y32139D01*
X59139Y32351D01*
X59139Y32649D01*
X59351Y32861D01*
X59649Y32861D01*
X59861Y32649D01*
X59861Y32351D01*
X59649Y32139D01*
X59351Y32139D01*
G37*
%LPD*%
%LPC*%
G36*
X59351Y7139D02*
X59351Y7139D01*
X59139Y7351D01*
X59139Y7649D01*
X59351Y7861D01*
X59649Y7861D01*
X59861Y7649D01*
X59861Y7351D01*
X59649Y7139D01*
X59351Y7139D01*
G37*
%LPD*%
%LPC*%
G36*
X60351Y7139D02*
X60351Y7139D01*
X60139Y7351D01*
X60139Y7649D01*
X60351Y7861D01*
X60649Y7861D01*
X60861Y7649D01*
X60861Y7351D01*
X60649Y7139D01*
X60351Y7139D01*
G37*
%LPD*%
%LPC*%
G36*
X46559Y6559D02*
X46559Y6559D01*
X46559Y7116D01*
X46605Y7107D01*
X46671Y7080D01*
X46730Y7040D01*
X46780Y6990D01*
X46820Y6931D01*
X46847Y6865D01*
X46861Y6796D01*
X46861Y6559D01*
X46559Y6559D01*
G37*
%LPD*%
%LPC*%
G36*
X48059Y15559D02*
X48059Y15559D01*
X48059Y16116D01*
X48105Y16107D01*
X48171Y16080D01*
X48230Y16040D01*
X48280Y15990D01*
X48320Y15931D01*
X48347Y15865D01*
X48361Y15796D01*
X48361Y15559D01*
X48059Y15559D01*
G37*
%LPD*%
%LPC*%
G36*
X48059Y33059D02*
X48059Y33059D01*
X48059Y33616D01*
X48105Y33607D01*
X48171Y33580D01*
X48230Y33540D01*
X48280Y33490D01*
X48320Y33431D01*
X48347Y33365D01*
X48361Y33296D01*
X48361Y33059D01*
X48059Y33059D01*
G37*
%LPD*%
%LPC*%
G36*
X55059Y25559D02*
X55059Y25559D01*
X55059Y26116D01*
X55105Y26107D01*
X55171Y26080D01*
X55230Y26040D01*
X55280Y25990D01*
X55320Y25931D01*
X55347Y25865D01*
X55361Y25796D01*
X55361Y25559D01*
X55059Y25559D01*
G37*
%LPD*%
%LPC*%
G36*
X49559Y9559D02*
X49559Y9559D01*
X49559Y10116D01*
X49605Y10107D01*
X49671Y10080D01*
X49730Y10040D01*
X49780Y9990D01*
X49820Y9931D01*
X49847Y9865D01*
X49861Y9796D01*
X49861Y9559D01*
X49559Y9559D01*
G37*
%LPD*%
%LPC*%
G36*
X45559Y12559D02*
X45559Y12559D01*
X45559Y13116D01*
X45605Y13107D01*
X45671Y13080D01*
X45730Y13040D01*
X45780Y12990D01*
X45820Y12931D01*
X45847Y12865D01*
X45861Y12796D01*
X45861Y12559D01*
X45559Y12559D01*
G37*
%LPD*%
%LPC*%
G36*
X45559Y18559D02*
X45559Y18559D01*
X45559Y19116D01*
X45605Y19107D01*
X45671Y19080D01*
X45730Y19040D01*
X45780Y18990D01*
X45820Y18931D01*
X45847Y18865D01*
X45861Y18796D01*
X45861Y18559D01*
X45559Y18559D01*
G37*
%LPD*%
%LPC*%
G36*
X48059Y21559D02*
X48059Y21559D01*
X48059Y22116D01*
X48105Y22107D01*
X48171Y22080D01*
X48230Y22040D01*
X48280Y21990D01*
X48320Y21931D01*
X48347Y21865D01*
X48361Y21796D01*
X48361Y21559D01*
X48059Y21559D01*
G37*
%LPD*%
%LPC*%
G36*
X48059Y21441D02*
X48059Y21441D01*
X48361Y21441D01*
X48361Y21204D01*
X48347Y21135D01*
X48320Y21069D01*
X48280Y21010D01*
X48230Y20960D01*
X48171Y20920D01*
X48105Y20893D01*
X48059Y20884D01*
X48059Y21441D01*
G37*
%LPD*%
%LPC*%
G36*
X46559Y6441D02*
X46559Y6441D01*
X46861Y6441D01*
X46861Y6204D01*
X46847Y6135D01*
X46820Y6069D01*
X46780Y6010D01*
X46730Y5960D01*
X46671Y5920D01*
X46605Y5893D01*
X46559Y5884D01*
X46559Y6441D01*
G37*
%LPD*%
%LPC*%
G36*
X45559Y12441D02*
X45559Y12441D01*
X45861Y12441D01*
X45861Y12204D01*
X45847Y12135D01*
X45820Y12069D01*
X45780Y12010D01*
X45730Y11960D01*
X45671Y11920D01*
X45605Y11893D01*
X45559Y11884D01*
X45559Y12441D01*
G37*
%LPD*%
%LPC*%
G36*
X45559Y18441D02*
X45559Y18441D01*
X45861Y18441D01*
X45861Y18204D01*
X45847Y18135D01*
X45820Y18069D01*
X45780Y18010D01*
X45730Y17960D01*
X45671Y17920D01*
X45605Y17893D01*
X45559Y17884D01*
X45559Y18441D01*
G37*
%LPD*%
%LPC*%
G36*
X48059Y32941D02*
X48059Y32941D01*
X48361Y32941D01*
X48361Y32704D01*
X48347Y32635D01*
X48320Y32569D01*
X48280Y32510D01*
X48230Y32460D01*
X48171Y32420D01*
X48105Y32393D01*
X48059Y32384D01*
X48059Y32941D01*
G37*
%LPD*%
%LPC*%
G36*
X48059Y15441D02*
X48059Y15441D01*
X48361Y15441D01*
X48361Y15204D01*
X48347Y15135D01*
X48320Y15069D01*
X48280Y15010D01*
X48230Y14960D01*
X48171Y14920D01*
X48105Y14893D01*
X48059Y14884D01*
X48059Y15441D01*
G37*
%LPD*%
%LPC*%
G36*
X49559Y9441D02*
X49559Y9441D01*
X49861Y9441D01*
X49861Y9204D01*
X49847Y9135D01*
X49820Y9069D01*
X49780Y9010D01*
X49730Y8960D01*
X49671Y8920D01*
X49605Y8893D01*
X49559Y8884D01*
X49559Y9441D01*
G37*
%LPD*%
%LPC*%
G36*
X45139Y12559D02*
X45139Y12559D01*
X45139Y12796D01*
X45153Y12865D01*
X45180Y12931D01*
X45220Y12990D01*
X45270Y13040D01*
X45329Y13080D01*
X45395Y13107D01*
X45441Y13116D01*
X45441Y12559D01*
X45139Y12559D01*
G37*
%LPD*%
%LPC*%
G36*
X45139Y18559D02*
X45139Y18559D01*
X45139Y18796D01*
X45153Y18865D01*
X45180Y18931D01*
X45220Y18990D01*
X45270Y19040D01*
X45329Y19080D01*
X45395Y19107D01*
X45441Y19116D01*
X45441Y18559D01*
X45139Y18559D01*
G37*
%LPD*%
%LPC*%
G36*
X49395Y8893D02*
X49395Y8893D01*
X49329Y8920D01*
X49270Y8960D01*
X49220Y9010D01*
X49180Y9069D01*
X49153Y9135D01*
X49139Y9204D01*
X49139Y9441D01*
X49441Y9441D01*
X49441Y8884D01*
X49395Y8893D01*
G37*
%LPD*%
%LPC*%
G36*
X47639Y33059D02*
X47639Y33059D01*
X47639Y33296D01*
X47653Y33365D01*
X47680Y33431D01*
X47720Y33490D01*
X47770Y33540D01*
X47829Y33580D01*
X47895Y33607D01*
X47941Y33616D01*
X47941Y33059D01*
X47639Y33059D01*
G37*
%LPD*%
%LPC*%
G36*
X47895Y14893D02*
X47895Y14893D01*
X47829Y14920D01*
X47770Y14960D01*
X47720Y15010D01*
X47680Y15069D01*
X47653Y15135D01*
X47639Y15204D01*
X47639Y15441D01*
X47941Y15441D01*
X47941Y14884D01*
X47895Y14893D01*
G37*
%LPD*%
%LPC*%
G36*
X47895Y32393D02*
X47895Y32393D01*
X47829Y32420D01*
X47770Y32460D01*
X47720Y32510D01*
X47680Y32569D01*
X47653Y32635D01*
X47639Y32704D01*
X47639Y32941D01*
X47941Y32941D01*
X47941Y32384D01*
X47895Y32393D01*
G37*
%LPD*%
%LPC*%
G36*
X45395Y17893D02*
X45395Y17893D01*
X45329Y17920D01*
X45270Y17960D01*
X45220Y18010D01*
X45180Y18069D01*
X45153Y18135D01*
X45139Y18204D01*
X45139Y18441D01*
X45441Y18441D01*
X45441Y17884D01*
X45395Y17893D01*
G37*
%LPD*%
%LPC*%
G36*
X47639Y15559D02*
X47639Y15559D01*
X47639Y15796D01*
X47653Y15865D01*
X47680Y15931D01*
X47720Y15990D01*
X47770Y16040D01*
X47829Y16080D01*
X47895Y16107D01*
X47941Y16116D01*
X47941Y15559D01*
X47639Y15559D01*
G37*
%LPD*%
%LPC*%
G36*
X46139Y6559D02*
X46139Y6559D01*
X46139Y6796D01*
X46153Y6865D01*
X46180Y6931D01*
X46220Y6990D01*
X46270Y7040D01*
X46329Y7080D01*
X46395Y7107D01*
X46441Y7116D01*
X46441Y6559D01*
X46139Y6559D01*
G37*
%LPD*%
%LPC*%
G36*
X47639Y21559D02*
X47639Y21559D01*
X47639Y21796D01*
X47653Y21865D01*
X47680Y21931D01*
X47720Y21990D01*
X47770Y22040D01*
X47829Y22080D01*
X47895Y22107D01*
X47941Y22116D01*
X47941Y21559D01*
X47639Y21559D01*
G37*
%LPD*%
%LPC*%
G36*
X54895Y24893D02*
X54895Y24893D01*
X54829Y24920D01*
X54770Y24960D01*
X54720Y25010D01*
X54680Y25069D01*
X54653Y25135D01*
X54639Y25204D01*
X54639Y25441D01*
X54941Y25441D01*
X54941Y24884D01*
X54895Y24893D01*
G37*
%LPD*%
%LPC*%
G36*
X46395Y5893D02*
X46395Y5893D01*
X46329Y5920D01*
X46270Y5960D01*
X46220Y6010D01*
X46180Y6069D01*
X46153Y6135D01*
X46139Y6204D01*
X46139Y6441D01*
X46441Y6441D01*
X46441Y5884D01*
X46395Y5893D01*
G37*
%LPD*%
%LPC*%
G36*
X47895Y20893D02*
X47895Y20893D01*
X47829Y20920D01*
X47770Y20960D01*
X47720Y21010D01*
X47680Y21069D01*
X47653Y21135D01*
X47639Y21204D01*
X47639Y21441D01*
X47941Y21441D01*
X47941Y20884D01*
X47895Y20893D01*
G37*
%LPD*%
%LPC*%
G36*
X45395Y11893D02*
X45395Y11893D01*
X45329Y11920D01*
X45270Y11960D01*
X45220Y12010D01*
X45180Y12069D01*
X45153Y12135D01*
X45139Y12204D01*
X45139Y12441D01*
X45441Y12441D01*
X45441Y11884D01*
X45395Y11893D01*
G37*
%LPD*%
%LPC*%
G36*
X49139Y9559D02*
X49139Y9559D01*
X49139Y9796D01*
X49153Y9865D01*
X49180Y9931D01*
X49220Y9990D01*
X49270Y10040D01*
X49329Y10080D01*
X49395Y10107D01*
X49441Y10116D01*
X49441Y9559D01*
X49139Y9559D01*
G37*
%LPD*%
%LPC*%
G36*
X54639Y25559D02*
X54639Y25559D01*
X54639Y25796D01*
X54653Y25865D01*
X54680Y25931D01*
X54720Y25990D01*
X54770Y26040D01*
X54829Y26080D01*
X54895Y26107D01*
X54941Y26116D01*
X54941Y25559D01*
X54639Y25559D01*
G37*
%LPD*%
%LPC*%
G36*
X37099Y29059D02*
X37099Y29059D01*
X37099Y29166D01*
X37334Y29401D01*
X37441Y29401D01*
X37441Y29059D01*
X37099Y29059D01*
G37*
%LPD*%
%LPC*%
G36*
X37099Y26059D02*
X37099Y26059D01*
X37099Y26166D01*
X37334Y26401D01*
X37441Y26401D01*
X37441Y26059D01*
X37099Y26059D01*
G37*
%LPD*%
%LPC*%
G36*
X37559Y26059D02*
X37559Y26059D01*
X37559Y26401D01*
X37666Y26401D01*
X37901Y26166D01*
X37901Y26059D01*
X37559Y26059D01*
G37*
%LPD*%
%LPC*%
G36*
X37334Y25599D02*
X37334Y25599D01*
X37099Y25834D01*
X37099Y25941D01*
X37441Y25941D01*
X37441Y25599D01*
X37334Y25599D01*
G37*
%LPD*%
%LPC*%
G36*
X37334Y28599D02*
X37334Y28599D01*
X37099Y28834D01*
X37099Y28941D01*
X37441Y28941D01*
X37441Y28599D01*
X37334Y28599D01*
G37*
%LPD*%
%LPC*%
G36*
X37559Y25599D02*
X37559Y25599D01*
X37559Y25941D01*
X37901Y25941D01*
X37901Y25834D01*
X37666Y25599D01*
X37559Y25599D01*
G37*
%LPD*%
%LPC*%
G36*
X46499Y6499D02*
X46499Y6499D01*
X46499Y6501D01*
X46501Y6501D01*
X46501Y6499D01*
X46499Y6499D01*
G37*
%LPD*%
%LPC*%
G36*
X47999Y15499D02*
X47999Y15499D01*
X47999Y15501D01*
X48001Y15501D01*
X48001Y15499D01*
X47999Y15499D01*
G37*
%LPD*%
%LPC*%
G36*
X54999Y25499D02*
X54999Y25499D01*
X54999Y25501D01*
X55001Y25501D01*
X55001Y25499D01*
X54999Y25499D01*
G37*
%LPD*%
%LPC*%
G36*
X45499Y12499D02*
X45499Y12499D01*
X45499Y12501D01*
X45501Y12501D01*
X45501Y12499D01*
X45499Y12499D01*
G37*
%LPD*%
%LPC*%
G36*
X45499Y18499D02*
X45499Y18499D01*
X45499Y18501D01*
X45501Y18501D01*
X45501Y18499D01*
X45499Y18499D01*
G37*
%LPD*%
%LPC*%
G36*
X47999Y21499D02*
X47999Y21499D01*
X47999Y21501D01*
X48001Y21501D01*
X48001Y21499D01*
X47999Y21499D01*
G37*
%LPD*%
%LPC*%
G36*
X37499Y25999D02*
X37499Y25999D01*
X37499Y26001D01*
X37501Y26001D01*
X37501Y25999D01*
X37499Y25999D01*
G37*
%LPD*%
%LPC*%
G36*
X47999Y32999D02*
X47999Y32999D01*
X47999Y33001D01*
X48001Y33001D01*
X48001Y32999D01*
X47999Y32999D01*
G37*
%LPD*%
%LPC*%
G36*
X49499Y9499D02*
X49499Y9499D01*
X49499Y9501D01*
X49501Y9501D01*
X49501Y9499D01*
X49499Y9499D01*
G37*
%LPD*%
D10*
X46500Y9760D02*
X46500Y9240D01*
X45500Y9240D02*
X45500Y9760D01*
X40500Y9760D02*
X40500Y9240D01*
X39500Y9240D02*
X39500Y9760D01*
X44500Y9760D02*
X44500Y9240D01*
X43500Y9240D02*
X43500Y9760D01*
X41500Y9760D02*
X41500Y9240D01*
X42500Y9240D02*
X42500Y9760D01*
X39500Y6760D02*
X39500Y6240D01*
X40500Y6240D02*
X40500Y6760D01*
X41500Y6760D02*
X41500Y6240D01*
X42500Y6240D02*
X42500Y6760D01*
X43500Y6760D02*
X43500Y6240D01*
X44500Y6240D02*
X44500Y6760D01*
X45500Y6760D02*
X45500Y6240D01*
X46500Y6240D02*
X46500Y6760D01*
D11*
X60500Y33500D03*
X60500Y32500D03*
X60500Y31500D03*
X60500Y30500D03*
X60500Y29500D03*
X60500Y28500D03*
X60500Y27500D03*
X60500Y26500D03*
X60500Y25500D03*
X60500Y24500D03*
X60500Y23500D03*
X60500Y22500D03*
X60500Y21500D03*
X60500Y20500D03*
X60500Y19500D03*
X60500Y18500D03*
X60500Y17500D03*
X60500Y16500D03*
X60500Y15500D03*
X59500Y33500D03*
X59500Y32500D03*
X59500Y31500D03*
X59500Y30500D03*
X59500Y29500D03*
X59500Y28500D03*
X59500Y27500D03*
X59500Y26500D03*
X59500Y25500D03*
X59500Y24500D03*
X59500Y23500D03*
X59500Y22500D03*
X59500Y21500D03*
X59500Y20500D03*
X59500Y19500D03*
X59500Y18500D03*
X59500Y17500D03*
X59500Y16500D03*
X59500Y15500D03*
X60500Y14500D03*
X59500Y14500D03*
X59500Y13500D03*
X60500Y13500D03*
X59500Y12500D03*
X60500Y12500D03*
X59500Y11500D03*
X60500Y11500D03*
X59500Y10500D03*
X60500Y10500D03*
X59500Y9500D03*
X60500Y9500D03*
X59500Y8500D03*
X60500Y8500D03*
X59500Y7500D03*
X60500Y7500D03*
X59500Y6500D03*
X60500Y6500D03*
X59500Y5500D03*
X60500Y5500D03*
X59500Y4500D03*
X60500Y4500D03*
D12*
X37500Y26000D03*
X37500Y27000D03*
X38500Y26000D03*
X38500Y27000D03*
X39500Y26000D03*
X39500Y27000D03*
X40500Y26000D03*
X40500Y27000D03*
X41500Y26000D03*
X41500Y27000D03*
X42500Y26000D03*
X42500Y27000D03*
X43500Y26000D03*
X43500Y27000D03*
X44500Y26000D03*
X44500Y27000D03*
X45500Y26000D03*
X45500Y27000D03*
X46500Y26000D03*
X46500Y27000D03*
X37500Y29000D03*
X37500Y30000D03*
X38500Y29000D03*
X38500Y30000D03*
X39500Y29000D03*
X39500Y30000D03*
X40500Y29000D03*
X40500Y30000D03*
X41500Y29000D03*
X41500Y30000D03*
X42500Y29000D03*
X42500Y30000D03*
X43500Y29000D03*
X43500Y30000D03*
X44500Y29000D03*
X44500Y30000D03*
X45500Y29000D03*
X45500Y30000D03*
X46500Y29000D03*
X46500Y30000D03*
D10*
X55000Y28760D02*
X55000Y28240D01*
X54000Y28240D02*
X54000Y28760D01*
X49000Y28760D02*
X49000Y28240D01*
X48000Y28240D02*
X48000Y28760D01*
X53000Y28760D02*
X53000Y28240D01*
X52000Y28240D02*
X52000Y28760D01*
X50000Y28760D02*
X50000Y28240D01*
X51000Y28240D02*
X51000Y28760D01*
X48000Y25760D02*
X48000Y25240D01*
X49000Y25240D02*
X49000Y25760D01*
X50000Y25760D02*
X50000Y25240D01*
X51000Y25240D02*
X51000Y25760D01*
X52000Y25760D02*
X52000Y25240D01*
X53000Y25240D02*
X53000Y25760D01*
X54000Y25760D02*
X54000Y25240D01*
X55000Y25240D02*
X55000Y25760D01*
D13*
X52500Y23500D03*
X48500Y23500D03*
D10*
X56000Y32740D02*
X56000Y33260D01*
X55000Y33260D02*
X55000Y32740D01*
X50000Y32740D02*
X50000Y33260D01*
X49000Y33260D02*
X49000Y32740D01*
X54000Y32740D02*
X54000Y33260D01*
X53000Y33260D02*
X53000Y32740D01*
X51000Y32740D02*
X51000Y33260D01*
X52000Y33260D02*
X52000Y32740D01*
X48000Y32740D02*
X48000Y33260D01*
X48000Y30260D02*
X48000Y29740D01*
X49000Y29740D02*
X49000Y30260D01*
X50000Y30260D02*
X50000Y29740D01*
X51000Y29740D02*
X51000Y30260D01*
X52000Y30260D02*
X52000Y29740D01*
X53000Y29740D02*
X53000Y30260D01*
X54000Y30260D02*
X54000Y29740D01*
X55000Y29740D02*
X55000Y30260D01*
X56000Y30260D02*
X56000Y29740D01*
X57500Y9760D02*
X57500Y9240D01*
X56500Y9240D02*
X56500Y9760D01*
X51500Y9760D02*
X51500Y9240D01*
X50500Y9240D02*
X50500Y9760D01*
X55500Y9760D02*
X55500Y9240D01*
X54500Y9240D02*
X54500Y9760D01*
X52500Y9760D02*
X52500Y9240D01*
X53500Y9240D02*
X53500Y9760D01*
X49500Y9760D02*
X49500Y9240D01*
X49500Y6760D02*
X49500Y6240D01*
X50500Y6240D02*
X50500Y6760D01*
X51500Y6760D02*
X51500Y6240D01*
X52500Y6240D02*
X52500Y6760D01*
X53500Y6760D02*
X53500Y6240D01*
X54500Y6240D02*
X54500Y6760D01*
X55500Y6760D02*
X55500Y6240D01*
X56500Y6240D02*
X56500Y6760D01*
X57500Y6760D02*
X57500Y6240D01*
X45500Y15240D02*
X45500Y15760D01*
X44500Y15760D02*
X44500Y15240D01*
X39500Y15240D02*
X39500Y15760D01*
X38500Y15760D02*
X38500Y15240D01*
X43500Y15240D02*
X43500Y15760D01*
X42500Y15760D02*
X42500Y15240D01*
X40500Y15240D02*
X40500Y15760D01*
X41500Y15760D02*
X41500Y15240D01*
X38500Y12760D02*
X38500Y12240D01*
X39500Y12240D02*
X39500Y12760D01*
X40500Y12760D02*
X40500Y12240D01*
X41500Y12240D02*
X41500Y12760D01*
X42500Y12760D02*
X42500Y12240D01*
X43500Y12240D02*
X43500Y12760D01*
X44500Y12760D02*
X44500Y12240D01*
X45500Y12240D02*
X45500Y12760D01*
X45500Y21240D02*
X45500Y21760D01*
X44500Y21760D02*
X44500Y21240D01*
X39500Y21240D02*
X39500Y21760D01*
X38500Y21760D02*
X38500Y21240D01*
X43500Y21240D02*
X43500Y21760D01*
X42500Y21760D02*
X42500Y21240D01*
X40500Y21240D02*
X40500Y21760D01*
X41500Y21760D02*
X41500Y21240D01*
X38500Y18760D02*
X38500Y18240D01*
X39500Y18240D02*
X39500Y18760D01*
X40500Y18760D02*
X40500Y18240D01*
X41500Y18240D02*
X41500Y18760D01*
X42500Y18760D02*
X42500Y18240D01*
X43500Y18240D02*
X43500Y18760D01*
X44500Y18760D02*
X44500Y18240D01*
X45500Y18240D02*
X45500Y18760D01*
X56000Y15760D02*
X56000Y15240D01*
X55000Y15240D02*
X55000Y15760D01*
X50000Y15760D02*
X50000Y15240D01*
X49000Y15240D02*
X49000Y15760D01*
X54000Y15760D02*
X54000Y15240D01*
X53000Y15240D02*
X53000Y15760D01*
X51000Y15760D02*
X51000Y15240D01*
X52000Y15240D02*
X52000Y15760D01*
X48000Y15760D02*
X48000Y15240D01*
X48000Y12760D02*
X48000Y12240D01*
X49000Y12240D02*
X49000Y12760D01*
X50000Y12760D02*
X50000Y12240D01*
X51000Y12240D02*
X51000Y12760D01*
X52000Y12760D02*
X52000Y12240D01*
X53000Y12240D02*
X53000Y12760D01*
X54000Y12760D02*
X54000Y12240D01*
X55000Y12240D02*
X55000Y12760D01*
X56000Y12760D02*
X56000Y12240D01*
X56000Y21240D02*
X56000Y21760D01*
X55000Y21760D02*
X55000Y21240D01*
X50000Y21240D02*
X50000Y21760D01*
X49000Y21760D02*
X49000Y21240D01*
X54000Y21240D02*
X54000Y21760D01*
X53000Y21760D02*
X53000Y21240D01*
X51000Y21240D02*
X51000Y21760D01*
X52000Y21760D02*
X52000Y21240D01*
X48000Y21240D02*
X48000Y21760D01*
X48000Y18760D02*
X48000Y18240D01*
X49000Y18240D02*
X49000Y18760D01*
X50000Y18760D02*
X50000Y18240D01*
X51000Y18240D02*
X51000Y18760D01*
X52000Y18760D02*
X52000Y18240D01*
X53000Y18240D02*
X53000Y18760D01*
X54000Y18760D02*
X54000Y18240D01*
X55000Y18240D02*
X55000Y18760D01*
X56000Y18760D02*
X56000Y18240D01*
D14*
X49500Y5000D03*
X53500Y5000D03*
D10*
X48500Y34240D02*
X48500Y34760D01*
X49500Y34760D02*
X49500Y34240D01*
X50500Y34240D02*
X50500Y34760D01*
X51500Y34760D02*
X51500Y34240D01*
X52500Y34240D02*
X52500Y34760D01*
X53500Y34760D02*
X53500Y34240D01*
X54500Y34240D02*
X54500Y34760D01*
X55500Y34760D02*
X55500Y34240D01*
X56500Y34240D02*
X56500Y34760D01*
D15*
X38000Y29500D02*
X37500Y30000D01*
X38000Y29500D02*
X38000Y27500D01*
X37500Y27000D01*
X40500Y30000D02*
X41000Y29500D01*
X41000Y27500D02*
X40500Y27000D01*
X41000Y27500D02*
X41000Y29500D01*
X41500Y30000D02*
X42000Y29500D01*
X42000Y27500D02*
X41500Y27000D01*
X42000Y27500D02*
X42000Y29500D01*
X42500Y30000D02*
X43000Y29500D01*
X43000Y27500D02*
X42500Y27000D01*
X43000Y27500D02*
X43000Y29500D01*
X43500Y30000D02*
X44000Y29500D01*
X44000Y27500D02*
X43500Y27000D01*
X44000Y27500D02*
X44000Y29500D01*
X44500Y30000D02*
X45000Y29500D01*
X45000Y27500D02*
X44500Y27000D01*
X45000Y27500D02*
X45000Y29500D01*
X45500Y30000D02*
X46000Y29500D01*
X46000Y27500D02*
X45500Y27000D01*
X46000Y27500D02*
X46000Y29500D01*
X46500Y30000D02*
X47000Y29500D01*
X47000Y27500D01*
X46500Y27000D01*
X40000Y29500D02*
X39500Y30000D01*
X40000Y27500D02*
X39500Y27000D01*
X40000Y27500D02*
X40000Y29500D01*
X41000Y26500D02*
X41500Y26000D01*
X41000Y26500D02*
X41000Y27330D01*
X41500Y27830D01*
X41500Y29000D01*
X42000Y26500D02*
X42500Y26000D01*
X42000Y26500D02*
X42000Y27330D01*
X42500Y27830D01*
X42500Y29000D01*
X43000Y26500D02*
X43500Y26000D01*
X43000Y26500D02*
X43000Y27330D01*
X43500Y27830D01*
X43500Y29000D01*
X44000Y26500D02*
X44500Y26000D01*
X44000Y26500D02*
X44000Y27330D01*
X44500Y27830D01*
X44500Y29000D01*
X45000Y26500D02*
X45500Y26000D01*
X45000Y27330D02*
X45500Y27830D01*
X45000Y27330D02*
X45000Y26500D01*
X45500Y27830D02*
X45500Y29000D01*
X46000Y26500D02*
X46500Y26000D01*
X46000Y27330D02*
X46500Y27830D01*
X46000Y27330D02*
X46000Y26500D01*
X46500Y27830D02*
X46500Y29000D01*
X38500Y26000D02*
X38000Y26500D01*
X38000Y27330D01*
X38500Y27830D01*
X38500Y29000D01*
X43000Y22000D02*
X43000Y21000D01*
X43000Y22000D02*
X45000Y24000D01*
X48500Y24000D01*
X40500Y18500D02*
X40000Y18000D01*
X40000Y13000D01*
X40500Y12500D01*
X48500Y24000D02*
X50000Y25500D01*
X43000Y21000D02*
X40500Y18500D01*
X39000Y29500D02*
X38500Y30000D01*
X39000Y29500D02*
X39000Y27500D01*
X38500Y27000D01*
X44000Y21000D02*
X41500Y18500D01*
X44000Y21000D02*
X44000Y22000D01*
X45000Y23000D01*
X49000Y23000D01*
X51000Y25000D02*
X51000Y25500D01*
X51000Y25000D02*
X49000Y23000D01*
X41500Y18500D02*
X41000Y18000D01*
X41000Y13000D01*
X41500Y12500D01*
X39500Y26000D02*
X39000Y26500D01*
X39000Y27330D01*
X39500Y27830D01*
X39500Y29000D01*
X48000Y24500D02*
X49000Y25500D01*
X39000Y13000D02*
X39500Y12500D01*
X39000Y13000D02*
X39000Y18500D01*
X39500Y24500D02*
X39500Y26000D01*
X39500Y24500D02*
X39500Y22500D01*
X39000Y22000D01*
X39000Y18500D01*
X39500Y18500D01*
X39500Y24500D02*
X48000Y24500D01*
X40500Y26000D02*
X40000Y26500D01*
X40000Y27330D01*
X40500Y27830D01*
X40500Y29000D01*
X60500Y14500D02*
X60552Y14500D01*
X61120Y15068D01*
X61120Y18500D01*
X61120Y22500D01*
X61120Y26500D01*
X61120Y30500D01*
X61120Y26500D02*
X60500Y26500D01*
X60500Y22500D02*
X61120Y22500D01*
X61120Y18500D02*
X60500Y18500D01*
X60500Y30500D02*
X61120Y30500D01*
X59650Y35850D02*
X51000Y35850D01*
X61500Y34000D02*
X61500Y32000D01*
X61500Y34000D02*
X59650Y35850D01*
X61120Y31620D02*
X61120Y30500D01*
X61120Y31620D02*
X61500Y32000D01*
X50850Y35850D02*
X49500Y34500D01*
X50850Y35850D02*
X51000Y35850D01*
X60662Y28890D02*
X61000Y28552D01*
X60662Y28890D02*
X60558Y28890D01*
X61000Y28552D02*
X61000Y28000D01*
X60500Y27500D01*
X60662Y24890D02*
X60890Y24662D01*
X60890Y23838D01*
X60662Y24890D02*
X60558Y24890D01*
X60552Y23500D02*
X60500Y23500D01*
X60552Y23500D02*
X60890Y23838D01*
X60662Y20890D02*
X60890Y20662D01*
X60890Y19838D01*
X60662Y20890D02*
X60558Y20890D01*
X60890Y19838D02*
X60552Y19500D01*
X60500Y19500D01*
X60662Y16890D02*
X60890Y16662D01*
X60890Y15838D01*
X60662Y16890D02*
X60558Y16890D01*
X60552Y15500D02*
X60500Y15500D01*
X60552Y15500D02*
X60890Y15838D01*
X60500Y31500D02*
X61120Y32120D01*
X61120Y34050D01*
X59670Y35500D02*
X52500Y35500D01*
X59670Y35500D02*
X61120Y34050D01*
X60500Y31500D02*
X60448Y31500D01*
X60110Y31162D01*
X60110Y29338D01*
X60558Y28890D01*
X60500Y27500D02*
X60448Y27500D01*
X60110Y27162D01*
X60110Y25338D01*
X60558Y24890D01*
X60500Y23500D02*
X60448Y23500D01*
X60110Y23162D01*
X60110Y21338D01*
X60558Y20890D01*
X60500Y19500D02*
X60448Y19500D01*
X60110Y19162D01*
X60110Y17338D01*
X60558Y16890D01*
X51500Y34500D02*
X52500Y35500D01*
X59890Y31890D02*
X60500Y32500D01*
X59890Y31890D02*
X59890Y28500D01*
X59890Y17110D02*
X60500Y16500D01*
X59890Y17110D02*
X59890Y20500D01*
X59890Y24500D01*
X59890Y28500D01*
X59890Y20500D02*
X60500Y20500D01*
X60500Y24500D02*
X59890Y24500D01*
X59890Y28500D02*
X60500Y28500D01*
X61000Y33000D02*
X61000Y33552D01*
X61000Y33000D02*
X60500Y32500D01*
X61000Y33552D02*
X59442Y35110D01*
X54110Y35110D01*
X53500Y34500D01*
X55500Y32745D02*
X55000Y32245D01*
X55000Y30000D01*
X55500Y32745D02*
X55500Y34500D01*
X58500Y34500D02*
X59500Y33500D01*
X58500Y34500D02*
X56500Y34500D01*
X54500Y32745D02*
X54000Y32245D01*
X54000Y30000D01*
X54500Y32745D02*
X54500Y34500D01*
X52000Y29500D02*
X52500Y29000D01*
X52500Y25120D02*
X53000Y24620D01*
X55000Y24620D01*
X58500Y28120D01*
X58500Y30500D02*
X59500Y31500D01*
X58500Y30500D02*
X58500Y28120D01*
X52000Y29500D02*
X52000Y30000D01*
X52500Y29000D02*
X52500Y25120D01*
X59000Y30000D02*
X59500Y30500D01*
X59000Y24000D02*
X59000Y22500D01*
X59000Y24000D02*
X59000Y26500D01*
X59000Y30000D01*
X59000Y26500D02*
X59500Y26500D01*
X59000Y15000D02*
X59500Y14500D01*
X59000Y15000D02*
X59000Y18500D01*
X59000Y22500D01*
X59500Y22500D01*
X59500Y18500D02*
X59000Y18500D01*
X50000Y29500D02*
X50000Y30000D01*
X50500Y27500D02*
X51500Y26500D01*
X51500Y25245D01*
X52745Y24000D01*
X59000Y24000D01*
X50500Y27500D02*
X50500Y29000D01*
X50000Y29500D01*
X46500Y7500D02*
X55500Y7500D01*
X57500Y9500D01*
X46500Y7500D02*
X45500Y6500D01*
X54500Y32500D02*
X55000Y33000D01*
X54500Y32500D02*
X54500Y29000D01*
X55000Y28500D01*
X53500Y29500D02*
X53500Y32500D01*
X54000Y33000D01*
X53500Y29500D02*
X54000Y29000D01*
X54000Y28500D01*
X52500Y29500D02*
X52500Y32500D01*
X53000Y33000D01*
X52500Y29500D02*
X53000Y29000D01*
X53000Y28500D01*
X51500Y29500D02*
X51500Y32500D01*
X52000Y33000D01*
X51500Y29500D02*
X52000Y29000D01*
X52000Y28500D01*
X50500Y29500D02*
X50500Y32500D01*
X51000Y33000D01*
X50500Y29500D02*
X51000Y29000D01*
X51000Y28500D01*
X49500Y32500D02*
X50000Y33000D01*
X50000Y29000D02*
X50000Y28500D01*
X50000Y29000D02*
X49500Y29500D01*
X49500Y32500D01*
X55500Y32500D02*
X56000Y33000D01*
X55500Y32500D02*
X55500Y27000D01*
X54000Y25500D01*
X48500Y32500D02*
X49000Y33000D01*
X48500Y32500D02*
X48500Y29500D01*
X49000Y29000D01*
X49000Y28500D01*
X41000Y10000D02*
X41000Y8000D01*
X39500Y6500D01*
X41000Y10000D02*
X43500Y12500D01*
X42000Y17000D02*
X43500Y18500D01*
X42000Y12000D02*
X41500Y11500D01*
X39500Y11500D01*
X38500Y12500D01*
X42000Y12000D02*
X42000Y17000D01*
X44500Y12500D02*
X46500Y14500D01*
X55000Y14500D01*
X56000Y15500D01*
X45500Y19500D02*
X44500Y18500D01*
X54000Y19500D02*
X56000Y21500D01*
X54000Y19500D02*
X45500Y19500D01*
X50500Y6500D02*
X50500Y5000D01*
X51500Y5000D01*
X52500Y5000D01*
X53500Y5000D01*
X51500Y5000D02*
X51500Y6500D01*
X52500Y6500D02*
X52500Y5000D01*
X53500Y5000D02*
X53500Y6500D01*
M02*
