G04 EAGLE Gerber RS-274X export*
G75*
%MOIN*%
%FSLAX34Y34*%
%LPD*%
%INSilkscreen Top*%
%IPPOS*%
%AMOC8*
5,1,8,0,0,1.08239X$1,22.5*%
G01*
%ADD10C,0.006000*%
%ADD11C,0.002000*%
%ADD12C,0.003000*%
%ADD13C,0.005000*%
%ADD14C,0.030000*%
%ADD15R,0.020000X0.030000*%
%ADD16R,0.040000X0.030000*%
%ADD17R,0.030000X0.030000*%
%ADD18R,0.070000X0.030000*%
%ADD19R,0.020000X0.020000*%
%ADD20C,0.024000*%
%ADD21R,0.037500X0.024000*%


D10*
X38208Y34580D02*
X38208Y35220D01*
X38030Y35220D02*
X38386Y35220D01*
X38720Y34829D02*
X38880Y34829D01*
X38720Y34828D02*
X38700Y34826D01*
X38680Y34821D01*
X38661Y34813D01*
X38644Y34802D01*
X38629Y34788D01*
X38616Y34772D01*
X38606Y34754D01*
X38600Y34734D01*
X38596Y34714D01*
X38596Y34694D01*
X38600Y34674D01*
X38606Y34654D01*
X38616Y34636D01*
X38629Y34620D01*
X38644Y34606D01*
X38661Y34595D01*
X38680Y34587D01*
X38700Y34582D01*
X38720Y34580D01*
X38880Y34580D01*
X38880Y34900D01*
X38881Y34900D02*
X38879Y34919D01*
X38875Y34937D01*
X38867Y34954D01*
X38856Y34969D01*
X38843Y34982D01*
X38828Y34993D01*
X38811Y35001D01*
X38793Y35005D01*
X38774Y35007D01*
X38632Y35007D01*
X39177Y35007D02*
X39177Y34580D01*
X39177Y35007D02*
X39390Y35007D01*
X39390Y34936D01*
X39865Y35220D02*
X39865Y34580D01*
X39687Y34580D01*
X39668Y34582D01*
X39650Y34586D01*
X39634Y34594D01*
X39618Y34605D01*
X39605Y34618D01*
X39594Y34634D01*
X39586Y34650D01*
X39582Y34668D01*
X39580Y34687D01*
X39581Y34687D02*
X39581Y34900D01*
X39580Y34900D02*
X39582Y34919D01*
X39586Y34937D01*
X39594Y34954D01*
X39605Y34969D01*
X39618Y34982D01*
X39634Y34993D01*
X39650Y35001D01*
X39668Y35005D01*
X39687Y35007D01*
X39865Y35007D01*
X40136Y35007D02*
X40136Y34580D01*
X40118Y35184D02*
X40118Y35220D01*
X40154Y35220D01*
X40154Y35184D01*
X40118Y35184D01*
X40437Y34829D02*
X40615Y34758D01*
X40437Y34829D02*
X40421Y34837D01*
X40406Y34848D01*
X40395Y34862D01*
X40386Y34878D01*
X40381Y34896D01*
X40379Y34914D01*
X40381Y34932D01*
X40386Y34949D01*
X40395Y34965D01*
X40406Y34979D01*
X40421Y34991D01*
X40437Y34999D01*
X40454Y35004D01*
X40472Y35006D01*
X40473Y35007D02*
X40506Y35005D01*
X40538Y35001D01*
X40571Y34993D01*
X40602Y34984D01*
X40633Y34971D01*
X40614Y34757D02*
X40630Y34749D01*
X40645Y34738D01*
X40656Y34724D01*
X40665Y34708D01*
X40670Y34690D01*
X40672Y34672D01*
X40670Y34654D01*
X40665Y34637D01*
X40656Y34621D01*
X40645Y34607D01*
X40630Y34595D01*
X40614Y34587D01*
X40597Y34582D01*
X40579Y34580D01*
X40540Y34582D01*
X40500Y34586D01*
X40461Y34594D01*
X40422Y34603D01*
X40384Y34616D01*
X41279Y34580D02*
X41279Y35220D01*
X41635Y35220D02*
X41279Y34829D01*
X41422Y34971D02*
X41635Y34580D01*
X41967Y34580D02*
X42145Y34580D01*
X41967Y34580D02*
X41948Y34582D01*
X41930Y34586D01*
X41914Y34594D01*
X41898Y34605D01*
X41885Y34618D01*
X41874Y34634D01*
X41866Y34650D01*
X41862Y34668D01*
X41860Y34687D01*
X41861Y34687D02*
X41861Y34864D01*
X41863Y34886D01*
X41868Y34908D01*
X41876Y34928D01*
X41888Y34947D01*
X41903Y34964D01*
X41920Y34979D01*
X41939Y34991D01*
X41959Y34999D01*
X41981Y35004D01*
X42003Y35006D01*
X42025Y35004D01*
X42047Y34999D01*
X42067Y34991D01*
X42086Y34979D01*
X42103Y34964D01*
X42118Y34947D01*
X42130Y34928D01*
X42138Y34908D01*
X42143Y34886D01*
X42145Y34864D01*
X42145Y34793D01*
X41861Y34793D01*
X42373Y34367D02*
X42444Y34367D01*
X42658Y35007D01*
X42373Y35007D02*
X42516Y34580D01*
X42910Y34580D02*
X42910Y35220D01*
X42910Y34580D02*
X43087Y34580D01*
X43106Y34582D01*
X43124Y34586D01*
X43140Y34594D01*
X43156Y34605D01*
X43169Y34618D01*
X43180Y34633D01*
X43188Y34650D01*
X43192Y34668D01*
X43194Y34687D01*
X43194Y34900D01*
X43192Y34919D01*
X43188Y34937D01*
X43180Y34954D01*
X43169Y34969D01*
X43156Y34982D01*
X43141Y34993D01*
X43124Y35001D01*
X43106Y35005D01*
X43087Y35007D01*
X42910Y35007D01*
X43440Y34864D02*
X43440Y34722D01*
X43440Y34864D02*
X43442Y34886D01*
X43447Y34908D01*
X43455Y34928D01*
X43467Y34947D01*
X43482Y34964D01*
X43499Y34979D01*
X43518Y34991D01*
X43538Y34999D01*
X43560Y35004D01*
X43582Y35006D01*
X43604Y35004D01*
X43626Y34999D01*
X43646Y34991D01*
X43665Y34979D01*
X43682Y34964D01*
X43697Y34947D01*
X43709Y34928D01*
X43717Y34908D01*
X43722Y34886D01*
X43724Y34864D01*
X43725Y34864D02*
X43725Y34722D01*
X43724Y34722D02*
X43722Y34700D01*
X43717Y34678D01*
X43709Y34658D01*
X43697Y34639D01*
X43682Y34622D01*
X43665Y34607D01*
X43646Y34595D01*
X43626Y34587D01*
X43604Y34582D01*
X43582Y34580D01*
X43560Y34582D01*
X43538Y34587D01*
X43518Y34595D01*
X43499Y34607D01*
X43482Y34622D01*
X43467Y34639D01*
X43455Y34658D01*
X43447Y34678D01*
X43442Y34700D01*
X43440Y34722D01*
X44095Y34829D02*
X44255Y34829D01*
X44095Y34828D02*
X44075Y34826D01*
X44055Y34821D01*
X44036Y34813D01*
X44019Y34802D01*
X44004Y34788D01*
X43991Y34772D01*
X43981Y34754D01*
X43975Y34734D01*
X43971Y34714D01*
X43971Y34694D01*
X43975Y34674D01*
X43981Y34654D01*
X43991Y34636D01*
X44004Y34620D01*
X44019Y34606D01*
X44036Y34595D01*
X44055Y34587D01*
X44075Y34582D01*
X44095Y34580D01*
X44255Y34580D01*
X44255Y34900D01*
X44253Y34919D01*
X44249Y34937D01*
X44241Y34954D01*
X44230Y34969D01*
X44217Y34982D01*
X44202Y34993D01*
X44185Y35001D01*
X44167Y35005D01*
X44148Y35007D01*
X44006Y35007D01*
X44551Y35007D02*
X44551Y34580D01*
X44551Y35007D02*
X44764Y35007D01*
X44764Y34936D01*
X45240Y35220D02*
X45240Y34580D01*
X45062Y34580D01*
X45043Y34582D01*
X45025Y34586D01*
X45009Y34594D01*
X44993Y34605D01*
X44980Y34618D01*
X44969Y34634D01*
X44961Y34650D01*
X44957Y34668D01*
X44955Y34687D01*
X44955Y34900D01*
X44957Y34919D01*
X44961Y34937D01*
X44969Y34954D01*
X44980Y34969D01*
X44993Y34982D01*
X45009Y34993D01*
X45025Y35001D01*
X45043Y35005D01*
X45062Y35007D01*
X45240Y35007D01*
X38030Y34170D02*
X38030Y33530D01*
X38030Y34170D02*
X38208Y34170D01*
X38233Y34168D01*
X38258Y34163D01*
X38282Y34154D01*
X38304Y34142D01*
X38325Y34127D01*
X38343Y34109D01*
X38358Y34088D01*
X38370Y34066D01*
X38379Y34042D01*
X38384Y34017D01*
X38386Y33992D01*
X38384Y33967D01*
X38379Y33942D01*
X38370Y33918D01*
X38358Y33896D01*
X38343Y33875D01*
X38325Y33857D01*
X38304Y33842D01*
X38282Y33830D01*
X38258Y33821D01*
X38233Y33816D01*
X38208Y33814D01*
X38030Y33814D01*
X38243Y33814D02*
X38386Y33530D01*
X38743Y33530D02*
X38921Y33530D01*
X38743Y33530D02*
X38724Y33532D01*
X38706Y33536D01*
X38690Y33544D01*
X38674Y33555D01*
X38661Y33568D01*
X38650Y33584D01*
X38642Y33600D01*
X38638Y33618D01*
X38636Y33637D01*
X38636Y33814D01*
X38637Y33814D02*
X38639Y33836D01*
X38644Y33858D01*
X38652Y33878D01*
X38664Y33897D01*
X38679Y33914D01*
X38696Y33929D01*
X38715Y33941D01*
X38735Y33949D01*
X38757Y33954D01*
X38779Y33956D01*
X38801Y33954D01*
X38823Y33949D01*
X38843Y33941D01*
X38862Y33929D01*
X38879Y33914D01*
X38894Y33897D01*
X38906Y33878D01*
X38914Y33858D01*
X38919Y33836D01*
X38921Y33814D01*
X38921Y33743D01*
X38636Y33743D01*
X39149Y33957D02*
X39291Y33530D01*
X39434Y33957D01*
X39643Y33566D02*
X39643Y33530D01*
X39643Y33566D02*
X39678Y33566D01*
X39678Y33530D01*
X39643Y33530D01*
X40242Y34028D02*
X40420Y34170D01*
X40420Y33530D01*
X40597Y33530D02*
X40242Y33530D01*
X40833Y33530D02*
X40833Y33566D01*
X40868Y33566D01*
X40868Y33530D01*
X40833Y33530D01*
X41104Y33850D02*
X41106Y33890D01*
X41110Y33929D01*
X41117Y33969D01*
X41128Y34007D01*
X41141Y34044D01*
X41157Y34081D01*
X41156Y34081D02*
X41164Y34100D01*
X41175Y34117D01*
X41189Y34132D01*
X41204Y34145D01*
X41222Y34156D01*
X41241Y34164D01*
X41261Y34168D01*
X41281Y34170D01*
X41301Y34168D01*
X41321Y34164D01*
X41340Y34156D01*
X41358Y34145D01*
X41373Y34132D01*
X41387Y34117D01*
X41398Y34100D01*
X41406Y34081D01*
X41422Y34044D01*
X41435Y34007D01*
X41446Y33969D01*
X41453Y33929D01*
X41457Y33890D01*
X41459Y33850D01*
X41104Y33850D02*
X41106Y33810D01*
X41110Y33771D01*
X41117Y33732D01*
X41128Y33693D01*
X41141Y33656D01*
X41157Y33619D01*
X41156Y33619D02*
X41164Y33600D01*
X41175Y33583D01*
X41189Y33568D01*
X41204Y33555D01*
X41222Y33544D01*
X41241Y33536D01*
X41261Y33532D01*
X41281Y33530D01*
X41406Y33619D02*
X41422Y33656D01*
X41435Y33693D01*
X41446Y33732D01*
X41453Y33771D01*
X41457Y33810D01*
X41459Y33850D01*
X41406Y33619D02*
X41398Y33600D01*
X41387Y33583D01*
X41373Y33568D01*
X41358Y33555D01*
X41340Y33544D01*
X41321Y33536D01*
X41301Y33532D01*
X41281Y33530D01*
X41139Y33672D02*
X41423Y34028D01*
D11*
X37331Y27732D02*
X37294Y27732D01*
X37331Y27732D02*
X37331Y27610D01*
X37257Y27610D01*
X37244Y27612D01*
X37233Y27617D01*
X37222Y27624D01*
X37215Y27635D01*
X37210Y27646D01*
X37208Y27659D01*
X37208Y27781D01*
X37210Y27794D01*
X37215Y27805D01*
X37222Y27816D01*
X37232Y27823D01*
X37244Y27828D01*
X37257Y27830D01*
X37331Y27830D01*
X37439Y27830D02*
X37439Y27610D01*
X37561Y27610D02*
X37439Y27830D01*
X37561Y27830D02*
X37561Y27610D01*
X37669Y27610D02*
X37669Y27830D01*
X37730Y27830D01*
X37744Y27828D01*
X37756Y27824D01*
X37768Y27817D01*
X37778Y27807D01*
X37785Y27795D01*
X37789Y27783D01*
X37791Y27769D01*
X37792Y27769D02*
X37792Y27671D01*
X37791Y27671D02*
X37789Y27657D01*
X37785Y27645D01*
X37778Y27633D01*
X37768Y27623D01*
X37756Y27616D01*
X37744Y27612D01*
X37730Y27610D01*
X37669Y27610D01*
X37248Y28296D02*
X37102Y28296D01*
X37175Y28222D02*
X37175Y28369D01*
X37344Y28210D02*
X37405Y28210D01*
X37420Y28212D01*
X37433Y28217D01*
X37445Y28225D01*
X37455Y28236D01*
X37462Y28249D01*
X37466Y28264D01*
X37466Y28278D01*
X37462Y28293D01*
X37455Y28306D01*
X37445Y28317D01*
X37433Y28325D01*
X37420Y28330D01*
X37405Y28332D01*
X37418Y28430D02*
X37344Y28430D01*
X37418Y28430D02*
X37431Y28428D01*
X37443Y28423D01*
X37453Y28416D01*
X37460Y28406D01*
X37465Y28394D01*
X37467Y28381D01*
X37465Y28368D01*
X37460Y28357D01*
X37453Y28346D01*
X37443Y28339D01*
X37431Y28334D01*
X37418Y28332D01*
X37369Y28332D01*
X37548Y28430D02*
X37621Y28210D01*
X37695Y28430D01*
X37776Y28210D02*
X37837Y28210D01*
X37852Y28212D01*
X37865Y28217D01*
X37877Y28225D01*
X37887Y28236D01*
X37894Y28249D01*
X37898Y28264D01*
X37898Y28278D01*
X37894Y28293D01*
X37887Y28306D01*
X37877Y28317D01*
X37865Y28325D01*
X37852Y28330D01*
X37837Y28332D01*
X37850Y28430D02*
X37776Y28430D01*
X37850Y28430D02*
X37863Y28428D01*
X37875Y28423D01*
X37885Y28416D01*
X37892Y28406D01*
X37897Y28394D01*
X37899Y28381D01*
X37897Y28368D01*
X37892Y28357D01*
X37885Y28346D01*
X37875Y28339D01*
X37863Y28334D01*
X37850Y28332D01*
X37801Y28332D01*
X38313Y28210D02*
X38326Y28212D01*
X38338Y28217D01*
X38348Y28224D01*
X38355Y28235D01*
X38360Y28246D01*
X38362Y28259D01*
X38313Y28210D02*
X38297Y28211D01*
X38281Y28215D01*
X38266Y28221D01*
X38252Y28230D01*
X38240Y28240D01*
X38245Y28381D02*
X38247Y28394D01*
X38252Y28406D01*
X38259Y28416D01*
X38270Y28423D01*
X38281Y28428D01*
X38294Y28430D01*
X38309Y28429D01*
X38323Y28425D01*
X38337Y28419D01*
X38349Y28412D01*
X38245Y28381D02*
X38247Y28368D01*
X38252Y28356D01*
X38259Y28346D01*
X38270Y28338D01*
X38337Y28302D02*
X38348Y28294D01*
X38355Y28284D01*
X38360Y28272D01*
X38362Y28259D01*
X38337Y28302D02*
X38270Y28338D01*
X38496Y28210D02*
X38545Y28210D01*
X38496Y28210D02*
X38483Y28212D01*
X38472Y28217D01*
X38461Y28224D01*
X38454Y28235D01*
X38449Y28246D01*
X38447Y28259D01*
X38447Y28381D01*
X38449Y28394D01*
X38454Y28405D01*
X38461Y28416D01*
X38471Y28423D01*
X38483Y28428D01*
X38496Y28430D01*
X38545Y28430D01*
X38639Y28430D02*
X38639Y28210D01*
X38639Y28296D02*
X38761Y28430D01*
X38687Y28344D02*
X38761Y28210D01*
X39326Y28210D02*
X39339Y28212D01*
X39351Y28217D01*
X39361Y28224D01*
X39368Y28235D01*
X39373Y28246D01*
X39375Y28259D01*
X39326Y28210D02*
X39310Y28211D01*
X39294Y28215D01*
X39279Y28221D01*
X39265Y28230D01*
X39253Y28240D01*
X39259Y28381D02*
X39261Y28394D01*
X39266Y28406D01*
X39273Y28416D01*
X39284Y28423D01*
X39295Y28428D01*
X39308Y28430D01*
X39323Y28429D01*
X39337Y28425D01*
X39351Y28419D01*
X39363Y28412D01*
X39259Y28381D02*
X39261Y28368D01*
X39266Y28356D01*
X39273Y28346D01*
X39284Y28338D01*
X39350Y28302D02*
X39361Y28294D01*
X39368Y28284D01*
X39373Y28272D01*
X39375Y28259D01*
X39351Y28302D02*
X39283Y28338D01*
X39510Y28210D02*
X39559Y28210D01*
X39510Y28210D02*
X39497Y28212D01*
X39486Y28217D01*
X39475Y28224D01*
X39468Y28235D01*
X39463Y28246D01*
X39461Y28259D01*
X39461Y28381D01*
X39463Y28394D01*
X39468Y28405D01*
X39475Y28416D01*
X39485Y28423D01*
X39497Y28428D01*
X39510Y28430D01*
X39559Y28430D01*
X39649Y28430D02*
X39649Y28210D01*
X39747Y28210D01*
X40273Y28210D02*
X40321Y28210D01*
X40273Y28210D02*
X40260Y28212D01*
X40249Y28217D01*
X40238Y28224D01*
X40231Y28235D01*
X40226Y28246D01*
X40224Y28259D01*
X40224Y28381D01*
X40226Y28394D01*
X40231Y28405D01*
X40238Y28416D01*
X40248Y28423D01*
X40260Y28428D01*
X40273Y28430D01*
X40321Y28430D01*
X40404Y28369D02*
X40404Y28271D01*
X40404Y28369D02*
X40406Y28384D01*
X40411Y28397D01*
X40419Y28409D01*
X40430Y28419D01*
X40443Y28426D01*
X40458Y28430D01*
X40472Y28430D01*
X40487Y28426D01*
X40500Y28419D01*
X40511Y28409D01*
X40519Y28397D01*
X40524Y28384D01*
X40526Y28369D01*
X40527Y28369D02*
X40527Y28271D01*
X40526Y28271D02*
X40524Y28256D01*
X40519Y28243D01*
X40511Y28231D01*
X40500Y28221D01*
X40487Y28214D01*
X40472Y28210D01*
X40458Y28210D01*
X40443Y28214D01*
X40430Y28221D01*
X40419Y28231D01*
X40411Y28243D01*
X40406Y28256D01*
X40404Y28271D01*
X40630Y28210D02*
X40630Y28430D01*
X40703Y28308D01*
X40776Y28430D01*
X40776Y28210D01*
X41488Y28308D02*
X41561Y28308D01*
X41488Y28308D02*
X41475Y28310D01*
X41463Y28315D01*
X41453Y28322D01*
X41446Y28333D01*
X41441Y28344D01*
X41439Y28357D01*
X41439Y28369D01*
X41441Y28384D01*
X41446Y28397D01*
X41454Y28409D01*
X41465Y28419D01*
X41478Y28426D01*
X41493Y28430D01*
X41507Y28430D01*
X41522Y28426D01*
X41535Y28419D01*
X41546Y28409D01*
X41554Y28397D01*
X41559Y28384D01*
X41561Y28369D01*
X41561Y28308D01*
X41560Y28291D01*
X41555Y28274D01*
X41548Y28259D01*
X41538Y28245D01*
X41526Y28233D01*
X41512Y28223D01*
X41497Y28216D01*
X41480Y28211D01*
X41463Y28210D01*
X38236Y27830D02*
X38236Y27610D01*
X38236Y27830D02*
X38297Y27830D01*
X38312Y27828D01*
X38325Y27823D01*
X38337Y27815D01*
X38347Y27804D01*
X38354Y27791D01*
X38358Y27776D01*
X38358Y27762D01*
X38354Y27747D01*
X38347Y27734D01*
X38337Y27723D01*
X38325Y27715D01*
X38312Y27710D01*
X38297Y27708D01*
X38236Y27708D01*
X38310Y27708D02*
X38359Y27610D01*
X38499Y27610D02*
X38548Y27610D01*
X38499Y27610D02*
X38486Y27612D01*
X38475Y27617D01*
X38464Y27624D01*
X38457Y27635D01*
X38452Y27646D01*
X38450Y27659D01*
X38450Y27781D01*
X38452Y27794D01*
X38457Y27805D01*
X38464Y27816D01*
X38474Y27823D01*
X38486Y27828D01*
X38499Y27830D01*
X38548Y27830D01*
X38641Y27830D02*
X38641Y27610D01*
X38641Y27696D02*
X38764Y27830D01*
X38690Y27744D02*
X38764Y27610D01*
X39161Y27610D02*
X39161Y27830D01*
X39137Y27610D02*
X39186Y27610D01*
X39186Y27830D02*
X39137Y27830D01*
X39280Y27830D02*
X39280Y27610D01*
X39402Y27610D02*
X39280Y27830D01*
X39402Y27830D02*
X39402Y27610D01*
X39511Y27610D02*
X39511Y27830D01*
X39511Y27732D02*
X39633Y27732D01*
X39633Y27830D02*
X39633Y27610D01*
X39741Y27610D02*
X39741Y27830D01*
X39802Y27830D01*
X39816Y27828D01*
X39828Y27824D01*
X39840Y27817D01*
X39850Y27807D01*
X39857Y27795D01*
X39861Y27783D01*
X39863Y27769D01*
X39863Y27671D01*
X39861Y27657D01*
X39857Y27645D01*
X39850Y27633D01*
X39840Y27623D01*
X39828Y27616D01*
X39816Y27612D01*
X39802Y27610D01*
X39741Y27610D01*
X40439Y27671D02*
X40441Y27686D01*
X40446Y27699D01*
X40454Y27711D01*
X40465Y27721D01*
X40478Y27728D01*
X40493Y27732D01*
X40507Y27732D01*
X40522Y27728D01*
X40535Y27721D01*
X40546Y27711D01*
X40554Y27699D01*
X40559Y27686D01*
X40561Y27671D01*
X40559Y27656D01*
X40554Y27643D01*
X40546Y27631D01*
X40535Y27621D01*
X40522Y27614D01*
X40507Y27610D01*
X40493Y27610D01*
X40478Y27614D01*
X40465Y27621D01*
X40454Y27631D01*
X40446Y27643D01*
X40441Y27656D01*
X40439Y27671D01*
X40451Y27781D02*
X40453Y27794D01*
X40458Y27806D01*
X40465Y27816D01*
X40476Y27823D01*
X40487Y27828D01*
X40500Y27830D01*
X40513Y27828D01*
X40525Y27823D01*
X40535Y27816D01*
X40542Y27806D01*
X40547Y27794D01*
X40549Y27781D01*
X40547Y27768D01*
X40542Y27757D01*
X40535Y27746D01*
X40525Y27739D01*
X40513Y27734D01*
X40500Y27732D01*
X40487Y27734D01*
X40476Y27739D01*
X40465Y27746D01*
X40458Y27757D01*
X40453Y27768D01*
X40451Y27781D01*
X41331Y27781D02*
X41392Y27830D01*
X41392Y27610D01*
X41331Y27610D02*
X41453Y27610D01*
X41547Y27720D02*
X41548Y27740D01*
X41552Y27761D01*
X41557Y27780D01*
X41565Y27799D01*
X41565Y27800D02*
X41570Y27810D01*
X41578Y27818D01*
X41587Y27825D01*
X41597Y27829D01*
X41608Y27830D01*
X41619Y27829D01*
X41629Y27825D01*
X41638Y27818D01*
X41646Y27810D01*
X41651Y27800D01*
X41651Y27799D02*
X41659Y27780D01*
X41664Y27761D01*
X41668Y27740D01*
X41669Y27720D01*
X41547Y27720D02*
X41548Y27700D01*
X41552Y27679D01*
X41557Y27660D01*
X41565Y27641D01*
X41565Y27640D02*
X41570Y27630D01*
X41578Y27622D01*
X41587Y27615D01*
X41597Y27611D01*
X41608Y27610D01*
X41651Y27641D02*
X41659Y27660D01*
X41664Y27679D01*
X41668Y27700D01*
X41669Y27720D01*
X41651Y27640D02*
X41646Y27630D01*
X41638Y27622D01*
X41629Y27615D01*
X41619Y27611D01*
X41608Y27610D01*
X41559Y27659D02*
X41657Y27781D01*
X42331Y27781D02*
X42392Y27830D01*
X42392Y27610D01*
X42331Y27610D02*
X42453Y27610D01*
X42669Y27775D02*
X42668Y27787D01*
X42664Y27799D01*
X42657Y27809D01*
X42648Y27818D01*
X42638Y27825D01*
X42626Y27829D01*
X42614Y27830D01*
X42599Y27828D01*
X42585Y27824D01*
X42572Y27816D01*
X42561Y27806D01*
X42552Y27794D01*
X42546Y27781D01*
X42651Y27732D02*
X42658Y27741D01*
X42664Y27752D01*
X42668Y27763D01*
X42669Y27775D01*
X42651Y27732D02*
X42547Y27610D01*
X42669Y27610D01*
X43331Y27781D02*
X43392Y27830D01*
X43392Y27610D01*
X43331Y27610D02*
X43453Y27610D01*
X43547Y27659D02*
X43596Y27830D01*
X43547Y27659D02*
X43669Y27659D01*
X43632Y27708D02*
X43632Y27610D01*
X44331Y27781D02*
X44392Y27830D01*
X44392Y27610D01*
X44331Y27610D02*
X44453Y27610D01*
X44547Y27732D02*
X44620Y27732D01*
X44633Y27730D01*
X44645Y27725D01*
X44655Y27718D01*
X44662Y27708D01*
X44667Y27696D01*
X44669Y27683D01*
X44669Y27671D01*
X44667Y27656D01*
X44662Y27643D01*
X44654Y27631D01*
X44643Y27621D01*
X44630Y27614D01*
X44615Y27610D01*
X44601Y27610D01*
X44586Y27614D01*
X44573Y27621D01*
X44562Y27631D01*
X44554Y27643D01*
X44549Y27656D01*
X44547Y27671D01*
X44547Y27732D01*
X44549Y27751D01*
X44554Y27770D01*
X44564Y27786D01*
X44576Y27801D01*
X44591Y27813D01*
X44607Y27823D01*
X44626Y27828D01*
X44645Y27830D01*
X45331Y27781D02*
X45392Y27830D01*
X45392Y27610D01*
X45331Y27610D02*
X45453Y27610D01*
X45547Y27671D02*
X45549Y27686D01*
X45554Y27699D01*
X45562Y27711D01*
X45573Y27721D01*
X45586Y27728D01*
X45601Y27732D01*
X45615Y27732D01*
X45630Y27728D01*
X45643Y27721D01*
X45654Y27711D01*
X45662Y27699D01*
X45667Y27686D01*
X45669Y27671D01*
X45667Y27656D01*
X45662Y27643D01*
X45654Y27631D01*
X45643Y27621D01*
X45630Y27614D01*
X45615Y27610D01*
X45601Y27610D01*
X45586Y27614D01*
X45573Y27621D01*
X45562Y27631D01*
X45554Y27643D01*
X45549Y27656D01*
X45547Y27671D01*
X45559Y27781D02*
X45561Y27794D01*
X45566Y27806D01*
X45573Y27816D01*
X45584Y27823D01*
X45595Y27828D01*
X45608Y27830D01*
X45621Y27828D01*
X45633Y27823D01*
X45643Y27816D01*
X45650Y27806D01*
X45655Y27794D01*
X45657Y27781D01*
X45655Y27768D01*
X45650Y27757D01*
X45643Y27746D01*
X45633Y27739D01*
X45621Y27734D01*
X45608Y27732D01*
X45595Y27734D01*
X45584Y27739D01*
X45573Y27746D01*
X45566Y27757D01*
X45561Y27768D01*
X45559Y27781D01*
X46398Y27830D02*
X46410Y27829D01*
X46422Y27825D01*
X46432Y27818D01*
X46441Y27809D01*
X46448Y27799D01*
X46452Y27787D01*
X46453Y27775D01*
X46398Y27830D02*
X46383Y27828D01*
X46369Y27824D01*
X46356Y27816D01*
X46345Y27806D01*
X46336Y27794D01*
X46330Y27781D01*
X46435Y27732D02*
X46442Y27741D01*
X46448Y27752D01*
X46452Y27763D01*
X46453Y27775D01*
X46435Y27732D02*
X46331Y27610D01*
X46453Y27610D01*
X46547Y27720D02*
X46548Y27740D01*
X46552Y27761D01*
X46557Y27780D01*
X46565Y27799D01*
X46565Y27800D02*
X46570Y27810D01*
X46578Y27818D01*
X46587Y27825D01*
X46597Y27829D01*
X46608Y27830D01*
X46619Y27829D01*
X46629Y27825D01*
X46638Y27818D01*
X46646Y27810D01*
X46651Y27800D01*
X46651Y27799D02*
X46659Y27780D01*
X46664Y27761D01*
X46668Y27740D01*
X46669Y27720D01*
X46547Y27720D02*
X46548Y27700D01*
X46552Y27679D01*
X46557Y27660D01*
X46565Y27641D01*
X46565Y27640D02*
X46570Y27630D01*
X46578Y27622D01*
X46587Y27615D01*
X46597Y27611D01*
X46608Y27610D01*
X46651Y27641D02*
X46659Y27660D01*
X46664Y27679D01*
X46668Y27700D01*
X46669Y27720D01*
X46651Y27640D02*
X46646Y27630D01*
X46638Y27622D01*
X46629Y27615D01*
X46619Y27611D01*
X46608Y27610D01*
X46559Y27659D02*
X46657Y27781D01*
X42392Y28430D02*
X42331Y28381D01*
X42392Y28430D02*
X42392Y28210D01*
X42331Y28210D02*
X42453Y28210D01*
X42547Y28381D02*
X42608Y28430D01*
X42608Y28210D01*
X42547Y28210D02*
X42669Y28210D01*
X43331Y28381D02*
X43392Y28430D01*
X43392Y28210D01*
X43331Y28210D02*
X43453Y28210D01*
X43547Y28210D02*
X43608Y28210D01*
X43623Y28212D01*
X43636Y28217D01*
X43648Y28225D01*
X43658Y28236D01*
X43665Y28249D01*
X43669Y28264D01*
X43669Y28278D01*
X43665Y28293D01*
X43658Y28306D01*
X43648Y28317D01*
X43636Y28325D01*
X43623Y28330D01*
X43608Y28332D01*
X43620Y28430D02*
X43547Y28430D01*
X43620Y28430D02*
X43633Y28428D01*
X43645Y28423D01*
X43655Y28416D01*
X43662Y28406D01*
X43667Y28394D01*
X43669Y28381D01*
X43667Y28368D01*
X43662Y28357D01*
X43655Y28346D01*
X43645Y28339D01*
X43633Y28334D01*
X43620Y28332D01*
X43571Y28332D01*
X44331Y28381D02*
X44392Y28430D01*
X44392Y28210D01*
X44331Y28210D02*
X44453Y28210D01*
X44547Y28210D02*
X44620Y28210D01*
X44633Y28212D01*
X44644Y28217D01*
X44655Y28224D01*
X44662Y28234D01*
X44667Y28246D01*
X44669Y28259D01*
X44669Y28283D01*
X44667Y28296D01*
X44662Y28308D01*
X44655Y28318D01*
X44645Y28325D01*
X44633Y28330D01*
X44620Y28332D01*
X44547Y28332D01*
X44547Y28430D01*
X44669Y28430D01*
X45331Y28381D02*
X45392Y28430D01*
X45392Y28210D01*
X45331Y28210D02*
X45453Y28210D01*
X45547Y28406D02*
X45547Y28430D01*
X45669Y28430D01*
X45608Y28210D01*
X46331Y28381D02*
X46392Y28430D01*
X46392Y28210D01*
X46331Y28210D02*
X46453Y28210D01*
X46596Y28308D02*
X46669Y28308D01*
X46596Y28308D02*
X46583Y28310D01*
X46571Y28315D01*
X46561Y28322D01*
X46554Y28333D01*
X46549Y28344D01*
X46547Y28357D01*
X46547Y28369D01*
X46549Y28384D01*
X46554Y28397D01*
X46562Y28409D01*
X46573Y28419D01*
X46586Y28426D01*
X46601Y28430D01*
X46615Y28430D01*
X46630Y28426D01*
X46643Y28419D01*
X46654Y28409D01*
X46662Y28397D01*
X46667Y28384D01*
X46669Y28369D01*
X46669Y28308D01*
X46668Y28291D01*
X46663Y28274D01*
X46656Y28259D01*
X46646Y28245D01*
X46634Y28233D01*
X46620Y28223D01*
X46605Y28216D01*
X46588Y28211D01*
X46571Y28210D01*
X37248Y25296D02*
X37102Y25296D01*
X37175Y25222D02*
X37175Y25369D01*
X37344Y25210D02*
X37405Y25210D01*
X37420Y25212D01*
X37433Y25217D01*
X37445Y25225D01*
X37455Y25236D01*
X37462Y25249D01*
X37466Y25264D01*
X37466Y25278D01*
X37462Y25293D01*
X37455Y25306D01*
X37445Y25317D01*
X37433Y25325D01*
X37420Y25330D01*
X37405Y25332D01*
X37418Y25430D02*
X37344Y25430D01*
X37418Y25430D02*
X37431Y25428D01*
X37443Y25423D01*
X37453Y25416D01*
X37460Y25406D01*
X37465Y25394D01*
X37467Y25381D01*
X37465Y25368D01*
X37460Y25357D01*
X37453Y25346D01*
X37443Y25339D01*
X37431Y25334D01*
X37418Y25332D01*
X37369Y25332D01*
X37548Y25430D02*
X37621Y25210D01*
X37695Y25430D01*
X37776Y25210D02*
X37837Y25210D01*
X37852Y25212D01*
X37865Y25217D01*
X37877Y25225D01*
X37887Y25236D01*
X37894Y25249D01*
X37898Y25264D01*
X37898Y25278D01*
X37894Y25293D01*
X37887Y25306D01*
X37877Y25317D01*
X37865Y25325D01*
X37852Y25330D01*
X37837Y25332D01*
X37850Y25430D02*
X37776Y25430D01*
X37850Y25430D02*
X37863Y25428D01*
X37875Y25423D01*
X37885Y25416D01*
X37892Y25406D01*
X37897Y25394D01*
X37899Y25381D01*
X37897Y25368D01*
X37892Y25357D01*
X37885Y25346D01*
X37875Y25339D01*
X37863Y25334D01*
X37850Y25332D01*
X37801Y25332D01*
X38313Y25210D02*
X38326Y25212D01*
X38338Y25217D01*
X38348Y25224D01*
X38355Y25235D01*
X38360Y25246D01*
X38362Y25259D01*
X38313Y25210D02*
X38297Y25211D01*
X38281Y25215D01*
X38266Y25221D01*
X38252Y25230D01*
X38240Y25240D01*
X38245Y25381D02*
X38247Y25394D01*
X38252Y25406D01*
X38259Y25416D01*
X38270Y25423D01*
X38281Y25428D01*
X38294Y25430D01*
X38309Y25429D01*
X38323Y25425D01*
X38337Y25419D01*
X38349Y25412D01*
X38245Y25381D02*
X38247Y25368D01*
X38252Y25356D01*
X38259Y25346D01*
X38270Y25338D01*
X38337Y25302D02*
X38348Y25294D01*
X38355Y25284D01*
X38360Y25272D01*
X38362Y25259D01*
X38337Y25302D02*
X38270Y25338D01*
X38496Y25210D02*
X38545Y25210D01*
X38496Y25210D02*
X38483Y25212D01*
X38472Y25217D01*
X38461Y25224D01*
X38454Y25235D01*
X38449Y25246D01*
X38447Y25259D01*
X38447Y25381D01*
X38449Y25394D01*
X38454Y25405D01*
X38461Y25416D01*
X38471Y25423D01*
X38483Y25428D01*
X38496Y25430D01*
X38545Y25430D01*
X38639Y25430D02*
X38639Y25210D01*
X38639Y25296D02*
X38761Y25430D01*
X38687Y25344D02*
X38761Y25210D01*
X39326Y25210D02*
X39339Y25212D01*
X39351Y25217D01*
X39361Y25224D01*
X39368Y25235D01*
X39373Y25246D01*
X39375Y25259D01*
X39326Y25210D02*
X39310Y25211D01*
X39294Y25215D01*
X39279Y25221D01*
X39265Y25230D01*
X39253Y25240D01*
X39259Y25381D02*
X39261Y25394D01*
X39266Y25406D01*
X39273Y25416D01*
X39284Y25423D01*
X39295Y25428D01*
X39308Y25430D01*
X39323Y25429D01*
X39337Y25425D01*
X39351Y25419D01*
X39363Y25412D01*
X39259Y25381D02*
X39261Y25368D01*
X39266Y25356D01*
X39273Y25346D01*
X39284Y25338D01*
X39350Y25302D02*
X39361Y25294D01*
X39368Y25284D01*
X39373Y25272D01*
X39375Y25259D01*
X39351Y25302D02*
X39283Y25338D01*
X39510Y25210D02*
X39559Y25210D01*
X39510Y25210D02*
X39497Y25212D01*
X39486Y25217D01*
X39475Y25224D01*
X39468Y25235D01*
X39463Y25246D01*
X39461Y25259D01*
X39461Y25381D01*
X39463Y25394D01*
X39468Y25405D01*
X39475Y25416D01*
X39485Y25423D01*
X39497Y25428D01*
X39510Y25430D01*
X39559Y25430D01*
X39649Y25430D02*
X39649Y25210D01*
X39747Y25210D01*
X40273Y25210D02*
X40321Y25210D01*
X40273Y25210D02*
X40260Y25212D01*
X40249Y25217D01*
X40238Y25224D01*
X40231Y25235D01*
X40226Y25246D01*
X40224Y25259D01*
X40224Y25381D01*
X40226Y25394D01*
X40231Y25405D01*
X40238Y25416D01*
X40248Y25423D01*
X40260Y25428D01*
X40273Y25430D01*
X40321Y25430D01*
X40404Y25369D02*
X40404Y25271D01*
X40404Y25369D02*
X40406Y25384D01*
X40411Y25397D01*
X40419Y25409D01*
X40430Y25419D01*
X40443Y25426D01*
X40458Y25430D01*
X40472Y25430D01*
X40487Y25426D01*
X40500Y25419D01*
X40511Y25409D01*
X40519Y25397D01*
X40524Y25384D01*
X40526Y25369D01*
X40527Y25369D02*
X40527Y25271D01*
X40526Y25271D02*
X40524Y25256D01*
X40519Y25243D01*
X40511Y25231D01*
X40500Y25221D01*
X40487Y25214D01*
X40472Y25210D01*
X40458Y25210D01*
X40443Y25214D01*
X40430Y25221D01*
X40419Y25231D01*
X40411Y25243D01*
X40406Y25256D01*
X40404Y25271D01*
X40630Y25210D02*
X40630Y25430D01*
X40703Y25308D01*
X40776Y25430D01*
X40776Y25210D01*
X41488Y25308D02*
X41561Y25308D01*
X41488Y25308D02*
X41475Y25310D01*
X41463Y25315D01*
X41453Y25322D01*
X41446Y25333D01*
X41441Y25344D01*
X41439Y25357D01*
X41439Y25369D01*
X41441Y25384D01*
X41446Y25397D01*
X41454Y25409D01*
X41465Y25419D01*
X41478Y25426D01*
X41493Y25430D01*
X41507Y25430D01*
X41522Y25426D01*
X41535Y25419D01*
X41546Y25409D01*
X41554Y25397D01*
X41559Y25384D01*
X41561Y25369D01*
X41561Y25308D01*
X41560Y25291D01*
X41555Y25274D01*
X41548Y25259D01*
X41538Y25245D01*
X41526Y25233D01*
X41512Y25223D01*
X41497Y25216D01*
X41480Y25211D01*
X41463Y25210D01*
X42331Y25381D02*
X42392Y25430D01*
X42392Y25210D01*
X42331Y25210D02*
X42453Y25210D01*
X42547Y25381D02*
X42608Y25430D01*
X42608Y25210D01*
X42547Y25210D02*
X42669Y25210D01*
X43331Y25381D02*
X43392Y25430D01*
X43392Y25210D01*
X43331Y25210D02*
X43453Y25210D01*
X43547Y25210D02*
X43608Y25210D01*
X43623Y25212D01*
X43636Y25217D01*
X43648Y25225D01*
X43658Y25236D01*
X43665Y25249D01*
X43669Y25264D01*
X43669Y25278D01*
X43665Y25293D01*
X43658Y25306D01*
X43648Y25317D01*
X43636Y25325D01*
X43623Y25330D01*
X43608Y25332D01*
X43620Y25430D02*
X43547Y25430D01*
X43620Y25430D02*
X43633Y25428D01*
X43645Y25423D01*
X43655Y25416D01*
X43662Y25406D01*
X43667Y25394D01*
X43669Y25381D01*
X43667Y25368D01*
X43662Y25357D01*
X43655Y25346D01*
X43645Y25339D01*
X43633Y25334D01*
X43620Y25332D01*
X43571Y25332D01*
X44331Y25381D02*
X44392Y25430D01*
X44392Y25210D01*
X44331Y25210D02*
X44453Y25210D01*
X44547Y25210D02*
X44620Y25210D01*
X44633Y25212D01*
X44644Y25217D01*
X44655Y25224D01*
X44662Y25234D01*
X44667Y25246D01*
X44669Y25259D01*
X44669Y25283D01*
X44667Y25296D01*
X44662Y25308D01*
X44655Y25318D01*
X44645Y25325D01*
X44633Y25330D01*
X44620Y25332D01*
X44547Y25332D01*
X44547Y25430D01*
X44669Y25430D01*
X45331Y25381D02*
X45392Y25430D01*
X45392Y25210D01*
X45331Y25210D02*
X45453Y25210D01*
X45547Y25406D02*
X45547Y25430D01*
X45669Y25430D01*
X45608Y25210D01*
X46331Y25381D02*
X46392Y25430D01*
X46392Y25210D01*
X46331Y25210D02*
X46453Y25210D01*
X46596Y25308D02*
X46669Y25308D01*
X46596Y25308D02*
X46583Y25310D01*
X46571Y25315D01*
X46561Y25322D01*
X46554Y25333D01*
X46549Y25344D01*
X46547Y25357D01*
X46547Y25369D01*
X46549Y25384D01*
X46554Y25397D01*
X46562Y25409D01*
X46573Y25419D01*
X46586Y25426D01*
X46601Y25430D01*
X46615Y25430D01*
X46630Y25426D01*
X46643Y25419D01*
X46654Y25409D01*
X46662Y25397D01*
X46667Y25384D01*
X46669Y25369D01*
X46669Y25308D01*
X46668Y25291D01*
X46663Y25274D01*
X46656Y25259D01*
X46646Y25245D01*
X46634Y25233D01*
X46620Y25223D01*
X46605Y25216D01*
X46588Y25211D01*
X46571Y25210D01*
X37331Y30732D02*
X37294Y30732D01*
X37331Y30732D02*
X37331Y30610D01*
X37257Y30610D01*
X37244Y30612D01*
X37233Y30617D01*
X37222Y30624D01*
X37215Y30635D01*
X37210Y30646D01*
X37208Y30659D01*
X37208Y30781D01*
X37210Y30794D01*
X37215Y30805D01*
X37222Y30816D01*
X37232Y30823D01*
X37244Y30828D01*
X37257Y30830D01*
X37331Y30830D01*
X37439Y30830D02*
X37439Y30610D01*
X37561Y30610D02*
X37439Y30830D01*
X37561Y30830D02*
X37561Y30610D01*
X37669Y30610D02*
X37669Y30830D01*
X37730Y30830D01*
X37744Y30828D01*
X37756Y30824D01*
X37768Y30817D01*
X37778Y30807D01*
X37785Y30795D01*
X37789Y30783D01*
X37791Y30769D01*
X37792Y30769D02*
X37792Y30671D01*
X37791Y30671D02*
X37789Y30657D01*
X37785Y30645D01*
X37778Y30633D01*
X37768Y30623D01*
X37756Y30616D01*
X37744Y30612D01*
X37730Y30610D01*
X37669Y30610D01*
X38236Y30610D02*
X38236Y30830D01*
X38297Y30830D01*
X38312Y30828D01*
X38325Y30823D01*
X38337Y30815D01*
X38347Y30804D01*
X38354Y30791D01*
X38358Y30776D01*
X38358Y30762D01*
X38354Y30747D01*
X38347Y30734D01*
X38337Y30723D01*
X38325Y30715D01*
X38312Y30710D01*
X38297Y30708D01*
X38236Y30708D01*
X38310Y30708D02*
X38359Y30610D01*
X38499Y30610D02*
X38548Y30610D01*
X38499Y30610D02*
X38486Y30612D01*
X38475Y30617D01*
X38464Y30624D01*
X38457Y30635D01*
X38452Y30646D01*
X38450Y30659D01*
X38450Y30781D01*
X38452Y30794D01*
X38457Y30805D01*
X38464Y30816D01*
X38474Y30823D01*
X38486Y30828D01*
X38499Y30830D01*
X38548Y30830D01*
X38641Y30830D02*
X38641Y30610D01*
X38641Y30696D02*
X38764Y30830D01*
X38690Y30744D02*
X38764Y30610D01*
X39161Y30610D02*
X39161Y30830D01*
X39137Y30610D02*
X39186Y30610D01*
X39186Y30830D02*
X39137Y30830D01*
X39280Y30830D02*
X39280Y30610D01*
X39402Y30610D02*
X39280Y30830D01*
X39402Y30830D02*
X39402Y30610D01*
X39511Y30610D02*
X39511Y30830D01*
X39511Y30732D02*
X39633Y30732D01*
X39633Y30830D02*
X39633Y30610D01*
X39741Y30610D02*
X39741Y30830D01*
X39802Y30830D01*
X39816Y30828D01*
X39828Y30824D01*
X39840Y30817D01*
X39850Y30807D01*
X39857Y30795D01*
X39861Y30783D01*
X39863Y30769D01*
X39863Y30671D01*
X39861Y30657D01*
X39857Y30645D01*
X39850Y30633D01*
X39840Y30623D01*
X39828Y30616D01*
X39816Y30612D01*
X39802Y30610D01*
X39741Y30610D01*
X40439Y30671D02*
X40441Y30686D01*
X40446Y30699D01*
X40454Y30711D01*
X40465Y30721D01*
X40478Y30728D01*
X40493Y30732D01*
X40507Y30732D01*
X40522Y30728D01*
X40535Y30721D01*
X40546Y30711D01*
X40554Y30699D01*
X40559Y30686D01*
X40561Y30671D01*
X40559Y30656D01*
X40554Y30643D01*
X40546Y30631D01*
X40535Y30621D01*
X40522Y30614D01*
X40507Y30610D01*
X40493Y30610D01*
X40478Y30614D01*
X40465Y30621D01*
X40454Y30631D01*
X40446Y30643D01*
X40441Y30656D01*
X40439Y30671D01*
X40451Y30781D02*
X40453Y30794D01*
X40458Y30806D01*
X40465Y30816D01*
X40476Y30823D01*
X40487Y30828D01*
X40500Y30830D01*
X40513Y30828D01*
X40525Y30823D01*
X40535Y30816D01*
X40542Y30806D01*
X40547Y30794D01*
X40549Y30781D01*
X40547Y30768D01*
X40542Y30757D01*
X40535Y30746D01*
X40525Y30739D01*
X40513Y30734D01*
X40500Y30732D01*
X40487Y30734D01*
X40476Y30739D01*
X40465Y30746D01*
X40458Y30757D01*
X40453Y30768D01*
X40451Y30781D01*
X41331Y30781D02*
X41392Y30830D01*
X41392Y30610D01*
X41331Y30610D02*
X41453Y30610D01*
X41547Y30720D02*
X41548Y30740D01*
X41552Y30761D01*
X41557Y30780D01*
X41565Y30799D01*
X41565Y30800D02*
X41570Y30810D01*
X41578Y30818D01*
X41587Y30825D01*
X41597Y30829D01*
X41608Y30830D01*
X41619Y30829D01*
X41629Y30825D01*
X41638Y30818D01*
X41646Y30810D01*
X41651Y30800D01*
X41651Y30799D02*
X41659Y30780D01*
X41664Y30761D01*
X41668Y30740D01*
X41669Y30720D01*
X41547Y30720D02*
X41548Y30700D01*
X41552Y30679D01*
X41557Y30660D01*
X41565Y30641D01*
X41565Y30640D02*
X41570Y30630D01*
X41578Y30622D01*
X41587Y30615D01*
X41597Y30611D01*
X41608Y30610D01*
X41651Y30641D02*
X41659Y30660D01*
X41664Y30679D01*
X41668Y30700D01*
X41669Y30720D01*
X41651Y30640D02*
X41646Y30630D01*
X41638Y30622D01*
X41629Y30615D01*
X41619Y30611D01*
X41608Y30610D01*
X41559Y30659D02*
X41657Y30781D01*
X42331Y30781D02*
X42392Y30830D01*
X42392Y30610D01*
X42331Y30610D02*
X42453Y30610D01*
X42669Y30775D02*
X42668Y30787D01*
X42664Y30799D01*
X42657Y30809D01*
X42648Y30818D01*
X42638Y30825D01*
X42626Y30829D01*
X42614Y30830D01*
X42599Y30828D01*
X42585Y30824D01*
X42572Y30816D01*
X42561Y30806D01*
X42552Y30794D01*
X42546Y30781D01*
X42651Y30732D02*
X42658Y30741D01*
X42664Y30752D01*
X42668Y30763D01*
X42669Y30775D01*
X42651Y30732D02*
X42547Y30610D01*
X42669Y30610D01*
X43331Y30781D02*
X43392Y30830D01*
X43392Y30610D01*
X43331Y30610D02*
X43453Y30610D01*
X43547Y30659D02*
X43596Y30830D01*
X43547Y30659D02*
X43669Y30659D01*
X43632Y30708D02*
X43632Y30610D01*
X44331Y30781D02*
X44392Y30830D01*
X44392Y30610D01*
X44331Y30610D02*
X44453Y30610D01*
X44547Y30732D02*
X44620Y30732D01*
X44633Y30730D01*
X44645Y30725D01*
X44655Y30718D01*
X44662Y30708D01*
X44667Y30696D01*
X44669Y30683D01*
X44669Y30671D01*
X44667Y30656D01*
X44662Y30643D01*
X44654Y30631D01*
X44643Y30621D01*
X44630Y30614D01*
X44615Y30610D01*
X44601Y30610D01*
X44586Y30614D01*
X44573Y30621D01*
X44562Y30631D01*
X44554Y30643D01*
X44549Y30656D01*
X44547Y30671D01*
X44547Y30732D01*
X44549Y30751D01*
X44554Y30770D01*
X44564Y30786D01*
X44576Y30801D01*
X44591Y30813D01*
X44607Y30823D01*
X44626Y30828D01*
X44645Y30830D01*
X45331Y30781D02*
X45392Y30830D01*
X45392Y30610D01*
X45331Y30610D02*
X45453Y30610D01*
X45547Y30671D02*
X45549Y30686D01*
X45554Y30699D01*
X45562Y30711D01*
X45573Y30721D01*
X45586Y30728D01*
X45601Y30732D01*
X45615Y30732D01*
X45630Y30728D01*
X45643Y30721D01*
X45654Y30711D01*
X45662Y30699D01*
X45667Y30686D01*
X45669Y30671D01*
X45667Y30656D01*
X45662Y30643D01*
X45654Y30631D01*
X45643Y30621D01*
X45630Y30614D01*
X45615Y30610D01*
X45601Y30610D01*
X45586Y30614D01*
X45573Y30621D01*
X45562Y30631D01*
X45554Y30643D01*
X45549Y30656D01*
X45547Y30671D01*
X45559Y30781D02*
X45561Y30794D01*
X45566Y30806D01*
X45573Y30816D01*
X45584Y30823D01*
X45595Y30828D01*
X45608Y30830D01*
X45621Y30828D01*
X45633Y30823D01*
X45643Y30816D01*
X45650Y30806D01*
X45655Y30794D01*
X45657Y30781D01*
X45655Y30768D01*
X45650Y30757D01*
X45643Y30746D01*
X45633Y30739D01*
X45621Y30734D01*
X45608Y30732D01*
X45595Y30734D01*
X45584Y30739D01*
X45573Y30746D01*
X45566Y30757D01*
X45561Y30768D01*
X45559Y30781D01*
X46398Y30830D02*
X46410Y30829D01*
X46422Y30825D01*
X46432Y30818D01*
X46441Y30809D01*
X46448Y30799D01*
X46452Y30787D01*
X46453Y30775D01*
X46398Y30830D02*
X46383Y30828D01*
X46369Y30824D01*
X46356Y30816D01*
X46345Y30806D01*
X46336Y30794D01*
X46330Y30781D01*
X46435Y30732D02*
X46442Y30741D01*
X46448Y30752D01*
X46452Y30763D01*
X46453Y30775D01*
X46435Y30732D02*
X46331Y30610D01*
X46453Y30610D01*
X46547Y30720D02*
X46548Y30740D01*
X46552Y30761D01*
X46557Y30780D01*
X46565Y30799D01*
X46565Y30800D02*
X46570Y30810D01*
X46578Y30818D01*
X46587Y30825D01*
X46597Y30829D01*
X46608Y30830D01*
X46619Y30829D01*
X46629Y30825D01*
X46638Y30818D01*
X46646Y30810D01*
X46651Y30800D01*
X46651Y30799D02*
X46659Y30780D01*
X46664Y30761D01*
X46668Y30740D01*
X46669Y30720D01*
X46547Y30720D02*
X46548Y30700D01*
X46552Y30679D01*
X46557Y30660D01*
X46565Y30641D01*
X46565Y30640D02*
X46570Y30630D01*
X46578Y30622D01*
X46587Y30615D01*
X46597Y30611D01*
X46608Y30610D01*
X46651Y30641D02*
X46659Y30660D01*
X46664Y30679D01*
X46668Y30700D01*
X46669Y30720D01*
X46651Y30640D02*
X46646Y30630D01*
X46638Y30622D01*
X46629Y30615D01*
X46619Y30611D01*
X46608Y30610D01*
X46559Y30659D02*
X46657Y30781D01*
D12*
X36886Y27093D02*
X36884Y27111D01*
X36879Y27129D01*
X36870Y27145D01*
X36859Y27159D01*
X36845Y27170D01*
X36829Y27179D01*
X36811Y27184D01*
X36793Y27186D01*
X36793Y27185D02*
X36774Y27184D01*
X36756Y27179D01*
X36739Y27172D01*
X36723Y27162D01*
X36709Y27150D01*
X36697Y27136D01*
X36687Y27120D01*
X36680Y27103D01*
X36854Y27021D02*
X36865Y27033D01*
X36874Y27047D01*
X36880Y27061D01*
X36884Y27077D01*
X36885Y27093D01*
X36854Y27021D02*
X36679Y26815D01*
X36885Y26815D01*
X36782Y26185D02*
X36679Y26103D01*
X36782Y26185D02*
X36782Y25815D01*
X36679Y25815D02*
X36885Y25815D01*
X36886Y30093D02*
X36884Y30111D01*
X36879Y30129D01*
X36870Y30145D01*
X36859Y30159D01*
X36845Y30170D01*
X36829Y30179D01*
X36811Y30184D01*
X36793Y30186D01*
X36793Y30185D02*
X36774Y30184D01*
X36756Y30179D01*
X36739Y30172D01*
X36723Y30162D01*
X36709Y30150D01*
X36697Y30136D01*
X36687Y30120D01*
X36680Y30103D01*
X36854Y30021D02*
X36865Y30033D01*
X36874Y30047D01*
X36880Y30061D01*
X36884Y30077D01*
X36885Y30093D01*
X36854Y30021D02*
X36679Y29815D01*
X36885Y29815D01*
X36782Y29185D02*
X36679Y29103D01*
X36782Y29185D02*
X36782Y28815D01*
X36679Y28815D02*
X36885Y28815D01*
X59397Y34203D02*
X59500Y34285D01*
X59500Y33915D01*
X59397Y33915D02*
X59603Y33915D01*
X60510Y34286D02*
X60528Y34284D01*
X60546Y34279D01*
X60562Y34270D01*
X60576Y34259D01*
X60587Y34245D01*
X60596Y34229D01*
X60601Y34211D01*
X60603Y34193D01*
X60510Y34285D02*
X60491Y34284D01*
X60473Y34279D01*
X60456Y34272D01*
X60440Y34262D01*
X60426Y34250D01*
X60414Y34236D01*
X60404Y34220D01*
X60397Y34203D01*
X60571Y34121D02*
X60582Y34133D01*
X60591Y34147D01*
X60597Y34161D01*
X60601Y34177D01*
X60602Y34193D01*
X60572Y34121D02*
X60397Y33915D01*
X60603Y33915D01*
D10*
X38030Y32670D02*
X38030Y32030D01*
X38314Y32030D01*
X38563Y32030D02*
X38848Y32030D01*
X38563Y32030D02*
X38563Y32670D01*
X38848Y32670D01*
X38777Y32386D02*
X38563Y32386D01*
X39096Y32670D02*
X39096Y32030D01*
X39096Y32670D02*
X39273Y32670D01*
X39298Y32668D01*
X39323Y32663D01*
X39347Y32654D01*
X39369Y32642D01*
X39390Y32627D01*
X39408Y32609D01*
X39423Y32588D01*
X39435Y32566D01*
X39444Y32542D01*
X39449Y32517D01*
X39451Y32492D01*
X39451Y32208D01*
X39449Y32183D01*
X39444Y32158D01*
X39435Y32134D01*
X39423Y32112D01*
X39408Y32091D01*
X39390Y32073D01*
X39369Y32058D01*
X39347Y32046D01*
X39323Y32037D01*
X39298Y32032D01*
X39273Y32030D01*
X39096Y32030D01*
X40252Y32030D02*
X40274Y32032D01*
X40296Y32037D01*
X40316Y32045D01*
X40335Y32057D01*
X40352Y32072D01*
X40367Y32089D01*
X40379Y32108D01*
X40387Y32128D01*
X40392Y32150D01*
X40394Y32172D01*
X40252Y32030D02*
X40218Y32032D01*
X40185Y32038D01*
X40152Y32047D01*
X40121Y32060D01*
X40092Y32076D01*
X40064Y32096D01*
X40039Y32119D01*
X40057Y32528D02*
X40059Y32550D01*
X40064Y32572D01*
X40072Y32592D01*
X40084Y32611D01*
X40099Y32628D01*
X40116Y32643D01*
X40135Y32655D01*
X40155Y32663D01*
X40177Y32668D01*
X40199Y32670D01*
X40228Y32668D01*
X40256Y32664D01*
X40283Y32656D01*
X40310Y32646D01*
X40335Y32633D01*
X40359Y32617D01*
X40057Y32528D02*
X40059Y32507D01*
X40063Y32486D01*
X40071Y32466D01*
X40082Y32447D01*
X40095Y32431D01*
X40110Y32416D01*
X40128Y32404D01*
X40323Y32296D02*
X40341Y32284D01*
X40356Y32269D01*
X40369Y32253D01*
X40380Y32234D01*
X40388Y32214D01*
X40392Y32193D01*
X40394Y32172D01*
X40324Y32297D02*
X40128Y32403D01*
X40627Y32457D02*
X40627Y32030D01*
X40609Y32634D02*
X40609Y32670D01*
X40645Y32670D01*
X40645Y32634D01*
X40609Y32634D01*
X41156Y32670D02*
X41156Y32030D01*
X40979Y32030D01*
X40960Y32032D01*
X40942Y32036D01*
X40926Y32044D01*
X40910Y32055D01*
X40897Y32068D01*
X40886Y32084D01*
X40878Y32100D01*
X40874Y32118D01*
X40872Y32137D01*
X40872Y32350D01*
X40874Y32369D01*
X40878Y32387D01*
X40886Y32404D01*
X40897Y32419D01*
X40910Y32432D01*
X40926Y32443D01*
X40942Y32451D01*
X40960Y32455D01*
X40979Y32457D01*
X41156Y32457D01*
X41535Y32030D02*
X41713Y32030D01*
X41535Y32030D02*
X41516Y32032D01*
X41498Y32036D01*
X41482Y32044D01*
X41466Y32055D01*
X41453Y32068D01*
X41442Y32084D01*
X41434Y32100D01*
X41430Y32118D01*
X41428Y32137D01*
X41429Y32137D02*
X41429Y32314D01*
X41431Y32336D01*
X41436Y32358D01*
X41444Y32378D01*
X41456Y32397D01*
X41471Y32414D01*
X41488Y32429D01*
X41507Y32441D01*
X41527Y32449D01*
X41549Y32454D01*
X41571Y32456D01*
X41593Y32454D01*
X41615Y32449D01*
X41635Y32441D01*
X41654Y32429D01*
X41671Y32414D01*
X41686Y32397D01*
X41698Y32378D01*
X41706Y32358D01*
X41711Y32336D01*
X41713Y32314D01*
X41713Y32243D01*
X41429Y32243D01*
D12*
X42015Y33803D02*
X42118Y33885D01*
X42118Y33515D01*
X42015Y33515D02*
X42221Y33515D01*
X42375Y33844D02*
X42375Y33885D01*
X42581Y33885D01*
X42478Y33515D01*
X42927Y33618D02*
X42927Y33782D01*
X42929Y33801D01*
X42934Y33819D01*
X42942Y33836D01*
X42954Y33851D01*
X42968Y33864D01*
X42984Y33874D01*
X43002Y33881D01*
X43020Y33885D01*
X43040Y33885D01*
X43058Y33881D01*
X43076Y33874D01*
X43092Y33864D01*
X43106Y33851D01*
X43118Y33836D01*
X43126Y33819D01*
X43131Y33801D01*
X43133Y33782D01*
X43133Y33618D01*
X43131Y33599D01*
X43126Y33581D01*
X43118Y33564D01*
X43106Y33549D01*
X43092Y33536D01*
X43076Y33526D01*
X43058Y33519D01*
X43040Y33515D01*
X43020Y33515D01*
X43002Y33519D01*
X42984Y33526D01*
X42968Y33536D01*
X42954Y33549D01*
X42942Y33564D01*
X42934Y33581D01*
X42929Y33599D01*
X42927Y33618D01*
X43346Y33515D02*
X43428Y33515D01*
X43346Y33515D02*
X43332Y33517D01*
X43319Y33521D01*
X43307Y33529D01*
X43298Y33538D01*
X43290Y33550D01*
X43286Y33563D01*
X43284Y33577D01*
X43284Y33700D01*
X43286Y33714D01*
X43290Y33727D01*
X43298Y33739D01*
X43307Y33748D01*
X43319Y33756D01*
X43332Y33760D01*
X43346Y33762D01*
X43428Y33762D01*
X43529Y33762D02*
X43653Y33762D01*
X43570Y33885D02*
X43570Y33577D01*
X43572Y33563D01*
X43576Y33550D01*
X43584Y33538D01*
X43593Y33529D01*
X43605Y33521D01*
X43618Y33517D01*
X43632Y33515D01*
X43653Y33515D01*
X44096Y33886D02*
X44114Y33884D01*
X44132Y33879D01*
X44148Y33870D01*
X44162Y33859D01*
X44173Y33845D01*
X44182Y33829D01*
X44187Y33811D01*
X44189Y33793D01*
X44096Y33885D02*
X44077Y33884D01*
X44059Y33879D01*
X44042Y33872D01*
X44026Y33862D01*
X44012Y33850D01*
X44000Y33836D01*
X43990Y33820D01*
X43983Y33803D01*
X44157Y33721D02*
X44168Y33733D01*
X44177Y33747D01*
X44183Y33761D01*
X44187Y33777D01*
X44188Y33793D01*
X44158Y33721D02*
X43983Y33515D01*
X44189Y33515D01*
X44343Y33700D02*
X44345Y33735D01*
X44351Y33769D01*
X44360Y33802D01*
X44374Y33834D01*
X44381Y33848D01*
X44390Y33860D01*
X44402Y33871D01*
X44415Y33879D01*
X44430Y33883D01*
X44446Y33885D01*
X44462Y33883D01*
X44477Y33879D01*
X44490Y33871D01*
X44502Y33860D01*
X44511Y33848D01*
X44518Y33834D01*
X44532Y33802D01*
X44541Y33769D01*
X44547Y33735D01*
X44549Y33700D01*
X44343Y33700D02*
X44345Y33665D01*
X44351Y33631D01*
X44360Y33598D01*
X44374Y33566D01*
X44381Y33552D01*
X44390Y33540D01*
X44402Y33529D01*
X44415Y33521D01*
X44430Y33517D01*
X44446Y33515D01*
X44518Y33566D02*
X44532Y33598D01*
X44541Y33631D01*
X44547Y33665D01*
X44549Y33700D01*
X44518Y33566D02*
X44511Y33552D01*
X44502Y33540D01*
X44490Y33529D01*
X44477Y33521D01*
X44462Y33517D01*
X44446Y33515D01*
X44364Y33597D02*
X44528Y33803D01*
X44703Y33803D02*
X44806Y33885D01*
X44806Y33515D01*
X44703Y33515D02*
X44909Y33515D01*
X45145Y33679D02*
X45269Y33679D01*
X45145Y33680D02*
X45129Y33682D01*
X45114Y33686D01*
X45099Y33694D01*
X45087Y33704D01*
X45077Y33716D01*
X45069Y33731D01*
X45065Y33746D01*
X45063Y33762D01*
X45063Y33782D01*
X45065Y33801D01*
X45070Y33819D01*
X45078Y33836D01*
X45090Y33851D01*
X45104Y33864D01*
X45120Y33874D01*
X45138Y33881D01*
X45156Y33885D01*
X45176Y33885D01*
X45194Y33881D01*
X45212Y33874D01*
X45228Y33864D01*
X45242Y33851D01*
X45254Y33836D01*
X45262Y33819D01*
X45267Y33801D01*
X45269Y33782D01*
X45269Y33679D01*
X45268Y33679D02*
X45266Y33656D01*
X45261Y33633D01*
X45253Y33611D01*
X45242Y33590D01*
X45228Y33572D01*
X45211Y33555D01*
X45193Y33541D01*
X45172Y33530D01*
X45150Y33522D01*
X45127Y33517D01*
X45104Y33515D01*
D10*
X47000Y6850D02*
X39000Y6850D01*
X39000Y9150D02*
X47000Y9150D01*
X39000Y9150D02*
X39000Y6850D01*
X47000Y6850D02*
X47000Y7600D01*
X47000Y8400D02*
X47000Y9150D01*
X47000Y8400D02*
X46961Y8398D01*
X46922Y8392D01*
X46884Y8383D01*
X46847Y8370D01*
X46811Y8353D01*
X46778Y8333D01*
X46746Y8309D01*
X46717Y8283D01*
X46691Y8254D01*
X46667Y8222D01*
X46647Y8189D01*
X46630Y8153D01*
X46617Y8116D01*
X46608Y8078D01*
X46602Y8039D01*
X46600Y8000D01*
X46602Y7961D01*
X46608Y7922D01*
X46617Y7884D01*
X46630Y7847D01*
X46647Y7811D01*
X46667Y7778D01*
X46691Y7746D01*
X46717Y7717D01*
X46746Y7691D01*
X46778Y7667D01*
X46811Y7647D01*
X46847Y7630D01*
X46884Y7617D01*
X46922Y7608D01*
X46961Y7602D01*
X47000Y7600D01*
D13*
X47175Y7558D02*
X47625Y7558D01*
X47175Y7558D02*
X47175Y7683D01*
X47177Y7704D01*
X47182Y7724D01*
X47190Y7742D01*
X47201Y7760D01*
X47215Y7775D01*
X47232Y7788D01*
X47250Y7797D01*
X47269Y7804D01*
X47290Y7808D01*
X47310Y7808D01*
X47331Y7804D01*
X47350Y7797D01*
X47368Y7788D01*
X47385Y7775D01*
X47399Y7760D01*
X47410Y7742D01*
X47418Y7724D01*
X47423Y7704D01*
X47425Y7683D01*
X47425Y7558D01*
X47425Y7708D02*
X47625Y7808D01*
X47625Y8021D02*
X47625Y8221D01*
X47625Y8021D02*
X47175Y8021D01*
X47175Y8221D01*
X47375Y8171D02*
X47375Y8021D01*
X47375Y8585D02*
X47375Y8660D01*
X47625Y8660D01*
X47625Y8510D01*
X47623Y8493D01*
X47619Y8476D01*
X47612Y8460D01*
X47602Y8446D01*
X47589Y8433D01*
X47575Y8423D01*
X47559Y8416D01*
X47542Y8412D01*
X47525Y8410D01*
X47275Y8410D01*
X47258Y8412D01*
X47241Y8416D01*
X47225Y8423D01*
X47211Y8433D01*
X47198Y8446D01*
X47188Y8460D01*
X47181Y8476D01*
X47177Y8493D01*
X47175Y8510D01*
X47175Y8660D01*
X47625Y8875D02*
X47625Y9000D01*
X47623Y9021D01*
X47618Y9041D01*
X47610Y9059D01*
X47599Y9077D01*
X47585Y9092D01*
X47568Y9105D01*
X47550Y9114D01*
X47531Y9121D01*
X47510Y9125D01*
X47490Y9125D01*
X47469Y9121D01*
X47450Y9114D01*
X47432Y9105D01*
X47415Y9092D01*
X47401Y9077D01*
X47390Y9059D01*
X47382Y9041D01*
X47377Y9021D01*
X47375Y9000D01*
X47175Y9025D02*
X47175Y8875D01*
X47175Y9025D02*
X47177Y9043D01*
X47182Y9061D01*
X47190Y9078D01*
X47201Y9092D01*
X47215Y9105D01*
X47230Y9115D01*
X47248Y9121D01*
X47266Y9125D01*
X47284Y9125D01*
X47302Y9121D01*
X47320Y9115D01*
X47335Y9105D01*
X47349Y9092D01*
X47360Y9078D01*
X47368Y9061D01*
X47373Y9043D01*
X47375Y9025D01*
X47375Y8925D01*
X42600Y8225D02*
X42600Y8175D01*
X42600Y8225D02*
X42850Y8225D01*
X42725Y7775D01*
X43050Y7875D02*
X43150Y8225D01*
X43050Y7875D02*
X43300Y7875D01*
X43225Y7975D02*
X43225Y7775D01*
X43516Y7775D02*
X43516Y8225D01*
X43516Y7775D02*
X43716Y7775D01*
X44025Y7775D02*
X44042Y7777D01*
X44059Y7781D01*
X44075Y7788D01*
X44089Y7798D01*
X44102Y7811D01*
X44112Y7825D01*
X44119Y7841D01*
X44123Y7858D01*
X44125Y7875D01*
X44025Y7775D02*
X43997Y7777D01*
X43970Y7782D01*
X43944Y7791D01*
X43919Y7804D01*
X43896Y7819D01*
X43875Y7837D01*
X43888Y8125D02*
X43890Y8142D01*
X43894Y8159D01*
X43901Y8175D01*
X43911Y8189D01*
X43924Y8202D01*
X43938Y8212D01*
X43954Y8219D01*
X43971Y8223D01*
X43988Y8225D01*
X43988Y8226D02*
X44012Y8224D01*
X44036Y8220D01*
X44059Y8212D01*
X44081Y8202D01*
X44101Y8188D01*
X43937Y8037D02*
X43923Y8047D01*
X43910Y8060D01*
X43900Y8074D01*
X43893Y8090D01*
X43889Y8107D01*
X43887Y8125D01*
X44075Y7963D02*
X44089Y7953D01*
X44102Y7940D01*
X44112Y7926D01*
X44119Y7910D01*
X44123Y7893D01*
X44125Y7875D01*
X44075Y7963D02*
X43938Y8038D01*
X44310Y7775D02*
X44460Y7775D01*
X44477Y7777D01*
X44494Y7781D01*
X44510Y7788D01*
X44524Y7798D01*
X44537Y7811D01*
X44547Y7825D01*
X44554Y7841D01*
X44558Y7858D01*
X44560Y7875D01*
X44560Y7925D01*
X44558Y7942D01*
X44554Y7959D01*
X44547Y7975D01*
X44537Y7989D01*
X44524Y8002D01*
X44510Y8012D01*
X44494Y8019D01*
X44477Y8023D01*
X44460Y8025D01*
X44310Y8025D01*
X44310Y8225D01*
X44560Y8225D01*
X44860Y7975D02*
X45010Y7975D01*
X44860Y7975D02*
X44843Y7977D01*
X44826Y7981D01*
X44810Y7988D01*
X44796Y7998D01*
X44783Y8011D01*
X44773Y8025D01*
X44766Y8041D01*
X44762Y8058D01*
X44760Y8075D01*
X44760Y8100D01*
X44762Y8121D01*
X44767Y8141D01*
X44775Y8159D01*
X44786Y8177D01*
X44800Y8192D01*
X44817Y8205D01*
X44835Y8214D01*
X44854Y8221D01*
X44875Y8225D01*
X44895Y8225D01*
X44916Y8221D01*
X44935Y8214D01*
X44953Y8205D01*
X44970Y8192D01*
X44984Y8177D01*
X44995Y8159D01*
X45003Y8141D01*
X45008Y8121D01*
X45010Y8100D01*
X45010Y7975D01*
X45008Y7949D01*
X45003Y7923D01*
X44995Y7898D01*
X44983Y7875D01*
X44969Y7853D01*
X44951Y7834D01*
X44932Y7816D01*
X44910Y7802D01*
X44887Y7790D01*
X44862Y7782D01*
X44836Y7777D01*
X44810Y7775D01*
X45210Y7775D02*
X45360Y7775D01*
X45377Y7777D01*
X45394Y7781D01*
X45410Y7788D01*
X45424Y7798D01*
X45437Y7811D01*
X45447Y7825D01*
X45454Y7841D01*
X45458Y7858D01*
X45460Y7875D01*
X45460Y7925D01*
X45458Y7942D01*
X45454Y7959D01*
X45447Y7975D01*
X45437Y7989D01*
X45424Y8002D01*
X45410Y8012D01*
X45394Y8019D01*
X45377Y8023D01*
X45360Y8025D01*
X45210Y8025D01*
X45210Y8225D01*
X45460Y8225D01*
X45675Y8225D02*
X45675Y7775D01*
X45925Y7775D02*
X45675Y8225D01*
X45925Y8225D02*
X45925Y7775D01*
D10*
X61250Y33000D02*
X61250Y34000D01*
X61250Y33000D02*
X62250Y33000D01*
X62250Y34000D01*
X61250Y34000D01*
D14*
X62500Y33500D02*
X64750Y33500D01*
D10*
X61250Y33000D02*
X61250Y32000D01*
X62250Y32000D01*
X62250Y33000D01*
D14*
X62500Y32500D02*
X64750Y32500D01*
D10*
X61250Y32000D02*
X61250Y31000D01*
X62250Y31000D01*
X62250Y32000D01*
D14*
X62500Y31500D02*
X64750Y31500D01*
D10*
X61250Y31000D02*
X61250Y30000D01*
X62250Y30000D01*
X62250Y31000D01*
D14*
X62500Y30500D02*
X64750Y30500D01*
D10*
X61250Y30000D02*
X61250Y29000D01*
X62250Y29000D01*
X62250Y30000D01*
D14*
X62500Y29500D02*
X64750Y29500D01*
D10*
X61250Y29000D02*
X61250Y28000D01*
X62250Y28000D01*
X62250Y29000D01*
D14*
X62500Y28500D02*
X64750Y28500D01*
D10*
X61250Y28000D02*
X61250Y27000D01*
X62250Y27000D01*
X62250Y28000D01*
D14*
X62500Y27500D02*
X64750Y27500D01*
D10*
X61250Y27000D02*
X61250Y26000D01*
X62250Y26000D01*
X62250Y27000D01*
D14*
X62500Y26500D02*
X64750Y26500D01*
D10*
X61250Y26000D02*
X61250Y25000D01*
X62250Y25000D01*
X62250Y26000D01*
D14*
X62500Y25500D02*
X64750Y25500D01*
D10*
X61250Y25000D02*
X61250Y24000D01*
X62250Y24000D01*
X62250Y25000D01*
D14*
X62500Y24500D02*
X64750Y24500D01*
D10*
X61250Y24000D02*
X61250Y23000D01*
X62250Y23000D01*
X62250Y24000D01*
D14*
X62500Y23500D02*
X64750Y23500D01*
D10*
X61250Y23000D02*
X61250Y22000D01*
X62250Y22000D01*
X62250Y23000D01*
D14*
X62500Y22500D02*
X64750Y22500D01*
D10*
X61250Y22000D02*
X61250Y21000D01*
X62250Y21000D01*
X62250Y22000D01*
D14*
X62500Y21500D02*
X64750Y21500D01*
D10*
X61250Y21000D02*
X61250Y20000D01*
X62250Y20000D01*
X62250Y21000D01*
D14*
X62500Y20500D02*
X64750Y20500D01*
D10*
X61250Y20000D02*
X61250Y19000D01*
X62250Y19000D01*
X62250Y20000D01*
D14*
X62500Y19500D02*
X64750Y19500D01*
D10*
X61250Y19000D02*
X61250Y18000D01*
X62250Y18000D01*
X62250Y19000D01*
D14*
X62500Y18500D02*
X64750Y18500D01*
D10*
X61250Y18000D02*
X61250Y17000D01*
X62250Y17000D01*
X62250Y18000D01*
D14*
X62500Y17500D02*
X64750Y17500D01*
D10*
X61250Y17000D02*
X61250Y16000D01*
X62250Y16000D01*
X62250Y17000D01*
D14*
X62500Y16500D02*
X64750Y16500D01*
D10*
X61250Y16000D02*
X61250Y15000D01*
X62250Y15000D01*
X62250Y16000D01*
D14*
X62500Y15500D02*
X64750Y15500D01*
D10*
X61250Y15000D02*
X61250Y14000D01*
X62250Y14000D01*
X62250Y15000D01*
D14*
X62500Y14500D02*
X64750Y14500D01*
D10*
X61250Y14000D02*
X61250Y13000D01*
X62250Y13000D01*
X62250Y14000D01*
D14*
X62500Y13500D02*
X64750Y13500D01*
D10*
X61250Y13000D02*
X61250Y12000D01*
X62250Y12000D02*
X62250Y13000D01*
D14*
X62500Y12500D02*
X64750Y12500D01*
D10*
X62250Y12000D02*
X61250Y12000D01*
X61250Y11000D01*
X62250Y11000D01*
X62250Y12000D01*
D14*
X62500Y11500D02*
X64750Y11500D01*
D10*
X61250Y11000D02*
X61250Y10000D01*
X62250Y10000D01*
X62250Y11000D01*
D14*
X62500Y10500D02*
X64750Y10500D01*
D10*
X61250Y10000D02*
X61250Y9000D01*
X62250Y9000D01*
X62250Y10000D01*
D14*
X62500Y9500D02*
X64750Y9500D01*
D10*
X61250Y9000D02*
X61250Y8000D01*
X62250Y8000D02*
X62250Y9000D01*
D14*
X62500Y8500D02*
X64750Y8500D01*
D10*
X62250Y8000D02*
X61250Y8000D01*
X61250Y7000D01*
X62250Y7000D01*
X62250Y8000D01*
D14*
X62500Y7500D02*
X64750Y7500D01*
D10*
X61250Y7000D02*
X61250Y6000D01*
X62250Y6000D02*
X62250Y7000D01*
D14*
X62500Y6500D02*
X64750Y6500D01*
D10*
X62250Y6000D02*
X61250Y6000D01*
X61250Y5000D01*
X62250Y5000D01*
X62250Y6000D01*
D14*
X62500Y5500D02*
X64750Y5500D01*
D10*
X61250Y5000D02*
X61250Y4000D01*
X62250Y4000D01*
X62250Y5000D01*
D14*
X62500Y4500D02*
X64750Y4500D01*
D15*
X62350Y33500D03*
X62350Y32500D03*
X62350Y31500D03*
X62350Y30500D03*
X62350Y29500D03*
X62350Y28500D03*
X62350Y27500D03*
X62350Y26500D03*
X62350Y25500D03*
X62350Y24500D03*
X62350Y23500D03*
X62350Y22500D03*
X62350Y21500D03*
X62350Y20500D03*
X62350Y19500D03*
X62350Y18500D03*
X62350Y17500D03*
X62350Y16500D03*
X62350Y15500D03*
X62350Y14500D03*
D16*
X61050Y33500D03*
X61050Y32500D03*
D17*
X60000Y33500D03*
D18*
X60500Y33500D03*
X60500Y32500D03*
D17*
X60000Y32500D03*
D16*
X61050Y31500D03*
X61050Y30500D03*
D17*
X60000Y31500D03*
D18*
X60500Y31500D03*
X60500Y30500D03*
D17*
X60000Y30500D03*
D16*
X61050Y29500D03*
D17*
X60000Y29500D03*
D18*
X60500Y29500D03*
D16*
X61050Y28500D03*
X61050Y27500D03*
D17*
X60000Y28500D03*
D18*
X60500Y28500D03*
X60500Y27500D03*
D17*
X60000Y27500D03*
D16*
X61050Y26500D03*
X61050Y25500D03*
D17*
X60000Y26500D03*
D18*
X60500Y26500D03*
X60500Y25500D03*
D17*
X60000Y25500D03*
D16*
X61050Y24500D03*
D17*
X60000Y24500D03*
D18*
X60500Y24500D03*
D16*
X61050Y23500D03*
X61050Y22500D03*
D17*
X60000Y23500D03*
D18*
X60500Y23500D03*
X60500Y22500D03*
D17*
X60000Y22500D03*
D16*
X61050Y21500D03*
X61050Y20500D03*
D17*
X60000Y21500D03*
D18*
X60500Y21500D03*
X60500Y20500D03*
D17*
X60000Y20500D03*
D16*
X61050Y19500D03*
D17*
X60000Y19500D03*
D18*
X60500Y19500D03*
D16*
X61050Y18500D03*
X61050Y17500D03*
D17*
X60000Y18500D03*
D18*
X60500Y18500D03*
X60500Y17500D03*
D17*
X60000Y17500D03*
D16*
X61050Y16500D03*
X61050Y15500D03*
D17*
X60000Y16500D03*
D18*
X60500Y16500D03*
X60500Y15500D03*
D17*
X60000Y15500D03*
D16*
X61050Y14500D03*
D17*
X60000Y14500D03*
D18*
X60500Y14500D03*
D15*
X62350Y13500D03*
X62350Y12500D03*
D16*
X61050Y13500D03*
D18*
X60500Y13500D03*
D17*
X60000Y13500D03*
D16*
X61050Y12500D03*
D17*
X60000Y12500D03*
D18*
X60500Y12500D03*
D15*
X62350Y11500D03*
X62350Y10500D03*
D16*
X61050Y11500D03*
D18*
X60500Y11500D03*
D17*
X60000Y11500D03*
D16*
X61050Y10500D03*
D17*
X60000Y10500D03*
D18*
X60500Y10500D03*
D15*
X62350Y9500D03*
X62350Y8500D03*
D16*
X61050Y9500D03*
D18*
X60500Y9500D03*
D17*
X60000Y9500D03*
D16*
X61050Y8500D03*
D17*
X60000Y8500D03*
D18*
X60500Y8500D03*
D15*
X62350Y7500D03*
X62350Y6500D03*
D16*
X61050Y7500D03*
D18*
X60500Y7500D03*
D17*
X60000Y7500D03*
D16*
X61050Y6500D03*
D17*
X60000Y6500D03*
D18*
X60500Y6500D03*
D15*
X62350Y5500D03*
X62350Y4500D03*
D16*
X61050Y5500D03*
D18*
X60500Y5500D03*
D17*
X60000Y5500D03*
D16*
X61050Y4500D03*
D17*
X60000Y4500D03*
D18*
X60500Y4500D03*
D13*
X58975Y28775D02*
X58525Y28775D01*
X58525Y29025D02*
X58800Y28775D01*
X58700Y28875D02*
X58975Y29025D01*
X58975Y29218D02*
X58975Y29418D01*
X58975Y29218D02*
X58525Y29218D01*
X58525Y29418D01*
X58725Y29368D02*
X58725Y29218D01*
X58525Y29567D02*
X58738Y29717D01*
X58525Y29867D01*
X58738Y29717D02*
X58975Y29717D01*
X58725Y30065D02*
X58725Y30190D01*
X58727Y30211D01*
X58732Y30231D01*
X58740Y30249D01*
X58751Y30267D01*
X58765Y30282D01*
X58782Y30295D01*
X58800Y30304D01*
X58819Y30311D01*
X58840Y30315D01*
X58860Y30315D01*
X58881Y30311D01*
X58900Y30304D01*
X58918Y30295D01*
X58935Y30282D01*
X58949Y30267D01*
X58960Y30249D01*
X58968Y30231D01*
X58973Y30211D01*
X58975Y30190D01*
X58975Y30065D01*
X58525Y30065D01*
X58525Y30190D01*
X58527Y30208D01*
X58532Y30226D01*
X58540Y30243D01*
X58551Y30257D01*
X58565Y30270D01*
X58580Y30280D01*
X58598Y30286D01*
X58616Y30290D01*
X58634Y30290D01*
X58652Y30286D01*
X58670Y30280D01*
X58685Y30270D01*
X58699Y30257D01*
X58710Y30243D01*
X58718Y30226D01*
X58723Y30208D01*
X58725Y30190D01*
X58525Y30511D02*
X58975Y30511D01*
X58525Y30511D02*
X58525Y30636D01*
X58527Y30657D01*
X58532Y30677D01*
X58540Y30695D01*
X58551Y30713D01*
X58565Y30728D01*
X58582Y30741D01*
X58600Y30750D01*
X58619Y30757D01*
X58640Y30761D01*
X58660Y30761D01*
X58681Y30757D01*
X58700Y30750D01*
X58718Y30741D01*
X58735Y30728D01*
X58749Y30713D01*
X58760Y30695D01*
X58768Y30677D01*
X58773Y30657D01*
X58775Y30636D01*
X58775Y30511D01*
X58775Y30661D02*
X58975Y30761D01*
X58975Y30972D02*
X58525Y30972D01*
X58525Y31097D01*
X58527Y31117D01*
X58531Y31136D01*
X58539Y31154D01*
X58549Y31170D01*
X58562Y31185D01*
X58577Y31198D01*
X58593Y31208D01*
X58611Y31216D01*
X58630Y31220D01*
X58650Y31222D01*
X58850Y31222D01*
X58870Y31220D01*
X58889Y31216D01*
X58907Y31208D01*
X58923Y31198D01*
X58938Y31185D01*
X58951Y31170D01*
X58961Y31154D01*
X58969Y31136D01*
X58973Y31117D01*
X58975Y31097D01*
X58975Y30972D01*
X58975Y31536D02*
X58975Y31636D01*
X58975Y31536D02*
X58973Y31519D01*
X58969Y31502D01*
X58962Y31486D01*
X58952Y31472D01*
X58939Y31459D01*
X58925Y31449D01*
X58909Y31442D01*
X58892Y31438D01*
X58875Y31436D01*
X58625Y31436D01*
X58608Y31438D01*
X58591Y31442D01*
X58575Y31449D01*
X58561Y31459D01*
X58548Y31472D01*
X58538Y31486D01*
X58531Y31502D01*
X58527Y31519D01*
X58525Y31536D01*
X58525Y31636D01*
X58650Y31812D02*
X58850Y31812D01*
X58650Y31812D02*
X58629Y31814D01*
X58609Y31819D01*
X58591Y31827D01*
X58573Y31838D01*
X58558Y31852D01*
X58545Y31869D01*
X58536Y31887D01*
X58529Y31906D01*
X58525Y31927D01*
X58525Y31947D01*
X58529Y31968D01*
X58536Y31987D01*
X58545Y32005D01*
X58558Y32022D01*
X58573Y32036D01*
X58591Y32047D01*
X58609Y32055D01*
X58629Y32060D01*
X58650Y32062D01*
X58850Y32062D01*
X58871Y32060D01*
X58891Y32055D01*
X58909Y32047D01*
X58927Y32036D01*
X58942Y32022D01*
X58955Y32005D01*
X58964Y31987D01*
X58971Y31968D01*
X58975Y31947D01*
X58975Y31927D01*
X58971Y31906D01*
X58964Y31887D01*
X58955Y31869D01*
X58942Y31852D01*
X58927Y31838D01*
X58909Y31827D01*
X58891Y31819D01*
X58871Y31814D01*
X58850Y31812D01*
X58975Y32277D02*
X58525Y32277D01*
X58975Y32527D01*
X58525Y32527D01*
X58525Y32757D02*
X58975Y32757D01*
X58975Y33007D02*
X58525Y32757D01*
X58525Y33007D02*
X58975Y33007D01*
D10*
X37250Y25500D02*
X37000Y25750D01*
X37750Y25500D02*
X38000Y25750D01*
X38250Y25500D01*
X38750Y25500D02*
X39000Y25750D01*
X39250Y25500D01*
X39750Y25500D02*
X40000Y25750D01*
X40250Y25500D01*
X40750Y25500D02*
X41000Y25750D01*
X41250Y25500D01*
X41750Y25500D02*
X42000Y25750D01*
X42250Y25500D01*
X42750Y25500D02*
X43000Y25750D01*
X37000Y25750D02*
X37000Y27250D01*
X37250Y27500D01*
X37750Y27500D01*
X38000Y27250D01*
X38250Y27500D01*
X38750Y27500D01*
X39000Y27250D01*
X39250Y27500D01*
X39750Y27500D01*
X40000Y27250D01*
X40250Y27500D01*
X40750Y27500D01*
X41000Y27250D01*
X41250Y27500D01*
X41750Y27500D01*
X42000Y27250D01*
X42250Y27500D01*
X42750Y27500D01*
X43000Y27250D01*
X43250Y27500D01*
X43750Y27500D01*
X44000Y27250D01*
X44250Y27500D01*
X44750Y27500D01*
X45000Y27250D01*
X45250Y27500D01*
X45750Y27500D01*
X46000Y27250D01*
X46000Y25750D02*
X45750Y25500D01*
X45250Y25500D02*
X45000Y25750D01*
X44750Y25500D01*
X44250Y25500D02*
X44000Y25750D01*
X43750Y25500D01*
X43250Y25500D02*
X43000Y25750D01*
X38000Y25750D02*
X38000Y27250D01*
X39000Y27250D02*
X39000Y25750D01*
X40000Y25750D02*
X40000Y27250D01*
X41000Y27250D02*
X41000Y25750D01*
X42000Y25750D02*
X42000Y27250D01*
X43000Y27250D02*
X43000Y25750D01*
X44000Y25750D02*
X44000Y27250D01*
X45000Y27250D02*
X45000Y25750D01*
X46000Y25750D02*
X46000Y27250D01*
X45750Y25500D02*
X45250Y25500D01*
X44750Y25500D02*
X44250Y25500D01*
X43750Y25500D02*
X43250Y25500D01*
X42750Y25500D02*
X42250Y25500D01*
X41750Y25500D02*
X41250Y25500D01*
X40750Y25500D02*
X40250Y25500D01*
X39750Y25500D02*
X39250Y25500D01*
X38750Y25500D02*
X38250Y25500D01*
X37750Y25500D02*
X37250Y25500D01*
X46000Y27250D02*
X46250Y27500D01*
X46750Y27500D01*
X47000Y27250D01*
X47000Y25750D02*
X46750Y25500D01*
X46250Y25500D02*
X46000Y25750D01*
X47000Y25750D02*
X47000Y27250D01*
X46750Y25500D02*
X46250Y25500D01*
D19*
X37500Y26000D03*
X37500Y27000D03*
X38500Y27000D03*
X38500Y26000D03*
X39500Y27000D03*
X39500Y26000D03*
X40500Y27000D03*
X41500Y27000D03*
X42500Y27000D03*
X40500Y26000D03*
X41500Y26000D03*
X42500Y26000D03*
X43500Y27000D03*
X43500Y26000D03*
X44500Y27000D03*
X44500Y26000D03*
X45500Y27000D03*
X45500Y26000D03*
X46500Y27000D03*
X46500Y26000D03*
D13*
X38025Y24725D02*
X38025Y24275D01*
X38175Y24475D02*
X38025Y24725D01*
X38175Y24475D02*
X38325Y24725D01*
X38325Y24275D01*
X38644Y24275D02*
X38744Y24275D01*
X38644Y24275D02*
X38627Y24277D01*
X38610Y24281D01*
X38594Y24288D01*
X38580Y24298D01*
X38567Y24311D01*
X38557Y24325D01*
X38550Y24341D01*
X38546Y24358D01*
X38544Y24375D01*
X38544Y24625D01*
X38546Y24642D01*
X38550Y24659D01*
X38557Y24675D01*
X38567Y24689D01*
X38580Y24702D01*
X38594Y24712D01*
X38610Y24719D01*
X38627Y24723D01*
X38644Y24725D01*
X38744Y24725D01*
X38935Y24725D02*
X38935Y24400D01*
X38937Y24379D01*
X38942Y24359D01*
X38950Y24341D01*
X38961Y24323D01*
X38975Y24308D01*
X38992Y24295D01*
X39010Y24286D01*
X39029Y24279D01*
X39050Y24275D01*
X39070Y24275D01*
X39091Y24279D01*
X39110Y24286D01*
X39128Y24295D01*
X39145Y24308D01*
X39159Y24323D01*
X39170Y24341D01*
X39178Y24359D01*
X39183Y24379D01*
X39185Y24400D01*
X39185Y24725D01*
X39499Y24275D02*
X39599Y24275D01*
X39499Y24275D02*
X39482Y24277D01*
X39465Y24281D01*
X39449Y24288D01*
X39435Y24298D01*
X39422Y24311D01*
X39412Y24325D01*
X39405Y24341D01*
X39401Y24358D01*
X39399Y24375D01*
X39399Y24625D01*
X39401Y24642D01*
X39405Y24659D01*
X39412Y24675D01*
X39422Y24689D01*
X39435Y24702D01*
X39449Y24712D01*
X39465Y24719D01*
X39482Y24723D01*
X39499Y24725D01*
X39599Y24725D01*
X39775Y24600D02*
X39775Y24400D01*
X39775Y24600D02*
X39777Y24621D01*
X39782Y24641D01*
X39790Y24659D01*
X39801Y24677D01*
X39815Y24692D01*
X39832Y24705D01*
X39850Y24714D01*
X39869Y24721D01*
X39890Y24725D01*
X39910Y24725D01*
X39931Y24721D01*
X39950Y24714D01*
X39968Y24705D01*
X39985Y24692D01*
X39999Y24677D01*
X40010Y24659D01*
X40018Y24641D01*
X40023Y24621D01*
X40025Y24600D01*
X40025Y24400D01*
X40023Y24379D01*
X40018Y24359D01*
X40010Y24341D01*
X39999Y24323D01*
X39985Y24308D01*
X39968Y24295D01*
X39950Y24286D01*
X39931Y24279D01*
X39910Y24275D01*
X39890Y24275D01*
X39869Y24279D01*
X39850Y24286D01*
X39832Y24295D01*
X39815Y24308D01*
X39801Y24323D01*
X39790Y24341D01*
X39782Y24359D01*
X39777Y24379D01*
X39775Y24400D01*
X40240Y24275D02*
X40240Y24725D01*
X40490Y24275D01*
X40490Y24725D01*
X40720Y24725D02*
X40720Y24275D01*
X40970Y24275D02*
X40720Y24725D01*
X40970Y24725D02*
X40970Y24275D01*
D10*
X37250Y28500D02*
X37000Y28750D01*
X37750Y28500D02*
X38000Y28750D01*
X38250Y28500D01*
X38750Y28500D02*
X39000Y28750D01*
X39250Y28500D01*
X39750Y28500D02*
X40000Y28750D01*
X40250Y28500D01*
X40750Y28500D02*
X41000Y28750D01*
X41250Y28500D01*
X41750Y28500D02*
X42000Y28750D01*
X42250Y28500D01*
X42750Y28500D02*
X43000Y28750D01*
X37000Y28750D02*
X37000Y30250D01*
X37250Y30500D01*
X37750Y30500D01*
X38000Y30250D01*
X38250Y30500D01*
X38750Y30500D01*
X39000Y30250D01*
X39250Y30500D01*
X39750Y30500D01*
X40000Y30250D01*
X40250Y30500D01*
X40750Y30500D01*
X41000Y30250D01*
X41250Y30500D01*
X41750Y30500D01*
X42000Y30250D01*
X42250Y30500D01*
X42750Y30500D01*
X43000Y30250D01*
X43250Y30500D01*
X43750Y30500D01*
X44000Y30250D01*
X44250Y30500D01*
X44750Y30500D01*
X45000Y30250D01*
X45250Y30500D01*
X45750Y30500D01*
X46000Y30250D01*
X46000Y28750D02*
X45750Y28500D01*
X45250Y28500D02*
X45000Y28750D01*
X44750Y28500D01*
X44250Y28500D02*
X44000Y28750D01*
X43750Y28500D01*
X43250Y28500D02*
X43000Y28750D01*
X38000Y28750D02*
X38000Y30250D01*
X39000Y30250D02*
X39000Y28750D01*
X40000Y28750D02*
X40000Y30250D01*
X41000Y30250D02*
X41000Y28750D01*
X42000Y28750D02*
X42000Y30250D01*
X43000Y30250D02*
X43000Y28750D01*
X44000Y28750D02*
X44000Y30250D01*
X45000Y30250D02*
X45000Y28750D01*
X46000Y28750D02*
X46000Y30250D01*
X45750Y28500D02*
X45250Y28500D01*
X44750Y28500D02*
X44250Y28500D01*
X43750Y28500D02*
X43250Y28500D01*
X42750Y28500D02*
X42250Y28500D01*
X41750Y28500D02*
X41250Y28500D01*
X40750Y28500D02*
X40250Y28500D01*
X39750Y28500D02*
X39250Y28500D01*
X38750Y28500D02*
X38250Y28500D01*
X37750Y28500D02*
X37250Y28500D01*
X46000Y30250D02*
X46250Y30500D01*
X46750Y30500D01*
X47000Y30250D01*
X47000Y28750D02*
X46750Y28500D01*
X46250Y28500D02*
X46000Y28750D01*
X47000Y28750D02*
X47000Y30250D01*
X46750Y28500D02*
X46250Y28500D01*
D19*
X37500Y29000D03*
X37500Y30000D03*
X38500Y30000D03*
X38500Y29000D03*
X39500Y30000D03*
X39500Y29000D03*
X40500Y30000D03*
X41500Y30000D03*
X42500Y30000D03*
X40500Y29000D03*
X41500Y29000D03*
X42500Y29000D03*
X43500Y30000D03*
X43500Y29000D03*
X44500Y30000D03*
X44500Y29000D03*
X45500Y30000D03*
X45500Y29000D03*
X46500Y30000D03*
X46500Y29000D03*
D10*
X47500Y25850D02*
X55500Y25850D01*
X55500Y28150D02*
X47500Y28150D01*
X47500Y25850D01*
X55500Y25850D02*
X55500Y26600D01*
X55500Y27400D02*
X55500Y28150D01*
X55500Y27400D02*
X55461Y27398D01*
X55422Y27392D01*
X55384Y27383D01*
X55347Y27370D01*
X55311Y27353D01*
X55278Y27333D01*
X55246Y27309D01*
X55217Y27283D01*
X55191Y27254D01*
X55167Y27222D01*
X55147Y27189D01*
X55130Y27153D01*
X55117Y27116D01*
X55108Y27078D01*
X55102Y27039D01*
X55100Y27000D01*
X55102Y26961D01*
X55108Y26922D01*
X55117Y26884D01*
X55130Y26847D01*
X55147Y26811D01*
X55167Y26778D01*
X55191Y26746D01*
X55217Y26717D01*
X55246Y26691D01*
X55278Y26667D01*
X55311Y26647D01*
X55347Y26630D01*
X55384Y26617D01*
X55422Y26608D01*
X55461Y26602D01*
X55500Y26600D01*
D13*
X55675Y26558D02*
X56125Y26558D01*
X55675Y26558D02*
X55675Y26683D01*
X55677Y26704D01*
X55682Y26724D01*
X55690Y26742D01*
X55701Y26760D01*
X55715Y26775D01*
X55732Y26788D01*
X55750Y26797D01*
X55769Y26804D01*
X55790Y26808D01*
X55810Y26808D01*
X55831Y26804D01*
X55850Y26797D01*
X55868Y26788D01*
X55885Y26775D01*
X55899Y26760D01*
X55910Y26742D01*
X55918Y26724D01*
X55923Y26704D01*
X55925Y26683D01*
X55925Y26558D01*
X55925Y26708D02*
X56125Y26808D01*
X56125Y27021D02*
X56125Y27221D01*
X56125Y27021D02*
X55675Y27021D01*
X55675Y27221D01*
X55875Y27171D02*
X55875Y27021D01*
X55875Y27585D02*
X55875Y27660D01*
X56125Y27660D01*
X56125Y27510D01*
X56123Y27493D01*
X56119Y27476D01*
X56112Y27460D01*
X56102Y27446D01*
X56089Y27433D01*
X56075Y27423D01*
X56059Y27416D01*
X56042Y27412D01*
X56025Y27410D01*
X55775Y27410D01*
X55758Y27412D01*
X55741Y27416D01*
X55725Y27423D01*
X55711Y27433D01*
X55698Y27446D01*
X55688Y27460D01*
X55681Y27476D01*
X55677Y27493D01*
X55675Y27510D01*
X55675Y27660D01*
X55875Y27875D02*
X55875Y28025D01*
X55877Y28042D01*
X55881Y28059D01*
X55888Y28075D01*
X55898Y28089D01*
X55911Y28102D01*
X55925Y28112D01*
X55941Y28119D01*
X55958Y28123D01*
X55975Y28125D01*
X56000Y28125D01*
X56021Y28123D01*
X56041Y28118D01*
X56059Y28110D01*
X56077Y28099D01*
X56092Y28085D01*
X56105Y28068D01*
X56114Y28050D01*
X56121Y28031D01*
X56125Y28010D01*
X56125Y27990D01*
X56121Y27969D01*
X56114Y27950D01*
X56105Y27932D01*
X56092Y27915D01*
X56077Y27901D01*
X56059Y27890D01*
X56041Y27882D01*
X56021Y27877D01*
X56000Y27875D01*
X55875Y27875D01*
X55849Y27877D01*
X55823Y27882D01*
X55798Y27890D01*
X55775Y27902D01*
X55753Y27916D01*
X55734Y27934D01*
X55716Y27953D01*
X55702Y27975D01*
X55690Y27998D01*
X55682Y28023D01*
X55677Y28049D01*
X55675Y28075D01*
X51100Y27225D02*
X51100Y27175D01*
X51100Y27225D02*
X51350Y27225D01*
X51225Y26775D01*
X51550Y26875D02*
X51650Y27225D01*
X51550Y26875D02*
X51800Y26875D01*
X51725Y26975D02*
X51725Y26775D01*
X52016Y26775D02*
X52016Y27225D01*
X52016Y26775D02*
X52216Y26775D01*
X52525Y26775D02*
X52542Y26777D01*
X52559Y26781D01*
X52575Y26788D01*
X52589Y26798D01*
X52602Y26811D01*
X52612Y26825D01*
X52619Y26841D01*
X52623Y26858D01*
X52625Y26875D01*
X52525Y26775D02*
X52497Y26777D01*
X52470Y26782D01*
X52444Y26791D01*
X52419Y26804D01*
X52396Y26819D01*
X52375Y26837D01*
X52388Y27125D02*
X52390Y27142D01*
X52394Y27159D01*
X52401Y27175D01*
X52411Y27189D01*
X52424Y27202D01*
X52438Y27212D01*
X52454Y27219D01*
X52471Y27223D01*
X52488Y27225D01*
X52488Y27226D02*
X52512Y27224D01*
X52536Y27220D01*
X52559Y27212D01*
X52581Y27202D01*
X52601Y27188D01*
X52437Y27037D02*
X52423Y27047D01*
X52410Y27060D01*
X52400Y27074D01*
X52393Y27090D01*
X52389Y27107D01*
X52387Y27125D01*
X52575Y26963D02*
X52589Y26953D01*
X52602Y26940D01*
X52612Y26926D01*
X52619Y26910D01*
X52623Y26893D01*
X52625Y26875D01*
X52575Y26963D02*
X52438Y27038D01*
X52810Y26775D02*
X52960Y26775D01*
X52977Y26777D01*
X52994Y26781D01*
X53010Y26788D01*
X53024Y26798D01*
X53037Y26811D01*
X53047Y26825D01*
X53054Y26841D01*
X53058Y26858D01*
X53060Y26875D01*
X53060Y26925D01*
X53058Y26942D01*
X53054Y26959D01*
X53047Y26975D01*
X53037Y26989D01*
X53024Y27002D01*
X53010Y27012D01*
X52994Y27019D01*
X52977Y27023D01*
X52960Y27025D01*
X52810Y27025D01*
X52810Y27225D01*
X53060Y27225D01*
X53360Y26975D02*
X53510Y26975D01*
X53360Y26975D02*
X53343Y26977D01*
X53326Y26981D01*
X53310Y26988D01*
X53296Y26998D01*
X53283Y27011D01*
X53273Y27025D01*
X53266Y27041D01*
X53262Y27058D01*
X53260Y27075D01*
X53260Y27100D01*
X53262Y27121D01*
X53267Y27141D01*
X53275Y27159D01*
X53286Y27177D01*
X53300Y27192D01*
X53317Y27205D01*
X53335Y27214D01*
X53354Y27221D01*
X53375Y27225D01*
X53395Y27225D01*
X53416Y27221D01*
X53435Y27214D01*
X53453Y27205D01*
X53470Y27192D01*
X53484Y27177D01*
X53495Y27159D01*
X53503Y27141D01*
X53508Y27121D01*
X53510Y27100D01*
X53510Y26975D01*
X53508Y26949D01*
X53503Y26923D01*
X53495Y26898D01*
X53483Y26875D01*
X53469Y26853D01*
X53451Y26834D01*
X53432Y26816D01*
X53410Y26802D01*
X53387Y26790D01*
X53362Y26782D01*
X53336Y26777D01*
X53310Y26775D01*
X53710Y26775D02*
X53860Y26775D01*
X53877Y26777D01*
X53894Y26781D01*
X53910Y26788D01*
X53924Y26798D01*
X53937Y26811D01*
X53947Y26825D01*
X53954Y26841D01*
X53958Y26858D01*
X53960Y26875D01*
X53960Y26925D01*
X53958Y26942D01*
X53954Y26959D01*
X53947Y26975D01*
X53937Y26989D01*
X53924Y27002D01*
X53910Y27012D01*
X53894Y27019D01*
X53877Y27023D01*
X53860Y27025D01*
X53710Y27025D01*
X53710Y27225D01*
X53960Y27225D01*
X54175Y27225D02*
X54175Y26775D01*
X54425Y26775D02*
X54175Y27225D01*
X54425Y27225D02*
X54425Y26775D01*
D20*
X52500Y23500D02*
X52177Y23500D01*
D10*
X49186Y24071D02*
X49186Y22929D01*
X51824Y22929D01*
X51824Y24071D01*
X49186Y24071D01*
D20*
X48833Y23500D02*
X48500Y23500D01*
D21*
X51990Y23500D03*
X49020Y23500D03*
D13*
X51728Y22625D02*
X51728Y22175D01*
X51728Y22625D02*
X51853Y22625D01*
X51874Y22623D01*
X51894Y22618D01*
X51912Y22610D01*
X51930Y22599D01*
X51945Y22585D01*
X51958Y22568D01*
X51967Y22550D01*
X51974Y22531D01*
X51978Y22510D01*
X51978Y22490D01*
X51974Y22469D01*
X51967Y22450D01*
X51958Y22432D01*
X51945Y22415D01*
X51930Y22401D01*
X51912Y22390D01*
X51894Y22382D01*
X51874Y22377D01*
X51853Y22375D01*
X51728Y22375D01*
X51878Y22375D02*
X51978Y22175D01*
X52426Y22513D02*
X52424Y22533D01*
X52419Y22552D01*
X52411Y22570D01*
X52400Y22586D01*
X52386Y22600D01*
X52370Y22611D01*
X52352Y22619D01*
X52333Y22624D01*
X52313Y22626D01*
X52313Y22625D02*
X52290Y22623D01*
X52268Y22618D01*
X52247Y22609D01*
X52228Y22597D01*
X52210Y22582D01*
X52196Y22565D01*
X52184Y22546D01*
X52175Y22525D01*
X52387Y22425D02*
X52400Y22440D01*
X52411Y22456D01*
X52419Y22474D01*
X52423Y22493D01*
X52425Y22513D01*
X52388Y22425D02*
X52175Y22175D01*
X52425Y22175D01*
X50928Y23725D02*
X50803Y23625D01*
X50928Y23725D02*
X50928Y23275D01*
X50803Y23275D02*
X51053Y23275D01*
X51252Y23500D02*
X51254Y23534D01*
X51258Y23567D01*
X51266Y23600D01*
X51276Y23632D01*
X51290Y23663D01*
X51297Y23678D01*
X51306Y23692D01*
X51317Y23704D01*
X51331Y23713D01*
X51346Y23720D01*
X51362Y23725D01*
X51378Y23726D01*
X51394Y23725D01*
X51410Y23720D01*
X51425Y23713D01*
X51439Y23704D01*
X51450Y23692D01*
X51459Y23678D01*
X51466Y23663D01*
X51465Y23663D02*
X51479Y23632D01*
X51489Y23600D01*
X51497Y23567D01*
X51501Y23534D01*
X51503Y23500D01*
X51252Y23500D02*
X51254Y23466D01*
X51258Y23433D01*
X51266Y23400D01*
X51276Y23368D01*
X51290Y23337D01*
X51290Y23338D02*
X51297Y23323D01*
X51306Y23309D01*
X51317Y23297D01*
X51331Y23288D01*
X51346Y23281D01*
X51362Y23276D01*
X51378Y23275D01*
X51465Y23337D02*
X51479Y23368D01*
X51489Y23400D01*
X51497Y23433D01*
X51501Y23466D01*
X51503Y23500D01*
X51466Y23338D02*
X51459Y23323D01*
X51450Y23309D01*
X51439Y23297D01*
X51425Y23288D01*
X51410Y23281D01*
X51394Y23276D01*
X51378Y23275D01*
X51278Y23375D02*
X51478Y23625D01*
X51725Y23725D02*
X51725Y23275D01*
X51725Y23450D02*
X51975Y23725D01*
X51825Y23550D02*
X51975Y23275D01*
D10*
X47500Y30350D02*
X56500Y30350D01*
X56500Y32650D02*
X47500Y32650D01*
X47500Y30350D01*
X56500Y30350D02*
X56500Y31100D01*
X56500Y31900D02*
X56500Y32650D01*
X56500Y31900D02*
X56461Y31898D01*
X56422Y31892D01*
X56384Y31883D01*
X56347Y31870D01*
X56311Y31853D01*
X56278Y31833D01*
X56246Y31809D01*
X56217Y31783D01*
X56191Y31754D01*
X56167Y31722D01*
X56147Y31689D01*
X56130Y31653D01*
X56117Y31616D01*
X56108Y31578D01*
X56102Y31539D01*
X56100Y31500D01*
X56102Y31461D01*
X56108Y31422D01*
X56117Y31384D01*
X56130Y31347D01*
X56147Y31311D01*
X56167Y31278D01*
X56191Y31246D01*
X56217Y31217D01*
X56246Y31191D01*
X56278Y31167D01*
X56311Y31147D01*
X56347Y31130D01*
X56384Y31117D01*
X56422Y31108D01*
X56461Y31102D01*
X56500Y31100D01*
D13*
X56625Y29920D02*
X57075Y29920D01*
X56625Y29920D02*
X56625Y30045D01*
X56627Y30065D01*
X56631Y30084D01*
X56639Y30102D01*
X56649Y30118D01*
X56662Y30133D01*
X56677Y30146D01*
X56693Y30156D01*
X56711Y30164D01*
X56730Y30168D01*
X56750Y30170D01*
X56950Y30170D01*
X56970Y30168D01*
X56989Y30164D01*
X57007Y30156D01*
X57023Y30146D01*
X57038Y30133D01*
X57051Y30118D01*
X57061Y30102D01*
X57069Y30084D01*
X57073Y30065D01*
X57075Y30045D01*
X57075Y29920D01*
X57075Y30403D02*
X56625Y30403D01*
X56625Y30528D01*
X56627Y30549D01*
X56632Y30569D01*
X56640Y30587D01*
X56651Y30605D01*
X56665Y30620D01*
X56682Y30633D01*
X56700Y30642D01*
X56719Y30649D01*
X56740Y30653D01*
X56760Y30653D01*
X56781Y30649D01*
X56800Y30642D01*
X56818Y30633D01*
X56835Y30620D01*
X56849Y30605D01*
X56860Y30587D01*
X56868Y30569D01*
X56873Y30549D01*
X56875Y30528D01*
X56875Y30403D01*
X56875Y30553D02*
X57075Y30653D01*
X57075Y30885D02*
X56625Y30885D01*
X57075Y30835D02*
X57075Y30935D01*
X56625Y30935D02*
X56625Y30835D01*
X56625Y31095D02*
X57075Y31245D01*
X56625Y31395D01*
X57075Y31586D02*
X57075Y31786D01*
X57075Y31586D02*
X56625Y31586D01*
X56625Y31786D01*
X56825Y31736D02*
X56825Y31586D01*
X56625Y31978D02*
X57075Y31978D01*
X56625Y31978D02*
X56625Y32103D01*
X56627Y32124D01*
X56632Y32144D01*
X56640Y32162D01*
X56651Y32180D01*
X56665Y32195D01*
X56682Y32208D01*
X56700Y32217D01*
X56719Y32224D01*
X56740Y32228D01*
X56760Y32228D01*
X56781Y32224D01*
X56800Y32217D01*
X56818Y32208D01*
X56835Y32195D01*
X56849Y32180D01*
X56860Y32162D01*
X56868Y32144D01*
X56873Y32124D01*
X56875Y32103D01*
X56875Y31978D01*
X56875Y32128D02*
X57075Y32228D01*
X56975Y32425D02*
X56625Y32525D01*
X56975Y32425D02*
X56975Y32675D01*
X56875Y32600D02*
X57075Y32600D01*
X52225Y31725D02*
X52225Y31400D01*
X52227Y31379D01*
X52232Y31359D01*
X52240Y31341D01*
X52251Y31323D01*
X52265Y31308D01*
X52282Y31295D01*
X52300Y31286D01*
X52319Y31279D01*
X52340Y31275D01*
X52360Y31275D01*
X52381Y31279D01*
X52400Y31286D01*
X52418Y31295D01*
X52435Y31308D01*
X52449Y31323D01*
X52460Y31341D01*
X52468Y31359D01*
X52473Y31379D01*
X52475Y31400D01*
X52475Y31725D01*
X52705Y31725D02*
X52705Y31275D01*
X52705Y31725D02*
X52830Y31725D01*
X52850Y31723D01*
X52869Y31719D01*
X52887Y31711D01*
X52903Y31701D01*
X52918Y31688D01*
X52931Y31673D01*
X52941Y31657D01*
X52949Y31639D01*
X52953Y31620D01*
X52955Y31600D01*
X52955Y31400D01*
X52953Y31380D01*
X52949Y31361D01*
X52941Y31343D01*
X52931Y31327D01*
X52918Y31312D01*
X52903Y31299D01*
X52887Y31289D01*
X52869Y31281D01*
X52850Y31277D01*
X52830Y31275D01*
X52705Y31275D01*
X53185Y31275D02*
X53185Y31725D01*
X53435Y31275D01*
X53435Y31725D01*
X53788Y31726D02*
X53808Y31724D01*
X53827Y31719D01*
X53845Y31711D01*
X53861Y31700D01*
X53875Y31686D01*
X53886Y31670D01*
X53894Y31652D01*
X53899Y31633D01*
X53901Y31613D01*
X53788Y31725D02*
X53765Y31723D01*
X53743Y31718D01*
X53722Y31709D01*
X53703Y31697D01*
X53685Y31682D01*
X53671Y31665D01*
X53659Y31646D01*
X53650Y31625D01*
X53862Y31525D02*
X53875Y31540D01*
X53886Y31556D01*
X53894Y31574D01*
X53898Y31593D01*
X53900Y31613D01*
X53863Y31525D02*
X53650Y31275D01*
X53900Y31275D01*
X54200Y31475D02*
X54350Y31475D01*
X54200Y31475D02*
X54183Y31477D01*
X54166Y31481D01*
X54150Y31488D01*
X54136Y31498D01*
X54123Y31511D01*
X54113Y31525D01*
X54106Y31541D01*
X54102Y31558D01*
X54100Y31575D01*
X54100Y31600D01*
X54102Y31621D01*
X54107Y31641D01*
X54115Y31659D01*
X54126Y31677D01*
X54140Y31692D01*
X54157Y31705D01*
X54175Y31714D01*
X54194Y31721D01*
X54215Y31725D01*
X54235Y31725D01*
X54256Y31721D01*
X54275Y31714D01*
X54293Y31705D01*
X54310Y31692D01*
X54324Y31677D01*
X54335Y31659D01*
X54343Y31641D01*
X54348Y31621D01*
X54350Y31600D01*
X54350Y31475D01*
X54348Y31449D01*
X54343Y31423D01*
X54335Y31398D01*
X54323Y31375D01*
X54309Y31353D01*
X54291Y31334D01*
X54272Y31316D01*
X54250Y31302D01*
X54227Y31290D01*
X54202Y31282D01*
X54176Y31277D01*
X54150Y31275D01*
X54550Y31400D02*
X54552Y31421D01*
X54557Y31441D01*
X54565Y31459D01*
X54576Y31477D01*
X54590Y31492D01*
X54607Y31505D01*
X54625Y31514D01*
X54644Y31521D01*
X54665Y31525D01*
X54685Y31525D01*
X54706Y31521D01*
X54725Y31514D01*
X54743Y31505D01*
X54760Y31492D01*
X54774Y31477D01*
X54785Y31459D01*
X54793Y31441D01*
X54798Y31421D01*
X54800Y31400D01*
X54798Y31379D01*
X54793Y31359D01*
X54785Y31341D01*
X54774Y31323D01*
X54760Y31308D01*
X54743Y31295D01*
X54725Y31286D01*
X54706Y31279D01*
X54685Y31275D01*
X54665Y31275D01*
X54644Y31279D01*
X54625Y31286D01*
X54607Y31295D01*
X54590Y31308D01*
X54576Y31323D01*
X54565Y31341D01*
X54557Y31359D01*
X54552Y31379D01*
X54550Y31400D01*
X54575Y31625D02*
X54577Y31643D01*
X54582Y31661D01*
X54590Y31678D01*
X54601Y31692D01*
X54615Y31705D01*
X54630Y31715D01*
X54648Y31721D01*
X54666Y31725D01*
X54684Y31725D01*
X54702Y31721D01*
X54720Y31715D01*
X54735Y31705D01*
X54749Y31692D01*
X54760Y31678D01*
X54768Y31661D01*
X54773Y31643D01*
X54775Y31625D01*
X54773Y31607D01*
X54768Y31589D01*
X54760Y31572D01*
X54749Y31558D01*
X54735Y31545D01*
X54720Y31535D01*
X54702Y31529D01*
X54684Y31525D01*
X54666Y31525D01*
X54648Y31529D01*
X54630Y31535D01*
X54615Y31545D01*
X54601Y31558D01*
X54590Y31572D01*
X54582Y31589D01*
X54577Y31607D01*
X54575Y31625D01*
X55138Y31726D02*
X55158Y31724D01*
X55177Y31719D01*
X55195Y31711D01*
X55211Y31700D01*
X55225Y31686D01*
X55236Y31670D01*
X55244Y31652D01*
X55249Y31633D01*
X55251Y31613D01*
X55138Y31725D02*
X55115Y31723D01*
X55093Y31718D01*
X55072Y31709D01*
X55053Y31697D01*
X55035Y31682D01*
X55021Y31665D01*
X55009Y31646D01*
X55000Y31625D01*
X55212Y31525D02*
X55225Y31540D01*
X55236Y31556D01*
X55244Y31574D01*
X55248Y31593D01*
X55250Y31613D01*
X55213Y31525D02*
X55000Y31275D01*
X55250Y31275D01*
X55425Y31275D02*
X55575Y31725D01*
X55725Y31275D01*
X55688Y31388D02*
X55463Y31388D01*
D10*
X58000Y6850D02*
X49000Y6850D01*
X49000Y9150D02*
X58000Y9150D01*
X49000Y9150D02*
X49000Y6850D01*
X58000Y6850D02*
X58000Y7600D01*
X58000Y8400D02*
X58000Y9150D01*
X58000Y8400D02*
X57961Y8398D01*
X57922Y8392D01*
X57884Y8383D01*
X57847Y8370D01*
X57811Y8353D01*
X57778Y8333D01*
X57746Y8309D01*
X57717Y8283D01*
X57691Y8254D01*
X57667Y8222D01*
X57647Y8189D01*
X57630Y8153D01*
X57617Y8116D01*
X57608Y8078D01*
X57602Y8039D01*
X57600Y8000D01*
X57602Y7961D01*
X57608Y7922D01*
X57617Y7884D01*
X57630Y7847D01*
X57647Y7811D01*
X57667Y7778D01*
X57691Y7746D01*
X57717Y7717D01*
X57746Y7691D01*
X57778Y7667D01*
X57811Y7647D01*
X57847Y7630D01*
X57884Y7617D01*
X57922Y7608D01*
X57961Y7602D01*
X58000Y7600D01*
D13*
X58125Y6420D02*
X58575Y6420D01*
X58125Y6420D02*
X58125Y6545D01*
X58127Y6565D01*
X58131Y6584D01*
X58139Y6602D01*
X58149Y6618D01*
X58162Y6633D01*
X58177Y6646D01*
X58193Y6656D01*
X58211Y6664D01*
X58230Y6668D01*
X58250Y6670D01*
X58450Y6670D01*
X58470Y6668D01*
X58489Y6664D01*
X58507Y6656D01*
X58523Y6646D01*
X58538Y6633D01*
X58551Y6618D01*
X58561Y6602D01*
X58569Y6584D01*
X58573Y6565D01*
X58575Y6545D01*
X58575Y6420D01*
X58575Y6903D02*
X58125Y6903D01*
X58125Y7028D01*
X58127Y7049D01*
X58132Y7069D01*
X58140Y7087D01*
X58151Y7105D01*
X58165Y7120D01*
X58182Y7133D01*
X58200Y7142D01*
X58219Y7149D01*
X58240Y7153D01*
X58260Y7153D01*
X58281Y7149D01*
X58300Y7142D01*
X58318Y7133D01*
X58335Y7120D01*
X58349Y7105D01*
X58360Y7087D01*
X58368Y7069D01*
X58373Y7049D01*
X58375Y7028D01*
X58375Y6903D01*
X58375Y7053D02*
X58575Y7153D01*
X58575Y7385D02*
X58125Y7385D01*
X58575Y7335D02*
X58575Y7435D01*
X58125Y7435D02*
X58125Y7335D01*
X58125Y7595D02*
X58575Y7745D01*
X58125Y7895D01*
X58575Y8086D02*
X58575Y8286D01*
X58575Y8086D02*
X58125Y8086D01*
X58125Y8286D01*
X58325Y8236D02*
X58325Y8086D01*
X58125Y8478D02*
X58575Y8478D01*
X58125Y8478D02*
X58125Y8603D01*
X58127Y8624D01*
X58132Y8644D01*
X58140Y8662D01*
X58151Y8680D01*
X58165Y8695D01*
X58182Y8708D01*
X58200Y8717D01*
X58219Y8724D01*
X58240Y8728D01*
X58260Y8728D01*
X58281Y8724D01*
X58300Y8717D01*
X58318Y8708D01*
X58335Y8695D01*
X58349Y8680D01*
X58360Y8662D01*
X58368Y8644D01*
X58373Y8624D01*
X58375Y8603D01*
X58375Y8478D01*
X58375Y8628D02*
X58575Y8728D01*
X58225Y8925D02*
X58125Y9050D01*
X58575Y9050D01*
X58575Y8925D02*
X58575Y9175D01*
X53725Y8225D02*
X53725Y7900D01*
X53727Y7879D01*
X53732Y7859D01*
X53740Y7841D01*
X53751Y7823D01*
X53765Y7808D01*
X53782Y7795D01*
X53800Y7786D01*
X53819Y7779D01*
X53840Y7775D01*
X53860Y7775D01*
X53881Y7779D01*
X53900Y7786D01*
X53918Y7795D01*
X53935Y7808D01*
X53949Y7823D01*
X53960Y7841D01*
X53968Y7859D01*
X53973Y7879D01*
X53975Y7900D01*
X53975Y8225D01*
X54205Y8225D02*
X54205Y7775D01*
X54205Y8225D02*
X54330Y8225D01*
X54350Y8223D01*
X54369Y8219D01*
X54387Y8211D01*
X54403Y8201D01*
X54418Y8188D01*
X54431Y8173D01*
X54441Y8157D01*
X54449Y8139D01*
X54453Y8120D01*
X54455Y8100D01*
X54455Y7900D01*
X54453Y7880D01*
X54449Y7861D01*
X54441Y7843D01*
X54431Y7827D01*
X54418Y7812D01*
X54403Y7799D01*
X54387Y7789D01*
X54369Y7781D01*
X54350Y7777D01*
X54330Y7775D01*
X54205Y7775D01*
X54685Y7775D02*
X54685Y8225D01*
X54935Y7775D01*
X54935Y8225D01*
X55288Y8226D02*
X55308Y8224D01*
X55327Y8219D01*
X55345Y8211D01*
X55361Y8200D01*
X55375Y8186D01*
X55386Y8170D01*
X55394Y8152D01*
X55399Y8133D01*
X55401Y8113D01*
X55288Y8225D02*
X55265Y8223D01*
X55243Y8218D01*
X55222Y8209D01*
X55203Y8197D01*
X55185Y8182D01*
X55171Y8165D01*
X55159Y8146D01*
X55150Y8125D01*
X55362Y8025D02*
X55375Y8040D01*
X55386Y8056D01*
X55394Y8074D01*
X55398Y8093D01*
X55400Y8113D01*
X55363Y8025D02*
X55150Y7775D01*
X55400Y7775D01*
X55700Y7975D02*
X55850Y7975D01*
X55700Y7975D02*
X55683Y7977D01*
X55666Y7981D01*
X55650Y7988D01*
X55636Y7998D01*
X55623Y8011D01*
X55613Y8025D01*
X55606Y8041D01*
X55602Y8058D01*
X55600Y8075D01*
X55600Y8100D01*
X55602Y8121D01*
X55607Y8141D01*
X55615Y8159D01*
X55626Y8177D01*
X55640Y8192D01*
X55657Y8205D01*
X55675Y8214D01*
X55694Y8221D01*
X55715Y8225D01*
X55735Y8225D01*
X55756Y8221D01*
X55775Y8214D01*
X55793Y8205D01*
X55810Y8192D01*
X55824Y8177D01*
X55835Y8159D01*
X55843Y8141D01*
X55848Y8121D01*
X55850Y8100D01*
X55850Y7975D01*
X55848Y7949D01*
X55843Y7923D01*
X55835Y7898D01*
X55823Y7875D01*
X55809Y7853D01*
X55791Y7834D01*
X55772Y7816D01*
X55750Y7802D01*
X55727Y7790D01*
X55702Y7782D01*
X55676Y7777D01*
X55650Y7775D01*
X56050Y7900D02*
X56052Y7921D01*
X56057Y7941D01*
X56065Y7959D01*
X56076Y7977D01*
X56090Y7992D01*
X56107Y8005D01*
X56125Y8014D01*
X56144Y8021D01*
X56165Y8025D01*
X56185Y8025D01*
X56206Y8021D01*
X56225Y8014D01*
X56243Y8005D01*
X56260Y7992D01*
X56274Y7977D01*
X56285Y7959D01*
X56293Y7941D01*
X56298Y7921D01*
X56300Y7900D01*
X56298Y7879D01*
X56293Y7859D01*
X56285Y7841D01*
X56274Y7823D01*
X56260Y7808D01*
X56243Y7795D01*
X56225Y7786D01*
X56206Y7779D01*
X56185Y7775D01*
X56165Y7775D01*
X56144Y7779D01*
X56125Y7786D01*
X56107Y7795D01*
X56090Y7808D01*
X56076Y7823D01*
X56065Y7841D01*
X56057Y7859D01*
X56052Y7879D01*
X56050Y7900D01*
X56075Y8125D02*
X56077Y8143D01*
X56082Y8161D01*
X56090Y8178D01*
X56101Y8192D01*
X56115Y8205D01*
X56130Y8215D01*
X56148Y8221D01*
X56166Y8225D01*
X56184Y8225D01*
X56202Y8221D01*
X56220Y8215D01*
X56235Y8205D01*
X56249Y8192D01*
X56260Y8178D01*
X56268Y8161D01*
X56273Y8143D01*
X56275Y8125D01*
X56273Y8107D01*
X56268Y8089D01*
X56260Y8072D01*
X56249Y8058D01*
X56235Y8045D01*
X56220Y8035D01*
X56202Y8029D01*
X56184Y8025D01*
X56166Y8025D01*
X56148Y8029D01*
X56130Y8035D01*
X56115Y8045D01*
X56101Y8058D01*
X56090Y8072D01*
X56082Y8089D01*
X56077Y8107D01*
X56075Y8125D01*
X56638Y8226D02*
X56658Y8224D01*
X56677Y8219D01*
X56695Y8211D01*
X56711Y8200D01*
X56725Y8186D01*
X56736Y8170D01*
X56744Y8152D01*
X56749Y8133D01*
X56751Y8113D01*
X56638Y8225D02*
X56615Y8223D01*
X56593Y8218D01*
X56572Y8209D01*
X56553Y8197D01*
X56535Y8182D01*
X56521Y8165D01*
X56509Y8146D01*
X56500Y8125D01*
X56712Y8025D02*
X56725Y8040D01*
X56736Y8056D01*
X56744Y8074D01*
X56748Y8093D01*
X56750Y8113D01*
X56713Y8025D02*
X56500Y7775D01*
X56750Y7775D01*
X56925Y7775D02*
X57075Y8225D01*
X57225Y7775D01*
X57188Y7888D02*
X56963Y7888D01*
D10*
X46000Y12850D02*
X38000Y12850D01*
X38000Y15150D02*
X46000Y15150D01*
X38000Y15150D02*
X38000Y12850D01*
X46000Y12850D02*
X46000Y13600D01*
X46000Y14400D02*
X46000Y15150D01*
X46000Y14400D02*
X45961Y14398D01*
X45922Y14392D01*
X45884Y14383D01*
X45847Y14370D01*
X45811Y14353D01*
X45778Y14333D01*
X45746Y14309D01*
X45717Y14283D01*
X45691Y14254D01*
X45667Y14222D01*
X45647Y14189D01*
X45630Y14153D01*
X45617Y14116D01*
X45608Y14078D01*
X45602Y14039D01*
X45600Y14000D01*
X45602Y13961D01*
X45608Y13922D01*
X45617Y13884D01*
X45630Y13847D01*
X45647Y13811D01*
X45667Y13778D01*
X45691Y13746D01*
X45717Y13717D01*
X45746Y13691D01*
X45778Y13667D01*
X45811Y13647D01*
X45847Y13630D01*
X45884Y13617D01*
X45922Y13608D01*
X45961Y13602D01*
X46000Y13600D01*
D13*
X46175Y13558D02*
X46625Y13558D01*
X46175Y13558D02*
X46175Y13683D01*
X46177Y13704D01*
X46182Y13724D01*
X46190Y13742D01*
X46201Y13760D01*
X46215Y13775D01*
X46232Y13788D01*
X46250Y13797D01*
X46269Y13804D01*
X46290Y13808D01*
X46310Y13808D01*
X46331Y13804D01*
X46350Y13797D01*
X46368Y13788D01*
X46385Y13775D01*
X46399Y13760D01*
X46410Y13742D01*
X46418Y13724D01*
X46423Y13704D01*
X46425Y13683D01*
X46425Y13558D01*
X46425Y13708D02*
X46625Y13808D01*
X46625Y14021D02*
X46625Y14221D01*
X46625Y14021D02*
X46175Y14021D01*
X46175Y14221D01*
X46375Y14171D02*
X46375Y14021D01*
X46375Y14585D02*
X46375Y14660D01*
X46625Y14660D01*
X46625Y14510D01*
X46623Y14493D01*
X46619Y14476D01*
X46612Y14460D01*
X46602Y14446D01*
X46589Y14433D01*
X46575Y14423D01*
X46559Y14416D01*
X46542Y14412D01*
X46525Y14410D01*
X46275Y14410D01*
X46258Y14412D01*
X46241Y14416D01*
X46225Y14423D01*
X46211Y14433D01*
X46198Y14446D01*
X46188Y14460D01*
X46181Y14476D01*
X46177Y14493D01*
X46175Y14510D01*
X46175Y14660D01*
X46175Y14975D02*
X46525Y14875D01*
X46525Y15125D01*
X46425Y15050D02*
X46625Y15050D01*
X41600Y14225D02*
X41600Y14175D01*
X41600Y14225D02*
X41850Y14225D01*
X41725Y13775D01*
X42050Y13875D02*
X42150Y14225D01*
X42050Y13875D02*
X42300Y13875D01*
X42225Y13975D02*
X42225Y13775D01*
X42516Y13775D02*
X42516Y14225D01*
X42516Y13775D02*
X42716Y13775D01*
X43025Y13775D02*
X43042Y13777D01*
X43059Y13781D01*
X43075Y13788D01*
X43089Y13798D01*
X43102Y13811D01*
X43112Y13825D01*
X43119Y13841D01*
X43123Y13858D01*
X43125Y13875D01*
X43025Y13775D02*
X42997Y13777D01*
X42970Y13782D01*
X42944Y13791D01*
X42919Y13804D01*
X42896Y13819D01*
X42875Y13837D01*
X42888Y14125D02*
X42890Y14142D01*
X42894Y14159D01*
X42901Y14175D01*
X42911Y14189D01*
X42924Y14202D01*
X42938Y14212D01*
X42954Y14219D01*
X42971Y14223D01*
X42988Y14225D01*
X42988Y14226D02*
X43012Y14224D01*
X43036Y14220D01*
X43059Y14212D01*
X43081Y14202D01*
X43101Y14188D01*
X42937Y14037D02*
X42923Y14047D01*
X42910Y14060D01*
X42900Y14074D01*
X42893Y14090D01*
X42889Y14107D01*
X42887Y14125D01*
X43075Y13963D02*
X43089Y13953D01*
X43102Y13940D01*
X43112Y13926D01*
X43119Y13910D01*
X43123Y13893D01*
X43125Y13875D01*
X43075Y13963D02*
X42938Y14038D01*
X43310Y13775D02*
X43460Y13775D01*
X43477Y13777D01*
X43494Y13781D01*
X43510Y13788D01*
X43524Y13798D01*
X43537Y13811D01*
X43547Y13825D01*
X43554Y13841D01*
X43558Y13858D01*
X43560Y13875D01*
X43560Y13925D01*
X43558Y13942D01*
X43554Y13959D01*
X43547Y13975D01*
X43537Y13989D01*
X43524Y14002D01*
X43510Y14012D01*
X43494Y14019D01*
X43477Y14023D01*
X43460Y14025D01*
X43310Y14025D01*
X43310Y14225D01*
X43560Y14225D01*
X43860Y13975D02*
X44010Y13975D01*
X43860Y13975D02*
X43843Y13977D01*
X43826Y13981D01*
X43810Y13988D01*
X43796Y13998D01*
X43783Y14011D01*
X43773Y14025D01*
X43766Y14041D01*
X43762Y14058D01*
X43760Y14075D01*
X43760Y14100D01*
X43762Y14121D01*
X43767Y14141D01*
X43775Y14159D01*
X43786Y14177D01*
X43800Y14192D01*
X43817Y14205D01*
X43835Y14214D01*
X43854Y14221D01*
X43875Y14225D01*
X43895Y14225D01*
X43916Y14221D01*
X43935Y14214D01*
X43953Y14205D01*
X43970Y14192D01*
X43984Y14177D01*
X43995Y14159D01*
X44003Y14141D01*
X44008Y14121D01*
X44010Y14100D01*
X44010Y13975D01*
X44008Y13949D01*
X44003Y13923D01*
X43995Y13898D01*
X43983Y13875D01*
X43969Y13853D01*
X43951Y13834D01*
X43932Y13816D01*
X43910Y13802D01*
X43887Y13790D01*
X43862Y13782D01*
X43836Y13777D01*
X43810Y13775D01*
X44210Y13775D02*
X44360Y13775D01*
X44377Y13777D01*
X44394Y13781D01*
X44410Y13788D01*
X44424Y13798D01*
X44437Y13811D01*
X44447Y13825D01*
X44454Y13841D01*
X44458Y13858D01*
X44460Y13875D01*
X44460Y13925D01*
X44458Y13942D01*
X44454Y13959D01*
X44447Y13975D01*
X44437Y13989D01*
X44424Y14002D01*
X44410Y14012D01*
X44394Y14019D01*
X44377Y14023D01*
X44360Y14025D01*
X44210Y14025D01*
X44210Y14225D01*
X44460Y14225D01*
X44675Y14225D02*
X44675Y13775D01*
X44925Y13775D02*
X44675Y14225D01*
X44925Y14225D02*
X44925Y13775D01*
D10*
X46000Y18850D02*
X38000Y18850D01*
X38000Y21150D02*
X46000Y21150D01*
X38000Y21150D02*
X38000Y18850D01*
X46000Y18850D02*
X46000Y19600D01*
X46000Y20400D02*
X46000Y21150D01*
X46000Y20400D02*
X45961Y20398D01*
X45922Y20392D01*
X45884Y20383D01*
X45847Y20370D01*
X45811Y20353D01*
X45778Y20333D01*
X45746Y20309D01*
X45717Y20283D01*
X45691Y20254D01*
X45667Y20222D01*
X45647Y20189D01*
X45630Y20153D01*
X45617Y20116D01*
X45608Y20078D01*
X45602Y20039D01*
X45600Y20000D01*
X45602Y19961D01*
X45608Y19922D01*
X45617Y19884D01*
X45630Y19847D01*
X45647Y19811D01*
X45667Y19778D01*
X45691Y19746D01*
X45717Y19717D01*
X45746Y19691D01*
X45778Y19667D01*
X45811Y19647D01*
X45847Y19630D01*
X45884Y19617D01*
X45922Y19608D01*
X45961Y19602D01*
X46000Y19600D01*
D13*
X46175Y19558D02*
X46625Y19558D01*
X46175Y19558D02*
X46175Y19683D01*
X46177Y19704D01*
X46182Y19724D01*
X46190Y19742D01*
X46201Y19760D01*
X46215Y19775D01*
X46232Y19788D01*
X46250Y19797D01*
X46269Y19804D01*
X46290Y19808D01*
X46310Y19808D01*
X46331Y19804D01*
X46350Y19797D01*
X46368Y19788D01*
X46385Y19775D01*
X46399Y19760D01*
X46410Y19742D01*
X46418Y19724D01*
X46423Y19704D01*
X46425Y19683D01*
X46425Y19558D01*
X46425Y19708D02*
X46625Y19808D01*
X46625Y20021D02*
X46625Y20221D01*
X46625Y20021D02*
X46175Y20021D01*
X46175Y20221D01*
X46375Y20171D02*
X46375Y20021D01*
X46375Y20585D02*
X46375Y20660D01*
X46625Y20660D01*
X46625Y20510D01*
X46623Y20493D01*
X46619Y20476D01*
X46612Y20460D01*
X46602Y20446D01*
X46589Y20433D01*
X46575Y20423D01*
X46559Y20416D01*
X46542Y20412D01*
X46525Y20410D01*
X46275Y20410D01*
X46258Y20412D01*
X46241Y20416D01*
X46225Y20423D01*
X46211Y20433D01*
X46198Y20446D01*
X46188Y20460D01*
X46181Y20476D01*
X46177Y20493D01*
X46175Y20510D01*
X46175Y20660D01*
X46625Y20875D02*
X46625Y21025D01*
X46623Y21042D01*
X46619Y21059D01*
X46612Y21075D01*
X46602Y21089D01*
X46589Y21102D01*
X46575Y21112D01*
X46559Y21119D01*
X46542Y21123D01*
X46525Y21125D01*
X46475Y21125D01*
X46458Y21123D01*
X46441Y21119D01*
X46425Y21112D01*
X46411Y21102D01*
X46398Y21089D01*
X46388Y21075D01*
X46381Y21059D01*
X46377Y21042D01*
X46375Y21025D01*
X46375Y20875D01*
X46175Y20875D01*
X46175Y21125D01*
X41600Y20225D02*
X41600Y20175D01*
X41600Y20225D02*
X41850Y20225D01*
X41725Y19775D01*
X42050Y19875D02*
X42150Y20225D01*
X42050Y19875D02*
X42300Y19875D01*
X42225Y19975D02*
X42225Y19775D01*
X42516Y19775D02*
X42516Y20225D01*
X42516Y19775D02*
X42716Y19775D01*
X43025Y19775D02*
X43042Y19777D01*
X43059Y19781D01*
X43075Y19788D01*
X43089Y19798D01*
X43102Y19811D01*
X43112Y19825D01*
X43119Y19841D01*
X43123Y19858D01*
X43125Y19875D01*
X43025Y19775D02*
X42997Y19777D01*
X42970Y19782D01*
X42944Y19791D01*
X42919Y19804D01*
X42896Y19819D01*
X42875Y19837D01*
X42888Y20125D02*
X42890Y20142D01*
X42894Y20159D01*
X42901Y20175D01*
X42911Y20189D01*
X42924Y20202D01*
X42938Y20212D01*
X42954Y20219D01*
X42971Y20223D01*
X42988Y20225D01*
X42988Y20226D02*
X43012Y20224D01*
X43036Y20220D01*
X43059Y20212D01*
X43081Y20202D01*
X43101Y20188D01*
X42937Y20037D02*
X42923Y20047D01*
X42910Y20060D01*
X42900Y20074D01*
X42893Y20090D01*
X42889Y20107D01*
X42887Y20125D01*
X43075Y19963D02*
X43089Y19953D01*
X43102Y19940D01*
X43112Y19926D01*
X43119Y19910D01*
X43123Y19893D01*
X43125Y19875D01*
X43075Y19963D02*
X42938Y20038D01*
X43310Y19775D02*
X43460Y19775D01*
X43477Y19777D01*
X43494Y19781D01*
X43510Y19788D01*
X43524Y19798D01*
X43537Y19811D01*
X43547Y19825D01*
X43554Y19841D01*
X43558Y19858D01*
X43560Y19875D01*
X43560Y19925D01*
X43558Y19942D01*
X43554Y19959D01*
X43547Y19975D01*
X43537Y19989D01*
X43524Y20002D01*
X43510Y20012D01*
X43494Y20019D01*
X43477Y20023D01*
X43460Y20025D01*
X43310Y20025D01*
X43310Y20225D01*
X43560Y20225D01*
X43860Y19975D02*
X44010Y19975D01*
X43860Y19975D02*
X43843Y19977D01*
X43826Y19981D01*
X43810Y19988D01*
X43796Y19998D01*
X43783Y20011D01*
X43773Y20025D01*
X43766Y20041D01*
X43762Y20058D01*
X43760Y20075D01*
X43760Y20100D01*
X43762Y20121D01*
X43767Y20141D01*
X43775Y20159D01*
X43786Y20177D01*
X43800Y20192D01*
X43817Y20205D01*
X43835Y20214D01*
X43854Y20221D01*
X43875Y20225D01*
X43895Y20225D01*
X43916Y20221D01*
X43935Y20214D01*
X43953Y20205D01*
X43970Y20192D01*
X43984Y20177D01*
X43995Y20159D01*
X44003Y20141D01*
X44008Y20121D01*
X44010Y20100D01*
X44010Y19975D01*
X44008Y19949D01*
X44003Y19923D01*
X43995Y19898D01*
X43983Y19875D01*
X43969Y19853D01*
X43951Y19834D01*
X43932Y19816D01*
X43910Y19802D01*
X43887Y19790D01*
X43862Y19782D01*
X43836Y19777D01*
X43810Y19775D01*
X44210Y19775D02*
X44360Y19775D01*
X44377Y19777D01*
X44394Y19781D01*
X44410Y19788D01*
X44424Y19798D01*
X44437Y19811D01*
X44447Y19825D01*
X44454Y19841D01*
X44458Y19858D01*
X44460Y19875D01*
X44460Y19925D01*
X44458Y19942D01*
X44454Y19959D01*
X44447Y19975D01*
X44437Y19989D01*
X44424Y20002D01*
X44410Y20012D01*
X44394Y20019D01*
X44377Y20023D01*
X44360Y20025D01*
X44210Y20025D01*
X44210Y20225D01*
X44460Y20225D01*
X44675Y20225D02*
X44675Y19775D01*
X44925Y19775D02*
X44675Y20225D01*
X44925Y20225D02*
X44925Y19775D01*
D10*
X47500Y12850D02*
X56500Y12850D01*
X56500Y15150D02*
X47500Y15150D01*
X47500Y12850D01*
X56500Y12850D02*
X56500Y13600D01*
X56500Y14400D02*
X56500Y15150D01*
X56500Y14400D02*
X56461Y14398D01*
X56422Y14392D01*
X56384Y14383D01*
X56347Y14370D01*
X56311Y14353D01*
X56278Y14333D01*
X56246Y14309D01*
X56217Y14283D01*
X56191Y14254D01*
X56167Y14222D01*
X56147Y14189D01*
X56130Y14153D01*
X56117Y14116D01*
X56108Y14078D01*
X56102Y14039D01*
X56100Y14000D01*
X56102Y13961D01*
X56108Y13922D01*
X56117Y13884D01*
X56130Y13847D01*
X56147Y13811D01*
X56167Y13778D01*
X56191Y13746D01*
X56217Y13717D01*
X56246Y13691D01*
X56278Y13667D01*
X56311Y13647D01*
X56347Y13630D01*
X56384Y13617D01*
X56422Y13608D01*
X56461Y13602D01*
X56500Y13600D01*
D13*
X56625Y12420D02*
X57075Y12420D01*
X56625Y12420D02*
X56625Y12545D01*
X56627Y12565D01*
X56631Y12584D01*
X56639Y12602D01*
X56649Y12618D01*
X56662Y12633D01*
X56677Y12646D01*
X56693Y12656D01*
X56711Y12664D01*
X56730Y12668D01*
X56750Y12670D01*
X56950Y12670D01*
X56970Y12668D01*
X56989Y12664D01*
X57007Y12656D01*
X57023Y12646D01*
X57038Y12633D01*
X57051Y12618D01*
X57061Y12602D01*
X57069Y12584D01*
X57073Y12565D01*
X57075Y12545D01*
X57075Y12420D01*
X57075Y12903D02*
X56625Y12903D01*
X56625Y13028D01*
X56627Y13049D01*
X56632Y13069D01*
X56640Y13087D01*
X56651Y13105D01*
X56665Y13120D01*
X56682Y13133D01*
X56700Y13142D01*
X56719Y13149D01*
X56740Y13153D01*
X56760Y13153D01*
X56781Y13149D01*
X56800Y13142D01*
X56818Y13133D01*
X56835Y13120D01*
X56849Y13105D01*
X56860Y13087D01*
X56868Y13069D01*
X56873Y13049D01*
X56875Y13028D01*
X56875Y12903D01*
X56875Y13053D02*
X57075Y13153D01*
X57075Y13385D02*
X56625Y13385D01*
X57075Y13335D02*
X57075Y13435D01*
X56625Y13435D02*
X56625Y13335D01*
X56625Y13595D02*
X57075Y13745D01*
X56625Y13895D01*
X57075Y14086D02*
X57075Y14286D01*
X57075Y14086D02*
X56625Y14086D01*
X56625Y14286D01*
X56825Y14236D02*
X56825Y14086D01*
X56625Y14478D02*
X57075Y14478D01*
X56625Y14478D02*
X56625Y14603D01*
X56627Y14624D01*
X56632Y14644D01*
X56640Y14662D01*
X56651Y14680D01*
X56665Y14695D01*
X56682Y14708D01*
X56700Y14717D01*
X56719Y14724D01*
X56740Y14728D01*
X56760Y14728D01*
X56781Y14724D01*
X56800Y14717D01*
X56818Y14708D01*
X56835Y14695D01*
X56849Y14680D01*
X56860Y14662D01*
X56868Y14644D01*
X56873Y14624D01*
X56875Y14603D01*
X56875Y14478D01*
X56875Y14628D02*
X57075Y14728D01*
X56738Y15176D02*
X56718Y15174D01*
X56699Y15169D01*
X56682Y15161D01*
X56665Y15150D01*
X56651Y15136D01*
X56640Y15120D01*
X56632Y15102D01*
X56627Y15083D01*
X56625Y15063D01*
X56627Y15040D01*
X56632Y15018D01*
X56641Y14997D01*
X56653Y14978D01*
X56668Y14960D01*
X56685Y14946D01*
X56704Y14934D01*
X56725Y14925D01*
X56826Y15137D02*
X56811Y15150D01*
X56795Y15161D01*
X56777Y15169D01*
X56758Y15173D01*
X56738Y15175D01*
X56825Y15138D02*
X57075Y14925D01*
X57075Y15175D01*
X52225Y14225D02*
X52225Y13900D01*
X52227Y13879D01*
X52232Y13859D01*
X52240Y13841D01*
X52251Y13823D01*
X52265Y13808D01*
X52282Y13795D01*
X52300Y13786D01*
X52319Y13779D01*
X52340Y13775D01*
X52360Y13775D01*
X52381Y13779D01*
X52400Y13786D01*
X52418Y13795D01*
X52435Y13808D01*
X52449Y13823D01*
X52460Y13841D01*
X52468Y13859D01*
X52473Y13879D01*
X52475Y13900D01*
X52475Y14225D01*
X52705Y14225D02*
X52705Y13775D01*
X52705Y14225D02*
X52830Y14225D01*
X52850Y14223D01*
X52869Y14219D01*
X52887Y14211D01*
X52903Y14201D01*
X52918Y14188D01*
X52931Y14173D01*
X52941Y14157D01*
X52949Y14139D01*
X52953Y14120D01*
X52955Y14100D01*
X52955Y13900D01*
X52953Y13880D01*
X52949Y13861D01*
X52941Y13843D01*
X52931Y13827D01*
X52918Y13812D01*
X52903Y13799D01*
X52887Y13789D01*
X52869Y13781D01*
X52850Y13777D01*
X52830Y13775D01*
X52705Y13775D01*
X53185Y13775D02*
X53185Y14225D01*
X53435Y13775D01*
X53435Y14225D01*
X53788Y14226D02*
X53808Y14224D01*
X53827Y14219D01*
X53845Y14211D01*
X53861Y14200D01*
X53875Y14186D01*
X53886Y14170D01*
X53894Y14152D01*
X53899Y14133D01*
X53901Y14113D01*
X53788Y14225D02*
X53765Y14223D01*
X53743Y14218D01*
X53722Y14209D01*
X53703Y14197D01*
X53685Y14182D01*
X53671Y14165D01*
X53659Y14146D01*
X53650Y14125D01*
X53862Y14025D02*
X53875Y14040D01*
X53886Y14056D01*
X53894Y14074D01*
X53898Y14093D01*
X53900Y14113D01*
X53863Y14025D02*
X53650Y13775D01*
X53900Y13775D01*
X54200Y13975D02*
X54350Y13975D01*
X54200Y13975D02*
X54183Y13977D01*
X54166Y13981D01*
X54150Y13988D01*
X54136Y13998D01*
X54123Y14011D01*
X54113Y14025D01*
X54106Y14041D01*
X54102Y14058D01*
X54100Y14075D01*
X54100Y14100D01*
X54102Y14121D01*
X54107Y14141D01*
X54115Y14159D01*
X54126Y14177D01*
X54140Y14192D01*
X54157Y14205D01*
X54175Y14214D01*
X54194Y14221D01*
X54215Y14225D01*
X54235Y14225D01*
X54256Y14221D01*
X54275Y14214D01*
X54293Y14205D01*
X54310Y14192D01*
X54324Y14177D01*
X54335Y14159D01*
X54343Y14141D01*
X54348Y14121D01*
X54350Y14100D01*
X54350Y13975D01*
X54348Y13949D01*
X54343Y13923D01*
X54335Y13898D01*
X54323Y13875D01*
X54309Y13853D01*
X54291Y13834D01*
X54272Y13816D01*
X54250Y13802D01*
X54227Y13790D01*
X54202Y13782D01*
X54176Y13777D01*
X54150Y13775D01*
X54550Y13900D02*
X54552Y13921D01*
X54557Y13941D01*
X54565Y13959D01*
X54576Y13977D01*
X54590Y13992D01*
X54607Y14005D01*
X54625Y14014D01*
X54644Y14021D01*
X54665Y14025D01*
X54685Y14025D01*
X54706Y14021D01*
X54725Y14014D01*
X54743Y14005D01*
X54760Y13992D01*
X54774Y13977D01*
X54785Y13959D01*
X54793Y13941D01*
X54798Y13921D01*
X54800Y13900D01*
X54798Y13879D01*
X54793Y13859D01*
X54785Y13841D01*
X54774Y13823D01*
X54760Y13808D01*
X54743Y13795D01*
X54725Y13786D01*
X54706Y13779D01*
X54685Y13775D01*
X54665Y13775D01*
X54644Y13779D01*
X54625Y13786D01*
X54607Y13795D01*
X54590Y13808D01*
X54576Y13823D01*
X54565Y13841D01*
X54557Y13859D01*
X54552Y13879D01*
X54550Y13900D01*
X54575Y14125D02*
X54577Y14143D01*
X54582Y14161D01*
X54590Y14178D01*
X54601Y14192D01*
X54615Y14205D01*
X54630Y14215D01*
X54648Y14221D01*
X54666Y14225D01*
X54684Y14225D01*
X54702Y14221D01*
X54720Y14215D01*
X54735Y14205D01*
X54749Y14192D01*
X54760Y14178D01*
X54768Y14161D01*
X54773Y14143D01*
X54775Y14125D01*
X54773Y14107D01*
X54768Y14089D01*
X54760Y14072D01*
X54749Y14058D01*
X54735Y14045D01*
X54720Y14035D01*
X54702Y14029D01*
X54684Y14025D01*
X54666Y14025D01*
X54648Y14029D01*
X54630Y14035D01*
X54615Y14045D01*
X54601Y14058D01*
X54590Y14072D01*
X54582Y14089D01*
X54577Y14107D01*
X54575Y14125D01*
X55138Y14226D02*
X55158Y14224D01*
X55177Y14219D01*
X55195Y14211D01*
X55211Y14200D01*
X55225Y14186D01*
X55236Y14170D01*
X55244Y14152D01*
X55249Y14133D01*
X55251Y14113D01*
X55138Y14225D02*
X55115Y14223D01*
X55093Y14218D01*
X55072Y14209D01*
X55053Y14197D01*
X55035Y14182D01*
X55021Y14165D01*
X55009Y14146D01*
X55000Y14125D01*
X55212Y14025D02*
X55225Y14040D01*
X55236Y14056D01*
X55244Y14074D01*
X55248Y14093D01*
X55250Y14113D01*
X55213Y14025D02*
X55000Y13775D01*
X55250Y13775D01*
X55425Y13775D02*
X55575Y14225D01*
X55725Y13775D01*
X55688Y13888D02*
X55463Y13888D01*
D10*
X56500Y18850D02*
X47500Y18850D01*
X47500Y21150D02*
X56500Y21150D01*
X47500Y21150D02*
X47500Y18850D01*
X56500Y18850D02*
X56500Y19600D01*
X56500Y20400D02*
X56500Y21150D01*
X56500Y20400D02*
X56461Y20398D01*
X56422Y20392D01*
X56384Y20383D01*
X56347Y20370D01*
X56311Y20353D01*
X56278Y20333D01*
X56246Y20309D01*
X56217Y20283D01*
X56191Y20254D01*
X56167Y20222D01*
X56147Y20189D01*
X56130Y20153D01*
X56117Y20116D01*
X56108Y20078D01*
X56102Y20039D01*
X56100Y20000D01*
X56102Y19961D01*
X56108Y19922D01*
X56117Y19884D01*
X56130Y19847D01*
X56147Y19811D01*
X56167Y19778D01*
X56191Y19746D01*
X56217Y19717D01*
X56246Y19691D01*
X56278Y19667D01*
X56311Y19647D01*
X56347Y19630D01*
X56384Y19617D01*
X56422Y19608D01*
X56461Y19602D01*
X56500Y19600D01*
D13*
X56625Y18420D02*
X57075Y18420D01*
X56625Y18420D02*
X56625Y18545D01*
X56627Y18565D01*
X56631Y18584D01*
X56639Y18602D01*
X56649Y18618D01*
X56662Y18633D01*
X56677Y18646D01*
X56693Y18656D01*
X56711Y18664D01*
X56730Y18668D01*
X56750Y18670D01*
X56950Y18670D01*
X56970Y18668D01*
X56989Y18664D01*
X57007Y18656D01*
X57023Y18646D01*
X57038Y18633D01*
X57051Y18618D01*
X57061Y18602D01*
X57069Y18584D01*
X57073Y18565D01*
X57075Y18545D01*
X57075Y18420D01*
X57075Y18903D02*
X56625Y18903D01*
X56625Y19028D01*
X56627Y19049D01*
X56632Y19069D01*
X56640Y19087D01*
X56651Y19105D01*
X56665Y19120D01*
X56682Y19133D01*
X56700Y19142D01*
X56719Y19149D01*
X56740Y19153D01*
X56760Y19153D01*
X56781Y19149D01*
X56800Y19142D01*
X56818Y19133D01*
X56835Y19120D01*
X56849Y19105D01*
X56860Y19087D01*
X56868Y19069D01*
X56873Y19049D01*
X56875Y19028D01*
X56875Y18903D01*
X56875Y19053D02*
X57075Y19153D01*
X57075Y19385D02*
X56625Y19385D01*
X57075Y19335D02*
X57075Y19435D01*
X56625Y19435D02*
X56625Y19335D01*
X56625Y19595D02*
X57075Y19745D01*
X56625Y19895D01*
X57075Y20086D02*
X57075Y20286D01*
X57075Y20086D02*
X56625Y20086D01*
X56625Y20286D01*
X56825Y20236D02*
X56825Y20086D01*
X56625Y20478D02*
X57075Y20478D01*
X56625Y20478D02*
X56625Y20603D01*
X56627Y20624D01*
X56632Y20644D01*
X56640Y20662D01*
X56651Y20680D01*
X56665Y20695D01*
X56682Y20708D01*
X56700Y20717D01*
X56719Y20724D01*
X56740Y20728D01*
X56760Y20728D01*
X56781Y20724D01*
X56800Y20717D01*
X56818Y20708D01*
X56835Y20695D01*
X56849Y20680D01*
X56860Y20662D01*
X56868Y20644D01*
X56873Y20624D01*
X56875Y20603D01*
X56875Y20478D01*
X56875Y20628D02*
X57075Y20728D01*
X57075Y20925D02*
X57075Y21050D01*
X57073Y21071D01*
X57068Y21091D01*
X57060Y21109D01*
X57049Y21127D01*
X57035Y21142D01*
X57018Y21155D01*
X57000Y21164D01*
X56981Y21171D01*
X56960Y21175D01*
X56940Y21175D01*
X56919Y21171D01*
X56900Y21164D01*
X56882Y21155D01*
X56865Y21142D01*
X56851Y21127D01*
X56840Y21109D01*
X56832Y21091D01*
X56827Y21071D01*
X56825Y21050D01*
X56625Y21075D02*
X56625Y20925D01*
X56625Y21075D02*
X56627Y21093D01*
X56632Y21111D01*
X56640Y21128D01*
X56651Y21142D01*
X56665Y21155D01*
X56680Y21165D01*
X56698Y21171D01*
X56716Y21175D01*
X56734Y21175D01*
X56752Y21171D01*
X56770Y21165D01*
X56785Y21155D01*
X56799Y21142D01*
X56810Y21128D01*
X56818Y21111D01*
X56823Y21093D01*
X56825Y21075D01*
X56825Y20975D01*
X52225Y20225D02*
X52225Y19900D01*
X52227Y19879D01*
X52232Y19859D01*
X52240Y19841D01*
X52251Y19823D01*
X52265Y19808D01*
X52282Y19795D01*
X52300Y19786D01*
X52319Y19779D01*
X52340Y19775D01*
X52360Y19775D01*
X52381Y19779D01*
X52400Y19786D01*
X52418Y19795D01*
X52435Y19808D01*
X52449Y19823D01*
X52460Y19841D01*
X52468Y19859D01*
X52473Y19879D01*
X52475Y19900D01*
X52475Y20225D01*
X52705Y20225D02*
X52705Y19775D01*
X52705Y20225D02*
X52830Y20225D01*
X52850Y20223D01*
X52869Y20219D01*
X52887Y20211D01*
X52903Y20201D01*
X52918Y20188D01*
X52931Y20173D01*
X52941Y20157D01*
X52949Y20139D01*
X52953Y20120D01*
X52955Y20100D01*
X52955Y19900D01*
X52953Y19880D01*
X52949Y19861D01*
X52941Y19843D01*
X52931Y19827D01*
X52918Y19812D01*
X52903Y19799D01*
X52887Y19789D01*
X52869Y19781D01*
X52850Y19777D01*
X52830Y19775D01*
X52705Y19775D01*
X53185Y19775D02*
X53185Y20225D01*
X53435Y19775D01*
X53435Y20225D01*
X53788Y20226D02*
X53808Y20224D01*
X53827Y20219D01*
X53845Y20211D01*
X53861Y20200D01*
X53875Y20186D01*
X53886Y20170D01*
X53894Y20152D01*
X53899Y20133D01*
X53901Y20113D01*
X53788Y20225D02*
X53765Y20223D01*
X53743Y20218D01*
X53722Y20209D01*
X53703Y20197D01*
X53685Y20182D01*
X53671Y20165D01*
X53659Y20146D01*
X53650Y20125D01*
X53862Y20025D02*
X53875Y20040D01*
X53886Y20056D01*
X53894Y20074D01*
X53898Y20093D01*
X53900Y20113D01*
X53863Y20025D02*
X53650Y19775D01*
X53900Y19775D01*
X54200Y19975D02*
X54350Y19975D01*
X54200Y19975D02*
X54183Y19977D01*
X54166Y19981D01*
X54150Y19988D01*
X54136Y19998D01*
X54123Y20011D01*
X54113Y20025D01*
X54106Y20041D01*
X54102Y20058D01*
X54100Y20075D01*
X54100Y20100D01*
X54102Y20121D01*
X54107Y20141D01*
X54115Y20159D01*
X54126Y20177D01*
X54140Y20192D01*
X54157Y20205D01*
X54175Y20214D01*
X54194Y20221D01*
X54215Y20225D01*
X54235Y20225D01*
X54256Y20221D01*
X54275Y20214D01*
X54293Y20205D01*
X54310Y20192D01*
X54324Y20177D01*
X54335Y20159D01*
X54343Y20141D01*
X54348Y20121D01*
X54350Y20100D01*
X54350Y19975D01*
X54348Y19949D01*
X54343Y19923D01*
X54335Y19898D01*
X54323Y19875D01*
X54309Y19853D01*
X54291Y19834D01*
X54272Y19816D01*
X54250Y19802D01*
X54227Y19790D01*
X54202Y19782D01*
X54176Y19777D01*
X54150Y19775D01*
X54550Y19900D02*
X54552Y19921D01*
X54557Y19941D01*
X54565Y19959D01*
X54576Y19977D01*
X54590Y19992D01*
X54607Y20005D01*
X54625Y20014D01*
X54644Y20021D01*
X54665Y20025D01*
X54685Y20025D01*
X54706Y20021D01*
X54725Y20014D01*
X54743Y20005D01*
X54760Y19992D01*
X54774Y19977D01*
X54785Y19959D01*
X54793Y19941D01*
X54798Y19921D01*
X54800Y19900D01*
X54798Y19879D01*
X54793Y19859D01*
X54785Y19841D01*
X54774Y19823D01*
X54760Y19808D01*
X54743Y19795D01*
X54725Y19786D01*
X54706Y19779D01*
X54685Y19775D01*
X54665Y19775D01*
X54644Y19779D01*
X54625Y19786D01*
X54607Y19795D01*
X54590Y19808D01*
X54576Y19823D01*
X54565Y19841D01*
X54557Y19859D01*
X54552Y19879D01*
X54550Y19900D01*
X54575Y20125D02*
X54577Y20143D01*
X54582Y20161D01*
X54590Y20178D01*
X54601Y20192D01*
X54615Y20205D01*
X54630Y20215D01*
X54648Y20221D01*
X54666Y20225D01*
X54684Y20225D01*
X54702Y20221D01*
X54720Y20215D01*
X54735Y20205D01*
X54749Y20192D01*
X54760Y20178D01*
X54768Y20161D01*
X54773Y20143D01*
X54775Y20125D01*
X54773Y20107D01*
X54768Y20089D01*
X54760Y20072D01*
X54749Y20058D01*
X54735Y20045D01*
X54720Y20035D01*
X54702Y20029D01*
X54684Y20025D01*
X54666Y20025D01*
X54648Y20029D01*
X54630Y20035D01*
X54615Y20045D01*
X54601Y20058D01*
X54590Y20072D01*
X54582Y20089D01*
X54577Y20107D01*
X54575Y20125D01*
X55138Y20226D02*
X55158Y20224D01*
X55177Y20219D01*
X55195Y20211D01*
X55211Y20200D01*
X55225Y20186D01*
X55236Y20170D01*
X55244Y20152D01*
X55249Y20133D01*
X55251Y20113D01*
X55138Y20225D02*
X55115Y20223D01*
X55093Y20218D01*
X55072Y20209D01*
X55053Y20197D01*
X55035Y20182D01*
X55021Y20165D01*
X55009Y20146D01*
X55000Y20125D01*
X55212Y20025D02*
X55225Y20040D01*
X55236Y20056D01*
X55244Y20074D01*
X55248Y20093D01*
X55250Y20113D01*
X55213Y20025D02*
X55000Y19775D01*
X55250Y19775D01*
X55425Y19775D02*
X55575Y20225D01*
X55725Y19775D01*
X55688Y19888D02*
X55463Y19888D01*
D20*
X49823Y5000D02*
X49500Y5000D01*
D10*
X52814Y4429D02*
X52814Y5571D01*
X50176Y5571D01*
X50176Y4429D01*
X52814Y4429D01*
D20*
X53167Y5000D02*
X53500Y5000D01*
D21*
X50010Y5000D03*
X52980Y5000D03*
D13*
X49575Y4325D02*
X49575Y3875D01*
X49575Y4325D02*
X49700Y4325D01*
X49721Y4323D01*
X49741Y4318D01*
X49759Y4310D01*
X49777Y4299D01*
X49792Y4285D01*
X49805Y4268D01*
X49814Y4250D01*
X49821Y4231D01*
X49825Y4210D01*
X49825Y4190D01*
X49821Y4169D01*
X49814Y4150D01*
X49805Y4132D01*
X49792Y4115D01*
X49777Y4101D01*
X49759Y4090D01*
X49741Y4082D01*
X49721Y4077D01*
X49700Y4075D01*
X49575Y4075D01*
X49725Y4075D02*
X49825Y3875D01*
X50022Y4225D02*
X50147Y4325D01*
X50147Y3875D01*
X50022Y3875D02*
X50272Y3875D01*
X50025Y5125D02*
X50150Y5225D01*
X50150Y4775D01*
X50025Y4775D02*
X50275Y4775D01*
X50475Y5000D02*
X50477Y5034D01*
X50481Y5067D01*
X50489Y5100D01*
X50499Y5132D01*
X50513Y5163D01*
X50512Y5163D02*
X50519Y5178D01*
X50528Y5192D01*
X50539Y5204D01*
X50553Y5213D01*
X50568Y5220D01*
X50584Y5225D01*
X50600Y5226D01*
X50616Y5225D01*
X50632Y5220D01*
X50647Y5213D01*
X50661Y5204D01*
X50672Y5192D01*
X50681Y5178D01*
X50688Y5163D01*
X50687Y5163D02*
X50701Y5132D01*
X50711Y5100D01*
X50719Y5067D01*
X50723Y5034D01*
X50725Y5000D01*
X50475Y5000D02*
X50477Y4966D01*
X50481Y4933D01*
X50489Y4900D01*
X50499Y4868D01*
X50513Y4837D01*
X50512Y4838D02*
X50519Y4823D01*
X50528Y4809D01*
X50539Y4797D01*
X50553Y4788D01*
X50568Y4781D01*
X50584Y4776D01*
X50600Y4775D01*
X50687Y4837D02*
X50701Y4868D01*
X50711Y4900D01*
X50719Y4933D01*
X50723Y4966D01*
X50725Y5000D01*
X50688Y4838D02*
X50681Y4823D01*
X50672Y4809D01*
X50661Y4797D01*
X50647Y4788D01*
X50632Y4781D01*
X50616Y4776D01*
X50600Y4775D01*
X50500Y4875D02*
X50700Y5125D01*
X50948Y5225D02*
X50948Y4775D01*
X50948Y4950D02*
X51198Y5225D01*
X51048Y5050D02*
X51198Y4775D01*
D10*
X57000Y34000D02*
X57000Y35000D01*
X48000Y35000D02*
X48000Y34000D01*
X48250Y34250D01*
X48250Y34750D02*
X48000Y35000D01*
X48750Y34750D02*
X49000Y35000D01*
X57000Y35000D01*
X49000Y34000D02*
X48750Y34250D01*
X49000Y34000D02*
X48000Y34000D01*
X49000Y34000D02*
X49000Y35000D01*
X48000Y35000D01*
X49000Y34000D02*
X57000Y34000D01*
X48740Y34260D02*
X48260Y34740D01*
X48260Y34260D02*
X48740Y34740D01*
D13*
X51912Y35275D02*
X51912Y35725D01*
X52037Y35725D01*
X52058Y35723D01*
X52078Y35718D01*
X52096Y35710D01*
X52114Y35699D01*
X52129Y35685D01*
X52142Y35668D01*
X52151Y35650D01*
X52158Y35631D01*
X52162Y35610D01*
X52162Y35590D01*
X52158Y35569D01*
X52151Y35550D01*
X52142Y35532D01*
X52129Y35515D01*
X52114Y35501D01*
X52096Y35490D01*
X52078Y35482D01*
X52058Y35477D01*
X52037Y35475D01*
X51912Y35475D01*
X52062Y35475D02*
X52162Y35275D01*
X52373Y35275D02*
X52373Y35725D01*
X52623Y35275D01*
X52623Y35725D01*
X52838Y35625D02*
X52963Y35725D01*
X52963Y35275D01*
X52838Y35275D02*
X53088Y35275D01*
X52063Y33726D02*
X52083Y33724D01*
X52102Y33719D01*
X52120Y33711D01*
X52136Y33700D01*
X52150Y33686D01*
X52161Y33670D01*
X52169Y33652D01*
X52174Y33633D01*
X52176Y33613D01*
X52063Y33725D02*
X52040Y33723D01*
X52018Y33718D01*
X51997Y33709D01*
X51978Y33697D01*
X51960Y33682D01*
X51946Y33665D01*
X51934Y33646D01*
X51925Y33625D01*
X52137Y33525D02*
X52150Y33540D01*
X52161Y33556D01*
X52169Y33574D01*
X52173Y33593D01*
X52175Y33613D01*
X52138Y33525D02*
X51925Y33275D01*
X52175Y33275D01*
X52626Y33613D02*
X52624Y33633D01*
X52619Y33652D01*
X52611Y33670D01*
X52600Y33686D01*
X52586Y33700D01*
X52570Y33711D01*
X52552Y33719D01*
X52533Y33724D01*
X52513Y33726D01*
X52513Y33725D02*
X52490Y33723D01*
X52468Y33718D01*
X52447Y33709D01*
X52428Y33697D01*
X52410Y33682D01*
X52396Y33665D01*
X52384Y33646D01*
X52375Y33625D01*
X52587Y33525D02*
X52600Y33540D01*
X52611Y33556D01*
X52619Y33574D01*
X52623Y33593D01*
X52625Y33613D01*
X52588Y33525D02*
X52375Y33275D01*
X52625Y33275D01*
X52825Y33500D02*
X52827Y33534D01*
X52831Y33567D01*
X52839Y33600D01*
X52849Y33632D01*
X52863Y33663D01*
X52862Y33663D02*
X52869Y33678D01*
X52878Y33692D01*
X52889Y33704D01*
X52903Y33713D01*
X52918Y33720D01*
X52934Y33725D01*
X52950Y33726D01*
X52966Y33725D01*
X52982Y33720D01*
X52997Y33713D01*
X53011Y33704D01*
X53022Y33692D01*
X53031Y33678D01*
X53038Y33663D01*
X53037Y33663D02*
X53051Y33632D01*
X53061Y33600D01*
X53069Y33567D01*
X53073Y33534D01*
X53075Y33500D01*
X52825Y33500D02*
X52827Y33466D01*
X52831Y33433D01*
X52839Y33400D01*
X52849Y33368D01*
X52863Y33337D01*
X52862Y33338D02*
X52869Y33323D01*
X52878Y33309D01*
X52889Y33297D01*
X52903Y33288D01*
X52918Y33281D01*
X52934Y33276D01*
X52950Y33275D01*
X53037Y33337D02*
X53051Y33368D01*
X53061Y33400D01*
X53069Y33433D01*
X53073Y33466D01*
X53075Y33500D01*
X53038Y33338D02*
X53031Y33323D01*
X53022Y33309D01*
X53011Y33297D01*
X52997Y33288D01*
X52982Y33281D01*
X52966Y33276D01*
X52950Y33275D01*
X52850Y33375D02*
X53050Y33625D01*
M02*
