G04 EAGLE Gerber RS-274X export*
G75*
%MOIN*%
%FSLAX34Y34*%
%LPD*%
%INSoldermask Top*%
%IPPOS*%
%AMOC8*
5,1,8,0,0,1.08239X$1,22.5*%
G01*
%ADD10C,0.047370*%
%ADD11C,0.060000*%
%ADD12P,0.073603X8X292.500000*%
%ADD13P,0.073603X8X22.500000*%
%ADD14P,0.078972X8X202.500000*%
%ADD15P,0.078972X8X22.500000*%


D10*
X61300Y36150D03*
X37300Y20238D03*
X37300Y36150D03*
X37300Y4325D03*
X61500Y4000D03*
D11*
X46500Y9240D02*
X46500Y9760D01*
X45500Y9760D02*
X45500Y9240D01*
X40500Y9240D02*
X40500Y9760D01*
X39500Y9760D02*
X39500Y9240D01*
X44500Y9240D02*
X44500Y9760D01*
X43500Y9760D02*
X43500Y9240D01*
X41500Y9240D02*
X41500Y9760D01*
X42500Y9760D02*
X42500Y9240D01*
X39500Y6760D02*
X39500Y6240D01*
X40500Y6240D02*
X40500Y6760D01*
X41500Y6760D02*
X41500Y6240D01*
X42500Y6240D02*
X42500Y6760D01*
X43500Y6760D02*
X43500Y6240D01*
X44500Y6240D02*
X44500Y6760D01*
X45500Y6760D02*
X45500Y6240D01*
X46500Y6240D02*
X46500Y6760D01*
D12*
X60500Y33500D03*
X60500Y32500D03*
X60500Y31500D03*
X60500Y30500D03*
X60500Y29500D03*
X60500Y28500D03*
X60500Y27500D03*
X60500Y26500D03*
X60500Y25500D03*
X60500Y24500D03*
X60500Y23500D03*
X60500Y22500D03*
X60500Y21500D03*
X60500Y20500D03*
X60500Y19500D03*
X60500Y18500D03*
X60500Y17500D03*
X60500Y16500D03*
X60500Y15500D03*
X59500Y33500D03*
X59500Y32500D03*
X59500Y31500D03*
X59500Y30500D03*
X59500Y29500D03*
X59500Y28500D03*
X59500Y27500D03*
X59500Y26500D03*
X59500Y25500D03*
X59500Y24500D03*
X59500Y23500D03*
X59500Y22500D03*
X59500Y21500D03*
X59500Y20500D03*
X59500Y19500D03*
X59500Y18500D03*
X59500Y17500D03*
X59500Y16500D03*
X59500Y15500D03*
X60500Y14500D03*
X59500Y14500D03*
X59500Y13500D03*
X60500Y13500D03*
X59500Y12500D03*
X60500Y12500D03*
X59500Y11500D03*
X60500Y11500D03*
X59500Y10500D03*
X60500Y10500D03*
X59500Y9500D03*
X60500Y9500D03*
X59500Y8500D03*
X60500Y8500D03*
X59500Y7500D03*
X60500Y7500D03*
X59500Y6500D03*
X60500Y6500D03*
X59500Y5500D03*
X60500Y5500D03*
X59500Y4500D03*
X60500Y4500D03*
D13*
X37500Y26000D03*
X37500Y27000D03*
X38500Y26000D03*
X38500Y27000D03*
X39500Y26000D03*
X39500Y27000D03*
X40500Y26000D03*
X40500Y27000D03*
X41500Y26000D03*
X41500Y27000D03*
X42500Y26000D03*
X42500Y27000D03*
X43500Y26000D03*
X43500Y27000D03*
X44500Y26000D03*
X44500Y27000D03*
X45500Y26000D03*
X45500Y27000D03*
X46500Y26000D03*
X46500Y27000D03*
X37500Y29000D03*
X37500Y30000D03*
X38500Y29000D03*
X38500Y30000D03*
X39500Y29000D03*
X39500Y30000D03*
X40500Y29000D03*
X40500Y30000D03*
X41500Y29000D03*
X41500Y30000D03*
X42500Y29000D03*
X42500Y30000D03*
X43500Y29000D03*
X43500Y30000D03*
X44500Y29000D03*
X44500Y30000D03*
X45500Y29000D03*
X45500Y30000D03*
X46500Y29000D03*
X46500Y30000D03*
D11*
X55000Y28760D02*
X55000Y28240D01*
X54000Y28240D02*
X54000Y28760D01*
X49000Y28760D02*
X49000Y28240D01*
X48000Y28240D02*
X48000Y28760D01*
X53000Y28760D02*
X53000Y28240D01*
X52000Y28240D02*
X52000Y28760D01*
X50000Y28760D02*
X50000Y28240D01*
X51000Y28240D02*
X51000Y28760D01*
X48000Y25760D02*
X48000Y25240D01*
X49000Y25240D02*
X49000Y25760D01*
X50000Y25760D02*
X50000Y25240D01*
X51000Y25240D02*
X51000Y25760D01*
X52000Y25760D02*
X52000Y25240D01*
X53000Y25240D02*
X53000Y25760D01*
X54000Y25760D02*
X54000Y25240D01*
X55000Y25240D02*
X55000Y25760D01*
D14*
X52500Y23500D03*
X48500Y23500D03*
D11*
X56000Y32740D02*
X56000Y33260D01*
X55000Y33260D02*
X55000Y32740D01*
X50000Y32740D02*
X50000Y33260D01*
X49000Y33260D02*
X49000Y32740D01*
X54000Y32740D02*
X54000Y33260D01*
X53000Y33260D02*
X53000Y32740D01*
X51000Y32740D02*
X51000Y33260D01*
X52000Y33260D02*
X52000Y32740D01*
X48000Y32740D02*
X48000Y33260D01*
X48000Y30260D02*
X48000Y29740D01*
X49000Y29740D02*
X49000Y30260D01*
X50000Y30260D02*
X50000Y29740D01*
X51000Y29740D02*
X51000Y30260D01*
X52000Y30260D02*
X52000Y29740D01*
X53000Y29740D02*
X53000Y30260D01*
X54000Y30260D02*
X54000Y29740D01*
X55000Y29740D02*
X55000Y30260D01*
X56000Y30260D02*
X56000Y29740D01*
X57500Y9760D02*
X57500Y9240D01*
X56500Y9240D02*
X56500Y9760D01*
X51500Y9760D02*
X51500Y9240D01*
X50500Y9240D02*
X50500Y9760D01*
X55500Y9760D02*
X55500Y9240D01*
X54500Y9240D02*
X54500Y9760D01*
X52500Y9760D02*
X52500Y9240D01*
X53500Y9240D02*
X53500Y9760D01*
X49500Y9760D02*
X49500Y9240D01*
X49500Y6760D02*
X49500Y6240D01*
X50500Y6240D02*
X50500Y6760D01*
X51500Y6760D02*
X51500Y6240D01*
X52500Y6240D02*
X52500Y6760D01*
X53500Y6760D02*
X53500Y6240D01*
X54500Y6240D02*
X54500Y6760D01*
X55500Y6760D02*
X55500Y6240D01*
X56500Y6240D02*
X56500Y6760D01*
X57500Y6760D02*
X57500Y6240D01*
X45500Y15240D02*
X45500Y15760D01*
X44500Y15760D02*
X44500Y15240D01*
X39500Y15240D02*
X39500Y15760D01*
X38500Y15760D02*
X38500Y15240D01*
X43500Y15240D02*
X43500Y15760D01*
X42500Y15760D02*
X42500Y15240D01*
X40500Y15240D02*
X40500Y15760D01*
X41500Y15760D02*
X41500Y15240D01*
X38500Y12760D02*
X38500Y12240D01*
X39500Y12240D02*
X39500Y12760D01*
X40500Y12760D02*
X40500Y12240D01*
X41500Y12240D02*
X41500Y12760D01*
X42500Y12760D02*
X42500Y12240D01*
X43500Y12240D02*
X43500Y12760D01*
X44500Y12760D02*
X44500Y12240D01*
X45500Y12240D02*
X45500Y12760D01*
X45500Y21240D02*
X45500Y21760D01*
X44500Y21760D02*
X44500Y21240D01*
X39500Y21240D02*
X39500Y21760D01*
X38500Y21760D02*
X38500Y21240D01*
X43500Y21240D02*
X43500Y21760D01*
X42500Y21760D02*
X42500Y21240D01*
X40500Y21240D02*
X40500Y21760D01*
X41500Y21760D02*
X41500Y21240D01*
X38500Y18760D02*
X38500Y18240D01*
X39500Y18240D02*
X39500Y18760D01*
X40500Y18760D02*
X40500Y18240D01*
X41500Y18240D02*
X41500Y18760D01*
X42500Y18760D02*
X42500Y18240D01*
X43500Y18240D02*
X43500Y18760D01*
X44500Y18760D02*
X44500Y18240D01*
X45500Y18240D02*
X45500Y18760D01*
X56000Y15760D02*
X56000Y15240D01*
X55000Y15240D02*
X55000Y15760D01*
X50000Y15760D02*
X50000Y15240D01*
X49000Y15240D02*
X49000Y15760D01*
X54000Y15760D02*
X54000Y15240D01*
X53000Y15240D02*
X53000Y15760D01*
X51000Y15760D02*
X51000Y15240D01*
X52000Y15240D02*
X52000Y15760D01*
X48000Y15760D02*
X48000Y15240D01*
X48000Y12760D02*
X48000Y12240D01*
X49000Y12240D02*
X49000Y12760D01*
X50000Y12760D02*
X50000Y12240D01*
X51000Y12240D02*
X51000Y12760D01*
X52000Y12760D02*
X52000Y12240D01*
X53000Y12240D02*
X53000Y12760D01*
X54000Y12760D02*
X54000Y12240D01*
X55000Y12240D02*
X55000Y12760D01*
X56000Y12760D02*
X56000Y12240D01*
X56000Y21240D02*
X56000Y21760D01*
X55000Y21760D02*
X55000Y21240D01*
X50000Y21240D02*
X50000Y21760D01*
X49000Y21760D02*
X49000Y21240D01*
X54000Y21240D02*
X54000Y21760D01*
X53000Y21760D02*
X53000Y21240D01*
X51000Y21240D02*
X51000Y21760D01*
X52000Y21760D02*
X52000Y21240D01*
X48000Y21240D02*
X48000Y21760D01*
X48000Y18760D02*
X48000Y18240D01*
X49000Y18240D02*
X49000Y18760D01*
X50000Y18760D02*
X50000Y18240D01*
X51000Y18240D02*
X51000Y18760D01*
X52000Y18760D02*
X52000Y18240D01*
X53000Y18240D02*
X53000Y18760D01*
X54000Y18760D02*
X54000Y18240D01*
X55000Y18240D02*
X55000Y18760D01*
X56000Y18760D02*
X56000Y18240D01*
D15*
X49500Y5000D03*
X53500Y5000D03*
D11*
X48500Y34240D02*
X48500Y34760D01*
X49500Y34760D02*
X49500Y34240D01*
X50500Y34240D02*
X50500Y34760D01*
X51500Y34760D02*
X51500Y34240D01*
X52500Y34240D02*
X52500Y34760D01*
X53500Y34760D02*
X53500Y34240D01*
X54500Y34240D02*
X54500Y34760D01*
X55500Y34760D02*
X55500Y34240D01*
X56500Y34240D02*
X56500Y34760D01*
M02*
