G04 EAGLE Gerber RS-274X export*
G75*
%MOIN*%
%FSLAX34Y34*%
%LPD*%
%INBottom Copper*%
%IPPOS*%
%AMOC8*
5,1,8,0,0,1.08239X$1,22.5*%
G01*
%ADD10C,0.052000*%
%ADD11P,0.064943X8X292.500000*%
%ADD12P,0.064943X8X22.500000*%
%ADD13C,0.060000*%
%ADD14P,0.064943X8X112.500000*%
%ADD15P,0.056284X8X112.500000*%
%ADD16C,0.006000*%

G36*
X26563Y-1099D02*
X26563Y-1099D01*
X26564Y-1099D01*
X26568Y-1098D01*
X26572Y-1098D01*
X26572Y-1097D01*
X26574Y-1097D01*
X26577Y-1095D01*
X26580Y-1093D01*
X26581Y-1092D01*
X26582Y-1092D01*
X26584Y-1089D01*
X26587Y-1086D01*
X26587Y-1085D01*
X26588Y-1084D01*
X26589Y-1081D01*
X26590Y-1079D01*
X26590Y-1077D01*
X26591Y-1076D01*
X26591Y-1075D01*
X26591Y-1070D01*
X26591Y37000D01*
X26591Y37001D01*
X26591Y37002D01*
X26590Y37006D01*
X26590Y37010D01*
X26589Y37010D01*
X26589Y37011D01*
X26587Y37015D01*
X26585Y37018D01*
X26585Y37019D01*
X26584Y37020D01*
X26581Y37022D01*
X26578Y37024D01*
X26577Y37025D01*
X26576Y37026D01*
X26573Y37027D01*
X26570Y37028D01*
X26569Y37028D01*
X26568Y37029D01*
X26562Y37029D01*
X-1750Y37029D01*
X-1751Y37029D01*
X-1752Y37029D01*
X-1756Y37028D01*
X-1759Y37028D01*
X-1760Y37027D01*
X-1761Y37027D01*
X-1765Y37025D01*
X-1768Y37023D01*
X-1769Y37022D01*
X-1772Y37019D01*
X-1774Y37016D01*
X-1775Y37015D01*
X-1775Y37014D01*
X-1777Y37011D01*
X-1778Y37008D01*
X-1778Y37006D01*
X-1779Y37005D01*
X-1779Y37000D01*
X-1779Y-1070D01*
X-1779Y-1071D01*
X-1779Y-1072D01*
X-1778Y-1076D01*
X-1778Y-1079D01*
X-1777Y-1080D01*
X-1777Y-1081D01*
X-1775Y-1085D01*
X-1773Y-1088D01*
X-1772Y-1089D01*
X-1769Y-1092D01*
X-1766Y-1094D01*
X-1765Y-1095D01*
X-1764Y-1095D01*
X-1761Y-1097D01*
X-1757Y-1098D01*
X-1756Y-1098D01*
X-1755Y-1099D01*
X-1750Y-1099D01*
X26562Y-1099D01*
X26563Y-1099D01*
G37*
%LPC*%
G36*
X10317Y799D02*
X10317Y799D01*
X8971Y2146D01*
X8909Y2207D01*
X8909Y18482D01*
X8909Y18486D01*
X8908Y18490D01*
X8908Y18491D01*
X8906Y18495D01*
X8904Y18498D01*
X8903Y18499D01*
X8903Y18500D01*
X8901Y18503D01*
X8501Y18903D01*
X8498Y18904D01*
X8496Y18906D01*
X8494Y18907D01*
X8493Y18908D01*
X8490Y18909D01*
X8487Y18910D01*
X8486Y18910D01*
X8484Y18911D01*
X8481Y18911D01*
X8478Y18911D01*
X8476Y18911D01*
X8474Y18911D01*
X8471Y18909D01*
X8469Y18909D01*
X8467Y18908D01*
X8465Y18907D01*
X8463Y18905D01*
X8461Y18904D01*
X8459Y18902D01*
X8458Y18901D01*
X8456Y18898D01*
X8455Y18896D01*
X8454Y18894D01*
X8453Y18893D01*
X8452Y18890D01*
X8451Y18887D01*
X8451Y18884D01*
X8451Y18883D01*
X8451Y18882D01*
X8451Y18818D01*
X8396Y18686D01*
X8294Y18584D01*
X8162Y18529D01*
X7418Y18529D01*
X7286Y18584D01*
X7184Y18686D01*
X7129Y18818D01*
X7129Y18962D01*
X7184Y19094D01*
X7286Y19196D01*
X7418Y19251D01*
X8082Y19251D01*
X8085Y19251D01*
X8088Y19251D01*
X8089Y19252D01*
X8091Y19252D01*
X8094Y19254D01*
X8097Y19255D01*
X8098Y19256D01*
X8100Y19257D01*
X8102Y19259D01*
X8104Y19261D01*
X8105Y19262D01*
X8106Y19264D01*
X8107Y19267D01*
X8109Y19269D01*
X8109Y19271D01*
X8110Y19273D01*
X8110Y19275D01*
X8111Y19278D01*
X8111Y19280D01*
X8111Y19282D01*
X8110Y19285D01*
X8110Y19288D01*
X8109Y19290D01*
X8109Y19291D01*
X8107Y19294D01*
X8106Y19297D01*
X8104Y19299D01*
X8103Y19300D01*
X8103Y19301D01*
X8003Y19401D01*
X7999Y19403D01*
X7996Y19405D01*
X7995Y19406D01*
X7991Y19407D01*
X7987Y19409D01*
X7986Y19409D01*
X7985Y19409D01*
X7982Y19409D01*
X6962Y19409D01*
X6901Y19471D01*
X1971Y24401D01*
X1909Y24462D01*
X1909Y28500D01*
X1909Y28504D01*
X1908Y28508D01*
X1908Y28509D01*
X1908Y28510D01*
X1906Y28513D01*
X1904Y28517D01*
X1903Y28518D01*
X1903Y28519D01*
X1901Y28521D01*
X1151Y29271D01*
X1148Y29273D01*
X1145Y29275D01*
X1144Y29276D01*
X1143Y29276D01*
X1139Y29277D01*
X1136Y29279D01*
X1135Y29279D01*
X1134Y29279D01*
X1133Y29279D01*
X1130Y29279D01*
X626Y29279D01*
X508Y29328D01*
X418Y29418D01*
X369Y29536D01*
X369Y29664D01*
X418Y29782D01*
X508Y29872D01*
X626Y29921D01*
X1274Y29921D01*
X1392Y29872D01*
X1482Y29782D01*
X1531Y29664D01*
X1531Y29536D01*
X1482Y29418D01*
X1392Y29328D01*
X1391Y29327D01*
X1390Y29327D01*
X1388Y29323D01*
X1386Y29320D01*
X1386Y29319D01*
X1385Y29318D01*
X1384Y29315D01*
X1383Y29311D01*
X1383Y29310D01*
X1383Y29309D01*
X1384Y29305D01*
X1384Y29302D01*
X1384Y29301D01*
X1384Y29300D01*
X1386Y29296D01*
X1387Y29293D01*
X1388Y29292D01*
X1388Y29291D01*
X1392Y29287D01*
X2029Y28649D01*
X2091Y28588D01*
X2091Y24550D01*
X2091Y24546D01*
X2092Y24542D01*
X2092Y24541D01*
X2092Y24540D01*
X2094Y24537D01*
X2096Y24533D01*
X2097Y24532D01*
X2097Y24531D01*
X2099Y24529D01*
X7029Y19599D01*
X7032Y19597D01*
X7035Y19595D01*
X7036Y19594D01*
X7037Y19594D01*
X7041Y19593D01*
X7044Y19591D01*
X7045Y19591D01*
X7046Y19591D01*
X7047Y19591D01*
X7050Y19591D01*
X7208Y19591D01*
X7211Y19591D01*
X7214Y19591D01*
X7216Y19592D01*
X7218Y19592D01*
X7220Y19594D01*
X7223Y19595D01*
X7225Y19596D01*
X7226Y19597D01*
X7228Y19599D01*
X7231Y19601D01*
X7232Y19602D01*
X7233Y19604D01*
X7234Y19607D01*
X7236Y19609D01*
X7236Y19611D01*
X7237Y19613D01*
X7237Y19615D01*
X7238Y19618D01*
X7237Y19620D01*
X7238Y19622D01*
X7237Y19625D01*
X7237Y19628D01*
X7236Y19630D01*
X7235Y19631D01*
X7234Y19634D01*
X7233Y19637D01*
X7231Y19639D01*
X7230Y19639D01*
X7230Y19640D01*
X7229Y19641D01*
X7184Y19686D01*
X7129Y19818D01*
X7129Y19962D01*
X7184Y20094D01*
X7286Y20196D01*
X7418Y20251D01*
X8162Y20251D01*
X8294Y20196D01*
X8339Y20151D01*
X8342Y20149D01*
X8344Y20147D01*
X8346Y20146D01*
X8347Y20145D01*
X8350Y20144D01*
X8353Y20143D01*
X8354Y20143D01*
X8356Y20143D01*
X8359Y20143D01*
X8362Y20142D01*
X8364Y20143D01*
X8366Y20143D01*
X8369Y20144D01*
X8371Y20145D01*
X8373Y20146D01*
X8375Y20146D01*
X8377Y20148D01*
X8379Y20150D01*
X8381Y20151D01*
X8382Y20152D01*
X8384Y20155D01*
X8385Y20157D01*
X8386Y20159D01*
X8387Y20161D01*
X8388Y20163D01*
X8389Y20166D01*
X8389Y20169D01*
X8389Y20170D01*
X8389Y20172D01*
X8389Y21502D01*
X8389Y21506D01*
X8388Y21510D01*
X8388Y21511D01*
X8386Y21515D01*
X8384Y21518D01*
X8383Y21519D01*
X8383Y21520D01*
X8381Y21523D01*
X7409Y22494D01*
X7409Y23950D01*
X7409Y23954D01*
X7408Y23958D01*
X7408Y23959D01*
X7408Y23960D01*
X7406Y23963D01*
X7404Y23967D01*
X7403Y23968D01*
X7403Y23969D01*
X7401Y23971D01*
X6080Y25292D01*
X6077Y25294D01*
X6074Y25296D01*
X6073Y25297D01*
X6072Y25297D01*
X6068Y25298D01*
X6065Y25300D01*
X6064Y25300D01*
X6063Y25300D01*
X6062Y25300D01*
X6059Y25300D01*
X5466Y25300D01*
X5348Y25349D01*
X5258Y25439D01*
X5209Y25557D01*
X5209Y25685D01*
X5258Y25803D01*
X5348Y25893D01*
X5400Y25914D01*
X5402Y25915D01*
X5404Y25916D01*
X5406Y25918D01*
X5408Y25919D01*
X5409Y25921D01*
X5411Y25922D01*
X5412Y25925D01*
X5414Y25927D01*
X5415Y25929D01*
X5416Y25930D01*
X5417Y25933D01*
X5418Y25936D01*
X5418Y25938D01*
X5418Y25940D01*
X5418Y25943D01*
X5418Y25945D01*
X5417Y25947D01*
X5417Y25949D01*
X5416Y25952D01*
X5415Y25954D01*
X5414Y25956D01*
X5413Y25958D01*
X5410Y25962D01*
X5401Y25971D01*
X4971Y26401D01*
X4961Y26411D01*
X4960Y26412D01*
X4959Y26412D01*
X4956Y26414D01*
X4953Y26417D01*
X4952Y26417D01*
X4951Y26417D01*
X4947Y26418D01*
X4944Y26419D01*
X4943Y26419D01*
X4942Y26419D01*
X4938Y26419D01*
X4934Y26419D01*
X4933Y26419D01*
X4932Y26418D01*
X4929Y26417D01*
X4925Y26416D01*
X4924Y26415D01*
X4923Y26414D01*
X4919Y26411D01*
X4407Y25898D01*
X4406Y25897D01*
X4405Y25897D01*
X4403Y25894D01*
X4401Y25891D01*
X4401Y25890D01*
X4400Y25889D01*
X4399Y25885D01*
X4398Y25881D01*
X4398Y25880D01*
X4398Y25879D01*
X4399Y25876D01*
X4399Y25872D01*
X4399Y25871D01*
X4399Y25870D01*
X4401Y25866D01*
X4402Y25863D01*
X4403Y25862D01*
X4403Y25861D01*
X4407Y25857D01*
X4482Y25782D01*
X4531Y25664D01*
X4531Y25536D01*
X4482Y25418D01*
X4392Y25328D01*
X4274Y25279D01*
X3626Y25279D01*
X3508Y25328D01*
X3418Y25418D01*
X3369Y25536D01*
X3369Y25664D01*
X3418Y25782D01*
X3508Y25872D01*
X3626Y25921D01*
X4160Y25921D01*
X4164Y25921D01*
X4168Y25922D01*
X4169Y25922D01*
X4170Y25922D01*
X4173Y25924D01*
X4177Y25926D01*
X4178Y25927D01*
X4179Y25927D01*
X4181Y25929D01*
X4781Y26529D01*
X4783Y26532D01*
X4785Y26535D01*
X4786Y26536D01*
X4786Y26537D01*
X4787Y26541D01*
X4789Y26544D01*
X4789Y26545D01*
X4789Y26546D01*
X4789Y26547D01*
X4789Y26550D01*
X4789Y27240D01*
X4789Y27243D01*
X4789Y27246D01*
X4788Y27248D01*
X4788Y27250D01*
X4786Y27252D01*
X4785Y27255D01*
X4784Y27256D01*
X4783Y27258D01*
X4781Y27260D01*
X4779Y27262D01*
X4778Y27263D01*
X4776Y27265D01*
X4773Y27266D01*
X4771Y27267D01*
X4769Y27268D01*
X4767Y27269D01*
X4765Y27269D01*
X4762Y27269D01*
X4760Y27269D01*
X4758Y27269D01*
X4755Y27269D01*
X4752Y27268D01*
X4750Y27268D01*
X4749Y27267D01*
X4746Y27266D01*
X4743Y27264D01*
X4741Y27263D01*
X4741Y27262D01*
X4740Y27262D01*
X4739Y27261D01*
X4392Y26913D01*
X4391Y26912D01*
X4390Y26912D01*
X4389Y26910D01*
X4388Y26909D01*
X4387Y26907D01*
X4386Y26906D01*
X4386Y26905D01*
X4385Y26904D01*
X4385Y26901D01*
X4384Y26900D01*
X4384Y26899D01*
X4383Y26896D01*
X4383Y26895D01*
X4383Y26894D01*
X4383Y26892D01*
X4383Y26890D01*
X4384Y26889D01*
X4384Y26887D01*
X4384Y26886D01*
X4384Y26885D01*
X4385Y26883D01*
X4385Y26881D01*
X4386Y26880D01*
X4387Y26878D01*
X4388Y26877D01*
X4388Y26876D01*
X4390Y26874D01*
X4391Y26873D01*
X4392Y26872D01*
X4482Y26782D01*
X4531Y26664D01*
X4531Y26536D01*
X4482Y26418D01*
X4392Y26328D01*
X4274Y26279D01*
X3626Y26279D01*
X3508Y26328D01*
X3418Y26418D01*
X3369Y26536D01*
X3369Y26664D01*
X3418Y26782D01*
X3508Y26872D01*
X3626Y26921D01*
X4130Y26921D01*
X4134Y26921D01*
X4138Y26922D01*
X4139Y26922D01*
X4140Y26922D01*
X4143Y26924D01*
X4147Y26926D01*
X4148Y26927D01*
X4149Y26927D01*
X4151Y26929D01*
X4661Y27439D01*
X4663Y27442D01*
X4665Y27445D01*
X4666Y27446D01*
X4666Y27447D01*
X4667Y27451D01*
X4669Y27454D01*
X4669Y27455D01*
X4669Y27456D01*
X4669Y27457D01*
X4669Y27460D01*
X4669Y29365D01*
X4669Y29368D01*
X4669Y29371D01*
X4668Y29373D01*
X4668Y29375D01*
X4666Y29377D01*
X4665Y29380D01*
X4664Y29382D01*
X4663Y29383D01*
X4661Y29385D01*
X4659Y29387D01*
X4658Y29388D01*
X4656Y29390D01*
X4653Y29391D01*
X4651Y29392D01*
X4649Y29393D01*
X4647Y29394D01*
X4645Y29394D01*
X4642Y29395D01*
X4640Y29394D01*
X4638Y29394D01*
X4635Y29394D01*
X4632Y29393D01*
X4630Y29393D01*
X4629Y29392D01*
X4626Y29391D01*
X4623Y29389D01*
X4621Y29388D01*
X4621Y29387D01*
X4620Y29387D01*
X4619Y29386D01*
X4589Y29356D01*
X4393Y29159D01*
X3800Y29159D01*
X3796Y29159D01*
X3792Y29158D01*
X3791Y29158D01*
X3790Y29158D01*
X3787Y29156D01*
X3783Y29154D01*
X3782Y29153D01*
X3781Y29153D01*
X3779Y29151D01*
X3599Y28970D01*
X3596Y28967D01*
X3594Y28964D01*
X3594Y28963D01*
X3593Y28962D01*
X3592Y28959D01*
X3591Y28955D01*
X3590Y28954D01*
X3590Y28953D01*
X3590Y28949D01*
X3590Y28946D01*
X3591Y28945D01*
X3591Y28944D01*
X3592Y28940D01*
X3593Y28936D01*
X3594Y28936D01*
X3594Y28935D01*
X3596Y28932D01*
X3599Y28929D01*
X3599Y28928D01*
X3600Y28927D01*
X3603Y28925D01*
X3607Y28923D01*
X3608Y28922D01*
X3612Y28922D01*
X3616Y28920D01*
X3617Y28921D01*
X3618Y28920D01*
X3621Y28921D01*
X3622Y28921D01*
X4274Y28921D01*
X4392Y28872D01*
X4482Y28782D01*
X4531Y28664D01*
X4531Y28536D01*
X4482Y28418D01*
X4392Y28328D01*
X4274Y28279D01*
X3626Y28279D01*
X3508Y28328D01*
X3418Y28418D01*
X3369Y28536D01*
X3369Y28666D01*
X3369Y28667D01*
X3369Y28668D01*
X3370Y28669D01*
X3369Y28673D01*
X3369Y28677D01*
X3369Y28678D01*
X3367Y28682D01*
X3366Y28686D01*
X3365Y28686D01*
X3365Y28687D01*
X3362Y28690D01*
X3360Y28693D01*
X3359Y28693D01*
X3358Y28694D01*
X3355Y28696D01*
X3351Y28698D01*
X3350Y28699D01*
X3346Y28699D01*
X3342Y28700D01*
X3341Y28700D01*
X3340Y28700D01*
X3336Y28699D01*
X3333Y28699D01*
X3332Y28699D01*
X3331Y28698D01*
X3327Y28697D01*
X3324Y28695D01*
X3323Y28694D01*
X3322Y28694D01*
X3322Y28693D01*
X3320Y28691D01*
X3099Y28471D01*
X3097Y28468D01*
X3095Y28465D01*
X3094Y28464D01*
X3094Y28463D01*
X3093Y28459D01*
X3091Y28456D01*
X3091Y28455D01*
X3091Y28454D01*
X3091Y28453D01*
X3091Y28450D01*
X3091Y25600D01*
X3091Y25596D01*
X3092Y25592D01*
X3092Y25591D01*
X3092Y25590D01*
X3094Y25587D01*
X3096Y25583D01*
X3097Y25582D01*
X3097Y25581D01*
X3099Y25579D01*
X3749Y24929D01*
X3752Y24927D01*
X3755Y24925D01*
X3756Y24924D01*
X3757Y24924D01*
X3761Y24923D01*
X3764Y24921D01*
X3765Y24921D01*
X3766Y24921D01*
X3767Y24921D01*
X3770Y24921D01*
X4274Y24921D01*
X4392Y24872D01*
X4482Y24782D01*
X4531Y24664D01*
X4531Y24536D01*
X4482Y24418D01*
X4392Y24328D01*
X4274Y24279D01*
X3626Y24279D01*
X3508Y24328D01*
X3418Y24418D01*
X3369Y24536D01*
X3369Y24664D01*
X3418Y24782D01*
X3508Y24872D01*
X3509Y24873D01*
X3510Y24873D01*
X3512Y24877D01*
X3514Y24880D01*
X3514Y24881D01*
X3515Y24882D01*
X3516Y24885D01*
X3517Y24889D01*
X3517Y24890D01*
X3517Y24891D01*
X3516Y24895D01*
X3516Y24898D01*
X3516Y24899D01*
X3516Y24900D01*
X3514Y24904D01*
X3513Y24907D01*
X3512Y24908D01*
X3512Y24909D01*
X3508Y24913D01*
X2971Y25451D01*
X2909Y25512D01*
X2909Y28538D01*
X3613Y29241D01*
X3614Y29243D01*
X3615Y29244D01*
X3616Y29245D01*
X3616Y29246D01*
X3617Y29247D01*
X3618Y29249D01*
X3619Y29251D01*
X3620Y29253D01*
X3620Y29254D01*
X3620Y29256D01*
X3621Y29258D01*
X3621Y29260D01*
X3621Y29262D01*
X3621Y29263D01*
X3621Y29264D01*
X3621Y29265D01*
X3621Y29268D01*
X3620Y29269D01*
X3620Y29271D01*
X3619Y29273D01*
X3618Y29274D01*
X3617Y29276D01*
X3616Y29278D01*
X3615Y29280D01*
X3614Y29281D01*
X3612Y29282D01*
X3611Y29284D01*
X3609Y29285D01*
X3608Y29286D01*
X3607Y29287D01*
X3606Y29287D01*
X3606Y29288D01*
X3603Y29289D01*
X3508Y29328D01*
X3418Y29418D01*
X3388Y29491D01*
X3385Y29495D01*
X3383Y29499D01*
X3379Y29502D01*
X3375Y29505D01*
X3371Y29507D01*
X3366Y29509D01*
X3363Y29509D01*
X1351Y31521D01*
X1348Y31523D01*
X1345Y31525D01*
X1344Y31526D01*
X1343Y31526D01*
X1339Y31527D01*
X1336Y31529D01*
X1335Y31529D01*
X1334Y31529D01*
X1333Y31529D01*
X1330Y31529D01*
X-101Y31529D01*
X-106Y31528D01*
X-110Y31528D01*
X-111Y31528D01*
X-115Y31525D01*
X-119Y31523D01*
X-122Y31520D01*
X-125Y31516D01*
X-128Y31511D01*
X-158Y31438D01*
X-248Y31348D01*
X-366Y31299D01*
X-1014Y31299D01*
X-1132Y31348D01*
X-1159Y31376D01*
X-1162Y31377D01*
X-1164Y31379D01*
X-1166Y31380D01*
X-1167Y31381D01*
X-1170Y31382D01*
X-1173Y31383D01*
X-1174Y31383D01*
X-1176Y31384D01*
X-1179Y31384D01*
X-1182Y31384D01*
X-1184Y31384D01*
X-1186Y31384D01*
X-1189Y31383D01*
X-1191Y31382D01*
X-1193Y31381D01*
X-1195Y31380D01*
X-1197Y31378D01*
X-1199Y31377D01*
X-1201Y31375D01*
X-1202Y31374D01*
X-1204Y31372D01*
X-1205Y31369D01*
X-1206Y31368D01*
X-1207Y31366D01*
X-1208Y31363D01*
X-1209Y31360D01*
X-1209Y31357D01*
X-1209Y31356D01*
X-1209Y31355D01*
X-1209Y30885D01*
X-1209Y30882D01*
X-1209Y30879D01*
X-1208Y30877D01*
X-1208Y30876D01*
X-1206Y30873D01*
X-1205Y30870D01*
X-1204Y30869D01*
X-1203Y30867D01*
X-1201Y30865D01*
X-1199Y30863D01*
X-1198Y30862D01*
X-1196Y30861D01*
X-1193Y30859D01*
X-1191Y30858D01*
X-1189Y30857D01*
X-1187Y30857D01*
X-1185Y30856D01*
X-1182Y30856D01*
X-1180Y30856D01*
X-1178Y30856D01*
X-1175Y30856D01*
X-1172Y30857D01*
X-1170Y30858D01*
X-1169Y30858D01*
X-1166Y30860D01*
X-1163Y30861D01*
X-1161Y30863D01*
X-1160Y30864D01*
X-1159Y30864D01*
X-1132Y30892D01*
X-1014Y30941D01*
X-366Y30941D01*
X-248Y30892D01*
X-158Y30802D01*
X-109Y30684D01*
X-109Y30556D01*
X-158Y30438D01*
X-248Y30348D01*
X-366Y30299D01*
X-1014Y30299D01*
X-1132Y30348D01*
X-1159Y30376D01*
X-1162Y30377D01*
X-1164Y30379D01*
X-1166Y30380D01*
X-1167Y30381D01*
X-1170Y30382D01*
X-1173Y30383D01*
X-1174Y30383D01*
X-1176Y30384D01*
X-1179Y30384D01*
X-1182Y30384D01*
X-1184Y30384D01*
X-1186Y30384D01*
X-1189Y30383D01*
X-1191Y30382D01*
X-1193Y30381D01*
X-1195Y30380D01*
X-1197Y30378D01*
X-1199Y30377D01*
X-1201Y30375D01*
X-1202Y30374D01*
X-1204Y30372D01*
X-1205Y30369D01*
X-1206Y30368D01*
X-1207Y30366D01*
X-1208Y30363D01*
X-1209Y30360D01*
X-1209Y30357D01*
X-1209Y30356D01*
X-1209Y30355D01*
X-1209Y29885D01*
X-1209Y29882D01*
X-1209Y29879D01*
X-1208Y29877D01*
X-1208Y29876D01*
X-1206Y29873D01*
X-1205Y29870D01*
X-1204Y29869D01*
X-1203Y29867D01*
X-1201Y29865D01*
X-1199Y29863D01*
X-1198Y29862D01*
X-1196Y29861D01*
X-1193Y29859D01*
X-1191Y29858D01*
X-1189Y29857D01*
X-1187Y29857D01*
X-1185Y29856D01*
X-1182Y29856D01*
X-1180Y29856D01*
X-1178Y29856D01*
X-1175Y29856D01*
X-1172Y29857D01*
X-1170Y29858D01*
X-1169Y29858D01*
X-1166Y29860D01*
X-1163Y29861D01*
X-1161Y29863D01*
X-1160Y29864D01*
X-1159Y29864D01*
X-1132Y29892D01*
X-1014Y29941D01*
X-366Y29941D01*
X-248Y29892D01*
X-158Y29802D01*
X-109Y29684D01*
X-109Y29556D01*
X-158Y29438D01*
X-248Y29348D01*
X-366Y29299D01*
X-925Y29299D01*
X-928Y29299D01*
X-931Y29299D01*
X-933Y29298D01*
X-935Y29298D01*
X-937Y29296D01*
X-940Y29295D01*
X-941Y29294D01*
X-943Y29293D01*
X-945Y29291D01*
X-947Y29289D01*
X-948Y29288D01*
X-950Y29286D01*
X-951Y29283D01*
X-952Y29281D01*
X-953Y29279D01*
X-954Y29277D01*
X-954Y29275D01*
X-954Y29272D01*
X-954Y29270D01*
X-954Y29268D01*
X-954Y29265D01*
X-953Y29262D01*
X-953Y29260D01*
X-952Y29259D01*
X-951Y29256D01*
X-949Y29253D01*
X-948Y29251D01*
X-947Y29251D01*
X-947Y29250D01*
X-946Y29249D01*
X-646Y28949D01*
X-643Y28947D01*
X-640Y28945D01*
X-639Y28944D01*
X-638Y28944D01*
X-634Y28943D01*
X-631Y28941D01*
X-630Y28941D01*
X-629Y28941D01*
X-628Y28941D01*
X-625Y28941D01*
X-366Y28941D01*
X-248Y28892D01*
X-158Y28802D01*
X-109Y28684D01*
X-109Y28556D01*
X-158Y28438D01*
X-248Y28348D01*
X-366Y28299D01*
X-1014Y28299D01*
X-1132Y28348D01*
X-1222Y28438D01*
X-1271Y28556D01*
X-1271Y28684D01*
X-1222Y28802D01*
X-1132Y28892D01*
X-1014Y28941D01*
X-965Y28941D01*
X-962Y28941D01*
X-959Y28941D01*
X-957Y28942D01*
X-955Y28942D01*
X-953Y28944D01*
X-950Y28945D01*
X-948Y28946D01*
X-947Y28947D01*
X-945Y28949D01*
X-943Y28951D01*
X-942Y28952D01*
X-940Y28954D01*
X-939Y28957D01*
X-938Y28959D01*
X-937Y28961D01*
X-936Y28963D01*
X-936Y28965D01*
X-935Y28968D01*
X-936Y28970D01*
X-936Y28972D01*
X-936Y28975D01*
X-937Y28978D01*
X-937Y28980D01*
X-938Y28981D01*
X-939Y28984D01*
X-941Y28987D01*
X-942Y28989D01*
X-943Y28989D01*
X-943Y28990D01*
X-944Y28991D01*
X-1329Y29376D01*
X-1391Y29437D01*
X-1391Y31803D01*
X-1133Y32061D01*
X3420Y32061D01*
X3424Y32061D01*
X3428Y32062D01*
X3429Y32062D01*
X3430Y32062D01*
X3433Y32064D01*
X3437Y32066D01*
X3438Y32067D01*
X3439Y32067D01*
X3441Y32069D01*
X4462Y33091D01*
X9950Y33091D01*
X9954Y33091D01*
X9958Y33092D01*
X9959Y33092D01*
X9960Y33092D01*
X9963Y33094D01*
X9967Y33096D01*
X9968Y33097D01*
X9969Y33097D01*
X9971Y33099D01*
X10962Y34091D01*
X12038Y34091D01*
X12099Y34029D01*
X12788Y33340D01*
X12789Y33339D01*
X12790Y33339D01*
X12793Y33337D01*
X12796Y33334D01*
X12797Y33334D01*
X12798Y33334D01*
X12802Y33333D01*
X12805Y33332D01*
X12806Y33332D01*
X12807Y33331D01*
X12811Y33332D01*
X12815Y33332D01*
X12816Y33332D01*
X12817Y33332D01*
X12820Y33334D01*
X12824Y33335D01*
X12825Y33336D01*
X12826Y33336D01*
X12830Y33340D01*
X12851Y33361D01*
X13149Y33361D01*
X13361Y33149D01*
X13361Y32851D01*
X13149Y32639D01*
X12851Y32639D01*
X12641Y32849D01*
X12638Y32851D01*
X12636Y32853D01*
X12634Y32854D01*
X12633Y32855D01*
X12630Y32856D01*
X12627Y32857D01*
X12626Y32857D01*
X12624Y32857D01*
X12621Y32857D01*
X12618Y32858D01*
X12616Y32857D01*
X12614Y32857D01*
X12611Y32856D01*
X12609Y32855D01*
X12607Y32854D01*
X12605Y32854D01*
X12603Y32852D01*
X12601Y32850D01*
X12599Y32849D01*
X12598Y32848D01*
X12596Y32845D01*
X12595Y32843D01*
X12594Y32841D01*
X12593Y32839D01*
X12592Y32837D01*
X12591Y32834D01*
X12591Y32831D01*
X12591Y32830D01*
X12591Y32828D01*
X12591Y32550D01*
X12591Y32546D01*
X12592Y32542D01*
X12592Y32541D01*
X12592Y32540D01*
X12594Y32537D01*
X12596Y32533D01*
X12597Y32532D01*
X12597Y32531D01*
X12599Y32529D01*
X12788Y32340D01*
X12789Y32339D01*
X12790Y32339D01*
X12793Y32337D01*
X12796Y32334D01*
X12797Y32334D01*
X12798Y32334D01*
X12802Y32333D01*
X12805Y32332D01*
X12806Y32332D01*
X12807Y32331D01*
X12811Y32332D01*
X12815Y32332D01*
X12816Y32332D01*
X12817Y32332D01*
X12820Y32334D01*
X12824Y32335D01*
X12825Y32336D01*
X12826Y32336D01*
X12830Y32340D01*
X12851Y32361D01*
X13149Y32361D01*
X13361Y32149D01*
X13361Y31851D01*
X13340Y31830D01*
X13339Y31829D01*
X13339Y31828D01*
X13337Y31825D01*
X13334Y31822D01*
X13334Y31821D01*
X13334Y31820D01*
X13333Y31816D01*
X13332Y31813D01*
X13332Y31812D01*
X13331Y31811D01*
X13332Y31807D01*
X13332Y31803D01*
X13332Y31802D01*
X13332Y31801D01*
X13334Y31798D01*
X13335Y31794D01*
X13336Y31794D01*
X13336Y31793D01*
X13340Y31788D01*
X13591Y31538D01*
X13591Y26777D01*
X13589Y26776D01*
X13223Y26409D01*
X12550Y26409D01*
X12546Y26409D01*
X12542Y26408D01*
X12541Y26408D01*
X12540Y26408D01*
X12537Y26406D01*
X12533Y26404D01*
X12532Y26403D01*
X12531Y26403D01*
X12529Y26401D01*
X12369Y26241D01*
X12367Y26238D01*
X12365Y26235D01*
X12364Y26234D01*
X12364Y26233D01*
X12363Y26229D01*
X12362Y26229D01*
X12362Y26227D01*
X12361Y26226D01*
X12361Y26225D01*
X12361Y26224D01*
X12361Y26223D01*
X12361Y26220D01*
X12361Y26215D01*
X12361Y26212D01*
X12361Y26209D01*
X12362Y26207D01*
X12362Y26206D01*
X12364Y26203D01*
X12365Y26200D01*
X12366Y26199D01*
X12367Y26197D01*
X12369Y26195D01*
X12371Y26193D01*
X12372Y26192D01*
X12374Y26191D01*
X12377Y26189D01*
X12379Y26188D01*
X12381Y26187D01*
X12383Y26187D01*
X12385Y26186D01*
X12388Y26186D01*
X12390Y26186D01*
X12392Y26186D01*
X12395Y26186D01*
X12398Y26187D01*
X12400Y26188D01*
X12401Y26188D01*
X12404Y26190D01*
X12407Y26191D01*
X12409Y26193D01*
X12410Y26194D01*
X12411Y26194D01*
X12438Y26222D01*
X12556Y26271D01*
X13204Y26271D01*
X13322Y26222D01*
X13412Y26132D01*
X13442Y26059D01*
X13445Y26055D01*
X13447Y26051D01*
X13451Y26048D01*
X13455Y26045D01*
X13459Y26043D01*
X13464Y26041D01*
X13469Y26041D01*
X13588Y26041D01*
X13872Y25756D01*
X13875Y25754D01*
X13878Y25751D01*
X13879Y25751D01*
X13880Y25751D01*
X13884Y25749D01*
X13887Y25748D01*
X13888Y25748D01*
X13889Y25748D01*
X13893Y25748D01*
X13897Y25748D01*
X13898Y25748D01*
X13899Y25748D01*
X13902Y25750D01*
X13906Y25751D01*
X13907Y25751D01*
X13908Y25752D01*
X13911Y25754D01*
X13914Y25756D01*
X13914Y25757D01*
X13915Y25758D01*
X13917Y25761D01*
X13919Y25764D01*
X13920Y25765D01*
X13920Y25766D01*
X13921Y25770D01*
X13922Y25773D01*
X13922Y25774D01*
X13922Y25775D01*
X13922Y25779D01*
X13922Y25783D01*
X13921Y25784D01*
X13921Y25785D01*
X13920Y25788D01*
X13879Y25886D01*
X13879Y26014D01*
X13928Y26132D01*
X14018Y26222D01*
X14136Y26271D01*
X14784Y26271D01*
X14902Y26222D01*
X14992Y26132D01*
X15041Y26014D01*
X15041Y25886D01*
X14992Y25768D01*
X14902Y25678D01*
X14784Y25629D01*
X14735Y25629D01*
X14732Y25629D01*
X14729Y25629D01*
X14727Y25628D01*
X14725Y25628D01*
X14723Y25626D01*
X14720Y25625D01*
X14718Y25624D01*
X14717Y25623D01*
X14715Y25621D01*
X14713Y25619D01*
X14712Y25618D01*
X14710Y25616D01*
X14709Y25613D01*
X14708Y25611D01*
X14707Y25609D01*
X14706Y25607D01*
X14706Y25605D01*
X14705Y25602D01*
X14706Y25600D01*
X14706Y25598D01*
X14706Y25595D01*
X14707Y25592D01*
X14707Y25590D01*
X14708Y25589D01*
X14709Y25586D01*
X14711Y25583D01*
X14712Y25581D01*
X14713Y25581D01*
X14713Y25580D01*
X14714Y25579D01*
X14764Y25529D01*
X15161Y25133D01*
X15161Y18032D01*
X14099Y16971D01*
X14097Y16968D01*
X14095Y16965D01*
X14094Y16964D01*
X14094Y16963D01*
X14093Y16959D01*
X14091Y16956D01*
X14091Y16955D01*
X14091Y16954D01*
X14091Y16953D01*
X14091Y16950D01*
X14091Y9462D01*
X12692Y8063D01*
X12691Y8062D01*
X12690Y8062D01*
X12688Y8059D01*
X12686Y8056D01*
X12686Y8055D01*
X12685Y8054D01*
X12684Y8050D01*
X12683Y8046D01*
X12683Y8045D01*
X12683Y8044D01*
X12684Y8041D01*
X12684Y8037D01*
X12684Y8036D01*
X12684Y8035D01*
X12686Y8031D01*
X12687Y8028D01*
X12688Y8027D01*
X12688Y8026D01*
X12692Y8022D01*
X12772Y7942D01*
X12821Y7824D01*
X12821Y7176D01*
X12772Y7058D01*
X12682Y6968D01*
X12564Y6919D01*
X12436Y6919D01*
X12318Y6968D01*
X12228Y7058D01*
X12179Y7176D01*
X12179Y7824D01*
X12228Y7942D01*
X12318Y8032D01*
X12436Y8081D01*
X12440Y8081D01*
X12444Y8081D01*
X12448Y8082D01*
X12449Y8082D01*
X12450Y8082D01*
X12453Y8084D01*
X12457Y8086D01*
X12458Y8087D01*
X12459Y8087D01*
X12461Y8089D01*
X13901Y9529D01*
X13903Y9532D01*
X13905Y9535D01*
X13906Y9536D01*
X13906Y9537D01*
X13907Y9541D01*
X13909Y9544D01*
X13909Y9545D01*
X13909Y9546D01*
X13909Y9547D01*
X13909Y9550D01*
X13909Y17038D01*
X14971Y18099D01*
X14973Y18102D01*
X14975Y18105D01*
X14976Y18106D01*
X14976Y18107D01*
X14977Y18111D01*
X14979Y18114D01*
X14979Y18115D01*
X14979Y18116D01*
X14979Y18117D01*
X14979Y18120D01*
X14979Y18685D01*
X14979Y18688D01*
X14979Y18691D01*
X14978Y18693D01*
X14978Y18694D01*
X14976Y18697D01*
X14975Y18700D01*
X14974Y18701D01*
X14973Y18703D01*
X14971Y18705D01*
X14969Y18707D01*
X14968Y18708D01*
X14966Y18709D01*
X14963Y18711D01*
X14961Y18712D01*
X14959Y18713D01*
X14957Y18713D01*
X14955Y18714D01*
X14952Y18714D01*
X14950Y18714D01*
X14948Y18714D01*
X14945Y18714D01*
X14942Y18713D01*
X14940Y18712D01*
X14939Y18712D01*
X14936Y18710D01*
X14933Y18709D01*
X14931Y18707D01*
X14930Y18706D01*
X14929Y18706D01*
X14902Y18678D01*
X14784Y18629D01*
X14136Y18629D01*
X14018Y18678D01*
X13928Y18768D01*
X13879Y18886D01*
X13879Y19014D01*
X13928Y19132D01*
X14018Y19222D01*
X14136Y19271D01*
X14784Y19271D01*
X14902Y19222D01*
X14929Y19194D01*
X14932Y19193D01*
X14934Y19191D01*
X14936Y19190D01*
X14937Y19189D01*
X14940Y19188D01*
X14943Y19187D01*
X14944Y19187D01*
X14946Y19186D01*
X14949Y19186D01*
X14952Y19186D01*
X14954Y19186D01*
X14956Y19186D01*
X14959Y19187D01*
X14961Y19188D01*
X14963Y19189D01*
X14965Y19190D01*
X14967Y19192D01*
X14969Y19193D01*
X14971Y19195D01*
X14972Y19196D01*
X14974Y19198D01*
X14975Y19201D01*
X14976Y19202D01*
X14977Y19204D01*
X14978Y19207D01*
X14979Y19210D01*
X14979Y19213D01*
X14979Y19214D01*
X14979Y19215D01*
X14979Y19685D01*
X14979Y19688D01*
X14979Y19691D01*
X14978Y19693D01*
X14978Y19694D01*
X14976Y19697D01*
X14975Y19700D01*
X14974Y19701D01*
X14973Y19703D01*
X14971Y19705D01*
X14969Y19707D01*
X14968Y19708D01*
X14966Y19709D01*
X14963Y19711D01*
X14961Y19712D01*
X14959Y19713D01*
X14957Y19713D01*
X14955Y19714D01*
X14952Y19714D01*
X14950Y19714D01*
X14948Y19714D01*
X14945Y19714D01*
X14942Y19713D01*
X14940Y19712D01*
X14939Y19712D01*
X14936Y19710D01*
X14933Y19709D01*
X14931Y19707D01*
X14930Y19706D01*
X14929Y19706D01*
X14902Y19678D01*
X14784Y19629D01*
X14136Y19629D01*
X14018Y19678D01*
X13928Y19768D01*
X13879Y19886D01*
X13879Y20014D01*
X13928Y20132D01*
X14018Y20222D01*
X14136Y20271D01*
X14784Y20271D01*
X14902Y20222D01*
X14929Y20194D01*
X14932Y20193D01*
X14934Y20191D01*
X14936Y20190D01*
X14937Y20189D01*
X14940Y20188D01*
X14943Y20187D01*
X14944Y20187D01*
X14946Y20186D01*
X14949Y20186D01*
X14952Y20186D01*
X14954Y20186D01*
X14956Y20186D01*
X14959Y20187D01*
X14961Y20188D01*
X14963Y20189D01*
X14965Y20190D01*
X14967Y20192D01*
X14969Y20193D01*
X14971Y20195D01*
X14972Y20196D01*
X14974Y20198D01*
X14975Y20201D01*
X14976Y20202D01*
X14977Y20204D01*
X14978Y20207D01*
X14979Y20210D01*
X14979Y20213D01*
X14979Y20214D01*
X14979Y20215D01*
X14979Y20685D01*
X14979Y20688D01*
X14979Y20691D01*
X14978Y20693D01*
X14978Y20694D01*
X14976Y20697D01*
X14975Y20700D01*
X14974Y20701D01*
X14973Y20703D01*
X14971Y20705D01*
X14969Y20707D01*
X14968Y20708D01*
X14966Y20709D01*
X14963Y20711D01*
X14961Y20712D01*
X14959Y20713D01*
X14957Y20713D01*
X14955Y20714D01*
X14952Y20714D01*
X14950Y20714D01*
X14948Y20714D01*
X14945Y20714D01*
X14942Y20713D01*
X14940Y20712D01*
X14939Y20712D01*
X14936Y20710D01*
X14933Y20709D01*
X14931Y20707D01*
X14930Y20706D01*
X14929Y20706D01*
X14902Y20678D01*
X14784Y20629D01*
X14136Y20629D01*
X14018Y20678D01*
X13953Y20743D01*
X13952Y20744D01*
X13952Y20745D01*
X13948Y20747D01*
X13945Y20749D01*
X13944Y20749D01*
X13943Y20750D01*
X13940Y20751D01*
X13936Y20752D01*
X13935Y20752D01*
X13934Y20752D01*
X13930Y20751D01*
X13927Y20751D01*
X13926Y20751D01*
X13925Y20751D01*
X13921Y20749D01*
X13918Y20748D01*
X13917Y20747D01*
X13916Y20747D01*
X13912Y20743D01*
X13312Y20143D01*
X13311Y20142D01*
X13310Y20142D01*
X13308Y20139D01*
X13306Y20136D01*
X13306Y20135D01*
X13305Y20134D01*
X13304Y20130D01*
X13303Y20126D01*
X13303Y20125D01*
X13303Y20124D01*
X13304Y20121D01*
X13304Y20117D01*
X13304Y20116D01*
X13304Y20115D01*
X13306Y20111D01*
X13307Y20108D01*
X13308Y20107D01*
X13308Y20106D01*
X13312Y20102D01*
X13321Y20093D01*
X13321Y19827D01*
X13133Y19639D01*
X12867Y19639D01*
X12791Y19716D01*
X12788Y19717D01*
X12786Y19719D01*
X12784Y19720D01*
X12783Y19721D01*
X12780Y19722D01*
X12777Y19723D01*
X12776Y19723D01*
X12774Y19724D01*
X12771Y19724D01*
X12768Y19724D01*
X12766Y19724D01*
X12764Y19724D01*
X12761Y19723D01*
X12759Y19722D01*
X12757Y19721D01*
X12755Y19720D01*
X12753Y19718D01*
X12751Y19717D01*
X12749Y19715D01*
X12748Y19714D01*
X12746Y19712D01*
X12745Y19709D01*
X12744Y19708D01*
X12743Y19706D01*
X12742Y19703D01*
X12741Y19700D01*
X12741Y19697D01*
X12741Y19696D01*
X12741Y19695D01*
X12741Y18900D01*
X12741Y18896D01*
X12742Y18892D01*
X12742Y18891D01*
X12742Y18890D01*
X12744Y18887D01*
X12746Y18883D01*
X12747Y18882D01*
X12747Y18881D01*
X12749Y18879D01*
X13441Y18188D01*
X13441Y16777D01*
X12829Y16166D01*
X12827Y16163D01*
X12825Y16160D01*
X12824Y16159D01*
X12824Y16158D01*
X12823Y16154D01*
X12821Y16151D01*
X12821Y16150D01*
X12821Y16149D01*
X12821Y16148D01*
X12821Y16145D01*
X12821Y15656D01*
X12772Y15538D01*
X12682Y15448D01*
X12564Y15399D01*
X12436Y15399D01*
X12318Y15448D01*
X12291Y15476D01*
X12288Y15477D01*
X12286Y15479D01*
X12284Y15480D01*
X12283Y15481D01*
X12280Y15482D01*
X12277Y15483D01*
X12276Y15483D01*
X12274Y15484D01*
X12271Y15484D01*
X12268Y15484D01*
X12266Y15484D01*
X12264Y15484D01*
X12261Y15483D01*
X12259Y15482D01*
X12257Y15481D01*
X12255Y15480D01*
X12253Y15478D01*
X12251Y15477D01*
X12249Y15475D01*
X12248Y15474D01*
X12246Y15472D01*
X12245Y15469D01*
X12244Y15468D01*
X12243Y15466D01*
X12242Y15463D01*
X12241Y15460D01*
X12241Y15457D01*
X12241Y15456D01*
X12241Y15455D01*
X12241Y15200D01*
X12241Y15196D01*
X12242Y15192D01*
X12242Y15191D01*
X12242Y15190D01*
X12244Y15187D01*
X12246Y15183D01*
X12247Y15182D01*
X12247Y15181D01*
X12249Y15179D01*
X13091Y14338D01*
X13091Y8962D01*
X12099Y7971D01*
X12097Y7968D01*
X12095Y7965D01*
X12094Y7964D01*
X12094Y7963D01*
X12093Y7959D01*
X12091Y7956D01*
X12091Y7955D01*
X12091Y7954D01*
X12091Y7953D01*
X12091Y7950D01*
X12091Y7207D01*
X11599Y6716D01*
X11597Y6713D01*
X11595Y6710D01*
X11594Y6709D01*
X11594Y6708D01*
X11593Y6704D01*
X11591Y6701D01*
X11591Y6700D01*
X11591Y6699D01*
X11591Y6698D01*
X11591Y6695D01*
X11591Y2089D01*
X11592Y2084D01*
X11592Y2080D01*
X11592Y2079D01*
X11593Y2078D01*
X11594Y2077D01*
X11595Y2075D01*
X11597Y2071D01*
X11598Y2070D01*
X11599Y2070D01*
X11600Y2068D01*
X11604Y2065D01*
X11606Y2064D01*
X11607Y2063D01*
X11609Y2062D01*
X11682Y2032D01*
X11772Y1942D01*
X11821Y1824D01*
X11821Y1265D01*
X11821Y1262D01*
X11821Y1259D01*
X11822Y1257D01*
X11822Y1255D01*
X11824Y1253D01*
X11825Y1250D01*
X11826Y1249D01*
X11827Y1247D01*
X11829Y1245D01*
X11831Y1243D01*
X11832Y1242D01*
X11834Y1240D01*
X11837Y1239D01*
X11839Y1238D01*
X11841Y1237D01*
X11843Y1236D01*
X11845Y1236D01*
X11848Y1236D01*
X11850Y1236D01*
X11852Y1236D01*
X11855Y1236D01*
X11858Y1237D01*
X11860Y1237D01*
X11861Y1238D01*
X11864Y1239D01*
X11867Y1241D01*
X11869Y1242D01*
X11869Y1243D01*
X11870Y1243D01*
X11871Y1244D01*
X12156Y1529D01*
X12171Y1544D01*
X12173Y1547D01*
X12175Y1550D01*
X12176Y1551D01*
X12176Y1552D01*
X12177Y1556D01*
X12179Y1559D01*
X12179Y1560D01*
X12179Y1561D01*
X12179Y1562D01*
X12179Y1565D01*
X12179Y1824D01*
X12228Y1942D01*
X12318Y2032D01*
X12436Y2081D01*
X12564Y2081D01*
X12682Y2032D01*
X12772Y1942D01*
X12821Y1824D01*
X12821Y1176D01*
X12772Y1058D01*
X12682Y968D01*
X12564Y919D01*
X12436Y919D01*
X12318Y968D01*
X12228Y1058D01*
X12179Y1176D01*
X12179Y1225D01*
X12179Y1228D01*
X12179Y1231D01*
X12178Y1233D01*
X12178Y1235D01*
X12176Y1237D01*
X12175Y1240D01*
X12174Y1242D01*
X12173Y1243D01*
X12171Y1245D01*
X12169Y1247D01*
X12168Y1248D01*
X12166Y1250D01*
X12163Y1251D01*
X12161Y1252D01*
X12159Y1253D01*
X12157Y1254D01*
X12155Y1254D01*
X12152Y1255D01*
X12150Y1254D01*
X12148Y1254D01*
X12145Y1254D01*
X12142Y1253D01*
X12140Y1253D01*
X12139Y1252D01*
X12136Y1251D01*
X12133Y1249D01*
X12131Y1248D01*
X12131Y1247D01*
X12130Y1247D01*
X12129Y1246D01*
X11744Y861D01*
X11683Y799D01*
X10317Y799D01*
G37*
%LPD*%
%LPC*%
G36*
X23851Y4639D02*
X23851Y4639D01*
X23639Y4851D01*
X23639Y5149D01*
X23849Y5359D01*
X23851Y5362D01*
X23853Y5364D01*
X23854Y5366D01*
X23855Y5367D01*
X23856Y5370D01*
X23857Y5373D01*
X23857Y5374D01*
X23857Y5376D01*
X23857Y5379D01*
X23858Y5382D01*
X23857Y5384D01*
X23857Y5386D01*
X23856Y5389D01*
X23855Y5391D01*
X23854Y5393D01*
X23854Y5395D01*
X23852Y5397D01*
X23850Y5399D01*
X23849Y5401D01*
X23848Y5402D01*
X23845Y5404D01*
X23843Y5405D01*
X23841Y5406D01*
X23839Y5407D01*
X23837Y5408D01*
X23834Y5409D01*
X23831Y5409D01*
X23830Y5409D01*
X23828Y5409D01*
X20462Y5409D01*
X18813Y7058D01*
X18812Y7059D01*
X18812Y7060D01*
X18809Y7062D01*
X18806Y7064D01*
X18805Y7064D01*
X18804Y7065D01*
X18800Y7066D01*
X18796Y7067D01*
X18795Y7067D01*
X18794Y7067D01*
X18791Y7066D01*
X18787Y7066D01*
X18786Y7066D01*
X18785Y7066D01*
X18781Y7064D01*
X18778Y7063D01*
X18777Y7062D01*
X18776Y7062D01*
X18772Y7058D01*
X18682Y6968D01*
X18564Y6919D01*
X18436Y6919D01*
X18318Y6968D01*
X18228Y7058D01*
X18179Y7176D01*
X18179Y7824D01*
X18228Y7942D01*
X18256Y7969D01*
X18257Y7972D01*
X18259Y7974D01*
X18260Y7976D01*
X18261Y7977D01*
X18262Y7980D01*
X18263Y7983D01*
X18263Y7984D01*
X18264Y7986D01*
X18264Y7989D01*
X18264Y7992D01*
X18264Y7994D01*
X18264Y7996D01*
X18263Y7999D01*
X18262Y8001D01*
X18261Y8003D01*
X18260Y8005D01*
X18258Y8007D01*
X18257Y8009D01*
X18255Y8011D01*
X18254Y8012D01*
X18252Y8014D01*
X18249Y8015D01*
X18248Y8016D01*
X18246Y8017D01*
X18243Y8018D01*
X18240Y8019D01*
X18237Y8019D01*
X18236Y8019D01*
X18235Y8019D01*
X18160Y8019D01*
X18156Y8019D01*
X18152Y8018D01*
X18151Y8018D01*
X18150Y8018D01*
X18147Y8016D01*
X18143Y8014D01*
X18142Y8013D01*
X18141Y8013D01*
X18139Y8011D01*
X17829Y7701D01*
X17827Y7698D01*
X17825Y7695D01*
X17824Y7694D01*
X17824Y7693D01*
X17823Y7689D01*
X17821Y7686D01*
X17821Y7685D01*
X17821Y7684D01*
X17821Y7683D01*
X17821Y7680D01*
X17821Y7176D01*
X17772Y7058D01*
X17682Y6968D01*
X17564Y6919D01*
X17436Y6919D01*
X17318Y6968D01*
X17228Y7058D01*
X17179Y7176D01*
X17179Y7824D01*
X17228Y7942D01*
X17318Y8032D01*
X17436Y8081D01*
X17564Y8081D01*
X17682Y8032D01*
X17772Y7942D01*
X17773Y7941D01*
X17773Y7940D01*
X17777Y7938D01*
X17780Y7936D01*
X17781Y7936D01*
X17782Y7935D01*
X17785Y7934D01*
X17789Y7933D01*
X17790Y7933D01*
X17791Y7933D01*
X17795Y7934D01*
X17798Y7934D01*
X17799Y7934D01*
X17800Y7934D01*
X17804Y7936D01*
X17807Y7937D01*
X17808Y7938D01*
X17809Y7938D01*
X17813Y7942D01*
X17981Y8109D01*
X17983Y8112D01*
X17985Y8114D01*
X17985Y8116D01*
X17987Y8117D01*
X17987Y8120D01*
X17989Y8123D01*
X17989Y8124D01*
X17989Y8126D01*
X17989Y8129D01*
X17989Y8132D01*
X17989Y8134D01*
X17989Y8136D01*
X17988Y8139D01*
X17987Y8141D01*
X17986Y8143D01*
X17986Y8145D01*
X17984Y8147D01*
X17982Y8149D01*
X17981Y8151D01*
X17979Y8152D01*
X17977Y8154D01*
X17975Y8155D01*
X17973Y8156D01*
X17971Y8157D01*
X17968Y8158D01*
X17966Y8159D01*
X17963Y8159D01*
X17962Y8159D01*
X17961Y8159D01*
X17960Y8159D01*
X17300Y8159D01*
X17296Y8159D01*
X17292Y8158D01*
X17291Y8158D01*
X17290Y8158D01*
X17287Y8156D01*
X17283Y8154D01*
X17282Y8153D01*
X17281Y8153D01*
X17279Y8151D01*
X16829Y7701D01*
X16827Y7698D01*
X16825Y7695D01*
X16824Y7694D01*
X16824Y7693D01*
X16823Y7689D01*
X16821Y7686D01*
X16821Y7685D01*
X16821Y7684D01*
X16821Y7683D01*
X16821Y7680D01*
X16821Y7176D01*
X16772Y7058D01*
X16682Y6968D01*
X16564Y6919D01*
X16436Y6919D01*
X16318Y6968D01*
X16228Y7058D01*
X16179Y7176D01*
X16179Y7824D01*
X16228Y7942D01*
X16318Y8032D01*
X16436Y8081D01*
X16564Y8081D01*
X16682Y8032D01*
X16772Y7942D01*
X16773Y7941D01*
X16773Y7940D01*
X16777Y7938D01*
X16780Y7936D01*
X16781Y7936D01*
X16782Y7935D01*
X16785Y7934D01*
X16789Y7933D01*
X16790Y7933D01*
X16791Y7933D01*
X16795Y7934D01*
X16798Y7934D01*
X16799Y7934D01*
X16800Y7934D01*
X16804Y7936D01*
X16807Y7937D01*
X16808Y7938D01*
X16809Y7938D01*
X16813Y7942D01*
X17151Y8279D01*
X17212Y8341D01*
X22736Y8341D01*
X23367Y7709D01*
X23371Y7707D01*
X23374Y7705D01*
X23375Y7704D01*
X23379Y7703D01*
X23383Y7701D01*
X23384Y7701D01*
X23385Y7701D01*
X23388Y7701D01*
X23718Y7701D01*
X23721Y7701D01*
X23724Y7701D01*
X23726Y7702D01*
X23728Y7702D01*
X23730Y7704D01*
X23733Y7705D01*
X23735Y7706D01*
X23736Y7707D01*
X23738Y7709D01*
X23741Y7711D01*
X23742Y7712D01*
X23743Y7714D01*
X23744Y7717D01*
X23746Y7719D01*
X23746Y7721D01*
X23747Y7723D01*
X23747Y7725D01*
X23748Y7728D01*
X23747Y7730D01*
X23748Y7732D01*
X23747Y7735D01*
X23747Y7738D01*
X23746Y7740D01*
X23745Y7741D01*
X23744Y7744D01*
X23743Y7747D01*
X23741Y7749D01*
X23740Y7749D01*
X23740Y7750D01*
X23739Y7751D01*
X23639Y7851D01*
X23639Y8149D01*
X23660Y8170D01*
X23661Y8171D01*
X23661Y8172D01*
X23663Y8175D01*
X23666Y8178D01*
X23666Y8179D01*
X23666Y8180D01*
X23667Y8184D01*
X23668Y8187D01*
X23668Y8188D01*
X23669Y8189D01*
X23668Y8193D01*
X23668Y8197D01*
X23668Y8198D01*
X23668Y8199D01*
X23666Y8202D01*
X23665Y8206D01*
X23664Y8206D01*
X23664Y8207D01*
X23660Y8212D01*
X23351Y8521D01*
X23348Y8523D01*
X23345Y8525D01*
X23344Y8526D01*
X23343Y8526D01*
X23339Y8527D01*
X23336Y8529D01*
X23335Y8529D01*
X23334Y8529D01*
X23333Y8529D01*
X23330Y8529D01*
X16670Y8529D01*
X16666Y8529D01*
X16662Y8528D01*
X16661Y8528D01*
X16660Y8528D01*
X16657Y8526D01*
X16653Y8524D01*
X16652Y8523D01*
X16651Y8523D01*
X16649Y8521D01*
X15829Y7701D01*
X15827Y7698D01*
X15825Y7695D01*
X15824Y7694D01*
X15824Y7693D01*
X15823Y7689D01*
X15821Y7686D01*
X15821Y7685D01*
X15821Y7684D01*
X15821Y7683D01*
X15821Y7680D01*
X15821Y7176D01*
X15772Y7058D01*
X15682Y6968D01*
X15564Y6919D01*
X15436Y6919D01*
X15318Y6968D01*
X15228Y7058D01*
X15179Y7176D01*
X15179Y7824D01*
X15228Y7942D01*
X15318Y8032D01*
X15436Y8081D01*
X15564Y8081D01*
X15682Y8032D01*
X15772Y7942D01*
X15773Y7941D01*
X15773Y7940D01*
X15777Y7938D01*
X15780Y7936D01*
X15781Y7936D01*
X15782Y7935D01*
X15785Y7934D01*
X15789Y7933D01*
X15790Y7933D01*
X15791Y7933D01*
X15795Y7934D01*
X15798Y7934D01*
X15799Y7934D01*
X15800Y7934D01*
X15804Y7936D01*
X15807Y7937D01*
X15808Y7938D01*
X15809Y7938D01*
X15813Y7942D01*
X16582Y8711D01*
X23418Y8711D01*
X23788Y8340D01*
X23789Y8339D01*
X23790Y8339D01*
X23793Y8337D01*
X23796Y8334D01*
X23797Y8334D01*
X23798Y8334D01*
X23802Y8333D01*
X23805Y8332D01*
X23806Y8332D01*
X23807Y8331D01*
X23811Y8332D01*
X23815Y8332D01*
X23816Y8332D01*
X23817Y8332D01*
X23820Y8334D01*
X23824Y8335D01*
X23825Y8336D01*
X23826Y8336D01*
X23830Y8340D01*
X23851Y8361D01*
X23889Y8361D01*
X23892Y8361D01*
X23895Y8361D01*
X23896Y8362D01*
X23898Y8362D01*
X23901Y8364D01*
X23904Y8365D01*
X23905Y8366D01*
X23907Y8367D01*
X23909Y8369D01*
X23911Y8371D01*
X23912Y8372D01*
X23913Y8374D01*
X23914Y8377D01*
X23916Y8379D01*
X23916Y8381D01*
X23917Y8383D01*
X23917Y8385D01*
X23918Y8388D01*
X23918Y8390D01*
X23918Y8392D01*
X23917Y8395D01*
X23917Y8398D01*
X23916Y8400D01*
X23916Y8401D01*
X23914Y8404D01*
X23913Y8407D01*
X23911Y8409D01*
X23910Y8410D01*
X23909Y8411D01*
X23419Y8901D01*
X23416Y8903D01*
X23413Y8905D01*
X23412Y8906D01*
X23408Y8907D01*
X23404Y8909D01*
X23403Y8909D01*
X23402Y8909D01*
X23399Y8909D01*
X16050Y8909D01*
X16046Y8909D01*
X16042Y8908D01*
X16041Y8908D01*
X16040Y8908D01*
X16037Y8906D01*
X16033Y8904D01*
X16032Y8903D01*
X16031Y8903D01*
X16029Y8901D01*
X14829Y7701D01*
X14827Y7698D01*
X14825Y7695D01*
X14824Y7694D01*
X14824Y7693D01*
X14823Y7689D01*
X14821Y7686D01*
X14821Y7685D01*
X14821Y7684D01*
X14821Y7683D01*
X14821Y7680D01*
X14821Y7176D01*
X14772Y7058D01*
X14682Y6968D01*
X14564Y6919D01*
X14436Y6919D01*
X14318Y6968D01*
X14228Y7058D01*
X14179Y7176D01*
X14179Y7824D01*
X14228Y7942D01*
X14318Y8032D01*
X14436Y8081D01*
X14564Y8081D01*
X14682Y8032D01*
X14772Y7942D01*
X14773Y7941D01*
X14773Y7940D01*
X14777Y7938D01*
X14780Y7936D01*
X14781Y7936D01*
X14782Y7935D01*
X14785Y7934D01*
X14789Y7933D01*
X14790Y7933D01*
X14791Y7933D01*
X14795Y7934D01*
X14798Y7934D01*
X14799Y7934D01*
X14800Y7934D01*
X14804Y7936D01*
X14807Y7937D01*
X14808Y7938D01*
X14809Y7938D01*
X14813Y7942D01*
X15901Y9029D01*
X15962Y9091D01*
X23486Y9091D01*
X23589Y8987D01*
X23592Y8986D01*
X23594Y8984D01*
X23596Y8983D01*
X23597Y8982D01*
X23600Y8981D01*
X23603Y8980D01*
X23604Y8980D01*
X23606Y8979D01*
X23609Y8979D01*
X23612Y8979D01*
X23614Y8979D01*
X23616Y8979D01*
X23619Y8981D01*
X23621Y8981D01*
X23623Y8982D01*
X23625Y8983D01*
X23627Y8985D01*
X23629Y8986D01*
X23631Y8988D01*
X23632Y8989D01*
X23634Y8992D01*
X23635Y8994D01*
X23636Y8996D01*
X23637Y8997D01*
X23638Y9000D01*
X23639Y9003D01*
X23639Y9006D01*
X23639Y9007D01*
X23639Y9008D01*
X23639Y9149D01*
X23660Y9170D01*
X23661Y9171D01*
X23661Y9172D01*
X23663Y9175D01*
X23666Y9178D01*
X23666Y9179D01*
X23666Y9180D01*
X23667Y9184D01*
X23668Y9187D01*
X23668Y9188D01*
X23669Y9189D01*
X23668Y9193D01*
X23668Y9197D01*
X23668Y9198D01*
X23668Y9199D01*
X23666Y9202D01*
X23665Y9206D01*
X23664Y9206D01*
X23664Y9207D01*
X23660Y9212D01*
X23601Y9271D01*
X23598Y9273D01*
X23595Y9275D01*
X23594Y9276D01*
X23593Y9276D01*
X23589Y9277D01*
X23586Y9279D01*
X23585Y9279D01*
X23584Y9279D01*
X23583Y9279D01*
X23580Y9279D01*
X15420Y9279D01*
X15416Y9279D01*
X15412Y9278D01*
X15411Y9278D01*
X15410Y9278D01*
X15407Y9276D01*
X15403Y9274D01*
X15402Y9273D01*
X15401Y9273D01*
X15399Y9271D01*
X13829Y7701D01*
X13827Y7698D01*
X13825Y7695D01*
X13824Y7694D01*
X13824Y7693D01*
X13823Y7689D01*
X13821Y7686D01*
X13821Y7685D01*
X13821Y7684D01*
X13821Y7683D01*
X13821Y7680D01*
X13821Y7176D01*
X13772Y7058D01*
X13682Y6968D01*
X13564Y6919D01*
X13436Y6919D01*
X13318Y6968D01*
X13228Y7058D01*
X13179Y7176D01*
X13179Y7824D01*
X13228Y7942D01*
X13318Y8032D01*
X13436Y8081D01*
X13564Y8081D01*
X13682Y8032D01*
X13772Y7942D01*
X13773Y7941D01*
X13773Y7940D01*
X13777Y7938D01*
X13780Y7936D01*
X13781Y7936D01*
X13782Y7935D01*
X13785Y7934D01*
X13789Y7933D01*
X13790Y7933D01*
X13791Y7933D01*
X13795Y7934D01*
X13798Y7934D01*
X13799Y7934D01*
X13800Y7934D01*
X13804Y7936D01*
X13807Y7937D01*
X13808Y7938D01*
X13809Y7938D01*
X13813Y7942D01*
X15271Y9399D01*
X15298Y9427D01*
X15299Y9428D01*
X15300Y9428D01*
X15302Y9431D01*
X15304Y9434D01*
X15304Y9435D01*
X15305Y9436D01*
X15306Y9440D01*
X15307Y9444D01*
X15307Y9445D01*
X15307Y9446D01*
X15306Y9449D01*
X15306Y9453D01*
X15306Y9454D01*
X15306Y9455D01*
X15304Y9459D01*
X15303Y9462D01*
X15302Y9463D01*
X15302Y9464D01*
X15298Y9468D01*
X15228Y9538D01*
X15179Y9656D01*
X15179Y10304D01*
X15228Y10422D01*
X15318Y10512D01*
X15436Y10561D01*
X15564Y10561D01*
X15682Y10512D01*
X15772Y10422D01*
X15821Y10304D01*
X15821Y9656D01*
X15772Y9538D01*
X15744Y9511D01*
X15743Y9508D01*
X15741Y9506D01*
X15740Y9504D01*
X15739Y9503D01*
X15738Y9500D01*
X15737Y9497D01*
X15737Y9496D01*
X15736Y9494D01*
X15736Y9491D01*
X15736Y9488D01*
X15736Y9486D01*
X15736Y9484D01*
X15737Y9481D01*
X15738Y9479D01*
X15739Y9477D01*
X15740Y9475D01*
X15742Y9473D01*
X15743Y9471D01*
X15745Y9469D01*
X15746Y9468D01*
X15748Y9466D01*
X15751Y9465D01*
X15752Y9464D01*
X15754Y9463D01*
X15757Y9462D01*
X15760Y9461D01*
X15763Y9461D01*
X15764Y9461D01*
X15765Y9461D01*
X16235Y9461D01*
X16238Y9461D01*
X16241Y9461D01*
X16243Y9462D01*
X16244Y9462D01*
X16247Y9464D01*
X16250Y9465D01*
X16251Y9466D01*
X16253Y9467D01*
X16255Y9469D01*
X16257Y9471D01*
X16258Y9472D01*
X16259Y9474D01*
X16261Y9477D01*
X16262Y9479D01*
X16263Y9481D01*
X16263Y9483D01*
X16264Y9485D01*
X16264Y9488D01*
X16264Y9490D01*
X16264Y9492D01*
X16264Y9495D01*
X16263Y9498D01*
X16262Y9500D01*
X16262Y9501D01*
X16260Y9504D01*
X16259Y9507D01*
X16257Y9509D01*
X16256Y9510D01*
X16256Y9511D01*
X16228Y9538D01*
X16179Y9656D01*
X16179Y10304D01*
X16228Y10422D01*
X16318Y10512D01*
X16436Y10561D01*
X16564Y10561D01*
X16682Y10512D01*
X16772Y10422D01*
X16821Y10304D01*
X16821Y9656D01*
X16772Y9538D01*
X16744Y9511D01*
X16743Y9508D01*
X16741Y9506D01*
X16740Y9504D01*
X16739Y9503D01*
X16738Y9500D01*
X16737Y9497D01*
X16737Y9496D01*
X16736Y9494D01*
X16736Y9491D01*
X16736Y9488D01*
X16736Y9486D01*
X16736Y9484D01*
X16737Y9481D01*
X16738Y9479D01*
X16739Y9477D01*
X16740Y9475D01*
X16742Y9473D01*
X16743Y9471D01*
X16745Y9469D01*
X16746Y9468D01*
X16748Y9466D01*
X16751Y9465D01*
X16752Y9464D01*
X16754Y9463D01*
X16757Y9462D01*
X16760Y9461D01*
X16763Y9461D01*
X16764Y9461D01*
X16765Y9461D01*
X17235Y9461D01*
X17238Y9461D01*
X17241Y9461D01*
X17243Y9462D01*
X17244Y9462D01*
X17247Y9464D01*
X17250Y9465D01*
X17251Y9466D01*
X17253Y9467D01*
X17255Y9469D01*
X17257Y9471D01*
X17258Y9472D01*
X17259Y9474D01*
X17261Y9477D01*
X17262Y9479D01*
X17263Y9481D01*
X17263Y9483D01*
X17264Y9485D01*
X17264Y9488D01*
X17264Y9490D01*
X17264Y9492D01*
X17264Y9495D01*
X17263Y9498D01*
X17262Y9500D01*
X17262Y9501D01*
X17260Y9504D01*
X17259Y9507D01*
X17257Y9509D01*
X17256Y9510D01*
X17256Y9511D01*
X17228Y9538D01*
X17179Y9656D01*
X17179Y10304D01*
X17228Y10422D01*
X17318Y10512D01*
X17436Y10561D01*
X17564Y10561D01*
X17682Y10512D01*
X17772Y10422D01*
X17821Y10304D01*
X17821Y9656D01*
X17772Y9538D01*
X17744Y9511D01*
X17743Y9508D01*
X17741Y9506D01*
X17740Y9504D01*
X17739Y9503D01*
X17738Y9500D01*
X17737Y9497D01*
X17737Y9496D01*
X17736Y9494D01*
X17736Y9491D01*
X17736Y9488D01*
X17736Y9486D01*
X17736Y9484D01*
X17737Y9481D01*
X17738Y9479D01*
X17739Y9477D01*
X17740Y9475D01*
X17742Y9473D01*
X17743Y9471D01*
X17745Y9469D01*
X17746Y9468D01*
X17748Y9466D01*
X17751Y9465D01*
X17752Y9464D01*
X17754Y9463D01*
X17757Y9462D01*
X17760Y9461D01*
X17763Y9461D01*
X17764Y9461D01*
X17765Y9461D01*
X18235Y9461D01*
X18238Y9461D01*
X18241Y9461D01*
X18243Y9462D01*
X18244Y9462D01*
X18247Y9464D01*
X18250Y9465D01*
X18251Y9466D01*
X18253Y9467D01*
X18255Y9469D01*
X18257Y9471D01*
X18258Y9472D01*
X18259Y9474D01*
X18261Y9477D01*
X18262Y9479D01*
X18263Y9481D01*
X18263Y9483D01*
X18264Y9485D01*
X18264Y9488D01*
X18264Y9490D01*
X18264Y9492D01*
X18264Y9495D01*
X18263Y9498D01*
X18262Y9500D01*
X18262Y9501D01*
X18260Y9504D01*
X18259Y9507D01*
X18257Y9509D01*
X18256Y9510D01*
X18256Y9511D01*
X18228Y9538D01*
X18179Y9656D01*
X18179Y10304D01*
X18228Y10422D01*
X18318Y10512D01*
X18436Y10561D01*
X18564Y10561D01*
X18682Y10512D01*
X18772Y10422D01*
X18821Y10304D01*
X18821Y9656D01*
X18772Y9538D01*
X18744Y9511D01*
X18743Y9508D01*
X18741Y9506D01*
X18740Y9504D01*
X18739Y9503D01*
X18738Y9500D01*
X18737Y9497D01*
X18737Y9496D01*
X18736Y9494D01*
X18736Y9491D01*
X18736Y9488D01*
X18736Y9486D01*
X18736Y9484D01*
X18737Y9481D01*
X18738Y9479D01*
X18739Y9477D01*
X18740Y9475D01*
X18742Y9473D01*
X18743Y9471D01*
X18745Y9469D01*
X18746Y9468D01*
X18748Y9466D01*
X18751Y9465D01*
X18752Y9464D01*
X18754Y9463D01*
X18757Y9462D01*
X18760Y9461D01*
X18763Y9461D01*
X18764Y9461D01*
X18765Y9461D01*
X19235Y9461D01*
X19238Y9461D01*
X19241Y9461D01*
X19243Y9462D01*
X19244Y9462D01*
X19247Y9464D01*
X19250Y9465D01*
X19251Y9466D01*
X19253Y9467D01*
X19255Y9469D01*
X19257Y9471D01*
X19258Y9472D01*
X19259Y9474D01*
X19261Y9477D01*
X19262Y9479D01*
X19263Y9481D01*
X19263Y9483D01*
X19264Y9485D01*
X19264Y9488D01*
X19264Y9490D01*
X19264Y9492D01*
X19264Y9495D01*
X19263Y9498D01*
X19262Y9500D01*
X19262Y9501D01*
X19260Y9504D01*
X19259Y9507D01*
X19257Y9509D01*
X19256Y9510D01*
X19256Y9511D01*
X19228Y9538D01*
X19179Y9656D01*
X19179Y10304D01*
X19228Y10422D01*
X19318Y10512D01*
X19436Y10561D01*
X19564Y10561D01*
X19682Y10512D01*
X19772Y10422D01*
X19821Y10304D01*
X19821Y9656D01*
X19772Y9538D01*
X19744Y9511D01*
X19743Y9508D01*
X19741Y9506D01*
X19740Y9504D01*
X19739Y9503D01*
X19738Y9500D01*
X19737Y9497D01*
X19737Y9496D01*
X19736Y9494D01*
X19736Y9491D01*
X19736Y9488D01*
X19736Y9486D01*
X19736Y9484D01*
X19737Y9481D01*
X19738Y9479D01*
X19739Y9477D01*
X19740Y9475D01*
X19742Y9473D01*
X19743Y9471D01*
X19745Y9469D01*
X19746Y9468D01*
X19748Y9466D01*
X19751Y9465D01*
X19752Y9464D01*
X19754Y9463D01*
X19757Y9462D01*
X19760Y9461D01*
X19763Y9461D01*
X19764Y9461D01*
X19765Y9461D01*
X20235Y9461D01*
X20238Y9461D01*
X20241Y9461D01*
X20243Y9462D01*
X20244Y9462D01*
X20247Y9464D01*
X20250Y9465D01*
X20251Y9466D01*
X20253Y9467D01*
X20255Y9469D01*
X20257Y9471D01*
X20258Y9472D01*
X20259Y9474D01*
X20261Y9477D01*
X20262Y9479D01*
X20263Y9481D01*
X20263Y9483D01*
X20264Y9485D01*
X20264Y9488D01*
X20264Y9490D01*
X20264Y9492D01*
X20264Y9495D01*
X20263Y9498D01*
X20262Y9500D01*
X20262Y9501D01*
X20260Y9504D01*
X20259Y9507D01*
X20257Y9509D01*
X20256Y9510D01*
X20256Y9511D01*
X20228Y9538D01*
X20179Y9656D01*
X20179Y10304D01*
X20228Y10422D01*
X20318Y10512D01*
X20436Y10561D01*
X20564Y10561D01*
X20682Y10512D01*
X20772Y10422D01*
X20821Y10304D01*
X20821Y9656D01*
X20772Y9538D01*
X20744Y9511D01*
X20743Y9508D01*
X20741Y9506D01*
X20740Y9504D01*
X20739Y9503D01*
X20738Y9500D01*
X20737Y9497D01*
X20737Y9496D01*
X20736Y9494D01*
X20736Y9491D01*
X20736Y9488D01*
X20736Y9486D01*
X20736Y9484D01*
X20737Y9481D01*
X20738Y9479D01*
X20739Y9477D01*
X20740Y9475D01*
X20742Y9473D01*
X20743Y9471D01*
X20745Y9469D01*
X20746Y9468D01*
X20748Y9466D01*
X20751Y9465D01*
X20752Y9464D01*
X20754Y9463D01*
X20757Y9462D01*
X20760Y9461D01*
X20763Y9461D01*
X20764Y9461D01*
X20765Y9461D01*
X21185Y9461D01*
X21189Y9462D01*
X21194Y9462D01*
X21198Y9465D01*
X21202Y9467D01*
X21203Y9467D01*
X21206Y9470D01*
X21209Y9474D01*
X21211Y9478D01*
X21213Y9483D01*
X21213Y9488D01*
X21214Y9492D01*
X21213Y9497D01*
X21212Y9501D01*
X21209Y9506D01*
X21180Y9549D01*
X21153Y9615D01*
X21139Y9684D01*
X21139Y9921D01*
X21470Y9921D01*
X21471Y9921D01*
X21472Y9921D01*
X21476Y9922D01*
X21479Y9922D01*
X21480Y9923D01*
X21481Y9923D01*
X21485Y9925D01*
X21488Y9927D01*
X21489Y9928D01*
X21492Y9931D01*
X21494Y9934D01*
X21495Y9935D01*
X21495Y9936D01*
X21497Y9939D01*
X21498Y9943D01*
X21498Y9944D01*
X21499Y9945D01*
X21499Y9950D01*
X21499Y9981D01*
X21501Y9981D01*
X21501Y9950D01*
X21501Y9949D01*
X21501Y9948D01*
X21502Y9944D01*
X21502Y9941D01*
X21503Y9940D01*
X21503Y9939D01*
X21505Y9935D01*
X21507Y9932D01*
X21508Y9931D01*
X21511Y9928D01*
X21514Y9926D01*
X21515Y9925D01*
X21516Y9925D01*
X21519Y9923D01*
X21523Y9922D01*
X21524Y9922D01*
X21525Y9921D01*
X21530Y9921D01*
X21861Y9921D01*
X21861Y9684D01*
X21847Y9615D01*
X21820Y9549D01*
X21810Y9535D01*
X21791Y9506D01*
X21789Y9502D01*
X21787Y9498D01*
X21787Y9497D01*
X21787Y9493D01*
X21786Y9488D01*
X21787Y9483D01*
X21788Y9479D01*
X21791Y9475D01*
X21793Y9471D01*
X21794Y9471D01*
X21797Y9468D01*
X21801Y9465D01*
X21805Y9463D01*
X21810Y9461D01*
X21815Y9461D01*
X23668Y9461D01*
X23729Y9399D01*
X23788Y9340D01*
X23789Y9339D01*
X23790Y9339D01*
X23793Y9337D01*
X23796Y9334D01*
X23797Y9334D01*
X23798Y9334D01*
X23802Y9333D01*
X23805Y9332D01*
X23806Y9332D01*
X23807Y9331D01*
X23811Y9332D01*
X23815Y9332D01*
X23816Y9332D01*
X23817Y9332D01*
X23820Y9334D01*
X23824Y9335D01*
X23825Y9336D01*
X23826Y9336D01*
X23830Y9340D01*
X23851Y9361D01*
X24149Y9361D01*
X24361Y9149D01*
X24361Y8851D01*
X24151Y8641D01*
X24149Y8638D01*
X24147Y8636D01*
X24146Y8634D01*
X24145Y8633D01*
X24144Y8630D01*
X24143Y8627D01*
X24143Y8626D01*
X24143Y8624D01*
X24143Y8621D01*
X24142Y8618D01*
X24143Y8616D01*
X24143Y8614D01*
X24144Y8611D01*
X24145Y8609D01*
X24146Y8607D01*
X24146Y8605D01*
X24148Y8603D01*
X24150Y8601D01*
X24151Y8599D01*
X24152Y8598D01*
X24155Y8596D01*
X24157Y8595D01*
X24159Y8594D01*
X24161Y8593D01*
X24163Y8592D01*
X24166Y8591D01*
X24169Y8591D01*
X24170Y8591D01*
X24172Y8591D01*
X24450Y8591D01*
X24454Y8591D01*
X24458Y8592D01*
X24459Y8592D01*
X24460Y8592D01*
X24463Y8594D01*
X24467Y8596D01*
X24468Y8597D01*
X24469Y8597D01*
X24471Y8599D01*
X24660Y8788D01*
X24661Y8789D01*
X24661Y8790D01*
X24663Y8793D01*
X24666Y8796D01*
X24666Y8797D01*
X24666Y8798D01*
X24667Y8802D01*
X24668Y8805D01*
X24668Y8806D01*
X24669Y8807D01*
X24668Y8811D01*
X24668Y8815D01*
X24668Y8816D01*
X24668Y8817D01*
X24666Y8820D01*
X24665Y8824D01*
X24664Y8825D01*
X24664Y8826D01*
X24660Y8830D01*
X24639Y8851D01*
X24639Y9149D01*
X24851Y9361D01*
X25149Y9361D01*
X25361Y9149D01*
X25361Y8851D01*
X25149Y8639D01*
X24851Y8639D01*
X24830Y8660D01*
X24829Y8661D01*
X24828Y8661D01*
X24825Y8663D01*
X24822Y8666D01*
X24821Y8666D01*
X24820Y8666D01*
X24816Y8667D01*
X24813Y8668D01*
X24812Y8668D01*
X24811Y8669D01*
X24807Y8668D01*
X24803Y8668D01*
X24802Y8668D01*
X24801Y8668D01*
X24798Y8666D01*
X24794Y8665D01*
X24794Y8664D01*
X24793Y8664D01*
X24788Y8660D01*
X24599Y8471D01*
X24538Y8409D01*
X24172Y8409D01*
X24169Y8409D01*
X24166Y8409D01*
X24164Y8408D01*
X24162Y8408D01*
X24160Y8406D01*
X24157Y8405D01*
X24155Y8404D01*
X24154Y8403D01*
X24152Y8401D01*
X24149Y8399D01*
X24148Y8398D01*
X24147Y8396D01*
X24146Y8393D01*
X24144Y8391D01*
X24144Y8389D01*
X24143Y8387D01*
X24143Y8385D01*
X24142Y8382D01*
X24143Y8380D01*
X24142Y8378D01*
X24143Y8375D01*
X24143Y8372D01*
X24144Y8370D01*
X24145Y8369D01*
X24146Y8366D01*
X24147Y8363D01*
X24149Y8361D01*
X24150Y8361D01*
X24150Y8360D01*
X24151Y8359D01*
X24361Y8149D01*
X24361Y7851D01*
X24261Y7751D01*
X24259Y7748D01*
X24257Y7746D01*
X24256Y7744D01*
X24255Y7743D01*
X24254Y7740D01*
X24253Y7737D01*
X24253Y7736D01*
X24253Y7734D01*
X24253Y7731D01*
X24252Y7728D01*
X24253Y7726D01*
X24253Y7724D01*
X24254Y7721D01*
X24255Y7719D01*
X24256Y7717D01*
X24256Y7715D01*
X24258Y7713D01*
X24260Y7711D01*
X24261Y7709D01*
X24262Y7708D01*
X24265Y7706D01*
X24267Y7705D01*
X24269Y7704D01*
X24271Y7703D01*
X24273Y7702D01*
X24276Y7701D01*
X24279Y7701D01*
X24280Y7701D01*
X24282Y7701D01*
X24560Y7701D01*
X24564Y7701D01*
X24568Y7702D01*
X24569Y7702D01*
X24570Y7702D01*
X24573Y7704D01*
X24577Y7706D01*
X24578Y7707D01*
X24579Y7707D01*
X24581Y7709D01*
X24660Y7788D01*
X24661Y7789D01*
X24661Y7790D01*
X24663Y7793D01*
X24666Y7796D01*
X24666Y7797D01*
X24666Y7798D01*
X24667Y7802D01*
X24668Y7805D01*
X24668Y7806D01*
X24669Y7807D01*
X24668Y7811D01*
X24668Y7815D01*
X24668Y7816D01*
X24668Y7817D01*
X24666Y7820D01*
X24665Y7824D01*
X24664Y7825D01*
X24664Y7826D01*
X24660Y7830D01*
X24639Y7851D01*
X24639Y8149D01*
X24851Y8361D01*
X25149Y8361D01*
X25361Y8149D01*
X25361Y7851D01*
X25149Y7639D01*
X24851Y7639D01*
X24830Y7660D01*
X24829Y7661D01*
X24828Y7661D01*
X24825Y7663D01*
X24822Y7666D01*
X24821Y7666D01*
X24820Y7666D01*
X24816Y7667D01*
X24813Y7668D01*
X24812Y7668D01*
X24811Y7669D01*
X24807Y7668D01*
X24803Y7668D01*
X24802Y7668D01*
X24801Y7668D01*
X24798Y7666D01*
X24794Y7665D01*
X24794Y7664D01*
X24793Y7664D01*
X24788Y7660D01*
X24709Y7581D01*
X24648Y7519D01*
X23301Y7519D01*
X22669Y8151D01*
X22666Y8153D01*
X22663Y8155D01*
X22662Y8156D01*
X22658Y8157D01*
X22654Y8159D01*
X22653Y8159D01*
X22652Y8159D01*
X22649Y8159D01*
X21626Y8159D01*
X21622Y8159D01*
X21618Y8158D01*
X21617Y8158D01*
X21616Y8158D01*
X21613Y8156D01*
X21610Y8154D01*
X21609Y8154D01*
X21608Y8153D01*
X21605Y8150D01*
X21603Y8148D01*
X21602Y8147D01*
X21601Y8146D01*
X21600Y8143D01*
X21598Y8139D01*
X21598Y8138D01*
X21598Y8137D01*
X21597Y8134D01*
X21597Y8130D01*
X21597Y8129D01*
X21597Y8128D01*
X21598Y8124D01*
X21598Y8120D01*
X21599Y8120D01*
X21599Y8119D01*
X21601Y8115D01*
X21603Y8112D01*
X21604Y8111D01*
X21607Y8108D01*
X21610Y8105D01*
X21611Y8105D01*
X21612Y8104D01*
X21615Y8103D01*
X21671Y8080D01*
X21730Y8040D01*
X21780Y7990D01*
X21820Y7931D01*
X21847Y7865D01*
X21861Y7796D01*
X21861Y7559D01*
X21530Y7559D01*
X21529Y7559D01*
X21528Y7559D01*
X21524Y7558D01*
X21521Y7558D01*
X21520Y7557D01*
X21519Y7557D01*
X21515Y7555D01*
X21512Y7553D01*
X21511Y7552D01*
X21508Y7549D01*
X21506Y7546D01*
X21505Y7545D01*
X21505Y7544D01*
X21503Y7541D01*
X21502Y7537D01*
X21502Y7536D01*
X21501Y7535D01*
X21501Y7530D01*
X21501Y7470D01*
X21501Y7469D01*
X21501Y7468D01*
X21502Y7464D01*
X21502Y7461D01*
X21503Y7460D01*
X21503Y7459D01*
X21505Y7455D01*
X21507Y7452D01*
X21508Y7451D01*
X21511Y7448D01*
X21514Y7446D01*
X21515Y7445D01*
X21516Y7445D01*
X21519Y7443D01*
X21523Y7442D01*
X21524Y7442D01*
X21525Y7441D01*
X21530Y7441D01*
X21861Y7441D01*
X21861Y7204D01*
X21847Y7135D01*
X21820Y7069D01*
X21806Y7048D01*
X21791Y7026D01*
X21789Y7022D01*
X21787Y7018D01*
X21787Y7017D01*
X21787Y7013D01*
X21786Y7008D01*
X21787Y7003D01*
X21788Y6999D01*
X21791Y6995D01*
X21793Y6991D01*
X21794Y6991D01*
X21797Y6988D01*
X21801Y6985D01*
X21805Y6983D01*
X21810Y6981D01*
X21815Y6981D01*
X23610Y6981D01*
X23611Y6981D01*
X23612Y6981D01*
X23616Y6982D01*
X23619Y6982D01*
X23620Y6983D01*
X23621Y6983D01*
X23625Y6985D01*
X23628Y6987D01*
X23629Y6988D01*
X23632Y6991D01*
X23634Y6994D01*
X23635Y6995D01*
X23635Y6996D01*
X23637Y6999D01*
X23638Y7003D01*
X23638Y7004D01*
X23639Y7005D01*
X23639Y7010D01*
X23639Y7149D01*
X23851Y7361D01*
X24149Y7361D01*
X24361Y7149D01*
X24361Y6851D01*
X24149Y6639D01*
X23851Y6639D01*
X23699Y6791D01*
X23696Y6793D01*
X23693Y6795D01*
X23692Y6796D01*
X23691Y6796D01*
X23688Y6797D01*
X23684Y6799D01*
X23683Y6799D01*
X23682Y6799D01*
X23681Y6799D01*
X23678Y6799D01*
X21400Y6799D01*
X21397Y6799D01*
X21394Y6799D01*
X21392Y6798D01*
X21390Y6798D01*
X21388Y6796D01*
X21385Y6795D01*
X21384Y6794D01*
X21382Y6793D01*
X21380Y6791D01*
X21378Y6789D01*
X21377Y6788D01*
X21375Y6786D01*
X21374Y6783D01*
X21373Y6781D01*
X21372Y6779D01*
X21371Y6777D01*
X21371Y6775D01*
X21370Y6772D01*
X21371Y6770D01*
X21371Y6768D01*
X21371Y6765D01*
X21372Y6762D01*
X21372Y6760D01*
X21373Y6759D01*
X21374Y6756D01*
X21376Y6753D01*
X21377Y6751D01*
X21378Y6751D01*
X21378Y6750D01*
X21379Y6749D01*
X21529Y6599D01*
X21539Y6589D01*
X21542Y6587D01*
X21545Y6585D01*
X21546Y6584D01*
X21547Y6584D01*
X21551Y6583D01*
X21554Y6581D01*
X21555Y6581D01*
X21556Y6581D01*
X21557Y6581D01*
X21560Y6581D01*
X24548Y6581D01*
X24788Y6340D01*
X24789Y6339D01*
X24790Y6339D01*
X24793Y6337D01*
X24796Y6334D01*
X24797Y6334D01*
X24798Y6334D01*
X24802Y6333D01*
X24805Y6332D01*
X24806Y6332D01*
X24807Y6331D01*
X24811Y6332D01*
X24815Y6332D01*
X24816Y6332D01*
X24817Y6332D01*
X24820Y6334D01*
X24824Y6335D01*
X24825Y6336D01*
X24826Y6336D01*
X24830Y6340D01*
X24851Y6361D01*
X25149Y6361D01*
X25359Y6151D01*
X25362Y6149D01*
X25364Y6147D01*
X25366Y6146D01*
X25367Y6145D01*
X25370Y6144D01*
X25373Y6143D01*
X25374Y6143D01*
X25376Y6143D01*
X25379Y6143D01*
X25382Y6142D01*
X25384Y6143D01*
X25386Y6143D01*
X25389Y6144D01*
X25391Y6145D01*
X25393Y6146D01*
X25395Y6146D01*
X25397Y6148D01*
X25399Y6150D01*
X25401Y6151D01*
X25402Y6152D01*
X25404Y6155D01*
X25405Y6157D01*
X25406Y6159D01*
X25407Y6161D01*
X25408Y6163D01*
X25409Y6166D01*
X25409Y6169D01*
X25409Y6170D01*
X25409Y6172D01*
X25409Y6450D01*
X25409Y6454D01*
X25408Y6458D01*
X25408Y6459D01*
X25408Y6460D01*
X25406Y6463D01*
X25404Y6467D01*
X25403Y6468D01*
X25403Y6469D01*
X25401Y6471D01*
X25212Y6660D01*
X25211Y6661D01*
X25210Y6661D01*
X25207Y6663D01*
X25204Y6666D01*
X25203Y6666D01*
X25202Y6666D01*
X25198Y6667D01*
X25195Y6668D01*
X25194Y6668D01*
X25193Y6669D01*
X25189Y6668D01*
X25185Y6668D01*
X25184Y6668D01*
X25183Y6668D01*
X25180Y6666D01*
X25176Y6665D01*
X25175Y6664D01*
X25174Y6664D01*
X25170Y6660D01*
X25149Y6639D01*
X24851Y6639D01*
X24639Y6851D01*
X24639Y7149D01*
X24851Y7361D01*
X25149Y7361D01*
X25361Y7149D01*
X25361Y6851D01*
X25340Y6830D01*
X25339Y6829D01*
X25339Y6828D01*
X25337Y6825D01*
X25334Y6822D01*
X25334Y6821D01*
X25334Y6820D01*
X25333Y6816D01*
X25332Y6813D01*
X25332Y6812D01*
X25331Y6811D01*
X25332Y6807D01*
X25332Y6803D01*
X25332Y6802D01*
X25332Y6801D01*
X25334Y6798D01*
X25335Y6794D01*
X25336Y6794D01*
X25336Y6793D01*
X25340Y6788D01*
X25591Y6538D01*
X25591Y5911D01*
X25529Y5849D01*
X25091Y5411D01*
X25089Y5408D01*
X25087Y5406D01*
X25086Y5404D01*
X25085Y5403D01*
X25084Y5400D01*
X25083Y5397D01*
X25083Y5396D01*
X25082Y5394D01*
X25082Y5391D01*
X25082Y5388D01*
X25083Y5386D01*
X25083Y5384D01*
X25084Y5381D01*
X25084Y5379D01*
X25085Y5377D01*
X25086Y5375D01*
X25088Y5373D01*
X25089Y5371D01*
X25091Y5369D01*
X25092Y5368D01*
X25095Y5366D01*
X25097Y5365D01*
X25099Y5364D01*
X25100Y5363D01*
X25103Y5362D01*
X25106Y5361D01*
X25109Y5361D01*
X25110Y5361D01*
X25111Y5361D01*
X25149Y5361D01*
X25361Y5149D01*
X25361Y4851D01*
X25149Y4639D01*
X24851Y4639D01*
X24639Y4851D01*
X24639Y5149D01*
X24849Y5359D01*
X24851Y5362D01*
X24853Y5364D01*
X24854Y5366D01*
X24855Y5367D01*
X24856Y5370D01*
X24857Y5373D01*
X24857Y5374D01*
X24857Y5376D01*
X24857Y5379D01*
X24858Y5382D01*
X24857Y5384D01*
X24857Y5386D01*
X24856Y5389D01*
X24855Y5391D01*
X24854Y5393D01*
X24854Y5395D01*
X24852Y5397D01*
X24850Y5399D01*
X24849Y5401D01*
X24848Y5402D01*
X24845Y5404D01*
X24843Y5405D01*
X24841Y5406D01*
X24839Y5407D01*
X24837Y5408D01*
X24834Y5409D01*
X24831Y5409D01*
X24830Y5409D01*
X24828Y5409D01*
X24172Y5409D01*
X24169Y5409D01*
X24166Y5409D01*
X24164Y5408D01*
X24162Y5408D01*
X24160Y5406D01*
X24157Y5405D01*
X24155Y5404D01*
X24154Y5403D01*
X24152Y5401D01*
X24149Y5399D01*
X24148Y5398D01*
X24147Y5396D01*
X24146Y5393D01*
X24144Y5391D01*
X24144Y5389D01*
X24143Y5387D01*
X24143Y5385D01*
X24142Y5382D01*
X24143Y5380D01*
X24142Y5378D01*
X24143Y5375D01*
X24143Y5372D01*
X24144Y5370D01*
X24145Y5369D01*
X24146Y5366D01*
X24147Y5363D01*
X24149Y5361D01*
X24150Y5361D01*
X24150Y5360D01*
X24151Y5359D01*
X24361Y5149D01*
X24361Y4851D01*
X24149Y4639D01*
X23851Y4639D01*
G37*
%LPD*%
G36*
X3390Y29754D02*
X3390Y29754D01*
X3393Y29754D01*
X3395Y29755D01*
X3397Y29755D01*
X3399Y29757D01*
X3402Y29758D01*
X3403Y29759D01*
X3405Y29760D01*
X3407Y29762D01*
X3409Y29764D01*
X3410Y29765D01*
X3411Y29767D01*
X3414Y29772D01*
X3418Y29782D01*
X3508Y29872D01*
X3626Y29921D01*
X4274Y29921D01*
X4392Y29872D01*
X4419Y29844D01*
X4422Y29843D01*
X4424Y29841D01*
X4426Y29840D01*
X4427Y29839D01*
X4430Y29838D01*
X4433Y29837D01*
X4434Y29837D01*
X4436Y29836D01*
X4439Y29836D01*
X4442Y29836D01*
X4444Y29836D01*
X4446Y29836D01*
X4449Y29837D01*
X4451Y29838D01*
X4453Y29839D01*
X4455Y29840D01*
X4457Y29842D01*
X4459Y29843D01*
X4461Y29845D01*
X4462Y29846D01*
X4464Y29848D01*
X4465Y29851D01*
X4466Y29852D01*
X4467Y29854D01*
X4468Y29857D01*
X4469Y29860D01*
X4469Y29863D01*
X4469Y29864D01*
X4469Y29865D01*
X4469Y30285D01*
X4468Y30289D01*
X4468Y30294D01*
X4465Y30298D01*
X4463Y30302D01*
X4463Y30303D01*
X4460Y30306D01*
X4456Y30309D01*
X4452Y30311D01*
X4447Y30313D01*
X4442Y30313D01*
X4438Y30314D01*
X4433Y30313D01*
X4429Y30312D01*
X4428Y30312D01*
X4424Y30309D01*
X4381Y30280D01*
X4315Y30253D01*
X4246Y30239D01*
X4009Y30239D01*
X4009Y30570D01*
X4009Y30571D01*
X4009Y30572D01*
X4008Y30576D01*
X4008Y30579D01*
X4007Y30580D01*
X4007Y30581D01*
X4005Y30585D01*
X4003Y30588D01*
X4002Y30589D01*
X3999Y30592D01*
X3996Y30594D01*
X3995Y30595D01*
X3994Y30595D01*
X3991Y30597D01*
X3987Y30598D01*
X3986Y30598D01*
X3985Y30599D01*
X3980Y30599D01*
X3949Y30599D01*
X3949Y30601D01*
X3980Y30601D01*
X3981Y30601D01*
X3982Y30601D01*
X3986Y30602D01*
X3989Y30602D01*
X3990Y30603D01*
X3991Y30603D01*
X3995Y30605D01*
X3998Y30607D01*
X3999Y30608D01*
X4002Y30611D01*
X4004Y30614D01*
X4005Y30615D01*
X4005Y30616D01*
X4007Y30619D01*
X4008Y30623D01*
X4008Y30624D01*
X4009Y30625D01*
X4009Y30630D01*
X4009Y30961D01*
X4246Y30961D01*
X4315Y30947D01*
X4381Y30920D01*
X4440Y30880D01*
X4490Y30830D01*
X4530Y30771D01*
X4546Y30732D01*
X4547Y30730D01*
X4548Y30728D01*
X4550Y30726D01*
X4551Y30723D01*
X4553Y30722D01*
X4554Y30721D01*
X4556Y30719D01*
X4558Y30717D01*
X4560Y30717D01*
X4562Y30716D01*
X4565Y30715D01*
X4567Y30714D01*
X4569Y30714D01*
X4571Y30714D01*
X4574Y30714D01*
X4577Y30714D01*
X4579Y30714D01*
X4581Y30715D01*
X4583Y30716D01*
X4586Y30717D01*
X4588Y30718D01*
X4590Y30719D01*
X4594Y30722D01*
X6462Y32591D01*
X9899Y32591D01*
X9903Y32591D01*
X9907Y32592D01*
X9908Y32592D01*
X9912Y32594D01*
X9915Y32596D01*
X9916Y32597D01*
X9917Y32597D01*
X9919Y32599D01*
X10849Y33529D01*
X10911Y33591D01*
X12089Y33591D01*
X12589Y33091D01*
X12592Y33089D01*
X12594Y33087D01*
X12596Y33086D01*
X12597Y33085D01*
X12600Y33084D01*
X12603Y33083D01*
X12604Y33083D01*
X12606Y33082D01*
X12609Y33082D01*
X12612Y33082D01*
X12614Y33083D01*
X12616Y33083D01*
X12619Y33084D01*
X12621Y33084D01*
X12623Y33085D01*
X12625Y33086D01*
X12627Y33088D01*
X12629Y33089D01*
X12631Y33091D01*
X12632Y33092D01*
X12634Y33095D01*
X12635Y33097D01*
X12636Y33099D01*
X12637Y33100D01*
X12638Y33103D01*
X12639Y33106D01*
X12639Y33109D01*
X12639Y33110D01*
X12639Y33111D01*
X12639Y33149D01*
X12660Y33170D01*
X12661Y33171D01*
X12661Y33172D01*
X12663Y33175D01*
X12666Y33178D01*
X12666Y33179D01*
X12666Y33180D01*
X12667Y33184D01*
X12668Y33187D01*
X12668Y33188D01*
X12669Y33189D01*
X12668Y33193D01*
X12668Y33197D01*
X12668Y33198D01*
X12668Y33199D01*
X12666Y33202D01*
X12665Y33206D01*
X12664Y33206D01*
X12664Y33207D01*
X12660Y33212D01*
X11971Y33901D01*
X11968Y33903D01*
X11965Y33905D01*
X11964Y33906D01*
X11963Y33906D01*
X11959Y33907D01*
X11956Y33909D01*
X11955Y33909D01*
X11954Y33909D01*
X11953Y33909D01*
X11950Y33909D01*
X11050Y33909D01*
X11046Y33909D01*
X11042Y33908D01*
X11041Y33908D01*
X11040Y33908D01*
X11037Y33906D01*
X11033Y33904D01*
X11032Y33903D01*
X11031Y33903D01*
X11029Y33901D01*
X10038Y32909D01*
X4550Y32909D01*
X4546Y32909D01*
X4542Y32908D01*
X4541Y32908D01*
X4540Y32908D01*
X4537Y32906D01*
X4533Y32904D01*
X4532Y32903D01*
X4531Y32903D01*
X4529Y32901D01*
X3508Y31879D01*
X-165Y31879D01*
X-168Y31879D01*
X-171Y31879D01*
X-173Y31878D01*
X-174Y31878D01*
X-177Y31876D01*
X-180Y31875D01*
X-181Y31874D01*
X-183Y31873D01*
X-185Y31871D01*
X-187Y31869D01*
X-188Y31868D01*
X-189Y31866D01*
X-191Y31863D01*
X-192Y31861D01*
X-193Y31859D01*
X-193Y31857D01*
X-194Y31855D01*
X-194Y31852D01*
X-194Y31850D01*
X-194Y31848D01*
X-194Y31845D01*
X-193Y31842D01*
X-192Y31840D01*
X-192Y31839D01*
X-190Y31836D01*
X-189Y31833D01*
X-187Y31831D01*
X-186Y31830D01*
X-186Y31829D01*
X-158Y31802D01*
X-128Y31729D01*
X-125Y31725D01*
X-123Y31721D01*
X-119Y31718D01*
X-115Y31715D01*
X-111Y31713D01*
X-106Y31711D01*
X-101Y31711D01*
X1418Y31711D01*
X3366Y29762D01*
X3368Y29761D01*
X3369Y29760D01*
X3372Y29758D01*
X3374Y29757D01*
X3376Y29756D01*
X3378Y29755D01*
X3380Y29755D01*
X3383Y29754D01*
X3385Y29754D01*
X3387Y29754D01*
X3390Y29754D01*
G37*
G36*
X4680Y29990D02*
X4680Y29990D01*
X4682Y29990D01*
X4685Y29991D01*
X4688Y29991D01*
X4690Y29992D01*
X4691Y29992D01*
X4694Y29994D01*
X4697Y29995D01*
X4699Y29997D01*
X4699Y29998D01*
X4700Y29998D01*
X4701Y29999D01*
X6231Y31529D01*
X6293Y31591D01*
X10772Y31591D01*
X10775Y31591D01*
X10778Y31591D01*
X10779Y31592D01*
X10781Y31592D01*
X10784Y31594D01*
X10787Y31595D01*
X10788Y31596D01*
X10790Y31597D01*
X10792Y31599D01*
X10794Y31601D01*
X10795Y31602D01*
X10796Y31604D01*
X10797Y31607D01*
X10799Y31609D01*
X10799Y31611D01*
X10800Y31613D01*
X10800Y31615D01*
X10801Y31618D01*
X10801Y31620D01*
X10801Y31622D01*
X10800Y31625D01*
X10800Y31628D01*
X10799Y31630D01*
X10799Y31631D01*
X10797Y31634D01*
X10796Y31637D01*
X10794Y31639D01*
X10793Y31640D01*
X10793Y31641D01*
X10599Y31834D01*
X10599Y31941D01*
X10970Y31941D01*
X10971Y31941D01*
X10972Y31941D01*
X10976Y31942D01*
X10979Y31942D01*
X10980Y31943D01*
X10981Y31943D01*
X10985Y31945D01*
X10988Y31947D01*
X10989Y31948D01*
X10992Y31951D01*
X10994Y31954D01*
X10995Y31955D01*
X10995Y31956D01*
X10997Y31959D01*
X10998Y31963D01*
X10998Y31964D01*
X10999Y31965D01*
X10999Y31970D01*
X10999Y32001D01*
X11030Y32001D01*
X11031Y32001D01*
X11032Y32001D01*
X11036Y32002D01*
X11039Y32002D01*
X11040Y32003D01*
X11041Y32003D01*
X11045Y32005D01*
X11048Y32007D01*
X11049Y32008D01*
X11052Y32011D01*
X11054Y32014D01*
X11055Y32015D01*
X11055Y32016D01*
X11057Y32019D01*
X11058Y32023D01*
X11058Y32024D01*
X11059Y32025D01*
X11059Y32030D01*
X11059Y32401D01*
X11166Y32401D01*
X11359Y32207D01*
X11362Y32206D01*
X11364Y32204D01*
X11366Y32203D01*
X11367Y32202D01*
X11370Y32201D01*
X11373Y32200D01*
X11374Y32200D01*
X11376Y32199D01*
X11379Y32199D01*
X11382Y32199D01*
X11384Y32199D01*
X11386Y32199D01*
X11389Y32200D01*
X11391Y32201D01*
X11393Y32202D01*
X11395Y32203D01*
X11397Y32205D01*
X11399Y32206D01*
X11401Y32208D01*
X11402Y32209D01*
X11404Y32211D01*
X11405Y32214D01*
X11406Y32216D01*
X11407Y32217D01*
X11408Y32220D01*
X11409Y32223D01*
X11409Y32226D01*
X11409Y32227D01*
X11409Y32228D01*
X11409Y32538D01*
X11471Y32599D01*
X11660Y32788D01*
X11661Y32789D01*
X11661Y32790D01*
X11663Y32793D01*
X11666Y32796D01*
X11666Y32797D01*
X11666Y32798D01*
X11667Y32802D01*
X11668Y32805D01*
X11668Y32806D01*
X11669Y32807D01*
X11668Y32811D01*
X11668Y32815D01*
X11668Y32816D01*
X11668Y32817D01*
X11666Y32820D01*
X11665Y32824D01*
X11664Y32825D01*
X11664Y32826D01*
X11660Y32830D01*
X11639Y32851D01*
X11639Y33149D01*
X11849Y33359D01*
X11851Y33362D01*
X11853Y33364D01*
X11854Y33366D01*
X11855Y33367D01*
X11856Y33370D01*
X11857Y33373D01*
X11857Y33374D01*
X11857Y33376D01*
X11857Y33379D01*
X11858Y33382D01*
X11857Y33384D01*
X11857Y33386D01*
X11856Y33389D01*
X11855Y33391D01*
X11854Y33393D01*
X11854Y33395D01*
X11852Y33397D01*
X11850Y33399D01*
X11849Y33401D01*
X11848Y33402D01*
X11845Y33404D01*
X11843Y33405D01*
X11841Y33406D01*
X11839Y33407D01*
X11837Y33408D01*
X11834Y33409D01*
X11831Y33409D01*
X11830Y33409D01*
X11828Y33409D01*
X11172Y33409D01*
X11169Y33409D01*
X11166Y33409D01*
X11164Y33408D01*
X11162Y33408D01*
X11160Y33406D01*
X11157Y33405D01*
X11155Y33404D01*
X11154Y33403D01*
X11152Y33401D01*
X11149Y33399D01*
X11148Y33398D01*
X11147Y33396D01*
X11146Y33393D01*
X11144Y33391D01*
X11144Y33389D01*
X11143Y33387D01*
X11143Y33385D01*
X11142Y33382D01*
X11143Y33380D01*
X11142Y33378D01*
X11143Y33375D01*
X11143Y33372D01*
X11144Y33370D01*
X11145Y33369D01*
X11146Y33366D01*
X11147Y33363D01*
X11149Y33361D01*
X11150Y33361D01*
X11150Y33360D01*
X11151Y33359D01*
X11361Y33149D01*
X11361Y32851D01*
X11149Y32639D01*
X10851Y32639D01*
X10639Y32851D01*
X10639Y32992D01*
X10639Y32995D01*
X10639Y32998D01*
X10638Y32999D01*
X10638Y33001D01*
X10636Y33004D01*
X10635Y33007D01*
X10634Y33008D01*
X10633Y33010D01*
X10631Y33012D01*
X10629Y33014D01*
X10628Y33015D01*
X10626Y33016D01*
X10623Y33017D01*
X10621Y33019D01*
X10619Y33019D01*
X10617Y33020D01*
X10615Y33020D01*
X10612Y33021D01*
X10610Y33021D01*
X10608Y33021D01*
X10605Y33020D01*
X10602Y33020D01*
X10600Y33019D01*
X10599Y33019D01*
X10596Y33017D01*
X10593Y33016D01*
X10591Y33014D01*
X10590Y33013D01*
X10589Y33013D01*
X10048Y32471D01*
X9986Y32409D01*
X6550Y32409D01*
X6546Y32409D01*
X6542Y32408D01*
X6541Y32408D01*
X6540Y32408D01*
X6537Y32406D01*
X6533Y32404D01*
X6532Y32403D01*
X6531Y32403D01*
X6529Y32401D01*
X4659Y30531D01*
X4657Y30528D01*
X4655Y30525D01*
X4654Y30524D01*
X4654Y30523D01*
X4653Y30519D01*
X4651Y30516D01*
X4651Y30515D01*
X4651Y30514D01*
X4651Y30513D01*
X4651Y30510D01*
X4651Y30019D01*
X4651Y30017D01*
X4651Y30014D01*
X4652Y30012D01*
X4652Y30010D01*
X4654Y30007D01*
X4655Y30005D01*
X4656Y30003D01*
X4657Y30002D01*
X4659Y30000D01*
X4661Y29997D01*
X4662Y29996D01*
X4664Y29995D01*
X4667Y29994D01*
X4669Y29992D01*
X4671Y29992D01*
X4673Y29991D01*
X4675Y29991D01*
X4678Y29990D01*
X4680Y29990D01*
G37*
G36*
X9554Y18921D02*
X9554Y18921D01*
X9556Y18921D01*
X9559Y18922D01*
X9561Y18923D01*
X9563Y18924D01*
X9565Y18925D01*
X9567Y18927D01*
X9569Y18928D01*
X9571Y18930D01*
X9572Y18931D01*
X9574Y18933D01*
X9575Y18936D01*
X9576Y18937D01*
X9577Y18939D01*
X9578Y18942D01*
X9579Y18945D01*
X9579Y18948D01*
X9579Y18949D01*
X9579Y18950D01*
X9579Y19209D01*
X9600Y19230D01*
X9601Y19231D01*
X9601Y19232D01*
X9603Y19235D01*
X9606Y19238D01*
X9606Y19239D01*
X9606Y19240D01*
X9607Y19244D01*
X9608Y19247D01*
X9608Y19248D01*
X9609Y19249D01*
X9608Y19253D01*
X9608Y19257D01*
X9608Y19258D01*
X9608Y19259D01*
X9606Y19262D01*
X9605Y19266D01*
X9604Y19266D01*
X9604Y19267D01*
X9600Y19272D01*
X9001Y19871D01*
X8939Y19932D01*
X8939Y22635D01*
X8938Y22639D01*
X8938Y22644D01*
X8935Y22648D01*
X8933Y22652D01*
X8933Y22653D01*
X8930Y22656D01*
X8926Y22659D01*
X8922Y22661D01*
X8917Y22663D01*
X8912Y22663D01*
X8908Y22664D01*
X8903Y22663D01*
X8899Y22662D01*
X8898Y22662D01*
X8894Y22659D01*
X8851Y22630D01*
X8785Y22603D01*
X8716Y22589D01*
X8479Y22589D01*
X8479Y22920D01*
X8479Y22921D01*
X8479Y22922D01*
X8478Y22926D01*
X8478Y22929D01*
X8477Y22930D01*
X8477Y22931D01*
X8475Y22935D01*
X8473Y22938D01*
X8472Y22939D01*
X8469Y22942D01*
X8466Y22944D01*
X8465Y22945D01*
X8464Y22945D01*
X8461Y22947D01*
X8457Y22948D01*
X8456Y22948D01*
X8455Y22949D01*
X8450Y22949D01*
X8419Y22949D01*
X8419Y22951D01*
X8450Y22951D01*
X8451Y22951D01*
X8452Y22951D01*
X8456Y22952D01*
X8459Y22952D01*
X8460Y22953D01*
X8461Y22953D01*
X8465Y22955D01*
X8468Y22957D01*
X8469Y22958D01*
X8472Y22961D01*
X8474Y22964D01*
X8475Y22965D01*
X8475Y22966D01*
X8477Y22969D01*
X8478Y22973D01*
X8478Y22974D01*
X8479Y22975D01*
X8479Y22980D01*
X8479Y23311D01*
X8716Y23311D01*
X8785Y23297D01*
X8851Y23270D01*
X8894Y23241D01*
X8895Y23241D01*
X8895Y23240D01*
X8898Y23239D01*
X8902Y23237D01*
X8903Y23237D01*
X8904Y23237D01*
X8910Y23236D01*
X8912Y23236D01*
X8917Y23237D01*
X8921Y23238D01*
X8925Y23241D01*
X8927Y23242D01*
X8928Y23242D01*
X8928Y23243D01*
X8929Y23243D01*
X8929Y23244D01*
X8932Y23247D01*
X8934Y23249D01*
X8935Y23250D01*
X8935Y23251D01*
X8937Y23255D01*
X8937Y23256D01*
X8938Y23258D01*
X8938Y23259D01*
X8939Y23260D01*
X8939Y23265D01*
X8939Y23685D01*
X8939Y23688D01*
X8939Y23691D01*
X8938Y23693D01*
X8938Y23694D01*
X8936Y23697D01*
X8935Y23700D01*
X8934Y23701D01*
X8933Y23703D01*
X8931Y23705D01*
X8929Y23707D01*
X8928Y23708D01*
X8926Y23709D01*
X8923Y23711D01*
X8921Y23712D01*
X8919Y23713D01*
X8917Y23713D01*
X8915Y23714D01*
X8912Y23714D01*
X8910Y23714D01*
X8908Y23714D01*
X8905Y23714D01*
X8902Y23713D01*
X8900Y23712D01*
X8899Y23712D01*
X8896Y23710D01*
X8893Y23709D01*
X8891Y23707D01*
X8890Y23706D01*
X8889Y23706D01*
X8862Y23678D01*
X8744Y23629D01*
X8096Y23629D01*
X7978Y23678D01*
X7888Y23768D01*
X7839Y23886D01*
X7839Y24014D01*
X7888Y24132D01*
X7978Y24222D01*
X8096Y24271D01*
X8655Y24271D01*
X8658Y24271D01*
X8661Y24271D01*
X8663Y24272D01*
X8665Y24272D01*
X8667Y24274D01*
X8670Y24275D01*
X8671Y24276D01*
X8673Y24277D01*
X8675Y24279D01*
X8677Y24281D01*
X8678Y24282D01*
X8680Y24284D01*
X8681Y24287D01*
X8682Y24289D01*
X8683Y24291D01*
X8684Y24293D01*
X8684Y24295D01*
X8684Y24298D01*
X8684Y24300D01*
X8684Y24302D01*
X8684Y24305D01*
X8683Y24308D01*
X8683Y24310D01*
X8682Y24311D01*
X8681Y24314D01*
X8679Y24317D01*
X8678Y24319D01*
X8677Y24319D01*
X8677Y24320D01*
X8676Y24321D01*
X8596Y24401D01*
X8593Y24403D01*
X8590Y24405D01*
X8589Y24406D01*
X8588Y24406D01*
X8584Y24407D01*
X8581Y24409D01*
X8580Y24409D01*
X8579Y24409D01*
X8578Y24409D01*
X8575Y24409D01*
X7962Y24409D01*
X7901Y24471D01*
X6471Y25901D01*
X6468Y25903D01*
X6465Y25905D01*
X6464Y25906D01*
X6463Y25906D01*
X6459Y25907D01*
X6456Y25909D01*
X6455Y25909D01*
X6454Y25909D01*
X6453Y25909D01*
X6450Y25909D01*
X6286Y25909D01*
X6283Y25909D01*
X6280Y25909D01*
X6278Y25908D01*
X6277Y25908D01*
X6274Y25906D01*
X6271Y25905D01*
X6270Y25904D01*
X6268Y25903D01*
X6266Y25901D01*
X6264Y25899D01*
X6263Y25898D01*
X6262Y25896D01*
X6260Y25893D01*
X6259Y25891D01*
X6258Y25889D01*
X6258Y25887D01*
X6257Y25885D01*
X6257Y25882D01*
X6257Y25880D01*
X6257Y25878D01*
X6257Y25875D01*
X6258Y25872D01*
X6259Y25870D01*
X6259Y25869D01*
X6261Y25866D01*
X6262Y25863D01*
X6264Y25861D01*
X6265Y25860D01*
X6265Y25859D01*
X6322Y25803D01*
X6371Y25685D01*
X6371Y25557D01*
X6322Y25439D01*
X6276Y25394D01*
X6276Y25393D01*
X6275Y25392D01*
X6273Y25389D01*
X6271Y25386D01*
X6270Y25385D01*
X6270Y25384D01*
X6269Y25380D01*
X6268Y25377D01*
X6268Y25376D01*
X6268Y25375D01*
X6268Y25371D01*
X6268Y25367D01*
X6269Y25366D01*
X6269Y25365D01*
X6270Y25362D01*
X6272Y25358D01*
X6272Y25357D01*
X6273Y25356D01*
X6276Y25352D01*
X7529Y24099D01*
X7591Y24038D01*
X7591Y22581D01*
X7591Y22577D01*
X7592Y22573D01*
X7592Y22572D01*
X7594Y22568D01*
X7596Y22565D01*
X7597Y22564D01*
X7597Y22563D01*
X7599Y22561D01*
X8571Y21589D01*
X8571Y19900D01*
X8571Y19896D01*
X8572Y19892D01*
X8572Y19891D01*
X8574Y19887D01*
X8576Y19883D01*
X8577Y19883D01*
X8577Y19882D01*
X8579Y19879D01*
X9529Y18929D01*
X9532Y18928D01*
X9534Y18926D01*
X9536Y18925D01*
X9537Y18924D01*
X9540Y18923D01*
X9543Y18922D01*
X9544Y18922D01*
X9546Y18921D01*
X9549Y18921D01*
X9552Y18921D01*
X9554Y18921D01*
G37*
G36*
X12800Y16405D02*
X12800Y16405D01*
X12803Y16404D01*
X12805Y16405D01*
X12807Y16405D01*
X12809Y16406D01*
X12812Y16407D01*
X12813Y16408D01*
X12815Y16409D01*
X12819Y16413D01*
X12956Y16549D01*
X12958Y16552D01*
X12960Y16554D01*
X12960Y16556D01*
X12962Y16557D01*
X12962Y16560D01*
X12964Y16563D01*
X12964Y16564D01*
X12964Y16566D01*
X12964Y16569D01*
X12964Y16572D01*
X12964Y16574D01*
X12964Y16576D01*
X12963Y16579D01*
X12962Y16581D01*
X12961Y16583D01*
X12961Y16585D01*
X12959Y16587D01*
X12957Y16589D01*
X12956Y16591D01*
X12954Y16592D01*
X12952Y16594D01*
X12950Y16595D01*
X12948Y16596D01*
X12946Y16597D01*
X12943Y16598D01*
X12941Y16599D01*
X12938Y16599D01*
X12937Y16599D01*
X12936Y16599D01*
X12935Y16599D01*
X12851Y16599D01*
X12639Y16811D01*
X12639Y16901D01*
X12970Y16901D01*
X12971Y16901D01*
X12972Y16901D01*
X12976Y16902D01*
X12979Y16902D01*
X12980Y16903D01*
X12981Y16903D01*
X12985Y16905D01*
X12988Y16907D01*
X12989Y16908D01*
X12992Y16911D01*
X12994Y16914D01*
X12995Y16915D01*
X12995Y16916D01*
X12997Y16919D01*
X12998Y16923D01*
X12998Y16924D01*
X12999Y16925D01*
X12999Y16930D01*
X12999Y16961D01*
X13030Y16961D01*
X13031Y16961D01*
X13032Y16961D01*
X13036Y16962D01*
X13039Y16962D01*
X13040Y16963D01*
X13041Y16963D01*
X13045Y16965D01*
X13048Y16967D01*
X13049Y16968D01*
X13052Y16971D01*
X13054Y16974D01*
X13055Y16975D01*
X13055Y16976D01*
X13057Y16979D01*
X13058Y16983D01*
X13058Y16984D01*
X13059Y16985D01*
X13059Y16990D01*
X13059Y17321D01*
X13149Y17321D01*
X13209Y17261D01*
X13212Y17259D01*
X13214Y17257D01*
X13216Y17256D01*
X13217Y17255D01*
X13220Y17254D01*
X13223Y17253D01*
X13224Y17253D01*
X13226Y17253D01*
X13229Y17253D01*
X13232Y17252D01*
X13234Y17253D01*
X13236Y17253D01*
X13239Y17254D01*
X13241Y17255D01*
X13243Y17256D01*
X13245Y17256D01*
X13247Y17258D01*
X13249Y17260D01*
X13251Y17261D01*
X13252Y17262D01*
X13254Y17265D01*
X13255Y17267D01*
X13256Y17269D01*
X13257Y17271D01*
X13258Y17273D01*
X13259Y17276D01*
X13259Y17279D01*
X13259Y17280D01*
X13259Y17282D01*
X13259Y18100D01*
X13259Y18104D01*
X13258Y18108D01*
X13258Y18109D01*
X13258Y18110D01*
X13256Y18113D01*
X13254Y18117D01*
X13253Y18118D01*
X13253Y18119D01*
X13251Y18121D01*
X12559Y18812D01*
X12559Y20188D01*
X12621Y20249D01*
X12951Y20579D01*
X12953Y20582D01*
X12955Y20584D01*
X12955Y20586D01*
X12957Y20587D01*
X12957Y20590D01*
X12959Y20593D01*
X12959Y20594D01*
X12959Y20596D01*
X12959Y20599D01*
X12959Y20602D01*
X12959Y20604D01*
X12959Y20606D01*
X12958Y20609D01*
X12957Y20611D01*
X12956Y20613D01*
X12956Y20615D01*
X12954Y20617D01*
X12952Y20619D01*
X12951Y20621D01*
X12949Y20622D01*
X12947Y20624D01*
X12945Y20625D01*
X12943Y20626D01*
X12941Y20627D01*
X12938Y20628D01*
X12936Y20629D01*
X12933Y20629D01*
X12932Y20629D01*
X12931Y20629D01*
X12930Y20629D01*
X12556Y20629D01*
X12438Y20678D01*
X12411Y20706D01*
X12408Y20707D01*
X12406Y20709D01*
X12404Y20710D01*
X12403Y20711D01*
X12400Y20712D01*
X12397Y20713D01*
X12396Y20713D01*
X12394Y20714D01*
X12391Y20714D01*
X12388Y20714D01*
X12386Y20714D01*
X12384Y20714D01*
X12381Y20713D01*
X12379Y20712D01*
X12377Y20711D01*
X12375Y20710D01*
X12373Y20708D01*
X12371Y20707D01*
X12369Y20705D01*
X12368Y20704D01*
X12366Y20702D01*
X12365Y20699D01*
X12364Y20698D01*
X12363Y20696D01*
X12362Y20693D01*
X12361Y20690D01*
X12361Y20687D01*
X12361Y20686D01*
X12361Y20685D01*
X12361Y16573D01*
X12361Y16571D01*
X12361Y16569D01*
X12362Y16567D01*
X12362Y16564D01*
X12363Y16562D01*
X12364Y16560D01*
X12366Y16558D01*
X12367Y16555D01*
X12368Y16554D01*
X12369Y16552D01*
X12372Y16551D01*
X12374Y16549D01*
X12376Y16548D01*
X12377Y16547D01*
X12380Y16546D01*
X12383Y16545D01*
X12385Y16545D01*
X12386Y16544D01*
X12389Y16544D01*
X12392Y16544D01*
X12394Y16545D01*
X12396Y16545D01*
X12401Y16546D01*
X12436Y16561D01*
X12564Y16561D01*
X12682Y16512D01*
X12772Y16421D01*
X12773Y16421D01*
X12773Y16419D01*
X12775Y16417D01*
X12777Y16414D01*
X12778Y16413D01*
X12780Y16411D01*
X12782Y16410D01*
X12784Y16408D01*
X12786Y16407D01*
X12788Y16406D01*
X12790Y16406D01*
X12793Y16405D01*
X12795Y16405D01*
X12797Y16404D01*
X12800Y16405D01*
G37*
%LPC*%
G36*
X-799Y17362D02*
X-799Y17362D01*
X-1019Y17453D01*
X-1187Y17621D01*
X-1278Y17841D01*
X-1278Y18079D01*
X-1187Y18299D01*
X-1019Y18467D01*
X-799Y18558D01*
X-561Y18558D01*
X-341Y18467D01*
X-173Y18299D01*
X-82Y18079D01*
X-82Y17841D01*
X-173Y17621D01*
X-341Y17453D01*
X-561Y17362D01*
X-799Y17362D01*
G37*
%LPD*%
%LPC*%
G36*
X-799Y35122D02*
X-799Y35122D01*
X-1019Y35213D01*
X-1187Y35381D01*
X-1278Y35601D01*
X-1278Y35839D01*
X-1187Y36059D01*
X-1019Y36227D01*
X-799Y36318D01*
X-561Y36318D01*
X-341Y36227D01*
X-173Y36059D01*
X-82Y35839D01*
X-82Y35601D01*
X-173Y35381D01*
X-341Y35213D01*
X-561Y35122D01*
X-799Y35122D01*
G37*
%LPD*%
%LPC*%
G36*
X25381Y35122D02*
X25381Y35122D01*
X25161Y35213D01*
X24993Y35381D01*
X24902Y35601D01*
X24902Y35839D01*
X24993Y36059D01*
X25161Y36227D01*
X25381Y36318D01*
X25619Y36318D01*
X25839Y36227D01*
X26007Y36059D01*
X26098Y35839D01*
X26098Y35601D01*
X26007Y35381D01*
X25839Y35213D01*
X25619Y35122D01*
X25381Y35122D01*
G37*
%LPD*%
%LPC*%
G36*
X24201Y-898D02*
X24201Y-898D01*
X23981Y-807D01*
X23813Y-639D01*
X23722Y-419D01*
X23722Y-181D01*
X23813Y39D01*
X23981Y207D01*
X24201Y298D01*
X24439Y298D01*
X24659Y207D01*
X24827Y39D01*
X24918Y-181D01*
X24918Y-419D01*
X24827Y-639D01*
X24659Y-807D01*
X24439Y-898D01*
X24201Y-898D01*
G37*
%LPD*%
%LPC*%
G36*
X-799Y-398D02*
X-799Y-398D01*
X-1019Y-307D01*
X-1187Y-139D01*
X-1278Y81D01*
X-1278Y319D01*
X-1187Y539D01*
X-1019Y707D01*
X-799Y798D01*
X-561Y798D01*
X-341Y707D01*
X-173Y539D01*
X-82Y319D01*
X-82Y81D01*
X-173Y-139D01*
X-341Y-307D01*
X-561Y-398D01*
X-799Y-398D01*
G37*
%LPD*%
%LPC*%
G36*
X7418Y3529D02*
X7418Y3529D01*
X7286Y3584D01*
X7184Y3686D01*
X7129Y3818D01*
X7129Y3962D01*
X7184Y4094D01*
X7286Y4196D01*
X7418Y4251D01*
X8162Y4251D01*
X8294Y4196D01*
X8396Y4094D01*
X8451Y3962D01*
X8451Y3818D01*
X8396Y3686D01*
X8294Y3584D01*
X8162Y3529D01*
X7418Y3529D01*
G37*
%LPD*%
%LPC*%
G36*
X1418Y3529D02*
X1418Y3529D01*
X1286Y3584D01*
X1184Y3686D01*
X1129Y3818D01*
X1129Y3962D01*
X1184Y4094D01*
X1286Y4196D01*
X1418Y4251D01*
X2162Y4251D01*
X2294Y4196D01*
X2396Y4094D01*
X2451Y3962D01*
X2451Y3818D01*
X2396Y3686D01*
X2294Y3584D01*
X2162Y3529D01*
X1418Y3529D01*
G37*
%LPD*%
%LPC*%
G36*
X1418Y4529D02*
X1418Y4529D01*
X1286Y4584D01*
X1184Y4686D01*
X1129Y4818D01*
X1129Y4962D01*
X1184Y5094D01*
X1286Y5196D01*
X1418Y5251D01*
X2162Y5251D01*
X2294Y5196D01*
X2396Y5094D01*
X2451Y4962D01*
X2451Y4818D01*
X2396Y4686D01*
X2294Y4584D01*
X2162Y4529D01*
X1418Y4529D01*
G37*
%LPD*%
%LPC*%
G36*
X7418Y4529D02*
X7418Y4529D01*
X7286Y4584D01*
X7184Y4686D01*
X7129Y4818D01*
X7129Y4962D01*
X7184Y5094D01*
X7286Y5196D01*
X7418Y5251D01*
X8162Y5251D01*
X8294Y5196D01*
X8396Y5094D01*
X8451Y4962D01*
X8451Y4818D01*
X8396Y4686D01*
X8294Y4584D01*
X8162Y4529D01*
X7418Y4529D01*
G37*
%LPD*%
%LPC*%
G36*
X1418Y5529D02*
X1418Y5529D01*
X1286Y5584D01*
X1184Y5686D01*
X1129Y5818D01*
X1129Y5962D01*
X1184Y6094D01*
X1286Y6196D01*
X1418Y6251D01*
X2162Y6251D01*
X2294Y6196D01*
X2396Y6094D01*
X2451Y5962D01*
X2451Y5818D01*
X2396Y5686D01*
X2294Y5584D01*
X2162Y5529D01*
X1418Y5529D01*
G37*
%LPD*%
%LPC*%
G36*
X7418Y5529D02*
X7418Y5529D01*
X7286Y5584D01*
X7184Y5686D01*
X7129Y5818D01*
X7129Y5962D01*
X7184Y6094D01*
X7286Y6196D01*
X7418Y6251D01*
X8162Y6251D01*
X8294Y6196D01*
X8396Y6094D01*
X8451Y5962D01*
X8451Y5818D01*
X8396Y5686D01*
X8294Y5584D01*
X8162Y5529D01*
X7418Y5529D01*
G37*
%LPD*%
%LPC*%
G36*
X1418Y6529D02*
X1418Y6529D01*
X1286Y6584D01*
X1184Y6686D01*
X1129Y6818D01*
X1129Y6962D01*
X1184Y7094D01*
X1286Y7196D01*
X1418Y7251D01*
X2162Y7251D01*
X2294Y7196D01*
X2396Y7094D01*
X2451Y6962D01*
X2451Y6818D01*
X2396Y6686D01*
X2294Y6584D01*
X2162Y6529D01*
X1418Y6529D01*
G37*
%LPD*%
%LPC*%
G36*
X7418Y6529D02*
X7418Y6529D01*
X7286Y6584D01*
X7184Y6686D01*
X7129Y6818D01*
X7129Y6962D01*
X7184Y7094D01*
X7286Y7196D01*
X7418Y7251D01*
X8162Y7251D01*
X8294Y7196D01*
X8396Y7094D01*
X8451Y6962D01*
X8451Y6818D01*
X8396Y6686D01*
X8294Y6584D01*
X8162Y6529D01*
X7418Y6529D01*
G37*
%LPD*%
%LPC*%
G36*
X7418Y7529D02*
X7418Y7529D01*
X7286Y7584D01*
X7184Y7686D01*
X7129Y7818D01*
X7129Y7962D01*
X7184Y8094D01*
X7286Y8196D01*
X7418Y8251D01*
X8162Y8251D01*
X8294Y8196D01*
X8396Y8094D01*
X8451Y7962D01*
X8451Y7818D01*
X8396Y7686D01*
X8294Y7584D01*
X8162Y7529D01*
X7418Y7529D01*
G37*
%LPD*%
%LPC*%
G36*
X1418Y7529D02*
X1418Y7529D01*
X1286Y7584D01*
X1184Y7686D01*
X1129Y7818D01*
X1129Y7962D01*
X1184Y8094D01*
X1286Y8196D01*
X1418Y8251D01*
X2162Y8251D01*
X2294Y8196D01*
X2396Y8094D01*
X2451Y7962D01*
X2451Y7818D01*
X2396Y7686D01*
X2294Y7584D01*
X2162Y7529D01*
X1418Y7529D01*
G37*
%LPD*%
%LPC*%
G36*
X7418Y8529D02*
X7418Y8529D01*
X7286Y8584D01*
X7184Y8686D01*
X7129Y8818D01*
X7129Y8962D01*
X7184Y9094D01*
X7286Y9196D01*
X7418Y9251D01*
X8162Y9251D01*
X8294Y9196D01*
X8396Y9094D01*
X8451Y8962D01*
X8451Y8818D01*
X8396Y8686D01*
X8294Y8584D01*
X8162Y8529D01*
X7418Y8529D01*
G37*
%LPD*%
%LPC*%
G36*
X1418Y8529D02*
X1418Y8529D01*
X1286Y8584D01*
X1184Y8686D01*
X1129Y8818D01*
X1129Y8962D01*
X1184Y9094D01*
X1286Y9196D01*
X1418Y9251D01*
X2162Y9251D01*
X2294Y9196D01*
X2396Y9094D01*
X2451Y8962D01*
X2451Y8818D01*
X2396Y8686D01*
X2294Y8584D01*
X2162Y8529D01*
X1418Y8529D01*
G37*
%LPD*%
%LPC*%
G36*
X7418Y9529D02*
X7418Y9529D01*
X7286Y9584D01*
X7184Y9686D01*
X7129Y9818D01*
X7129Y9962D01*
X7184Y10094D01*
X7286Y10196D01*
X7418Y10251D01*
X8162Y10251D01*
X8294Y10196D01*
X8396Y10094D01*
X8451Y9962D01*
X8451Y9818D01*
X8396Y9686D01*
X8294Y9584D01*
X8162Y9529D01*
X7418Y9529D01*
G37*
%LPD*%
%LPC*%
G36*
X7418Y529D02*
X7418Y529D01*
X7286Y584D01*
X7184Y686D01*
X7129Y818D01*
X7129Y962D01*
X7184Y1094D01*
X7286Y1196D01*
X7418Y1251D01*
X8162Y1251D01*
X8294Y1196D01*
X8396Y1094D01*
X8451Y962D01*
X8451Y818D01*
X8396Y686D01*
X8294Y584D01*
X8162Y529D01*
X7418Y529D01*
G37*
%LPD*%
%LPC*%
G36*
X1418Y9529D02*
X1418Y9529D01*
X1286Y9584D01*
X1184Y9686D01*
X1129Y9818D01*
X1129Y9962D01*
X1184Y10094D01*
X1286Y10196D01*
X1418Y10251D01*
X2162Y10251D01*
X2294Y10196D01*
X2396Y10094D01*
X2451Y9962D01*
X2451Y9818D01*
X2396Y9686D01*
X2294Y9584D01*
X2162Y9529D01*
X1418Y9529D01*
G37*
%LPD*%
%LPC*%
G36*
X1418Y19529D02*
X1418Y19529D01*
X1286Y19584D01*
X1184Y19686D01*
X1129Y19818D01*
X1129Y19962D01*
X1184Y20094D01*
X1286Y20196D01*
X1418Y20251D01*
X2162Y20251D01*
X2294Y20196D01*
X2396Y20094D01*
X2451Y19962D01*
X2451Y19818D01*
X2396Y19686D01*
X2294Y19584D01*
X2162Y19529D01*
X1418Y19529D01*
G37*
%LPD*%
%LPC*%
G36*
X1418Y18529D02*
X1418Y18529D01*
X1286Y18584D01*
X1184Y18686D01*
X1129Y18818D01*
X1129Y18962D01*
X1184Y19094D01*
X1286Y19196D01*
X1418Y19251D01*
X2162Y19251D01*
X2294Y19196D01*
X2396Y19094D01*
X2451Y18962D01*
X2451Y18818D01*
X2396Y18686D01*
X2294Y18584D01*
X2162Y18529D01*
X1418Y18529D01*
G37*
%LPD*%
%LPC*%
G36*
X1418Y2529D02*
X1418Y2529D01*
X1286Y2584D01*
X1184Y2686D01*
X1129Y2818D01*
X1129Y2962D01*
X1184Y3094D01*
X1286Y3196D01*
X1418Y3251D01*
X2162Y3251D01*
X2294Y3196D01*
X2396Y3094D01*
X2451Y2962D01*
X2451Y2818D01*
X2396Y2686D01*
X2294Y2584D01*
X2162Y2529D01*
X1418Y2529D01*
G37*
%LPD*%
%LPC*%
G36*
X1418Y10529D02*
X1418Y10529D01*
X1286Y10584D01*
X1184Y10686D01*
X1129Y10818D01*
X1129Y10962D01*
X1184Y11094D01*
X1286Y11196D01*
X1418Y11251D01*
X2162Y11251D01*
X2294Y11196D01*
X2396Y11094D01*
X2451Y10962D01*
X2451Y10818D01*
X2396Y10686D01*
X2294Y10584D01*
X2162Y10529D01*
X1418Y10529D01*
G37*
%LPD*%
%LPC*%
G36*
X7418Y10529D02*
X7418Y10529D01*
X7286Y10584D01*
X7184Y10686D01*
X7129Y10818D01*
X7129Y10962D01*
X7184Y11094D01*
X7286Y11196D01*
X7418Y11251D01*
X8162Y11251D01*
X8294Y11196D01*
X8396Y11094D01*
X8451Y10962D01*
X8451Y10818D01*
X8396Y10686D01*
X8294Y10584D01*
X8162Y10529D01*
X7418Y10529D01*
G37*
%LPD*%
%LPC*%
G36*
X7418Y11529D02*
X7418Y11529D01*
X7286Y11584D01*
X7184Y11686D01*
X7129Y11818D01*
X7129Y11962D01*
X7184Y12094D01*
X7286Y12196D01*
X7418Y12251D01*
X8162Y12251D01*
X8294Y12196D01*
X8396Y12094D01*
X8451Y11962D01*
X8451Y11818D01*
X8396Y11686D01*
X8294Y11584D01*
X8162Y11529D01*
X7418Y11529D01*
G37*
%LPD*%
%LPC*%
G36*
X1418Y11529D02*
X1418Y11529D01*
X1286Y11584D01*
X1184Y11686D01*
X1129Y11818D01*
X1129Y11962D01*
X1184Y12094D01*
X1286Y12196D01*
X1418Y12251D01*
X2162Y12251D01*
X2294Y12196D01*
X2396Y12094D01*
X2451Y11962D01*
X2451Y11818D01*
X2396Y11686D01*
X2294Y11584D01*
X2162Y11529D01*
X1418Y11529D01*
G37*
%LPD*%
%LPC*%
G36*
X7418Y12529D02*
X7418Y12529D01*
X7286Y12584D01*
X7184Y12686D01*
X7129Y12818D01*
X7129Y12962D01*
X7184Y13094D01*
X7286Y13196D01*
X7418Y13251D01*
X8162Y13251D01*
X8294Y13196D01*
X8396Y13094D01*
X8451Y12962D01*
X8451Y12818D01*
X8396Y12686D01*
X8294Y12584D01*
X8162Y12529D01*
X7418Y12529D01*
G37*
%LPD*%
%LPC*%
G36*
X1418Y12529D02*
X1418Y12529D01*
X1286Y12584D01*
X1184Y12686D01*
X1129Y12818D01*
X1129Y12962D01*
X1184Y13094D01*
X1286Y13196D01*
X1418Y13251D01*
X2162Y13251D01*
X2294Y13196D01*
X2396Y13094D01*
X2451Y12962D01*
X2451Y12818D01*
X2396Y12686D01*
X2294Y12584D01*
X2162Y12529D01*
X1418Y12529D01*
G37*
%LPD*%
%LPC*%
G36*
X7418Y13529D02*
X7418Y13529D01*
X7286Y13584D01*
X7184Y13686D01*
X7129Y13818D01*
X7129Y13962D01*
X7184Y14094D01*
X7286Y14196D01*
X7418Y14251D01*
X8162Y14251D01*
X8294Y14196D01*
X8396Y14094D01*
X8451Y13962D01*
X8451Y13818D01*
X8396Y13686D01*
X8294Y13584D01*
X8162Y13529D01*
X7418Y13529D01*
G37*
%LPD*%
%LPC*%
G36*
X1418Y17529D02*
X1418Y17529D01*
X1286Y17584D01*
X1184Y17686D01*
X1129Y17818D01*
X1129Y17962D01*
X1184Y18094D01*
X1286Y18196D01*
X1418Y18251D01*
X2162Y18251D01*
X2294Y18196D01*
X2396Y18094D01*
X2451Y17962D01*
X2451Y17818D01*
X2396Y17686D01*
X2294Y17584D01*
X2162Y17529D01*
X1418Y17529D01*
G37*
%LPD*%
%LPC*%
G36*
X1418Y13529D02*
X1418Y13529D01*
X1286Y13584D01*
X1184Y13686D01*
X1129Y13818D01*
X1129Y13962D01*
X1184Y14094D01*
X1286Y14196D01*
X1418Y14251D01*
X2162Y14251D01*
X2294Y14196D01*
X2396Y14094D01*
X2451Y13962D01*
X2451Y13818D01*
X2396Y13686D01*
X2294Y13584D01*
X2162Y13529D01*
X1418Y13529D01*
G37*
%LPD*%
%LPC*%
G36*
X7418Y14529D02*
X7418Y14529D01*
X7286Y14584D01*
X7184Y14686D01*
X7129Y14818D01*
X7129Y14962D01*
X7184Y15094D01*
X7286Y15196D01*
X7418Y15251D01*
X8162Y15251D01*
X8294Y15196D01*
X8396Y15094D01*
X8451Y14962D01*
X8451Y14818D01*
X8396Y14686D01*
X8294Y14584D01*
X8162Y14529D01*
X7418Y14529D01*
G37*
%LPD*%
%LPC*%
G36*
X1418Y14529D02*
X1418Y14529D01*
X1286Y14584D01*
X1184Y14686D01*
X1129Y14818D01*
X1129Y14962D01*
X1184Y15094D01*
X1286Y15196D01*
X1418Y15251D01*
X2162Y15251D01*
X2294Y15196D01*
X2396Y15094D01*
X2451Y14962D01*
X2451Y14818D01*
X2396Y14686D01*
X2294Y14584D01*
X2162Y14529D01*
X1418Y14529D01*
G37*
%LPD*%
%LPC*%
G36*
X7418Y2529D02*
X7418Y2529D01*
X7286Y2584D01*
X7184Y2686D01*
X7129Y2818D01*
X7129Y2962D01*
X7184Y3094D01*
X7286Y3196D01*
X7418Y3251D01*
X8162Y3251D01*
X8294Y3196D01*
X8396Y3094D01*
X8451Y2962D01*
X8451Y2818D01*
X8396Y2686D01*
X8294Y2584D01*
X8162Y2529D01*
X7418Y2529D01*
G37*
%LPD*%
%LPC*%
G36*
X1418Y15529D02*
X1418Y15529D01*
X1286Y15584D01*
X1184Y15686D01*
X1129Y15818D01*
X1129Y15962D01*
X1184Y16094D01*
X1286Y16196D01*
X1418Y16251D01*
X2162Y16251D01*
X2294Y16196D01*
X2396Y16094D01*
X2451Y15962D01*
X2451Y15818D01*
X2396Y15686D01*
X2294Y15584D01*
X2162Y15529D01*
X1418Y15529D01*
G37*
%LPD*%
%LPC*%
G36*
X7418Y15529D02*
X7418Y15529D01*
X7286Y15584D01*
X7184Y15686D01*
X7129Y15818D01*
X7129Y15962D01*
X7184Y16094D01*
X7286Y16196D01*
X7418Y16251D01*
X8162Y16251D01*
X8294Y16196D01*
X8396Y16094D01*
X8451Y15962D01*
X8451Y15818D01*
X8396Y15686D01*
X8294Y15584D01*
X8162Y15529D01*
X7418Y15529D01*
G37*
%LPD*%
%LPC*%
G36*
X7418Y16529D02*
X7418Y16529D01*
X7286Y16584D01*
X7184Y16686D01*
X7129Y16818D01*
X7129Y16962D01*
X7184Y17094D01*
X7286Y17196D01*
X7418Y17251D01*
X8162Y17251D01*
X8294Y17196D01*
X8396Y17094D01*
X8451Y16962D01*
X8451Y16818D01*
X8396Y16686D01*
X8294Y16584D01*
X8162Y16529D01*
X7418Y16529D01*
G37*
%LPD*%
%LPC*%
G36*
X1418Y16529D02*
X1418Y16529D01*
X1286Y16584D01*
X1184Y16686D01*
X1129Y16818D01*
X1129Y16962D01*
X1184Y17094D01*
X1286Y17196D01*
X1418Y17251D01*
X2162Y17251D01*
X2294Y17196D01*
X2396Y17094D01*
X2451Y16962D01*
X2451Y16818D01*
X2396Y16686D01*
X2294Y16584D01*
X2162Y16529D01*
X1418Y16529D01*
G37*
%LPD*%
%LPC*%
G36*
X1418Y1529D02*
X1418Y1529D01*
X1286Y1584D01*
X1184Y1686D01*
X1129Y1818D01*
X1129Y1962D01*
X1184Y2094D01*
X1286Y2196D01*
X1418Y2251D01*
X2162Y2251D01*
X2294Y2196D01*
X2396Y2094D01*
X2451Y1962D01*
X2451Y1818D01*
X2396Y1686D01*
X2294Y1584D01*
X2162Y1529D01*
X1418Y1529D01*
G37*
%LPD*%
%LPC*%
G36*
X7418Y1529D02*
X7418Y1529D01*
X7286Y1584D01*
X7184Y1686D01*
X7129Y1818D01*
X7129Y1962D01*
X7184Y2094D01*
X7286Y2196D01*
X7418Y2251D01*
X8162Y2251D01*
X8294Y2196D01*
X8396Y2094D01*
X8451Y1962D01*
X8451Y1818D01*
X8396Y1686D01*
X8294Y1584D01*
X8162Y1529D01*
X7418Y1529D01*
G37*
%LPD*%
%LPC*%
G36*
X19436Y15399D02*
X19436Y15399D01*
X19318Y15448D01*
X19228Y15538D01*
X19179Y15656D01*
X19179Y16304D01*
X19228Y16422D01*
X19318Y16512D01*
X19436Y16561D01*
X19564Y16561D01*
X19682Y16512D01*
X19772Y16422D01*
X19821Y16304D01*
X19821Y15656D01*
X19772Y15538D01*
X19682Y15448D01*
X19564Y15399D01*
X19436Y15399D01*
G37*
%LPD*%
%LPC*%
G36*
X16436Y15399D02*
X16436Y15399D01*
X16318Y15448D01*
X16228Y15538D01*
X16179Y15656D01*
X16179Y16304D01*
X16228Y16422D01*
X16318Y16512D01*
X16436Y16561D01*
X16564Y16561D01*
X16682Y16512D01*
X16772Y16422D01*
X16821Y16304D01*
X16821Y15656D01*
X16772Y15538D01*
X16682Y15448D01*
X16564Y15399D01*
X16436Y15399D01*
G37*
%LPD*%
%LPC*%
G36*
X14436Y15399D02*
X14436Y15399D01*
X14318Y15448D01*
X14228Y15538D01*
X14179Y15656D01*
X14179Y16304D01*
X14228Y16422D01*
X14318Y16512D01*
X14436Y16561D01*
X14564Y16561D01*
X14682Y16512D01*
X14772Y16422D01*
X14821Y16304D01*
X14821Y15656D01*
X14772Y15538D01*
X14682Y15448D01*
X14564Y15399D01*
X14436Y15399D01*
G37*
%LPD*%
%LPC*%
G36*
X21676Y29679D02*
X21676Y29679D01*
X21558Y29728D01*
X21468Y29818D01*
X21419Y29936D01*
X21419Y30064D01*
X21468Y30182D01*
X21558Y30272D01*
X21676Y30321D01*
X22324Y30321D01*
X22442Y30272D01*
X22532Y30182D01*
X22581Y30064D01*
X22581Y29936D01*
X22532Y29818D01*
X22442Y29728D01*
X22324Y29679D01*
X21676Y29679D01*
G37*
%LPD*%
%LPC*%
G36*
X15676Y29679D02*
X15676Y29679D01*
X15558Y29728D01*
X15468Y29818D01*
X15419Y29936D01*
X15419Y30064D01*
X15468Y30182D01*
X15558Y30272D01*
X15676Y30321D01*
X16324Y30321D01*
X16442Y30272D01*
X16532Y30182D01*
X16581Y30064D01*
X16581Y29936D01*
X16532Y29818D01*
X16442Y29728D01*
X16324Y29679D01*
X15676Y29679D01*
G37*
%LPD*%
%LPC*%
G36*
X18436Y15399D02*
X18436Y15399D01*
X18318Y15448D01*
X18228Y15538D01*
X18179Y15656D01*
X18179Y16304D01*
X18228Y16422D01*
X18318Y16512D01*
X18436Y16561D01*
X18564Y16561D01*
X18682Y16512D01*
X18772Y16422D01*
X18821Y16304D01*
X18821Y15656D01*
X18772Y15538D01*
X18682Y15448D01*
X18564Y15399D01*
X18436Y15399D01*
G37*
%LPD*%
%LPC*%
G36*
X15436Y15399D02*
X15436Y15399D01*
X15318Y15448D01*
X15228Y15538D01*
X15179Y15656D01*
X15179Y16304D01*
X15228Y16422D01*
X15318Y16512D01*
X15436Y16561D01*
X15564Y16561D01*
X15682Y16512D01*
X15772Y16422D01*
X15821Y16304D01*
X15821Y15656D01*
X15772Y15538D01*
X15682Y15448D01*
X15564Y15399D01*
X15436Y15399D01*
G37*
%LPD*%
%LPC*%
G36*
X21676Y28679D02*
X21676Y28679D01*
X21558Y28728D01*
X21468Y28818D01*
X21419Y28936D01*
X21419Y29064D01*
X21468Y29182D01*
X21558Y29272D01*
X21676Y29321D01*
X22324Y29321D01*
X22442Y29272D01*
X22532Y29182D01*
X22581Y29064D01*
X22581Y28936D01*
X22532Y28818D01*
X22442Y28728D01*
X22324Y28679D01*
X21676Y28679D01*
G37*
%LPD*%
%LPC*%
G36*
X15676Y28679D02*
X15676Y28679D01*
X15558Y28728D01*
X15468Y28818D01*
X15419Y28936D01*
X15419Y29064D01*
X15468Y29182D01*
X15558Y29272D01*
X15676Y29321D01*
X16324Y29321D01*
X16442Y29272D01*
X16532Y29182D01*
X16581Y29064D01*
X16581Y28936D01*
X16532Y28818D01*
X16442Y28728D01*
X16324Y28679D01*
X15676Y28679D01*
G37*
%LPD*%
%LPC*%
G36*
X626Y28279D02*
X626Y28279D01*
X508Y28328D01*
X418Y28418D01*
X369Y28536D01*
X369Y28664D01*
X418Y28782D01*
X508Y28872D01*
X626Y28921D01*
X1274Y28921D01*
X1392Y28872D01*
X1482Y28782D01*
X1531Y28664D01*
X1531Y28536D01*
X1482Y28418D01*
X1392Y28328D01*
X1274Y28279D01*
X626Y28279D01*
G37*
%LPD*%
%LPC*%
G36*
X626Y30279D02*
X626Y30279D01*
X508Y30328D01*
X418Y30418D01*
X369Y30536D01*
X369Y30664D01*
X418Y30782D01*
X508Y30872D01*
X626Y30921D01*
X1274Y30921D01*
X1392Y30872D01*
X1482Y30782D01*
X1531Y30664D01*
X1531Y30536D01*
X1482Y30418D01*
X1392Y30328D01*
X1274Y30279D01*
X626Y30279D01*
G37*
%LPD*%
%LPC*%
G36*
X20436Y15399D02*
X20436Y15399D01*
X20318Y15448D01*
X20228Y15538D01*
X20179Y15656D01*
X20179Y16304D01*
X20228Y16422D01*
X20318Y16512D01*
X20436Y16561D01*
X20564Y16561D01*
X20682Y16512D01*
X20772Y16422D01*
X20821Y16304D01*
X20821Y15656D01*
X20772Y15538D01*
X20682Y15448D01*
X20564Y15399D01*
X20436Y15399D01*
G37*
%LPD*%
%LPC*%
G36*
X15676Y27679D02*
X15676Y27679D01*
X15558Y27728D01*
X15468Y27818D01*
X15419Y27936D01*
X15419Y28064D01*
X15468Y28182D01*
X15558Y28272D01*
X15676Y28321D01*
X16324Y28321D01*
X16442Y28272D01*
X16532Y28182D01*
X16581Y28064D01*
X16581Y27936D01*
X16532Y27818D01*
X16442Y27728D01*
X16324Y27679D01*
X15676Y27679D01*
G37*
%LPD*%
%LPC*%
G36*
X21676Y27679D02*
X21676Y27679D01*
X21558Y27728D01*
X21468Y27818D01*
X21419Y27936D01*
X21419Y28064D01*
X21468Y28182D01*
X21558Y28272D01*
X21676Y28321D01*
X22324Y28321D01*
X22442Y28272D01*
X22532Y28182D01*
X22581Y28064D01*
X22581Y27936D01*
X22532Y27818D01*
X22442Y27728D01*
X22324Y27679D01*
X21676Y27679D01*
G37*
%LPD*%
%LPC*%
G36*
X-1014Y27299D02*
X-1014Y27299D01*
X-1132Y27348D01*
X-1222Y27438D01*
X-1271Y27556D01*
X-1271Y27684D01*
X-1222Y27802D01*
X-1132Y27892D01*
X-1014Y27941D01*
X-366Y27941D01*
X-248Y27892D01*
X-158Y27802D01*
X-109Y27684D01*
X-109Y27556D01*
X-158Y27438D01*
X-248Y27348D01*
X-366Y27299D01*
X-1014Y27299D01*
G37*
%LPD*%
%LPC*%
G36*
X626Y27279D02*
X626Y27279D01*
X508Y27328D01*
X418Y27418D01*
X369Y27536D01*
X369Y27664D01*
X418Y27782D01*
X508Y27872D01*
X626Y27921D01*
X1274Y27921D01*
X1392Y27872D01*
X1482Y27782D01*
X1531Y27664D01*
X1531Y27536D01*
X1482Y27418D01*
X1392Y27328D01*
X1274Y27279D01*
X626Y27279D01*
G37*
%LPD*%
%LPC*%
G36*
X3626Y27279D02*
X3626Y27279D01*
X3508Y27328D01*
X3418Y27418D01*
X3369Y27536D01*
X3369Y27664D01*
X3418Y27782D01*
X3508Y27872D01*
X3626Y27921D01*
X4274Y27921D01*
X4392Y27872D01*
X4482Y27782D01*
X4531Y27664D01*
X4531Y27536D01*
X4482Y27418D01*
X4392Y27328D01*
X4274Y27279D01*
X3626Y27279D01*
G37*
%LPD*%
%LPC*%
G36*
X13436Y15399D02*
X13436Y15399D01*
X13318Y15448D01*
X13228Y15538D01*
X13179Y15656D01*
X13179Y16304D01*
X13228Y16422D01*
X13318Y16512D01*
X13436Y16561D01*
X13564Y16561D01*
X13682Y16512D01*
X13772Y16422D01*
X13821Y16304D01*
X13821Y15656D01*
X13772Y15538D01*
X13682Y15448D01*
X13564Y15399D01*
X13436Y15399D01*
G37*
%LPD*%
%LPC*%
G36*
X17436Y15399D02*
X17436Y15399D01*
X17318Y15448D01*
X17228Y15538D01*
X17179Y15656D01*
X17179Y16304D01*
X17228Y16422D01*
X17318Y16512D01*
X17436Y16561D01*
X17564Y16561D01*
X17682Y16512D01*
X17772Y16422D01*
X17821Y16304D01*
X17821Y15656D01*
X17772Y15538D01*
X17682Y15448D01*
X17564Y15399D01*
X17436Y15399D01*
G37*
%LPD*%
%LPC*%
G36*
X15676Y26679D02*
X15676Y26679D01*
X15558Y26728D01*
X15468Y26818D01*
X15419Y26936D01*
X15419Y27064D01*
X15468Y27182D01*
X15558Y27272D01*
X15676Y27321D01*
X16324Y27321D01*
X16442Y27272D01*
X16532Y27182D01*
X16581Y27064D01*
X16581Y26936D01*
X16532Y26818D01*
X16442Y26728D01*
X16324Y26679D01*
X15676Y26679D01*
G37*
%LPD*%
%LPC*%
G36*
X21676Y26679D02*
X21676Y26679D01*
X21558Y26728D01*
X21468Y26818D01*
X21419Y26936D01*
X21419Y27064D01*
X21468Y27182D01*
X21558Y27272D01*
X21676Y27321D01*
X22324Y27321D01*
X22442Y27272D01*
X22532Y27182D01*
X22581Y27064D01*
X22581Y26936D01*
X22532Y26818D01*
X22442Y26728D01*
X22324Y26679D01*
X21676Y26679D01*
G37*
%LPD*%
%LPC*%
G36*
X14136Y26629D02*
X14136Y26629D01*
X14018Y26678D01*
X13928Y26768D01*
X13879Y26886D01*
X13879Y27014D01*
X13928Y27132D01*
X14018Y27222D01*
X14136Y27271D01*
X14784Y27271D01*
X14902Y27222D01*
X14992Y27132D01*
X15041Y27014D01*
X15041Y26886D01*
X14992Y26768D01*
X14902Y26678D01*
X14784Y26629D01*
X14136Y26629D01*
G37*
%LPD*%
%LPC*%
G36*
X-1014Y26299D02*
X-1014Y26299D01*
X-1132Y26348D01*
X-1222Y26438D01*
X-1271Y26556D01*
X-1271Y26684D01*
X-1222Y26802D01*
X-1132Y26892D01*
X-1014Y26941D01*
X-366Y26941D01*
X-248Y26892D01*
X-158Y26802D01*
X-109Y26684D01*
X-109Y26556D01*
X-158Y26438D01*
X-248Y26348D01*
X-366Y26299D01*
X-1014Y26299D01*
G37*
%LPD*%
%LPC*%
G36*
X626Y26279D02*
X626Y26279D01*
X508Y26328D01*
X418Y26418D01*
X369Y26536D01*
X369Y26664D01*
X418Y26782D01*
X508Y26872D01*
X626Y26921D01*
X1274Y26921D01*
X1392Y26872D01*
X1482Y26782D01*
X1531Y26664D01*
X1531Y26536D01*
X1482Y26418D01*
X1392Y26328D01*
X1274Y26279D01*
X626Y26279D01*
G37*
%LPD*%
%LPC*%
G36*
X20436Y919D02*
X20436Y919D01*
X20318Y968D01*
X20228Y1058D01*
X20179Y1176D01*
X20179Y1824D01*
X20228Y1942D01*
X20318Y2032D01*
X20436Y2081D01*
X20564Y2081D01*
X20682Y2032D01*
X20772Y1942D01*
X20821Y1824D01*
X20821Y1176D01*
X20772Y1058D01*
X20682Y968D01*
X20564Y919D01*
X20436Y919D01*
G37*
%LPD*%
%LPC*%
G36*
X19436Y919D02*
X19436Y919D01*
X19318Y968D01*
X19228Y1058D01*
X19179Y1176D01*
X19179Y1824D01*
X19228Y1942D01*
X19318Y2032D01*
X19436Y2081D01*
X19564Y2081D01*
X19682Y2032D01*
X19772Y1942D01*
X19821Y1824D01*
X19821Y1176D01*
X19772Y1058D01*
X19682Y968D01*
X19564Y919D01*
X19436Y919D01*
G37*
%LPD*%
%LPC*%
G36*
X21676Y25679D02*
X21676Y25679D01*
X21558Y25728D01*
X21468Y25818D01*
X21419Y25936D01*
X21419Y26064D01*
X21468Y26182D01*
X21558Y26272D01*
X21676Y26321D01*
X22324Y26321D01*
X22442Y26272D01*
X22532Y26182D01*
X22581Y26064D01*
X22581Y25936D01*
X22532Y25818D01*
X22442Y25728D01*
X22324Y25679D01*
X21676Y25679D01*
G37*
%LPD*%
%LPC*%
G36*
X15676Y25679D02*
X15676Y25679D01*
X15558Y25728D01*
X15468Y25818D01*
X15419Y25936D01*
X15419Y26064D01*
X15468Y26182D01*
X15558Y26272D01*
X15676Y26321D01*
X16324Y26321D01*
X16442Y26272D01*
X16532Y26182D01*
X16581Y26064D01*
X16581Y25936D01*
X16532Y25818D01*
X16442Y25728D01*
X16324Y25679D01*
X15676Y25679D01*
G37*
%LPD*%
%LPC*%
G36*
X-1014Y25299D02*
X-1014Y25299D01*
X-1132Y25348D01*
X-1222Y25438D01*
X-1271Y25556D01*
X-1271Y25684D01*
X-1222Y25802D01*
X-1132Y25892D01*
X-1014Y25941D01*
X-366Y25941D01*
X-248Y25892D01*
X-158Y25802D01*
X-109Y25684D01*
X-109Y25556D01*
X-158Y25438D01*
X-248Y25348D01*
X-366Y25299D01*
X-1014Y25299D01*
G37*
%LPD*%
%LPC*%
G36*
X626Y25279D02*
X626Y25279D01*
X508Y25328D01*
X418Y25418D01*
X369Y25536D01*
X369Y25664D01*
X418Y25782D01*
X508Y25872D01*
X626Y25921D01*
X1274Y25921D01*
X1392Y25872D01*
X1482Y25782D01*
X1531Y25664D01*
X1531Y25536D01*
X1482Y25418D01*
X1392Y25328D01*
X1274Y25279D01*
X626Y25279D01*
G37*
%LPD*%
%LPC*%
G36*
X-1014Y32299D02*
X-1014Y32299D01*
X-1132Y32348D01*
X-1222Y32438D01*
X-1271Y32556D01*
X-1271Y32684D01*
X-1222Y32802D01*
X-1132Y32892D01*
X-1014Y32941D01*
X-366Y32941D01*
X-248Y32892D01*
X-158Y32802D01*
X-109Y32684D01*
X-109Y32556D01*
X-158Y32438D01*
X-248Y32348D01*
X-366Y32299D01*
X-1014Y32299D01*
G37*
%LPD*%
%LPC*%
G36*
X18436Y919D02*
X18436Y919D01*
X18318Y968D01*
X18228Y1058D01*
X18179Y1176D01*
X18179Y1824D01*
X18228Y1942D01*
X18318Y2032D01*
X18436Y2081D01*
X18564Y2081D01*
X18682Y2032D01*
X18772Y1942D01*
X18821Y1824D01*
X18821Y1176D01*
X18772Y1058D01*
X18682Y968D01*
X18564Y919D01*
X18436Y919D01*
G37*
%LPD*%
%LPC*%
G36*
X17436Y919D02*
X17436Y919D01*
X17318Y968D01*
X17228Y1058D01*
X17179Y1176D01*
X17179Y1824D01*
X17228Y1942D01*
X17318Y2032D01*
X17436Y2081D01*
X17564Y2081D01*
X17682Y2032D01*
X17772Y1942D01*
X17821Y1824D01*
X17821Y1176D01*
X17772Y1058D01*
X17682Y968D01*
X17564Y919D01*
X17436Y919D01*
G37*
%LPD*%
%LPC*%
G36*
X21676Y24679D02*
X21676Y24679D01*
X21558Y24728D01*
X21468Y24818D01*
X21419Y24936D01*
X21419Y25064D01*
X21468Y25182D01*
X21558Y25272D01*
X21676Y25321D01*
X22324Y25321D01*
X22442Y25272D01*
X22532Y25182D01*
X22581Y25064D01*
X22581Y24936D01*
X22532Y24818D01*
X22442Y24728D01*
X22324Y24679D01*
X21676Y24679D01*
G37*
%LPD*%
%LPC*%
G36*
X15676Y24679D02*
X15676Y24679D01*
X15558Y24728D01*
X15468Y24818D01*
X15419Y24936D01*
X15419Y25064D01*
X15468Y25182D01*
X15558Y25272D01*
X15676Y25321D01*
X16324Y25321D01*
X16442Y25272D01*
X16532Y25182D01*
X16581Y25064D01*
X16581Y24936D01*
X16532Y24818D01*
X16442Y24728D01*
X16324Y24679D01*
X15676Y24679D01*
G37*
%LPD*%
%LPC*%
G36*
X5466Y24300D02*
X5466Y24300D01*
X5348Y24349D01*
X5258Y24439D01*
X5209Y24557D01*
X5209Y24685D01*
X5258Y24803D01*
X5348Y24893D01*
X5466Y24942D01*
X6114Y24942D01*
X6232Y24893D01*
X6322Y24803D01*
X6371Y24685D01*
X6371Y24557D01*
X6322Y24439D01*
X6232Y24349D01*
X6114Y24300D01*
X5466Y24300D01*
G37*
%LPD*%
%LPC*%
G36*
X-1014Y24299D02*
X-1014Y24299D01*
X-1132Y24348D01*
X-1222Y24438D01*
X-1271Y24556D01*
X-1271Y24684D01*
X-1222Y24802D01*
X-1132Y24892D01*
X-1014Y24941D01*
X-366Y24941D01*
X-248Y24892D01*
X-158Y24802D01*
X-109Y24684D01*
X-109Y24556D01*
X-158Y24438D01*
X-248Y24348D01*
X-366Y24299D01*
X-1014Y24299D01*
G37*
%LPD*%
%LPC*%
G36*
X626Y24279D02*
X626Y24279D01*
X508Y24328D01*
X418Y24418D01*
X369Y24536D01*
X369Y24664D01*
X418Y24782D01*
X508Y24872D01*
X626Y24921D01*
X1274Y24921D01*
X1392Y24872D01*
X1482Y24782D01*
X1531Y24664D01*
X1531Y24536D01*
X1482Y24418D01*
X1392Y24328D01*
X1274Y24279D01*
X626Y24279D01*
G37*
%LPD*%
%LPC*%
G36*
X16436Y919D02*
X16436Y919D01*
X16318Y968D01*
X16228Y1058D01*
X16179Y1176D01*
X16179Y1824D01*
X16228Y1942D01*
X16318Y2032D01*
X16436Y2081D01*
X16564Y2081D01*
X16682Y2032D01*
X16772Y1942D01*
X16821Y1824D01*
X16821Y1176D01*
X16772Y1058D01*
X16682Y968D01*
X16564Y919D01*
X16436Y919D01*
G37*
%LPD*%
%LPC*%
G36*
X14436Y9399D02*
X14436Y9399D01*
X14318Y9448D01*
X14228Y9538D01*
X14179Y9656D01*
X14179Y10304D01*
X14228Y10422D01*
X14318Y10512D01*
X14436Y10561D01*
X14564Y10561D01*
X14682Y10512D01*
X14772Y10422D01*
X14821Y10304D01*
X14821Y9656D01*
X14772Y9538D01*
X14682Y9448D01*
X14564Y9399D01*
X14436Y9399D01*
G37*
%LPD*%
%LPC*%
G36*
X15676Y23679D02*
X15676Y23679D01*
X15558Y23728D01*
X15468Y23818D01*
X15419Y23936D01*
X15419Y24064D01*
X15468Y24182D01*
X15558Y24272D01*
X15676Y24321D01*
X16324Y24321D01*
X16442Y24272D01*
X16532Y24182D01*
X16581Y24064D01*
X16581Y23936D01*
X16532Y23818D01*
X16442Y23728D01*
X16324Y23679D01*
X15676Y23679D01*
G37*
%LPD*%
%LPC*%
G36*
X21676Y23679D02*
X21676Y23679D01*
X21558Y23728D01*
X21468Y23818D01*
X21419Y23936D01*
X21419Y24064D01*
X21468Y24182D01*
X21558Y24272D01*
X21676Y24321D01*
X22324Y24321D01*
X22442Y24272D01*
X22532Y24182D01*
X22581Y24064D01*
X22581Y23936D01*
X22532Y23818D01*
X22442Y23728D01*
X22324Y23679D01*
X21676Y23679D01*
G37*
%LPD*%
%LPC*%
G36*
X626Y23279D02*
X626Y23279D01*
X508Y23328D01*
X418Y23418D01*
X369Y23536D01*
X369Y23664D01*
X418Y23782D01*
X508Y23872D01*
X626Y23921D01*
X1274Y23921D01*
X1392Y23872D01*
X1482Y23782D01*
X1531Y23664D01*
X1531Y23536D01*
X1482Y23418D01*
X1392Y23328D01*
X1274Y23279D01*
X626Y23279D01*
G37*
%LPD*%
%LPC*%
G36*
X3626Y23279D02*
X3626Y23279D01*
X3508Y23328D01*
X3418Y23418D01*
X3369Y23536D01*
X3369Y23664D01*
X3418Y23782D01*
X3508Y23872D01*
X3626Y23921D01*
X4274Y23921D01*
X4392Y23872D01*
X4482Y23782D01*
X4531Y23664D01*
X4531Y23536D01*
X4482Y23418D01*
X4392Y23328D01*
X4274Y23279D01*
X3626Y23279D01*
G37*
%LPD*%
%LPC*%
G36*
X21676Y18679D02*
X21676Y18679D01*
X21558Y18728D01*
X21468Y18818D01*
X21419Y18936D01*
X21419Y19064D01*
X21468Y19182D01*
X21558Y19272D01*
X21676Y19321D01*
X22324Y19321D01*
X22442Y19272D01*
X22532Y19182D01*
X22581Y19064D01*
X22581Y18936D01*
X22532Y18818D01*
X22442Y18728D01*
X22324Y18679D01*
X21676Y18679D01*
G37*
%LPD*%
%LPC*%
G36*
X15436Y919D02*
X15436Y919D01*
X15318Y968D01*
X15228Y1058D01*
X15179Y1176D01*
X15179Y1824D01*
X15228Y1942D01*
X15318Y2032D01*
X15436Y2081D01*
X15564Y2081D01*
X15682Y2032D01*
X15772Y1942D01*
X15821Y1824D01*
X15821Y1176D01*
X15772Y1058D01*
X15682Y968D01*
X15564Y919D01*
X15436Y919D01*
G37*
%LPD*%
%LPC*%
G36*
X15676Y22679D02*
X15676Y22679D01*
X15558Y22728D01*
X15468Y22818D01*
X15419Y22936D01*
X15419Y23064D01*
X15468Y23182D01*
X15558Y23272D01*
X15676Y23321D01*
X16324Y23321D01*
X16442Y23272D01*
X16532Y23182D01*
X16581Y23064D01*
X16581Y22936D01*
X16532Y22818D01*
X16442Y22728D01*
X16324Y22679D01*
X15676Y22679D01*
G37*
%LPD*%
%LPC*%
G36*
X21676Y22679D02*
X21676Y22679D01*
X21558Y22728D01*
X21468Y22818D01*
X21419Y22936D01*
X21419Y23064D01*
X21468Y23182D01*
X21558Y23272D01*
X21676Y23321D01*
X22324Y23321D01*
X22442Y23272D01*
X22532Y23182D01*
X22581Y23064D01*
X22581Y22936D01*
X22532Y22818D01*
X22442Y22728D01*
X22324Y22679D01*
X21676Y22679D01*
G37*
%LPD*%
%LPC*%
G36*
X13436Y919D02*
X13436Y919D01*
X13318Y968D01*
X13228Y1058D01*
X13179Y1176D01*
X13179Y1824D01*
X13228Y1942D01*
X13318Y2032D01*
X13436Y2081D01*
X13564Y2081D01*
X13682Y2032D01*
X13772Y1942D01*
X13821Y1824D01*
X13821Y1176D01*
X13772Y1058D01*
X13682Y968D01*
X13564Y919D01*
X13436Y919D01*
G37*
%LPD*%
%LPC*%
G36*
X14436Y919D02*
X14436Y919D01*
X14318Y968D01*
X14228Y1058D01*
X14179Y1176D01*
X14179Y1824D01*
X14228Y1942D01*
X14318Y2032D01*
X14436Y2081D01*
X14564Y2081D01*
X14682Y2032D01*
X14772Y1942D01*
X14821Y1824D01*
X14821Y1176D01*
X14772Y1058D01*
X14682Y968D01*
X14564Y919D01*
X14436Y919D01*
G37*
%LPD*%
%LPC*%
G36*
X13436Y9399D02*
X13436Y9399D01*
X13318Y9448D01*
X13228Y9538D01*
X13179Y9656D01*
X13179Y10304D01*
X13228Y10422D01*
X13318Y10512D01*
X13436Y10561D01*
X13564Y10561D01*
X13682Y10512D01*
X13772Y10422D01*
X13821Y10304D01*
X13821Y9656D01*
X13772Y9538D01*
X13682Y9448D01*
X13564Y9399D01*
X13436Y9399D01*
G37*
%LPD*%
%LPC*%
G36*
X21676Y19679D02*
X21676Y19679D01*
X21558Y19728D01*
X21468Y19818D01*
X21419Y19936D01*
X21419Y20064D01*
X21468Y20182D01*
X21558Y20272D01*
X21676Y20321D01*
X22324Y20321D01*
X22442Y20272D01*
X22532Y20182D01*
X22581Y20064D01*
X22581Y19936D01*
X22532Y19818D01*
X22442Y19728D01*
X22324Y19679D01*
X21676Y19679D01*
G37*
%LPD*%
%LPC*%
G36*
X15676Y21679D02*
X15676Y21679D01*
X15558Y21728D01*
X15468Y21818D01*
X15419Y21936D01*
X15419Y22064D01*
X15468Y22182D01*
X15558Y22272D01*
X15676Y22321D01*
X16324Y22321D01*
X16442Y22272D01*
X16532Y22182D01*
X16581Y22064D01*
X16581Y21936D01*
X16532Y21818D01*
X16442Y21728D01*
X16324Y21679D01*
X15676Y21679D01*
G37*
%LPD*%
%LPC*%
G36*
X21676Y21679D02*
X21676Y21679D01*
X21558Y21728D01*
X21468Y21818D01*
X21419Y21936D01*
X21419Y22064D01*
X21468Y22182D01*
X21558Y22272D01*
X21676Y22321D01*
X22324Y22321D01*
X22442Y22272D01*
X22532Y22182D01*
X22581Y22064D01*
X22581Y21936D01*
X22532Y21818D01*
X22442Y21728D01*
X22324Y21679D01*
X21676Y21679D01*
G37*
%LPD*%
%LPC*%
G36*
X15676Y19679D02*
X15676Y19679D01*
X15558Y19728D01*
X15468Y19818D01*
X15419Y19936D01*
X15419Y20064D01*
X15468Y20182D01*
X15558Y20272D01*
X15676Y20321D01*
X16324Y20321D01*
X16442Y20272D01*
X16532Y20182D01*
X16581Y20064D01*
X16581Y19936D01*
X16532Y19818D01*
X16442Y19728D01*
X16324Y19679D01*
X15676Y19679D01*
G37*
%LPD*%
%LPC*%
G36*
X15676Y20679D02*
X15676Y20679D01*
X15558Y20728D01*
X15468Y20818D01*
X15419Y20936D01*
X15419Y21064D01*
X15468Y21182D01*
X15558Y21272D01*
X15676Y21321D01*
X16324Y21321D01*
X16442Y21272D01*
X16532Y21182D01*
X16581Y21064D01*
X16581Y20936D01*
X16532Y20818D01*
X16442Y20728D01*
X16324Y20679D01*
X15676Y20679D01*
G37*
%LPD*%
%LPC*%
G36*
X21676Y20679D02*
X21676Y20679D01*
X21558Y20728D01*
X21468Y20818D01*
X21419Y20936D01*
X21419Y21064D01*
X21468Y21182D01*
X21558Y21272D01*
X21676Y21321D01*
X22324Y21321D01*
X22442Y21272D01*
X22532Y21182D01*
X22581Y21064D01*
X22581Y20936D01*
X22532Y20818D01*
X22442Y20728D01*
X22324Y20679D01*
X21676Y20679D01*
G37*
%LPD*%
%LPC*%
G36*
X23851Y20639D02*
X23851Y20639D01*
X23639Y20851D01*
X23639Y21149D01*
X23851Y21361D01*
X24149Y21361D01*
X24361Y21149D01*
X24361Y20851D01*
X24149Y20639D01*
X23851Y20639D01*
G37*
%LPD*%
%LPC*%
G36*
X17851Y35639D02*
X17851Y35639D01*
X17639Y35851D01*
X17639Y36149D01*
X17851Y36361D01*
X18149Y36361D01*
X18361Y36149D01*
X18361Y35851D01*
X18149Y35639D01*
X17851Y35639D01*
G37*
%LPD*%
%LPC*%
G36*
X24851Y19639D02*
X24851Y19639D01*
X24639Y19851D01*
X24639Y20149D01*
X24851Y20361D01*
X25149Y20361D01*
X25361Y20149D01*
X25361Y19851D01*
X25149Y19639D01*
X24851Y19639D01*
G37*
%LPD*%
%LPC*%
G36*
X23851Y19639D02*
X23851Y19639D01*
X23639Y19851D01*
X23639Y20149D01*
X23851Y20361D01*
X24149Y20361D01*
X24361Y20149D01*
X24361Y19851D01*
X24149Y19639D01*
X23851Y19639D01*
G37*
%LPD*%
%LPC*%
G36*
X24851Y20639D02*
X24851Y20639D01*
X24639Y20851D01*
X24639Y21149D01*
X24851Y21361D01*
X25149Y21361D01*
X25361Y21149D01*
X25361Y20851D01*
X25149Y20639D01*
X24851Y20639D01*
G37*
%LPD*%
%LPC*%
G36*
X24851Y21639D02*
X24851Y21639D01*
X24639Y21851D01*
X24639Y22149D01*
X24851Y22361D01*
X25149Y22361D01*
X25361Y22149D01*
X25361Y21851D01*
X25149Y21639D01*
X24851Y21639D01*
G37*
%LPD*%
%LPC*%
G36*
X23851Y21639D02*
X23851Y21639D01*
X23639Y21851D01*
X23639Y22149D01*
X23851Y22361D01*
X24149Y22361D01*
X24361Y22149D01*
X24361Y21851D01*
X24149Y21639D01*
X23851Y21639D01*
G37*
%LPD*%
%LPC*%
G36*
X24851Y18639D02*
X24851Y18639D01*
X24639Y18851D01*
X24639Y19149D01*
X24851Y19361D01*
X25149Y19361D01*
X25361Y19149D01*
X25361Y18851D01*
X25149Y18639D01*
X24851Y18639D01*
G37*
%LPD*%
%LPC*%
G36*
X10851Y35639D02*
X10851Y35639D01*
X10639Y35851D01*
X10639Y36149D01*
X10851Y36361D01*
X11149Y36361D01*
X11361Y36149D01*
X11361Y35851D01*
X11149Y35639D01*
X10851Y35639D01*
G37*
%LPD*%
%LPC*%
G36*
X24851Y22639D02*
X24851Y22639D01*
X24639Y22851D01*
X24639Y23149D01*
X24851Y23361D01*
X25149Y23361D01*
X25361Y23149D01*
X25361Y22851D01*
X25149Y22639D01*
X24851Y22639D01*
G37*
%LPD*%
%LPC*%
G36*
X23851Y18639D02*
X23851Y18639D01*
X23639Y18851D01*
X23639Y19149D01*
X23851Y19361D01*
X24149Y19361D01*
X24361Y19149D01*
X24361Y18851D01*
X24149Y18639D01*
X23851Y18639D01*
G37*
%LPD*%
%LPC*%
G36*
X23851Y22639D02*
X23851Y22639D01*
X23639Y22851D01*
X23639Y23149D01*
X23851Y23361D01*
X24149Y23361D01*
X24361Y23149D01*
X24361Y22851D01*
X24149Y22639D01*
X23851Y22639D01*
G37*
%LPD*%
%LPC*%
G36*
X24851Y23639D02*
X24851Y23639D01*
X24639Y23851D01*
X24639Y24149D01*
X24851Y24361D01*
X25149Y24361D01*
X25361Y24149D01*
X25361Y23851D01*
X25149Y23639D01*
X24851Y23639D01*
G37*
%LPD*%
%LPC*%
G36*
X23851Y23639D02*
X23851Y23639D01*
X23639Y23851D01*
X23639Y24149D01*
X23851Y24361D01*
X24149Y24361D01*
X24361Y24149D01*
X24361Y23851D01*
X24149Y23639D01*
X23851Y23639D01*
G37*
%LPD*%
%LPC*%
G36*
X24851Y24639D02*
X24851Y24639D01*
X24639Y24851D01*
X24639Y25149D01*
X24851Y25361D01*
X25149Y25361D01*
X25361Y25149D01*
X25361Y24851D01*
X25149Y24639D01*
X24851Y24639D01*
G37*
%LPD*%
%LPC*%
G36*
X23851Y24639D02*
X23851Y24639D01*
X23639Y24851D01*
X23639Y25149D01*
X23851Y25361D01*
X24149Y25361D01*
X24361Y25149D01*
X24361Y24851D01*
X24149Y24639D01*
X23851Y24639D01*
G37*
%LPD*%
%LPC*%
G36*
X18851Y35639D02*
X18851Y35639D01*
X18639Y35851D01*
X18639Y36149D01*
X18851Y36361D01*
X19149Y36361D01*
X19361Y36149D01*
X19361Y35851D01*
X19149Y35639D01*
X18851Y35639D01*
G37*
%LPD*%
%LPC*%
G36*
X24851Y17639D02*
X24851Y17639D01*
X24639Y17851D01*
X24639Y18149D01*
X24851Y18361D01*
X25149Y18361D01*
X25361Y18149D01*
X25361Y17851D01*
X25149Y17639D01*
X24851Y17639D01*
G37*
%LPD*%
%LPC*%
G36*
X23851Y17639D02*
X23851Y17639D01*
X23639Y17851D01*
X23639Y18149D01*
X23851Y18361D01*
X24149Y18361D01*
X24361Y18149D01*
X24361Y17851D01*
X24149Y17639D01*
X23851Y17639D01*
G37*
%LPD*%
%LPC*%
G36*
X23851Y2639D02*
X23851Y2639D01*
X23639Y2851D01*
X23639Y3149D01*
X23851Y3361D01*
X24149Y3361D01*
X24361Y3149D01*
X24361Y2851D01*
X24149Y2639D01*
X23851Y2639D01*
G37*
%LPD*%
%LPC*%
G36*
X11851Y35639D02*
X11851Y35639D01*
X11639Y35851D01*
X11639Y36149D01*
X11851Y36361D01*
X12149Y36361D01*
X12361Y36149D01*
X12361Y35851D01*
X12149Y35639D01*
X11851Y35639D01*
G37*
%LPD*%
%LPC*%
G36*
X16851Y35639D02*
X16851Y35639D01*
X16639Y35851D01*
X16639Y36149D01*
X16851Y36361D01*
X17149Y36361D01*
X17361Y36149D01*
X17361Y35851D01*
X17149Y35639D01*
X16851Y35639D01*
G37*
%LPD*%
%LPC*%
G36*
X23851Y25639D02*
X23851Y25639D01*
X23639Y25851D01*
X23639Y26149D01*
X23851Y26361D01*
X24149Y26361D01*
X24361Y26149D01*
X24361Y25851D01*
X24149Y25639D01*
X23851Y25639D01*
G37*
%LPD*%
%LPC*%
G36*
X12851Y35639D02*
X12851Y35639D01*
X12639Y35851D01*
X12639Y36149D01*
X12851Y36361D01*
X13149Y36361D01*
X13361Y36149D01*
X13361Y35851D01*
X13149Y35639D01*
X12851Y35639D01*
G37*
%LPD*%
%LPC*%
G36*
X24851Y3639D02*
X24851Y3639D01*
X24639Y3851D01*
X24639Y4149D01*
X24851Y4361D01*
X25149Y4361D01*
X25361Y4149D01*
X25361Y3851D01*
X25149Y3639D01*
X24851Y3639D01*
G37*
%LPD*%
%LPC*%
G36*
X24851Y16639D02*
X24851Y16639D01*
X24639Y16851D01*
X24639Y17149D01*
X24851Y17361D01*
X25149Y17361D01*
X25361Y17149D01*
X25361Y16851D01*
X25149Y16639D01*
X24851Y16639D01*
G37*
%LPD*%
%LPC*%
G36*
X23851Y16639D02*
X23851Y16639D01*
X23639Y16851D01*
X23639Y17149D01*
X23851Y17361D01*
X24149Y17361D01*
X24361Y17149D01*
X24361Y16851D01*
X24149Y16639D01*
X23851Y16639D01*
G37*
%LPD*%
%LPC*%
G36*
X24851Y25639D02*
X24851Y25639D01*
X24639Y25851D01*
X24639Y26149D01*
X24851Y26361D01*
X25149Y26361D01*
X25361Y26149D01*
X25361Y25851D01*
X25149Y25639D01*
X24851Y25639D01*
G37*
%LPD*%
%LPC*%
G36*
X24851Y26639D02*
X24851Y26639D01*
X24639Y26851D01*
X24639Y27149D01*
X24851Y27361D01*
X25149Y27361D01*
X25361Y27149D01*
X25361Y26851D01*
X25149Y26639D01*
X24851Y26639D01*
G37*
%LPD*%
%LPC*%
G36*
X23851Y26639D02*
X23851Y26639D01*
X23639Y26851D01*
X23639Y27149D01*
X23851Y27361D01*
X24149Y27361D01*
X24361Y27149D01*
X24361Y26851D01*
X24149Y26639D01*
X23851Y26639D01*
G37*
%LPD*%
%LPC*%
G36*
X24851Y27639D02*
X24851Y27639D01*
X24639Y27851D01*
X24639Y28149D01*
X24851Y28361D01*
X25149Y28361D01*
X25361Y28149D01*
X25361Y27851D01*
X25149Y27639D01*
X24851Y27639D01*
G37*
%LPD*%
%LPC*%
G36*
X23851Y27639D02*
X23851Y27639D01*
X23639Y27851D01*
X23639Y28149D01*
X23851Y28361D01*
X24149Y28361D01*
X24361Y28149D01*
X24361Y27851D01*
X24149Y27639D01*
X23851Y27639D01*
G37*
%LPD*%
%LPC*%
G36*
X24851Y28639D02*
X24851Y28639D01*
X24639Y28851D01*
X24639Y29149D01*
X24851Y29361D01*
X25149Y29361D01*
X25361Y29149D01*
X25361Y28851D01*
X25149Y28639D01*
X24851Y28639D01*
G37*
%LPD*%
%LPC*%
G36*
X23851Y28639D02*
X23851Y28639D01*
X23639Y28851D01*
X23639Y29149D01*
X23851Y29361D01*
X24149Y29361D01*
X24361Y29149D01*
X24361Y28851D01*
X24149Y28639D01*
X23851Y28639D01*
G37*
%LPD*%
%LPC*%
G36*
X24851Y29639D02*
X24851Y29639D01*
X24639Y29851D01*
X24639Y30149D01*
X24851Y30361D01*
X25149Y30361D01*
X25361Y30149D01*
X25361Y29851D01*
X25149Y29639D01*
X24851Y29639D01*
G37*
%LPD*%
%LPC*%
G36*
X23851Y29639D02*
X23851Y29639D01*
X23639Y29851D01*
X23639Y30149D01*
X23851Y30361D01*
X24149Y30361D01*
X24361Y30149D01*
X24361Y29851D01*
X24149Y29639D01*
X23851Y29639D01*
G37*
%LPD*%
%LPC*%
G36*
X24851Y639D02*
X24851Y639D01*
X24639Y851D01*
X24639Y1149D01*
X24851Y1361D01*
X25149Y1361D01*
X25361Y1149D01*
X25361Y851D01*
X25149Y639D01*
X24851Y639D01*
G37*
%LPD*%
%LPC*%
G36*
X23851Y639D02*
X23851Y639D01*
X23639Y851D01*
X23639Y1149D01*
X23851Y1361D01*
X24149Y1361D01*
X24361Y1149D01*
X24361Y851D01*
X24149Y639D01*
X23851Y639D01*
G37*
%LPD*%
%LPC*%
G36*
X14851Y31639D02*
X14851Y31639D01*
X14639Y31851D01*
X14639Y32149D01*
X14851Y32361D01*
X15149Y32361D01*
X15361Y32149D01*
X15361Y31851D01*
X15149Y31639D01*
X14851Y31639D01*
G37*
%LPD*%
%LPC*%
G36*
X15851Y31639D02*
X15851Y31639D01*
X15639Y31851D01*
X15639Y32149D01*
X15851Y32361D01*
X16149Y32361D01*
X16361Y32149D01*
X16361Y31851D01*
X16149Y31639D01*
X15851Y31639D01*
G37*
%LPD*%
%LPC*%
G36*
X24851Y15639D02*
X24851Y15639D01*
X24639Y15851D01*
X24639Y16149D01*
X24851Y16361D01*
X25149Y16361D01*
X25361Y16149D01*
X25361Y15851D01*
X25149Y15639D01*
X24851Y15639D01*
G37*
%LPD*%
%LPC*%
G36*
X23851Y15639D02*
X23851Y15639D01*
X23639Y15851D01*
X23639Y16149D01*
X23851Y16361D01*
X24149Y16361D01*
X24361Y16149D01*
X24361Y15851D01*
X24149Y15639D01*
X23851Y15639D01*
G37*
%LPD*%
%LPC*%
G36*
X16851Y31639D02*
X16851Y31639D01*
X16639Y31851D01*
X16639Y32149D01*
X16851Y32361D01*
X17149Y32361D01*
X17361Y32149D01*
X17361Y31851D01*
X17149Y31639D01*
X16851Y31639D01*
G37*
%LPD*%
%LPC*%
G36*
X17851Y31639D02*
X17851Y31639D01*
X17639Y31851D01*
X17639Y32149D01*
X17851Y32361D01*
X18149Y32361D01*
X18361Y32149D01*
X18361Y31851D01*
X18149Y31639D01*
X17851Y31639D01*
G37*
%LPD*%
%LPC*%
G36*
X24851Y1639D02*
X24851Y1639D01*
X24639Y1851D01*
X24639Y2149D01*
X24851Y2361D01*
X25149Y2361D01*
X25361Y2149D01*
X25361Y1851D01*
X25149Y1639D01*
X24851Y1639D01*
G37*
%LPD*%
%LPC*%
G36*
X23851Y1639D02*
X23851Y1639D01*
X23639Y1851D01*
X23639Y2149D01*
X23851Y2361D01*
X24149Y2361D01*
X24361Y2149D01*
X24361Y1851D01*
X24149Y1639D01*
X23851Y1639D01*
G37*
%LPD*%
%LPC*%
G36*
X18851Y31639D02*
X18851Y31639D01*
X18639Y31851D01*
X18639Y32149D01*
X18851Y32361D01*
X19149Y32361D01*
X19361Y32149D01*
X19361Y31851D01*
X19149Y31639D01*
X18851Y31639D01*
G37*
%LPD*%
%LPC*%
G36*
X24851Y14639D02*
X24851Y14639D01*
X24639Y14851D01*
X24639Y15149D01*
X24851Y15361D01*
X25149Y15361D01*
X25361Y15149D01*
X25361Y14851D01*
X25149Y14639D01*
X24851Y14639D01*
G37*
%LPD*%
%LPC*%
G36*
X23851Y14639D02*
X23851Y14639D01*
X23639Y14851D01*
X23639Y15149D01*
X23851Y15361D01*
X24149Y15361D01*
X24361Y15149D01*
X24361Y14851D01*
X24149Y14639D01*
X23851Y14639D01*
G37*
%LPD*%
%LPC*%
G36*
X13851Y31639D02*
X13851Y31639D01*
X13639Y31851D01*
X13639Y32149D01*
X13851Y32361D01*
X14149Y32361D01*
X14361Y32149D01*
X14361Y31851D01*
X14149Y31639D01*
X13851Y31639D01*
G37*
%LPD*%
%LPC*%
G36*
X19851Y31639D02*
X19851Y31639D01*
X19639Y31851D01*
X19639Y32149D01*
X19851Y32361D01*
X20149Y32361D01*
X20361Y32149D01*
X20361Y31851D01*
X20149Y31639D01*
X19851Y31639D01*
G37*
%LPD*%
%LPC*%
G36*
X23851Y13639D02*
X23851Y13639D01*
X23639Y13851D01*
X23639Y14149D01*
X23851Y14361D01*
X24149Y14361D01*
X24361Y14149D01*
X24361Y13851D01*
X24149Y13639D01*
X23851Y13639D01*
G37*
%LPD*%
%LPC*%
G36*
X24851Y13639D02*
X24851Y13639D01*
X24639Y13851D01*
X24639Y14149D01*
X24851Y14361D01*
X25149Y14361D01*
X25361Y14149D01*
X25361Y13851D01*
X25149Y13639D01*
X24851Y13639D01*
G37*
%LPD*%
%LPC*%
G36*
X23851Y3639D02*
X23851Y3639D01*
X23639Y3851D01*
X23639Y4149D01*
X23851Y4361D01*
X24149Y4361D01*
X24361Y4149D01*
X24361Y3851D01*
X24149Y3639D01*
X23851Y3639D01*
G37*
%LPD*%
%LPC*%
G36*
X16851Y32639D02*
X16851Y32639D01*
X16639Y32851D01*
X16639Y33149D01*
X16851Y33361D01*
X17149Y33361D01*
X17361Y33149D01*
X17361Y32851D01*
X17149Y32639D01*
X16851Y32639D01*
G37*
%LPD*%
%LPC*%
G36*
X24851Y12639D02*
X24851Y12639D01*
X24639Y12851D01*
X24639Y13149D01*
X24851Y13361D01*
X25149Y13361D01*
X25361Y13149D01*
X25361Y12851D01*
X25149Y12639D01*
X24851Y12639D01*
G37*
%LPD*%
%LPC*%
G36*
X23851Y12639D02*
X23851Y12639D01*
X23639Y12851D01*
X23639Y13149D01*
X23851Y13361D01*
X24149Y13361D01*
X24361Y13149D01*
X24361Y12851D01*
X24149Y12639D01*
X23851Y12639D01*
G37*
%LPD*%
%LPC*%
G36*
X17851Y32639D02*
X17851Y32639D01*
X17639Y32851D01*
X17639Y33149D01*
X17851Y33361D01*
X18149Y33361D01*
X18361Y33149D01*
X18361Y32851D01*
X18149Y32639D01*
X17851Y32639D01*
G37*
%LPD*%
%LPC*%
G36*
X18851Y32639D02*
X18851Y32639D01*
X18639Y32851D01*
X18639Y33149D01*
X18851Y33361D01*
X19149Y33361D01*
X19361Y33149D01*
X19361Y32851D01*
X19149Y32639D01*
X18851Y32639D01*
G37*
%LPD*%
%LPC*%
G36*
X23851Y11639D02*
X23851Y11639D01*
X23639Y11851D01*
X23639Y12149D01*
X23851Y12361D01*
X24149Y12361D01*
X24361Y12149D01*
X24361Y11851D01*
X24149Y11639D01*
X23851Y11639D01*
G37*
%LPD*%
%LPC*%
G36*
X24851Y11639D02*
X24851Y11639D01*
X24639Y11851D01*
X24639Y12149D01*
X24851Y12361D01*
X25149Y12361D01*
X25361Y12149D01*
X25361Y11851D01*
X25149Y11639D01*
X24851Y11639D01*
G37*
%LPD*%
%LPC*%
G36*
X19851Y32639D02*
X19851Y32639D01*
X19639Y32851D01*
X19639Y33149D01*
X19851Y33361D01*
X20149Y33361D01*
X20361Y33149D01*
X20361Y32851D01*
X20149Y32639D01*
X19851Y32639D01*
G37*
%LPD*%
%LPC*%
G36*
X15851Y32639D02*
X15851Y32639D01*
X15639Y32851D01*
X15639Y33149D01*
X15851Y33361D01*
X16149Y33361D01*
X16361Y33149D01*
X16361Y32851D01*
X16149Y32639D01*
X15851Y32639D01*
G37*
%LPD*%
%LPC*%
G36*
X23851Y10639D02*
X23851Y10639D01*
X23639Y10851D01*
X23639Y11149D01*
X23851Y11361D01*
X24149Y11361D01*
X24361Y11149D01*
X24361Y10851D01*
X24149Y10639D01*
X23851Y10639D01*
G37*
%LPD*%
%LPC*%
G36*
X24851Y10639D02*
X24851Y10639D01*
X24639Y10851D01*
X24639Y11149D01*
X24851Y11361D01*
X25149Y11361D01*
X25361Y11149D01*
X25361Y10851D01*
X25149Y10639D01*
X24851Y10639D01*
G37*
%LPD*%
%LPC*%
G36*
X13851Y32639D02*
X13851Y32639D01*
X13639Y32851D01*
X13639Y33149D01*
X13851Y33361D01*
X14149Y33361D01*
X14361Y33149D01*
X14361Y32851D01*
X14149Y32639D01*
X13851Y32639D01*
G37*
%LPD*%
%LPC*%
G36*
X14851Y32639D02*
X14851Y32639D01*
X14639Y32851D01*
X14639Y33149D01*
X14851Y33361D01*
X15149Y33361D01*
X15361Y33149D01*
X15361Y32851D01*
X15149Y32639D01*
X14851Y32639D01*
G37*
%LPD*%
%LPC*%
G36*
X15851Y35639D02*
X15851Y35639D01*
X15639Y35851D01*
X15639Y36149D01*
X15851Y36361D01*
X16149Y36361D01*
X16361Y36149D01*
X16361Y35851D01*
X16149Y35639D01*
X15851Y35639D01*
G37*
%LPD*%
%LPC*%
G36*
X24851Y2639D02*
X24851Y2639D01*
X24639Y2851D01*
X24639Y3149D01*
X24851Y3361D01*
X25149Y3361D01*
X25361Y3149D01*
X25361Y2851D01*
X25149Y2639D01*
X24851Y2639D01*
G37*
%LPD*%
%LPC*%
G36*
X19851Y35639D02*
X19851Y35639D01*
X19639Y35851D01*
X19639Y36149D01*
X19851Y36361D01*
X20149Y36361D01*
X20361Y36149D01*
X20361Y35851D01*
X20149Y35639D01*
X19851Y35639D01*
G37*
%LPD*%
%LPC*%
G36*
X14851Y35639D02*
X14851Y35639D01*
X14639Y35851D01*
X14639Y36149D01*
X14851Y36361D01*
X15149Y36361D01*
X15361Y36149D01*
X15361Y35851D01*
X15149Y35639D01*
X14851Y35639D01*
G37*
%LPD*%
%LPC*%
G36*
X13851Y35639D02*
X13851Y35639D01*
X13639Y35851D01*
X13639Y36149D01*
X13851Y36361D01*
X14149Y36361D01*
X14361Y36149D01*
X14361Y35851D01*
X14149Y35639D01*
X13851Y35639D01*
G37*
%LPD*%
%LPC*%
G36*
X23851Y9639D02*
X23851Y9639D01*
X23639Y9851D01*
X23639Y10149D01*
X23851Y10361D01*
X24149Y10361D01*
X24361Y10149D01*
X24361Y9851D01*
X24149Y9639D01*
X23851Y9639D01*
G37*
%LPD*%
%LPC*%
G36*
X24851Y9639D02*
X24851Y9639D01*
X24639Y9851D01*
X24639Y10149D01*
X24851Y10361D01*
X25149Y10361D01*
X25361Y10149D01*
X25361Y9851D01*
X25149Y9639D01*
X24851Y9639D01*
G37*
%LPD*%
%LPC*%
G36*
X14851Y34639D02*
X14851Y34639D01*
X14639Y34851D01*
X14639Y35149D01*
X14851Y35361D01*
X15149Y35361D01*
X15361Y35149D01*
X15361Y34851D01*
X15149Y34639D01*
X14851Y34639D01*
G37*
%LPD*%
%LPC*%
G36*
X13851Y34639D02*
X13851Y34639D01*
X13639Y34851D01*
X13639Y35149D01*
X13851Y35361D01*
X14149Y35361D01*
X14361Y35149D01*
X14361Y34851D01*
X14149Y34639D01*
X13851Y34639D01*
G37*
%LPD*%
%LPC*%
G36*
X11851Y34639D02*
X11851Y34639D01*
X11639Y34851D01*
X11639Y35149D01*
X11851Y35361D01*
X12149Y35361D01*
X12361Y35149D01*
X12361Y34851D01*
X12149Y34639D01*
X11851Y34639D01*
G37*
%LPD*%
%LPC*%
G36*
X12851Y34639D02*
X12851Y34639D01*
X12639Y34851D01*
X12639Y35149D01*
X12851Y35361D01*
X13149Y35361D01*
X13361Y35149D01*
X13361Y34851D01*
X13149Y34639D01*
X12851Y34639D01*
G37*
%LPD*%
%LPC*%
G36*
X15851Y34639D02*
X15851Y34639D01*
X15639Y34851D01*
X15639Y35149D01*
X15851Y35361D01*
X16149Y35361D01*
X16361Y35149D01*
X16361Y34851D01*
X16149Y34639D01*
X15851Y34639D01*
G37*
%LPD*%
%LPC*%
G36*
X16851Y34639D02*
X16851Y34639D01*
X16639Y34851D01*
X16639Y35149D01*
X16851Y35361D01*
X17149Y35361D01*
X17361Y35149D01*
X17361Y34851D01*
X17149Y34639D01*
X16851Y34639D01*
G37*
%LPD*%
%LPC*%
G36*
X17851Y34639D02*
X17851Y34639D01*
X17639Y34851D01*
X17639Y35149D01*
X17851Y35361D01*
X18149Y35361D01*
X18361Y35149D01*
X18361Y34851D01*
X18149Y34639D01*
X17851Y34639D01*
G37*
%LPD*%
%LPC*%
G36*
X18851Y34639D02*
X18851Y34639D01*
X18639Y34851D01*
X18639Y35149D01*
X18851Y35361D01*
X19149Y35361D01*
X19361Y35149D01*
X19361Y34851D01*
X19149Y34639D01*
X18851Y34639D01*
G37*
%LPD*%
%LPC*%
G36*
X19851Y34639D02*
X19851Y34639D01*
X19639Y34851D01*
X19639Y35149D01*
X19851Y35361D01*
X20149Y35361D01*
X20361Y35149D01*
X20361Y34851D01*
X20149Y34639D01*
X19851Y34639D01*
G37*
%LPD*%
%LPC*%
G36*
X7094Y17949D02*
X7094Y17949D01*
X7099Y17984D01*
X7119Y18044D01*
X7147Y18100D01*
X7184Y18151D01*
X7229Y18196D01*
X7280Y18233D01*
X7336Y18261D01*
X7396Y18281D01*
X7458Y18291D01*
X7731Y18291D01*
X7731Y17949D01*
X7094Y17949D01*
G37*
%LPD*%
%LPC*%
G36*
X1094Y949D02*
X1094Y949D01*
X1099Y984D01*
X1119Y1044D01*
X1147Y1100D01*
X1184Y1151D01*
X1229Y1196D01*
X1280Y1233D01*
X1336Y1261D01*
X1396Y1281D01*
X1458Y1291D01*
X1731Y1291D01*
X1731Y949D01*
X1094Y949D01*
G37*
%LPD*%
%LPC*%
G36*
X1849Y949D02*
X1849Y949D01*
X1849Y1291D01*
X2122Y1291D01*
X2184Y1281D01*
X2244Y1261D01*
X2300Y1233D01*
X2351Y1196D01*
X2396Y1151D01*
X2433Y1100D01*
X2461Y1044D01*
X2481Y984D01*
X2486Y949D01*
X1849Y949D01*
G37*
%LPD*%
%LPC*%
G36*
X7849Y17949D02*
X7849Y17949D01*
X7849Y18291D01*
X8122Y18291D01*
X8184Y18281D01*
X8244Y18261D01*
X8300Y18233D01*
X8351Y18196D01*
X8396Y18151D01*
X8433Y18100D01*
X8461Y18044D01*
X8481Y17984D01*
X8486Y17949D01*
X7849Y17949D01*
G37*
%LPD*%
%LPC*%
G36*
X1849Y489D02*
X1849Y489D01*
X1849Y831D01*
X2486Y831D01*
X2481Y796D01*
X2461Y736D01*
X2433Y680D01*
X2396Y629D01*
X2351Y584D01*
X2300Y547D01*
X2244Y519D01*
X2184Y499D01*
X2122Y489D01*
X1849Y489D01*
G37*
%LPD*%
%LPC*%
G36*
X7849Y17489D02*
X7849Y17489D01*
X7849Y17831D01*
X8486Y17831D01*
X8481Y17796D01*
X8461Y17736D01*
X8433Y17680D01*
X8396Y17629D01*
X8351Y17584D01*
X8300Y17547D01*
X8244Y17519D01*
X8184Y17499D01*
X8122Y17489D01*
X7849Y17489D01*
G37*
%LPD*%
%LPC*%
G36*
X1458Y489D02*
X1458Y489D01*
X1396Y499D01*
X1336Y519D01*
X1280Y547D01*
X1229Y584D01*
X1184Y629D01*
X1147Y680D01*
X1119Y736D01*
X1099Y796D01*
X1094Y831D01*
X1731Y831D01*
X1731Y489D01*
X1458Y489D01*
G37*
%LPD*%
%LPC*%
G36*
X7458Y17489D02*
X7458Y17489D01*
X7396Y17499D01*
X7336Y17519D01*
X7280Y17547D01*
X7229Y17584D01*
X7184Y17629D01*
X7147Y17680D01*
X7119Y17736D01*
X7099Y17796D01*
X7094Y17831D01*
X7731Y17831D01*
X7731Y17489D01*
X7458Y17489D01*
G37*
%LPD*%
%LPC*%
G36*
X16059Y19059D02*
X16059Y19059D01*
X16059Y19361D01*
X16296Y19361D01*
X16365Y19347D01*
X16431Y19320D01*
X16490Y19280D01*
X16540Y19230D01*
X16580Y19171D01*
X16607Y19105D01*
X16616Y19059D01*
X16059Y19059D01*
G37*
%LPD*%
%LPC*%
G36*
X21559Y10039D02*
X21559Y10039D01*
X21559Y10596D01*
X21605Y10587D01*
X21671Y10560D01*
X21730Y10520D01*
X21780Y10470D01*
X21820Y10411D01*
X21847Y10345D01*
X21861Y10276D01*
X21861Y10039D01*
X21559Y10039D01*
G37*
%LPD*%
%LPC*%
G36*
X3334Y30659D02*
X3334Y30659D01*
X3343Y30705D01*
X3370Y30771D01*
X3410Y30830D01*
X3460Y30880D01*
X3519Y30920D01*
X3585Y30947D01*
X3654Y30961D01*
X3891Y30961D01*
X3891Y30659D01*
X3334Y30659D01*
G37*
%LPD*%
%LPC*%
G36*
X21559Y15921D02*
X21559Y15921D01*
X21861Y15921D01*
X21861Y15684D01*
X21847Y15615D01*
X21820Y15549D01*
X21780Y15490D01*
X21730Y15440D01*
X21671Y15400D01*
X21605Y15373D01*
X21559Y15364D01*
X21559Y15921D01*
G37*
%LPD*%
%LPC*%
G36*
X21559Y1441D02*
X21559Y1441D01*
X21861Y1441D01*
X21861Y1204D01*
X21847Y1135D01*
X21820Y1069D01*
X21780Y1010D01*
X21730Y960D01*
X21671Y920D01*
X21605Y893D01*
X21559Y884D01*
X21559Y1441D01*
G37*
%LPD*%
%LPC*%
G36*
X7804Y23009D02*
X7804Y23009D01*
X7813Y23055D01*
X7840Y23121D01*
X7880Y23180D01*
X7930Y23230D01*
X7989Y23270D01*
X8055Y23297D01*
X8124Y23311D01*
X8361Y23311D01*
X8361Y23009D01*
X7804Y23009D01*
G37*
%LPD*%
%LPC*%
G36*
X21559Y16039D02*
X21559Y16039D01*
X21559Y16596D01*
X21605Y16587D01*
X21671Y16560D01*
X21730Y16520D01*
X21780Y16470D01*
X21820Y16411D01*
X21847Y16345D01*
X21861Y16276D01*
X21861Y16039D01*
X21559Y16039D01*
G37*
%LPD*%
%LPC*%
G36*
X21559Y1559D02*
X21559Y1559D01*
X21559Y2116D01*
X21605Y2107D01*
X21671Y2080D01*
X21730Y2040D01*
X21780Y1990D01*
X21820Y1931D01*
X21847Y1865D01*
X21861Y1796D01*
X21861Y1559D01*
X21559Y1559D01*
G37*
%LPD*%
%LPC*%
G36*
X15384Y19059D02*
X15384Y19059D01*
X15393Y19105D01*
X15420Y19171D01*
X15460Y19230D01*
X15510Y19280D01*
X15569Y19320D01*
X15635Y19347D01*
X15704Y19361D01*
X15941Y19361D01*
X15941Y19059D01*
X15384Y19059D01*
G37*
%LPD*%
%LPC*%
G36*
X8124Y22589D02*
X8124Y22589D01*
X8055Y22603D01*
X7989Y22630D01*
X7930Y22670D01*
X7880Y22720D01*
X7840Y22779D01*
X7813Y22845D01*
X7804Y22891D01*
X8361Y22891D01*
X8361Y22589D01*
X8124Y22589D01*
G37*
%LPD*%
%LPC*%
G36*
X3654Y30239D02*
X3654Y30239D01*
X3585Y30253D01*
X3519Y30280D01*
X3460Y30320D01*
X3410Y30370D01*
X3370Y30429D01*
X3343Y30495D01*
X3334Y30541D01*
X3891Y30541D01*
X3891Y30239D01*
X3654Y30239D01*
G37*
%LPD*%
%LPC*%
G36*
X15704Y18639D02*
X15704Y18639D01*
X15635Y18653D01*
X15569Y18680D01*
X15510Y18720D01*
X15460Y18770D01*
X15420Y18829D01*
X15393Y18895D01*
X15384Y18941D01*
X15941Y18941D01*
X15941Y18639D01*
X15704Y18639D01*
G37*
%LPD*%
%LPC*%
G36*
X16059Y18639D02*
X16059Y18639D01*
X16059Y18941D01*
X16616Y18941D01*
X16607Y18895D01*
X16580Y18829D01*
X16540Y18770D01*
X16490Y18720D01*
X16431Y18680D01*
X16365Y18653D01*
X16296Y18639D01*
X16059Y18639D01*
G37*
%LPD*%
%LPC*%
G36*
X21139Y10039D02*
X21139Y10039D01*
X21139Y10276D01*
X21153Y10345D01*
X21180Y10411D01*
X21220Y10470D01*
X21270Y10520D01*
X21329Y10560D01*
X21395Y10587D01*
X21441Y10596D01*
X21441Y10039D01*
X21139Y10039D01*
G37*
%LPD*%
%LPC*%
G36*
X21139Y1559D02*
X21139Y1559D01*
X21139Y1796D01*
X21153Y1865D01*
X21180Y1931D01*
X21220Y1990D01*
X21270Y2040D01*
X21329Y2080D01*
X21395Y2107D01*
X21441Y2116D01*
X21441Y1559D01*
X21139Y1559D01*
G37*
%LPD*%
%LPC*%
G36*
X21395Y893D02*
X21395Y893D01*
X21329Y920D01*
X21270Y960D01*
X21220Y1010D01*
X21180Y1069D01*
X21153Y1135D01*
X21139Y1204D01*
X21139Y1441D01*
X21441Y1441D01*
X21441Y884D01*
X21395Y893D01*
G37*
%LPD*%
%LPC*%
G36*
X21139Y16039D02*
X21139Y16039D01*
X21139Y16276D01*
X21153Y16345D01*
X21180Y16411D01*
X21220Y16470D01*
X21270Y16520D01*
X21329Y16560D01*
X21395Y16587D01*
X21441Y16596D01*
X21441Y16039D01*
X21139Y16039D01*
G37*
%LPD*%
%LPC*%
G36*
X21395Y15373D02*
X21395Y15373D01*
X21329Y15400D01*
X21270Y15440D01*
X21220Y15490D01*
X21180Y15549D01*
X21153Y15615D01*
X21139Y15684D01*
X21139Y15921D01*
X21441Y15921D01*
X21441Y15364D01*
X21395Y15373D01*
G37*
%LPD*%
%LPC*%
G36*
X10599Y35059D02*
X10599Y35059D01*
X10599Y35166D01*
X10834Y35401D01*
X10941Y35401D01*
X10941Y35059D01*
X10599Y35059D01*
G37*
%LPD*%
%LPC*%
G36*
X10599Y32059D02*
X10599Y32059D01*
X10599Y32166D01*
X10834Y32401D01*
X10941Y32401D01*
X10941Y32059D01*
X10599Y32059D01*
G37*
%LPD*%
%LPC*%
G36*
X11059Y35059D02*
X11059Y35059D01*
X11059Y35401D01*
X11166Y35401D01*
X11401Y35166D01*
X11401Y35059D01*
X11059Y35059D01*
G37*
%LPD*%
%LPC*%
G36*
X10834Y34599D02*
X10834Y34599D01*
X10599Y34834D01*
X10599Y34941D01*
X10941Y34941D01*
X10941Y34599D01*
X10834Y34599D01*
G37*
%LPD*%
%LPC*%
G36*
X11059Y34599D02*
X11059Y34599D01*
X11059Y34941D01*
X11401Y34941D01*
X11401Y34834D01*
X11166Y34599D01*
X11059Y34599D01*
G37*
%LPD*%
%LPC*%
G36*
X12639Y17019D02*
X12639Y17019D01*
X12639Y17109D01*
X12851Y17321D01*
X12941Y17321D01*
X12941Y17019D01*
X12639Y17019D01*
G37*
%LPD*%
%LPC*%
G36*
X7789Y17889D02*
X7789Y17889D01*
X7789Y17891D01*
X7791Y17891D01*
X7791Y17889D01*
X7789Y17889D01*
G37*
%LPD*%
%LPC*%
G36*
X1789Y889D02*
X1789Y889D01*
X1789Y891D01*
X1791Y891D01*
X1791Y889D01*
X1789Y889D01*
G37*
%LPD*%
%LPC*%
G36*
X10999Y34999D02*
X10999Y34999D01*
X10999Y35001D01*
X11001Y35001D01*
X11001Y34999D01*
X10999Y34999D01*
G37*
%LPD*%
%LPC*%
G36*
X21499Y15979D02*
X21499Y15979D01*
X21499Y15981D01*
X21501Y15981D01*
X21501Y15979D01*
X21499Y15979D01*
G37*
%LPD*%
%LPC*%
G36*
X21499Y1499D02*
X21499Y1499D01*
X21499Y1501D01*
X21501Y1501D01*
X21501Y1499D01*
X21499Y1499D01*
G37*
%LPD*%
%LPC*%
G36*
X15999Y18999D02*
X15999Y18999D01*
X15999Y19001D01*
X16001Y19001D01*
X16001Y18999D01*
X15999Y18999D01*
G37*
%LPD*%
D10*
X22260Y19000D02*
X21740Y19000D01*
X21740Y20000D02*
X22260Y20000D01*
X22260Y21000D02*
X21740Y21000D01*
X21740Y22000D02*
X22260Y22000D01*
X22260Y23000D02*
X21740Y23000D01*
X21740Y24000D02*
X22260Y24000D01*
X22260Y25000D02*
X21740Y25000D01*
X21740Y26000D02*
X22260Y26000D01*
X22260Y27000D02*
X21740Y27000D01*
X21740Y28000D02*
X22260Y28000D01*
X22260Y29000D02*
X21740Y29000D01*
X21740Y30000D02*
X22260Y30000D01*
X16260Y30000D02*
X15740Y30000D01*
X15740Y29000D02*
X16260Y29000D01*
X16260Y28000D02*
X15740Y28000D01*
X15740Y27000D02*
X16260Y27000D01*
X16260Y26000D02*
X15740Y26000D01*
X15740Y25000D02*
X16260Y25000D01*
X16260Y24000D02*
X15740Y24000D01*
X15740Y23000D02*
X16260Y23000D01*
X16260Y22000D02*
X15740Y22000D01*
X15740Y21000D02*
X16260Y21000D01*
X16260Y20000D02*
X15740Y20000D01*
X15740Y19000D02*
X16260Y19000D01*
X21500Y16240D02*
X21500Y15720D01*
X20500Y15720D02*
X20500Y16240D01*
X19500Y16240D02*
X19500Y15720D01*
X18500Y15720D02*
X18500Y16240D01*
X17500Y16240D02*
X17500Y15720D01*
X16500Y15720D02*
X16500Y16240D01*
X15500Y16240D02*
X15500Y15720D01*
X14500Y15720D02*
X14500Y16240D01*
X13500Y16240D02*
X13500Y15720D01*
X12500Y15720D02*
X12500Y16240D01*
X11500Y16240D02*
X11500Y15720D01*
X10500Y15720D02*
X10500Y16240D01*
X10500Y10240D02*
X10500Y9720D01*
X11500Y9720D02*
X11500Y10240D01*
X12500Y10240D02*
X12500Y9720D01*
X13500Y9720D02*
X13500Y10240D01*
X14500Y10240D02*
X14500Y9720D01*
X15500Y9720D02*
X15500Y10240D01*
X16500Y10240D02*
X16500Y9720D01*
X17500Y9720D02*
X17500Y10240D01*
X18500Y10240D02*
X18500Y9720D01*
X19500Y9720D02*
X19500Y10240D01*
X20500Y10240D02*
X20500Y9720D01*
X21500Y9720D02*
X21500Y10240D01*
D11*
X25000Y30000D03*
X25000Y29000D03*
X25000Y28000D03*
X25000Y27000D03*
X25000Y26000D03*
X25000Y25000D03*
X25000Y24000D03*
X25000Y23000D03*
X25000Y22000D03*
X25000Y21000D03*
X25000Y20000D03*
X25000Y19000D03*
X25000Y18000D03*
X25000Y17000D03*
X25000Y16000D03*
X25000Y15000D03*
X25000Y14000D03*
X25000Y13000D03*
X25000Y12000D03*
X24000Y30000D03*
X24000Y29000D03*
X24000Y28000D03*
X24000Y27000D03*
X24000Y26000D03*
X24000Y25000D03*
X24000Y24000D03*
X24000Y23000D03*
X24000Y22000D03*
X24000Y21000D03*
X24000Y20000D03*
X24000Y19000D03*
X24000Y18000D03*
X24000Y17000D03*
X24000Y16000D03*
X24000Y15000D03*
X24000Y14000D03*
X24000Y13000D03*
X24000Y12000D03*
X25000Y11000D03*
X24000Y11000D03*
X24000Y10000D03*
X25000Y10000D03*
X24000Y9000D03*
X25000Y9000D03*
X24000Y8000D03*
X25000Y8000D03*
X24000Y7000D03*
X25000Y7000D03*
X24000Y6000D03*
X25000Y6000D03*
X24000Y5000D03*
X25000Y5000D03*
X24000Y4000D03*
X25000Y4000D03*
X24000Y3000D03*
X25000Y3000D03*
X24000Y2000D03*
X25000Y2000D03*
X24000Y1000D03*
X25000Y1000D03*
D12*
X11000Y35000D03*
X11000Y36000D03*
X12000Y35000D03*
X12000Y36000D03*
X13000Y35000D03*
X13000Y36000D03*
X14000Y35000D03*
X14000Y36000D03*
X15000Y35000D03*
X15000Y36000D03*
X16000Y35000D03*
X16000Y36000D03*
X17000Y35000D03*
X17000Y36000D03*
X18000Y35000D03*
X18000Y36000D03*
X19000Y35000D03*
X19000Y36000D03*
X20000Y35000D03*
X20000Y36000D03*
D10*
X21500Y7760D02*
X21500Y7240D01*
X20500Y7240D02*
X20500Y7760D01*
X19500Y7760D02*
X19500Y7240D01*
X18500Y7240D02*
X18500Y7760D01*
X17500Y7760D02*
X17500Y7240D01*
X16500Y7240D02*
X16500Y7760D01*
X15500Y7760D02*
X15500Y7240D01*
X14500Y7240D02*
X14500Y7760D01*
X13500Y7760D02*
X13500Y7240D01*
X12500Y7240D02*
X12500Y7760D01*
X11500Y7760D02*
X11500Y7240D01*
X10500Y7240D02*
X10500Y7760D01*
X10500Y1760D02*
X10500Y1240D01*
X11500Y1240D02*
X11500Y1760D01*
X12500Y1760D02*
X12500Y1240D01*
X13500Y1240D02*
X13500Y1760D01*
X14500Y1760D02*
X14500Y1240D01*
X15500Y1240D02*
X15500Y1760D01*
X16500Y1760D02*
X16500Y1240D01*
X17500Y1240D02*
X17500Y1760D01*
X18500Y1760D02*
X18500Y1240D01*
X19500Y1240D02*
X19500Y1760D01*
X20500Y1760D02*
X20500Y1240D01*
X21500Y1240D02*
X21500Y1760D01*
X11680Y22950D02*
X11160Y22950D01*
X11160Y23950D02*
X11680Y23950D01*
X11680Y28950D02*
X11160Y28950D01*
X11160Y29950D02*
X11680Y29950D01*
X11680Y24950D02*
X11160Y24950D01*
X11160Y25950D02*
X11680Y25950D01*
X11680Y27950D02*
X11160Y27950D01*
X11160Y26950D02*
X11680Y26950D01*
X8680Y29950D02*
X8160Y29950D01*
X8160Y28950D02*
X8680Y28950D01*
X8680Y27950D02*
X8160Y27950D01*
X8160Y26950D02*
X8680Y26950D01*
X8680Y25950D02*
X8160Y25950D01*
X8160Y24950D02*
X8680Y24950D01*
X8680Y23950D02*
X8160Y23950D01*
X8160Y22950D02*
X8680Y22950D01*
X1210Y30600D02*
X690Y30600D01*
X690Y29600D02*
X1210Y29600D01*
X1210Y24600D02*
X690Y24600D01*
X690Y23600D02*
X1210Y23600D01*
X1210Y28600D02*
X690Y28600D01*
X690Y27600D02*
X1210Y27600D01*
X1210Y25600D02*
X690Y25600D01*
X690Y26600D02*
X1210Y26600D01*
X3690Y23600D02*
X4210Y23600D01*
X4210Y24600D02*
X3690Y24600D01*
X3690Y25600D02*
X4210Y25600D01*
X4210Y26600D02*
X3690Y26600D01*
X3690Y27600D02*
X4210Y27600D01*
X4210Y28600D02*
X3690Y28600D01*
X3690Y29600D02*
X4210Y29600D01*
X4210Y30600D02*
X3690Y30600D01*
D13*
X7490Y890D02*
X8090Y890D01*
X8090Y1890D02*
X7490Y1890D01*
X7490Y2890D02*
X8090Y2890D01*
X8090Y3890D02*
X7490Y3890D01*
X7490Y4890D02*
X8090Y4890D01*
X8090Y5890D02*
X7490Y5890D01*
X7490Y6890D02*
X8090Y6890D01*
X8090Y7890D02*
X7490Y7890D01*
X7490Y8890D02*
X8090Y8890D01*
X8090Y9890D02*
X7490Y9890D01*
X7490Y10890D02*
X8090Y10890D01*
X8090Y11890D02*
X7490Y11890D01*
X7490Y12890D02*
X8090Y12890D01*
X8090Y13890D02*
X7490Y13890D01*
X7490Y14890D02*
X8090Y14890D01*
X8090Y15890D02*
X7490Y15890D01*
X7490Y16890D02*
X8090Y16890D01*
X8090Y17890D02*
X7490Y17890D01*
X7490Y18890D02*
X8090Y18890D01*
X8090Y19890D02*
X7490Y19890D01*
X2090Y890D02*
X1490Y890D01*
X1490Y1890D02*
X2090Y1890D01*
X2090Y2890D02*
X1490Y2890D01*
X1490Y3890D02*
X2090Y3890D01*
X2090Y4890D02*
X1490Y4890D01*
X1490Y5890D02*
X2090Y5890D01*
X2090Y6890D02*
X1490Y6890D01*
X1490Y7890D02*
X2090Y7890D01*
X2090Y8890D02*
X1490Y8890D01*
X1490Y9890D02*
X2090Y9890D01*
X2090Y10890D02*
X1490Y10890D01*
X1490Y11890D02*
X2090Y11890D01*
X2090Y12890D02*
X1490Y12890D01*
X1490Y13890D02*
X2090Y13890D01*
X2090Y14890D02*
X1490Y14890D01*
X1490Y15890D02*
X2090Y15890D01*
X2090Y16890D02*
X1490Y16890D01*
X1490Y17890D02*
X2090Y17890D01*
X2090Y18890D02*
X1490Y18890D01*
X1490Y19890D02*
X2090Y19890D01*
D14*
X10940Y17060D03*
X9940Y17060D03*
X10940Y18060D03*
X9940Y18060D03*
X10940Y19060D03*
X9940Y19060D03*
X10940Y20060D03*
X9940Y20060D03*
X10940Y21060D03*
X9940Y21060D03*
D12*
X11000Y32000D03*
X11000Y33000D03*
X12000Y32000D03*
X12000Y33000D03*
X13000Y32000D03*
X13000Y33000D03*
X14000Y32000D03*
X14000Y33000D03*
X15000Y32000D03*
X15000Y33000D03*
X16000Y32000D03*
X16000Y33000D03*
X17000Y32000D03*
X17000Y33000D03*
X18000Y32000D03*
X18000Y33000D03*
X19000Y32000D03*
X19000Y33000D03*
X20000Y32000D03*
X20000Y33000D03*
D10*
X6050Y24621D02*
X5530Y24621D01*
X5530Y25621D02*
X6050Y25621D01*
X6050Y26621D02*
X5530Y26621D01*
X5530Y27621D02*
X6050Y27621D01*
X6050Y28621D02*
X5530Y28621D01*
X5530Y29621D02*
X6050Y29621D01*
D15*
X13000Y16960D03*
X13000Y19960D03*
D10*
X-430Y32620D02*
X-950Y32620D01*
X-950Y31620D02*
X-430Y31620D01*
X-430Y30620D02*
X-950Y30620D01*
X-950Y29620D02*
X-430Y29620D01*
X-430Y28620D02*
X-950Y28620D01*
X-950Y27620D02*
X-430Y27620D01*
X-430Y26620D02*
X-950Y26620D01*
X-950Y25620D02*
X-430Y25620D01*
X-430Y24620D02*
X-950Y24620D01*
X12620Y20950D02*
X13140Y20950D01*
X13140Y21950D02*
X12620Y21950D01*
X12620Y22950D02*
X13140Y22950D01*
X13140Y23950D02*
X12620Y23950D01*
X12620Y24950D02*
X13140Y24950D01*
X13140Y25950D02*
X12620Y25950D01*
X12620Y26950D02*
X13140Y26950D01*
X13140Y27950D02*
X12620Y27950D01*
X12620Y28950D02*
X13140Y28950D01*
X14200Y18950D02*
X14720Y18950D01*
X14720Y19950D02*
X14200Y19950D01*
X14200Y20950D02*
X14720Y20950D01*
X14720Y21950D02*
X14200Y21950D01*
X14200Y22950D02*
X14720Y22950D01*
X14720Y23950D02*
X14200Y23950D01*
X14200Y24950D02*
X14720Y24950D01*
X14720Y25950D02*
X14200Y25950D01*
X14200Y26950D02*
X14720Y26950D01*
D16*
X-690Y32620D02*
X-880Y32620D01*
X21500Y15980D02*
X21500Y9980D01*
X21500Y16500D02*
X21000Y17000D01*
X21500Y16500D02*
X21500Y15980D01*
X1890Y890D02*
X1790Y890D01*
X21500Y7500D02*
X21779Y7500D01*
X21789Y7490D01*
X21000Y17000D02*
X18000Y17000D01*
X-1095Y31970D02*
X-1300Y31765D01*
X-690Y28865D02*
X-690Y28620D01*
X-690Y28865D02*
X-1300Y29475D01*
X-1095Y31970D02*
X3470Y31970D01*
X-1300Y31765D02*
X-1300Y29475D01*
X3470Y31970D02*
X4500Y33000D01*
X9000Y33000D01*
X9779Y33000D02*
X10000Y33000D01*
X9779Y33000D02*
X9000Y33000D01*
X12000Y34000D02*
X13000Y33000D01*
X11000Y34000D02*
X10000Y33000D01*
X11000Y34000D02*
X12000Y34000D01*
X9650Y16218D02*
X9650Y2350D01*
X10500Y1500D01*
X10330Y17330D02*
X10500Y17500D01*
X10330Y16898D02*
X9650Y16218D01*
X10330Y16898D02*
X10330Y17330D01*
X9880Y27410D02*
X11420Y28950D01*
X9880Y27410D02*
X9880Y22172D01*
X10500Y21552D01*
X10500Y17500D01*
X11500Y8500D02*
X11500Y7500D01*
X11500Y8500D02*
X12000Y9000D01*
X12000Y14000D01*
X10810Y23095D02*
X11215Y23500D01*
X11725Y23500D02*
X12030Y23805D01*
X11725Y23500D02*
X11215Y23500D01*
X11420Y26920D02*
X11420Y26950D01*
X10810Y25690D02*
X11000Y25500D01*
X10810Y26310D02*
X11420Y26920D01*
X10810Y26310D02*
X10810Y25690D01*
X11000Y25500D02*
X11625Y25500D01*
X12030Y25095D01*
X12030Y23805D01*
X10810Y22805D02*
X11620Y21995D01*
X10810Y22805D02*
X10810Y23095D01*
X11620Y21995D02*
X11620Y16855D01*
X11150Y16385D01*
X11150Y14850D02*
X12000Y14000D01*
X11150Y14850D02*
X11150Y16385D01*
X12500Y8000D02*
X12500Y7500D01*
X14000Y9500D02*
X14000Y17000D01*
X14000Y9500D02*
X12500Y8000D01*
X12880Y25950D02*
X13550Y25950D01*
X14000Y25500D01*
X15070Y18070D02*
X14000Y17000D01*
X15070Y25095D02*
X14665Y25500D01*
X14500Y25500D02*
X14000Y25500D01*
X14500Y25500D02*
X14665Y25500D01*
X15070Y25095D02*
X15070Y18070D01*
X2000Y28550D02*
X950Y29600D01*
X12255Y1500D02*
X11645Y890D01*
X12255Y1500D02*
X12500Y1500D01*
X11645Y890D02*
X10355Y890D01*
X9000Y2245D01*
X7000Y19500D02*
X2000Y24500D01*
X2000Y28550D01*
X9000Y18532D02*
X9000Y2245D01*
X9000Y18532D02*
X8032Y19500D01*
X7000Y19500D01*
X11330Y17830D02*
X11330Y21222D01*
X11420Y24920D02*
X11420Y24950D01*
X10276Y22276D02*
X11330Y21222D01*
X10276Y22276D02*
X10276Y23776D01*
X11420Y24920D01*
X11330Y17830D02*
X11000Y17500D01*
X10828Y17500D01*
X10550Y17222D01*
X10150Y16385D02*
X10150Y10330D01*
X10150Y16385D02*
X10550Y16785D01*
X10150Y10330D02*
X10500Y9980D01*
X10550Y16785D02*
X10550Y17222D01*
X10850Y16350D02*
X11500Y17000D01*
X11500Y21500D01*
X11420Y23950D02*
X10950Y23950D01*
X10500Y23500D01*
X10500Y22500D01*
X11500Y21500D01*
X10850Y16350D02*
X10850Y10630D01*
X11500Y9980D01*
X11753Y22617D02*
X11685Y22685D01*
X11420Y22950D01*
X11500Y16000D02*
X11500Y15980D01*
X11500Y16000D02*
X12000Y16500D01*
X12000Y22370D01*
X11753Y22617D01*
X1380Y31620D02*
X-690Y31620D01*
X3400Y29600D02*
X3950Y29600D01*
X3400Y29600D02*
X1380Y31620D01*
X7500Y30000D02*
X7500Y28870D01*
X8420Y27950D01*
X4100Y25600D02*
X3950Y25600D01*
X5790Y25621D02*
X5879Y25621D01*
X9500Y18830D02*
X9500Y17500D01*
X9940Y17060D01*
X7500Y24000D02*
X5879Y25621D01*
X7500Y24000D02*
X7500Y22532D01*
X8480Y21552D02*
X8480Y19850D01*
X9500Y18830D01*
X8480Y21552D02*
X7500Y22532D01*
X4880Y29466D02*
X5414Y30000D01*
X4880Y29466D02*
X4880Y26500D01*
X3980Y25600D01*
X3950Y25600D01*
X7500Y30000D02*
X8620Y31120D01*
X11120Y31120D02*
X12000Y32000D01*
X11120Y31120D02*
X8620Y31120D01*
X7500Y30000D02*
X5414Y30000D01*
X10052Y20500D02*
X10330Y20222D01*
X10330Y18450D01*
X9940Y18060D01*
X9880Y20500D02*
X10052Y20500D01*
X6379Y26621D02*
X5790Y26621D01*
X6379Y26621D02*
X7500Y25500D01*
X4760Y27410D02*
X3950Y26600D01*
X4760Y27410D02*
X4760Y29930D01*
X6330Y31500D01*
X11052Y31500D01*
X8420Y26950D02*
X9265Y26105D01*
X9265Y21115D02*
X9880Y20500D01*
X9265Y21115D02*
X9265Y25500D01*
X9265Y26105D01*
X9265Y25500D02*
X7500Y25500D01*
X11500Y32500D02*
X12000Y33000D01*
X11500Y31948D02*
X11052Y31500D01*
X11500Y31948D02*
X11500Y32500D01*
X9450Y28950D02*
X8420Y28950D01*
X10500Y28950D01*
X3950Y24600D02*
X3000Y25550D01*
X3000Y28500D01*
X13500Y29500D02*
X13500Y31500D01*
X13500Y29500D02*
X13500Y27000D01*
X13500Y26815D01*
X9948Y32500D02*
X10948Y33500D01*
X11050Y29500D02*
X10500Y28950D01*
X11050Y29500D02*
X13500Y29500D01*
X12500Y26500D02*
X12270Y26270D01*
X13490Y26805D02*
X13490Y26990D01*
X13500Y27000D01*
X13185Y26500D02*
X12500Y26500D01*
X13185Y26500D02*
X13490Y26805D01*
X4355Y29250D02*
X3750Y29250D01*
X4355Y29250D02*
X4560Y29455D01*
X3750Y29250D02*
X3000Y28500D01*
X12270Y25805D02*
X12575Y25500D01*
X13350Y25500D02*
X13850Y25000D01*
X12270Y25805D02*
X12270Y26270D01*
X12575Y25500D02*
X13350Y25500D01*
X13850Y25000D02*
X13850Y20810D01*
X13000Y19960D01*
X13500Y31500D02*
X13000Y32000D01*
X12500Y32500D02*
X12500Y33052D01*
X12500Y32500D02*
X13000Y32000D01*
X12052Y33500D02*
X10948Y33500D01*
X12052Y33500D02*
X12500Y33052D01*
X6500Y32500D02*
X4560Y30560D01*
X6500Y32500D02*
X9948Y32500D01*
X4560Y30560D02*
X4560Y29455D01*
X5790Y28621D02*
X5000Y27831D01*
X5000Y26500D02*
X5500Y26000D01*
X6500Y26000D01*
X8000Y24500D01*
X5000Y26500D02*
X5000Y27831D01*
X9030Y19970D02*
X9940Y19060D01*
X9030Y24095D02*
X8625Y24500D01*
X8000Y24500D01*
X9030Y24095D02*
X9030Y19970D01*
X15370Y9370D02*
X13500Y7500D01*
X23630Y9370D02*
X24000Y9000D01*
X23630Y9370D02*
X15370Y9370D01*
X24500Y8500D02*
X25000Y9000D01*
X24500Y8500D02*
X23948Y8500D01*
X16000Y9000D02*
X14500Y7500D01*
X16000Y9000D02*
X23448Y9000D01*
X23948Y8500D01*
X23380Y8620D02*
X16620Y8620D01*
X15500Y7500D01*
X23380Y8620D02*
X24000Y8000D01*
X24610Y7610D02*
X25000Y8000D01*
X24610Y7610D02*
X23338Y7610D01*
X17250Y8250D02*
X16500Y7500D01*
X17250Y8250D02*
X22698Y8250D01*
X23338Y7610D01*
X24000Y7000D02*
X23890Y6890D01*
X21355Y6890D01*
X18110Y8110D02*
X17500Y7500D01*
X20645Y8110D02*
X21000Y7755D01*
X21000Y7245D02*
X21355Y6890D01*
X21000Y7245D02*
X21000Y7755D01*
X20645Y8110D02*
X18110Y8110D01*
X18500Y7500D02*
X20500Y5500D01*
X25052Y5500D02*
X25500Y5948D01*
X25500Y6500D01*
X25000Y7000D01*
X25052Y5500D02*
X20500Y5500D01*
X21000Y6000D02*
X19500Y7500D01*
X21000Y6000D02*
X24000Y6000D01*
X21500Y6500D02*
X20500Y7500D01*
X21500Y6500D02*
X21510Y6490D01*
X24510Y6490D01*
X25000Y6000D01*
X11500Y6745D02*
X11500Y1500D01*
X12150Y15150D02*
X12150Y16500D01*
X12150Y15150D02*
X13000Y14300D01*
X12000Y7245D02*
X11500Y6745D01*
X12000Y7245D02*
X12000Y8000D01*
X13000Y9000D02*
X13000Y14300D01*
X12270Y16620D02*
X12270Y25380D01*
X12270Y16620D02*
X12150Y16500D01*
X12030Y27100D02*
X12880Y27950D01*
X12030Y25620D02*
X12270Y25380D01*
X12030Y25620D02*
X12030Y27100D01*
X13000Y9000D02*
X12000Y8000D01*
X13490Y20805D02*
X13490Y21000D01*
X13490Y21095D01*
X13490Y20805D02*
X13185Y20500D01*
X13000Y20500D01*
X12650Y20150D01*
X12650Y18850D01*
X13350Y16815D02*
X12645Y16110D01*
X12630Y16110D01*
X12500Y15980D01*
X13350Y16815D02*
X13350Y18150D01*
X12650Y18850D01*
X13490Y21340D02*
X12880Y21950D01*
X13490Y21340D02*
X13490Y21095D01*
X6749Y27621D02*
X5790Y27621D01*
X6749Y27621D02*
X8420Y25950D01*
X5879Y29621D02*
X5790Y29621D01*
X5879Y29621D02*
X8000Y27500D01*
X9000Y27500D01*
X9500Y27000D01*
X9500Y21500D02*
X9940Y21060D01*
X9500Y21500D02*
X9500Y27000D01*
M02*
