G04 EAGLE Gerber RS-274X export*
G75*
%MOIN*%
%FSLAX34Y34*%
%LPD*%
%INSilkscreen Top*%
%IPPOS*%
%AMOC8*
5,1,8,0,0,1.08239X$1,22.5*%
G01*
%ADD10C,0.004000*%
%ADD11C,0.002000*%
%ADD12C,0.003000*%
%ADD13C,0.006000*%
%ADD14C,0.007000*%
%ADD15C,0.030000*%
%ADD16R,0.020000X0.030000*%
%ADD17R,0.040000X0.030000*%
%ADD18R,0.030000X0.030000*%
%ADD19R,0.070000X0.030000*%
%ADD20C,0.005000*%
%ADD21R,0.020000X0.020000*%
%ADD22C,0.020000*%
%ADD23R,0.020000X0.015000*%


D10*
X2670Y1089D02*
X2977Y1089D01*
X2823Y936D02*
X2823Y1242D01*
X3176Y910D02*
X3303Y910D01*
X3324Y912D01*
X3345Y917D01*
X3364Y925D01*
X3382Y937D01*
X3397Y951D01*
X3410Y968D01*
X3420Y987D01*
X3427Y1007D01*
X3431Y1027D01*
X3431Y1049D01*
X3427Y1069D01*
X3420Y1089D01*
X3410Y1108D01*
X3397Y1125D01*
X3382Y1139D01*
X3364Y1151D01*
X3345Y1159D01*
X3324Y1164D01*
X3303Y1166D01*
X3329Y1370D02*
X3176Y1370D01*
X3329Y1370D02*
X3348Y1368D01*
X3366Y1363D01*
X3383Y1355D01*
X3398Y1343D01*
X3410Y1329D01*
X3420Y1313D01*
X3427Y1296D01*
X3431Y1277D01*
X3431Y1259D01*
X3427Y1240D01*
X3420Y1223D01*
X3410Y1207D01*
X3398Y1193D01*
X3383Y1181D01*
X3366Y1173D01*
X3348Y1168D01*
X3329Y1166D01*
X3227Y1166D01*
X3600Y1370D02*
X3753Y910D01*
X3907Y1370D01*
X4076Y910D02*
X4203Y910D01*
X4224Y912D01*
X4245Y917D01*
X4264Y925D01*
X4282Y937D01*
X4297Y951D01*
X4310Y968D01*
X4320Y987D01*
X4327Y1007D01*
X4331Y1027D01*
X4331Y1049D01*
X4327Y1069D01*
X4320Y1089D01*
X4310Y1108D01*
X4297Y1125D01*
X4282Y1139D01*
X4264Y1151D01*
X4245Y1159D01*
X4224Y1164D01*
X4203Y1166D01*
X4229Y1370D02*
X4076Y1370D01*
X4229Y1370D02*
X4248Y1368D01*
X4266Y1363D01*
X4283Y1355D01*
X4298Y1343D01*
X4310Y1329D01*
X4320Y1313D01*
X4327Y1296D01*
X4331Y1277D01*
X4331Y1259D01*
X4327Y1240D01*
X4320Y1223D01*
X4310Y1207D01*
X4298Y1193D01*
X4283Y1181D01*
X4266Y1173D01*
X4248Y1168D01*
X4229Y1166D01*
X4127Y1166D01*
X5219Y17789D02*
X5526Y17789D01*
X5372Y17636D02*
X5372Y17942D01*
X5724Y17610D02*
X5852Y17610D01*
X5873Y17612D01*
X5894Y17617D01*
X5913Y17625D01*
X5931Y17637D01*
X5946Y17651D01*
X5959Y17668D01*
X5969Y17687D01*
X5976Y17707D01*
X5980Y17727D01*
X5980Y17749D01*
X5976Y17769D01*
X5969Y17789D01*
X5959Y17808D01*
X5946Y17825D01*
X5931Y17839D01*
X5913Y17851D01*
X5894Y17859D01*
X5873Y17864D01*
X5852Y17866D01*
X5878Y18070D02*
X5724Y18070D01*
X5878Y18070D02*
X5897Y18068D01*
X5915Y18063D01*
X5932Y18055D01*
X5947Y18043D01*
X5959Y18029D01*
X5969Y18013D01*
X5976Y17996D01*
X5980Y17977D01*
X5980Y17959D01*
X5976Y17940D01*
X5969Y17923D01*
X5959Y17907D01*
X5947Y17893D01*
X5932Y17881D01*
X5915Y17873D01*
X5897Y17868D01*
X5878Y17866D01*
X5776Y17866D01*
X6149Y18070D02*
X6302Y17610D01*
X6456Y18070D01*
X6624Y17610D02*
X6752Y17610D01*
X6773Y17612D01*
X6794Y17617D01*
X6813Y17625D01*
X6831Y17637D01*
X6846Y17651D01*
X6859Y17668D01*
X6869Y17687D01*
X6876Y17707D01*
X6880Y17727D01*
X6880Y17749D01*
X6876Y17769D01*
X6869Y17789D01*
X6859Y17808D01*
X6846Y17825D01*
X6831Y17839D01*
X6813Y17851D01*
X6794Y17859D01*
X6773Y17864D01*
X6752Y17866D01*
X6778Y18070D02*
X6624Y18070D01*
X6778Y18070D02*
X6797Y18068D01*
X6815Y18063D01*
X6832Y18055D01*
X6847Y18043D01*
X6859Y18029D01*
X6869Y18013D01*
X6876Y17996D01*
X6880Y17977D01*
X6880Y17959D01*
X6876Y17940D01*
X6869Y17923D01*
X6859Y17907D01*
X6847Y17893D01*
X6832Y17881D01*
X6815Y17873D01*
X6797Y17868D01*
X6778Y17866D01*
X6676Y17866D01*
X8429Y34899D02*
X8735Y34899D01*
X8582Y34746D02*
X8582Y35052D01*
X8934Y34720D02*
X9062Y34720D01*
X9083Y34722D01*
X9104Y34727D01*
X9123Y34735D01*
X9141Y34747D01*
X9156Y34761D01*
X9169Y34778D01*
X9179Y34797D01*
X9186Y34817D01*
X9190Y34837D01*
X9190Y34859D01*
X9186Y34879D01*
X9179Y34899D01*
X9169Y34918D01*
X9156Y34935D01*
X9141Y34949D01*
X9123Y34961D01*
X9104Y34969D01*
X9083Y34974D01*
X9062Y34976D01*
X9088Y35180D02*
X8934Y35180D01*
X9088Y35180D02*
X9107Y35178D01*
X9125Y35173D01*
X9142Y35165D01*
X9157Y35153D01*
X9169Y35139D01*
X9179Y35123D01*
X9186Y35106D01*
X9190Y35087D01*
X9190Y35069D01*
X9186Y35050D01*
X9179Y35033D01*
X9169Y35017D01*
X9157Y35003D01*
X9142Y34991D01*
X9125Y34983D01*
X9107Y34978D01*
X9088Y34976D01*
X8985Y34976D01*
X9359Y35180D02*
X9512Y34720D01*
X9665Y35180D01*
X9834Y34720D02*
X9962Y34720D01*
X9983Y34722D01*
X10004Y34727D01*
X10023Y34735D01*
X10041Y34747D01*
X10056Y34761D01*
X10069Y34778D01*
X10079Y34797D01*
X10086Y34817D01*
X10090Y34837D01*
X10090Y34859D01*
X10086Y34879D01*
X10079Y34899D01*
X10069Y34918D01*
X10056Y34935D01*
X10041Y34949D01*
X10023Y34961D01*
X10004Y34969D01*
X9983Y34974D01*
X9962Y34976D01*
X9988Y35180D02*
X9834Y35180D01*
X9988Y35180D02*
X10007Y35178D01*
X10025Y35173D01*
X10042Y35165D01*
X10057Y35153D01*
X10069Y35139D01*
X10079Y35123D01*
X10086Y35106D01*
X10090Y35087D01*
X10090Y35069D01*
X10086Y35050D01*
X10079Y35033D01*
X10069Y35017D01*
X10057Y35003D01*
X10042Y34991D01*
X10025Y34983D01*
X10007Y34978D01*
X9988Y34976D01*
X9885Y34976D01*
X8735Y31899D02*
X8429Y31899D01*
X8582Y31746D02*
X8582Y32052D01*
X8934Y31720D02*
X9062Y31720D01*
X9083Y31722D01*
X9104Y31727D01*
X9123Y31735D01*
X9141Y31747D01*
X9156Y31761D01*
X9169Y31778D01*
X9179Y31797D01*
X9186Y31817D01*
X9190Y31837D01*
X9190Y31859D01*
X9186Y31879D01*
X9179Y31899D01*
X9169Y31918D01*
X9156Y31935D01*
X9141Y31949D01*
X9123Y31961D01*
X9104Y31969D01*
X9083Y31974D01*
X9062Y31976D01*
X9088Y32180D02*
X8934Y32180D01*
X9088Y32180D02*
X9107Y32178D01*
X9125Y32173D01*
X9142Y32165D01*
X9157Y32153D01*
X9169Y32139D01*
X9179Y32123D01*
X9186Y32106D01*
X9190Y32087D01*
X9190Y32069D01*
X9186Y32050D01*
X9179Y32033D01*
X9169Y32017D01*
X9157Y32003D01*
X9142Y31991D01*
X9125Y31983D01*
X9107Y31978D01*
X9088Y31976D01*
X8985Y31976D01*
X9359Y32180D02*
X9512Y31720D01*
X9665Y32180D01*
X9834Y31720D02*
X9962Y31720D01*
X9983Y31722D01*
X10004Y31727D01*
X10023Y31735D01*
X10041Y31747D01*
X10056Y31761D01*
X10069Y31778D01*
X10079Y31797D01*
X10086Y31817D01*
X10090Y31837D01*
X10090Y31859D01*
X10086Y31879D01*
X10079Y31899D01*
X10069Y31918D01*
X10056Y31935D01*
X10041Y31949D01*
X10023Y31961D01*
X10004Y31969D01*
X9983Y31974D01*
X9962Y31976D01*
X9988Y32180D02*
X9834Y32180D01*
X9988Y32180D02*
X10007Y32178D01*
X10025Y32173D01*
X10042Y32165D01*
X10057Y32153D01*
X10069Y32139D01*
X10079Y32123D01*
X10086Y32106D01*
X10090Y32087D01*
X10090Y32069D01*
X10086Y32050D01*
X10079Y32033D01*
X10069Y32017D01*
X10057Y32003D01*
X10042Y31991D01*
X10025Y31983D01*
X10007Y31978D01*
X9988Y31976D01*
X9885Y31976D01*
X9130Y35976D02*
X9053Y35976D01*
X9130Y35976D02*
X9130Y35720D01*
X8977Y35720D01*
X8959Y35722D01*
X8942Y35726D01*
X8926Y35734D01*
X8911Y35744D01*
X8899Y35756D01*
X8889Y35771D01*
X8881Y35787D01*
X8877Y35804D01*
X8875Y35822D01*
X8874Y35822D02*
X8874Y36078D01*
X8875Y36078D02*
X8877Y36098D01*
X8883Y36117D01*
X8892Y36135D01*
X8905Y36150D01*
X8920Y36163D01*
X8938Y36172D01*
X8957Y36178D01*
X8977Y36180D01*
X9130Y36180D01*
X9354Y36180D02*
X9354Y35720D01*
X9610Y35720D02*
X9354Y36180D01*
X9610Y36180D02*
X9610Y35720D01*
X9834Y35720D02*
X9834Y36180D01*
X9962Y36180D01*
X9982Y36178D01*
X10002Y36174D01*
X10020Y36166D01*
X10037Y36156D01*
X10053Y36143D01*
X10066Y36127D01*
X10076Y36110D01*
X10084Y36092D01*
X10088Y36072D01*
X10090Y36052D01*
X10090Y35848D01*
X10088Y35828D01*
X10084Y35808D01*
X10076Y35790D01*
X10066Y35773D01*
X10053Y35757D01*
X10037Y35744D01*
X10020Y35734D01*
X10002Y35726D01*
X9982Y35722D01*
X9962Y35720D01*
X9834Y35720D01*
X9130Y32976D02*
X9053Y32976D01*
X9130Y32976D02*
X9130Y32720D01*
X8977Y32720D01*
X8959Y32722D01*
X8942Y32726D01*
X8926Y32734D01*
X8911Y32744D01*
X8899Y32756D01*
X8889Y32771D01*
X8881Y32787D01*
X8877Y32804D01*
X8875Y32822D01*
X8874Y32822D02*
X8874Y33078D01*
X8875Y33078D02*
X8877Y33098D01*
X8883Y33117D01*
X8892Y33135D01*
X8905Y33150D01*
X8920Y33163D01*
X8938Y33172D01*
X8957Y33178D01*
X8977Y33180D01*
X9130Y33180D01*
X9354Y33180D02*
X9354Y32720D01*
X9610Y32720D02*
X9354Y33180D01*
X9610Y33180D02*
X9610Y32720D01*
X9834Y32720D02*
X9834Y33180D01*
X9962Y33180D01*
X9982Y33178D01*
X10002Y33174D01*
X10020Y33166D01*
X10037Y33156D01*
X10053Y33143D01*
X10066Y33127D01*
X10076Y33110D01*
X10084Y33092D01*
X10088Y33072D01*
X10090Y33052D01*
X10090Y32848D01*
X10088Y32828D01*
X10084Y32808D01*
X10076Y32790D01*
X10066Y32773D01*
X10053Y32757D01*
X10037Y32744D01*
X10020Y32734D01*
X10002Y32726D01*
X9982Y32722D01*
X9962Y32720D01*
X9834Y32720D01*
X5920Y19866D02*
X5843Y19866D01*
X5920Y19866D02*
X5920Y19610D01*
X5767Y19610D01*
X5749Y19612D01*
X5732Y19616D01*
X5716Y19624D01*
X5701Y19634D01*
X5689Y19646D01*
X5679Y19661D01*
X5671Y19677D01*
X5667Y19694D01*
X5665Y19712D01*
X5664Y19712D02*
X5664Y19968D01*
X5665Y19968D02*
X5667Y19988D01*
X5673Y20007D01*
X5682Y20025D01*
X5695Y20040D01*
X5710Y20053D01*
X5728Y20062D01*
X5747Y20068D01*
X5767Y20070D01*
X5920Y20070D01*
X6144Y20070D02*
X6144Y19610D01*
X6400Y19610D02*
X6144Y20070D01*
X6400Y20070D02*
X6400Y19610D01*
X6624Y19610D02*
X6624Y20070D01*
X6752Y20070D01*
X6772Y20068D01*
X6792Y20064D01*
X6810Y20056D01*
X6827Y20046D01*
X6843Y20033D01*
X6856Y20017D01*
X6866Y20000D01*
X6874Y19982D01*
X6878Y19962D01*
X6880Y19942D01*
X6880Y19738D01*
X6878Y19718D01*
X6874Y19698D01*
X6866Y19680D01*
X6856Y19663D01*
X6843Y19647D01*
X6827Y19634D01*
X6810Y19624D01*
X6792Y19616D01*
X6772Y19612D01*
X6752Y19610D01*
X6624Y19610D01*
X5920Y18866D02*
X5843Y18866D01*
X5920Y18866D02*
X5920Y18610D01*
X5767Y18610D01*
X5749Y18612D01*
X5732Y18616D01*
X5716Y18624D01*
X5701Y18634D01*
X5689Y18646D01*
X5679Y18661D01*
X5671Y18677D01*
X5667Y18694D01*
X5665Y18712D01*
X5664Y18712D02*
X5664Y18968D01*
X5665Y18968D02*
X5667Y18988D01*
X5673Y19007D01*
X5682Y19025D01*
X5695Y19040D01*
X5710Y19053D01*
X5728Y19062D01*
X5747Y19068D01*
X5767Y19070D01*
X5920Y19070D01*
X6144Y19070D02*
X6144Y18610D01*
X6400Y18610D02*
X6144Y19070D01*
X6400Y19070D02*
X6400Y18610D01*
X6624Y18610D02*
X6624Y19070D01*
X6752Y19070D01*
X6772Y19068D01*
X6792Y19064D01*
X6810Y19056D01*
X6827Y19046D01*
X6843Y19033D01*
X6856Y19017D01*
X6866Y19000D01*
X6874Y18982D01*
X6878Y18962D01*
X6880Y18942D01*
X6880Y18738D01*
X6878Y18718D01*
X6874Y18698D01*
X6866Y18680D01*
X6856Y18663D01*
X6843Y18647D01*
X6827Y18634D01*
X6810Y18624D01*
X6792Y18616D01*
X6772Y18612D01*
X6752Y18610D01*
X6624Y18610D01*
X2926Y2166D02*
X2849Y2166D01*
X2926Y2166D02*
X2926Y1910D01*
X2772Y1910D01*
X2754Y1912D01*
X2737Y1916D01*
X2721Y1924D01*
X2706Y1934D01*
X2694Y1946D01*
X2684Y1961D01*
X2676Y1977D01*
X2672Y1994D01*
X2670Y2012D01*
X2670Y2268D01*
X2672Y2288D01*
X2678Y2307D01*
X2687Y2325D01*
X2700Y2340D01*
X2715Y2353D01*
X2733Y2362D01*
X2752Y2368D01*
X2772Y2370D01*
X2926Y2370D01*
X3150Y2370D02*
X3150Y1910D01*
X3406Y1910D02*
X3150Y2370D01*
X3406Y2370D02*
X3406Y1910D01*
X3630Y1910D02*
X3630Y2370D01*
X3758Y2370D01*
X3778Y2368D01*
X3798Y2364D01*
X3816Y2356D01*
X3833Y2346D01*
X3849Y2333D01*
X3862Y2317D01*
X3872Y2300D01*
X3880Y2282D01*
X3884Y2262D01*
X3886Y2242D01*
X3886Y2038D01*
X3884Y2018D01*
X3880Y1998D01*
X3872Y1980D01*
X3862Y1963D01*
X3849Y1947D01*
X3833Y1934D01*
X3816Y1924D01*
X3798Y1916D01*
X3778Y1912D01*
X3758Y1910D01*
X3630Y1910D01*
D11*
X8569Y19070D02*
X8569Y19290D01*
X8630Y19290D01*
X8644Y19288D01*
X8656Y19284D01*
X8668Y19277D01*
X8678Y19267D01*
X8685Y19255D01*
X8689Y19243D01*
X8691Y19229D01*
X8691Y19131D01*
X8689Y19117D01*
X8685Y19105D01*
X8678Y19093D01*
X8668Y19083D01*
X8656Y19076D01*
X8644Y19072D01*
X8630Y19070D01*
X8569Y19070D01*
X8780Y19070D02*
X8853Y19290D01*
X8927Y19070D01*
X8908Y19125D02*
X8798Y19125D01*
X9055Y19070D02*
X9055Y19290D01*
X8994Y19290D02*
X9116Y19290D01*
X9257Y19290D02*
X9183Y19070D01*
X9330Y19070D02*
X9257Y19290D01*
X9312Y19125D02*
X9202Y19125D01*
X8931Y17119D02*
X8929Y17106D01*
X8924Y17095D01*
X8917Y17084D01*
X8907Y17077D01*
X8895Y17072D01*
X8882Y17070D01*
X8866Y17071D01*
X8850Y17075D01*
X8835Y17081D01*
X8821Y17090D01*
X8809Y17100D01*
X8815Y17241D02*
X8817Y17254D01*
X8822Y17266D01*
X8829Y17276D01*
X8840Y17283D01*
X8851Y17288D01*
X8864Y17290D01*
X8879Y17289D01*
X8893Y17285D01*
X8907Y17279D01*
X8919Y17272D01*
X8839Y17198D02*
X8828Y17206D01*
X8821Y17216D01*
X8816Y17228D01*
X8814Y17241D01*
X8906Y17162D02*
X8917Y17154D01*
X8924Y17144D01*
X8929Y17132D01*
X8931Y17119D01*
X8906Y17162D02*
X8839Y17198D01*
X9066Y17070D02*
X9114Y17070D01*
X9066Y17070D02*
X9053Y17072D01*
X9042Y17077D01*
X9031Y17084D01*
X9024Y17095D01*
X9019Y17106D01*
X9017Y17119D01*
X9017Y17241D01*
X9019Y17254D01*
X9024Y17265D01*
X9031Y17276D01*
X9041Y17283D01*
X9053Y17288D01*
X9066Y17290D01*
X9114Y17290D01*
X9208Y17290D02*
X9208Y17070D01*
X9208Y17156D02*
X9330Y17290D01*
X9257Y17204D02*
X9330Y17070D01*
X8803Y18070D02*
X8803Y18290D01*
X8864Y18290D01*
X8879Y18288D01*
X8892Y18283D01*
X8904Y18275D01*
X8914Y18264D01*
X8921Y18251D01*
X8925Y18236D01*
X8925Y18222D01*
X8921Y18207D01*
X8914Y18194D01*
X8904Y18183D01*
X8892Y18175D01*
X8879Y18170D01*
X8864Y18168D01*
X8803Y18168D01*
X8876Y18168D02*
X8925Y18070D01*
X9066Y18070D02*
X9114Y18070D01*
X9066Y18070D02*
X9053Y18072D01*
X9042Y18077D01*
X9031Y18084D01*
X9024Y18095D01*
X9019Y18106D01*
X9017Y18119D01*
X9017Y18241D01*
X9019Y18254D01*
X9024Y18265D01*
X9031Y18276D01*
X9041Y18283D01*
X9053Y18288D01*
X9066Y18290D01*
X9114Y18290D01*
X9208Y18290D02*
X9208Y18070D01*
X9208Y18156D02*
X9330Y18290D01*
X9257Y18204D02*
X9330Y18070D01*
X7965Y21070D02*
X7965Y21290D01*
X8088Y21290D02*
X7965Y21156D01*
X8014Y21204D02*
X8088Y21070D01*
X8179Y21070D02*
X8276Y21070D01*
X8179Y21070D02*
X8179Y21290D01*
X8276Y21290D01*
X8252Y21192D02*
X8179Y21192D01*
X8346Y21290D02*
X8419Y21186D01*
X8493Y21290D01*
X8419Y21186D02*
X8419Y21070D01*
X8583Y21070D02*
X8583Y21290D01*
X8644Y21290D01*
X8659Y21288D01*
X8672Y21283D01*
X8684Y21275D01*
X8694Y21264D01*
X8701Y21251D01*
X8705Y21236D01*
X8705Y21222D01*
X8701Y21207D01*
X8694Y21194D01*
X8684Y21183D01*
X8672Y21175D01*
X8659Y21170D01*
X8644Y21168D01*
X8583Y21168D01*
X8656Y21168D02*
X8705Y21070D01*
X8805Y21070D02*
X8903Y21070D01*
X8805Y21070D02*
X8805Y21290D01*
X8903Y21290D01*
X8878Y21192D02*
X8805Y21192D01*
X8972Y21070D02*
X9046Y21290D01*
X9119Y21070D01*
X9101Y21125D02*
X8991Y21125D01*
X9208Y21070D02*
X9208Y21290D01*
X9269Y21290D01*
X9283Y21288D01*
X9295Y21284D01*
X9307Y21277D01*
X9317Y21267D01*
X9324Y21255D01*
X9328Y21243D01*
X9330Y21229D01*
X9330Y21131D01*
X9328Y21117D01*
X9324Y21105D01*
X9317Y21093D01*
X9307Y21083D01*
X9295Y21076D01*
X9283Y21072D01*
X9269Y21070D01*
X9208Y21070D01*
D12*
X19775Y31341D02*
X19856Y31405D01*
X19856Y31115D01*
X19775Y31115D02*
X19937Y31115D01*
X20128Y31244D02*
X20225Y31244D01*
X20128Y31244D02*
X20114Y31246D01*
X20100Y31250D01*
X20088Y31258D01*
X20078Y31268D01*
X20070Y31280D01*
X20066Y31294D01*
X20064Y31308D01*
X20063Y31308D02*
X20063Y31324D01*
X20065Y31341D01*
X20070Y31357D01*
X20078Y31372D01*
X20090Y31384D01*
X20104Y31394D01*
X20119Y31401D01*
X20136Y31405D01*
X20152Y31405D01*
X20169Y31401D01*
X20185Y31394D01*
X20198Y31384D01*
X20210Y31372D01*
X20218Y31357D01*
X20223Y31341D01*
X20225Y31324D01*
X20225Y31244D01*
X20223Y31224D01*
X20219Y31204D01*
X20211Y31185D01*
X20200Y31168D01*
X20187Y31153D01*
X20172Y31140D01*
X20155Y31129D01*
X20136Y31121D01*
X20116Y31117D01*
X20096Y31115D01*
X18856Y31405D02*
X18775Y31341D01*
X18856Y31405D02*
X18856Y31115D01*
X18775Y31115D02*
X18937Y31115D01*
X19063Y31373D02*
X19063Y31405D01*
X19225Y31405D01*
X19144Y31115D01*
X17856Y31405D02*
X17775Y31341D01*
X17856Y31405D02*
X17856Y31115D01*
X17775Y31115D02*
X17937Y31115D01*
X18063Y31115D02*
X18160Y31115D01*
X18174Y31117D01*
X18188Y31121D01*
X18200Y31129D01*
X18210Y31139D01*
X18218Y31151D01*
X18222Y31165D01*
X18224Y31179D01*
X18225Y31179D02*
X18225Y31212D01*
X18224Y31212D02*
X18222Y31226D01*
X18218Y31240D01*
X18210Y31252D01*
X18200Y31262D01*
X18188Y31270D01*
X18174Y31274D01*
X18160Y31276D01*
X18063Y31276D01*
X18063Y31405D01*
X18225Y31405D01*
X16856Y31405D02*
X16775Y31341D01*
X16856Y31405D02*
X16856Y31115D01*
X16775Y31115D02*
X16937Y31115D01*
X17063Y31115D02*
X17144Y31115D01*
X17161Y31117D01*
X17177Y31122D01*
X17192Y31130D01*
X17204Y31142D01*
X17214Y31156D01*
X17221Y31171D01*
X17225Y31188D01*
X17225Y31204D01*
X17221Y31221D01*
X17214Y31237D01*
X17204Y31250D01*
X17192Y31262D01*
X17177Y31270D01*
X17161Y31275D01*
X17144Y31277D01*
X17160Y31405D02*
X17063Y31405D01*
X17160Y31405D02*
X17174Y31403D01*
X17188Y31399D01*
X17200Y31391D01*
X17210Y31381D01*
X17218Y31369D01*
X17222Y31355D01*
X17224Y31341D01*
X17222Y31327D01*
X17218Y31313D01*
X17210Y31301D01*
X17200Y31291D01*
X17188Y31283D01*
X17174Y31279D01*
X17160Y31277D01*
X17160Y31276D02*
X17096Y31276D01*
X19937Y36833D02*
X19935Y36849D01*
X19930Y36865D01*
X19921Y36879D01*
X19910Y36890D01*
X19896Y36899D01*
X19880Y36904D01*
X19864Y36906D01*
X19864Y36905D02*
X19847Y36904D01*
X19831Y36899D01*
X19816Y36892D01*
X19803Y36882D01*
X19791Y36870D01*
X19782Y36856D01*
X19776Y36841D01*
X19913Y36777D02*
X19923Y36788D01*
X19931Y36802D01*
X19935Y36817D01*
X19937Y36833D01*
X19912Y36776D02*
X19775Y36615D01*
X19937Y36615D01*
X20063Y36760D02*
X20065Y36787D01*
X20069Y36814D01*
X20077Y36840D01*
X20087Y36865D01*
X20087Y36864D02*
X20094Y36878D01*
X20103Y36889D01*
X20115Y36898D01*
X20129Y36903D01*
X20144Y36905D01*
X20159Y36903D01*
X20173Y36898D01*
X20185Y36889D01*
X20194Y36878D01*
X20201Y36864D01*
X20201Y36865D02*
X20211Y36840D01*
X20219Y36814D01*
X20223Y36787D01*
X20225Y36760D01*
X20063Y36760D02*
X20065Y36733D01*
X20069Y36706D01*
X20077Y36680D01*
X20087Y36655D01*
X20087Y36656D02*
X20094Y36642D01*
X20103Y36631D01*
X20115Y36622D01*
X20129Y36617D01*
X20144Y36615D01*
X20201Y36655D02*
X20211Y36680D01*
X20219Y36706D01*
X20223Y36733D01*
X20225Y36760D01*
X20201Y36656D02*
X20194Y36642D01*
X20185Y36631D01*
X20173Y36622D01*
X20159Y36617D01*
X20144Y36615D01*
X20080Y36679D02*
X20208Y36841D01*
X18856Y36905D02*
X18775Y36841D01*
X18856Y36905D02*
X18856Y36615D01*
X18775Y36615D02*
X18937Y36615D01*
X19063Y36696D02*
X19065Y36713D01*
X19070Y36729D01*
X19078Y36744D01*
X19090Y36756D01*
X19104Y36766D01*
X19119Y36773D01*
X19136Y36777D01*
X19152Y36777D01*
X19169Y36773D01*
X19185Y36766D01*
X19198Y36756D01*
X19210Y36744D01*
X19218Y36729D01*
X19223Y36713D01*
X19225Y36696D01*
X19223Y36679D01*
X19218Y36663D01*
X19210Y36648D01*
X19198Y36636D01*
X19185Y36626D01*
X19169Y36619D01*
X19152Y36615D01*
X19136Y36615D01*
X19119Y36619D01*
X19104Y36626D01*
X19090Y36636D01*
X19078Y36648D01*
X19070Y36663D01*
X19065Y36679D01*
X19063Y36696D01*
X19080Y36841D02*
X19082Y36855D01*
X19086Y36869D01*
X19094Y36881D01*
X19104Y36891D01*
X19116Y36899D01*
X19130Y36903D01*
X19144Y36905D01*
X19158Y36903D01*
X19172Y36899D01*
X19184Y36891D01*
X19194Y36881D01*
X19202Y36869D01*
X19206Y36855D01*
X19208Y36841D01*
X19206Y36827D01*
X19202Y36813D01*
X19194Y36801D01*
X19184Y36791D01*
X19172Y36783D01*
X19158Y36779D01*
X19144Y36777D01*
X19130Y36779D01*
X19116Y36783D01*
X19104Y36791D01*
X19094Y36801D01*
X19086Y36813D01*
X19082Y36827D01*
X19080Y36841D01*
X17856Y36905D02*
X17775Y36841D01*
X17856Y36905D02*
X17856Y36615D01*
X17775Y36615D02*
X17937Y36615D01*
X18063Y36776D02*
X18160Y36776D01*
X18174Y36774D01*
X18188Y36770D01*
X18200Y36762D01*
X18210Y36752D01*
X18218Y36740D01*
X18222Y36726D01*
X18224Y36712D01*
X18225Y36712D02*
X18225Y36696D01*
X18223Y36679D01*
X18218Y36663D01*
X18210Y36648D01*
X18198Y36636D01*
X18185Y36626D01*
X18169Y36619D01*
X18152Y36615D01*
X18136Y36615D01*
X18119Y36619D01*
X18104Y36626D01*
X18090Y36636D01*
X18078Y36648D01*
X18070Y36663D01*
X18065Y36679D01*
X18063Y36696D01*
X18063Y36776D01*
X18065Y36798D01*
X18071Y36820D01*
X18080Y36840D01*
X18093Y36859D01*
X18109Y36875D01*
X18127Y36888D01*
X18148Y36897D01*
X18170Y36903D01*
X18192Y36905D01*
X16856Y36905D02*
X16775Y36841D01*
X16856Y36905D02*
X16856Y36615D01*
X16775Y36615D02*
X16937Y36615D01*
X17063Y36679D02*
X17128Y36905D01*
X17063Y36679D02*
X17225Y36679D01*
X17176Y36615D02*
X17176Y36744D01*
X11515Y33905D02*
X11515Y33615D01*
X11515Y33905D02*
X11596Y33905D01*
X11613Y33903D01*
X11629Y33898D01*
X11644Y33890D01*
X11656Y33878D01*
X11666Y33865D01*
X11673Y33849D01*
X11677Y33832D01*
X11677Y33816D01*
X11673Y33799D01*
X11666Y33784D01*
X11656Y33770D01*
X11644Y33758D01*
X11629Y33750D01*
X11613Y33745D01*
X11596Y33743D01*
X11596Y33744D02*
X11515Y33744D01*
X11612Y33744D02*
X11676Y33615D01*
X11865Y33615D02*
X11929Y33615D01*
X11865Y33615D02*
X11851Y33617D01*
X11837Y33621D01*
X11825Y33629D01*
X11815Y33639D01*
X11807Y33651D01*
X11803Y33665D01*
X11801Y33679D01*
X11800Y33679D02*
X11800Y33841D01*
X11801Y33841D02*
X11803Y33855D01*
X11807Y33869D01*
X11815Y33881D01*
X11825Y33891D01*
X11837Y33899D01*
X11851Y33903D01*
X11865Y33905D01*
X11929Y33905D01*
X12055Y33905D02*
X12055Y33615D01*
X12055Y33728D02*
X12216Y33905D01*
X12120Y33792D02*
X12216Y33615D01*
X11676Y31179D02*
X11674Y31165D01*
X11670Y31151D01*
X11662Y31139D01*
X11652Y31129D01*
X11640Y31121D01*
X11626Y31117D01*
X11612Y31115D01*
X11591Y31117D01*
X11570Y31122D01*
X11550Y31130D01*
X11532Y31141D01*
X11515Y31155D01*
X11523Y31341D02*
X11525Y31355D01*
X11529Y31369D01*
X11537Y31381D01*
X11547Y31391D01*
X11559Y31399D01*
X11573Y31403D01*
X11587Y31405D01*
X11606Y31403D01*
X11625Y31399D01*
X11643Y31391D01*
X11660Y31381D01*
X11524Y31341D02*
X11525Y31328D01*
X11530Y31315D01*
X11536Y31303D01*
X11545Y31293D01*
X11556Y31285D01*
X11644Y31235D02*
X11655Y31227D01*
X11664Y31217D01*
X11670Y31205D01*
X11675Y31192D01*
X11676Y31179D01*
X11644Y31236D02*
X11555Y31284D01*
X11857Y31115D02*
X11921Y31115D01*
X11857Y31115D02*
X11843Y31117D01*
X11829Y31121D01*
X11817Y31129D01*
X11807Y31139D01*
X11799Y31151D01*
X11795Y31165D01*
X11793Y31179D01*
X11792Y31179D02*
X11792Y31341D01*
X11793Y31341D02*
X11795Y31355D01*
X11799Y31369D01*
X11807Y31381D01*
X11817Y31391D01*
X11829Y31399D01*
X11843Y31403D01*
X11857Y31405D01*
X11921Y31405D01*
X12048Y31405D02*
X12048Y31115D01*
X12048Y31228D02*
X12209Y31405D01*
X12112Y31292D02*
X12209Y31115D01*
X11612Y34115D02*
X11626Y34117D01*
X11640Y34121D01*
X11652Y34129D01*
X11662Y34139D01*
X11670Y34151D01*
X11674Y34165D01*
X11676Y34179D01*
X11612Y34115D02*
X11591Y34117D01*
X11570Y34122D01*
X11550Y34130D01*
X11532Y34141D01*
X11515Y34155D01*
X11523Y34341D02*
X11525Y34355D01*
X11529Y34369D01*
X11537Y34381D01*
X11547Y34391D01*
X11559Y34399D01*
X11573Y34403D01*
X11587Y34405D01*
X11606Y34403D01*
X11625Y34399D01*
X11643Y34391D01*
X11660Y34381D01*
X11524Y34341D02*
X11525Y34328D01*
X11530Y34315D01*
X11536Y34303D01*
X11545Y34293D01*
X11556Y34285D01*
X11644Y34235D02*
X11655Y34227D01*
X11664Y34217D01*
X11670Y34205D01*
X11675Y34192D01*
X11676Y34179D01*
X11644Y34236D02*
X11555Y34284D01*
X11857Y34115D02*
X11921Y34115D01*
X11857Y34115D02*
X11843Y34117D01*
X11829Y34121D01*
X11817Y34129D01*
X11807Y34139D01*
X11799Y34151D01*
X11795Y34165D01*
X11793Y34179D01*
X11792Y34179D02*
X11792Y34341D01*
X11793Y34341D02*
X11795Y34355D01*
X11799Y34369D01*
X11807Y34381D01*
X11817Y34391D01*
X11829Y34399D01*
X11843Y34403D01*
X11857Y34405D01*
X11921Y34405D01*
X12048Y34405D02*
X12048Y34115D01*
X12048Y34228D02*
X12209Y34405D01*
X12112Y34292D02*
X12209Y34115D01*
X11515Y36615D02*
X11515Y36905D01*
X11596Y36905D01*
X11613Y36903D01*
X11629Y36898D01*
X11644Y36890D01*
X11656Y36878D01*
X11666Y36865D01*
X11673Y36849D01*
X11677Y36832D01*
X11677Y36816D01*
X11673Y36799D01*
X11666Y36784D01*
X11656Y36770D01*
X11644Y36758D01*
X11629Y36750D01*
X11613Y36745D01*
X11596Y36743D01*
X11596Y36744D02*
X11515Y36744D01*
X11612Y36744D02*
X11676Y36615D01*
X11865Y36615D02*
X11929Y36615D01*
X11865Y36615D02*
X11851Y36617D01*
X11837Y36621D01*
X11825Y36629D01*
X11815Y36639D01*
X11807Y36651D01*
X11803Y36665D01*
X11801Y36679D01*
X11800Y36679D02*
X11800Y36841D01*
X11801Y36841D02*
X11803Y36855D01*
X11807Y36869D01*
X11815Y36881D01*
X11825Y36891D01*
X11837Y36899D01*
X11851Y36903D01*
X11865Y36905D01*
X11929Y36905D01*
X12055Y36905D02*
X12055Y36615D01*
X12055Y36728D02*
X12216Y36905D01*
X12120Y36792D02*
X12216Y36615D01*
X15856Y31405D02*
X15775Y31341D01*
X15856Y31405D02*
X15856Y31115D01*
X15775Y31115D02*
X15937Y31115D01*
X16063Y31341D02*
X16144Y31405D01*
X16144Y31115D01*
X16063Y31115D02*
X16225Y31115D01*
X15081Y31244D02*
X14984Y31244D01*
X14970Y31246D01*
X14956Y31250D01*
X14944Y31258D01*
X14934Y31268D01*
X14926Y31280D01*
X14922Y31294D01*
X14920Y31308D01*
X14919Y31308D02*
X14919Y31324D01*
X14921Y31341D01*
X14926Y31357D01*
X14934Y31372D01*
X14946Y31384D01*
X14960Y31394D01*
X14975Y31401D01*
X14992Y31405D01*
X15008Y31405D01*
X15025Y31401D01*
X15041Y31394D01*
X15054Y31384D01*
X15066Y31372D01*
X15074Y31357D01*
X15079Y31341D01*
X15081Y31324D01*
X15081Y31244D01*
X15079Y31224D01*
X15075Y31204D01*
X15067Y31185D01*
X15056Y31168D01*
X15043Y31153D01*
X15028Y31140D01*
X15011Y31129D01*
X14992Y31121D01*
X14972Y31117D01*
X14952Y31115D01*
X15775Y36841D02*
X15856Y36905D01*
X15856Y36615D01*
X15775Y36615D02*
X15937Y36615D01*
X16225Y36833D02*
X16223Y36849D01*
X16218Y36865D01*
X16209Y36879D01*
X16198Y36890D01*
X16184Y36899D01*
X16168Y36904D01*
X16152Y36906D01*
X16152Y36905D02*
X16135Y36904D01*
X16119Y36899D01*
X16104Y36892D01*
X16091Y36882D01*
X16079Y36870D01*
X16070Y36856D01*
X16064Y36841D01*
X16201Y36777D02*
X16211Y36788D01*
X16219Y36802D01*
X16223Y36817D01*
X16225Y36833D01*
X16200Y36776D02*
X16063Y36615D01*
X16225Y36615D01*
X14856Y36905D02*
X14775Y36841D01*
X14856Y36905D02*
X14856Y36615D01*
X14775Y36615D02*
X14937Y36615D01*
X15063Y36760D02*
X15065Y36787D01*
X15069Y36814D01*
X15077Y36840D01*
X15087Y36865D01*
X15087Y36864D02*
X15094Y36878D01*
X15103Y36889D01*
X15115Y36898D01*
X15129Y36903D01*
X15144Y36905D01*
X15159Y36903D01*
X15173Y36898D01*
X15185Y36889D01*
X15194Y36878D01*
X15201Y36864D01*
X15201Y36865D02*
X15211Y36840D01*
X15219Y36814D01*
X15223Y36787D01*
X15225Y36760D01*
X15063Y36760D02*
X15065Y36733D01*
X15069Y36706D01*
X15077Y36680D01*
X15087Y36655D01*
X15087Y36656D02*
X15094Y36642D01*
X15103Y36631D01*
X15115Y36622D01*
X15129Y36617D01*
X15144Y36615D01*
X15201Y36655D02*
X15211Y36680D01*
X15219Y36706D01*
X15223Y36733D01*
X15225Y36760D01*
X15201Y36656D02*
X15194Y36642D01*
X15185Y36631D01*
X15173Y36622D01*
X15159Y36617D01*
X15144Y36615D01*
X15080Y36679D02*
X15208Y36841D01*
X14081Y36696D02*
X14079Y36713D01*
X14074Y36729D01*
X14066Y36744D01*
X14054Y36756D01*
X14041Y36766D01*
X14025Y36773D01*
X14008Y36777D01*
X13992Y36777D01*
X13975Y36773D01*
X13960Y36766D01*
X13946Y36756D01*
X13934Y36744D01*
X13926Y36729D01*
X13921Y36713D01*
X13919Y36696D01*
X13921Y36679D01*
X13926Y36663D01*
X13934Y36648D01*
X13946Y36636D01*
X13960Y36626D01*
X13975Y36619D01*
X13992Y36615D01*
X14008Y36615D01*
X14025Y36619D01*
X14041Y36626D01*
X14054Y36636D01*
X14066Y36648D01*
X14074Y36663D01*
X14079Y36679D01*
X14081Y36696D01*
X14064Y36841D02*
X14062Y36855D01*
X14058Y36869D01*
X14050Y36881D01*
X14040Y36891D01*
X14028Y36899D01*
X14014Y36903D01*
X14000Y36905D01*
X13986Y36903D01*
X13972Y36899D01*
X13960Y36891D01*
X13950Y36881D01*
X13942Y36869D01*
X13938Y36855D01*
X13936Y36841D01*
X13938Y36827D01*
X13942Y36813D01*
X13950Y36801D01*
X13960Y36791D01*
X13972Y36783D01*
X13986Y36779D01*
X14000Y36777D01*
X14014Y36779D01*
X14028Y36783D01*
X14040Y36791D01*
X14050Y36801D01*
X14058Y36813D01*
X14062Y36827D01*
X14064Y36841D01*
D10*
X6514Y8508D02*
X6514Y8381D01*
X6514Y8508D02*
X6516Y8529D01*
X6521Y8550D01*
X6529Y8569D01*
X6541Y8587D01*
X6555Y8602D01*
X6572Y8615D01*
X6591Y8625D01*
X6611Y8632D01*
X6631Y8636D01*
X6653Y8636D01*
X6673Y8632D01*
X6693Y8625D01*
X6712Y8615D01*
X6729Y8602D01*
X6743Y8587D01*
X6755Y8569D01*
X6763Y8550D01*
X6768Y8529D01*
X6770Y8508D01*
X6770Y8381D01*
X6310Y8381D01*
X6310Y8508D01*
X6312Y8527D01*
X6317Y8545D01*
X6325Y8562D01*
X6337Y8577D01*
X6351Y8589D01*
X6367Y8599D01*
X6384Y8606D01*
X6403Y8610D01*
X6421Y8610D01*
X6440Y8606D01*
X6457Y8599D01*
X6473Y8589D01*
X6487Y8577D01*
X6499Y8562D01*
X6507Y8545D01*
X6512Y8527D01*
X6514Y8508D01*
X6310Y8825D02*
X6770Y8825D01*
X6770Y9029D01*
X6642Y9214D02*
X6310Y9214D01*
X6642Y9214D02*
X6663Y9216D01*
X6684Y9221D01*
X6703Y9229D01*
X6721Y9241D01*
X6736Y9255D01*
X6749Y9272D01*
X6759Y9291D01*
X6766Y9311D01*
X6770Y9331D01*
X6770Y9353D01*
X6766Y9373D01*
X6759Y9393D01*
X6749Y9412D01*
X6736Y9429D01*
X6721Y9443D01*
X6703Y9455D01*
X6684Y9463D01*
X6663Y9468D01*
X6642Y9470D01*
X6310Y9470D01*
X6770Y9695D02*
X6770Y9899D01*
X6770Y9695D02*
X6310Y9695D01*
X6310Y9899D01*
X6514Y9848D02*
X6514Y9695D01*
X6310Y10091D02*
X6770Y10091D01*
X6310Y10091D02*
X6310Y10218D01*
X6312Y10239D01*
X6317Y10260D01*
X6325Y10279D01*
X6337Y10297D01*
X6351Y10312D01*
X6368Y10325D01*
X6387Y10335D01*
X6407Y10342D01*
X6427Y10346D01*
X6449Y10346D01*
X6469Y10342D01*
X6489Y10335D01*
X6508Y10325D01*
X6525Y10312D01*
X6539Y10297D01*
X6551Y10279D01*
X6559Y10260D01*
X6564Y10239D01*
X6566Y10218D01*
X6566Y10091D01*
X6770Y10557D02*
X6310Y10557D01*
X6770Y10506D02*
X6770Y10608D01*
X6310Y10608D02*
X6310Y10506D01*
X6310Y10805D02*
X6770Y10805D01*
X6770Y11009D01*
X6770Y11195D02*
X6310Y11195D01*
X6770Y11195D02*
X6770Y11399D01*
D13*
X1208Y36070D02*
X1208Y36710D01*
X1030Y36710D02*
X1386Y36710D01*
X1720Y36319D02*
X1880Y36319D01*
X1720Y36318D02*
X1700Y36316D01*
X1680Y36311D01*
X1661Y36303D01*
X1644Y36292D01*
X1629Y36278D01*
X1616Y36262D01*
X1606Y36244D01*
X1600Y36224D01*
X1596Y36204D01*
X1596Y36184D01*
X1600Y36164D01*
X1606Y36144D01*
X1616Y36126D01*
X1629Y36110D01*
X1644Y36096D01*
X1661Y36085D01*
X1680Y36077D01*
X1700Y36072D01*
X1720Y36070D01*
X1880Y36070D01*
X1880Y36390D01*
X1881Y36390D02*
X1879Y36409D01*
X1875Y36427D01*
X1867Y36444D01*
X1856Y36459D01*
X1843Y36472D01*
X1828Y36483D01*
X1811Y36491D01*
X1793Y36495D01*
X1774Y36497D01*
X1632Y36497D01*
X2177Y36497D02*
X2177Y36070D01*
X2177Y36497D02*
X2390Y36497D01*
X2390Y36426D01*
X2865Y36710D02*
X2865Y36070D01*
X2687Y36070D01*
X2668Y36072D01*
X2650Y36076D01*
X2634Y36084D01*
X2618Y36095D01*
X2605Y36108D01*
X2594Y36124D01*
X2586Y36140D01*
X2582Y36158D01*
X2580Y36177D01*
X2581Y36177D02*
X2581Y36390D01*
X2580Y36390D02*
X2582Y36409D01*
X2586Y36427D01*
X2594Y36444D01*
X2605Y36459D01*
X2618Y36472D01*
X2634Y36483D01*
X2650Y36491D01*
X2668Y36495D01*
X2687Y36497D01*
X2865Y36497D01*
X3136Y36497D02*
X3136Y36070D01*
X3118Y36674D02*
X3118Y36710D01*
X3154Y36710D01*
X3154Y36674D01*
X3118Y36674D01*
X3437Y36319D02*
X3615Y36248D01*
X3437Y36319D02*
X3421Y36327D01*
X3406Y36338D01*
X3395Y36352D01*
X3386Y36368D01*
X3381Y36386D01*
X3379Y36404D01*
X3381Y36422D01*
X3386Y36439D01*
X3395Y36455D01*
X3406Y36469D01*
X3421Y36481D01*
X3437Y36489D01*
X3454Y36494D01*
X3472Y36496D01*
X3473Y36497D02*
X3506Y36495D01*
X3538Y36491D01*
X3571Y36483D01*
X3602Y36474D01*
X3633Y36461D01*
X3614Y36247D02*
X3630Y36239D01*
X3645Y36228D01*
X3656Y36214D01*
X3665Y36198D01*
X3670Y36180D01*
X3672Y36162D01*
X3670Y36144D01*
X3665Y36127D01*
X3656Y36111D01*
X3645Y36097D01*
X3630Y36085D01*
X3614Y36077D01*
X3597Y36072D01*
X3579Y36070D01*
X3540Y36072D01*
X3500Y36076D01*
X3461Y36084D01*
X3422Y36093D01*
X3384Y36106D01*
X4279Y36070D02*
X4279Y36710D01*
X4635Y36710D02*
X4279Y36319D01*
X4422Y36461D02*
X4635Y36070D01*
X4967Y36070D02*
X5145Y36070D01*
X4967Y36070D02*
X4948Y36072D01*
X4930Y36076D01*
X4914Y36084D01*
X4898Y36095D01*
X4885Y36108D01*
X4874Y36124D01*
X4866Y36140D01*
X4862Y36158D01*
X4860Y36177D01*
X4861Y36177D02*
X4861Y36354D01*
X4863Y36376D01*
X4868Y36398D01*
X4876Y36418D01*
X4888Y36437D01*
X4903Y36454D01*
X4920Y36469D01*
X4939Y36481D01*
X4959Y36489D01*
X4981Y36494D01*
X5003Y36496D01*
X5025Y36494D01*
X5047Y36489D01*
X5067Y36481D01*
X5086Y36469D01*
X5103Y36454D01*
X5118Y36437D01*
X5130Y36418D01*
X5138Y36398D01*
X5143Y36376D01*
X5145Y36354D01*
X5145Y36283D01*
X4861Y36283D01*
X5373Y35857D02*
X5444Y35857D01*
X5658Y36497D01*
X5373Y36497D02*
X5516Y36070D01*
X5910Y36070D02*
X5910Y36710D01*
X5910Y36070D02*
X6087Y36070D01*
X6106Y36072D01*
X6124Y36076D01*
X6140Y36084D01*
X6156Y36095D01*
X6169Y36108D01*
X6180Y36123D01*
X6188Y36140D01*
X6192Y36158D01*
X6194Y36177D01*
X6194Y36390D01*
X6192Y36409D01*
X6188Y36427D01*
X6180Y36444D01*
X6169Y36459D01*
X6156Y36472D01*
X6141Y36483D01*
X6124Y36491D01*
X6106Y36495D01*
X6087Y36497D01*
X5910Y36497D01*
X6440Y36354D02*
X6440Y36212D01*
X6440Y36354D02*
X6442Y36376D01*
X6447Y36398D01*
X6455Y36418D01*
X6467Y36437D01*
X6482Y36454D01*
X6499Y36469D01*
X6518Y36481D01*
X6538Y36489D01*
X6560Y36494D01*
X6582Y36496D01*
X6604Y36494D01*
X6626Y36489D01*
X6646Y36481D01*
X6665Y36469D01*
X6682Y36454D01*
X6697Y36437D01*
X6709Y36418D01*
X6717Y36398D01*
X6722Y36376D01*
X6724Y36354D01*
X6725Y36354D02*
X6725Y36212D01*
X6724Y36212D02*
X6722Y36190D01*
X6717Y36168D01*
X6709Y36148D01*
X6697Y36129D01*
X6682Y36112D01*
X6665Y36097D01*
X6646Y36085D01*
X6626Y36077D01*
X6604Y36072D01*
X6582Y36070D01*
X6560Y36072D01*
X6538Y36077D01*
X6518Y36085D01*
X6499Y36097D01*
X6482Y36112D01*
X6467Y36129D01*
X6455Y36148D01*
X6447Y36168D01*
X6442Y36190D01*
X6440Y36212D01*
X7095Y36319D02*
X7255Y36319D01*
X7095Y36318D02*
X7075Y36316D01*
X7055Y36311D01*
X7036Y36303D01*
X7019Y36292D01*
X7004Y36278D01*
X6991Y36262D01*
X6981Y36244D01*
X6975Y36224D01*
X6971Y36204D01*
X6971Y36184D01*
X6975Y36164D01*
X6981Y36144D01*
X6991Y36126D01*
X7004Y36110D01*
X7019Y36096D01*
X7036Y36085D01*
X7055Y36077D01*
X7075Y36072D01*
X7095Y36070D01*
X7255Y36070D01*
X7255Y36390D01*
X7253Y36409D01*
X7249Y36427D01*
X7241Y36444D01*
X7230Y36459D01*
X7217Y36472D01*
X7202Y36483D01*
X7185Y36491D01*
X7167Y36495D01*
X7148Y36497D01*
X7006Y36497D01*
X7551Y36497D02*
X7551Y36070D01*
X7551Y36497D02*
X7764Y36497D01*
X7764Y36426D01*
X8240Y36710D02*
X8240Y36070D01*
X8062Y36070D01*
X8043Y36072D01*
X8025Y36076D01*
X8009Y36084D01*
X7993Y36095D01*
X7980Y36108D01*
X7969Y36124D01*
X7961Y36140D01*
X7957Y36158D01*
X7955Y36177D01*
X7955Y36390D01*
X7957Y36409D01*
X7961Y36427D01*
X7969Y36444D01*
X7980Y36459D01*
X7993Y36472D01*
X8009Y36483D01*
X8025Y36491D01*
X8043Y36495D01*
X8062Y36497D01*
X8240Y36497D01*
X1030Y35660D02*
X1030Y35020D01*
X1030Y35660D02*
X1208Y35660D01*
X1233Y35658D01*
X1258Y35653D01*
X1282Y35644D01*
X1304Y35632D01*
X1325Y35617D01*
X1343Y35599D01*
X1358Y35578D01*
X1370Y35556D01*
X1379Y35532D01*
X1384Y35507D01*
X1386Y35482D01*
X1384Y35457D01*
X1379Y35432D01*
X1370Y35408D01*
X1358Y35386D01*
X1343Y35365D01*
X1325Y35347D01*
X1304Y35332D01*
X1282Y35320D01*
X1258Y35311D01*
X1233Y35306D01*
X1208Y35304D01*
X1030Y35304D01*
X1243Y35304D02*
X1386Y35020D01*
X1743Y35020D02*
X1921Y35020D01*
X1743Y35020D02*
X1724Y35022D01*
X1706Y35026D01*
X1689Y35034D01*
X1674Y35045D01*
X1661Y35058D01*
X1650Y35074D01*
X1642Y35090D01*
X1638Y35108D01*
X1636Y35127D01*
X1636Y35304D01*
X1637Y35304D02*
X1639Y35326D01*
X1644Y35348D01*
X1652Y35368D01*
X1664Y35387D01*
X1679Y35404D01*
X1696Y35419D01*
X1715Y35431D01*
X1735Y35439D01*
X1757Y35444D01*
X1779Y35446D01*
X1801Y35444D01*
X1823Y35439D01*
X1843Y35431D01*
X1862Y35419D01*
X1879Y35404D01*
X1894Y35387D01*
X1906Y35368D01*
X1914Y35348D01*
X1919Y35326D01*
X1921Y35304D01*
X1921Y35233D01*
X1636Y35233D01*
X2149Y35447D02*
X2291Y35020D01*
X2434Y35447D01*
X2643Y35056D02*
X2643Y35020D01*
X2643Y35056D02*
X2678Y35056D01*
X2678Y35020D01*
X2643Y35020D01*
X3242Y35518D02*
X3420Y35660D01*
X3420Y35020D01*
X3597Y35020D02*
X3242Y35020D01*
X3833Y35020D02*
X3833Y35056D01*
X3868Y35056D01*
X3868Y35020D01*
X3833Y35020D01*
X4104Y35340D02*
X4106Y35380D01*
X4110Y35419D01*
X4117Y35459D01*
X4128Y35497D01*
X4141Y35534D01*
X4157Y35571D01*
X4156Y35571D02*
X4164Y35590D01*
X4175Y35607D01*
X4189Y35622D01*
X4204Y35635D01*
X4222Y35646D01*
X4241Y35654D01*
X4261Y35658D01*
X4281Y35660D01*
X4301Y35658D01*
X4321Y35654D01*
X4340Y35646D01*
X4358Y35635D01*
X4373Y35622D01*
X4387Y35607D01*
X4398Y35590D01*
X4406Y35571D01*
X4422Y35534D01*
X4435Y35497D01*
X4446Y35459D01*
X4453Y35419D01*
X4457Y35380D01*
X4459Y35340D01*
X4104Y35340D02*
X4106Y35300D01*
X4110Y35261D01*
X4117Y35222D01*
X4128Y35183D01*
X4141Y35146D01*
X4157Y35109D01*
X4156Y35109D02*
X4164Y35090D01*
X4175Y35073D01*
X4189Y35058D01*
X4204Y35045D01*
X4222Y35034D01*
X4241Y35026D01*
X4261Y35022D01*
X4281Y35020D01*
X4406Y35109D02*
X4422Y35146D01*
X4435Y35183D01*
X4446Y35222D01*
X4453Y35261D01*
X4457Y35300D01*
X4459Y35340D01*
X4406Y35109D02*
X4398Y35090D01*
X4387Y35073D01*
X4373Y35058D01*
X4358Y35045D01*
X4340Y35034D01*
X4321Y35026D01*
X4301Y35022D01*
X4281Y35020D01*
X4139Y35162D02*
X4423Y35518D01*
X1030Y34270D02*
X1030Y33630D01*
X1030Y33879D02*
X1386Y34270D01*
X1172Y34021D02*
X1386Y33630D01*
X1718Y33630D02*
X1896Y33630D01*
X1718Y33630D02*
X1699Y33632D01*
X1681Y33636D01*
X1664Y33644D01*
X1649Y33655D01*
X1636Y33668D01*
X1625Y33684D01*
X1617Y33700D01*
X1613Y33718D01*
X1611Y33737D01*
X1611Y33914D01*
X1613Y33936D01*
X1618Y33958D01*
X1626Y33978D01*
X1638Y33997D01*
X1653Y34014D01*
X1670Y34029D01*
X1689Y34041D01*
X1709Y34049D01*
X1731Y34054D01*
X1753Y34056D01*
X1775Y34054D01*
X1797Y34049D01*
X1817Y34041D01*
X1836Y34029D01*
X1853Y34014D01*
X1868Y33997D01*
X1880Y33978D01*
X1888Y33958D01*
X1893Y33936D01*
X1895Y33914D01*
X1896Y33914D02*
X1896Y33843D01*
X1611Y33843D01*
X2124Y33417D02*
X2195Y33417D01*
X2408Y34057D01*
X2124Y34057D02*
X2266Y33630D01*
X3163Y33630D02*
X3185Y33632D01*
X3207Y33637D01*
X3227Y33645D01*
X3246Y33657D01*
X3263Y33672D01*
X3278Y33689D01*
X3290Y33708D01*
X3298Y33728D01*
X3303Y33750D01*
X3305Y33772D01*
X3163Y33630D02*
X3129Y33632D01*
X3096Y33638D01*
X3063Y33647D01*
X3032Y33660D01*
X3003Y33676D01*
X2975Y33696D01*
X2950Y33719D01*
X2968Y34128D02*
X2970Y34150D01*
X2975Y34172D01*
X2983Y34192D01*
X2995Y34211D01*
X3010Y34228D01*
X3027Y34243D01*
X3046Y34255D01*
X3066Y34263D01*
X3088Y34268D01*
X3110Y34270D01*
X3139Y34268D01*
X3167Y34264D01*
X3194Y34256D01*
X3221Y34246D01*
X3246Y34233D01*
X3270Y34217D01*
X2968Y34128D02*
X2970Y34107D01*
X2974Y34086D01*
X2982Y34066D01*
X2993Y34047D01*
X3006Y34031D01*
X3021Y34016D01*
X3039Y34004D01*
X3234Y33896D02*
X3252Y33884D01*
X3267Y33869D01*
X3280Y33853D01*
X3291Y33834D01*
X3299Y33814D01*
X3303Y33793D01*
X3305Y33772D01*
X3234Y33897D02*
X3039Y34003D01*
X3538Y34057D02*
X3538Y33630D01*
X3520Y34234D02*
X3520Y34270D01*
X3556Y34270D01*
X3556Y34234D01*
X3520Y34234D01*
X4067Y34270D02*
X4067Y33630D01*
X3889Y33630D01*
X3870Y33632D01*
X3852Y33636D01*
X3836Y33644D01*
X3820Y33655D01*
X3807Y33668D01*
X3796Y33684D01*
X3788Y33700D01*
X3784Y33718D01*
X3782Y33737D01*
X3783Y33737D02*
X3783Y33950D01*
X3782Y33950D02*
X3784Y33969D01*
X3788Y33987D01*
X3796Y34004D01*
X3807Y34019D01*
X3820Y34032D01*
X3836Y34043D01*
X3852Y34051D01*
X3870Y34055D01*
X3889Y34057D01*
X4067Y34057D01*
X4446Y33630D02*
X4624Y33630D01*
X4446Y33630D02*
X4427Y33632D01*
X4409Y33636D01*
X4393Y33644D01*
X4377Y33655D01*
X4364Y33668D01*
X4353Y33684D01*
X4345Y33700D01*
X4341Y33718D01*
X4339Y33737D01*
X4339Y33914D01*
X4340Y33914D02*
X4342Y33936D01*
X4347Y33958D01*
X4355Y33978D01*
X4367Y33997D01*
X4382Y34014D01*
X4399Y34029D01*
X4418Y34041D01*
X4438Y34049D01*
X4460Y34054D01*
X4482Y34056D01*
X4504Y34054D01*
X4526Y34049D01*
X4546Y34041D01*
X4565Y34029D01*
X4582Y34014D01*
X4597Y33997D01*
X4609Y33978D01*
X4617Y33958D01*
X4622Y33936D01*
X4624Y33914D01*
X4624Y33843D01*
X4339Y33843D01*
D11*
X8958Y20059D02*
X8956Y20046D01*
X8951Y20035D01*
X8944Y20024D01*
X8934Y20017D01*
X8922Y20012D01*
X8909Y20010D01*
X8893Y20011D01*
X8877Y20015D01*
X8862Y20021D01*
X8848Y20030D01*
X8836Y20040D01*
X8842Y20181D02*
X8844Y20194D01*
X8849Y20206D01*
X8856Y20216D01*
X8867Y20223D01*
X8878Y20228D01*
X8891Y20230D01*
X8906Y20229D01*
X8920Y20225D01*
X8934Y20219D01*
X8946Y20212D01*
X8842Y20181D02*
X8844Y20168D01*
X8849Y20156D01*
X8856Y20146D01*
X8867Y20138D01*
X8933Y20102D02*
X8944Y20094D01*
X8951Y20084D01*
X8956Y20072D01*
X8958Y20059D01*
X8934Y20102D02*
X8866Y20138D01*
X9093Y20010D02*
X9142Y20010D01*
X9093Y20010D02*
X9080Y20012D01*
X9069Y20017D01*
X9058Y20024D01*
X9051Y20035D01*
X9046Y20046D01*
X9044Y20059D01*
X9044Y20181D01*
X9046Y20194D01*
X9051Y20205D01*
X9058Y20216D01*
X9068Y20223D01*
X9080Y20228D01*
X9093Y20230D01*
X9142Y20230D01*
X9232Y20230D02*
X9232Y20010D01*
X9330Y20010D01*
D12*
X12612Y31115D02*
X12626Y31117D01*
X12640Y31121D01*
X12652Y31129D01*
X12662Y31139D01*
X12670Y31151D01*
X12674Y31165D01*
X12676Y31179D01*
X12612Y31115D02*
X12591Y31117D01*
X12570Y31122D01*
X12550Y31130D01*
X12532Y31141D01*
X12515Y31155D01*
X12523Y31341D02*
X12525Y31355D01*
X12529Y31369D01*
X12537Y31381D01*
X12547Y31391D01*
X12559Y31399D01*
X12573Y31403D01*
X12587Y31405D01*
X12606Y31403D01*
X12625Y31399D01*
X12643Y31391D01*
X12660Y31381D01*
X12524Y31341D02*
X12525Y31328D01*
X12530Y31315D01*
X12536Y31303D01*
X12545Y31293D01*
X12556Y31285D01*
X12644Y31235D02*
X12655Y31227D01*
X12664Y31217D01*
X12670Y31205D01*
X12675Y31192D01*
X12676Y31179D01*
X12644Y31236D02*
X12555Y31284D01*
X12857Y31115D02*
X12921Y31115D01*
X12857Y31115D02*
X12843Y31117D01*
X12829Y31121D01*
X12817Y31129D01*
X12807Y31139D01*
X12799Y31151D01*
X12795Y31165D01*
X12793Y31179D01*
X12792Y31179D02*
X12792Y31341D01*
X12793Y31341D02*
X12795Y31355D01*
X12799Y31369D01*
X12807Y31381D01*
X12817Y31391D01*
X12829Y31399D01*
X12843Y31403D01*
X12857Y31405D01*
X12921Y31405D01*
X13044Y31405D02*
X13044Y31115D01*
X13173Y31115D01*
X12612Y34115D02*
X12626Y34117D01*
X12640Y34121D01*
X12652Y34129D01*
X12662Y34139D01*
X12670Y34151D01*
X12674Y34165D01*
X12676Y34179D01*
X12612Y34115D02*
X12591Y34117D01*
X12570Y34122D01*
X12550Y34130D01*
X12532Y34141D01*
X12515Y34155D01*
X12523Y34341D02*
X12525Y34355D01*
X12529Y34369D01*
X12537Y34381D01*
X12547Y34391D01*
X12559Y34399D01*
X12573Y34403D01*
X12587Y34405D01*
X12606Y34403D01*
X12625Y34399D01*
X12643Y34391D01*
X12660Y34381D01*
X12524Y34341D02*
X12525Y34328D01*
X12530Y34315D01*
X12536Y34303D01*
X12545Y34293D01*
X12556Y34285D01*
X12644Y34235D02*
X12655Y34227D01*
X12664Y34217D01*
X12670Y34205D01*
X12675Y34192D01*
X12676Y34179D01*
X12644Y34236D02*
X12555Y34284D01*
X12857Y34115D02*
X12921Y34115D01*
X12857Y34115D02*
X12843Y34117D01*
X12829Y34121D01*
X12817Y34129D01*
X12807Y34139D01*
X12799Y34151D01*
X12795Y34165D01*
X12793Y34179D01*
X12792Y34179D02*
X12792Y34341D01*
X12793Y34341D02*
X12795Y34355D01*
X12799Y34369D01*
X12807Y34381D01*
X12817Y34391D01*
X12829Y34399D01*
X12843Y34403D01*
X12857Y34405D01*
X12921Y34405D01*
X13044Y34405D02*
X13044Y34115D01*
X13173Y34115D01*
X12547Y33905D02*
X12547Y33615D01*
X12515Y33615D02*
X12579Y33615D01*
X12579Y33905D02*
X12515Y33905D01*
X12707Y33905D02*
X12707Y33615D01*
X12868Y33615D02*
X12707Y33905D01*
X12868Y33905D02*
X12868Y33615D01*
X13014Y33615D02*
X13014Y33905D01*
X13014Y33776D02*
X13175Y33776D01*
X13175Y33905D02*
X13175Y33615D01*
X13321Y33615D02*
X13321Y33905D01*
X13402Y33905D01*
X13418Y33903D01*
X13433Y33899D01*
X13447Y33891D01*
X13459Y33881D01*
X13469Y33869D01*
X13477Y33855D01*
X13481Y33840D01*
X13483Y33824D01*
X13482Y33824D02*
X13482Y33696D01*
X13483Y33696D02*
X13481Y33680D01*
X13477Y33665D01*
X13469Y33651D01*
X13459Y33639D01*
X13447Y33629D01*
X13433Y33621D01*
X13418Y33617D01*
X13402Y33615D01*
X13321Y33615D01*
X12547Y36615D02*
X12547Y36905D01*
X12515Y36615D02*
X12579Y36615D01*
X12579Y36905D02*
X12515Y36905D01*
X12707Y36905D02*
X12707Y36615D01*
X12868Y36615D02*
X12707Y36905D01*
X12868Y36905D02*
X12868Y36615D01*
X13014Y36615D02*
X13014Y36905D01*
X13014Y36776D02*
X13175Y36776D01*
X13175Y36905D02*
X13175Y36615D01*
X13321Y36615D02*
X13321Y36905D01*
X13402Y36905D01*
X13418Y36903D01*
X13433Y36899D01*
X13447Y36891D01*
X13459Y36881D01*
X13469Y36869D01*
X13477Y36855D01*
X13481Y36840D01*
X13483Y36824D01*
X13482Y36824D02*
X13482Y36696D01*
X13483Y36696D02*
X13481Y36680D01*
X13477Y36665D01*
X13469Y36651D01*
X13459Y36639D01*
X13447Y36629D01*
X13433Y36621D01*
X13418Y36617D01*
X13402Y36615D01*
X13321Y36615D01*
X13515Y34405D02*
X13515Y34115D01*
X13515Y34405D02*
X13596Y34405D01*
X13613Y34403D01*
X13629Y34398D01*
X13644Y34390D01*
X13656Y34378D01*
X13666Y34365D01*
X13673Y34349D01*
X13677Y34332D01*
X13677Y34316D01*
X13673Y34299D01*
X13666Y34284D01*
X13656Y34270D01*
X13644Y34258D01*
X13629Y34250D01*
X13613Y34245D01*
X13596Y34243D01*
X13596Y34244D02*
X13515Y34244D01*
X13612Y34244D02*
X13676Y34115D01*
X13811Y34115D02*
X13940Y34115D01*
X13811Y34115D02*
X13811Y34405D01*
X13940Y34405D01*
X13908Y34276D02*
X13811Y34276D01*
X14173Y34276D02*
X14221Y34276D01*
X14221Y34115D01*
X14125Y34115D01*
X14111Y34117D01*
X14097Y34121D01*
X14085Y34129D01*
X14075Y34139D01*
X14067Y34151D01*
X14063Y34165D01*
X14061Y34179D01*
X14060Y34179D02*
X14060Y34341D01*
X14061Y34341D02*
X14063Y34355D01*
X14067Y34369D01*
X14075Y34381D01*
X14085Y34391D01*
X14097Y34399D01*
X14111Y34403D01*
X14125Y34405D01*
X14221Y34405D01*
X14358Y34115D02*
X14438Y34115D01*
X14455Y34117D01*
X14471Y34122D01*
X14486Y34130D01*
X14498Y34142D01*
X14508Y34156D01*
X14515Y34171D01*
X14519Y34188D01*
X14519Y34204D01*
X14515Y34221D01*
X14508Y34237D01*
X14498Y34250D01*
X14486Y34262D01*
X14471Y34270D01*
X14455Y34275D01*
X14438Y34277D01*
X14454Y34405D02*
X14358Y34405D01*
X14454Y34405D02*
X14468Y34403D01*
X14482Y34399D01*
X14494Y34391D01*
X14504Y34381D01*
X14512Y34369D01*
X14516Y34355D01*
X14518Y34341D01*
X14516Y34327D01*
X14512Y34313D01*
X14504Y34301D01*
X14494Y34291D01*
X14482Y34283D01*
X14468Y34279D01*
X14454Y34277D01*
X14454Y34276D02*
X14390Y34276D01*
X13515Y31405D02*
X13515Y31115D01*
X13515Y31405D02*
X13596Y31405D01*
X13613Y31403D01*
X13629Y31398D01*
X13644Y31390D01*
X13656Y31378D01*
X13666Y31365D01*
X13673Y31349D01*
X13677Y31332D01*
X13677Y31316D01*
X13673Y31299D01*
X13666Y31284D01*
X13656Y31270D01*
X13644Y31258D01*
X13629Y31250D01*
X13613Y31245D01*
X13596Y31243D01*
X13596Y31244D02*
X13515Y31244D01*
X13612Y31244D02*
X13676Y31115D01*
X13811Y31115D02*
X13940Y31115D01*
X13811Y31115D02*
X13811Y31405D01*
X13940Y31405D01*
X13908Y31276D02*
X13811Y31276D01*
X14173Y31276D02*
X14221Y31276D01*
X14221Y31115D01*
X14125Y31115D01*
X14111Y31117D01*
X14097Y31121D01*
X14085Y31129D01*
X14075Y31139D01*
X14067Y31151D01*
X14063Y31165D01*
X14061Y31179D01*
X14060Y31179D02*
X14060Y31341D01*
X14061Y31341D02*
X14063Y31355D01*
X14067Y31369D01*
X14075Y31381D01*
X14085Y31391D01*
X14097Y31399D01*
X14111Y31403D01*
X14125Y31405D01*
X14221Y31405D01*
X14358Y31115D02*
X14438Y31115D01*
X14455Y31117D01*
X14471Y31122D01*
X14486Y31130D01*
X14498Y31142D01*
X14508Y31156D01*
X14515Y31171D01*
X14519Y31188D01*
X14519Y31204D01*
X14515Y31221D01*
X14508Y31237D01*
X14498Y31250D01*
X14486Y31262D01*
X14471Y31270D01*
X14455Y31275D01*
X14438Y31277D01*
X14454Y31405D02*
X14358Y31405D01*
X14454Y31405D02*
X14468Y31403D01*
X14482Y31399D01*
X14494Y31391D01*
X14504Y31381D01*
X14512Y31369D01*
X14516Y31355D01*
X14518Y31341D01*
X14516Y31327D01*
X14512Y31313D01*
X14504Y31301D01*
X14494Y31291D01*
X14482Y31283D01*
X14468Y31279D01*
X14454Y31277D01*
X14454Y31276D02*
X14390Y31276D01*
X14984Y34244D02*
X15081Y34244D01*
X14984Y34244D02*
X14970Y34246D01*
X14956Y34250D01*
X14944Y34258D01*
X14934Y34268D01*
X14926Y34280D01*
X14922Y34294D01*
X14920Y34308D01*
X14919Y34308D02*
X14919Y34324D01*
X14921Y34341D01*
X14926Y34357D01*
X14934Y34372D01*
X14946Y34384D01*
X14960Y34394D01*
X14975Y34401D01*
X14992Y34405D01*
X15008Y34405D01*
X15025Y34401D01*
X15041Y34394D01*
X15054Y34384D01*
X15066Y34372D01*
X15074Y34357D01*
X15079Y34341D01*
X15081Y34324D01*
X15081Y34244D01*
X15079Y34224D01*
X15075Y34204D01*
X15067Y34185D01*
X15056Y34168D01*
X15043Y34153D01*
X15028Y34140D01*
X15011Y34129D01*
X14992Y34121D01*
X14972Y34117D01*
X14952Y34115D01*
X15775Y34341D02*
X15856Y34405D01*
X15856Y34115D01*
X15775Y34115D02*
X15937Y34115D01*
X16063Y34341D02*
X16144Y34405D01*
X16144Y34115D01*
X16063Y34115D02*
X16225Y34115D01*
X16775Y34341D02*
X16856Y34405D01*
X16856Y34115D01*
X16775Y34115D02*
X16937Y34115D01*
X17063Y34115D02*
X17144Y34115D01*
X17161Y34117D01*
X17177Y34122D01*
X17192Y34130D01*
X17204Y34142D01*
X17214Y34156D01*
X17221Y34171D01*
X17225Y34188D01*
X17225Y34204D01*
X17221Y34221D01*
X17214Y34237D01*
X17204Y34250D01*
X17192Y34262D01*
X17177Y34270D01*
X17161Y34275D01*
X17144Y34277D01*
X17160Y34405D02*
X17063Y34405D01*
X17160Y34405D02*
X17174Y34403D01*
X17188Y34399D01*
X17200Y34391D01*
X17210Y34381D01*
X17218Y34369D01*
X17222Y34355D01*
X17224Y34341D01*
X17222Y34327D01*
X17218Y34313D01*
X17210Y34301D01*
X17200Y34291D01*
X17188Y34283D01*
X17174Y34279D01*
X17160Y34277D01*
X17160Y34276D02*
X17096Y34276D01*
X17775Y34341D02*
X17856Y34405D01*
X17856Y34115D01*
X17775Y34115D02*
X17937Y34115D01*
X18063Y34115D02*
X18160Y34115D01*
X18174Y34117D01*
X18188Y34121D01*
X18200Y34129D01*
X18210Y34139D01*
X18218Y34151D01*
X18222Y34165D01*
X18224Y34179D01*
X18225Y34179D02*
X18225Y34212D01*
X18224Y34212D02*
X18222Y34226D01*
X18218Y34240D01*
X18210Y34252D01*
X18200Y34262D01*
X18188Y34270D01*
X18174Y34274D01*
X18160Y34276D01*
X18063Y34276D01*
X18063Y34405D01*
X18225Y34405D01*
X18775Y34341D02*
X18856Y34405D01*
X18856Y34115D01*
X18775Y34115D02*
X18937Y34115D01*
X19063Y34373D02*
X19063Y34405D01*
X19225Y34405D01*
X19144Y34115D01*
X19775Y34341D02*
X19856Y34405D01*
X19856Y34115D01*
X19775Y34115D02*
X19937Y34115D01*
X20128Y34244D02*
X20225Y34244D01*
X20128Y34244D02*
X20114Y34246D01*
X20100Y34250D01*
X20088Y34258D01*
X20078Y34268D01*
X20070Y34280D01*
X20066Y34294D01*
X20064Y34308D01*
X20063Y34308D02*
X20063Y34324D01*
X20065Y34341D01*
X20070Y34357D01*
X20078Y34372D01*
X20090Y34384D01*
X20104Y34394D01*
X20119Y34401D01*
X20136Y34405D01*
X20152Y34405D01*
X20169Y34401D01*
X20185Y34394D01*
X20198Y34384D01*
X20210Y34372D01*
X20218Y34357D01*
X20223Y34341D01*
X20225Y34324D01*
X20225Y34244D01*
X20223Y34224D01*
X20219Y34204D01*
X20211Y34185D01*
X20200Y34168D01*
X20187Y34153D01*
X20172Y34140D01*
X20155Y34129D01*
X20136Y34121D01*
X20116Y34117D01*
X20096Y34115D01*
X14081Y33696D02*
X14079Y33713D01*
X14074Y33729D01*
X14066Y33744D01*
X14054Y33756D01*
X14041Y33766D01*
X14025Y33773D01*
X14008Y33777D01*
X13992Y33777D01*
X13975Y33773D01*
X13960Y33766D01*
X13946Y33756D01*
X13934Y33744D01*
X13926Y33729D01*
X13921Y33713D01*
X13919Y33696D01*
X13921Y33679D01*
X13926Y33663D01*
X13934Y33648D01*
X13946Y33636D01*
X13960Y33626D01*
X13975Y33619D01*
X13992Y33615D01*
X14008Y33615D01*
X14025Y33619D01*
X14041Y33626D01*
X14054Y33636D01*
X14066Y33648D01*
X14074Y33663D01*
X14079Y33679D01*
X14081Y33696D01*
X14064Y33841D02*
X14062Y33855D01*
X14058Y33869D01*
X14050Y33881D01*
X14040Y33891D01*
X14028Y33899D01*
X14014Y33903D01*
X14000Y33905D01*
X13986Y33903D01*
X13972Y33899D01*
X13960Y33891D01*
X13950Y33881D01*
X13942Y33869D01*
X13938Y33855D01*
X13936Y33841D01*
X13938Y33827D01*
X13942Y33813D01*
X13950Y33801D01*
X13960Y33791D01*
X13972Y33783D01*
X13986Y33779D01*
X14000Y33777D01*
X14014Y33779D01*
X14028Y33783D01*
X14040Y33791D01*
X14050Y33801D01*
X14058Y33813D01*
X14062Y33827D01*
X14064Y33841D01*
X14775Y33841D02*
X14856Y33905D01*
X14856Y33615D01*
X14775Y33615D02*
X14937Y33615D01*
X15063Y33760D02*
X15065Y33787D01*
X15069Y33814D01*
X15077Y33840D01*
X15087Y33865D01*
X15087Y33864D02*
X15094Y33878D01*
X15103Y33889D01*
X15115Y33898D01*
X15129Y33903D01*
X15144Y33905D01*
X15159Y33903D01*
X15173Y33898D01*
X15185Y33889D01*
X15194Y33878D01*
X15201Y33864D01*
X15201Y33865D02*
X15211Y33840D01*
X15219Y33814D01*
X15223Y33787D01*
X15225Y33760D01*
X15063Y33760D02*
X15065Y33733D01*
X15069Y33706D01*
X15077Y33680D01*
X15087Y33655D01*
X15087Y33656D02*
X15094Y33642D01*
X15103Y33631D01*
X15115Y33622D01*
X15129Y33617D01*
X15144Y33615D01*
X15201Y33655D02*
X15211Y33680D01*
X15219Y33706D01*
X15223Y33733D01*
X15225Y33760D01*
X15201Y33656D02*
X15194Y33642D01*
X15185Y33631D01*
X15173Y33622D01*
X15159Y33617D01*
X15144Y33615D01*
X15080Y33679D02*
X15208Y33841D01*
X15775Y33841D02*
X15856Y33905D01*
X15856Y33615D01*
X15775Y33615D02*
X15937Y33615D01*
X16225Y33833D02*
X16223Y33849D01*
X16218Y33865D01*
X16209Y33879D01*
X16198Y33890D01*
X16184Y33899D01*
X16168Y33904D01*
X16152Y33906D01*
X16152Y33905D02*
X16135Y33904D01*
X16119Y33899D01*
X16104Y33892D01*
X16091Y33882D01*
X16079Y33870D01*
X16070Y33856D01*
X16064Y33841D01*
X16201Y33777D02*
X16211Y33788D01*
X16219Y33802D01*
X16223Y33817D01*
X16225Y33833D01*
X16200Y33776D02*
X16063Y33615D01*
X16225Y33615D01*
X16775Y33841D02*
X16856Y33905D01*
X16856Y33615D01*
X16775Y33615D02*
X16937Y33615D01*
X17063Y33679D02*
X17128Y33905D01*
X17063Y33679D02*
X17225Y33679D01*
X17176Y33615D02*
X17176Y33744D01*
X17775Y33841D02*
X17856Y33905D01*
X17856Y33615D01*
X17775Y33615D02*
X17937Y33615D01*
X18063Y33776D02*
X18160Y33776D01*
X18174Y33774D01*
X18188Y33770D01*
X18200Y33762D01*
X18210Y33752D01*
X18218Y33740D01*
X18222Y33726D01*
X18224Y33712D01*
X18225Y33712D02*
X18225Y33696D01*
X18223Y33679D01*
X18218Y33663D01*
X18210Y33648D01*
X18198Y33636D01*
X18185Y33626D01*
X18169Y33619D01*
X18152Y33615D01*
X18136Y33615D01*
X18119Y33619D01*
X18104Y33626D01*
X18090Y33636D01*
X18078Y33648D01*
X18070Y33663D01*
X18065Y33679D01*
X18063Y33696D01*
X18063Y33776D01*
X18065Y33798D01*
X18071Y33820D01*
X18080Y33840D01*
X18093Y33859D01*
X18109Y33875D01*
X18127Y33888D01*
X18148Y33897D01*
X18170Y33903D01*
X18192Y33905D01*
X18775Y33841D02*
X18856Y33905D01*
X18856Y33615D01*
X18775Y33615D02*
X18937Y33615D01*
X19063Y33696D02*
X19065Y33713D01*
X19070Y33729D01*
X19078Y33744D01*
X19090Y33756D01*
X19104Y33766D01*
X19119Y33773D01*
X19136Y33777D01*
X19152Y33777D01*
X19169Y33773D01*
X19185Y33766D01*
X19198Y33756D01*
X19210Y33744D01*
X19218Y33729D01*
X19223Y33713D01*
X19225Y33696D01*
X19223Y33679D01*
X19218Y33663D01*
X19210Y33648D01*
X19198Y33636D01*
X19185Y33626D01*
X19169Y33619D01*
X19152Y33615D01*
X19136Y33615D01*
X19119Y33619D01*
X19104Y33626D01*
X19090Y33636D01*
X19078Y33648D01*
X19070Y33663D01*
X19065Y33679D01*
X19063Y33696D01*
X19080Y33841D02*
X19082Y33855D01*
X19086Y33869D01*
X19094Y33881D01*
X19104Y33891D01*
X19116Y33899D01*
X19130Y33903D01*
X19144Y33905D01*
X19158Y33903D01*
X19172Y33899D01*
X19184Y33891D01*
X19194Y33881D01*
X19202Y33869D01*
X19206Y33855D01*
X19208Y33841D01*
X19206Y33827D01*
X19202Y33813D01*
X19194Y33801D01*
X19184Y33791D01*
X19172Y33783D01*
X19158Y33779D01*
X19144Y33777D01*
X19130Y33779D01*
X19116Y33783D01*
X19104Y33791D01*
X19094Y33801D01*
X19086Y33813D01*
X19082Y33827D01*
X19080Y33841D01*
X19864Y33906D02*
X19880Y33904D01*
X19896Y33899D01*
X19910Y33890D01*
X19921Y33879D01*
X19930Y33865D01*
X19935Y33849D01*
X19937Y33833D01*
X19864Y33905D02*
X19847Y33904D01*
X19831Y33899D01*
X19816Y33892D01*
X19803Y33882D01*
X19791Y33870D01*
X19782Y33856D01*
X19776Y33841D01*
X19913Y33777D02*
X19923Y33788D01*
X19931Y33802D01*
X19935Y33817D01*
X19937Y33833D01*
X19912Y33776D02*
X19775Y33615D01*
X19937Y33615D01*
X20063Y33760D02*
X20065Y33787D01*
X20069Y33814D01*
X20077Y33840D01*
X20087Y33865D01*
X20087Y33864D02*
X20094Y33878D01*
X20103Y33889D01*
X20115Y33898D01*
X20129Y33903D01*
X20144Y33905D01*
X20159Y33903D01*
X20173Y33898D01*
X20185Y33889D01*
X20194Y33878D01*
X20201Y33864D01*
X20201Y33865D02*
X20211Y33840D01*
X20219Y33814D01*
X20223Y33787D01*
X20225Y33760D01*
X20063Y33760D02*
X20065Y33733D01*
X20069Y33706D01*
X20077Y33680D01*
X20087Y33655D01*
X20087Y33656D02*
X20094Y33642D01*
X20103Y33631D01*
X20115Y33622D01*
X20129Y33617D01*
X20144Y33615D01*
X20201Y33655D02*
X20211Y33680D01*
X20219Y33706D01*
X20223Y33733D01*
X20225Y33760D01*
X20201Y33656D02*
X20194Y33642D01*
X20185Y33631D01*
X20173Y33622D01*
X20159Y33617D01*
X20144Y33615D01*
X20080Y33679D02*
X20208Y33841D01*
X11000Y34385D02*
X10897Y34303D01*
X11000Y34385D02*
X11000Y34015D01*
X10897Y34015D02*
X11103Y34015D01*
X11000Y31385D02*
X10897Y31303D01*
X11000Y31385D02*
X11000Y31015D01*
X10897Y31015D02*
X11103Y31015D01*
X23815Y30703D02*
X23918Y30785D01*
X23918Y30415D01*
X23815Y30415D02*
X24021Y30415D01*
X24928Y30786D02*
X24946Y30784D01*
X24964Y30779D01*
X24980Y30770D01*
X24994Y30759D01*
X25005Y30745D01*
X25014Y30729D01*
X25019Y30711D01*
X25021Y30693D01*
X24928Y30785D02*
X24909Y30784D01*
X24891Y30779D01*
X24874Y30772D01*
X24858Y30762D01*
X24844Y30750D01*
X24832Y30736D01*
X24822Y30720D01*
X24815Y30703D01*
X24989Y30621D02*
X25000Y30633D01*
X25009Y30647D01*
X25015Y30661D01*
X25019Y30677D01*
X25020Y30693D01*
X24990Y30621D02*
X24815Y30415D01*
X25021Y30415D01*
D13*
X21600Y18550D02*
X19500Y18550D01*
X19498Y18594D01*
X19492Y18637D01*
X19483Y18679D01*
X19470Y18721D01*
X19453Y18761D01*
X19433Y18800D01*
X19410Y18837D01*
X19383Y18871D01*
X19354Y18904D01*
X19321Y18933D01*
X19287Y18960D01*
X19250Y18983D01*
X19211Y19003D01*
X19171Y19020D01*
X19129Y19033D01*
X19087Y19042D01*
X19044Y19048D01*
X19000Y19050D01*
X18956Y19048D01*
X18913Y19042D01*
X18871Y19033D01*
X18829Y19020D01*
X18789Y19003D01*
X18750Y18983D01*
X18713Y18960D01*
X18679Y18933D01*
X18646Y18904D01*
X18617Y18871D01*
X18590Y18837D01*
X18567Y18800D01*
X18547Y18761D01*
X18530Y18721D01*
X18517Y18679D01*
X18508Y18637D01*
X18502Y18594D01*
X18500Y18550D01*
X16400Y30450D02*
X21600Y30450D01*
X18500Y18550D02*
X16400Y18550D01*
X16400Y30450D01*
X21600Y30450D02*
X21600Y18550D01*
D14*
X17218Y18315D02*
X17218Y17685D01*
X17218Y18315D02*
X17393Y18315D01*
X17418Y18313D01*
X17442Y18308D01*
X17466Y18299D01*
X17488Y18287D01*
X17508Y18272D01*
X17525Y18255D01*
X17540Y18235D01*
X17552Y18213D01*
X17561Y18189D01*
X17566Y18165D01*
X17568Y18140D01*
X17568Y17860D01*
X17566Y17835D01*
X17561Y17811D01*
X17552Y17787D01*
X17540Y17765D01*
X17525Y17745D01*
X17508Y17728D01*
X17488Y17713D01*
X17466Y17701D01*
X17442Y17692D01*
X17418Y17687D01*
X17393Y17685D01*
X17218Y17685D01*
X17875Y17685D02*
X18155Y17685D01*
X17875Y17685D02*
X17875Y18315D01*
X18155Y18315D01*
X18085Y18035D02*
X17875Y18035D01*
X18414Y18315D02*
X18414Y17685D01*
X18624Y17965D02*
X18414Y18315D01*
X18624Y17965D02*
X18834Y18315D01*
X18834Y17685D01*
X19146Y17860D02*
X19146Y18315D01*
X19146Y17860D02*
X19148Y17835D01*
X19153Y17811D01*
X19162Y17787D01*
X19174Y17765D01*
X19189Y17745D01*
X19206Y17728D01*
X19226Y17713D01*
X19248Y17701D01*
X19272Y17692D01*
X19296Y17687D01*
X19321Y17685D01*
X19346Y17687D01*
X19370Y17692D01*
X19394Y17701D01*
X19416Y17713D01*
X19436Y17728D01*
X19453Y17745D01*
X19468Y17765D01*
X19480Y17787D01*
X19489Y17811D01*
X19494Y17835D01*
X19496Y17860D01*
X19496Y18315D01*
X20167Y18315D02*
X19747Y17685D01*
X20167Y17685D02*
X19747Y18315D01*
X20572Y18315D02*
X20362Y17685D01*
X20782Y17685D02*
X20572Y18315D01*
X20730Y17843D02*
X20415Y17843D01*
X19175Y19785D02*
X18685Y19925D01*
X19175Y19785D02*
X19175Y20135D01*
X19035Y20030D02*
X19315Y20030D01*
X19000Y20401D02*
X18961Y20402D01*
X18922Y20407D01*
X18883Y20414D01*
X18845Y20425D01*
X18808Y20438D01*
X18773Y20453D01*
X18773Y20452D02*
X18754Y20460D01*
X18737Y20471D01*
X18722Y20484D01*
X18709Y20499D01*
X18699Y20517D01*
X18691Y20535D01*
X18687Y20555D01*
X18685Y20575D01*
X18687Y20595D01*
X18691Y20615D01*
X18699Y20633D01*
X18709Y20651D01*
X18722Y20666D01*
X18737Y20679D01*
X18754Y20690D01*
X18773Y20698D01*
X18808Y20713D01*
X18845Y20726D01*
X18883Y20737D01*
X18922Y20744D01*
X18961Y20749D01*
X19000Y20750D01*
X19000Y20401D02*
X19039Y20402D01*
X19078Y20407D01*
X19117Y20414D01*
X19155Y20425D01*
X19192Y20438D01*
X19227Y20453D01*
X19227Y20452D02*
X19246Y20460D01*
X19263Y20471D01*
X19278Y20484D01*
X19291Y20499D01*
X19301Y20517D01*
X19309Y20535D01*
X19313Y20555D01*
X19315Y20575D01*
X19227Y20698D02*
X19192Y20713D01*
X19155Y20726D01*
X19117Y20737D01*
X19078Y20744D01*
X19039Y20749D01*
X19000Y20750D01*
X19227Y20698D02*
X19246Y20690D01*
X19263Y20679D01*
X19278Y20666D01*
X19291Y20651D01*
X19301Y20633D01*
X19309Y20615D01*
X19313Y20595D01*
X19315Y20575D01*
X19175Y20435D02*
X18825Y20715D01*
X18965Y21016D02*
X18965Y21226D01*
X18967Y21248D01*
X18972Y21269D01*
X18980Y21290D01*
X18992Y21308D01*
X19006Y21325D01*
X19023Y21339D01*
X19041Y21351D01*
X19062Y21359D01*
X19083Y21364D01*
X19105Y21366D01*
X19140Y21366D01*
X19165Y21364D01*
X19189Y21359D01*
X19213Y21350D01*
X19235Y21338D01*
X19255Y21323D01*
X19272Y21306D01*
X19287Y21286D01*
X19299Y21264D01*
X19308Y21240D01*
X19313Y21216D01*
X19315Y21191D01*
X19313Y21166D01*
X19308Y21142D01*
X19299Y21118D01*
X19287Y21096D01*
X19272Y21076D01*
X19255Y21059D01*
X19235Y21044D01*
X19213Y21032D01*
X19189Y21023D01*
X19165Y21018D01*
X19140Y21016D01*
X18965Y21016D01*
X18934Y21018D01*
X18903Y21023D01*
X18873Y21032D01*
X18844Y21044D01*
X18816Y21059D01*
X18790Y21077D01*
X18767Y21098D01*
X18746Y21121D01*
X18728Y21147D01*
X18713Y21175D01*
X18701Y21204D01*
X18692Y21234D01*
X18687Y21265D01*
X18685Y21296D01*
X18685Y21631D02*
X18755Y21631D01*
X18685Y21631D02*
X18685Y21981D01*
X19315Y21806D01*
X19315Y22267D02*
X18685Y22267D01*
X19315Y22617D01*
X18685Y22617D01*
D13*
X21950Y15580D02*
X21950Y13480D01*
X21906Y13478D01*
X21863Y13472D01*
X21821Y13463D01*
X21779Y13450D01*
X21739Y13433D01*
X21700Y13413D01*
X21663Y13390D01*
X21629Y13363D01*
X21596Y13334D01*
X21567Y13301D01*
X21540Y13267D01*
X21517Y13230D01*
X21497Y13191D01*
X21480Y13151D01*
X21467Y13109D01*
X21458Y13067D01*
X21452Y13024D01*
X21450Y12980D01*
X21452Y12936D01*
X21458Y12893D01*
X21467Y12851D01*
X21480Y12809D01*
X21497Y12769D01*
X21517Y12730D01*
X21540Y12693D01*
X21567Y12659D01*
X21596Y12626D01*
X21629Y12597D01*
X21663Y12570D01*
X21700Y12547D01*
X21739Y12527D01*
X21779Y12510D01*
X21821Y12497D01*
X21863Y12488D01*
X21906Y12482D01*
X21950Y12480D01*
X10050Y10380D02*
X10050Y15580D01*
X21950Y12480D02*
X21950Y10380D01*
X10050Y10380D01*
X10050Y15580D02*
X21950Y15580D01*
D14*
X22185Y11200D02*
X22815Y11200D01*
X22185Y11200D02*
X22185Y11375D01*
X22187Y11400D01*
X22192Y11424D01*
X22201Y11448D01*
X22213Y11470D01*
X22228Y11490D01*
X22245Y11507D01*
X22265Y11522D01*
X22287Y11534D01*
X22311Y11543D01*
X22335Y11548D01*
X22360Y11550D01*
X22640Y11550D01*
X22665Y11548D01*
X22689Y11543D01*
X22713Y11534D01*
X22735Y11522D01*
X22755Y11507D01*
X22772Y11490D01*
X22787Y11470D01*
X22799Y11448D01*
X22808Y11424D01*
X22813Y11400D01*
X22815Y11375D01*
X22815Y11200D01*
X22815Y11858D02*
X22815Y12138D01*
X22815Y11858D02*
X22185Y11858D01*
X22185Y12138D01*
X22465Y12068D02*
X22465Y11858D01*
X22185Y12396D02*
X22815Y12396D01*
X22535Y12606D02*
X22185Y12396D01*
X22535Y12606D02*
X22185Y12816D01*
X22815Y12816D01*
X22640Y13129D02*
X22185Y13129D01*
X22640Y13129D02*
X22665Y13131D01*
X22689Y13136D01*
X22713Y13145D01*
X22735Y13157D01*
X22755Y13172D01*
X22772Y13189D01*
X22787Y13209D01*
X22799Y13231D01*
X22808Y13255D01*
X22813Y13279D01*
X22815Y13304D01*
X22813Y13329D01*
X22808Y13353D01*
X22799Y13377D01*
X22787Y13399D01*
X22772Y13419D01*
X22755Y13436D01*
X22735Y13451D01*
X22713Y13463D01*
X22689Y13472D01*
X22665Y13477D01*
X22640Y13479D01*
X22185Y13479D01*
X22185Y14150D02*
X22815Y13730D01*
X22815Y14150D02*
X22185Y13730D01*
X22465Y14410D02*
X22465Y14585D01*
X22467Y14610D01*
X22472Y14634D01*
X22481Y14658D01*
X22493Y14680D01*
X22508Y14700D01*
X22525Y14717D01*
X22545Y14732D01*
X22567Y14744D01*
X22591Y14753D01*
X22615Y14758D01*
X22640Y14760D01*
X22665Y14758D01*
X22689Y14753D01*
X22713Y14744D01*
X22735Y14732D01*
X22755Y14717D01*
X22772Y14700D01*
X22787Y14680D01*
X22799Y14658D01*
X22808Y14634D01*
X22813Y14610D01*
X22815Y14585D01*
X22815Y14410D01*
X22185Y14410D01*
X22185Y14585D01*
X22187Y14607D01*
X22192Y14628D01*
X22200Y14649D01*
X22212Y14667D01*
X22226Y14684D01*
X22243Y14698D01*
X22261Y14710D01*
X22282Y14718D01*
X22303Y14723D01*
X22325Y14725D01*
X22347Y14723D01*
X22368Y14718D01*
X22389Y14710D01*
X22407Y14698D01*
X22424Y14684D01*
X22438Y14667D01*
X22450Y14649D01*
X22458Y14628D01*
X22463Y14607D01*
X22465Y14585D01*
X18023Y13295D02*
X17883Y12805D01*
X18233Y12805D01*
X18128Y12945D02*
X18128Y12665D01*
X18498Y12980D02*
X18499Y13019D01*
X18504Y13058D01*
X18511Y13097D01*
X18522Y13135D01*
X18535Y13172D01*
X18550Y13207D01*
X18558Y13226D01*
X18569Y13243D01*
X18582Y13258D01*
X18597Y13271D01*
X18615Y13281D01*
X18633Y13289D01*
X18653Y13293D01*
X18673Y13295D01*
X18693Y13293D01*
X18713Y13289D01*
X18731Y13281D01*
X18749Y13271D01*
X18764Y13258D01*
X18777Y13243D01*
X18788Y13226D01*
X18796Y13207D01*
X18811Y13172D01*
X18824Y13135D01*
X18835Y13097D01*
X18842Y13058D01*
X18847Y13019D01*
X18848Y12980D01*
X18498Y12980D02*
X18499Y12941D01*
X18504Y12902D01*
X18511Y12863D01*
X18522Y12825D01*
X18535Y12788D01*
X18550Y12753D01*
X18558Y12734D01*
X18569Y12717D01*
X18582Y12702D01*
X18597Y12689D01*
X18615Y12679D01*
X18633Y12671D01*
X18653Y12667D01*
X18673Y12665D01*
X18796Y12753D02*
X18811Y12788D01*
X18824Y12825D01*
X18835Y12863D01*
X18842Y12902D01*
X18847Y12941D01*
X18848Y12980D01*
X18796Y12753D02*
X18788Y12734D01*
X18777Y12717D01*
X18764Y12702D01*
X18749Y12689D01*
X18731Y12679D01*
X18713Y12671D01*
X18693Y12667D01*
X18673Y12665D01*
X18533Y12805D02*
X18813Y13155D01*
X19114Y13015D02*
X19324Y13015D01*
X19346Y13013D01*
X19367Y13008D01*
X19388Y13000D01*
X19406Y12988D01*
X19423Y12974D01*
X19437Y12957D01*
X19449Y12939D01*
X19457Y12918D01*
X19462Y12897D01*
X19464Y12875D01*
X19464Y12840D01*
X19462Y12815D01*
X19457Y12791D01*
X19448Y12767D01*
X19436Y12745D01*
X19421Y12725D01*
X19404Y12708D01*
X19384Y12693D01*
X19362Y12681D01*
X19338Y12672D01*
X19314Y12667D01*
X19289Y12665D01*
X19264Y12667D01*
X19240Y12672D01*
X19216Y12681D01*
X19194Y12693D01*
X19174Y12708D01*
X19157Y12725D01*
X19142Y12745D01*
X19130Y12767D01*
X19121Y12791D01*
X19116Y12815D01*
X19114Y12840D01*
X19114Y13015D01*
X19116Y13046D01*
X19121Y13077D01*
X19130Y13107D01*
X19142Y13136D01*
X19157Y13164D01*
X19175Y13190D01*
X19196Y13213D01*
X19219Y13234D01*
X19245Y13252D01*
X19273Y13267D01*
X19302Y13279D01*
X19332Y13288D01*
X19363Y13293D01*
X19394Y13295D01*
X19729Y13295D02*
X19729Y13225D01*
X19729Y13295D02*
X20079Y13295D01*
X19904Y12665D01*
X20365Y12665D02*
X20365Y13295D01*
X20715Y12665D01*
X20715Y13295D01*
D13*
X25750Y29500D02*
X25750Y30500D01*
X25750Y29500D02*
X26750Y29500D01*
X26750Y30500D01*
X25750Y30500D01*
D15*
X27000Y30000D02*
X29250Y30000D01*
D13*
X25750Y29500D02*
X25750Y28500D01*
X26750Y28500D01*
X26750Y29500D01*
D15*
X27000Y29000D02*
X29250Y29000D01*
D13*
X25750Y28500D02*
X25750Y27500D01*
X26750Y27500D01*
X26750Y28500D01*
D15*
X27000Y28000D02*
X29250Y28000D01*
D13*
X25750Y27500D02*
X25750Y26500D01*
X26750Y26500D01*
X26750Y27500D01*
D15*
X27000Y27000D02*
X29250Y27000D01*
D13*
X25750Y26500D02*
X25750Y25500D01*
X26750Y25500D01*
X26750Y26500D01*
D15*
X27000Y26000D02*
X29250Y26000D01*
D13*
X25750Y25500D02*
X25750Y24500D01*
X26750Y24500D01*
X26750Y25500D01*
D15*
X27000Y25000D02*
X29250Y25000D01*
D13*
X25750Y24500D02*
X25750Y23500D01*
X26750Y23500D01*
X26750Y24500D01*
D15*
X27000Y24000D02*
X29250Y24000D01*
D13*
X25750Y23500D02*
X25750Y22500D01*
X26750Y22500D01*
X26750Y23500D01*
D15*
X27000Y23000D02*
X29250Y23000D01*
D13*
X25750Y22500D02*
X25750Y21500D01*
X26750Y21500D01*
X26750Y22500D01*
D15*
X27000Y22000D02*
X29250Y22000D01*
D13*
X25750Y21500D02*
X25750Y20500D01*
X26750Y20500D01*
X26750Y21500D01*
D15*
X27000Y21000D02*
X29250Y21000D01*
D13*
X25750Y20500D02*
X25750Y19500D01*
X26750Y19500D01*
X26750Y20500D01*
D15*
X27000Y20000D02*
X29250Y20000D01*
D13*
X25750Y19500D02*
X25750Y18500D01*
X26750Y18500D01*
X26750Y19500D01*
D15*
X27000Y19000D02*
X29250Y19000D01*
D13*
X25750Y18500D02*
X25750Y17500D01*
X26750Y17500D01*
X26750Y18500D01*
D15*
X27000Y18000D02*
X29250Y18000D01*
D13*
X25750Y17500D02*
X25750Y16500D01*
X26750Y16500D01*
X26750Y17500D01*
D15*
X27000Y17000D02*
X29250Y17000D01*
D13*
X25750Y16500D02*
X25750Y15500D01*
X26750Y15500D01*
X26750Y16500D01*
D15*
X27000Y16000D02*
X29250Y16000D01*
D13*
X25750Y15500D02*
X25750Y14500D01*
X26750Y14500D01*
X26750Y15500D01*
D15*
X27000Y15000D02*
X29250Y15000D01*
D13*
X25750Y14500D02*
X25750Y13500D01*
X26750Y13500D01*
X26750Y14500D01*
D15*
X27000Y14000D02*
X29250Y14000D01*
D13*
X25750Y13500D02*
X25750Y12500D01*
X26750Y12500D01*
X26750Y13500D01*
D15*
X27000Y13000D02*
X29250Y13000D01*
D13*
X25750Y12500D02*
X25750Y11500D01*
X26750Y11500D01*
X26750Y12500D01*
D15*
X27000Y12000D02*
X29250Y12000D01*
D13*
X25750Y11500D02*
X25750Y10500D01*
X26750Y10500D01*
X26750Y11500D01*
D15*
X27000Y11000D02*
X29250Y11000D01*
D13*
X25750Y10500D02*
X25750Y9500D01*
X26750Y9500D01*
X26750Y10500D01*
D15*
X27000Y10000D02*
X29250Y10000D01*
D13*
X25750Y9500D02*
X25750Y8500D01*
X26750Y8500D02*
X26750Y9500D01*
D15*
X27000Y9000D02*
X29250Y9000D01*
D13*
X26750Y8500D02*
X25750Y8500D01*
X25750Y7500D01*
X26750Y7500D01*
X26750Y8500D01*
D15*
X27000Y8000D02*
X29250Y8000D01*
D13*
X25750Y7500D02*
X25750Y6500D01*
X26750Y6500D01*
X26750Y7500D01*
D15*
X27000Y7000D02*
X29250Y7000D01*
D13*
X25750Y6500D02*
X25750Y5500D01*
X26750Y5500D01*
X26750Y6500D01*
D15*
X27000Y6000D02*
X29250Y6000D01*
D13*
X25750Y5500D02*
X25750Y4500D01*
X26750Y4500D02*
X26750Y5500D01*
D15*
X27000Y5000D02*
X29250Y5000D01*
D13*
X26750Y4500D02*
X25750Y4500D01*
X25750Y3500D01*
X26750Y3500D01*
X26750Y4500D01*
D15*
X27000Y4000D02*
X29250Y4000D01*
D13*
X25750Y3500D02*
X25750Y2500D01*
X26750Y2500D02*
X26750Y3500D01*
D15*
X27000Y3000D02*
X29250Y3000D01*
D13*
X26750Y2500D02*
X25750Y2500D01*
X25750Y1500D01*
X26750Y1500D01*
X26750Y2500D01*
D15*
X27000Y2000D02*
X29250Y2000D01*
D13*
X25750Y1500D02*
X25750Y500D01*
X26750Y500D01*
X26750Y1500D01*
D15*
X27000Y1000D02*
X29250Y1000D01*
D16*
X26850Y30000D03*
X26850Y29000D03*
X26850Y28000D03*
X26850Y27000D03*
X26850Y26000D03*
X26850Y25000D03*
X26850Y24000D03*
X26850Y23000D03*
X26850Y22000D03*
X26850Y21000D03*
X26850Y20000D03*
X26850Y19000D03*
X26850Y18000D03*
X26850Y17000D03*
X26850Y16000D03*
X26850Y15000D03*
X26850Y14000D03*
X26850Y13000D03*
X26850Y12000D03*
X26850Y11000D03*
D17*
X25550Y30000D03*
X25550Y29000D03*
D18*
X24500Y30000D03*
D19*
X25000Y30000D03*
X25000Y29000D03*
D18*
X24500Y29000D03*
D17*
X25550Y28000D03*
X25550Y27000D03*
D18*
X24500Y28000D03*
D19*
X25000Y28000D03*
X25000Y27000D03*
D18*
X24500Y27000D03*
D17*
X25550Y26000D03*
D18*
X24500Y26000D03*
D19*
X25000Y26000D03*
D17*
X25550Y25000D03*
X25550Y24000D03*
D18*
X24500Y25000D03*
D19*
X25000Y25000D03*
X25000Y24000D03*
D18*
X24500Y24000D03*
D17*
X25550Y23000D03*
X25550Y22000D03*
D18*
X24500Y23000D03*
D19*
X25000Y23000D03*
X25000Y22000D03*
D18*
X24500Y22000D03*
D17*
X25550Y21000D03*
D18*
X24500Y21000D03*
D19*
X25000Y21000D03*
D17*
X25550Y20000D03*
X25550Y19000D03*
D18*
X24500Y20000D03*
D19*
X25000Y20000D03*
X25000Y19000D03*
D18*
X24500Y19000D03*
D17*
X25550Y18000D03*
X25550Y17000D03*
D18*
X24500Y18000D03*
D19*
X25000Y18000D03*
X25000Y17000D03*
D18*
X24500Y17000D03*
D17*
X25550Y16000D03*
D18*
X24500Y16000D03*
D19*
X25000Y16000D03*
D17*
X25550Y15000D03*
X25550Y14000D03*
D18*
X24500Y15000D03*
D19*
X25000Y15000D03*
X25000Y14000D03*
D18*
X24500Y14000D03*
D17*
X25550Y13000D03*
X25550Y12000D03*
D18*
X24500Y13000D03*
D19*
X25000Y13000D03*
X25000Y12000D03*
D18*
X24500Y12000D03*
D17*
X25550Y11000D03*
D18*
X24500Y11000D03*
D19*
X25000Y11000D03*
D16*
X26850Y10000D03*
X26850Y9000D03*
D17*
X25550Y10000D03*
D19*
X25000Y10000D03*
D18*
X24500Y10000D03*
D17*
X25550Y9000D03*
D18*
X24500Y9000D03*
D19*
X25000Y9000D03*
D16*
X26850Y8000D03*
X26850Y7000D03*
D17*
X25550Y8000D03*
D19*
X25000Y8000D03*
D18*
X24500Y8000D03*
D17*
X25550Y7000D03*
D18*
X24500Y7000D03*
D19*
X25000Y7000D03*
D16*
X26850Y6000D03*
X26850Y5000D03*
D17*
X25550Y6000D03*
D19*
X25000Y6000D03*
D18*
X24500Y6000D03*
D17*
X25550Y5000D03*
D18*
X24500Y5000D03*
D19*
X25000Y5000D03*
D16*
X26850Y4000D03*
X26850Y3000D03*
D17*
X25550Y4000D03*
D19*
X25000Y4000D03*
D18*
X24500Y4000D03*
D17*
X25550Y3000D03*
D18*
X24500Y3000D03*
D19*
X25000Y3000D03*
D16*
X26850Y2000D03*
X26850Y1000D03*
D17*
X25550Y2000D03*
D19*
X25000Y2000D03*
D18*
X24500Y2000D03*
D17*
X25550Y1000D03*
D18*
X24500Y1000D03*
D19*
X25000Y1000D03*
D20*
X23025Y30825D02*
X23025Y31275D01*
X23275Y31275D02*
X23025Y31000D01*
X23125Y31100D02*
X23275Y30825D01*
X23468Y30825D02*
X23668Y30825D01*
X23468Y30825D02*
X23468Y31275D01*
X23668Y31275D01*
X23618Y31075D02*
X23468Y31075D01*
X23817Y31275D02*
X23967Y31063D01*
X24117Y31275D01*
X23967Y31063D02*
X23967Y30825D01*
X24391Y30825D02*
X24491Y30825D01*
X24391Y30825D02*
X24374Y30827D01*
X24357Y30831D01*
X24341Y30838D01*
X24327Y30848D01*
X24314Y30861D01*
X24304Y30875D01*
X24297Y30891D01*
X24293Y30908D01*
X24291Y30925D01*
X24291Y31175D01*
X24293Y31192D01*
X24297Y31209D01*
X24304Y31225D01*
X24314Y31239D01*
X24327Y31252D01*
X24341Y31262D01*
X24357Y31269D01*
X24374Y31273D01*
X24391Y31275D01*
X24491Y31275D01*
X24667Y31150D02*
X24667Y30950D01*
X24667Y31150D02*
X24669Y31171D01*
X24674Y31191D01*
X24682Y31209D01*
X24693Y31227D01*
X24707Y31242D01*
X24724Y31255D01*
X24742Y31264D01*
X24761Y31271D01*
X24782Y31275D01*
X24802Y31275D01*
X24823Y31271D01*
X24842Y31264D01*
X24860Y31255D01*
X24877Y31242D01*
X24891Y31227D01*
X24902Y31209D01*
X24910Y31191D01*
X24915Y31171D01*
X24917Y31150D01*
X24917Y30950D01*
X24915Y30929D01*
X24910Y30909D01*
X24902Y30891D01*
X24891Y30873D01*
X24877Y30858D01*
X24860Y30845D01*
X24842Y30836D01*
X24823Y30829D01*
X24802Y30825D01*
X24782Y30825D01*
X24761Y30829D01*
X24742Y30836D01*
X24724Y30845D01*
X24707Y30858D01*
X24693Y30873D01*
X24682Y30891D01*
X24674Y30909D01*
X24669Y30929D01*
X24667Y30950D01*
X25132Y30825D02*
X25132Y31275D01*
X25382Y30825D01*
X25382Y31275D01*
X25612Y31275D02*
X25612Y30825D01*
X25862Y30825D02*
X25612Y31275D01*
X25862Y31275D02*
X25862Y30825D01*
D13*
X10750Y34500D02*
X10500Y34750D01*
X11250Y34500D02*
X11500Y34750D01*
X11750Y34500D01*
X12250Y34500D02*
X12500Y34750D01*
X12750Y34500D01*
X13250Y34500D02*
X13500Y34750D01*
X13750Y34500D01*
X14250Y34500D02*
X14500Y34750D01*
X14750Y34500D01*
X15250Y34500D02*
X15500Y34750D01*
X15750Y34500D01*
X16250Y34500D02*
X16500Y34750D01*
X10500Y34750D02*
X10500Y36250D01*
X10750Y36500D01*
X11250Y36500D01*
X11500Y36250D01*
X11750Y36500D01*
X12250Y36500D01*
X12500Y36250D01*
X12750Y36500D01*
X13250Y36500D01*
X13500Y36250D01*
X13750Y36500D01*
X14250Y36500D01*
X14500Y36250D01*
X14750Y36500D01*
X15250Y36500D01*
X15500Y36250D01*
X15750Y36500D01*
X16250Y36500D01*
X16500Y36250D01*
X16750Y36500D01*
X17250Y36500D01*
X17500Y36250D01*
X17750Y36500D01*
X18250Y36500D01*
X18500Y36250D01*
X18750Y36500D01*
X19250Y36500D01*
X19500Y36250D01*
X19500Y34750D02*
X19250Y34500D01*
X18750Y34500D02*
X18500Y34750D01*
X18250Y34500D01*
X17750Y34500D02*
X17500Y34750D01*
X17250Y34500D01*
X16750Y34500D02*
X16500Y34750D01*
X11500Y34750D02*
X11500Y36250D01*
X12500Y36250D02*
X12500Y34750D01*
X13500Y34750D02*
X13500Y36250D01*
X14500Y36250D02*
X14500Y34750D01*
X15500Y34750D02*
X15500Y36250D01*
X16500Y36250D02*
X16500Y34750D01*
X17500Y34750D02*
X17500Y36250D01*
X18500Y36250D02*
X18500Y34750D01*
X19500Y34750D02*
X19500Y36250D01*
X19250Y34500D02*
X18750Y34500D01*
X18250Y34500D02*
X17750Y34500D01*
X17250Y34500D02*
X16750Y34500D01*
X16250Y34500D02*
X15750Y34500D01*
X15250Y34500D02*
X14750Y34500D01*
X14250Y34500D02*
X13750Y34500D01*
X13250Y34500D02*
X12750Y34500D01*
X12250Y34500D02*
X11750Y34500D01*
X11250Y34500D02*
X10750Y34500D01*
X19500Y36250D02*
X19750Y36500D01*
X20250Y36500D01*
X20500Y36250D01*
X20500Y34750D02*
X20250Y34500D01*
X19750Y34500D02*
X19500Y34750D01*
X20500Y34750D02*
X20500Y36250D01*
X20250Y34500D02*
X19750Y34500D01*
D21*
X11000Y35000D03*
X11000Y36000D03*
X12000Y36000D03*
X12000Y35000D03*
X13000Y36000D03*
X13000Y35000D03*
X14000Y36000D03*
X15000Y36000D03*
X16000Y36000D03*
X14000Y35000D03*
X15000Y35000D03*
X16000Y35000D03*
X17000Y36000D03*
X17000Y35000D03*
X18000Y36000D03*
X18000Y35000D03*
X19000Y36000D03*
X19000Y35000D03*
X20000Y36000D03*
X20000Y35000D03*
D20*
X20775Y35525D02*
X20775Y35975D01*
X20775Y35525D02*
X20975Y35525D01*
X21165Y35525D02*
X21365Y35525D01*
X21165Y35525D02*
X21165Y35975D01*
X21365Y35975D01*
X21315Y35775D02*
X21165Y35775D01*
X21554Y35975D02*
X21554Y35525D01*
X21554Y35975D02*
X21679Y35975D01*
X21699Y35973D01*
X21718Y35969D01*
X21736Y35961D01*
X21752Y35951D01*
X21767Y35938D01*
X21780Y35923D01*
X21790Y35907D01*
X21798Y35889D01*
X21802Y35870D01*
X21804Y35850D01*
X21804Y35650D01*
X21802Y35630D01*
X21798Y35611D01*
X21790Y35593D01*
X21780Y35577D01*
X21767Y35562D01*
X21752Y35549D01*
X21736Y35539D01*
X21718Y35531D01*
X21699Y35527D01*
X21679Y35525D01*
X21554Y35525D01*
X22118Y35525D02*
X22218Y35525D01*
X22118Y35525D02*
X22101Y35527D01*
X22084Y35531D01*
X22068Y35538D01*
X22054Y35548D01*
X22041Y35561D01*
X22031Y35575D01*
X22024Y35591D01*
X22020Y35608D01*
X22018Y35625D01*
X22018Y35875D01*
X22020Y35892D01*
X22024Y35909D01*
X22031Y35925D01*
X22041Y35939D01*
X22054Y35952D01*
X22068Y35962D01*
X22084Y35969D01*
X22101Y35973D01*
X22118Y35975D01*
X22218Y35975D01*
X22394Y35850D02*
X22394Y35650D01*
X22394Y35850D02*
X22396Y35871D01*
X22401Y35891D01*
X22409Y35909D01*
X22420Y35927D01*
X22434Y35942D01*
X22451Y35955D01*
X22469Y35964D01*
X22488Y35971D01*
X22509Y35975D01*
X22529Y35975D01*
X22550Y35971D01*
X22569Y35964D01*
X22587Y35955D01*
X22604Y35942D01*
X22618Y35927D01*
X22629Y35909D01*
X22637Y35891D01*
X22642Y35871D01*
X22644Y35850D01*
X22644Y35650D01*
X22642Y35629D01*
X22637Y35609D01*
X22629Y35591D01*
X22618Y35573D01*
X22604Y35558D01*
X22587Y35545D01*
X22569Y35536D01*
X22550Y35529D01*
X22529Y35525D01*
X22509Y35525D01*
X22488Y35529D01*
X22469Y35536D01*
X22451Y35545D01*
X22434Y35558D01*
X22420Y35573D01*
X22409Y35591D01*
X22401Y35609D01*
X22396Y35629D01*
X22394Y35650D01*
X22859Y35525D02*
X22859Y35975D01*
X23109Y35525D01*
X23109Y35975D01*
X23339Y35975D02*
X23339Y35525D01*
X23589Y35525D02*
X23339Y35975D01*
X23589Y35975D02*
X23589Y35525D01*
D13*
X21950Y7100D02*
X21950Y5000D01*
X21906Y4998D01*
X21863Y4992D01*
X21821Y4983D01*
X21779Y4970D01*
X21739Y4953D01*
X21700Y4933D01*
X21663Y4910D01*
X21629Y4883D01*
X21596Y4854D01*
X21567Y4821D01*
X21540Y4787D01*
X21517Y4750D01*
X21497Y4711D01*
X21480Y4671D01*
X21467Y4629D01*
X21458Y4587D01*
X21452Y4544D01*
X21450Y4500D01*
X21452Y4456D01*
X21458Y4413D01*
X21467Y4371D01*
X21480Y4329D01*
X21497Y4289D01*
X21517Y4250D01*
X21540Y4213D01*
X21567Y4179D01*
X21596Y4146D01*
X21629Y4117D01*
X21663Y4090D01*
X21700Y4067D01*
X21739Y4047D01*
X21779Y4030D01*
X21821Y4017D01*
X21863Y4008D01*
X21906Y4002D01*
X21950Y4000D01*
X10050Y1900D02*
X10050Y7100D01*
X21950Y4000D02*
X21950Y1900D01*
X10050Y1900D01*
X10050Y7100D02*
X21950Y7100D01*
D14*
X22185Y2007D02*
X22815Y2007D01*
X22185Y2007D02*
X22185Y2182D01*
X22187Y2207D01*
X22192Y2231D01*
X22201Y2255D01*
X22213Y2277D01*
X22228Y2297D01*
X22245Y2314D01*
X22265Y2329D01*
X22287Y2341D01*
X22311Y2350D01*
X22335Y2355D01*
X22360Y2357D01*
X22640Y2357D01*
X22665Y2355D01*
X22689Y2350D01*
X22713Y2341D01*
X22735Y2329D01*
X22755Y2314D01*
X22772Y2297D01*
X22787Y2277D01*
X22799Y2255D01*
X22808Y2231D01*
X22813Y2207D01*
X22815Y2182D01*
X22815Y2007D01*
X22815Y2665D02*
X22815Y2945D01*
X22815Y2665D02*
X22185Y2665D01*
X22185Y2945D01*
X22465Y2875D02*
X22465Y2665D01*
X22185Y3203D02*
X22815Y3203D01*
X22535Y3413D02*
X22185Y3203D01*
X22535Y3413D02*
X22185Y3623D01*
X22815Y3623D01*
X22640Y3935D02*
X22185Y3935D01*
X22640Y3935D02*
X22665Y3937D01*
X22689Y3942D01*
X22713Y3951D01*
X22735Y3963D01*
X22755Y3978D01*
X22772Y3995D01*
X22787Y4015D01*
X22799Y4037D01*
X22808Y4061D01*
X22813Y4085D01*
X22815Y4110D01*
X22813Y4135D01*
X22808Y4159D01*
X22799Y4183D01*
X22787Y4205D01*
X22772Y4225D01*
X22755Y4242D01*
X22735Y4257D01*
X22713Y4269D01*
X22689Y4278D01*
X22665Y4283D01*
X22640Y4285D01*
X22185Y4285D01*
X22185Y4956D02*
X22815Y4536D01*
X22815Y4956D02*
X22185Y4536D01*
X22815Y5325D02*
X22815Y5465D01*
X22815Y5325D02*
X22813Y5303D01*
X22808Y5282D01*
X22800Y5261D01*
X22788Y5243D01*
X22774Y5226D01*
X22757Y5212D01*
X22739Y5200D01*
X22718Y5192D01*
X22697Y5187D01*
X22675Y5185D01*
X22325Y5185D01*
X22303Y5187D01*
X22282Y5192D01*
X22261Y5200D01*
X22243Y5212D01*
X22226Y5226D01*
X22212Y5243D01*
X22200Y5261D01*
X22192Y5282D01*
X22187Y5303D01*
X22185Y5325D01*
X22185Y5465D01*
X18023Y4815D02*
X17883Y4325D01*
X18233Y4325D01*
X18128Y4465D02*
X18128Y4185D01*
X18498Y4500D02*
X18499Y4539D01*
X18504Y4578D01*
X18511Y4617D01*
X18522Y4655D01*
X18535Y4692D01*
X18550Y4727D01*
X18558Y4746D01*
X18569Y4763D01*
X18582Y4778D01*
X18597Y4791D01*
X18615Y4801D01*
X18633Y4809D01*
X18653Y4813D01*
X18673Y4815D01*
X18693Y4813D01*
X18713Y4809D01*
X18731Y4801D01*
X18749Y4791D01*
X18764Y4778D01*
X18777Y4763D01*
X18788Y4746D01*
X18796Y4727D01*
X18811Y4692D01*
X18824Y4655D01*
X18835Y4617D01*
X18842Y4578D01*
X18847Y4539D01*
X18848Y4500D01*
X18498Y4500D02*
X18499Y4461D01*
X18504Y4422D01*
X18511Y4383D01*
X18522Y4345D01*
X18535Y4308D01*
X18550Y4273D01*
X18558Y4254D01*
X18569Y4237D01*
X18582Y4222D01*
X18597Y4209D01*
X18615Y4199D01*
X18633Y4191D01*
X18653Y4187D01*
X18673Y4185D01*
X18796Y4273D02*
X18811Y4308D01*
X18824Y4345D01*
X18835Y4383D01*
X18842Y4422D01*
X18847Y4461D01*
X18848Y4500D01*
X18796Y4273D02*
X18788Y4254D01*
X18777Y4237D01*
X18764Y4222D01*
X18749Y4209D01*
X18731Y4199D01*
X18713Y4191D01*
X18693Y4187D01*
X18673Y4185D01*
X18533Y4325D02*
X18813Y4675D01*
X19114Y4535D02*
X19324Y4535D01*
X19346Y4533D01*
X19367Y4528D01*
X19388Y4520D01*
X19406Y4508D01*
X19423Y4494D01*
X19437Y4477D01*
X19449Y4459D01*
X19457Y4438D01*
X19462Y4417D01*
X19464Y4395D01*
X19464Y4360D01*
X19462Y4335D01*
X19457Y4311D01*
X19448Y4287D01*
X19436Y4265D01*
X19421Y4245D01*
X19404Y4228D01*
X19384Y4213D01*
X19362Y4201D01*
X19338Y4192D01*
X19314Y4187D01*
X19289Y4185D01*
X19264Y4187D01*
X19240Y4192D01*
X19216Y4201D01*
X19194Y4213D01*
X19174Y4228D01*
X19157Y4245D01*
X19142Y4265D01*
X19130Y4287D01*
X19121Y4311D01*
X19116Y4335D01*
X19114Y4360D01*
X19114Y4535D01*
X19116Y4566D01*
X19121Y4597D01*
X19130Y4627D01*
X19142Y4656D01*
X19157Y4684D01*
X19175Y4710D01*
X19196Y4733D01*
X19219Y4754D01*
X19245Y4772D01*
X19273Y4787D01*
X19302Y4799D01*
X19332Y4808D01*
X19363Y4813D01*
X19394Y4815D01*
X19729Y4815D02*
X19729Y4745D01*
X19729Y4815D02*
X20079Y4815D01*
X19904Y4185D01*
X20365Y4185D02*
X20365Y4815D01*
X20715Y4185D01*
X20715Y4815D01*
D13*
X8770Y22450D02*
X8770Y30450D01*
X11070Y30450D02*
X11070Y22450D01*
X11070Y30450D02*
X8770Y30450D01*
X8770Y22450D02*
X9520Y22450D01*
X10320Y22450D02*
X11070Y22450D01*
X10320Y22450D02*
X10318Y22489D01*
X10312Y22528D01*
X10303Y22566D01*
X10290Y22603D01*
X10273Y22639D01*
X10253Y22672D01*
X10229Y22704D01*
X10203Y22733D01*
X10174Y22759D01*
X10142Y22783D01*
X10109Y22803D01*
X10073Y22820D01*
X10036Y22833D01*
X9998Y22842D01*
X9959Y22848D01*
X9920Y22850D01*
X9881Y22848D01*
X9842Y22842D01*
X9804Y22833D01*
X9767Y22820D01*
X9731Y22803D01*
X9698Y22783D01*
X9666Y22759D01*
X9637Y22733D01*
X9611Y22704D01*
X9587Y22672D01*
X9567Y22639D01*
X9550Y22603D01*
X9537Y22566D01*
X9528Y22528D01*
X9522Y22489D01*
X9520Y22450D01*
D20*
X9478Y22275D02*
X9478Y21825D01*
X9478Y22275D02*
X9603Y22275D01*
X9624Y22273D01*
X9644Y22268D01*
X9662Y22260D01*
X9680Y22249D01*
X9695Y22235D01*
X9708Y22218D01*
X9717Y22200D01*
X9724Y22181D01*
X9728Y22160D01*
X9728Y22140D01*
X9724Y22119D01*
X9717Y22100D01*
X9708Y22082D01*
X9695Y22065D01*
X9680Y22051D01*
X9662Y22040D01*
X9644Y22032D01*
X9624Y22027D01*
X9603Y22025D01*
X9478Y22025D01*
X9628Y22025D02*
X9728Y21825D01*
X9941Y21825D02*
X10141Y21825D01*
X9941Y21825D02*
X9941Y22275D01*
X10141Y22275D01*
X10091Y22075D02*
X9941Y22075D01*
X10505Y22075D02*
X10580Y22075D01*
X10580Y21825D01*
X10430Y21825D01*
X10413Y21827D01*
X10396Y21831D01*
X10380Y21838D01*
X10366Y21848D01*
X10353Y21861D01*
X10343Y21875D01*
X10336Y21891D01*
X10332Y21908D01*
X10330Y21925D01*
X10330Y22175D01*
X10332Y22192D01*
X10336Y22209D01*
X10343Y22225D01*
X10353Y22239D01*
X10366Y22252D01*
X10380Y22262D01*
X10396Y22269D01*
X10413Y22273D01*
X10430Y22275D01*
X10580Y22275D01*
X10933Y22276D02*
X10953Y22274D01*
X10972Y22269D01*
X10990Y22261D01*
X11006Y22250D01*
X11020Y22236D01*
X11031Y22220D01*
X11039Y22202D01*
X11044Y22183D01*
X11046Y22163D01*
X10933Y22275D02*
X10910Y22273D01*
X10888Y22268D01*
X10867Y22259D01*
X10848Y22247D01*
X10830Y22232D01*
X10816Y22215D01*
X10804Y22196D01*
X10795Y22175D01*
X11007Y22075D02*
X11020Y22090D01*
X11031Y22106D01*
X11039Y22124D01*
X11043Y22143D01*
X11045Y22163D01*
X11008Y22075D02*
X10795Y21825D01*
X11045Y21825D01*
X9745Y23525D02*
X9695Y23525D01*
X9695Y23775D01*
X10145Y23650D01*
X10045Y23975D02*
X9695Y24075D01*
X10045Y23975D02*
X10045Y24225D01*
X9945Y24150D02*
X10145Y24150D01*
X10145Y24440D02*
X9695Y24440D01*
X9895Y24440D02*
X9895Y24690D01*
X9695Y24690D02*
X10145Y24690D01*
X10145Y25004D02*
X10145Y25104D01*
X10145Y25004D02*
X10143Y24987D01*
X10139Y24970D01*
X10132Y24954D01*
X10122Y24940D01*
X10109Y24927D01*
X10095Y24917D01*
X10079Y24910D01*
X10062Y24906D01*
X10045Y24904D01*
X9795Y24904D01*
X9778Y24906D01*
X9761Y24910D01*
X9745Y24917D01*
X9731Y24927D01*
X9718Y24940D01*
X9708Y24954D01*
X9701Y24970D01*
X9697Y24987D01*
X9695Y25004D01*
X9695Y25104D01*
X10145Y25280D02*
X10145Y25430D01*
X10143Y25447D01*
X10139Y25464D01*
X10132Y25480D01*
X10122Y25494D01*
X10109Y25507D01*
X10095Y25517D01*
X10079Y25524D01*
X10062Y25528D01*
X10045Y25530D01*
X9995Y25530D01*
X9978Y25528D01*
X9961Y25524D01*
X9945Y25517D01*
X9931Y25507D01*
X9918Y25494D01*
X9908Y25480D01*
X9901Y25464D01*
X9897Y25447D01*
X9895Y25430D01*
X9895Y25280D01*
X9695Y25280D01*
X9695Y25530D01*
X9945Y25830D02*
X9945Y25980D01*
X9945Y25830D02*
X9943Y25813D01*
X9939Y25796D01*
X9932Y25780D01*
X9922Y25766D01*
X9909Y25753D01*
X9895Y25743D01*
X9879Y25736D01*
X9862Y25732D01*
X9845Y25730D01*
X9820Y25730D01*
X9799Y25732D01*
X9779Y25737D01*
X9761Y25745D01*
X9743Y25756D01*
X9728Y25770D01*
X9715Y25787D01*
X9706Y25805D01*
X9699Y25824D01*
X9695Y25845D01*
X9695Y25865D01*
X9699Y25886D01*
X9706Y25905D01*
X9715Y25923D01*
X9728Y25940D01*
X9743Y25954D01*
X9761Y25965D01*
X9779Y25973D01*
X9799Y25978D01*
X9820Y25980D01*
X9945Y25980D01*
X9971Y25978D01*
X9997Y25973D01*
X10022Y25965D01*
X10045Y25953D01*
X10067Y25939D01*
X10086Y25921D01*
X10104Y25902D01*
X10118Y25880D01*
X10130Y25857D01*
X10138Y25832D01*
X10143Y25806D01*
X10145Y25780D01*
X10145Y26180D02*
X10145Y26330D01*
X10143Y26347D01*
X10139Y26364D01*
X10132Y26380D01*
X10122Y26394D01*
X10109Y26407D01*
X10095Y26417D01*
X10079Y26424D01*
X10062Y26428D01*
X10045Y26430D01*
X9995Y26430D01*
X9978Y26428D01*
X9961Y26424D01*
X9945Y26417D01*
X9931Y26407D01*
X9918Y26394D01*
X9908Y26380D01*
X9901Y26364D01*
X9897Y26347D01*
X9895Y26330D01*
X9895Y26180D01*
X9695Y26180D01*
X9695Y26430D01*
X9695Y26645D02*
X10145Y26645D01*
X10145Y26895D02*
X9695Y26645D01*
X9695Y26895D02*
X10145Y26895D01*
D13*
X3600Y23100D02*
X3600Y31100D01*
X1300Y31100D02*
X1300Y23100D01*
X3600Y23100D01*
X3600Y31100D02*
X2850Y31100D01*
X2050Y31100D02*
X1300Y31100D01*
X2050Y31100D02*
X2052Y31061D01*
X2058Y31022D01*
X2067Y30984D01*
X2080Y30947D01*
X2097Y30911D01*
X2117Y30878D01*
X2141Y30846D01*
X2167Y30817D01*
X2196Y30791D01*
X2228Y30767D01*
X2261Y30747D01*
X2297Y30730D01*
X2334Y30717D01*
X2372Y30708D01*
X2411Y30702D01*
X2450Y30700D01*
X2489Y30702D01*
X2528Y30708D01*
X2566Y30717D01*
X2603Y30730D01*
X2639Y30747D01*
X2672Y30767D01*
X2704Y30791D01*
X2733Y30817D01*
X2759Y30846D01*
X2783Y30878D01*
X2803Y30911D01*
X2820Y30947D01*
X2833Y30984D01*
X2842Y31022D01*
X2848Y31061D01*
X2850Y31100D01*
D20*
X1667Y31275D02*
X1667Y31725D01*
X1792Y31725D01*
X1813Y31723D01*
X1833Y31718D01*
X1851Y31710D01*
X1869Y31699D01*
X1884Y31685D01*
X1897Y31668D01*
X1906Y31650D01*
X1913Y31631D01*
X1917Y31610D01*
X1917Y31590D01*
X1913Y31569D01*
X1906Y31550D01*
X1897Y31532D01*
X1884Y31515D01*
X1869Y31501D01*
X1851Y31490D01*
X1833Y31482D01*
X1813Y31477D01*
X1792Y31475D01*
X1667Y31475D01*
X1817Y31475D02*
X1917Y31275D01*
X2129Y31275D02*
X2329Y31275D01*
X2129Y31275D02*
X2129Y31725D01*
X2329Y31725D01*
X2279Y31525D02*
X2129Y31525D01*
X2693Y31525D02*
X2768Y31525D01*
X2768Y31275D01*
X2618Y31275D01*
X2601Y31277D01*
X2584Y31281D01*
X2568Y31288D01*
X2554Y31298D01*
X2541Y31311D01*
X2531Y31325D01*
X2524Y31341D01*
X2520Y31358D01*
X2518Y31375D01*
X2518Y31625D01*
X2520Y31642D01*
X2524Y31659D01*
X2531Y31675D01*
X2541Y31689D01*
X2554Y31702D01*
X2568Y31712D01*
X2584Y31719D01*
X2601Y31723D01*
X2618Y31725D01*
X2768Y31725D01*
X2983Y31625D02*
X3108Y31725D01*
X3108Y31275D01*
X2983Y31275D02*
X3233Y31275D01*
X1775Y27155D02*
X1725Y27155D01*
X1725Y27405D01*
X2175Y27280D01*
X2075Y27605D02*
X1725Y27705D01*
X2075Y27605D02*
X2075Y27855D01*
X1975Y27780D02*
X2175Y27780D01*
X2175Y28070D02*
X1725Y28070D01*
X1925Y28070D02*
X1925Y28320D01*
X1725Y28320D02*
X2175Y28320D01*
X2175Y28634D02*
X2175Y28734D01*
X2175Y28634D02*
X2173Y28617D01*
X2169Y28600D01*
X2162Y28584D01*
X2152Y28570D01*
X2139Y28557D01*
X2125Y28547D01*
X2109Y28540D01*
X2092Y28536D01*
X2075Y28534D01*
X1825Y28534D01*
X1808Y28536D01*
X1791Y28540D01*
X1775Y28547D01*
X1761Y28557D01*
X1748Y28570D01*
X1738Y28584D01*
X1731Y28600D01*
X1727Y28617D01*
X1725Y28634D01*
X1725Y28734D01*
X2175Y28910D02*
X2175Y29060D01*
X2173Y29077D01*
X2169Y29094D01*
X2162Y29110D01*
X2152Y29124D01*
X2139Y29137D01*
X2125Y29147D01*
X2109Y29154D01*
X2092Y29158D01*
X2075Y29160D01*
X2025Y29160D01*
X2008Y29158D01*
X1991Y29154D01*
X1975Y29147D01*
X1961Y29137D01*
X1948Y29124D01*
X1938Y29110D01*
X1931Y29094D01*
X1927Y29077D01*
X1925Y29060D01*
X1925Y28910D01*
X1725Y28910D01*
X1725Y29160D01*
X1975Y29460D02*
X1975Y29610D01*
X1975Y29460D02*
X1973Y29443D01*
X1969Y29426D01*
X1962Y29410D01*
X1952Y29396D01*
X1939Y29383D01*
X1925Y29373D01*
X1909Y29366D01*
X1892Y29362D01*
X1875Y29360D01*
X1850Y29360D01*
X1829Y29362D01*
X1809Y29367D01*
X1791Y29375D01*
X1773Y29386D01*
X1758Y29400D01*
X1745Y29417D01*
X1736Y29435D01*
X1729Y29454D01*
X1725Y29475D01*
X1725Y29495D01*
X1729Y29516D01*
X1736Y29535D01*
X1745Y29553D01*
X1758Y29570D01*
X1773Y29584D01*
X1791Y29595D01*
X1809Y29603D01*
X1829Y29608D01*
X1850Y29610D01*
X1975Y29610D01*
X2001Y29608D01*
X2027Y29603D01*
X2052Y29595D01*
X2075Y29583D01*
X2097Y29569D01*
X2116Y29551D01*
X2134Y29532D01*
X2148Y29510D01*
X2160Y29487D01*
X2168Y29462D01*
X2173Y29436D01*
X2175Y29410D01*
X2175Y29810D02*
X2175Y29960D01*
X2173Y29977D01*
X2169Y29994D01*
X2162Y30010D01*
X2152Y30024D01*
X2139Y30037D01*
X2125Y30047D01*
X2109Y30054D01*
X2092Y30058D01*
X2075Y30060D01*
X2025Y30060D01*
X2008Y30058D01*
X1991Y30054D01*
X1975Y30047D01*
X1961Y30037D01*
X1948Y30024D01*
X1938Y30010D01*
X1931Y29994D01*
X1927Y29977D01*
X1925Y29960D01*
X1925Y29810D01*
X1725Y29810D01*
X1725Y30060D01*
X1725Y30275D02*
X2175Y30275D01*
X2175Y30525D02*
X1725Y30275D01*
X1725Y30525D02*
X2175Y30525D01*
D13*
X7290Y19140D02*
X7290Y18640D01*
X7290Y19140D02*
X7540Y19390D01*
X8040Y19390D01*
X8290Y19140D01*
X7290Y17640D02*
X7540Y17390D01*
X7290Y17640D02*
X7290Y18140D01*
X7540Y18390D01*
X8040Y18390D01*
X8290Y18140D01*
X8290Y17640D01*
X8040Y17390D01*
X7540Y18390D02*
X7290Y18640D01*
X8040Y18390D02*
X8290Y18640D01*
X8290Y19140D01*
X7290Y16140D02*
X7290Y15640D01*
X7290Y16140D02*
X7540Y16390D01*
X8040Y16390D01*
X8290Y16140D01*
X7540Y16390D02*
X7290Y16640D01*
X7290Y17140D01*
X7540Y17390D01*
X8040Y17390D01*
X8290Y17140D01*
X8290Y16640D01*
X8040Y16390D01*
X7290Y14640D02*
X7540Y14390D01*
X7290Y14640D02*
X7290Y15140D01*
X7540Y15390D01*
X8040Y15390D01*
X8290Y15140D01*
X8290Y14640D01*
X8040Y14390D01*
X7540Y15390D02*
X7290Y15640D01*
X8040Y15390D02*
X8290Y15640D01*
X8290Y16140D01*
X7290Y13140D02*
X7290Y12640D01*
X7290Y13140D02*
X7540Y13390D01*
X8040Y13390D01*
X8290Y13140D01*
X7540Y13390D02*
X7290Y13640D01*
X7290Y14140D01*
X7540Y14390D01*
X8040Y14390D01*
X8290Y14140D01*
X8290Y13640D01*
X8040Y13390D01*
X7290Y11640D02*
X7540Y11390D01*
X7290Y11640D02*
X7290Y12140D01*
X7540Y12390D01*
X8040Y12390D01*
X8290Y12140D01*
X8290Y11640D01*
X8040Y11390D01*
X7540Y12390D02*
X7290Y12640D01*
X8040Y12390D02*
X8290Y12640D01*
X8290Y13140D01*
X7290Y10140D02*
X7290Y9640D01*
X7290Y10140D02*
X7540Y10390D01*
X8040Y10390D01*
X8290Y10140D01*
X7540Y10390D02*
X7290Y10640D01*
X7290Y11140D01*
X7540Y11390D01*
X8040Y11390D01*
X8290Y11140D01*
X8290Y10640D01*
X8040Y10390D01*
X7290Y8640D02*
X7540Y8390D01*
X7290Y8640D02*
X7290Y9140D01*
X7540Y9390D01*
X8040Y9390D01*
X8290Y9140D01*
X8290Y8640D01*
X8040Y8390D01*
X7540Y9390D02*
X7290Y9640D01*
X8040Y9390D02*
X8290Y9640D01*
X8290Y10140D01*
X7290Y7140D02*
X7290Y6640D01*
X7290Y7140D02*
X7540Y7390D01*
X8040Y7390D01*
X8290Y7140D01*
X7540Y7390D02*
X7290Y7640D01*
X7290Y8140D01*
X7540Y8390D01*
X8040Y8390D01*
X8290Y8140D01*
X8290Y7640D01*
X8040Y7390D01*
X7290Y5640D02*
X7540Y5390D01*
X7290Y5640D02*
X7290Y6140D01*
X7540Y6390D01*
X8040Y6390D01*
X8290Y6140D01*
X8290Y5640D01*
X8040Y5390D01*
X7540Y6390D02*
X7290Y6640D01*
X8040Y6390D02*
X8290Y6640D01*
X8290Y7140D01*
X7290Y4140D02*
X7290Y3640D01*
X7290Y4140D02*
X7540Y4390D01*
X8040Y4390D01*
X8290Y4140D01*
X7540Y4390D02*
X7290Y4640D01*
X7290Y5140D01*
X7540Y5390D01*
X8040Y5390D01*
X8290Y5140D01*
X8290Y4640D01*
X8040Y4390D01*
X7290Y2640D02*
X7540Y2390D01*
X7290Y2640D02*
X7290Y3140D01*
X7540Y3390D01*
X8040Y3390D01*
X8290Y3140D01*
X8290Y2640D01*
X8040Y2390D01*
X7540Y3390D02*
X7290Y3640D01*
X8040Y3390D02*
X8290Y3640D01*
X8290Y4140D01*
X7290Y1140D02*
X7290Y640D01*
X7290Y1140D02*
X7540Y1390D01*
X8040Y1390D01*
X8290Y1140D01*
X7540Y1390D02*
X7290Y1640D01*
X7290Y2140D01*
X7540Y2390D01*
X8040Y2390D01*
X8290Y2140D01*
X8290Y1640D01*
X8040Y1390D01*
X8040Y390D02*
X7540Y390D01*
X7290Y640D01*
X8040Y390D02*
X8290Y640D01*
X8290Y1140D01*
X7290Y19640D02*
X7290Y20140D01*
X7540Y20390D01*
X8040Y20390D01*
X8290Y20140D01*
X7540Y19390D02*
X7290Y19640D01*
X8040Y19390D02*
X8290Y19640D01*
X8290Y20140D01*
D21*
X7790Y18890D03*
X7790Y17890D03*
X7790Y16890D03*
X7790Y15890D03*
X7790Y14890D03*
X7790Y13890D03*
X7790Y12890D03*
X7790Y11890D03*
X7790Y10890D03*
X7790Y9890D03*
X7790Y8890D03*
X7790Y7890D03*
X7790Y6890D03*
X7790Y5890D03*
X7790Y4890D03*
X7790Y3890D03*
X7790Y2890D03*
X7790Y1890D03*
X7790Y890D03*
X7790Y19890D03*
D20*
X7045Y385D02*
X6595Y385D01*
X6845Y535D01*
X6595Y685D01*
X7045Y685D01*
X7045Y1004D02*
X7045Y1104D01*
X7045Y1004D02*
X7043Y987D01*
X7039Y970D01*
X7032Y954D01*
X7022Y940D01*
X7009Y927D01*
X6995Y917D01*
X6979Y910D01*
X6962Y906D01*
X6945Y904D01*
X6695Y904D01*
X6678Y906D01*
X6661Y910D01*
X6645Y917D01*
X6631Y927D01*
X6618Y940D01*
X6608Y954D01*
X6601Y970D01*
X6597Y987D01*
X6595Y1004D01*
X6595Y1104D01*
X6595Y1295D02*
X7045Y1295D01*
X6795Y1295D02*
X6795Y1545D01*
X6595Y1545D02*
X7045Y1545D01*
X7045Y1775D02*
X6595Y1775D01*
X6595Y1900D01*
X6597Y1920D01*
X6601Y1939D01*
X6609Y1957D01*
X6619Y1973D01*
X6632Y1988D01*
X6647Y2001D01*
X6663Y2011D01*
X6681Y2019D01*
X6700Y2023D01*
X6720Y2025D01*
X6920Y2025D01*
X6940Y2023D01*
X6959Y2019D01*
X6977Y2011D01*
X6993Y2001D01*
X7008Y1988D01*
X7021Y1973D01*
X7031Y1957D01*
X7039Y1939D01*
X7043Y1920D01*
X7045Y1900D01*
X7045Y1775D01*
X7045Y2258D02*
X6595Y2258D01*
X6595Y2383D01*
X6597Y2404D01*
X6602Y2424D01*
X6610Y2442D01*
X6621Y2460D01*
X6635Y2475D01*
X6652Y2488D01*
X6670Y2497D01*
X6689Y2504D01*
X6710Y2508D01*
X6730Y2508D01*
X6751Y2504D01*
X6770Y2497D01*
X6788Y2488D01*
X6805Y2475D01*
X6819Y2460D01*
X6830Y2442D01*
X6838Y2424D01*
X6843Y2404D01*
X6845Y2383D01*
X6845Y2258D01*
X6845Y2408D02*
X7045Y2508D01*
X6708Y2955D02*
X6688Y2953D01*
X6669Y2948D01*
X6652Y2940D01*
X6635Y2929D01*
X6621Y2915D01*
X6610Y2899D01*
X6602Y2881D01*
X6597Y2862D01*
X6595Y2842D01*
X6597Y2819D01*
X6602Y2797D01*
X6611Y2776D01*
X6623Y2757D01*
X6638Y2739D01*
X6655Y2725D01*
X6674Y2713D01*
X6695Y2704D01*
X6796Y2917D02*
X6781Y2930D01*
X6765Y2941D01*
X6747Y2949D01*
X6728Y2953D01*
X6708Y2955D01*
X6795Y2917D02*
X7045Y2705D01*
X7045Y2955D01*
D13*
X1290Y18640D02*
X1290Y19140D01*
X1540Y19390D01*
X2040Y19390D01*
X2290Y19140D01*
X1290Y17640D02*
X1540Y17390D01*
X1290Y17640D02*
X1290Y18140D01*
X1540Y18390D01*
X2040Y18390D01*
X2290Y18140D01*
X2290Y17640D01*
X2040Y17390D01*
X1540Y18390D02*
X1290Y18640D01*
X2040Y18390D02*
X2290Y18640D01*
X2290Y19140D01*
X1290Y16140D02*
X1290Y15640D01*
X1290Y16140D02*
X1540Y16390D01*
X2040Y16390D01*
X2290Y16140D01*
X1540Y16390D02*
X1290Y16640D01*
X1290Y17140D01*
X1540Y17390D01*
X2040Y17390D01*
X2290Y17140D01*
X2290Y16640D01*
X2040Y16390D01*
X1290Y14640D02*
X1540Y14390D01*
X1290Y14640D02*
X1290Y15140D01*
X1540Y15390D01*
X2040Y15390D01*
X2290Y15140D01*
X2290Y14640D01*
X2040Y14390D01*
X1540Y15390D02*
X1290Y15640D01*
X2040Y15390D02*
X2290Y15640D01*
X2290Y16140D01*
X1290Y13140D02*
X1290Y12640D01*
X1290Y13140D02*
X1540Y13390D01*
X2040Y13390D01*
X2290Y13140D01*
X1540Y13390D02*
X1290Y13640D01*
X1290Y14140D01*
X1540Y14390D01*
X2040Y14390D01*
X2290Y14140D01*
X2290Y13640D01*
X2040Y13390D01*
X1290Y11640D02*
X1540Y11390D01*
X1290Y11640D02*
X1290Y12140D01*
X1540Y12390D01*
X2040Y12390D01*
X2290Y12140D01*
X2290Y11640D01*
X2040Y11390D01*
X1540Y12390D02*
X1290Y12640D01*
X2040Y12390D02*
X2290Y12640D01*
X2290Y13140D01*
X1290Y10140D02*
X1290Y9640D01*
X1290Y10140D02*
X1540Y10390D01*
X2040Y10390D01*
X2290Y10140D01*
X1540Y10390D02*
X1290Y10640D01*
X1290Y11140D01*
X1540Y11390D01*
X2040Y11390D01*
X2290Y11140D01*
X2290Y10640D01*
X2040Y10390D01*
X1290Y8640D02*
X1540Y8390D01*
X1290Y8640D02*
X1290Y9140D01*
X1540Y9390D01*
X2040Y9390D01*
X2290Y9140D01*
X2290Y8640D01*
X2040Y8390D01*
X1540Y9390D02*
X1290Y9640D01*
X2040Y9390D02*
X2290Y9640D01*
X2290Y10140D01*
X1290Y7140D02*
X1290Y6640D01*
X1290Y7140D02*
X1540Y7390D01*
X2040Y7390D01*
X2290Y7140D01*
X1540Y7390D02*
X1290Y7640D01*
X1290Y8140D01*
X1540Y8390D01*
X2040Y8390D01*
X2290Y8140D01*
X2290Y7640D01*
X2040Y7390D01*
X1290Y5640D02*
X1540Y5390D01*
X1290Y5640D02*
X1290Y6140D01*
X1540Y6390D01*
X2040Y6390D01*
X2290Y6140D01*
X2290Y5640D01*
X2040Y5390D01*
X1540Y6390D02*
X1290Y6640D01*
X2040Y6390D02*
X2290Y6640D01*
X2290Y7140D01*
X1290Y4140D02*
X1290Y3640D01*
X1290Y4140D02*
X1540Y4390D01*
X2040Y4390D01*
X2290Y4140D01*
X1540Y4390D02*
X1290Y4640D01*
X1290Y5140D01*
X1540Y5390D01*
X2040Y5390D01*
X2290Y5140D01*
X2290Y4640D01*
X2040Y4390D01*
X1290Y2640D02*
X1540Y2390D01*
X1290Y2640D02*
X1290Y3140D01*
X1540Y3390D01*
X2040Y3390D01*
X2290Y3140D01*
X2290Y2640D01*
X2040Y2390D01*
X1540Y3390D02*
X1290Y3640D01*
X2040Y3390D02*
X2290Y3640D01*
X2290Y4140D01*
X1290Y1140D02*
X1290Y640D01*
X1290Y1140D02*
X1540Y1390D01*
X2040Y1390D01*
X2290Y1140D01*
X1540Y1390D02*
X1290Y1640D01*
X1290Y2140D01*
X1540Y2390D01*
X2040Y2390D01*
X2290Y2140D01*
X2290Y1640D01*
X2040Y1390D01*
X2040Y390D02*
X1540Y390D01*
X1290Y640D01*
X2040Y390D02*
X2290Y640D01*
X2290Y1140D01*
X1290Y19640D02*
X1290Y20140D01*
X1540Y20390D01*
X2040Y20390D01*
X2290Y20140D01*
X1540Y19390D02*
X1290Y19640D01*
X2040Y19390D02*
X2290Y19640D01*
X2290Y20140D01*
D21*
X1790Y18890D03*
X1790Y17890D03*
X1790Y16890D03*
X1790Y15890D03*
X1790Y14890D03*
X1790Y13890D03*
X1790Y12890D03*
X1790Y11890D03*
X1790Y10890D03*
X1790Y9890D03*
X1790Y8890D03*
X1790Y7890D03*
X1790Y6890D03*
X1790Y5890D03*
X1790Y4890D03*
X1790Y3890D03*
X1790Y2890D03*
X1790Y1890D03*
X1790Y890D03*
X1790Y19890D03*
D20*
X1045Y385D02*
X595Y385D01*
X845Y535D01*
X595Y685D01*
X1045Y685D01*
X1045Y1004D02*
X1045Y1104D01*
X1045Y1004D02*
X1043Y987D01*
X1039Y970D01*
X1032Y954D01*
X1022Y940D01*
X1009Y927D01*
X995Y917D01*
X979Y910D01*
X962Y906D01*
X945Y904D01*
X695Y904D01*
X678Y906D01*
X661Y910D01*
X645Y917D01*
X631Y927D01*
X618Y940D01*
X608Y954D01*
X601Y970D01*
X597Y987D01*
X595Y1004D01*
X595Y1104D01*
X595Y1295D02*
X1045Y1295D01*
X795Y1295D02*
X795Y1545D01*
X595Y1545D02*
X1045Y1545D01*
X1045Y1775D02*
X595Y1775D01*
X595Y1900D01*
X597Y1920D01*
X601Y1939D01*
X609Y1957D01*
X619Y1973D01*
X632Y1988D01*
X647Y2001D01*
X663Y2011D01*
X681Y2019D01*
X700Y2023D01*
X720Y2025D01*
X920Y2025D01*
X940Y2023D01*
X959Y2019D01*
X977Y2011D01*
X993Y2001D01*
X1008Y1988D01*
X1021Y1973D01*
X1031Y1957D01*
X1039Y1939D01*
X1043Y1920D01*
X1045Y1900D01*
X1045Y1775D01*
X1045Y2258D02*
X595Y2258D01*
X595Y2383D01*
X597Y2404D01*
X602Y2424D01*
X610Y2442D01*
X621Y2460D01*
X635Y2475D01*
X652Y2488D01*
X670Y2497D01*
X689Y2504D01*
X710Y2508D01*
X730Y2508D01*
X751Y2504D01*
X770Y2497D01*
X788Y2488D01*
X805Y2475D01*
X819Y2460D01*
X830Y2442D01*
X838Y2424D01*
X843Y2404D01*
X845Y2383D01*
X845Y2258D01*
X845Y2408D02*
X1045Y2508D01*
X695Y2705D02*
X595Y2830D01*
X1045Y2830D01*
X1045Y2705D02*
X1045Y2955D01*
D13*
X11190Y16560D02*
X11440Y16810D01*
X11440Y17310D02*
X11190Y17560D01*
X11440Y17810D01*
X11440Y18310D02*
X11190Y18560D01*
X11440Y18810D01*
X11440Y19310D02*
X11190Y19560D01*
X11440Y19810D01*
X11440Y20310D02*
X11190Y20560D01*
X11190Y16560D02*
X9690Y16560D01*
X9440Y16810D01*
X9440Y17310D01*
X9690Y17560D01*
X9440Y17810D01*
X9440Y18310D01*
X9690Y18560D01*
X9440Y18810D01*
X9440Y19310D01*
X9690Y19560D01*
X9440Y19810D01*
X9440Y20310D01*
X9690Y20560D01*
X9690Y17560D02*
X11190Y17560D01*
X11190Y18560D02*
X9690Y18560D01*
X9690Y19560D02*
X11190Y19560D01*
X11190Y20560D02*
X9690Y20560D01*
X11440Y20310D02*
X11440Y19810D01*
X11440Y19310D02*
X11440Y18810D01*
X11440Y18310D02*
X11440Y17810D01*
X11440Y17310D02*
X11440Y16810D01*
X11190Y20560D02*
X11440Y20810D01*
X11440Y21310D02*
X11190Y21560D01*
X9690Y20560D02*
X9440Y20810D01*
X9440Y21310D01*
X9690Y21560D01*
X11190Y21560D01*
X11440Y21310D02*
X11440Y20810D01*
D21*
X10940Y17060D03*
X9940Y17060D03*
X9940Y18060D03*
X10940Y18060D03*
X9940Y19060D03*
X10940Y19060D03*
X9940Y20060D03*
X10940Y20060D03*
X9940Y21060D03*
X10940Y21060D03*
D12*
X11535Y18175D02*
X11825Y18175D01*
X11535Y18175D02*
X11535Y18256D01*
X11537Y18273D01*
X11542Y18289D01*
X11550Y18304D01*
X11562Y18316D01*
X11576Y18326D01*
X11591Y18333D01*
X11608Y18337D01*
X11624Y18337D01*
X11641Y18333D01*
X11657Y18326D01*
X11670Y18316D01*
X11682Y18304D01*
X11690Y18289D01*
X11695Y18273D01*
X11697Y18256D01*
X11696Y18256D02*
X11696Y18175D01*
X11696Y18272D02*
X11825Y18336D01*
X11825Y18471D02*
X11825Y18600D01*
X11825Y18471D02*
X11535Y18471D01*
X11535Y18600D01*
X11664Y18568D02*
X11664Y18471D01*
X11664Y18833D02*
X11664Y18881D01*
X11825Y18881D01*
X11825Y18785D01*
X11823Y18771D01*
X11819Y18757D01*
X11811Y18745D01*
X11801Y18735D01*
X11789Y18727D01*
X11775Y18723D01*
X11761Y18721D01*
X11761Y18720D02*
X11599Y18720D01*
X11599Y18721D02*
X11585Y18723D01*
X11571Y18727D01*
X11559Y18735D01*
X11549Y18745D01*
X11541Y18757D01*
X11537Y18771D01*
X11535Y18785D01*
X11535Y18881D01*
X11825Y19081D02*
X11825Y19146D01*
X11825Y19081D02*
X11823Y19067D01*
X11819Y19053D01*
X11811Y19041D01*
X11801Y19031D01*
X11789Y19023D01*
X11775Y19019D01*
X11761Y19017D01*
X11599Y19017D01*
X11585Y19019D01*
X11571Y19023D01*
X11559Y19031D01*
X11549Y19041D01*
X11541Y19053D01*
X11537Y19067D01*
X11535Y19081D01*
X11535Y19146D01*
X11535Y19319D02*
X11825Y19319D01*
X11535Y19239D02*
X11535Y19400D01*
X11535Y19519D02*
X11825Y19519D01*
X11535Y19519D02*
X11535Y19600D01*
X11537Y19617D01*
X11542Y19633D01*
X11550Y19648D01*
X11562Y19660D01*
X11576Y19670D01*
X11591Y19677D01*
X11608Y19681D01*
X11624Y19681D01*
X11641Y19677D01*
X11657Y19670D01*
X11670Y19660D01*
X11682Y19648D01*
X11690Y19633D01*
X11695Y19617D01*
X11697Y19600D01*
X11696Y19600D02*
X11696Y19519D01*
X11696Y19616D02*
X11825Y19680D01*
X11825Y19815D02*
X11535Y19815D01*
X11825Y19815D02*
X11825Y19944D01*
D13*
X10750Y31500D02*
X10500Y31750D01*
X11250Y31500D02*
X11500Y31750D01*
X11750Y31500D01*
X12250Y31500D02*
X12500Y31750D01*
X12750Y31500D01*
X13250Y31500D02*
X13500Y31750D01*
X13750Y31500D01*
X14250Y31500D02*
X14500Y31750D01*
X14750Y31500D01*
X15250Y31500D02*
X15500Y31750D01*
X15750Y31500D01*
X16250Y31500D02*
X16500Y31750D01*
X10500Y31750D02*
X10500Y33250D01*
X10750Y33500D01*
X11250Y33500D01*
X11500Y33250D01*
X11750Y33500D01*
X12250Y33500D01*
X12500Y33250D01*
X12750Y33500D01*
X13250Y33500D01*
X13500Y33250D01*
X13750Y33500D01*
X14250Y33500D01*
X14500Y33250D01*
X14750Y33500D01*
X15250Y33500D01*
X15500Y33250D01*
X15750Y33500D01*
X16250Y33500D01*
X16500Y33250D01*
X16750Y33500D01*
X17250Y33500D01*
X17500Y33250D01*
X17750Y33500D01*
X18250Y33500D01*
X18500Y33250D01*
X18750Y33500D01*
X19250Y33500D01*
X19500Y33250D01*
X19500Y31750D02*
X19250Y31500D01*
X18750Y31500D02*
X18500Y31750D01*
X18250Y31500D01*
X17750Y31500D02*
X17500Y31750D01*
X17250Y31500D01*
X16750Y31500D02*
X16500Y31750D01*
X11500Y31750D02*
X11500Y33250D01*
X12500Y33250D02*
X12500Y31750D01*
X13500Y31750D02*
X13500Y33250D01*
X14500Y33250D02*
X14500Y31750D01*
X15500Y31750D02*
X15500Y33250D01*
X16500Y33250D02*
X16500Y31750D01*
X17500Y31750D02*
X17500Y33250D01*
X18500Y33250D02*
X18500Y31750D01*
X19500Y31750D02*
X19500Y33250D01*
X19250Y31500D02*
X18750Y31500D01*
X18250Y31500D02*
X17750Y31500D01*
X17250Y31500D02*
X16750Y31500D01*
X16250Y31500D02*
X15750Y31500D01*
X15250Y31500D02*
X14750Y31500D01*
X14250Y31500D02*
X13750Y31500D01*
X13250Y31500D02*
X12750Y31500D01*
X12250Y31500D02*
X11750Y31500D01*
X11250Y31500D02*
X10750Y31500D01*
X19500Y33250D02*
X19750Y33500D01*
X20250Y33500D01*
X20500Y33250D01*
X20500Y31750D02*
X20250Y31500D01*
X19750Y31500D02*
X19500Y31750D01*
X20500Y31750D02*
X20500Y33250D01*
X20250Y31500D02*
X19750Y31500D01*
D21*
X11000Y32000D03*
X11000Y33000D03*
X12000Y33000D03*
X12000Y32000D03*
X13000Y33000D03*
X13000Y32000D03*
X14000Y33000D03*
X15000Y33000D03*
X16000Y33000D03*
X14000Y32000D03*
X15000Y32000D03*
X16000Y32000D03*
X17000Y33000D03*
X17000Y32000D03*
X18000Y33000D03*
X18000Y32000D03*
X19000Y33000D03*
X19000Y32000D03*
X20000Y33000D03*
X20000Y32000D03*
D20*
X20775Y32525D02*
X20775Y32975D01*
X20775Y32525D02*
X20975Y32525D01*
X21165Y32525D02*
X21365Y32525D01*
X21165Y32525D02*
X21165Y32975D01*
X21365Y32975D01*
X21315Y32775D02*
X21165Y32775D01*
X21554Y32975D02*
X21554Y32525D01*
X21554Y32975D02*
X21679Y32975D01*
X21699Y32973D01*
X21718Y32969D01*
X21736Y32961D01*
X21752Y32951D01*
X21767Y32938D01*
X21780Y32923D01*
X21790Y32907D01*
X21798Y32889D01*
X21802Y32870D01*
X21804Y32850D01*
X21804Y32650D01*
X21802Y32630D01*
X21798Y32611D01*
X21790Y32593D01*
X21780Y32577D01*
X21767Y32562D01*
X21752Y32549D01*
X21736Y32539D01*
X21718Y32531D01*
X21699Y32527D01*
X21679Y32525D01*
X21554Y32525D01*
X22034Y32525D02*
X22034Y32975D01*
X22034Y32775D02*
X22284Y32775D01*
X22284Y32975D02*
X22284Y32525D01*
X22514Y32525D02*
X22514Y32975D01*
X22639Y32975D01*
X22659Y32973D01*
X22678Y32969D01*
X22696Y32961D01*
X22712Y32951D01*
X22727Y32938D01*
X22740Y32923D01*
X22750Y32907D01*
X22758Y32889D01*
X22762Y32870D01*
X22764Y32850D01*
X22764Y32650D01*
X22762Y32630D01*
X22758Y32611D01*
X22750Y32593D01*
X22740Y32577D01*
X22727Y32562D01*
X22712Y32549D01*
X22696Y32539D01*
X22678Y32531D01*
X22659Y32527D01*
X22639Y32525D01*
X22514Y32525D01*
X22997Y32525D02*
X22997Y32975D01*
X23122Y32975D01*
X23143Y32973D01*
X23163Y32968D01*
X23181Y32960D01*
X23199Y32949D01*
X23214Y32935D01*
X23227Y32918D01*
X23236Y32900D01*
X23243Y32881D01*
X23247Y32860D01*
X23247Y32840D01*
X23243Y32819D01*
X23236Y32800D01*
X23227Y32782D01*
X23214Y32765D01*
X23199Y32751D01*
X23181Y32740D01*
X23163Y32732D01*
X23143Y32727D01*
X23122Y32725D01*
X22997Y32725D01*
X23147Y32725D02*
X23247Y32525D01*
D13*
X6290Y30121D02*
X5290Y30121D01*
X5290Y24121D02*
X6290Y24121D01*
X6040Y24371D01*
X5540Y24371D02*
X5290Y24121D01*
X5540Y24871D02*
X5290Y25121D01*
X5290Y30121D01*
X6290Y25121D02*
X6040Y24871D01*
X6290Y25121D02*
X6290Y24121D01*
X6290Y25121D02*
X5290Y25121D01*
X5290Y24121D01*
X6290Y25121D02*
X6290Y30121D01*
X6030Y24861D02*
X5550Y24381D01*
X6030Y24381D02*
X5550Y24861D01*
D20*
X5115Y25646D02*
X4665Y25646D01*
X4665Y25771D01*
X4667Y25792D01*
X4672Y25812D01*
X4680Y25830D01*
X4691Y25848D01*
X4705Y25863D01*
X4722Y25876D01*
X4740Y25885D01*
X4759Y25892D01*
X4780Y25896D01*
X4800Y25896D01*
X4821Y25892D01*
X4840Y25885D01*
X4858Y25876D01*
X4875Y25863D01*
X4889Y25848D01*
X4900Y25830D01*
X4908Y25812D01*
X4913Y25792D01*
X4915Y25771D01*
X4915Y25646D01*
X4915Y25796D02*
X5115Y25896D01*
X5115Y26108D02*
X4665Y26108D01*
X5115Y26358D01*
X4665Y26358D01*
X4765Y26573D02*
X4665Y26698D01*
X5115Y26698D01*
X5115Y26573D02*
X5115Y26823D01*
X6465Y25771D02*
X6565Y25646D01*
X6465Y25771D02*
X6915Y25771D01*
X6915Y25646D02*
X6915Y25896D01*
X6690Y26096D02*
X6656Y26098D01*
X6623Y26102D01*
X6590Y26110D01*
X6558Y26120D01*
X6527Y26134D01*
X6528Y26133D02*
X6513Y26140D01*
X6499Y26149D01*
X6487Y26160D01*
X6478Y26174D01*
X6471Y26189D01*
X6466Y26205D01*
X6465Y26221D01*
X6466Y26237D01*
X6471Y26253D01*
X6478Y26268D01*
X6487Y26282D01*
X6499Y26293D01*
X6513Y26302D01*
X6528Y26309D01*
X6527Y26308D02*
X6558Y26322D01*
X6590Y26332D01*
X6623Y26340D01*
X6656Y26344D01*
X6690Y26346D01*
X6690Y26096D02*
X6724Y26098D01*
X6757Y26102D01*
X6790Y26110D01*
X6822Y26120D01*
X6853Y26134D01*
X6853Y26133D02*
X6868Y26140D01*
X6882Y26149D01*
X6894Y26160D01*
X6903Y26174D01*
X6910Y26189D01*
X6915Y26205D01*
X6916Y26221D01*
X6853Y26308D02*
X6822Y26322D01*
X6790Y26332D01*
X6757Y26340D01*
X6724Y26344D01*
X6690Y26346D01*
X6853Y26309D02*
X6868Y26302D01*
X6882Y26293D01*
X6894Y26282D01*
X6903Y26268D01*
X6910Y26253D01*
X6915Y26237D01*
X6916Y26221D01*
X6815Y26121D02*
X6565Y26321D01*
X6465Y26569D02*
X6915Y26569D01*
X6740Y26569D02*
X6465Y26819D01*
X6640Y26669D02*
X6915Y26819D01*
D22*
X13000Y19960D02*
X13000Y19610D01*
X13000Y17310D02*
X13000Y16960D01*
D13*
X12700Y17460D02*
X12683Y17462D01*
X12666Y17466D01*
X12650Y17473D01*
X12636Y17483D01*
X12623Y17496D01*
X12613Y17510D01*
X12606Y17526D01*
X12602Y17543D01*
X12600Y17560D01*
X13300Y17460D02*
X13317Y17462D01*
X13334Y17466D01*
X13350Y17473D01*
X13364Y17483D01*
X13377Y17496D01*
X13387Y17510D01*
X13394Y17526D01*
X13398Y17543D01*
X13400Y17560D01*
X13400Y19360D02*
X13398Y19377D01*
X13394Y19394D01*
X13387Y19410D01*
X13377Y19424D01*
X13364Y19437D01*
X13350Y19447D01*
X13334Y19454D01*
X13317Y19458D01*
X13300Y19460D01*
X12700Y19460D02*
X12683Y19458D01*
X12666Y19454D01*
X12650Y19447D01*
X12636Y19437D01*
X12623Y19424D01*
X12613Y19410D01*
X12606Y19394D01*
X12602Y19377D01*
X12600Y19360D01*
X12700Y17460D02*
X13300Y17460D01*
X12600Y17560D02*
X12600Y17710D01*
X12650Y17760D01*
X13400Y17710D02*
X13400Y17560D01*
X13400Y17710D02*
X13350Y17760D01*
X12650Y19160D02*
X12600Y19210D01*
X12650Y19160D02*
X12650Y17760D01*
X13350Y19160D02*
X13400Y19210D01*
X13350Y19160D02*
X13350Y17760D01*
X12600Y19210D02*
X12600Y19360D01*
X13400Y19360D02*
X13400Y19210D01*
X13300Y19460D02*
X12700Y19460D01*
D23*
X13000Y19535D03*
X13000Y17385D03*
D10*
X12730Y18230D02*
X12270Y18230D01*
X12270Y18358D01*
X12272Y18379D01*
X12277Y18400D01*
X12285Y18419D01*
X12297Y18437D01*
X12311Y18452D01*
X12328Y18465D01*
X12347Y18475D01*
X12367Y18482D01*
X12387Y18486D01*
X12409Y18486D01*
X12429Y18482D01*
X12449Y18475D01*
X12468Y18465D01*
X12485Y18452D01*
X12499Y18437D01*
X12511Y18419D01*
X12519Y18400D01*
X12524Y18379D01*
X12526Y18358D01*
X12526Y18230D01*
X12526Y18383D02*
X12730Y18486D01*
X12372Y18677D02*
X12270Y18805D01*
X12730Y18805D01*
X12730Y18677D02*
X12730Y18933D01*
X13270Y18358D02*
X13372Y18230D01*
X13270Y18358D02*
X13730Y18358D01*
X13730Y18230D02*
X13730Y18486D01*
X13500Y18680D02*
X13466Y18682D01*
X13432Y18686D01*
X13398Y18694D01*
X13365Y18705D01*
X13334Y18718D01*
X13319Y18725D01*
X13305Y18734D01*
X13293Y18746D01*
X13283Y18760D01*
X13276Y18775D01*
X13271Y18791D01*
X13270Y18808D01*
X13271Y18825D01*
X13276Y18841D01*
X13283Y18856D01*
X13293Y18870D01*
X13305Y18882D01*
X13319Y18891D01*
X13334Y18898D01*
X13334Y18897D02*
X13365Y18910D01*
X13398Y18921D01*
X13432Y18929D01*
X13466Y18933D01*
X13500Y18935D01*
X13500Y18680D02*
X13534Y18682D01*
X13568Y18686D01*
X13602Y18694D01*
X13635Y18705D01*
X13666Y18718D01*
X13681Y18725D01*
X13695Y18734D01*
X13707Y18746D01*
X13717Y18760D01*
X13724Y18775D01*
X13729Y18791D01*
X13730Y18808D01*
X13666Y18897D02*
X13635Y18910D01*
X13602Y18921D01*
X13568Y18929D01*
X13534Y18933D01*
X13500Y18935D01*
X13666Y18898D02*
X13681Y18891D01*
X13695Y18882D01*
X13707Y18870D01*
X13717Y18856D01*
X13724Y18841D01*
X13729Y18825D01*
X13730Y18808D01*
X13628Y18706D02*
X13372Y18910D01*
X13270Y19152D02*
X13730Y19152D01*
X13551Y19152D02*
X13270Y19407D01*
X13449Y19254D02*
X13730Y19407D01*
D13*
X-1090Y24320D02*
X-1090Y32920D01*
X-290Y32920D02*
X-290Y24320D01*
X-390Y32320D02*
X-390Y32920D01*
X-390Y32320D02*
X-990Y32320D01*
X-990Y32920D01*
X-390Y32920D01*
X-340Y32270D02*
X-1040Y32270D01*
X-1040Y32970D01*
X-490Y33120D02*
X-464Y33118D01*
X-438Y33113D01*
X-413Y33105D01*
X-390Y33093D01*
X-368Y33079D01*
X-349Y33061D01*
X-331Y33042D01*
X-317Y33020D01*
X-305Y32997D01*
X-297Y32972D01*
X-292Y32946D01*
X-290Y32920D01*
X-1090Y24320D02*
X-1088Y24294D01*
X-1083Y24268D01*
X-1075Y24243D01*
X-1063Y24220D01*
X-1049Y24198D01*
X-1031Y24179D01*
X-1012Y24161D01*
X-990Y24147D01*
X-967Y24135D01*
X-942Y24127D01*
X-916Y24122D01*
X-890Y24120D01*
X-490Y24120D02*
X-464Y24122D01*
X-438Y24127D01*
X-413Y24135D01*
X-390Y24147D01*
X-368Y24161D01*
X-349Y24179D01*
X-331Y24198D01*
X-317Y24220D01*
X-305Y24243D01*
X-297Y24268D01*
X-292Y24294D01*
X-290Y24320D01*
X-1090Y32920D02*
X-1088Y32946D01*
X-1083Y32972D01*
X-1075Y32997D01*
X-1063Y33020D01*
X-1049Y33042D01*
X-1031Y33061D01*
X-1012Y33079D01*
X-990Y33093D01*
X-967Y33105D01*
X-942Y33113D01*
X-916Y33118D01*
X-890Y33120D01*
X-890Y24120D02*
X-490Y24120D01*
X-490Y33120D02*
X-890Y33120D01*
X-1040Y32970D02*
X-340Y32970D01*
X-340Y32270D01*
X-690Y29320D02*
X-690Y29070D01*
X-690Y28170D02*
X-690Y27920D01*
X-540Y28170D02*
X-540Y29070D01*
X-540Y28170D02*
X-690Y28170D01*
X-840Y28170D01*
X-840Y29070D01*
X-690Y29070D01*
X-540Y29070D01*
D20*
X-789Y33306D02*
X-865Y33401D01*
X-525Y33401D01*
X-525Y33495D02*
X-525Y33306D01*
X-165Y31918D02*
X285Y31918D01*
X-165Y31918D02*
X-165Y32043D01*
X-163Y32064D01*
X-158Y32084D01*
X-150Y32102D01*
X-139Y32120D01*
X-125Y32135D01*
X-108Y32148D01*
X-90Y32157D01*
X-71Y32164D01*
X-50Y32168D01*
X-30Y32168D01*
X-9Y32164D01*
X10Y32157D01*
X28Y32148D01*
X45Y32135D01*
X59Y32120D01*
X70Y32102D01*
X78Y32084D01*
X83Y32064D01*
X85Y32043D01*
X85Y31918D01*
X85Y32068D02*
X285Y32168D01*
X285Y32380D02*
X-165Y32380D01*
X285Y32630D01*
X-165Y32630D01*
X-166Y32983D02*
X-164Y33003D01*
X-159Y33022D01*
X-151Y33040D01*
X-140Y33056D01*
X-126Y33070D01*
X-109Y33081D01*
X-92Y33089D01*
X-73Y33094D01*
X-53Y33096D01*
X-165Y32983D02*
X-163Y32960D01*
X-158Y32938D01*
X-149Y32917D01*
X-137Y32898D01*
X-122Y32880D01*
X-105Y32866D01*
X-86Y32854D01*
X-65Y32845D01*
X35Y33057D02*
X20Y33070D01*
X4Y33081D01*
X-14Y33089D01*
X-33Y33093D01*
X-53Y33095D01*
X35Y33058D02*
X285Y32845D01*
X285Y33095D01*
X-165Y29048D02*
X-65Y28923D01*
X-165Y29048D02*
X285Y29048D01*
X285Y28923D02*
X285Y29173D01*
X60Y29372D02*
X26Y29374D01*
X-7Y29378D01*
X-40Y29386D01*
X-72Y29396D01*
X-103Y29410D01*
X-118Y29417D01*
X-132Y29426D01*
X-144Y29437D01*
X-153Y29451D01*
X-160Y29466D01*
X-165Y29482D01*
X-166Y29498D01*
X-165Y29514D01*
X-160Y29530D01*
X-153Y29545D01*
X-144Y29559D01*
X-132Y29570D01*
X-118Y29579D01*
X-103Y29586D01*
X-103Y29585D02*
X-72Y29599D01*
X-40Y29609D01*
X-7Y29617D01*
X26Y29621D01*
X60Y29623D01*
X60Y29372D02*
X94Y29374D01*
X127Y29378D01*
X160Y29386D01*
X192Y29396D01*
X223Y29410D01*
X238Y29417D01*
X252Y29426D01*
X264Y29437D01*
X273Y29451D01*
X280Y29466D01*
X285Y29482D01*
X286Y29498D01*
X223Y29585D02*
X192Y29599D01*
X160Y29609D01*
X127Y29617D01*
X94Y29621D01*
X60Y29623D01*
X223Y29586D02*
X238Y29579D01*
X252Y29570D01*
X264Y29559D01*
X273Y29545D01*
X280Y29530D01*
X285Y29514D01*
X286Y29498D01*
X185Y29398D02*
X-65Y29598D01*
X-165Y29845D02*
X285Y29845D01*
X110Y29845D02*
X-165Y30095D01*
X10Y29945D02*
X285Y30095D01*
D13*
X13280Y29250D02*
X13280Y20650D01*
X12480Y20650D02*
X12480Y29250D01*
X12580Y21250D02*
X12580Y20650D01*
X12580Y21250D02*
X13180Y21250D01*
X13180Y20650D01*
X12580Y20650D01*
X12530Y21300D02*
X13230Y21300D01*
X13230Y20600D01*
X12680Y20450D02*
X12654Y20452D01*
X12628Y20457D01*
X12603Y20465D01*
X12580Y20477D01*
X12558Y20491D01*
X12539Y20509D01*
X12521Y20528D01*
X12507Y20550D01*
X12495Y20573D01*
X12487Y20598D01*
X12482Y20624D01*
X12480Y20650D01*
X13280Y29250D02*
X13278Y29276D01*
X13273Y29302D01*
X13265Y29327D01*
X13253Y29350D01*
X13239Y29372D01*
X13221Y29391D01*
X13202Y29409D01*
X13180Y29423D01*
X13157Y29435D01*
X13132Y29443D01*
X13106Y29448D01*
X13080Y29450D01*
X12680Y29450D02*
X12654Y29448D01*
X12628Y29443D01*
X12603Y29435D01*
X12580Y29423D01*
X12558Y29409D01*
X12539Y29391D01*
X12521Y29372D01*
X12507Y29350D01*
X12495Y29327D01*
X12487Y29302D01*
X12482Y29276D01*
X12480Y29250D01*
X13280Y20650D02*
X13278Y20624D01*
X13273Y20598D01*
X13265Y20573D01*
X13253Y20550D01*
X13239Y20528D01*
X13221Y20509D01*
X13202Y20491D01*
X13180Y20477D01*
X13157Y20465D01*
X13132Y20457D01*
X13106Y20452D01*
X13080Y20450D01*
X13080Y29450D02*
X12680Y29450D01*
X12680Y20450D02*
X13080Y20450D01*
X13230Y20600D02*
X12530Y20600D01*
X12530Y21300D01*
X12880Y24250D02*
X12880Y24500D01*
X12880Y25400D02*
X12880Y25650D01*
X12730Y25400D02*
X12730Y24500D01*
X12730Y25400D02*
X12880Y25400D01*
X13030Y25400D01*
X13030Y24500D01*
X12880Y24500D01*
X12730Y24500D01*
D20*
X12715Y20169D02*
X12791Y20075D01*
X12715Y20169D02*
X13055Y20169D01*
X13055Y20075D02*
X13055Y20264D01*
X12355Y20475D02*
X11905Y20475D01*
X11905Y20600D01*
X11907Y20621D01*
X11912Y20641D01*
X11920Y20659D01*
X11931Y20677D01*
X11945Y20692D01*
X11962Y20705D01*
X11980Y20714D01*
X11999Y20721D01*
X12020Y20725D01*
X12040Y20725D01*
X12061Y20721D01*
X12080Y20714D01*
X12098Y20705D01*
X12115Y20692D01*
X12129Y20677D01*
X12140Y20659D01*
X12148Y20641D01*
X12153Y20621D01*
X12155Y20600D01*
X12155Y20475D01*
X12155Y20625D02*
X12355Y20725D01*
X12355Y20937D02*
X11905Y20937D01*
X12355Y21187D01*
X11905Y21187D01*
X12355Y21402D02*
X12355Y21527D01*
X12353Y21548D01*
X12348Y21568D01*
X12340Y21586D01*
X12329Y21604D01*
X12315Y21619D01*
X12298Y21632D01*
X12280Y21641D01*
X12261Y21648D01*
X12240Y21652D01*
X12220Y21652D01*
X12199Y21648D01*
X12180Y21641D01*
X12162Y21632D01*
X12145Y21619D01*
X12131Y21604D01*
X12120Y21586D01*
X12112Y21568D01*
X12107Y21548D01*
X12105Y21527D01*
X11905Y21552D02*
X11905Y21402D01*
X11905Y21552D02*
X11907Y21570D01*
X11912Y21588D01*
X11920Y21605D01*
X11931Y21619D01*
X11945Y21632D01*
X11960Y21642D01*
X11978Y21648D01*
X11996Y21652D01*
X12014Y21652D01*
X12032Y21648D01*
X12050Y21642D01*
X12065Y21632D01*
X12079Y21619D01*
X12090Y21605D01*
X12098Y21588D01*
X12103Y21570D01*
X12105Y21552D01*
X12105Y21452D01*
X12005Y23475D02*
X11905Y23600D01*
X12355Y23600D01*
X12355Y23475D02*
X12355Y23725D01*
X12130Y23925D02*
X12096Y23927D01*
X12063Y23931D01*
X12030Y23939D01*
X11998Y23949D01*
X11967Y23963D01*
X11968Y23962D02*
X11953Y23969D01*
X11939Y23978D01*
X11927Y23989D01*
X11918Y24003D01*
X11911Y24018D01*
X11906Y24034D01*
X11905Y24050D01*
X11906Y24066D01*
X11911Y24082D01*
X11918Y24097D01*
X11927Y24111D01*
X11939Y24122D01*
X11953Y24131D01*
X11968Y24138D01*
X11967Y24137D02*
X11998Y24151D01*
X12030Y24161D01*
X12063Y24169D01*
X12096Y24173D01*
X12130Y24175D01*
X12130Y23925D02*
X12164Y23927D01*
X12197Y23931D01*
X12230Y23939D01*
X12262Y23949D01*
X12293Y23963D01*
X12293Y23962D02*
X12308Y23969D01*
X12322Y23978D01*
X12334Y23989D01*
X12343Y24003D01*
X12350Y24018D01*
X12355Y24034D01*
X12356Y24050D01*
X12293Y24137D02*
X12262Y24151D01*
X12230Y24161D01*
X12197Y24169D01*
X12164Y24173D01*
X12130Y24175D01*
X12293Y24138D02*
X12308Y24131D01*
X12322Y24122D01*
X12334Y24111D01*
X12343Y24097D01*
X12350Y24082D01*
X12355Y24066D01*
X12356Y24050D01*
X12255Y23950D02*
X12005Y24150D01*
X11905Y24398D02*
X12355Y24398D01*
X12180Y24398D02*
X11905Y24648D01*
X12080Y24498D02*
X12355Y24648D01*
D13*
X14860Y27250D02*
X14860Y18650D01*
X14060Y18650D02*
X14060Y27250D01*
X14160Y19250D02*
X14160Y18650D01*
X14160Y19250D02*
X14760Y19250D01*
X14760Y18650D01*
X14160Y18650D01*
X14110Y19300D02*
X14810Y19300D01*
X14810Y18600D01*
X14260Y18450D02*
X14234Y18452D01*
X14208Y18457D01*
X14183Y18465D01*
X14160Y18477D01*
X14138Y18491D01*
X14119Y18509D01*
X14101Y18528D01*
X14087Y18550D01*
X14075Y18573D01*
X14067Y18598D01*
X14062Y18624D01*
X14060Y18650D01*
X14860Y27250D02*
X14858Y27276D01*
X14853Y27302D01*
X14845Y27327D01*
X14833Y27350D01*
X14819Y27372D01*
X14801Y27391D01*
X14782Y27409D01*
X14760Y27423D01*
X14737Y27435D01*
X14712Y27443D01*
X14686Y27448D01*
X14660Y27450D01*
X14260Y27450D02*
X14234Y27448D01*
X14208Y27443D01*
X14183Y27435D01*
X14160Y27423D01*
X14138Y27409D01*
X14119Y27391D01*
X14101Y27372D01*
X14087Y27350D01*
X14075Y27327D01*
X14067Y27302D01*
X14062Y27276D01*
X14060Y27250D01*
X14860Y18650D02*
X14858Y18624D01*
X14853Y18598D01*
X14845Y18573D01*
X14833Y18550D01*
X14819Y18528D01*
X14801Y18509D01*
X14782Y18491D01*
X14760Y18477D01*
X14737Y18465D01*
X14712Y18457D01*
X14686Y18452D01*
X14660Y18450D01*
X14660Y27450D02*
X14260Y27450D01*
X14260Y18450D02*
X14660Y18450D01*
X14810Y18600D02*
X14110Y18600D01*
X14110Y19300D01*
X14460Y22250D02*
X14460Y22500D01*
X14460Y23400D02*
X14460Y23650D01*
X14310Y23400D02*
X14310Y22500D01*
X14310Y23400D02*
X14460Y23400D01*
X14610Y23400D01*
X14610Y22500D01*
X14460Y22500D01*
X14310Y22500D01*
D20*
X14295Y18169D02*
X14371Y18075D01*
X14295Y18169D02*
X14635Y18169D01*
X14635Y18075D02*
X14635Y18264D01*
X13935Y18475D02*
X13485Y18475D01*
X13485Y18600D01*
X13487Y18621D01*
X13492Y18641D01*
X13500Y18659D01*
X13511Y18677D01*
X13525Y18692D01*
X13542Y18705D01*
X13560Y18714D01*
X13579Y18721D01*
X13600Y18725D01*
X13620Y18725D01*
X13641Y18721D01*
X13660Y18714D01*
X13678Y18705D01*
X13695Y18692D01*
X13709Y18677D01*
X13720Y18659D01*
X13728Y18641D01*
X13733Y18621D01*
X13735Y18600D01*
X13735Y18475D01*
X13735Y18625D02*
X13935Y18725D01*
X13935Y18937D02*
X13485Y18937D01*
X13935Y19187D01*
X13485Y19187D01*
X13485Y19502D02*
X13835Y19402D01*
X13835Y19652D01*
X13735Y19577D02*
X13935Y19577D01*
X13585Y21475D02*
X13485Y21600D01*
X13935Y21600D01*
X13935Y21475D02*
X13935Y21725D01*
X13710Y21925D02*
X13676Y21927D01*
X13643Y21931D01*
X13610Y21939D01*
X13578Y21949D01*
X13547Y21963D01*
X13548Y21962D02*
X13533Y21969D01*
X13519Y21978D01*
X13507Y21989D01*
X13498Y22003D01*
X13491Y22018D01*
X13486Y22034D01*
X13485Y22050D01*
X13486Y22066D01*
X13491Y22082D01*
X13498Y22097D01*
X13507Y22111D01*
X13519Y22122D01*
X13533Y22131D01*
X13548Y22138D01*
X13547Y22137D02*
X13578Y22151D01*
X13610Y22161D01*
X13643Y22169D01*
X13676Y22173D01*
X13710Y22175D01*
X13710Y21925D02*
X13744Y21927D01*
X13777Y21931D01*
X13810Y21939D01*
X13842Y21949D01*
X13873Y21963D01*
X13873Y21962D02*
X13888Y21969D01*
X13902Y21978D01*
X13914Y21989D01*
X13923Y22003D01*
X13930Y22018D01*
X13935Y22034D01*
X13936Y22050D01*
X13873Y22137D02*
X13842Y22151D01*
X13810Y22161D01*
X13777Y22169D01*
X13744Y22173D01*
X13710Y22175D01*
X13873Y22138D02*
X13888Y22131D01*
X13902Y22122D01*
X13914Y22111D01*
X13923Y22097D01*
X13930Y22082D01*
X13935Y22066D01*
X13936Y22050D01*
X13835Y21950D02*
X13585Y22150D01*
X13485Y22398D02*
X13935Y22398D01*
X13760Y22398D02*
X13485Y22648D01*
X13660Y22498D02*
X13935Y22648D01*
M02*
