M48
;GenerationSoftware,Autodesk,EAGLE,9.5.1*%
;CreationDate,2019-10-18T04:39:47Z*%
FMAT,2
ICI,OFF
INCH,TZ,000.000
T4C0.032
T3C0.039
T2C0.040
T1C0.043
%
G90
M72
T1
X5250Y2350
X4850Y2350
X4950Y500
X5350Y500
T2
X4050Y3000
X5950Y1650
X4050Y2900
X3950Y3000
X5950Y1950
X4650Y3000
X4650Y2900
X4550Y3000
X4550Y2900
X4450Y3000
X4450Y2900
X4350Y3000
X4350Y2900
X4250Y3000
X4250Y2900
X4150Y3000
X4150Y2900
X6050Y3350
X6050Y3250
X6050Y3150
X6050Y3050
X6050Y2950
X6050Y2850
X6050Y2750
X6050Y2650
X6050Y2550
X6050Y2450
X6050Y2350
X6050Y2250
X6050Y2150
X6050Y2050
X6050Y1950
X6050Y1850
X6050Y1750
X6050Y1650
X6050Y1550
X5950Y3350
X5950Y3250
X5950Y3150
X5950Y3050
X5950Y2950
X5950Y2850
X5950Y2750
X5950Y2650
X5950Y2550
X5950Y2450
X5950Y2350
X5950Y2250
X5950Y2150
X5950Y2050
X3950Y2900
X5950Y1850
X5950Y1750
X3850Y3000
X5950Y1550
X6050Y1450
X5950Y1450
X5950Y1350
X6050Y1350
X5950Y1250
X6050Y1250
X5950Y1150
X6050Y1150
X5950Y1050
X6050Y1050
X5950Y950
X6050Y950
X5950Y850
X6050Y850
X5950Y750
X6050Y750
X5950Y650
X6050Y650
X5950Y550
X6050Y550
X5950Y450
X6050Y450
X3750Y2600
X3750Y2700
X3850Y2600
X3850Y2700
X3950Y2600
X3950Y2700
X4050Y2600
X4050Y2700
X4150Y2600
X4150Y2700
X4250Y2600
X4250Y2700
X4350Y2600
X4350Y2700
X4450Y2600
X4450Y2700
X4550Y2600
X4550Y2700
X4650Y2600
X4650Y2700
X3750Y2900
X3750Y3000
X3850Y2900
T3
X3730Y433
X6150Y400
X3730Y2024
X3730Y3615
X6130Y3615
T4
X4650Y650
X4550Y650
X4450Y650
X4350Y650
X4250Y650
X4150Y650
X4050Y650
X3950Y650
X4250Y950
X4150Y950
X4350Y950
X4450Y950
X5500Y2850
X5400Y2850
X4900Y2850
X4800Y2850
X5300Y2850
X5200Y2850
X5000Y2850
X5100Y2850
X4800Y2550
X4900Y2550
X5000Y2550
X5100Y2550
X5200Y2550
X5300Y2550
X5400Y2550
X5500Y2550
X3950Y950
X4050Y950
X5600Y3300
X5500Y3300
X5000Y3300
X4900Y3300
X5400Y3300
X5300Y3300
X5100Y3300
X5200Y3300
X4800Y3300
X4800Y3000
X4900Y3000
X5000Y3000
X5100Y3000
X5200Y3000
X5300Y3000
X5400Y3000
X5500Y3000
X5600Y3000
X5750Y950
X5650Y950
X5150Y950
X5050Y950
X5550Y950
X5450Y950
X5250Y950
X5350Y950
X4950Y950
X4950Y650
X5050Y650
X5150Y650
X5250Y650
X5350Y650
X5450Y650
X5550Y650
X5650Y650
X5750Y650
X4550Y1550
X4450Y1550
X3950Y1550
X3850Y1550
X4350Y1550
X4250Y1550
X4050Y1550
X4150Y1550
X3850Y1250
X3950Y1250
X4050Y1250
X4150Y1250
X4250Y1250
X4350Y1250
X4450Y1250
X4550Y1250
X4550Y2150
X4450Y2150
X3950Y2150
X3850Y2150
X4350Y2150
X4250Y2150
X4050Y2150
X4150Y2150
X3850Y1850
X3950Y1850
X4050Y1850
X4150Y1850
X4250Y1850
X4350Y1850
X4450Y1850
X4550Y1850
X5600Y1550
X5500Y1550
X5000Y1550
X4900Y1550
X5400Y1550
X5300Y1550
X5100Y1550
X5200Y1550
X4800Y1550
X4800Y1250
X4900Y1250
X5000Y1250
X5100Y1250
X5200Y1250
X5300Y1250
X5400Y1250
X5500Y1250
X5600Y1250
X5600Y2150
X5500Y2150
X5000Y2150
X4900Y2150
X5400Y2150
X5300Y2150
X5100Y2150
X5200Y2150
X4800Y2150
X4800Y1850
X4900Y1850
X5000Y1850
X5100Y1850
X5200Y1850
X5300Y1850
X5400Y1850
X5500Y1850
X5600Y1850
X4550Y950
X4650Y950
X4850Y3450
X4950Y3450
X5050Y3450
X5150Y3450
X5250Y3450
X5350Y3450
X5450Y3450
X5550Y3450
X5650Y3450
M30