M48
;GenerationSoftware,Autodesk,EAGLE,9.5.0*%
;CreationDate,2019-09-17T17:46:49Z*%
FMAT,2
ICI,OFF
INCH,TZ,000.000
T3C0.032
T2C0.039
T1C0.040
%
G90
M72
T1
X2400Y2500
X779Y189
X779Y289
X779Y389
X779Y489
X2000Y3300
X2000Y3200
X1900Y3300
X1900Y3200
X1800Y3300
X1800Y3200
X1700Y3300
X1700Y3200
X1600Y3300
X1600Y3200
X1500Y3300
X1500Y3200
X1400Y3300
X1400Y3200
X1300Y3300
X1300Y3200
X1200Y3300
X1200Y3200
X1100Y3300
X1100Y3200
X994Y2106
X1094Y2106
X994Y2006
X1094Y2006
X994Y1906
X1094Y1906
X994Y1806
X1094Y1806
X994Y1706
X1094Y1706
X179Y1989
X179Y1889
X179Y1789
X179Y1689
X179Y1589
X179Y1489
X179Y1389
X179Y1289
X179Y1189
X179Y1089
X179Y989
X179Y889
X179Y789
X179Y689
X179Y589
X179Y489
X179Y389
X179Y289
X2500Y3000
X2500Y2900
X2500Y2800
X2500Y2700
X2500Y2600
X2500Y2500
X2500Y2400
X2500Y2300
X2500Y2200
X2500Y2100
X2500Y2000
X2500Y1900
X2500Y1800
X2500Y1700
X2500Y1600
X2500Y1500
X2500Y1400
X2500Y1300
X2500Y1200
X2400Y3000
X2400Y2900
X2400Y2800
X2400Y2700
X2400Y2600
X779Y89
X2400Y2400
X2400Y2300
X2400Y2200
X2400Y2100
X2400Y2000
X2400Y1900
X2400Y1800
X2400Y1700
X2400Y1600
X2400Y1500
X2400Y1400
X2400Y1300
X2400Y1200
X2500Y1100
X2400Y1100
X2400Y1000
X2500Y1000
X2400Y900
X2500Y900
X2400Y800
X2500Y800
X2400Y700
X2500Y700
X2400Y600
X2500Y600
X2400Y500
X2500Y500
X2400Y400
X2500Y400
X2400Y300
X2500Y300
X2400Y200
X2500Y200
X2400Y100
X2500Y100
X1100Y3500
X1100Y3600
X1200Y3500
X1200Y3600
X1300Y3500
X1300Y3600
X1400Y3500
X1400Y3600
X1500Y3500
X1500Y3600
X1600Y3500
X1600Y3600
X1700Y3500
X1700Y3600
X1800Y3500
X1800Y3600
X1900Y3500
X1900Y3600
X2000Y3500
X2000Y3600
X179Y189
X179Y89
X779Y1989
X779Y1889
X779Y1789
X779Y1689
X779Y1589
X779Y1489
X779Y1389
X779Y1289
X779Y1189
X779Y1089
X779Y989
X779Y889
X779Y789
X779Y689
X779Y589
T2
X2432Y-30
X-68Y1796
X-68Y3572
X2550Y3572
X-68Y20
T3
X2050Y150
X2150Y150
X1142Y2295
X1142Y2395
X1142Y2895
X1142Y2995
X1142Y2495
X1142Y2595
X1142Y2795
X1142Y2695
X842Y2995
X842Y2895
X842Y2795
X842Y2695
X842Y2595
X842Y2495
X842Y2395
X842Y2295
X95Y3060
X95Y2960
X95Y2460
X95Y2360
X95Y2860
X95Y2760
X95Y2560
X95Y2660
X395Y2360
X395Y2460
X395Y2560
X395Y2660
X395Y2760
X395Y2860
X395Y2960
X395Y3060
X1950Y150
X1850Y150
X1750Y150
X1650Y150
X1550Y150
X1450Y150
X1350Y150
X1250Y150
X1150Y150
X1050Y150
X1050Y750
X1150Y750
X1250Y750
X1350Y750
X1450Y750
X1550Y750
X1650Y750
X1750Y750
X1850Y750
X1950Y750
X2050Y750
X2150Y750
X2150Y998
X2050Y998
X1950Y998
X1850Y998
X1750Y998
X1650Y998
X1550Y998
X1450Y998
X1350Y998
X1250Y998
X1150Y998
X1050Y998
X1050Y1598
X1150Y1598
X1250Y1598
X1350Y1598
X1450Y1598
X1550Y1598
X1650Y1598
X1750Y1598
X1850Y1598
X1950Y1598
X2050Y1598
X2150Y1598
X1600Y1900
X1600Y2000
X1600Y2100
X1600Y2200
X1600Y2300
X1600Y2400
X1600Y2500
X1600Y2600
X1600Y2700
X1600Y2800
X1600Y2900
X1600Y3000
X2200Y3000
X2200Y2900
X2200Y2800
X2200Y2700
X2200Y2600
X2200Y2500
X2200Y2400
X2200Y2300
X2200Y2200
X2200Y2100
X2200Y2000
X2200Y1900
X579Y2462
X579Y2562
X579Y2662
X579Y2762
X579Y2862
X579Y2962
X1300Y1696
X1300Y1996
X-69Y3262
X-69Y3162
X-69Y3062
X-69Y2962
X-69Y2862
X-69Y2762
X-69Y2662
X-69Y2562
X-69Y2462
X1288Y2095
X1288Y2195
X1288Y2295
X1288Y2395
X1288Y2495
X1288Y2595
X1288Y2695
X1288Y2795
X1288Y2895
X1446Y1895
X1446Y1995
X1446Y2095
X1446Y2195
X1446Y2295
X1446Y2395
X1446Y2495
X1446Y2595
X1446Y2695
M30